<?xml version="1.0" encoding="utf-8" standalone="no"?>
<!DOCTYPE svg PUBLIC "-//W3C//DTD SVG 1.1//EN"
  "http://www.w3.org/Graphics/SVG/1.1/DTD/svg11.dtd">
<svg xmlns:xlink="http://www.w3.org/1999/xlink" width="864pt" height="576pt" viewBox="0 0 864 576" xmlns="http://www.w3.org/2000/svg" version="1.1">
 <metadata>
  <rdf:RDF xmlns:dc="http://purl.org/dc/elements/1.1/" xmlns:cc="http://creativecommons.org/ns#" xmlns:rdf="http://www.w3.org/1999/02/22-rdf-syntax-ns#">
   <cc:Work>
    <dc:type rdf:resource="http://purl.org/dc/dcmitype/StillImage"/>
    <dc:date>2025-04-17T13:45:43.994204</dc:date>
    <dc:format>image/svg+xml</dc:format>
    <dc:creator>
     <cc:Agent>
      <dc:title>Matplotlib v3.10.1, https://matplotlib.org/</dc:title>
     </cc:Agent>
    </dc:creator>
   </cc:Work>
  </rdf:RDF>
 </metadata>
 <defs>
  <style type="text/css">*{stroke-linejoin: round; stroke-linecap: butt}</style>
 </defs>
 <g id="figure_1">
  <g id="patch_1">
   <path d="M 0 576 
L 864 576 
L 864 0 
L 0 0 
z
" style="fill: #ffffff"/>
  </g>
  <g id="axes_1">
   <g id="patch_2">
    <path d="M 108 512.64 
L 777.6 512.64 
L 777.6 69.12 
L 108 69.12 
z
" style="fill: #ffffff"/>
   </g>
   <g id="FillBetweenPolyCollection_1"/>
   <g id="FillBetweenPolyCollection_2"/>
   <g id="matplotlib.axis_1">
    <g id="xtick_1">
     <g id="line2d_1">
      <path d="M 136.400486 512.64 
L 136.400486 69.12 
" clip-path="url(#p4f7b69071f)" style="fill: none; stroke: #b0b0b0; stroke-width: 0.8; stroke-linecap: square"/>
     </g>
     <g id="line2d_2">
      <defs>
       <path id="m5308316437" d="M 0 0 
L 0 3.5 
" style="stroke: #000000; stroke-width: 0.8"/>
      </defs>
      <g>
       <use xlink:href="#m5308316437" x="136.400486" y="512.64" style="stroke: #000000; stroke-width: 0.8"/>
      </g>
     </g>
     <g id="text_1">
      <!-- 0 -->
      <g transform="translate(126.856736 542.435313) scale(0.3 -0.3)">
       <defs>
        <path id="DejaVuSans-30" d="M 2034 4250 
Q 1547 4250 1301 3770 
Q 1056 3291 1056 2328 
Q 1056 1369 1301 889 
Q 1547 409 2034 409 
Q 2525 409 2770 889 
Q 3016 1369 3016 2328 
Q 3016 3291 2770 3770 
Q 2525 4250 2034 4250 
z
M 2034 4750 
Q 2819 4750 3233 4129 
Q 3647 3509 3647 2328 
Q 3647 1150 3233 529 
Q 2819 -91 2034 -91 
Q 1250 -91 836 529 
Q 422 1150 422 2328 
Q 422 3509 836 4129 
Q 1250 4750 2034 4750 
z
" transform="scale(0.015625)"/>
       </defs>
       <use xlink:href="#DejaVuSans-30"/>
      </g>
     </g>
    </g>
    <g id="xtick_2">
     <g id="line2d_3">
      <path d="M 228.940358 512.64 
L 228.940358 69.12 
" clip-path="url(#p4f7b69071f)" style="fill: none; stroke: #b0b0b0; stroke-width: 0.8; stroke-linecap: square"/>
     </g>
     <g id="line2d_4">
      <g>
       <use xlink:href="#m5308316437" x="228.940358" y="512.64" style="stroke: #000000; stroke-width: 0.8"/>
      </g>
     </g>
     <g id="text_2">
      <!-- 500 -->
      <g transform="translate(200.309108 542.435313) scale(0.3 -0.3)">
       <defs>
        <path id="DejaVuSans-35" d="M 691 4666 
L 3169 4666 
L 3169 4134 
L 1269 4134 
L 1269 2991 
Q 1406 3038 1543 3061 
Q 1681 3084 1819 3084 
Q 2600 3084 3056 2656 
Q 3513 2228 3513 1497 
Q 3513 744 3044 326 
Q 2575 -91 1722 -91 
Q 1428 -91 1123 -41 
Q 819 9 494 109 
L 494 744 
Q 775 591 1075 516 
Q 1375 441 1709 441 
Q 2250 441 2565 725 
Q 2881 1009 2881 1497 
Q 2881 1984 2565 2268 
Q 2250 2553 1709 2553 
Q 1456 2553 1204 2497 
Q 953 2441 691 2322 
L 691 4666 
z
" transform="scale(0.015625)"/>
       </defs>
       <use xlink:href="#DejaVuSans-35"/>
       <use xlink:href="#DejaVuSans-30" transform="translate(63.623047 0)"/>
       <use xlink:href="#DejaVuSans-30" transform="translate(127.246094 0)"/>
      </g>
     </g>
    </g>
    <g id="xtick_3">
     <g id="line2d_5">
      <path d="M 321.480229 512.64 
L 321.480229 69.12 
" clip-path="url(#p4f7b69071f)" style="fill: none; stroke: #b0b0b0; stroke-width: 0.8; stroke-linecap: square"/>
     </g>
     <g id="line2d_6">
      <g>
       <use xlink:href="#m5308316437" x="321.480229" y="512.64" style="stroke: #000000; stroke-width: 0.8"/>
      </g>
     </g>
     <g id="text_3">
      <!-- 1000 -->
      <g transform="translate(283.305229 542.435313) scale(0.3 -0.3)">
       <defs>
        <path id="DejaVuSans-31" d="M 794 531 
L 1825 531 
L 1825 4091 
L 703 3866 
L 703 4441 
L 1819 4666 
L 2450 4666 
L 2450 531 
L 3481 531 
L 3481 0 
L 794 0 
L 794 531 
z
" transform="scale(0.015625)"/>
       </defs>
       <use xlink:href="#DejaVuSans-31"/>
       <use xlink:href="#DejaVuSans-30" transform="translate(63.623047 0)"/>
       <use xlink:href="#DejaVuSans-30" transform="translate(127.246094 0)"/>
       <use xlink:href="#DejaVuSans-30" transform="translate(190.869141 0)"/>
      </g>
     </g>
    </g>
    <g id="xtick_4">
     <g id="line2d_7">
      <path d="M 414.0201 512.64 
L 414.0201 69.12 
" clip-path="url(#p4f7b69071f)" style="fill: none; stroke: #b0b0b0; stroke-width: 0.8; stroke-linecap: square"/>
     </g>
     <g id="line2d_8">
      <g>
       <use xlink:href="#m5308316437" x="414.0201" y="512.64" style="stroke: #000000; stroke-width: 0.8"/>
      </g>
     </g>
     <g id="text_4">
      <!-- 1500 -->
      <g transform="translate(375.8451 542.435313) scale(0.3 -0.3)">
       <use xlink:href="#DejaVuSans-31"/>
       <use xlink:href="#DejaVuSans-35" transform="translate(63.623047 0)"/>
       <use xlink:href="#DejaVuSans-30" transform="translate(127.246094 0)"/>
       <use xlink:href="#DejaVuSans-30" transform="translate(190.869141 0)"/>
      </g>
     </g>
    </g>
    <g id="xtick_5">
     <g id="line2d_9">
      <path d="M 506.559971 512.64 
L 506.559971 69.12 
" clip-path="url(#p4f7b69071f)" style="fill: none; stroke: #b0b0b0; stroke-width: 0.8; stroke-linecap: square"/>
     </g>
     <g id="line2d_10">
      <g>
       <use xlink:href="#m5308316437" x="506.559971" y="512.64" style="stroke: #000000; stroke-width: 0.8"/>
      </g>
     </g>
     <g id="text_5">
      <!-- 2000 -->
      <g transform="translate(468.384971 542.435313) scale(0.3 -0.3)">
       <defs>
        <path id="DejaVuSans-32" d="M 1228 531 
L 3431 531 
L 3431 0 
L 469 0 
L 469 531 
Q 828 903 1448 1529 
Q 2069 2156 2228 2338 
Q 2531 2678 2651 2914 
Q 2772 3150 2772 3378 
Q 2772 3750 2511 3984 
Q 2250 4219 1831 4219 
Q 1534 4219 1204 4116 
Q 875 4013 500 3803 
L 500 4441 
Q 881 4594 1212 4672 
Q 1544 4750 1819 4750 
Q 2544 4750 2975 4387 
Q 3406 4025 3406 3419 
Q 3406 3131 3298 2873 
Q 3191 2616 2906 2266 
Q 2828 2175 2409 1742 
Q 1991 1309 1228 531 
z
" transform="scale(0.015625)"/>
       </defs>
       <use xlink:href="#DejaVuSans-32"/>
       <use xlink:href="#DejaVuSans-30" transform="translate(63.623047 0)"/>
       <use xlink:href="#DejaVuSans-30" transform="translate(127.246094 0)"/>
       <use xlink:href="#DejaVuSans-30" transform="translate(190.869141 0)"/>
      </g>
     </g>
    </g>
    <g id="xtick_6">
     <g id="line2d_11">
      <path d="M 599.099842 512.64 
L 599.099842 69.12 
" clip-path="url(#p4f7b69071f)" style="fill: none; stroke: #b0b0b0; stroke-width: 0.8; stroke-linecap: square"/>
     </g>
     <g id="line2d_12">
      <g>
       <use xlink:href="#m5308316437" x="599.099842" y="512.64" style="stroke: #000000; stroke-width: 0.8"/>
      </g>
     </g>
     <g id="text_6">
      <!-- 2500 -->
      <g transform="translate(560.924842 542.435313) scale(0.3 -0.3)">
       <use xlink:href="#DejaVuSans-32"/>
       <use xlink:href="#DejaVuSans-35" transform="translate(63.623047 0)"/>
       <use xlink:href="#DejaVuSans-30" transform="translate(127.246094 0)"/>
       <use xlink:href="#DejaVuSans-30" transform="translate(190.869141 0)"/>
      </g>
     </g>
    </g>
    <g id="xtick_7">
     <g id="line2d_13">
      <path d="M 691.639714 512.64 
L 691.639714 69.12 
" clip-path="url(#p4f7b69071f)" style="fill: none; stroke: #b0b0b0; stroke-width: 0.8; stroke-linecap: square"/>
     </g>
     <g id="line2d_14">
      <g>
       <use xlink:href="#m5308316437" x="691.639714" y="512.64" style="stroke: #000000; stroke-width: 0.8"/>
      </g>
     </g>
     <g id="text_7">
      <!-- 3000 -->
      <g transform="translate(653.464714 542.435313) scale(0.3 -0.3)">
       <defs>
        <path id="DejaVuSans-33" d="M 2597 2516 
Q 3050 2419 3304 2112 
Q 3559 1806 3559 1356 
Q 3559 666 3084 287 
Q 2609 -91 1734 -91 
Q 1441 -91 1130 -33 
Q 819 25 488 141 
L 488 750 
Q 750 597 1062 519 
Q 1375 441 1716 441 
Q 2309 441 2620 675 
Q 2931 909 2931 1356 
Q 2931 1769 2642 2001 
Q 2353 2234 1838 2234 
L 1294 2234 
L 1294 2753 
L 1863 2753 
Q 2328 2753 2575 2939 
Q 2822 3125 2822 3475 
Q 2822 3834 2567 4026 
Q 2313 4219 1838 4219 
Q 1578 4219 1281 4162 
Q 984 4106 628 3988 
L 628 4550 
Q 988 4650 1302 4700 
Q 1616 4750 1894 4750 
Q 2613 4750 3031 4423 
Q 3450 4097 3450 3541 
Q 3450 3153 3228 2886 
Q 3006 2619 2597 2516 
z
" transform="scale(0.015625)"/>
       </defs>
       <use xlink:href="#DejaVuSans-33"/>
       <use xlink:href="#DejaVuSans-30" transform="translate(63.623047 0)"/>
       <use xlink:href="#DejaVuSans-30" transform="translate(127.246094 0)"/>
       <use xlink:href="#DejaVuSans-30" transform="translate(190.869141 0)"/>
      </g>
     </g>
    </g>
    <g id="text_8">
     <!-- Steps -->
     <g transform="translate(386.840625 583.068125) scale(0.4 -0.4)">
      <defs>
       <path id="DejaVuSans-53" d="M 3425 4513 
L 3425 3897 
Q 3066 4069 2747 4153 
Q 2428 4238 2131 4238 
Q 1616 4238 1336 4038 
Q 1056 3838 1056 3469 
Q 1056 3159 1242 3001 
Q 1428 2844 1947 2747 
L 2328 2669 
Q 3034 2534 3370 2195 
Q 3706 1856 3706 1288 
Q 3706 609 3251 259 
Q 2797 -91 1919 -91 
Q 1588 -91 1214 -16 
Q 841 59 441 206 
L 441 856 
Q 825 641 1194 531 
Q 1563 422 1919 422 
Q 2459 422 2753 634 
Q 3047 847 3047 1241 
Q 3047 1584 2836 1778 
Q 2625 1972 2144 2069 
L 1759 2144 
Q 1053 2284 737 2584 
Q 422 2884 422 3419 
Q 422 4038 858 4394 
Q 1294 4750 2059 4750 
Q 2388 4750 2728 4690 
Q 3069 4631 3425 4513 
z
" transform="scale(0.015625)"/>
       <path id="DejaVuSans-74" d="M 1172 4494 
L 1172 3500 
L 2356 3500 
L 2356 3053 
L 1172 3053 
L 1172 1153 
Q 1172 725 1289 603 
Q 1406 481 1766 481 
L 2356 481 
L 2356 0 
L 1766 0 
Q 1100 0 847 248 
Q 594 497 594 1153 
L 594 3053 
L 172 3053 
L 172 3500 
L 594 3500 
L 594 4494 
L 1172 4494 
z
" transform="scale(0.015625)"/>
       <path id="DejaVuSans-65" d="M 3597 1894 
L 3597 1613 
L 953 1613 
Q 991 1019 1311 708 
Q 1631 397 2203 397 
Q 2534 397 2845 478 
Q 3156 559 3463 722 
L 3463 178 
Q 3153 47 2828 -22 
Q 2503 -91 2169 -91 
Q 1331 -91 842 396 
Q 353 884 353 1716 
Q 353 2575 817 3079 
Q 1281 3584 2069 3584 
Q 2775 3584 3186 3129 
Q 3597 2675 3597 1894 
z
M 3022 2063 
Q 3016 2534 2758 2815 
Q 2500 3097 2075 3097 
Q 1594 3097 1305 2825 
Q 1016 2553 972 2059 
L 3022 2063 
z
" transform="scale(0.015625)"/>
       <path id="DejaVuSans-70" d="M 1159 525 
L 1159 -1331 
L 581 -1331 
L 581 3500 
L 1159 3500 
L 1159 2969 
Q 1341 3281 1617 3432 
Q 1894 3584 2278 3584 
Q 2916 3584 3314 3078 
Q 3713 2572 3713 1747 
Q 3713 922 3314 415 
Q 2916 -91 2278 -91 
Q 1894 -91 1617 61 
Q 1341 213 1159 525 
z
M 3116 1747 
Q 3116 2381 2855 2742 
Q 2594 3103 2138 3103 
Q 1681 3103 1420 2742 
Q 1159 2381 1159 1747 
Q 1159 1113 1420 752 
Q 1681 391 2138 391 
Q 2594 391 2855 752 
Q 3116 1113 3116 1747 
z
" transform="scale(0.015625)"/>
       <path id="DejaVuSans-73" d="M 2834 3397 
L 2834 2853 
Q 2591 2978 2328 3040 
Q 2066 3103 1784 3103 
Q 1356 3103 1142 2972 
Q 928 2841 928 2578 
Q 928 2378 1081 2264 
Q 1234 2150 1697 2047 
L 1894 2003 
Q 2506 1872 2764 1633 
Q 3022 1394 3022 966 
Q 3022 478 2636 193 
Q 2250 -91 1575 -91 
Q 1294 -91 989 -36 
Q 684 19 347 128 
L 347 722 
Q 666 556 975 473 
Q 1284 391 1588 391 
Q 1994 391 2212 530 
Q 2431 669 2431 922 
Q 2431 1156 2273 1281 
Q 2116 1406 1581 1522 
L 1381 1569 
Q 847 1681 609 1914 
Q 372 2147 372 2553 
Q 372 3047 722 3315 
Q 1072 3584 1716 3584 
Q 2034 3584 2315 3537 
Q 2597 3491 2834 3397 
z
" transform="scale(0.015625)"/>
      </defs>
      <use xlink:href="#DejaVuSans-53"/>
      <use xlink:href="#DejaVuSans-74" transform="translate(63.476562 0)"/>
      <use xlink:href="#DejaVuSans-65" transform="translate(102.685547 0)"/>
      <use xlink:href="#DejaVuSans-70" transform="translate(164.208984 0)"/>
      <use xlink:href="#DejaVuSans-73" transform="translate(227.685547 0)"/>
     </g>
    </g>
   </g>
   <g id="matplotlib.axis_2">
    <g id="ytick_1">
     <g id="line2d_15">
      <path d="M 108 463.862995 
L 777.6 463.862995 
" clip-path="url(#p4f7b69071f)" style="fill: none; stroke: #b0b0b0; stroke-width: 0.8; stroke-linecap: square"/>
     </g>
     <g id="line2d_16">
      <defs>
       <path id="ma0bcf9bd0e" d="M 0 0 
L -3.5 0 
" style="stroke: #000000; stroke-width: 0.8"/>
      </defs>
      <g>
       <use xlink:href="#ma0bcf9bd0e" x="108" y="463.862995" style="stroke: #000000; stroke-width: 0.8"/>
      </g>
     </g>
     <g id="text_9">
      <!-- 244 -->
      <g transform="translate(43.7375 475.260651) scale(0.3 -0.3)">
       <defs>
        <path id="DejaVuSans-34" d="M 2419 4116 
L 825 1625 
L 2419 1625 
L 2419 4116 
z
M 2253 4666 
L 3047 4666 
L 3047 1625 
L 3713 1625 
L 3713 1100 
L 3047 1100 
L 3047 0 
L 2419 0 
L 2419 1100 
L 313 1100 
L 313 1709 
L 2253 4666 
z
" transform="scale(0.015625)"/>
       </defs>
       <use xlink:href="#DejaVuSans-32"/>
       <use xlink:href="#DejaVuSans-34" transform="translate(63.623047 0)"/>
       <use xlink:href="#DejaVuSans-34" transform="translate(127.246094 0)"/>
      </g>
     </g>
    </g>
    <g id="ytick_2">
     <g id="line2d_17">
      <path d="M 108 402.831264 
L 777.6 402.831264 
" clip-path="url(#p4f7b69071f)" style="fill: none; stroke: #b0b0b0; stroke-width: 0.8; stroke-linecap: square"/>
     </g>
     <g id="line2d_18">
      <g>
       <use xlink:href="#ma0bcf9bd0e" x="108" y="402.831264" style="stroke: #000000; stroke-width: 0.8"/>
      </g>
     </g>
     <g id="text_10">
      <!-- 246 -->
      <g transform="translate(43.7375 414.22892) scale(0.3 -0.3)">
       <defs>
        <path id="DejaVuSans-36" d="M 2113 2584 
Q 1688 2584 1439 2293 
Q 1191 2003 1191 1497 
Q 1191 994 1439 701 
Q 1688 409 2113 409 
Q 2538 409 2786 701 
Q 3034 994 3034 1497 
Q 3034 2003 2786 2293 
Q 2538 2584 2113 2584 
z
M 3366 4563 
L 3366 3988 
Q 3128 4100 2886 4159 
Q 2644 4219 2406 4219 
Q 1781 4219 1451 3797 
Q 1122 3375 1075 2522 
Q 1259 2794 1537 2939 
Q 1816 3084 2150 3084 
Q 2853 3084 3261 2657 
Q 3669 2231 3669 1497 
Q 3669 778 3244 343 
Q 2819 -91 2113 -91 
Q 1303 -91 875 529 
Q 447 1150 447 2328 
Q 447 3434 972 4092 
Q 1497 4750 2381 4750 
Q 2619 4750 2861 4703 
Q 3103 4656 3366 4563 
z
" transform="scale(0.015625)"/>
       </defs>
       <use xlink:href="#DejaVuSans-32"/>
       <use xlink:href="#DejaVuSans-34" transform="translate(63.623047 0)"/>
       <use xlink:href="#DejaVuSans-36" transform="translate(127.246094 0)"/>
      </g>
     </g>
    </g>
    <g id="ytick_3">
     <g id="line2d_19">
      <path d="M 108 341.799532 
L 777.6 341.799532 
" clip-path="url(#p4f7b69071f)" style="fill: none; stroke: #b0b0b0; stroke-width: 0.8; stroke-linecap: square"/>
     </g>
     <g id="line2d_20">
      <g>
       <use xlink:href="#ma0bcf9bd0e" x="108" y="341.799532" style="stroke: #000000; stroke-width: 0.8"/>
      </g>
     </g>
     <g id="text_11">
      <!-- 248 -->
      <g transform="translate(43.7375 353.197189) scale(0.3 -0.3)">
       <defs>
        <path id="DejaVuSans-38" d="M 2034 2216 
Q 1584 2216 1326 1975 
Q 1069 1734 1069 1313 
Q 1069 891 1326 650 
Q 1584 409 2034 409 
Q 2484 409 2743 651 
Q 3003 894 3003 1313 
Q 3003 1734 2745 1975 
Q 2488 2216 2034 2216 
z
M 1403 2484 
Q 997 2584 770 2862 
Q 544 3141 544 3541 
Q 544 4100 942 4425 
Q 1341 4750 2034 4750 
Q 2731 4750 3128 4425 
Q 3525 4100 3525 3541 
Q 3525 3141 3298 2862 
Q 3072 2584 2669 2484 
Q 3125 2378 3379 2068 
Q 3634 1759 3634 1313 
Q 3634 634 3220 271 
Q 2806 -91 2034 -91 
Q 1263 -91 848 271 
Q 434 634 434 1313 
Q 434 1759 690 2068 
Q 947 2378 1403 2484 
z
M 1172 3481 
Q 1172 3119 1398 2916 
Q 1625 2713 2034 2713 
Q 2441 2713 2670 2916 
Q 2900 3119 2900 3481 
Q 2900 3844 2670 4047 
Q 2441 4250 2034 4250 
Q 1625 4250 1398 4047 
Q 1172 3844 1172 3481 
z
" transform="scale(0.015625)"/>
       </defs>
       <use xlink:href="#DejaVuSans-32"/>
       <use xlink:href="#DejaVuSans-34" transform="translate(63.623047 0)"/>
       <use xlink:href="#DejaVuSans-38" transform="translate(127.246094 0)"/>
      </g>
     </g>
    </g>
    <g id="ytick_4">
     <g id="line2d_21">
      <path d="M 108 280.767801 
L 777.6 280.767801 
" clip-path="url(#p4f7b69071f)" style="fill: none; stroke: #b0b0b0; stroke-width: 0.8; stroke-linecap: square"/>
     </g>
     <g id="line2d_22">
      <g>
       <use xlink:href="#ma0bcf9bd0e" x="108" y="280.767801" style="stroke: #000000; stroke-width: 0.8"/>
      </g>
     </g>
     <g id="text_12">
      <!-- 250 -->
      <g transform="translate(43.7375 292.165458) scale(0.3 -0.3)">
       <use xlink:href="#DejaVuSans-32"/>
       <use xlink:href="#DejaVuSans-35" transform="translate(63.623047 0)"/>
       <use xlink:href="#DejaVuSans-30" transform="translate(127.246094 0)"/>
      </g>
     </g>
    </g>
    <g id="ytick_5">
     <g id="line2d_23">
      <path d="M 108 219.73607 
L 777.6 219.73607 
" clip-path="url(#p4f7b69071f)" style="fill: none; stroke: #b0b0b0; stroke-width: 0.8; stroke-linecap: square"/>
     </g>
     <g id="line2d_24">
      <g>
       <use xlink:href="#ma0bcf9bd0e" x="108" y="219.73607" style="stroke: #000000; stroke-width: 0.8"/>
      </g>
     </g>
     <g id="text_13">
      <!-- 252 -->
      <g transform="translate(43.7375 231.133726) scale(0.3 -0.3)">
       <use xlink:href="#DejaVuSans-32"/>
       <use xlink:href="#DejaVuSans-35" transform="translate(63.623047 0)"/>
       <use xlink:href="#DejaVuSans-32" transform="translate(127.246094 0)"/>
      </g>
     </g>
    </g>
    <g id="ytick_6">
     <g id="line2d_25">
      <path d="M 108 158.704339 
L 777.6 158.704339 
" clip-path="url(#p4f7b69071f)" style="fill: none; stroke: #b0b0b0; stroke-width: 0.8; stroke-linecap: square"/>
     </g>
     <g id="line2d_26">
      <g>
       <use xlink:href="#ma0bcf9bd0e" x="108" y="158.704339" style="stroke: #000000; stroke-width: 0.8"/>
      </g>
     </g>
     <g id="text_14">
      <!-- 254 -->
      <g transform="translate(43.7375 170.101995) scale(0.3 -0.3)">
       <use xlink:href="#DejaVuSans-32"/>
       <use xlink:href="#DejaVuSans-35" transform="translate(63.623047 0)"/>
       <use xlink:href="#DejaVuSans-34" transform="translate(127.246094 0)"/>
      </g>
     </g>
    </g>
    <g id="ytick_7">
     <g id="line2d_27">
      <path d="M 108 97.672608 
L 777.6 97.672608 
" clip-path="url(#p4f7b69071f)" style="fill: none; stroke: #b0b0b0; stroke-width: 0.8; stroke-linecap: square"/>
     </g>
     <g id="line2d_28">
      <g>
       <use xlink:href="#ma0bcf9bd0e" x="108" y="97.672608" style="stroke: #000000; stroke-width: 0.8"/>
      </g>
     </g>
     <g id="text_15">
      <!-- 256 -->
      <g transform="translate(43.7375 109.070264) scale(0.3 -0.3)">
       <use xlink:href="#DejaVuSans-32"/>
       <use xlink:href="#DejaVuSans-35" transform="translate(63.623047 0)"/>
       <use xlink:href="#DejaVuSans-36" transform="translate(127.246094 0)"/>
      </g>
     </g>
    </g>
    <g id="text_16">
     <!-- RMSE -->
     <g transform="translate(31.41875 347.3675) rotate(-90) scale(0.4 -0.4)">
      <defs>
       <path id="DejaVuSans-52" d="M 2841 2188 
Q 3044 2119 3236 1894 
Q 3428 1669 3622 1275 
L 4263 0 
L 3584 0 
L 2988 1197 
Q 2756 1666 2539 1819 
Q 2322 1972 1947 1972 
L 1259 1972 
L 1259 0 
L 628 0 
L 628 4666 
L 2053 4666 
Q 2853 4666 3247 4331 
Q 3641 3997 3641 3322 
Q 3641 2881 3436 2590 
Q 3231 2300 2841 2188 
z
M 1259 4147 
L 1259 2491 
L 2053 2491 
Q 2509 2491 2742 2702 
Q 2975 2913 2975 3322 
Q 2975 3731 2742 3939 
Q 2509 4147 2053 4147 
L 1259 4147 
z
" transform="scale(0.015625)"/>
       <path id="DejaVuSans-4d" d="M 628 4666 
L 1569 4666 
L 2759 1491 
L 3956 4666 
L 4897 4666 
L 4897 0 
L 4281 0 
L 4281 4097 
L 3078 897 
L 2444 897 
L 1241 4097 
L 1241 0 
L 628 0 
L 628 4666 
z
" transform="scale(0.015625)"/>
       <path id="DejaVuSans-45" d="M 628 4666 
L 3578 4666 
L 3578 4134 
L 1259 4134 
L 1259 2753 
L 3481 2753 
L 3481 2222 
L 1259 2222 
L 1259 531 
L 3634 531 
L 3634 0 
L 628 0 
L 628 4666 
z
" transform="scale(0.015625)"/>
      </defs>
      <use xlink:href="#DejaVuSans-52"/>
      <use xlink:href="#DejaVuSans-4d" transform="translate(69.482422 0)"/>
      <use xlink:href="#DejaVuSans-53" transform="translate(155.761719 0)"/>
      <use xlink:href="#DejaVuSans-45" transform="translate(219.238281 0)"/>
     </g>
    </g>
   </g>
   <g id="line2d_29">
    <path d="M 138.436364 89.28 
L 140.472241 117.695851 
L 144.543995 188.881222 
L 148.615749 282.843137 
L 150.651627 333.866041 
L 152.687504 379.542056 
L 154.723381 422.012638 
L 156.759258 454.2006 
L 158.795135 476.263324 
L 160.831012 488.997049 
L 162.86689 492.48 
L 164.902767 490.216548 
L 166.938644 483.21712 
L 168.974521 475.450791 
L 171.010398 464.566104 
L 173.046275 459.145645 
L 175.082153 450.793081 
L 177.11803 441.028712 
L 179.153907 440.650151 
L 181.189784 436.358392 
L 183.225661 437.104339 
L 185.261538 441.011018 
L 187.297416 446.98698 
L 191.36917 439.602472 
L 193.405047 436.942298 
L 195.440924 443.090079 
L 197.476801 429.710519 
L 199.512679 430.725603 
L 201.548556 426.512536 
L 203.584433 432.61841 
L 205.62031 432.171866 
L 207.656187 432.664974 
L 209.692064 435.323285 
L 211.727942 433.382052 
L 213.763819 430.852256 
L 215.799696 430.231564 
L 217.835573 427.601191 
L 219.87145 422.8424 
L 221.907327 430.76751 
L 223.943205 434.592237 
L 225.979082 442.472181 
L 228.014959 440.054603 
L 230.050836 439.089807 
L 232.086713 436.576309 
L 234.12259 441.927854 
L 236.158468 437.333897 
L 238.194345 430.907201 
L 240.230222 429.375727 
L 242.266099 431.529289 
L 244.301976 430.962146 
L 246.337853 428.302438 
L 248.373731 424.37853 
L 250.409608 427.195157 
L 254.481362 443.385757 
L 256.517239 440.950951 
L 258.553116 431.935789 
L 260.588994 427.393052 
L 262.624871 428.735013 
L 266.696625 435.116543 
L 268.732502 423.355064 
L 270.768379 428.834659 
L 272.804257 441.986989 
L 274.840134 436.13349 
L 276.876011 441.190753 
L 278.911888 434.566162 
L 280.947765 434.623901 
L 282.983642 429.103796 
L 285.01952 437.280815 
L 287.055397 443.687489 
L 289.091274 440.11048 
L 291.127151 436.092514 
L 293.163028 437.47871 
L 295.198905 429.879544 
L 297.234783 428.607429 
L 299.27066 428.056117 
L 301.306537 429.824133 
L 303.342414 427.980684 
L 305.378291 429.937748 
L 307.414168 430.200832 
L 309.450046 431.414743 
L 311.485923 436.050607 
L 313.5218 435.185922 
L 315.557677 444.976367 
L 317.593554 445.0369 
L 319.629431 447.580665 
L 321.665309 446.692698 
L 323.701186 442.793935 
L 325.737063 447.47124 
L 327.77294 445.367035 
L 329.808817 445.137011 
L 331.844694 436.770013 
L 333.880572 440.320016 
L 335.916449 440.75585 
L 337.952326 432.262665 
L 339.988203 422.746945 
L 342.02408 424.743588 
L 344.059957 430.488129 
L 346.095835 433.555734 
L 348.131712 427.958799 
L 350.167589 429.027432 
L 352.203466 429.320316 
L 354.239343 427.956937 
L 356.27522 433.475179 
L 358.311098 433.066351 
L 360.346975 431.386805 
L 362.382852 433.316863 
L 364.418729 435.89555 
L 366.454606 437.663567 
L 368.490483 437.813967 
L 370.526361 433.75456 
L 372.562238 433.716843 
L 374.598115 432.349739 
L 376.633992 428.973418 
L 378.669869 432.57045 
L 380.705746 436.69784 
L 382.741624 442.664489 
L 384.777501 443.317775 
L 386.813378 439.125661 
L 388.849255 437.219817 
L 390.885132 434.739844 
L 392.921009 431.315563 
L 394.956887 433.107327 
L 396.992764 424.958246 
L 399.028641 423.724779 
L 401.064518 424.001831 
L 403.100395 425.615723 
L 405.136272 426.941852 
L 407.17215 425.080243 
L 409.208027 424.057708 
L 411.243904 425.208292 
L 413.279781 423.679146 
L 415.315658 423.821165 
L 417.351535 428.754104 
L 419.387413 430.922101 
L 421.42329 432.570915 
L 423.459167 435.028072 
L 425.495044 433.335488 
L 427.530921 432.312953 
L 429.566798 433.201385 
L 431.602676 432.806527 
L 433.638553 427.037773 
L 435.67443 419.207652 
L 437.710307 424.992703 
L 439.746184 424.910286 
L 441.782061 426.323488 
L 443.817939 426.435706 
L 445.853816 427.925273 
L 447.889693 429.153153 
L 449.92557 430.914651 
L 451.961447 433.103136 
L 453.997324 433.931967 
L 456.033202 438.14969 
L 458.069079 437.455428 
L 460.104956 434.933548 
L 462.140833 437.647735 
L 464.17671 438.524992 
L 466.212587 436.086461 
L 468.248465 435.016431 
L 470.284342 433.293581 
L 472.320219 432.789764 
L 474.356096 431.821243 
L 476.391973 433.974805 
L 478.42785 436.456641 
L 480.463728 431.700643 
L 482.499605 430.141697 
L 484.535482 428.438403 
L 486.571359 424.739863 
L 488.607236 422.306454 
L 490.643113 425.006207 
L 494.714868 429.522868 
L 496.750745 434.134052 
L 498.786622 436.403558 
L 500.822499 435.968189 
L 502.858376 434.511217 
L 506.930131 434.876741 
L 508.966008 435.940251 
L 511.001885 438.865837 
L 513.037762 439.496307 
L 515.073639 440.339572 
L 517.109517 440.356335 
L 519.145394 441.128824 
L 521.181271 439.88325 
L 523.217148 437.36556 
L 525.253025 436.10462 
L 527.288902 437.927116 
L 529.32478 435.516058 
L 531.360657 430.897888 
L 533.396534 432.705949 
L 535.432411 434.15454 
L 537.468288 433.237239 
L 539.504165 427.083405 
L 541.540043 428.169732 
L 543.57592 426.421737 
L 545.611797 426.377036 
L 547.647674 423.22003 
L 549.683551 422.5565 
L 551.719428 426.471095 
L 553.755306 427.917358 
L 555.791183 430.034601 
L 557.82706 433.246086 
L 559.862937 434.637404 
L 561.898814 434.626229 
L 563.934691 434.239286 
L 565.970569 434.604344 
L 568.006446 435.813598 
L 570.042323 436.495754 
L 572.0782 434.34452 
L 574.114077 430.944452 
L 576.149954 432.328319 
L 578.185832 428.869581 
L 580.221709 426.91112 
L 582.257586 429.056767 
L 584.293463 429.461869 
L 586.32934 430.808952 
L 588.365217 432.933179 
L 590.401095 432.808389 
L 592.436972 432.003772 
L 594.472849 429.541959 
L 596.508726 429.463266 
L 600.58048 429.975465 
L 602.616358 429.832981 
L 604.652235 430.607332 
L 606.688112 428.74386 
L 608.723989 428.387183 
L 610.759866 424.931705 
L 612.795743 425.090952 
L 614.831621 426.679699 
L 616.867498 428.816499 
L 618.903375 429.493998 
L 620.939252 426.90367 
L 622.975129 426.848725 
L 625.011006 430.113293 
L 629.082761 429.893979 
L 631.118638 429.940542 
L 633.154515 431.128378 
L 635.190392 428.884016 
L 639.262147 431.703437 
L 641.298024 431.719269 
L 643.333901 431.287159 
L 645.369778 430.271609 
L 647.405655 430.654827 
L 649.441532 430.796845 
L 651.47741 431.195895 
L 653.513287 430.313982 
L 655.549164 429.766395 
L 657.585041 429.098208 
L 659.620918 429.124284 
L 661.656795 428.691709 
L 663.692673 429.38178 
L 665.72855 430.494648 
L 667.764427 430.760991 
L 671.836181 429.75941 
L 673.872058 429.084239 
L 675.907936 429.56105 
L 677.943813 429.007409 
L 679.97969 429.684909 
L 684.051444 428.802996 
L 688.123199 427.626801 
L 692.194953 427.440081 
L 694.23083 427.839131 
L 696.266707 428.035163 
L 698.302584 427.465691 
L 700.338462 427.531812 
L 704.410216 427.238927 
L 706.446093 428.2894 
L 708.48197 427.800017 
L 710.517847 427.627267 
L 712.553725 428.409068 
L 714.589602 428.551553 
L 716.625479 429.033485 
L 720.697233 428.94548 
L 728.840742 428.849093 
L 732.912496 428.809049 
L 736.984251 429.058164 
L 739.020128 429.194129 
L 743.091882 429.183885 
L 747.163636 429.214617 
L 747.163636 429.214617 
" clip-path="url(#p4f7b69071f)" style="fill: none; stroke: #1f77b4; stroke-width: 4; stroke-linecap: square"/>
   </g>
   <g id="line2d_30">
    <path d="M 138.436364 93.368277 
L 140.472241 121.383216 
L 142.508118 156.214122 
L 144.543995 196.168412 
L 146.579872 239.798427 
L 150.651627 334.689284 
L 154.723381 417.484802 
L 156.759258 448.372244 
L 158.795135 472.145247 
L 160.831012 486.758741 
L 162.86689 492.400376 
L 164.902767 489.887343 
L 166.938644 482.588978 
L 168.974521 469.382634 
L 171.010398 458.820166 
L 173.046275 453.956141 
L 175.082153 449.832942 
L 177.11803 453.641837 
L 179.153907 452.444224 
L 181.189784 445.672026 
L 183.225661 445.80706 
L 185.261538 445.727902 
L 187.297416 440.438752 
L 189.333293 437.364629 
L 191.36917 435.265546 
L 195.440924 443.480281 
L 197.476801 442.383711 
L 201.548556 425.450422 
L 203.584433 433.286131 
L 205.62031 433.568771 
L 207.656187 434.968936 
L 209.692064 440.476469 
L 211.727942 441.591665 
L 213.763819 442.530851 
L 215.799696 429.777104 
L 217.835573 430.398727 
L 219.87145 430.088614 
L 221.907327 425.187339 
L 223.943205 424.673277 
L 225.979082 429.330095 
L 228.014959 440.054603 
L 230.050836 442.16719 
L 234.12259 430.320501 
L 236.158468 421.298354 
L 238.194345 430.85505 
L 240.230222 425.197117 
L 242.266099 425.171041 
L 244.301976 427.692921 
L 246.337853 424.921461 
L 248.373731 425.704194 
L 250.409608 429.315194 
L 252.445485 431.168422 
L 254.481362 437.144384 
L 256.517239 429.084239 
L 258.553116 427.711081 
L 260.588994 428.666099 
L 262.624871 433.118037 
L 264.660748 431.109287 
L 266.696625 440.05181 
L 268.732502 441.403549 
L 270.768379 432.714331 
L 272.804257 431.655942 
L 274.840134 431.980024 
L 276.876011 436.650345 
L 278.911888 437.164406 
L 280.947765 439.709102 
L 282.983642 436.882697 
L 285.01952 432.151844 
L 287.055397 433.041672 
L 289.091274 431.631729 
L 291.127151 439.856709 
L 293.163028 442.707327 
L 295.198905 441.195875 
L 297.234783 439.913982 
L 299.27066 427.93412 
L 301.306537 417.351165 
L 303.342414 421.891573 
L 305.378291 422.066186 
L 307.414168 415.122635 
L 309.450046 425.117959 
L 311.485923 408.765318 
L 313.5218 419.505193 
L 315.557677 431.149797 
L 317.593554 438.899363 
L 319.629431 439.368723 
L 321.665309 439.236017 
L 323.701186 436.200076 
L 325.737063 438.12734 
L 327.77294 443.56363 
L 329.808817 433.136196 
L 331.844694 440.987736 
L 333.880572 436.162825 
L 335.916449 438.168315 
L 337.952326 436.971167 
L 339.988203 434.866497 
L 342.02408 431.331394 
L 344.059957 428.170663 
L 346.095835 426.376105 
L 348.131712 425.892776 
L 350.167589 426.993072 
L 352.203466 431.33512 
L 354.239343 428.855612 
L 356.27522 423.862607 
L 358.311098 417.509481 
L 360.346975 421.906008 
L 362.382852 426.574466 
L 364.418729 431.606585 
L 366.454606 431.98049 
L 368.490483 438.939407 
L 370.526361 441.112992 
L 372.562238 441.044544 
L 374.598115 441.814239 
L 376.633992 439.430187 
L 378.669869 432.83074 
L 380.705746 433.793208 
L 382.741624 433.73966 
L 384.777501 437.611881 
L 386.813378 441.871512 
L 388.849255 439.290962 
L 390.885132 440.267399 
L 392.921009 439.893028 
L 394.956887 448.101245 
L 396.992764 444.811067 
L 399.028641 441.997233 
L 401.064518 440.815917 
L 403.100395 443.231167 
L 405.136272 435.901138 
L 407.17215 436.613094 
L 409.208027 439.119142 
L 411.243904 439.457659 
L 413.279781 441.634038 
L 415.315658 435.555171 
L 417.351535 425.194323 
L 419.387413 428.784836 
L 421.42329 430.507686 
L 423.459167 437.549486 
L 425.495044 442.205838 
L 427.530921 445.743268 
L 429.566798 441.51856 
L 431.602676 436.439412 
L 433.638553 432.037763 
L 435.67443 429.898635 
L 437.710307 428.845834 
L 439.746184 420.72376 
L 441.782061 422.17142 
L 445.853816 435.918366 
L 447.889693 439.1983 
L 449.92557 436.43755 
L 451.961447 425.321907 
L 453.997324 425.808962 
L 456.033202 425.717697 
L 458.069079 435.339116 
L 460.104956 435.060666 
L 462.140833 436.415665 
L 464.17671 436.071095 
L 466.212587 434.74776 
L 468.248465 431.470619 
L 470.284342 433.389036 
L 472.320219 439.856709 
L 474.356096 441.382595 
L 476.391973 441.665235 
L 478.42785 442.957373 
L 480.463728 446.284802 
L 482.499605 434.219729 
L 484.535482 436.068767 
L 486.571359 434.171769 
L 488.607236 427.286888 
L 490.643113 430.167772 
L 492.678991 422.627277 
L 494.714868 425.511421 
L 496.750745 441.043613 
L 498.786622 445.642691 
L 500.822499 443.279593 
L 502.858376 439.090739 
L 504.894254 433.03981 
L 506.930131 432.270581 
L 508.966008 434.145693 
L 511.001885 435.774019 
L 513.037762 436.052935 
L 515.073639 439.131715 
L 517.109517 432.220292 
L 519.145394 432.535993 
L 521.181271 431.669911 
L 523.217148 430.362408 
L 525.253025 435.762844 
L 527.288902 436.142803 
L 529.32478 437.640285 
L 531.360657 429.705397 
L 533.396534 429.881407 
L 535.432411 425.919783 
L 537.468288 438.47936 
L 539.504165 434.079108 
L 541.540043 431.489245 
L 543.57592 432.118784 
L 545.611797 436.095308 
L 547.647674 437.188153 
L 549.683551 434.923304 
L 551.719428 430.288372 
L 553.755306 436.838461 
L 555.791183 441.52182 
L 557.82706 444.030662 
L 559.862937 445.927194 
L 561.898814 448.490516 
L 563.934691 446.893853 
L 565.970569 443.688886 
L 568.006446 442.993693 
L 570.042323 448.027674 
L 572.0782 447.114098 
L 574.114077 445.042022 
L 578.185832 425.476964 
L 580.221709 428.970624 
L 582.257586 430.202695 
L 584.293463 433.949195 
L 586.32934 430.018769 
L 588.365217 435.998921 
L 590.401095 437.237976 
L 592.436972 425.982643 
L 594.472849 423.049608 
L 596.508726 425.945858 
L 598.544603 427.900129 
L 600.58048 426.769567 
L 602.616358 432.657058 
L 604.652235 431.459444 
L 606.688112 425.843884 
L 608.723989 424.541503 
L 610.759866 419.759895 
L 612.795743 417.440567 
L 614.831621 433.994362 
L 616.867498 438.723818 
L 618.903375 433.903097 
L 620.939252 429.752891 
L 622.975129 432.296191 
L 625.011006 436.784913 
L 627.046884 443.228838 
L 629.082761 445.267855 
L 631.118638 437.657514 
L 633.154515 436.275043 
L 635.190392 442.085704 
L 637.226269 445.236657 
L 639.262147 441.480378 
L 643.333901 441.642885 
L 645.369778 442.406061 
L 647.405655 440.777735 
L 649.441532 441.946945 
L 651.47741 440.557955 
L 653.513287 440.806604 
L 655.549164 442.995089 
L 657.585041 440.792635 
L 659.620918 427.949021 
L 661.656795 420.092824 
L 663.692673 417.878264 
L 665.72855 419.469805 
L 667.764427 418.697316 
L 671.836181 416.714641 
L 673.872058 424.164338 
L 675.907936 423.549234 
L 677.943813 423.911498 
L 679.97969 422.73996 
L 682.015567 431.053876 
L 684.051444 423.591607 
L 686.087321 428.19441 
L 688.123199 421.154938 
L 690.159076 423.047745 
L 692.194953 416.840828 
L 694.23083 425.622707 
L 696.266707 429.564309 
L 698.302584 430.949574 
L 700.338462 428.366695 
L 702.374339 429.966152 
L 704.410216 434.870222 
L 706.446093 430.369392 
L 708.48197 430.242274 
L 710.517847 431.716009 
L 712.553725 436.286218 
L 714.589602 434.160594 
L 716.625479 427.097374 
L 718.661356 415.463014 
L 720.697233 430.455069 
L 722.73311 436.719259 
L 724.768988 436.885025 
L 726.804865 432.359051 
L 728.840742 435.093261 
L 730.876619 422.572797 
L 732.912496 424.065158 
L 734.948373 436.428703 
L 736.984251 435.609185 
L 739.020128 440.267399 
L 741.056005 431.33186 
L 743.091882 426.894357 
L 745.127759 432.068495 
L 747.163636 433.385311 
L 747.163636 433.385311 
" clip-path="url(#p4f7b69071f)" style="fill: none; stroke: #ff7f0e; stroke-width: 4; stroke-linecap: square"/>
   </g>
   <g id="line2d_31"/>
   <g id="line2d_32"/>
   <g id="patch_3">
    <path d="M 108 512.64 
L 108 69.12 
" style="fill: none; stroke: #000000; stroke-width: 0.8; stroke-linejoin: miter; stroke-linecap: square"/>
   </g>
   <g id="patch_4">
    <path d="M 777.6 512.64 
L 777.6 69.12 
" style="fill: none; stroke: #000000; stroke-width: 0.8; stroke-linejoin: miter; stroke-linecap: square"/>
   </g>
   <g id="patch_5">
    <path d="M 108 512.64 
L 777.6 512.64 
" style="fill: none; stroke: #000000; stroke-width: 0.8; stroke-linejoin: miter; stroke-linecap: square"/>
   </g>
   <g id="patch_6">
    <path d="M 108 69.12 
L 777.6 69.12 
" style="fill: none; stroke: #000000; stroke-width: 0.8; stroke-linejoin: miter; stroke-linecap: square"/>
   </g>
   <g id="text_17">
    <!-- aggregation -->
    <g transform="translate(261.314062 56.641875) scale(0.6 -0.6)">
     <defs>
      <path id="DejaVuSans-61" d="M 2194 1759 
Q 1497 1759 1228 1600 
Q 959 1441 959 1056 
Q 959 750 1161 570 
Q 1363 391 1709 391 
Q 2188 391 2477 730 
Q 2766 1069 2766 1631 
L 2766 1759 
L 2194 1759 
z
M 3341 1997 
L 3341 0 
L 2766 0 
L 2766 531 
Q 2569 213 2275 61 
Q 1981 -91 1556 -91 
Q 1019 -91 701 211 
Q 384 513 384 1019 
Q 384 1609 779 1909 
Q 1175 2209 1959 2209 
L 2766 2209 
L 2766 2266 
Q 2766 2663 2505 2880 
Q 2244 3097 1772 3097 
Q 1472 3097 1187 3025 
Q 903 2953 641 2809 
L 641 3341 
Q 956 3463 1253 3523 
Q 1550 3584 1831 3584 
Q 2591 3584 2966 3190 
Q 3341 2797 3341 1997 
z
" transform="scale(0.015625)"/>
      <path id="DejaVuSans-67" d="M 2906 1791 
Q 2906 2416 2648 2759 
Q 2391 3103 1925 3103 
Q 1463 3103 1205 2759 
Q 947 2416 947 1791 
Q 947 1169 1205 825 
Q 1463 481 1925 481 
Q 2391 481 2648 825 
Q 2906 1169 2906 1791 
z
M 3481 434 
Q 3481 -459 3084 -895 
Q 2688 -1331 1869 -1331 
Q 1566 -1331 1297 -1286 
Q 1028 -1241 775 -1147 
L 775 -588 
Q 1028 -725 1275 -790 
Q 1522 -856 1778 -856 
Q 2344 -856 2625 -561 
Q 2906 -266 2906 331 
L 2906 616 
Q 2728 306 2450 153 
Q 2172 0 1784 0 
Q 1141 0 747 490 
Q 353 981 353 1791 
Q 353 2603 747 3093 
Q 1141 3584 1784 3584 
Q 2172 3584 2450 3431 
Q 2728 3278 2906 2969 
L 2906 3500 
L 3481 3500 
L 3481 434 
z
" transform="scale(0.015625)"/>
      <path id="DejaVuSans-72" d="M 2631 2963 
Q 2534 3019 2420 3045 
Q 2306 3072 2169 3072 
Q 1681 3072 1420 2755 
Q 1159 2438 1159 1844 
L 1159 0 
L 581 0 
L 581 3500 
L 1159 3500 
L 1159 2956 
Q 1341 3275 1631 3429 
Q 1922 3584 2338 3584 
Q 2397 3584 2469 3576 
Q 2541 3569 2628 3553 
L 2631 2963 
z
" transform="scale(0.015625)"/>
      <path id="DejaVuSans-69" d="M 603 3500 
L 1178 3500 
L 1178 0 
L 603 0 
L 603 3500 
z
M 603 4863 
L 1178 4863 
L 1178 4134 
L 603 4134 
L 603 4863 
z
" transform="scale(0.015625)"/>
      <path id="DejaVuSans-6f" d="M 1959 3097 
Q 1497 3097 1228 2736 
Q 959 2375 959 1747 
Q 959 1119 1226 758 
Q 1494 397 1959 397 
Q 2419 397 2687 759 
Q 2956 1122 2956 1747 
Q 2956 2369 2687 2733 
Q 2419 3097 1959 3097 
z
M 1959 3584 
Q 2709 3584 3137 3096 
Q 3566 2609 3566 1747 
Q 3566 888 3137 398 
Q 2709 -91 1959 -91 
Q 1206 -91 779 398 
Q 353 888 353 1747 
Q 353 2609 779 3096 
Q 1206 3584 1959 3584 
z
" transform="scale(0.015625)"/>
      <path id="DejaVuSans-6e" d="M 3513 2113 
L 3513 0 
L 2938 0 
L 2938 2094 
Q 2938 2591 2744 2837 
Q 2550 3084 2163 3084 
Q 1697 3084 1428 2787 
Q 1159 2491 1159 1978 
L 1159 0 
L 581 0 
L 581 3500 
L 1159 3500 
L 1159 2956 
Q 1366 3272 1645 3428 
Q 1925 3584 2291 3584 
Q 2894 3584 3203 3211 
Q 3513 2838 3513 2113 
z
" transform="scale(0.015625)"/>
     </defs>
     <use xlink:href="#DejaVuSans-61"/>
     <use xlink:href="#DejaVuSans-67" transform="translate(61.279297 0)"/>
     <use xlink:href="#DejaVuSans-67" transform="translate(124.755859 0)"/>
     <use xlink:href="#DejaVuSans-72" transform="translate(188.232422 0)"/>
     <use xlink:href="#DejaVuSans-65" transform="translate(227.095703 0)"/>
     <use xlink:href="#DejaVuSans-67" transform="translate(288.619141 0)"/>
     <use xlink:href="#DejaVuSans-61" transform="translate(352.095703 0)"/>
     <use xlink:href="#DejaVuSans-74" transform="translate(413.375 0)"/>
     <use xlink:href="#DejaVuSans-69" transform="translate(452.583984 0)"/>
     <use xlink:href="#DejaVuSans-6f" transform="translate(480.367188 0)"/>
     <use xlink:href="#DejaVuSans-6e" transform="translate(541.548828 0)"/>
    </g>
   </g>
   <g id="legend_1">
    <g id="patch_7">
     <path d="M 483.93125 218.545 
L 749.6 218.545 
Q 757.6 218.545 757.6 210.545 
L 757.6 97.12 
Q 757.6 89.12 749.6 89.12 
L 483.93125 89.12 
Q 475.93125 89.12 475.93125 97.12 
L 475.93125 210.545 
Q 475.93125 218.545 483.93125 218.545 
z
" style="fill: #ffffff; opacity: 0.8; stroke: #cccccc; stroke-linejoin: miter"/>
    </g>
    <g id="line2d_33">
     <path d="M 491.93125 121.51375 
L 531.93125 121.51375 
L 571.93125 121.51375 
" style="fill: none; stroke: #1f77b4; stroke-width: 4; stroke-linecap: square"/>
    </g>
    <g id="text_18">
     <!-- fedavg -->
     <g transform="translate(603.93125 135.51375) scale(0.4 -0.4)">
      <defs>
       <path id="DejaVuSans-66" d="M 2375 4863 
L 2375 4384 
L 1825 4384 
Q 1516 4384 1395 4259 
Q 1275 4134 1275 3809 
L 1275 3500 
L 2222 3500 
L 2222 3053 
L 1275 3053 
L 1275 0 
L 697 0 
L 697 3053 
L 147 3053 
L 147 3500 
L 697 3500 
L 697 3744 
Q 697 4328 969 4595 
Q 1241 4863 1831 4863 
L 2375 4863 
z
" transform="scale(0.015625)"/>
       <path id="DejaVuSans-64" d="M 2906 2969 
L 2906 4863 
L 3481 4863 
L 3481 0 
L 2906 0 
L 2906 525 
Q 2725 213 2448 61 
Q 2172 -91 1784 -91 
Q 1150 -91 751 415 
Q 353 922 353 1747 
Q 353 2572 751 3078 
Q 1150 3584 1784 3584 
Q 2172 3584 2448 3432 
Q 2725 3281 2906 2969 
z
M 947 1747 
Q 947 1113 1208 752 
Q 1469 391 1925 391 
Q 2381 391 2643 752 
Q 2906 1113 2906 1747 
Q 2906 2381 2643 2742 
Q 2381 3103 1925 3103 
Q 1469 3103 1208 2742 
Q 947 2381 947 1747 
z
" transform="scale(0.015625)"/>
       <path id="DejaVuSans-76" d="M 191 3500 
L 800 3500 
L 1894 563 
L 2988 3500 
L 3597 3500 
L 2284 0 
L 1503 0 
L 191 3500 
z
" transform="scale(0.015625)"/>
      </defs>
      <use xlink:href="#DejaVuSans-66"/>
      <use xlink:href="#DejaVuSans-65" transform="translate(35.205078 0)"/>
      <use xlink:href="#DejaVuSans-64" transform="translate(96.728516 0)"/>
      <use xlink:href="#DejaVuSans-61" transform="translate(160.205078 0)"/>
      <use xlink:href="#DejaVuSans-76" transform="translate(221.484375 0)"/>
      <use xlink:href="#DejaVuSans-67" transform="translate(280.664062 0)"/>
     </g>
    </g>
    <g id="line2d_34">
     <path d="M 491.93125 180.22625 
L 531.93125 180.22625 
L 571.93125 180.22625 
" style="fill: none; stroke: #ff7f0e; stroke-width: 4; stroke-linecap: square"/>
    </g>
    <g id="text_19">
     <!-- local -->
     <g transform="translate(603.93125 194.22625) scale(0.4 -0.4)">
      <defs>
       <path id="DejaVuSans-6c" d="M 603 4863 
L 1178 4863 
L 1178 0 
L 603 0 
L 603 4863 
z
" transform="scale(0.015625)"/>
       <path id="DejaVuSans-63" d="M 3122 3366 
L 3122 2828 
Q 2878 2963 2633 3030 
Q 2388 3097 2138 3097 
Q 1578 3097 1268 2742 
Q 959 2388 959 1747 
Q 959 1106 1268 751 
Q 1578 397 2138 397 
Q 2388 397 2633 464 
Q 2878 531 3122 666 
L 3122 134 
Q 2881 22 2623 -34 
Q 2366 -91 2075 -91 
Q 1284 -91 818 406 
Q 353 903 353 1747 
Q 353 2603 823 3093 
Q 1294 3584 2113 3584 
Q 2378 3584 2631 3529 
Q 2884 3475 3122 3366 
z
" transform="scale(0.015625)"/>
      </defs>
      <use xlink:href="#DejaVuSans-6c"/>
      <use xlink:href="#DejaVuSans-6f" transform="translate(27.783203 0)"/>
      <use xlink:href="#DejaVuSans-63" transform="translate(88.964844 0)"/>
      <use xlink:href="#DejaVuSans-61" transform="translate(143.945312 0)"/>
      <use xlink:href="#DejaVuSans-6c" transform="translate(205.224609 0)"/>
     </g>
    </g>
   </g>
  </g>
 </g>
 <defs>
  <clipPath id="p4f7b69071f">
   <rect x="108" y="69.12" width="669.6" height="443.52"/>
  </clipPath>
 </defs>
</svg>
