<?xml version="1.0" encoding="utf-8" standalone="no"?>
<!DOCTYPE svg PUBLIC "-//W3C//DTD SVG 1.1//EN"
  "http://www.w3.org/Graphics/SVG/1.1/DTD/svg11.dtd">
<svg xmlns:xlink="http://www.w3.org/1999/xlink" width="864pt" height="576pt" viewBox="0 0 864 576" xmlns="http://www.w3.org/2000/svg" version="1.1">
 <metadata>
  <rdf:RDF xmlns:dc="http://purl.org/dc/elements/1.1/" xmlns:cc="http://creativecommons.org/ns#" xmlns:rdf="http://www.w3.org/1999/02/22-rdf-syntax-ns#">
   <cc:Work>
    <dc:type rdf:resource="http://purl.org/dc/dcmitype/StillImage"/>
    <dc:date>2025-04-17T13:45:44.138741</dc:date>
    <dc:format>image/svg+xml</dc:format>
    <dc:creator>
     <cc:Agent>
      <dc:title>Matplotlib v3.10.1, https://matplotlib.org/</dc:title>
     </cc:Agent>
    </dc:creator>
   </cc:Work>
  </rdf:RDF>
 </metadata>
 <defs>
  <style type="text/css">*{stroke-linejoin: round; stroke-linecap: butt}</style>
 </defs>
 <g id="figure_1">
  <g id="patch_1">
   <path d="M 0 576 
L 864 576 
L 864 0 
L 0 0 
z
" style="fill: #ffffff"/>
  </g>
  <g id="axes_1">
   <g id="patch_2">
    <path d="M 108 512.64 
L 777.6 512.64 
L 777.6 69.12 
L 108 69.12 
z
" style="fill: #ffffff"/>
   </g>
   <g id="FillBetweenPolyCollection_1"/>
   <g id="FillBetweenPolyCollection_2"/>
   <g id="matplotlib.axis_1">
    <g id="xtick_1">
     <g id="line2d_1">
      <path d="M 136.400486 512.64 
L 136.400486 69.12 
" clip-path="url(#p999b090342)" style="fill: none; stroke: #b0b0b0; stroke-width: 0.8; stroke-linecap: square"/>
     </g>
     <g id="line2d_2">
      <defs>
       <path id="md5cfa9ee9e" d="M 0 0 
L 0 3.5 
" style="stroke: #000000; stroke-width: 0.8"/>
      </defs>
      <g>
       <use xlink:href="#md5cfa9ee9e" x="136.400486" y="512.64" style="stroke: #000000; stroke-width: 0.8"/>
      </g>
     </g>
     <g id="text_1">
      <!-- 0 -->
      <g transform="translate(126.856736 542.435313) scale(0.3 -0.3)">
       <defs>
        <path id="DejaVuSans-30" d="M 2034 4250 
Q 1547 4250 1301 3770 
Q 1056 3291 1056 2328 
Q 1056 1369 1301 889 
Q 1547 409 2034 409 
Q 2525 409 2770 889 
Q 3016 1369 3016 2328 
Q 3016 3291 2770 3770 
Q 2525 4250 2034 4250 
z
M 2034 4750 
Q 2819 4750 3233 4129 
Q 3647 3509 3647 2328 
Q 3647 1150 3233 529 
Q 2819 -91 2034 -91 
Q 1250 -91 836 529 
Q 422 1150 422 2328 
Q 422 3509 836 4129 
Q 1250 4750 2034 4750 
z
" transform="scale(0.015625)"/>
       </defs>
       <use xlink:href="#DejaVuSans-30"/>
      </g>
     </g>
    </g>
    <g id="xtick_2">
     <g id="line2d_3">
      <path d="M 253.404921 512.64 
L 253.404921 69.12 
" clip-path="url(#p999b090342)" style="fill: none; stroke: #b0b0b0; stroke-width: 0.8; stroke-linecap: square"/>
     </g>
     <g id="line2d_4">
      <g>
       <use xlink:href="#md5cfa9ee9e" x="253.404921" y="512.64" style="stroke: #000000; stroke-width: 0.8"/>
      </g>
     </g>
     <g id="text_2">
      <!-- 5000 -->
      <g transform="translate(215.229921 542.435313) scale(0.3 -0.3)">
       <defs>
        <path id="DejaVuSans-35" d="M 691 4666 
L 3169 4666 
L 3169 4134 
L 1269 4134 
L 1269 2991 
Q 1406 3038 1543 3061 
Q 1681 3084 1819 3084 
Q 2600 3084 3056 2656 
Q 3513 2228 3513 1497 
Q 3513 744 3044 326 
Q 2575 -91 1722 -91 
Q 1428 -91 1123 -41 
Q 819 9 494 109 
L 494 744 
Q 775 591 1075 516 
Q 1375 441 1709 441 
Q 2250 441 2565 725 
Q 2881 1009 2881 1497 
Q 2881 1984 2565 2268 
Q 2250 2553 1709 2553 
Q 1456 2553 1204 2497 
Q 953 2441 691 2322 
L 691 4666 
z
" transform="scale(0.015625)"/>
       </defs>
       <use xlink:href="#DejaVuSans-35"/>
       <use xlink:href="#DejaVuSans-30" transform="translate(63.623047 0)"/>
       <use xlink:href="#DejaVuSans-30" transform="translate(127.246094 0)"/>
       <use xlink:href="#DejaVuSans-30" transform="translate(190.869141 0)"/>
      </g>
     </g>
    </g>
    <g id="xtick_3">
     <g id="line2d_5">
      <path d="M 370.409356 512.64 
L 370.409356 69.12 
" clip-path="url(#p999b090342)" style="fill: none; stroke: #b0b0b0; stroke-width: 0.8; stroke-linecap: square"/>
     </g>
     <g id="line2d_6">
      <g>
       <use xlink:href="#md5cfa9ee9e" x="370.409356" y="512.64" style="stroke: #000000; stroke-width: 0.8"/>
      </g>
     </g>
     <g id="text_3">
      <!-- 10000 -->
      <g transform="translate(322.690606 542.435313) scale(0.3 -0.3)">
       <defs>
        <path id="DejaVuSans-31" d="M 794 531 
L 1825 531 
L 1825 4091 
L 703 3866 
L 703 4441 
L 1819 4666 
L 2450 4666 
L 2450 531 
L 3481 531 
L 3481 0 
L 794 0 
L 794 531 
z
" transform="scale(0.015625)"/>
       </defs>
       <use xlink:href="#DejaVuSans-31"/>
       <use xlink:href="#DejaVuSans-30" transform="translate(63.623047 0)"/>
       <use xlink:href="#DejaVuSans-30" transform="translate(127.246094 0)"/>
       <use xlink:href="#DejaVuSans-30" transform="translate(190.869141 0)"/>
       <use xlink:href="#DejaVuSans-30" transform="translate(254.492188 0)"/>
      </g>
     </g>
    </g>
    <g id="xtick_4">
     <g id="line2d_7">
      <path d="M 487.413791 512.64 
L 487.413791 69.12 
" clip-path="url(#p999b090342)" style="fill: none; stroke: #b0b0b0; stroke-width: 0.8; stroke-linecap: square"/>
     </g>
     <g id="line2d_8">
      <g>
       <use xlink:href="#md5cfa9ee9e" x="487.413791" y="512.64" style="stroke: #000000; stroke-width: 0.8"/>
      </g>
     </g>
     <g id="text_4">
      <!-- 15000 -->
      <g transform="translate(439.695041 542.435313) scale(0.3 -0.3)">
       <use xlink:href="#DejaVuSans-31"/>
       <use xlink:href="#DejaVuSans-35" transform="translate(63.623047 0)"/>
       <use xlink:href="#DejaVuSans-30" transform="translate(127.246094 0)"/>
       <use xlink:href="#DejaVuSans-30" transform="translate(190.869141 0)"/>
       <use xlink:href="#DejaVuSans-30" transform="translate(254.492188 0)"/>
      </g>
     </g>
    </g>
    <g id="xtick_5">
     <g id="line2d_9">
      <path d="M 604.418226 512.64 
L 604.418226 69.12 
" clip-path="url(#p999b090342)" style="fill: none; stroke: #b0b0b0; stroke-width: 0.8; stroke-linecap: square"/>
     </g>
     <g id="line2d_10">
      <g>
       <use xlink:href="#md5cfa9ee9e" x="604.418226" y="512.64" style="stroke: #000000; stroke-width: 0.8"/>
      </g>
     </g>
     <g id="text_5">
      <!-- 20000 -->
      <g transform="translate(556.699476 542.435313) scale(0.3 -0.3)">
       <defs>
        <path id="DejaVuSans-32" d="M 1228 531 
L 3431 531 
L 3431 0 
L 469 0 
L 469 531 
Q 828 903 1448 1529 
Q 2069 2156 2228 2338 
Q 2531 2678 2651 2914 
Q 2772 3150 2772 3378 
Q 2772 3750 2511 3984 
Q 2250 4219 1831 4219 
Q 1534 4219 1204 4116 
Q 875 4013 500 3803 
L 500 4441 
Q 881 4594 1212 4672 
Q 1544 4750 1819 4750 
Q 2544 4750 2975 4387 
Q 3406 4025 3406 3419 
Q 3406 3131 3298 2873 
Q 3191 2616 2906 2266 
Q 2828 2175 2409 1742 
Q 1991 1309 1228 531 
z
" transform="scale(0.015625)"/>
       </defs>
       <use xlink:href="#DejaVuSans-32"/>
       <use xlink:href="#DejaVuSans-30" transform="translate(63.623047 0)"/>
       <use xlink:href="#DejaVuSans-30" transform="translate(127.246094 0)"/>
       <use xlink:href="#DejaVuSans-30" transform="translate(190.869141 0)"/>
       <use xlink:href="#DejaVuSans-30" transform="translate(254.492188 0)"/>
      </g>
     </g>
    </g>
    <g id="xtick_6">
     <g id="line2d_11">
      <path d="M 721.422661 512.64 
L 721.422661 69.12 
" clip-path="url(#p999b090342)" style="fill: none; stroke: #b0b0b0; stroke-width: 0.8; stroke-linecap: square"/>
     </g>
     <g id="line2d_12">
      <g>
       <use xlink:href="#md5cfa9ee9e" x="721.422661" y="512.64" style="stroke: #000000; stroke-width: 0.8"/>
      </g>
     </g>
     <g id="text_6">
      <!-- 25000 -->
      <g transform="translate(673.703911 542.435313) scale(0.3 -0.3)">
       <use xlink:href="#DejaVuSans-32"/>
       <use xlink:href="#DejaVuSans-35" transform="translate(63.623047 0)"/>
       <use xlink:href="#DejaVuSans-30" transform="translate(127.246094 0)"/>
       <use xlink:href="#DejaVuSans-30" transform="translate(190.869141 0)"/>
       <use xlink:href="#DejaVuSans-30" transform="translate(254.492188 0)"/>
      </g>
     </g>
    </g>
    <g id="text_7">
     <!-- Steps -->
     <g transform="translate(386.840625 583.068125) scale(0.4 -0.4)">
      <defs>
       <path id="DejaVuSans-53" d="M 3425 4513 
L 3425 3897 
Q 3066 4069 2747 4153 
Q 2428 4238 2131 4238 
Q 1616 4238 1336 4038 
Q 1056 3838 1056 3469 
Q 1056 3159 1242 3001 
Q 1428 2844 1947 2747 
L 2328 2669 
Q 3034 2534 3370 2195 
Q 3706 1856 3706 1288 
Q 3706 609 3251 259 
Q 2797 -91 1919 -91 
Q 1588 -91 1214 -16 
Q 841 59 441 206 
L 441 856 
Q 825 641 1194 531 
Q 1563 422 1919 422 
Q 2459 422 2753 634 
Q 3047 847 3047 1241 
Q 3047 1584 2836 1778 
Q 2625 1972 2144 2069 
L 1759 2144 
Q 1053 2284 737 2584 
Q 422 2884 422 3419 
Q 422 4038 858 4394 
Q 1294 4750 2059 4750 
Q 2388 4750 2728 4690 
Q 3069 4631 3425 4513 
z
" transform="scale(0.015625)"/>
       <path id="DejaVuSans-74" d="M 1172 4494 
L 1172 3500 
L 2356 3500 
L 2356 3053 
L 1172 3053 
L 1172 1153 
Q 1172 725 1289 603 
Q 1406 481 1766 481 
L 2356 481 
L 2356 0 
L 1766 0 
Q 1100 0 847 248 
Q 594 497 594 1153 
L 594 3053 
L 172 3053 
L 172 3500 
L 594 3500 
L 594 4494 
L 1172 4494 
z
" transform="scale(0.015625)"/>
       <path id="DejaVuSans-65" d="M 3597 1894 
L 3597 1613 
L 953 1613 
Q 991 1019 1311 708 
Q 1631 397 2203 397 
Q 2534 397 2845 478 
Q 3156 559 3463 722 
L 3463 178 
Q 3153 47 2828 -22 
Q 2503 -91 2169 -91 
Q 1331 -91 842 396 
Q 353 884 353 1716 
Q 353 2575 817 3079 
Q 1281 3584 2069 3584 
Q 2775 3584 3186 3129 
Q 3597 2675 3597 1894 
z
M 3022 2063 
Q 3016 2534 2758 2815 
Q 2500 3097 2075 3097 
Q 1594 3097 1305 2825 
Q 1016 2553 972 2059 
L 3022 2063 
z
" transform="scale(0.015625)"/>
       <path id="DejaVuSans-70" d="M 1159 525 
L 1159 -1331 
L 581 -1331 
L 581 3500 
L 1159 3500 
L 1159 2969 
Q 1341 3281 1617 3432 
Q 1894 3584 2278 3584 
Q 2916 3584 3314 3078 
Q 3713 2572 3713 1747 
Q 3713 922 3314 415 
Q 2916 -91 2278 -91 
Q 1894 -91 1617 61 
Q 1341 213 1159 525 
z
M 3116 1747 
Q 3116 2381 2855 2742 
Q 2594 3103 2138 3103 
Q 1681 3103 1420 2742 
Q 1159 2381 1159 1747 
Q 1159 1113 1420 752 
Q 1681 391 2138 391 
Q 2594 391 2855 752 
Q 3116 1113 3116 1747 
z
" transform="scale(0.015625)"/>
       <path id="DejaVuSans-73" d="M 2834 3397 
L 2834 2853 
Q 2591 2978 2328 3040 
Q 2066 3103 1784 3103 
Q 1356 3103 1142 2972 
Q 928 2841 928 2578 
Q 928 2378 1081 2264 
Q 1234 2150 1697 2047 
L 1894 2003 
Q 2506 1872 2764 1633 
Q 3022 1394 3022 966 
Q 3022 478 2636 193 
Q 2250 -91 1575 -91 
Q 1294 -91 989 -36 
Q 684 19 347 128 
L 347 722 
Q 666 556 975 473 
Q 1284 391 1588 391 
Q 1994 391 2212 530 
Q 2431 669 2431 922 
Q 2431 1156 2273 1281 
Q 2116 1406 1581 1522 
L 1381 1569 
Q 847 1681 609 1914 
Q 372 2147 372 2553 
Q 372 3047 722 3315 
Q 1072 3584 1716 3584 
Q 2034 3584 2315 3537 
Q 2597 3491 2834 3397 
z
" transform="scale(0.015625)"/>
      </defs>
      <use xlink:href="#DejaVuSans-53"/>
      <use xlink:href="#DejaVuSans-74" transform="translate(63.476562 0)"/>
      <use xlink:href="#DejaVuSans-65" transform="translate(102.685547 0)"/>
      <use xlink:href="#DejaVuSans-70" transform="translate(164.208984 0)"/>
      <use xlink:href="#DejaVuSans-73" transform="translate(227.685547 0)"/>
     </g>
    </g>
   </g>
   <g id="matplotlib.axis_2">
    <g id="ytick_1">
     <g id="line2d_13">
      <path d="M 108 462.611528 
L 777.6 462.611528 
" clip-path="url(#p999b090342)" style="fill: none; stroke: #b0b0b0; stroke-width: 0.8; stroke-linecap: square"/>
     </g>
     <g id="line2d_14">
      <defs>
       <path id="m0a46c086da" d="M 0 0 
L -3.5 0 
" style="stroke: #000000; stroke-width: 0.8"/>
      </defs>
      <g>
       <use xlink:href="#m0a46c086da" x="108" y="462.611528" style="stroke: #000000; stroke-width: 0.8"/>
      </g>
     </g>
     <g id="text_8">
      <!-- 55 -->
      <g transform="translate(62.825 474.009184) scale(0.3 -0.3)">
       <use xlink:href="#DejaVuSans-35"/>
       <use xlink:href="#DejaVuSans-35" transform="translate(63.623047 0)"/>
      </g>
     </g>
    </g>
    <g id="ytick_2">
     <g id="line2d_15">
      <path d="M 108 403.72682 
L 777.6 403.72682 
" clip-path="url(#p999b090342)" style="fill: none; stroke: #b0b0b0; stroke-width: 0.8; stroke-linecap: square"/>
     </g>
     <g id="line2d_16">
      <g>
       <use xlink:href="#m0a46c086da" x="108" y="403.72682" style="stroke: #000000; stroke-width: 0.8"/>
      </g>
     </g>
     <g id="text_9">
      <!-- 56 -->
      <g transform="translate(62.825 415.124476) scale(0.3 -0.3)">
       <defs>
        <path id="DejaVuSans-36" d="M 2113 2584 
Q 1688 2584 1439 2293 
Q 1191 2003 1191 1497 
Q 1191 994 1439 701 
Q 1688 409 2113 409 
Q 2538 409 2786 701 
Q 3034 994 3034 1497 
Q 3034 2003 2786 2293 
Q 2538 2584 2113 2584 
z
M 3366 4563 
L 3366 3988 
Q 3128 4100 2886 4159 
Q 2644 4219 2406 4219 
Q 1781 4219 1451 3797 
Q 1122 3375 1075 2522 
Q 1259 2794 1537 2939 
Q 1816 3084 2150 3084 
Q 2853 3084 3261 2657 
Q 3669 2231 3669 1497 
Q 3669 778 3244 343 
Q 2819 -91 2113 -91 
Q 1303 -91 875 529 
Q 447 1150 447 2328 
Q 447 3434 972 4092 
Q 1497 4750 2381 4750 
Q 2619 4750 2861 4703 
Q 3103 4656 3366 4563 
z
" transform="scale(0.015625)"/>
       </defs>
       <use xlink:href="#DejaVuSans-35"/>
       <use xlink:href="#DejaVuSans-36" transform="translate(63.623047 0)"/>
      </g>
     </g>
    </g>
    <g id="ytick_3">
     <g id="line2d_17">
      <path d="M 108 344.842112 
L 777.6 344.842112 
" clip-path="url(#p999b090342)" style="fill: none; stroke: #b0b0b0; stroke-width: 0.8; stroke-linecap: square"/>
     </g>
     <g id="line2d_18">
      <g>
       <use xlink:href="#m0a46c086da" x="108" y="344.842112" style="stroke: #000000; stroke-width: 0.8"/>
      </g>
     </g>
     <g id="text_10">
      <!-- 57 -->
      <g transform="translate(62.825 356.239768) scale(0.3 -0.3)">
       <defs>
        <path id="DejaVuSans-37" d="M 525 4666 
L 3525 4666 
L 3525 4397 
L 1831 0 
L 1172 0 
L 2766 4134 
L 525 4134 
L 525 4666 
z
" transform="scale(0.015625)"/>
       </defs>
       <use xlink:href="#DejaVuSans-35"/>
       <use xlink:href="#DejaVuSans-37" transform="translate(63.623047 0)"/>
      </g>
     </g>
    </g>
    <g id="ytick_4">
     <g id="line2d_19">
      <path d="M 108 285.957404 
L 777.6 285.957404 
" clip-path="url(#p999b090342)" style="fill: none; stroke: #b0b0b0; stroke-width: 0.8; stroke-linecap: square"/>
     </g>
     <g id="line2d_20">
      <g>
       <use xlink:href="#m0a46c086da" x="108" y="285.957404" style="stroke: #000000; stroke-width: 0.8"/>
      </g>
     </g>
     <g id="text_11">
      <!-- 58 -->
      <g transform="translate(62.825 297.355061) scale(0.3 -0.3)">
       <defs>
        <path id="DejaVuSans-38" d="M 2034 2216 
Q 1584 2216 1326 1975 
Q 1069 1734 1069 1313 
Q 1069 891 1326 650 
Q 1584 409 2034 409 
Q 2484 409 2743 651 
Q 3003 894 3003 1313 
Q 3003 1734 2745 1975 
Q 2488 2216 2034 2216 
z
M 1403 2484 
Q 997 2584 770 2862 
Q 544 3141 544 3541 
Q 544 4100 942 4425 
Q 1341 4750 2034 4750 
Q 2731 4750 3128 4425 
Q 3525 4100 3525 3541 
Q 3525 3141 3298 2862 
Q 3072 2584 2669 2484 
Q 3125 2378 3379 2068 
Q 3634 1759 3634 1313 
Q 3634 634 3220 271 
Q 2806 -91 2034 -91 
Q 1263 -91 848 271 
Q 434 634 434 1313 
Q 434 1759 690 2068 
Q 947 2378 1403 2484 
z
M 1172 3481 
Q 1172 3119 1398 2916 
Q 1625 2713 2034 2713 
Q 2441 2713 2670 2916 
Q 2900 3119 2900 3481 
Q 2900 3844 2670 4047 
Q 2441 4250 2034 4250 
Q 1625 4250 1398 4047 
Q 1172 3844 1172 3481 
z
" transform="scale(0.015625)"/>
       </defs>
       <use xlink:href="#DejaVuSans-35"/>
       <use xlink:href="#DejaVuSans-38" transform="translate(63.623047 0)"/>
      </g>
     </g>
    </g>
    <g id="ytick_5">
     <g id="line2d_21">
      <path d="M 108 227.072696 
L 777.6 227.072696 
" clip-path="url(#p999b090342)" style="fill: none; stroke: #b0b0b0; stroke-width: 0.8; stroke-linecap: square"/>
     </g>
     <g id="line2d_22">
      <g>
       <use xlink:href="#m0a46c086da" x="108" y="227.072696" style="stroke: #000000; stroke-width: 0.8"/>
      </g>
     </g>
     <g id="text_12">
      <!-- 59 -->
      <g transform="translate(62.825 238.470353) scale(0.3 -0.3)">
       <defs>
        <path id="DejaVuSans-39" d="M 703 97 
L 703 672 
Q 941 559 1184 500 
Q 1428 441 1663 441 
Q 2288 441 2617 861 
Q 2947 1281 2994 2138 
Q 2813 1869 2534 1725 
Q 2256 1581 1919 1581 
Q 1219 1581 811 2004 
Q 403 2428 403 3163 
Q 403 3881 828 4315 
Q 1253 4750 1959 4750 
Q 2769 4750 3195 4129 
Q 3622 3509 3622 2328 
Q 3622 1225 3098 567 
Q 2575 -91 1691 -91 
Q 1453 -91 1209 -44 
Q 966 3 703 97 
z
M 1959 2075 
Q 2384 2075 2632 2365 
Q 2881 2656 2881 3163 
Q 2881 3666 2632 3958 
Q 2384 4250 1959 4250 
Q 1534 4250 1286 3958 
Q 1038 3666 1038 3163 
Q 1038 2656 1286 2365 
Q 1534 2075 1959 2075 
z
" transform="scale(0.015625)"/>
       </defs>
       <use xlink:href="#DejaVuSans-35"/>
       <use xlink:href="#DejaVuSans-39" transform="translate(63.623047 0)"/>
      </g>
     </g>
    </g>
    <g id="ytick_6">
     <g id="line2d_23">
      <path d="M 108 168.187988 
L 777.6 168.187988 
" clip-path="url(#p999b090342)" style="fill: none; stroke: #b0b0b0; stroke-width: 0.8; stroke-linecap: square"/>
     </g>
     <g id="line2d_24">
      <g>
       <use xlink:href="#m0a46c086da" x="108" y="168.187988" style="stroke: #000000; stroke-width: 0.8"/>
      </g>
     </g>
     <g id="text_13">
      <!-- 60 -->
      <g transform="translate(62.825 179.585645) scale(0.3 -0.3)">
       <use xlink:href="#DejaVuSans-36"/>
       <use xlink:href="#DejaVuSans-30" transform="translate(63.623047 0)"/>
      </g>
     </g>
    </g>
    <g id="ytick_7">
     <g id="line2d_25">
      <path d="M 108 109.303281 
L 777.6 109.303281 
" clip-path="url(#p999b090342)" style="fill: none; stroke: #b0b0b0; stroke-width: 0.8; stroke-linecap: square"/>
     </g>
     <g id="line2d_26">
      <g>
       <use xlink:href="#m0a46c086da" x="108" y="109.303281" style="stroke: #000000; stroke-width: 0.8"/>
      </g>
     </g>
     <g id="text_14">
      <!-- 61 -->
      <g transform="translate(62.825 120.700937) scale(0.3 -0.3)">
       <use xlink:href="#DejaVuSans-36"/>
       <use xlink:href="#DejaVuSans-31" transform="translate(63.623047 0)"/>
      </g>
     </g>
    </g>
    <g id="text_15">
     <!-- RMSE -->
     <g transform="translate(50.50625 347.3675) rotate(-90) scale(0.4 -0.4)">
      <defs>
       <path id="DejaVuSans-52" d="M 2841 2188 
Q 3044 2119 3236 1894 
Q 3428 1669 3622 1275 
L 4263 0 
L 3584 0 
L 2988 1197 
Q 2756 1666 2539 1819 
Q 2322 1972 1947 1972 
L 1259 1972 
L 1259 0 
L 628 0 
L 628 4666 
L 2053 4666 
Q 2853 4666 3247 4331 
Q 3641 3997 3641 3322 
Q 3641 2881 3436 2590 
Q 3231 2300 2841 2188 
z
M 1259 4147 
L 1259 2491 
L 2053 2491 
Q 2509 2491 2742 2702 
Q 2975 2913 2975 3322 
Q 2975 3731 2742 3939 
Q 2509 4147 2053 4147 
L 1259 4147 
z
" transform="scale(0.015625)"/>
       <path id="DejaVuSans-4d" d="M 628 4666 
L 1569 4666 
L 2759 1491 
L 3956 4666 
L 4897 4666 
L 4897 0 
L 4281 0 
L 4281 4097 
L 3078 897 
L 2444 897 
L 1241 4097 
L 1241 0 
L 628 0 
L 628 4666 
z
" transform="scale(0.015625)"/>
       <path id="DejaVuSans-45" d="M 628 4666 
L 3578 4666 
L 3578 4134 
L 1259 4134 
L 1259 2753 
L 3481 2753 
L 3481 2222 
L 1259 2222 
L 1259 531 
L 3634 531 
L 3634 0 
L 628 0 
L 628 4666 
z
" transform="scale(0.015625)"/>
      </defs>
      <use xlink:href="#DejaVuSans-52"/>
      <use xlink:href="#DejaVuSans-4d" transform="translate(69.482422 0)"/>
      <use xlink:href="#DejaVuSans-53" transform="translate(155.761719 0)"/>
      <use xlink:href="#DejaVuSans-45" transform="translate(219.238281 0)"/>
     </g>
    </g>
   </g>
   <g id="line2d_27">
    <path d="M 138.436364 140.604875 
L 140.472241 137.796359 
L 142.508118 151.286579 
L 144.543995 132.330952 
L 146.579872 125.738813 
L 148.615749 138.527072 
L 150.651627 137.240856 
L 152.687504 137.49738 
L 154.723381 137.52793 
L 156.759258 131.43379 
L 158.795135 137.654844 
L 160.831012 136.420068 
L 162.86689 131.469955 
L 164.902767 131.426153 
L 166.938644 134.482432 
L 168.974521 136.132769 
L 171.010398 136.970854 
L 173.046275 138.588845 
L 175.082153 133.865381 
L 177.11803 132.555804 
L 179.153907 136.215432 
L 181.189784 127.746982 
L 183.225661 130.117474 
L 185.261538 133.795297 
L 187.297416 132.453823 
L 189.333293 134.086414 
L 191.36917 132.076898 
L 193.405047 132.870731 
L 195.440924 132.435403 
L 197.476801 133.928277 
L 199.512679 132.299055 
L 201.548556 134.159643 
L 203.584433 137.179308 
L 205.62031 137.458071 
L 207.656187 129.482003 
L 209.692064 129.112941 
L 211.727942 137.120231 
L 213.763819 131.39156 
L 215.799696 131.774325 
L 217.835573 137.656192 
L 219.87145 131.252516 
L 221.907327 132.421926 
L 223.943205 207.65883 
L 225.979082 141.017515 
L 228.014959 139.778471 
L 230.050836 138.845818 
L 232.086713 138.800893 
L 234.12259 134.313962 
L 236.158468 139.96581 
L 238.194345 248.084562 
L 240.230222 259.794834 
L 242.266099 339.929737 
L 244.301976 400.211852 
L 246.337853 311.845705 
L 248.373731 310.369004 
L 250.409608 399.055021 
L 252.445485 443.420941 
L 254.481362 445.363743 
L 256.517239 468.938606 
L 258.553116 480.773546 
L 260.588994 488.331358 
L 262.624871 140.231994 
L 264.660748 140.132708 
L 266.696625 136.269792 
L 268.732502 138.632422 
L 270.768379 136.874489 
L 272.804257 137.351148 
L 274.840134 133.633341 
L 276.876011 136.593255 
L 278.911888 136.555069 
L 280.947765 136.032136 
L 282.983642 137.727848 
L 285.01952 136.71433 
L 287.055397 136.633913 
L 289.091274 135.364319 
L 291.127151 135.706202 
L 293.163028 136.267995 
L 295.198905 135.173835 
L 297.234783 136.114799 
L 299.27066 436.841382 
L 301.306537 135.584903 
L 303.342414 140.974387 
L 305.378291 141.477103 
L 307.414168 137.381922 
L 309.450046 145.534322 
L 311.485923 440.130375 
L 313.5218 140.545349 
L 315.557677 137.090805 
L 317.593554 134.879573 
L 319.629431 134.95707 
L 321.665309 135.410143 
L 323.701186 140.959786 
L 325.737063 140.088232 
L 327.77294 422.157717 
L 329.808817 140.192235 
L 331.844694 140.018598 
L 333.880572 407.140482 
L 335.916449 443.480692 
L 337.952326 459.875342 
L 339.988203 483.324639 
L 342.02408 484.675323 
L 344.059957 492.48 
L 346.095835 490.001013 
L 348.131712 488.267114 
L 350.167589 484.901748 
L 352.203466 480.261396 
L 354.239343 478.070157 
L 356.27522 474.300236 
L 358.311098 474.570912 
L 360.346975 470.509874 
L 362.382852 471.168931 
L 364.418729 461.651471 
L 366.454606 465.197213 
L 368.490483 463.886288 
L 370.526361 456.541873 
L 372.562238 458.271503 
L 374.598115 458.82184 
L 376.633992 452.590004 
L 378.669869 458.345181 
L 380.705746 449.076833 
L 384.777501 446.42039 
L 386.813378 447.802971 
L 388.849255 449.461395 
L 390.885132 445.599601 
L 392.921009 447.015203 
L 394.956887 443.45441 
L 396.992764 444.655493 
L 399.028641 443.203951 
L 401.064518 443.164866 
L 403.100395 440.271216 
L 405.136272 442.501541 
L 407.17215 441.968725 
L 409.208027 439.631927 
L 411.243904 441.877751 
L 413.279781 440.649714 
L 415.315658 439.212099 
L 417.351535 437.095435 
L 419.387413 438.46701 
L 421.42329 438.128946 
L 423.459167 438.774749 
L 425.495044 439.614631 
L 429.566798 436.133132 
L 431.602676 438.612119 
L 433.638553 438.826638 
L 435.67443 437.964968 
L 437.710307 438.028762 
L 439.746184 445.782897 
L 441.782061 438.282591 
L 443.817939 437.02917 
L 445.853816 435.536072 
L 447.889693 435.461271 
L 449.92557 443.535276 
L 451.961447 437.68643 
L 453.997324 437.447876 
L 456.033202 439.601602 
L 458.069079 435.482162 
L 460.104956 435.466438 
L 462.140833 434.591964 
L 464.17671 436.507361 
L 466.212587 434.723371 
L 468.248465 434.126086 
L 470.284342 436.471196 
L 472.320219 434.888022 
L 474.356096 436.069562 
L 476.391973 435.219123 
L 478.42785 447.225679 
L 480.463728 441.51363 
L 482.499605 437.68306 
L 484.535482 436.76703 
L 486.571359 436.654941 
L 488.607236 434.528619 
L 490.643113 441.473871 
L 492.678991 434.347569 
L 494.714868 436.306319 
L 496.750745 436.330804 
L 498.786622 438.504522 
L 500.822499 438.490596 
L 502.858376 438.179487 
L 506.930131 440.3112 
L 508.966008 438.166908 
L 511.001885 441.972095 
L 513.037762 439.257923 
L 515.073639 441.533173 
L 517.109517 440.155533 
L 519.145394 443.962742 
L 521.181271 441.506667 
L 523.217148 443.337829 
L 525.253025 443.925005 
L 527.288902 445.899928 
L 529.32478 451.604564 
L 531.360657 443.039524 
L 533.396534 441.625495 
L 535.432411 440.626577 
L 537.468288 443.201031 
L 539.504165 439.540279 
L 541.540043 438.386818 
L 543.57592 438.182856 
L 545.611797 438.179262 
L 547.647674 445.140239 
L 549.683551 438.832703 
L 551.719428 441.503073 
L 553.755306 440.068153 
L 555.791183 439.125617 
L 557.82706 439.43403 
L 559.862937 438.707136 
L 561.898814 438.712303 
L 563.934691 437.070726 
L 565.970569 437.504032 
L 568.006446 437.557269 
L 570.042323 436.114488 
L 572.0782 438.08986 
L 574.114077 437.499989 
L 576.149954 436.482203 
L 578.185832 435.71555 
L 580.221709 436.217816 
L 582.257586 434.888022 
L 584.293463 437.386552 
L 586.32934 436.553634 
L 588.365217 439.306442 
L 590.401095 438.537543 
L 592.436972 440.653083 
L 594.472849 441.09515 
L 596.508726 442.603971 
L 598.544603 439.916305 
L 600.58048 443.09029 
L 602.616358 447.910792 
L 604.652235 442.747284 
L 606.688112 442.2704 
L 608.723989 441.191065 
L 610.759866 439.971114 
L 612.795743 439.128762 
L 614.831621 440.396783 
L 616.867498 442.166173 
L 618.903375 440.753716 
L 620.939252 441.915489 
L 622.975129 440.90781 
L 625.011006 440.049509 
L 627.046884 440.452266 
L 629.082761 441.956371 
L 631.118638 442.097661 
L 633.154515 441.478813 
L 635.190392 442.05296 
L 637.226269 441.73062 
L 639.262147 441.121431 
L 641.298024 442.044425 
L 643.333901 442.779405 
L 645.369778 444.202869 
L 649.441532 443.277853 
L 651.47741 443.238993 
L 653.513287 446.959945 
L 655.549164 444.314508 
L 657.585041 442.70393 
L 659.620918 443.126904 
L 663.692673 443.112078 
L 665.72855 442.999091 
L 667.764427 442.644854 
L 669.800304 442.724821 
L 673.872058 442.197396 
L 675.907936 443.085123 
L 677.943813 442.47189 
L 679.97969 442.567132 
L 682.015567 442.838482 
L 684.051444 442.88835 
L 686.087321 442.688431 
L 688.123199 445.009955 
L 690.159076 442.372605 
L 692.194953 442.11945 
L 694.23083 442.148427 
L 700.338462 441.292597 
L 702.374339 441.654022 
L 708.48197 442.136073 
L 710.517847 441.958617 
L 712.553725 442.691351 
L 714.589602 442.114958 
L 716.625479 442.566683 
L 718.661356 442.308362 
L 726.804865 441.886512 
L 728.840742 441.678057 
L 732.912496 441.746344 
L 739.020128 441.610445 
L 741.056005 441.892127 
L 745.127759 441.698723 
L 747.163636 441.747917 
L 747.163636 441.747917 
" clip-path="url(#p999b090342)" style="fill: none; stroke: #1f77b4; stroke-width: 4; stroke-linecap: square"/>
   </g>
   <g id="line2d_28">
    <path d="M 138.436364 139.367178 
L 140.472241 89.28 
L 142.508118 135.703282 
L 144.543995 148.361257 
L 146.579872 140.829278 
L 148.615749 135.595236 
L 150.651627 136.021579 
L 152.687504 137.934056 
L 154.723381 138.861767 
L 156.759258 140.591847 
L 158.795135 126.921252 
L 160.831012 126.599136 
L 162.86689 136.80418 
L 164.902767 138.602322 
L 166.938644 131.251842 
L 168.974521 130.901873 
L 171.010398 131.628767 
L 173.046275 130.353333 
L 175.082153 133.813043 
L 177.11803 134.655395 
L 179.153907 136.478471 
L 181.189784 137.356539 
L 183.225661 134.956396 
L 185.261538 135.011879 
L 187.297416 135.450127 
L 189.333293 136.062012 
L 191.36917 134.269036 
L 193.405047 133.858867 
L 195.440924 133.899974 
L 197.476801 135.541999 
L 199.512679 135.309061 
L 201.548556 135.502914 
L 203.584433 133.392091 
L 205.62031 132.256825 
L 207.656187 133.712859 
L 209.692064 137.19346 
L 211.727942 132.390253 
L 213.763819 132.498973 
L 217.835573 136.028767 
L 219.87145 135.749331 
L 221.907327 137.887333 
L 223.943205 135.843 
L 225.979082 139.346513 
L 228.014959 138.441714 
L 230.050836 133.035158 
L 232.086713 128.75758 
L 234.12259 129.022416 
L 236.158468 136.83473 
L 238.194345 133.699606 
L 240.230222 134.900239 
L 242.266099 135.445859 
L 244.301976 138.998116 
L 246.337853 132.265136 
L 248.373731 134.326541 
L 250.409608 133.587292 
L 252.445485 133.213063 
L 254.481362 135.402955 
L 256.517239 132.911613 
L 258.553116 135.452598 
L 260.588994 134.021497 
L 262.624871 134.260501 
L 264.660748 135.824581 
L 266.696625 134.931687 
L 268.732502 135.142387 
L 270.768379 138.689702 
L 272.804257 135.453721 
L 274.840134 133.456335 
L 276.876011 132.948452 
L 278.911888 129.872406 
L 280.947765 132.394746 
L 282.983642 132.423274 
L 287.055397 133.997237 
L 289.091274 134.275326 
L 291.127151 137.560276 
L 293.163028 132.983943 
L 295.198905 132.435179 
L 297.234783 133.110409 
L 299.27066 132.639365 
L 301.306537 134.283188 
L 303.342414 137.766259 
L 305.378291 139.415922 
L 307.414168 135.685312 
L 309.450046 134.684597 
L 311.485923 135.110266 
L 313.5218 135.266831 
L 315.557677 134.005324 
L 317.593554 133.545961 
L 319.629431 129.952148 
L 323.701186 133.932095 
L 325.737063 133.604364 
L 327.77294 132.954068 
L 329.808817 134.714697 
L 331.844694 136.784413 
L 333.880572 136.703098 
L 337.952326 135.849964 
L 339.988203 133.946696 
L 342.02408 137.180207 
L 344.059957 136.100198 
L 346.095835 135.148228 
L 348.131712 133.828991 
L 350.167589 136.346165 
L 352.203466 136.003609 
L 354.239343 135.2556 
L 356.27522 133.5071 
L 358.311098 134.437732 
L 360.346975 136.026071 
L 362.382852 134.817127 
L 364.418729 135.216065 
L 366.454606 134.283413 
L 368.490483 135.902302 
L 370.526361 131.73816 
L 372.562238 132.281534 
L 374.598115 131.815657 
L 376.633992 131.540713 
L 378.669869 133.102996 
L 380.705746 132.698891 
L 382.741624 132.914758 
L 384.777501 134.089784 
L 386.813378 132.33814 
L 390.885132 134.892602 
L 392.921009 135.030074 
L 394.956887 134.254211 
L 396.992764 135.062869 
L 399.028641 136.913125 
L 401.064518 135.957111 
L 403.100395 136.236323 
L 405.136272 138.247636 
L 407.17215 131.959643 
L 409.208027 134.990315 
L 411.243904 136.121538 
L 413.279781 134.753558 
L 415.315658 134.828358 
L 417.351535 131.304629 
L 419.387413 135.651618 
L 421.42329 134.371466 
L 423.459167 134.956621 
L 425.495044 136.519128 
L 427.530921 135.435526 
L 429.566798 138.270772 
L 431.602676 133.474305 
L 433.638553 135.152046 
L 435.67443 132.167648 
L 437.710307 133.489804 
L 439.746184 132.629931 
L 441.782061 133.457233 
L 443.817939 134.669772 
L 445.853816 138.399708 
L 447.889693 136.37649 
L 449.92557 138.478103 
L 451.961447 135.033668 
L 456.033202 134.942918 
L 458.069079 134.378879 
L 460.104956 136.852026 
L 462.140833 135.087354 
L 464.17671 134.938201 
L 466.212587 134.314186 
L 468.248465 137.304875 
L 470.284342 139.633362 
L 476.391973 133.676694 
L 478.42785 133.042571 
L 480.463728 134.073835 
L 482.499605 134.138528 
L 484.535482 132.74786 
L 486.571359 138.625908 
L 488.607236 133.545736 
L 490.643113 131.910449 
L 492.678991 132.036241 
L 494.714868 132.669241 
L 496.750745 133.935465 
L 498.786622 138.513145 
L 500.822499 133.542816 
L 502.858376 130.192275 
L 504.894254 132.833218 
L 506.930131 133.518332 
L 508.966008 137.564095 
L 511.001885 133.974775 
L 513.037762 136.829563 
L 515.073639 135.182146 
L 517.109517 134.197156 
L 519.145394 132.500995 
L 521.181271 132.81143 
L 523.217148 135.333995 
L 525.253025 135.529196 
L 527.288902 135.459561 
L 529.32478 135.94835 
L 531.360657 135.899382 
L 533.396534 136.402547 
L 535.432411 138.211021 
L 537.468288 133.514064 
L 539.504165 136.513962 
L 541.540043 131.897196 
L 543.57592 136.787558 
L 545.611797 129.028481 
L 547.647674 134.532749 
L 549.683551 130.4634 
L 551.719428 133.902894 
L 553.755306 137.998973 
L 555.791183 133.28719 
L 557.82706 135.469894 
L 559.862937 131.079777 
L 561.898814 133.155783 
L 563.934691 134.191765 
L 565.970569 134.383372 
L 568.006446 135.861869 
L 570.042323 133.98039 
L 572.0782 134.124376 
L 574.114077 132.790764 
L 576.149954 136.700627 
L 578.185832 132.137098 
L 580.221709 132.381044 
L 582.257586 137.430891 
L 584.293463 134.054517 
L 586.32934 130.938487 
L 588.365217 132.06679 
L 590.401095 133.733974 
L 592.436972 133.126806 
L 594.472849 134.307223 
L 596.508726 132.168322 
L 598.544603 134.214452 
L 600.58048 131.316535 
L 602.616358 131.719965 
L 604.652235 133.36581 
L 606.688112 135.482698 
L 608.723989 132.91094 
L 610.759866 132.60612 
L 612.795743 132.987762 
L 614.831621 135.726643 
L 616.867498 135.074101 
L 618.903375 135.784148 
L 620.939252 137.461889 
L 622.975129 135.442714 
L 625.011006 134.625295 
L 627.046884 134.328787 
L 629.082761 134.325418 
L 631.118638 134.620129 
L 633.154515 134.412798 
L 635.190392 134.741203 
L 637.226269 135.418454 
L 639.262147 137.084291 
L 641.298024 136.144001 
L 643.333901 135.939141 
L 645.369778 135.313104 
L 647.405655 134.06485 
L 649.441532 133.132197 
L 651.47741 133.167689 
L 653.513287 133.512941 
L 655.549164 134.508264 
L 657.585041 134.275101 
L 659.620918 138.448228 
L 661.656795 138.382412 
L 663.692673 137.231871 
L 667.764427 132.806937 
L 669.800304 131.923702 
L 671.836181 133.115126 
L 673.872058 133.077164 
L 675.907936 132.374305 
L 677.943813 136.789355 
L 679.97969 138.317046 
L 682.015567 137.503221 
L 684.051444 139.79689 
L 686.087321 133.057172 
L 688.123199 135.919149 
L 690.159076 131.19254 
L 692.194953 130.918046 
L 694.23083 131.90416 
L 696.266707 131.871813 
L 698.302584 136.276755 
L 700.338462 133.459479 
L 702.374339 133.67018 
L 706.446093 132.843776 
L 708.48197 132.841305 
L 710.517847 133.199361 
L 712.553725 132.722253 
L 714.589602 133.136465 
L 716.625479 135.513921 
L 718.661356 133.81484 
L 720.697233 133.574039 
L 722.73311 133.003935 
L 724.768988 134.922927 
L 726.804865 134.997727 
L 728.840742 135.526276 
L 730.876619 133.910307 
L 732.912496 134.063053 
L 734.948373 133.667934 
L 736.984251 133.523948 
L 739.020128 135.097687 
L 741.056005 139.187476 
L 743.091882 140.710225 
L 745.127759 134.153803 
L 747.163636 135.811328 
L 747.163636 135.811328 
" clip-path="url(#p999b090342)" style="fill: none; stroke: #ff7f0e; stroke-width: 4; stroke-linecap: square"/>
   </g>
   <g id="line2d_29"/>
   <g id="line2d_30"/>
   <g id="patch_3">
    <path d="M 108 512.64 
L 108 69.12 
" style="fill: none; stroke: #000000; stroke-width: 0.8; stroke-linejoin: miter; stroke-linecap: square"/>
   </g>
   <g id="patch_4">
    <path d="M 777.6 512.64 
L 777.6 69.12 
" style="fill: none; stroke: #000000; stroke-width: 0.8; stroke-linejoin: miter; stroke-linecap: square"/>
   </g>
   <g id="patch_5">
    <path d="M 108 512.64 
L 777.6 512.64 
" style="fill: none; stroke: #000000; stroke-width: 0.8; stroke-linejoin: miter; stroke-linecap: square"/>
   </g>
   <g id="patch_6">
    <path d="M 108 69.12 
L 777.6 69.12 
" style="fill: none; stroke: #000000; stroke-width: 0.8; stroke-linejoin: miter; stroke-linecap: square"/>
   </g>
   <g id="text_16">
    <!-- binding -->
    <g transform="translate(330.970313 56.641875) scale(0.6 -0.6)">
     <defs>
      <path id="DejaVuSans-62" d="M 3116 1747 
Q 3116 2381 2855 2742 
Q 2594 3103 2138 3103 
Q 1681 3103 1420 2742 
Q 1159 2381 1159 1747 
Q 1159 1113 1420 752 
Q 1681 391 2138 391 
Q 2594 391 2855 752 
Q 3116 1113 3116 1747 
z
M 1159 2969 
Q 1341 3281 1617 3432 
Q 1894 3584 2278 3584 
Q 2916 3584 3314 3078 
Q 3713 2572 3713 1747 
Q 3713 922 3314 415 
Q 2916 -91 2278 -91 
Q 1894 -91 1617 61 
Q 1341 213 1159 525 
L 1159 0 
L 581 0 
L 581 4863 
L 1159 4863 
L 1159 2969 
z
" transform="scale(0.015625)"/>
      <path id="DejaVuSans-69" d="M 603 3500 
L 1178 3500 
L 1178 0 
L 603 0 
L 603 3500 
z
M 603 4863 
L 1178 4863 
L 1178 4134 
L 603 4134 
L 603 4863 
z
" transform="scale(0.015625)"/>
      <path id="DejaVuSans-6e" d="M 3513 2113 
L 3513 0 
L 2938 0 
L 2938 2094 
Q 2938 2591 2744 2837 
Q 2550 3084 2163 3084 
Q 1697 3084 1428 2787 
Q 1159 2491 1159 1978 
L 1159 0 
L 581 0 
L 581 3500 
L 1159 3500 
L 1159 2956 
Q 1366 3272 1645 3428 
Q 1925 3584 2291 3584 
Q 2894 3584 3203 3211 
Q 3513 2838 3513 2113 
z
" transform="scale(0.015625)"/>
      <path id="DejaVuSans-64" d="M 2906 2969 
L 2906 4863 
L 3481 4863 
L 3481 0 
L 2906 0 
L 2906 525 
Q 2725 213 2448 61 
Q 2172 -91 1784 -91 
Q 1150 -91 751 415 
Q 353 922 353 1747 
Q 353 2572 751 3078 
Q 1150 3584 1784 3584 
Q 2172 3584 2448 3432 
Q 2725 3281 2906 2969 
z
M 947 1747 
Q 947 1113 1208 752 
Q 1469 391 1925 391 
Q 2381 391 2643 752 
Q 2906 1113 2906 1747 
Q 2906 2381 2643 2742 
Q 2381 3103 1925 3103 
Q 1469 3103 1208 2742 
Q 947 2381 947 1747 
z
" transform="scale(0.015625)"/>
      <path id="DejaVuSans-67" d="M 2906 1791 
Q 2906 2416 2648 2759 
Q 2391 3103 1925 3103 
Q 1463 3103 1205 2759 
Q 947 2416 947 1791 
Q 947 1169 1205 825 
Q 1463 481 1925 481 
Q 2391 481 2648 825 
Q 2906 1169 2906 1791 
z
M 3481 434 
Q 3481 -459 3084 -895 
Q 2688 -1331 1869 -1331 
Q 1566 -1331 1297 -1286 
Q 1028 -1241 775 -1147 
L 775 -588 
Q 1028 -725 1275 -790 
Q 1522 -856 1778 -856 
Q 2344 -856 2625 -561 
Q 2906 -266 2906 331 
L 2906 616 
Q 2728 306 2450 153 
Q 2172 0 1784 0 
Q 1141 0 747 490 
Q 353 981 353 1791 
Q 353 2603 747 3093 
Q 1141 3584 1784 3584 
Q 2172 3584 2450 3431 
Q 2728 3278 2906 2969 
L 2906 3500 
L 3481 3500 
L 3481 434 
z
" transform="scale(0.015625)"/>
     </defs>
     <use xlink:href="#DejaVuSans-62"/>
     <use xlink:href="#DejaVuSans-69" transform="translate(63.476562 0)"/>
     <use xlink:href="#DejaVuSans-6e" transform="translate(91.259766 0)"/>
     <use xlink:href="#DejaVuSans-64" transform="translate(154.638672 0)"/>
     <use xlink:href="#DejaVuSans-69" transform="translate(218.115234 0)"/>
     <use xlink:href="#DejaVuSans-6e" transform="translate(245.898438 0)"/>
     <use xlink:href="#DejaVuSans-67" transform="translate(309.277344 0)"/>
    </g>
   </g>
   <g id="legend_1">
    <g id="patch_7">
     <path d="M 483.93125 355.5925 
L 749.6 355.5925 
Q 757.6 355.5925 757.6 347.5925 
L 757.6 234.1675 
Q 757.6 226.1675 749.6 226.1675 
L 483.93125 226.1675 
Q 475.93125 226.1675 475.93125 234.1675 
L 475.93125 347.5925 
Q 475.93125 355.5925 483.93125 355.5925 
z
" style="fill: #ffffff; opacity: 0.8; stroke: #cccccc; stroke-linejoin: miter"/>
    </g>
    <g id="line2d_31">
     <path d="M 491.93125 258.56125 
L 531.93125 258.56125 
L 571.93125 258.56125 
" style="fill: none; stroke: #1f77b4; stroke-width: 4; stroke-linecap: square"/>
    </g>
    <g id="text_17">
     <!-- fedavg -->
     <g transform="translate(603.93125 272.56125) scale(0.4 -0.4)">
      <defs>
       <path id="DejaVuSans-66" d="M 2375 4863 
L 2375 4384 
L 1825 4384 
Q 1516 4384 1395 4259 
Q 1275 4134 1275 3809 
L 1275 3500 
L 2222 3500 
L 2222 3053 
L 1275 3053 
L 1275 0 
L 697 0 
L 697 3053 
L 147 3053 
L 147 3500 
L 697 3500 
L 697 3744 
Q 697 4328 969 4595 
Q 1241 4863 1831 4863 
L 2375 4863 
z
" transform="scale(0.015625)"/>
       <path id="DejaVuSans-61" d="M 2194 1759 
Q 1497 1759 1228 1600 
Q 959 1441 959 1056 
Q 959 750 1161 570 
Q 1363 391 1709 391 
Q 2188 391 2477 730 
Q 2766 1069 2766 1631 
L 2766 1759 
L 2194 1759 
z
M 3341 1997 
L 3341 0 
L 2766 0 
L 2766 531 
Q 2569 213 2275 61 
Q 1981 -91 1556 -91 
Q 1019 -91 701 211 
Q 384 513 384 1019 
Q 384 1609 779 1909 
Q 1175 2209 1959 2209 
L 2766 2209 
L 2766 2266 
Q 2766 2663 2505 2880 
Q 2244 3097 1772 3097 
Q 1472 3097 1187 3025 
Q 903 2953 641 2809 
L 641 3341 
Q 956 3463 1253 3523 
Q 1550 3584 1831 3584 
Q 2591 3584 2966 3190 
Q 3341 2797 3341 1997 
z
" transform="scale(0.015625)"/>
       <path id="DejaVuSans-76" d="M 191 3500 
L 800 3500 
L 1894 563 
L 2988 3500 
L 3597 3500 
L 2284 0 
L 1503 0 
L 191 3500 
z
" transform="scale(0.015625)"/>
      </defs>
      <use xlink:href="#DejaVuSans-66"/>
      <use xlink:href="#DejaVuSans-65" transform="translate(35.205078 0)"/>
      <use xlink:href="#DejaVuSans-64" transform="translate(96.728516 0)"/>
      <use xlink:href="#DejaVuSans-61" transform="translate(160.205078 0)"/>
      <use xlink:href="#DejaVuSans-76" transform="translate(221.484375 0)"/>
      <use xlink:href="#DejaVuSans-67" transform="translate(280.664062 0)"/>
     </g>
    </g>
    <g id="line2d_32">
     <path d="M 491.93125 317.27375 
L 531.93125 317.27375 
L 571.93125 317.27375 
" style="fill: none; stroke: #ff7f0e; stroke-width: 4; stroke-linecap: square"/>
    </g>
    <g id="text_18">
     <!-- local -->
     <g transform="translate(603.93125 331.27375) scale(0.4 -0.4)">
      <defs>
       <path id="DejaVuSans-6c" d="M 603 4863 
L 1178 4863 
L 1178 0 
L 603 0 
L 603 4863 
z
" transform="scale(0.015625)"/>
       <path id="DejaVuSans-6f" d="M 1959 3097 
Q 1497 3097 1228 2736 
Q 959 2375 959 1747 
Q 959 1119 1226 758 
Q 1494 397 1959 397 
Q 2419 397 2687 759 
Q 2956 1122 2956 1747 
Q 2956 2369 2687 2733 
Q 2419 3097 1959 3097 
z
M 1959 3584 
Q 2709 3584 3137 3096 
Q 3566 2609 3566 1747 
Q 3566 888 3137 398 
Q 2709 -91 1959 -91 
Q 1206 -91 779 398 
Q 353 888 353 1747 
Q 353 2609 779 3096 
Q 1206 3584 1959 3584 
z
" transform="scale(0.015625)"/>
       <path id="DejaVuSans-63" d="M 3122 3366 
L 3122 2828 
Q 2878 2963 2633 3030 
Q 2388 3097 2138 3097 
Q 1578 3097 1268 2742 
Q 959 2388 959 1747 
Q 959 1106 1268 751 
Q 1578 397 2138 397 
Q 2388 397 2633 464 
Q 2878 531 3122 666 
L 3122 134 
Q 2881 22 2623 -34 
Q 2366 -91 2075 -91 
Q 1284 -91 818 406 
Q 353 903 353 1747 
Q 353 2603 823 3093 
Q 1294 3584 2113 3584 
Q 2378 3584 2631 3529 
Q 2884 3475 3122 3366 
z
" transform="scale(0.015625)"/>
      </defs>
      <use xlink:href="#DejaVuSans-6c"/>
      <use xlink:href="#DejaVuSans-6f" transform="translate(27.783203 0)"/>
      <use xlink:href="#DejaVuSans-63" transform="translate(88.964844 0)"/>
      <use xlink:href="#DejaVuSans-61" transform="translate(143.945312 0)"/>
      <use xlink:href="#DejaVuSans-6c" transform="translate(205.224609 0)"/>
     </g>
    </g>
   </g>
  </g>
 </g>
 <defs>
  <clipPath id="p999b090342">
   <rect x="108" y="69.12" width="669.6" height="443.52"/>
  </clipPath>
 </defs>
</svg>
