<?xml version="1.0" encoding="utf-8" standalone="no"?>
<!DOCTYPE svg PUBLIC "-//W3C//DTD SVG 1.1//EN"
  "http://www.w3.org/Graphics/SVG/1.1/DTD/svg11.dtd">
<svg xmlns:xlink="http://www.w3.org/1999/xlink" width="864pt" height="576pt" viewBox="0 0 864 576" xmlns="http://www.w3.org/2000/svg" version="1.1">
 <metadata>
  <rdf:RDF xmlns:dc="http://purl.org/dc/elements/1.1/" xmlns:cc="http://creativecommons.org/ns#" xmlns:rdf="http://www.w3.org/1999/02/22-rdf-syntax-ns#">
   <cc:Work>
    <dc:type rdf:resource="http://purl.org/dc/dcmitype/StillImage"/>
    <dc:date>2025-04-17T13:45:44.043493</dc:date>
    <dc:format>image/svg+xml</dc:format>
    <dc:creator>
     <cc:Agent>
      <dc:title>Matplotlib v3.10.1, https://matplotlib.org/</dc:title>
     </cc:Agent>
    </dc:creator>
   </cc:Work>
  </rdf:RDF>
 </metadata>
 <defs>
  <style type="text/css">*{stroke-linejoin: round; stroke-linecap: butt}</style>
 </defs>
 <g id="figure_1">
  <g id="patch_1">
   <path d="M 0 576 
L 864 576 
L 864 0 
L 0 0 
z
" style="fill: #ffffff"/>
  </g>
  <g id="axes_1">
   <g id="patch_2">
    <path d="M 108 512.64 
L 777.6 512.64 
L 777.6 69.12 
L 108 69.12 
z
" style="fill: #ffffff"/>
   </g>
   <g id="FillBetweenPolyCollection_1"/>
   <g id="FillBetweenPolyCollection_2"/>
   <g id="matplotlib.axis_1">
    <g id="xtick_1">
     <g id="line2d_1">
      <path d="M 136.400486 512.64 
L 136.400486 69.12 
" clip-path="url(#pcd1de61b06)" style="fill: none; stroke: #b0b0b0; stroke-width: 0.8; stroke-linecap: square"/>
     </g>
     <g id="line2d_2">
      <defs>
       <path id="mb3661d3804" d="M 0 0 
L 0 3.5 
" style="stroke: #000000; stroke-width: 0.8"/>
      </defs>
      <g>
       <use xlink:href="#mb3661d3804" x="136.400486" y="512.64" style="stroke: #000000; stroke-width: 0.8"/>
      </g>
     </g>
     <g id="text_1">
      <!-- 0 -->
      <g transform="translate(126.856736 542.435313) scale(0.3 -0.3)">
       <defs>
        <path id="DejaVuSans-30" d="M 2034 4250 
Q 1547 4250 1301 3770 
Q 1056 3291 1056 2328 
Q 1056 1369 1301 889 
Q 1547 409 2034 409 
Q 2525 409 2770 889 
Q 3016 1369 3016 2328 
Q 3016 3291 2770 3770 
Q 2525 4250 2034 4250 
z
M 2034 4750 
Q 2819 4750 3233 4129 
Q 3647 3509 3647 2328 
Q 3647 1150 3233 529 
Q 2819 -91 2034 -91 
Q 1250 -91 836 529 
Q 422 1150 422 2328 
Q 422 3509 836 4129 
Q 1250 4750 2034 4750 
z
" transform="scale(0.015625)"/>
       </defs>
       <use xlink:href="#DejaVuSans-30"/>
      </g>
     </g>
    </g>
    <g id="xtick_2">
     <g id="line2d_3">
      <path d="M 272.125631 512.64 
L 272.125631 69.12 
" clip-path="url(#pcd1de61b06)" style="fill: none; stroke: #b0b0b0; stroke-width: 0.8; stroke-linecap: square"/>
     </g>
     <g id="line2d_4">
      <g>
       <use xlink:href="#mb3661d3804" x="272.125631" y="512.64" style="stroke: #000000; stroke-width: 0.8"/>
      </g>
     </g>
     <g id="text_2">
      <!-- 200 -->
      <g transform="translate(243.494381 542.435313) scale(0.3 -0.3)">
       <defs>
        <path id="DejaVuSans-32" d="M 1228 531 
L 3431 531 
L 3431 0 
L 469 0 
L 469 531 
Q 828 903 1448 1529 
Q 2069 2156 2228 2338 
Q 2531 2678 2651 2914 
Q 2772 3150 2772 3378 
Q 2772 3750 2511 3984 
Q 2250 4219 1831 4219 
Q 1534 4219 1204 4116 
Q 875 4013 500 3803 
L 500 4441 
Q 881 4594 1212 4672 
Q 1544 4750 1819 4750 
Q 2544 4750 2975 4387 
Q 3406 4025 3406 3419 
Q 3406 3131 3298 2873 
Q 3191 2616 2906 2266 
Q 2828 2175 2409 1742 
Q 1991 1309 1228 531 
z
" transform="scale(0.015625)"/>
       </defs>
       <use xlink:href="#DejaVuSans-32"/>
       <use xlink:href="#DejaVuSans-30" transform="translate(63.623047 0)"/>
       <use xlink:href="#DejaVuSans-30" transform="translate(127.246094 0)"/>
      </g>
     </g>
    </g>
    <g id="xtick_3">
     <g id="line2d_5">
      <path d="M 407.850775 512.64 
L 407.850775 69.12 
" clip-path="url(#pcd1de61b06)" style="fill: none; stroke: #b0b0b0; stroke-width: 0.8; stroke-linecap: square"/>
     </g>
     <g id="line2d_6">
      <g>
       <use xlink:href="#mb3661d3804" x="407.850775" y="512.64" style="stroke: #000000; stroke-width: 0.8"/>
      </g>
     </g>
     <g id="text_3">
      <!-- 400 -->
      <g transform="translate(379.219525 542.435313) scale(0.3 -0.3)">
       <defs>
        <path id="DejaVuSans-34" d="M 2419 4116 
L 825 1625 
L 2419 1625 
L 2419 4116 
z
M 2253 4666 
L 3047 4666 
L 3047 1625 
L 3713 1625 
L 3713 1100 
L 3047 1100 
L 3047 0 
L 2419 0 
L 2419 1100 
L 313 1100 
L 313 1709 
L 2253 4666 
z
" transform="scale(0.015625)"/>
       </defs>
       <use xlink:href="#DejaVuSans-34"/>
       <use xlink:href="#DejaVuSans-30" transform="translate(63.623047 0)"/>
       <use xlink:href="#DejaVuSans-30" transform="translate(127.246094 0)"/>
      </g>
     </g>
    </g>
    <g id="xtick_4">
     <g id="line2d_7">
      <path d="M 543.57592 512.64 
L 543.57592 69.12 
" clip-path="url(#pcd1de61b06)" style="fill: none; stroke: #b0b0b0; stroke-width: 0.8; stroke-linecap: square"/>
     </g>
     <g id="line2d_8">
      <g>
       <use xlink:href="#mb3661d3804" x="543.57592" y="512.64" style="stroke: #000000; stroke-width: 0.8"/>
      </g>
     </g>
     <g id="text_4">
      <!-- 600 -->
      <g transform="translate(514.94467 542.435313) scale(0.3 -0.3)">
       <defs>
        <path id="DejaVuSans-36" d="M 2113 2584 
Q 1688 2584 1439 2293 
Q 1191 2003 1191 1497 
Q 1191 994 1439 701 
Q 1688 409 2113 409 
Q 2538 409 2786 701 
Q 3034 994 3034 1497 
Q 3034 2003 2786 2293 
Q 2538 2584 2113 2584 
z
M 3366 4563 
L 3366 3988 
Q 3128 4100 2886 4159 
Q 2644 4219 2406 4219 
Q 1781 4219 1451 3797 
Q 1122 3375 1075 2522 
Q 1259 2794 1537 2939 
Q 1816 3084 2150 3084 
Q 2853 3084 3261 2657 
Q 3669 2231 3669 1497 
Q 3669 778 3244 343 
Q 2819 -91 2113 -91 
Q 1303 -91 875 529 
Q 447 1150 447 2328 
Q 447 3434 972 4092 
Q 1497 4750 2381 4750 
Q 2619 4750 2861 4703 
Q 3103 4656 3366 4563 
z
" transform="scale(0.015625)"/>
       </defs>
       <use xlink:href="#DejaVuSans-36"/>
       <use xlink:href="#DejaVuSans-30" transform="translate(63.623047 0)"/>
       <use xlink:href="#DejaVuSans-30" transform="translate(127.246094 0)"/>
      </g>
     </g>
    </g>
    <g id="xtick_5">
     <g id="line2d_9">
      <path d="M 679.301064 512.64 
L 679.301064 69.12 
" clip-path="url(#pcd1de61b06)" style="fill: none; stroke: #b0b0b0; stroke-width: 0.8; stroke-linecap: square"/>
     </g>
     <g id="line2d_10">
      <g>
       <use xlink:href="#mb3661d3804" x="679.301064" y="512.64" style="stroke: #000000; stroke-width: 0.8"/>
      </g>
     </g>
     <g id="text_5">
      <!-- 800 -->
      <g transform="translate(650.669814 542.435313) scale(0.3 -0.3)">
       <defs>
        <path id="DejaVuSans-38" d="M 2034 2216 
Q 1584 2216 1326 1975 
Q 1069 1734 1069 1313 
Q 1069 891 1326 650 
Q 1584 409 2034 409 
Q 2484 409 2743 651 
Q 3003 894 3003 1313 
Q 3003 1734 2745 1975 
Q 2488 2216 2034 2216 
z
M 1403 2484 
Q 997 2584 770 2862 
Q 544 3141 544 3541 
Q 544 4100 942 4425 
Q 1341 4750 2034 4750 
Q 2731 4750 3128 4425 
Q 3525 4100 3525 3541 
Q 3525 3141 3298 2862 
Q 3072 2584 2669 2484 
Q 3125 2378 3379 2068 
Q 3634 1759 3634 1313 
Q 3634 634 3220 271 
Q 2806 -91 2034 -91 
Q 1263 -91 848 271 
Q 434 634 434 1313 
Q 434 1759 690 2068 
Q 947 2378 1403 2484 
z
M 1172 3481 
Q 1172 3119 1398 2916 
Q 1625 2713 2034 2713 
Q 2441 2713 2670 2916 
Q 2900 3119 2900 3481 
Q 2900 3844 2670 4047 
Q 2441 4250 2034 4250 
Q 1625 4250 1398 4047 
Q 1172 3844 1172 3481 
z
" transform="scale(0.015625)"/>
       </defs>
       <use xlink:href="#DejaVuSans-38"/>
       <use xlink:href="#DejaVuSans-30" transform="translate(63.623047 0)"/>
       <use xlink:href="#DejaVuSans-30" transform="translate(127.246094 0)"/>
      </g>
     </g>
    </g>
    <g id="text_6">
     <!-- Steps -->
     <g transform="translate(386.840625 583.068125) scale(0.4 -0.4)">
      <defs>
       <path id="DejaVuSans-53" d="M 3425 4513 
L 3425 3897 
Q 3066 4069 2747 4153 
Q 2428 4238 2131 4238 
Q 1616 4238 1336 4038 
Q 1056 3838 1056 3469 
Q 1056 3159 1242 3001 
Q 1428 2844 1947 2747 
L 2328 2669 
Q 3034 2534 3370 2195 
Q 3706 1856 3706 1288 
Q 3706 609 3251 259 
Q 2797 -91 1919 -91 
Q 1588 -91 1214 -16 
Q 841 59 441 206 
L 441 856 
Q 825 641 1194 531 
Q 1563 422 1919 422 
Q 2459 422 2753 634 
Q 3047 847 3047 1241 
Q 3047 1584 2836 1778 
Q 2625 1972 2144 2069 
L 1759 2144 
Q 1053 2284 737 2584 
Q 422 2884 422 3419 
Q 422 4038 858 4394 
Q 1294 4750 2059 4750 
Q 2388 4750 2728 4690 
Q 3069 4631 3425 4513 
z
" transform="scale(0.015625)"/>
       <path id="DejaVuSans-74" d="M 1172 4494 
L 1172 3500 
L 2356 3500 
L 2356 3053 
L 1172 3053 
L 1172 1153 
Q 1172 725 1289 603 
Q 1406 481 1766 481 
L 2356 481 
L 2356 0 
L 1766 0 
Q 1100 0 847 248 
Q 594 497 594 1153 
L 594 3053 
L 172 3053 
L 172 3500 
L 594 3500 
L 594 4494 
L 1172 4494 
z
" transform="scale(0.015625)"/>
       <path id="DejaVuSans-65" d="M 3597 1894 
L 3597 1613 
L 953 1613 
Q 991 1019 1311 708 
Q 1631 397 2203 397 
Q 2534 397 2845 478 
Q 3156 559 3463 722 
L 3463 178 
Q 3153 47 2828 -22 
Q 2503 -91 2169 -91 
Q 1331 -91 842 396 
Q 353 884 353 1716 
Q 353 2575 817 3079 
Q 1281 3584 2069 3584 
Q 2775 3584 3186 3129 
Q 3597 2675 3597 1894 
z
M 3022 2063 
Q 3016 2534 2758 2815 
Q 2500 3097 2075 3097 
Q 1594 3097 1305 2825 
Q 1016 2553 972 2059 
L 3022 2063 
z
" transform="scale(0.015625)"/>
       <path id="DejaVuSans-70" d="M 1159 525 
L 1159 -1331 
L 581 -1331 
L 581 3500 
L 1159 3500 
L 1159 2969 
Q 1341 3281 1617 3432 
Q 1894 3584 2278 3584 
Q 2916 3584 3314 3078 
Q 3713 2572 3713 1747 
Q 3713 922 3314 415 
Q 2916 -91 2278 -91 
Q 1894 -91 1617 61 
Q 1341 213 1159 525 
z
M 3116 1747 
Q 3116 2381 2855 2742 
Q 2594 3103 2138 3103 
Q 1681 3103 1420 2742 
Q 1159 2381 1159 1747 
Q 1159 1113 1420 752 
Q 1681 391 2138 391 
Q 2594 391 2855 752 
Q 3116 1113 3116 1747 
z
" transform="scale(0.015625)"/>
       <path id="DejaVuSans-73" d="M 2834 3397 
L 2834 2853 
Q 2591 2978 2328 3040 
Q 2066 3103 1784 3103 
Q 1356 3103 1142 2972 
Q 928 2841 928 2578 
Q 928 2378 1081 2264 
Q 1234 2150 1697 2047 
L 1894 2003 
Q 2506 1872 2764 1633 
Q 3022 1394 3022 966 
Q 3022 478 2636 193 
Q 2250 -91 1575 -91 
Q 1294 -91 989 -36 
Q 684 19 347 128 
L 347 722 
Q 666 556 975 473 
Q 1284 391 1588 391 
Q 1994 391 2212 530 
Q 2431 669 2431 922 
Q 2431 1156 2273 1281 
Q 2116 1406 1581 1522 
L 1381 1569 
Q 847 1681 609 1914 
Q 372 2147 372 2553 
Q 372 3047 722 3315 
Q 1072 3584 1716 3584 
Q 2034 3584 2315 3537 
Q 2597 3491 2834 3397 
z
" transform="scale(0.015625)"/>
      </defs>
      <use xlink:href="#DejaVuSans-53"/>
      <use xlink:href="#DejaVuSans-74" transform="translate(63.476562 0)"/>
      <use xlink:href="#DejaVuSans-65" transform="translate(102.685547 0)"/>
      <use xlink:href="#DejaVuSans-70" transform="translate(164.208984 0)"/>
      <use xlink:href="#DejaVuSans-73" transform="translate(227.685547 0)"/>
     </g>
    </g>
   </g>
   <g id="matplotlib.axis_2">
    <g id="ytick_1">
     <g id="line2d_11">
      <path d="M 108 465.868738 
L 777.6 465.868738 
" clip-path="url(#pcd1de61b06)" style="fill: none; stroke: #b0b0b0; stroke-width: 0.8; stroke-linecap: square"/>
     </g>
     <g id="line2d_12">
      <defs>
       <path id="m385e98fd06" d="M 0 0 
L -3.5 0 
" style="stroke: #000000; stroke-width: 0.8"/>
      </defs>
      <g>
       <use xlink:href="#m385e98fd06" x="108" y="465.868738" style="stroke: #000000; stroke-width: 0.8"/>
      </g>
     </g>
     <g id="text_7">
      <!-- 16.5 -->
      <g transform="translate(34.203125 477.266394) scale(0.3 -0.3)">
       <defs>
        <path id="DejaVuSans-31" d="M 794 531 
L 1825 531 
L 1825 4091 
L 703 3866 
L 703 4441 
L 1819 4666 
L 2450 4666 
L 2450 531 
L 3481 531 
L 3481 0 
L 794 0 
L 794 531 
z
" transform="scale(0.015625)"/>
        <path id="DejaVuSans-2e" d="M 684 794 
L 1344 794 
L 1344 0 
L 684 0 
L 684 794 
z
" transform="scale(0.015625)"/>
        <path id="DejaVuSans-35" d="M 691 4666 
L 3169 4666 
L 3169 4134 
L 1269 4134 
L 1269 2991 
Q 1406 3038 1543 3061 
Q 1681 3084 1819 3084 
Q 2600 3084 3056 2656 
Q 3513 2228 3513 1497 
Q 3513 744 3044 326 
Q 2575 -91 1722 -91 
Q 1428 -91 1123 -41 
Q 819 9 494 109 
L 494 744 
Q 775 591 1075 516 
Q 1375 441 1709 441 
Q 2250 441 2565 725 
Q 2881 1009 2881 1497 
Q 2881 1984 2565 2268 
Q 2250 2553 1709 2553 
Q 1456 2553 1204 2497 
Q 953 2441 691 2322 
L 691 4666 
z
" transform="scale(0.015625)"/>
       </defs>
       <use xlink:href="#DejaVuSans-31"/>
       <use xlink:href="#DejaVuSans-36" transform="translate(63.623047 0)"/>
       <use xlink:href="#DejaVuSans-2e" transform="translate(127.246094 0)"/>
       <use xlink:href="#DejaVuSans-35" transform="translate(159.033203 0)"/>
      </g>
     </g>
    </g>
    <g id="ytick_2">
     <g id="line2d_13">
      <path d="M 108 408.410207 
L 777.6 408.410207 
" clip-path="url(#pcd1de61b06)" style="fill: none; stroke: #b0b0b0; stroke-width: 0.8; stroke-linecap: square"/>
     </g>
     <g id="line2d_14">
      <g>
       <use xlink:href="#m385e98fd06" x="108" y="408.410207" style="stroke: #000000; stroke-width: 0.8"/>
      </g>
     </g>
     <g id="text_8">
      <!-- 17.0 -->
      <g transform="translate(34.203125 419.807863) scale(0.3 -0.3)">
       <defs>
        <path id="DejaVuSans-37" d="M 525 4666 
L 3525 4666 
L 3525 4397 
L 1831 0 
L 1172 0 
L 2766 4134 
L 525 4134 
L 525 4666 
z
" transform="scale(0.015625)"/>
       </defs>
       <use xlink:href="#DejaVuSans-31"/>
       <use xlink:href="#DejaVuSans-37" transform="translate(63.623047 0)"/>
       <use xlink:href="#DejaVuSans-2e" transform="translate(127.246094 0)"/>
       <use xlink:href="#DejaVuSans-30" transform="translate(159.033203 0)"/>
      </g>
     </g>
    </g>
    <g id="ytick_3">
     <g id="line2d_15">
      <path d="M 108 350.951677 
L 777.6 350.951677 
" clip-path="url(#pcd1de61b06)" style="fill: none; stroke: #b0b0b0; stroke-width: 0.8; stroke-linecap: square"/>
     </g>
     <g id="line2d_16">
      <g>
       <use xlink:href="#m385e98fd06" x="108" y="350.951677" style="stroke: #000000; stroke-width: 0.8"/>
      </g>
     </g>
     <g id="text_9">
      <!-- 17.5 -->
      <g transform="translate(34.203125 362.349333) scale(0.3 -0.3)">
       <use xlink:href="#DejaVuSans-31"/>
       <use xlink:href="#DejaVuSans-37" transform="translate(63.623047 0)"/>
       <use xlink:href="#DejaVuSans-2e" transform="translate(127.246094 0)"/>
       <use xlink:href="#DejaVuSans-35" transform="translate(159.033203 0)"/>
      </g>
     </g>
    </g>
    <g id="ytick_4">
     <g id="line2d_17">
      <path d="M 108 293.493146 
L 777.6 293.493146 
" clip-path="url(#pcd1de61b06)" style="fill: none; stroke: #b0b0b0; stroke-width: 0.8; stroke-linecap: square"/>
     </g>
     <g id="line2d_18">
      <g>
       <use xlink:href="#m385e98fd06" x="108" y="293.493146" style="stroke: #000000; stroke-width: 0.8"/>
      </g>
     </g>
     <g id="text_10">
      <!-- 18.0 -->
      <g transform="translate(34.203125 304.890802) scale(0.3 -0.3)">
       <use xlink:href="#DejaVuSans-31"/>
       <use xlink:href="#DejaVuSans-38" transform="translate(63.623047 0)"/>
       <use xlink:href="#DejaVuSans-2e" transform="translate(127.246094 0)"/>
       <use xlink:href="#DejaVuSans-30" transform="translate(159.033203 0)"/>
      </g>
     </g>
    </g>
    <g id="ytick_5">
     <g id="line2d_19">
      <path d="M 108 236.034616 
L 777.6 236.034616 
" clip-path="url(#pcd1de61b06)" style="fill: none; stroke: #b0b0b0; stroke-width: 0.8; stroke-linecap: square"/>
     </g>
     <g id="line2d_20">
      <g>
       <use xlink:href="#m385e98fd06" x="108" y="236.034616" style="stroke: #000000; stroke-width: 0.8"/>
      </g>
     </g>
     <g id="text_11">
      <!-- 18.5 -->
      <g transform="translate(34.203125 247.432272) scale(0.3 -0.3)">
       <use xlink:href="#DejaVuSans-31"/>
       <use xlink:href="#DejaVuSans-38" transform="translate(63.623047 0)"/>
       <use xlink:href="#DejaVuSans-2e" transform="translate(127.246094 0)"/>
       <use xlink:href="#DejaVuSans-35" transform="translate(159.033203 0)"/>
      </g>
     </g>
    </g>
    <g id="ytick_6">
     <g id="line2d_21">
      <path d="M 108 178.576085 
L 777.6 178.576085 
" clip-path="url(#pcd1de61b06)" style="fill: none; stroke: #b0b0b0; stroke-width: 0.8; stroke-linecap: square"/>
     </g>
     <g id="line2d_22">
      <g>
       <use xlink:href="#m385e98fd06" x="108" y="178.576085" style="stroke: #000000; stroke-width: 0.8"/>
      </g>
     </g>
     <g id="text_12">
      <!-- 19.0 -->
      <g transform="translate(34.203125 189.973741) scale(0.3 -0.3)">
       <defs>
        <path id="DejaVuSans-39" d="M 703 97 
L 703 672 
Q 941 559 1184 500 
Q 1428 441 1663 441 
Q 2288 441 2617 861 
Q 2947 1281 2994 2138 
Q 2813 1869 2534 1725 
Q 2256 1581 1919 1581 
Q 1219 1581 811 2004 
Q 403 2428 403 3163 
Q 403 3881 828 4315 
Q 1253 4750 1959 4750 
Q 2769 4750 3195 4129 
Q 3622 3509 3622 2328 
Q 3622 1225 3098 567 
Q 2575 -91 1691 -91 
Q 1453 -91 1209 -44 
Q 966 3 703 97 
z
M 1959 2075 
Q 2384 2075 2632 2365 
Q 2881 2656 2881 3163 
Q 2881 3666 2632 3958 
Q 2384 4250 1959 4250 
Q 1534 4250 1286 3958 
Q 1038 3666 1038 3163 
Q 1038 2656 1286 2365 
Q 1534 2075 1959 2075 
z
" transform="scale(0.015625)"/>
       </defs>
       <use xlink:href="#DejaVuSans-31"/>
       <use xlink:href="#DejaVuSans-39" transform="translate(63.623047 0)"/>
       <use xlink:href="#DejaVuSans-2e" transform="translate(127.246094 0)"/>
       <use xlink:href="#DejaVuSans-30" transform="translate(159.033203 0)"/>
      </g>
     </g>
    </g>
    <g id="ytick_7">
     <g id="line2d_23">
      <path d="M 108 121.117555 
L 777.6 121.117555 
" clip-path="url(#pcd1de61b06)" style="fill: none; stroke: #b0b0b0; stroke-width: 0.8; stroke-linecap: square"/>
     </g>
     <g id="line2d_24">
      <g>
       <use xlink:href="#m385e98fd06" x="108" y="121.117555" style="stroke: #000000; stroke-width: 0.8"/>
      </g>
     </g>
     <g id="text_13">
      <!-- 19.5 -->
      <g transform="translate(34.203125 132.515211) scale(0.3 -0.3)">
       <use xlink:href="#DejaVuSans-31"/>
       <use xlink:href="#DejaVuSans-39" transform="translate(63.623047 0)"/>
       <use xlink:href="#DejaVuSans-2e" transform="translate(127.246094 0)"/>
       <use xlink:href="#DejaVuSans-35" transform="translate(159.033203 0)"/>
      </g>
     </g>
    </g>
    <g id="text_14">
     <!-- RMSE -->
     <g transform="translate(21.884375 347.3675) rotate(-90) scale(0.4 -0.4)">
      <defs>
       <path id="DejaVuSans-52" d="M 2841 2188 
Q 3044 2119 3236 1894 
Q 3428 1669 3622 1275 
L 4263 0 
L 3584 0 
L 2988 1197 
Q 2756 1666 2539 1819 
Q 2322 1972 1947 1972 
L 1259 1972 
L 1259 0 
L 628 0 
L 628 4666 
L 2053 4666 
Q 2853 4666 3247 4331 
Q 3641 3997 3641 3322 
Q 3641 2881 3436 2590 
Q 3231 2300 2841 2188 
z
M 1259 4147 
L 1259 2491 
L 2053 2491 
Q 2509 2491 2742 2702 
Q 2975 2913 2975 3322 
Q 2975 3731 2742 3939 
Q 2509 4147 2053 4147 
L 1259 4147 
z
" transform="scale(0.015625)"/>
       <path id="DejaVuSans-4d" d="M 628 4666 
L 1569 4666 
L 2759 1491 
L 3956 4666 
L 4897 4666 
L 4897 0 
L 4281 0 
L 4281 4097 
L 3078 897 
L 2444 897 
L 1241 4097 
L 1241 0 
L 628 0 
L 628 4666 
z
" transform="scale(0.015625)"/>
       <path id="DejaVuSans-45" d="M 628 4666 
L 3578 4666 
L 3578 4134 
L 1259 4134 
L 1259 2753 
L 3481 2753 
L 3481 2222 
L 1259 2222 
L 1259 531 
L 3634 531 
L 3634 0 
L 628 0 
L 628 4666 
z
" transform="scale(0.015625)"/>
      </defs>
      <use xlink:href="#DejaVuSans-52"/>
      <use xlink:href="#DejaVuSans-4d" transform="translate(69.482422 0)"/>
      <use xlink:href="#DejaVuSans-53" transform="translate(155.761719 0)"/>
      <use xlink:href="#DejaVuSans-45" transform="translate(219.238281 0)"/>
     </g>
    </g>
   </g>
   <g id="line2d_25">
    <path d="M 138.436364 89.28 
L 142.508118 150.52082 
L 144.543995 176.199661 
L 148.615749 235.284339 
L 150.651627 263.492378 
L 152.687504 288.423134 
L 154.723381 310.473555 
L 156.759258 328.185829 
L 158.795135 341.681386 
L 160.831012 352.580235 
L 162.86689 358.994959 
L 164.902767 362.203636 
L 166.938644 363.927322 
L 168.974521 364.431671 
L 171.010398 364.538415 
L 175.082153 364.514524 
L 177.11803 364.537319 
L 183.225661 364.178949 
L 185.261538 364.184647 
L 187.297416 363.984968 
L 189.333293 363.497716 
L 195.440924 363.031943 
L 197.476801 363.778494 
L 199.512679 364.138618 
L 203.584433 364.262459 
L 205.62031 364.495235 
L 213.763819 364.340708 
L 219.87145 363.905622 
L 221.907327 364.125905 
L 223.943205 363.932363 
L 225.979082 364.356271 
L 230.050836 364.478577 
L 234.12259 364.384107 
L 236.158468 364.018723 
L 238.194345 363.262966 
L 240.230222 363.349545 
L 242.266099 362.904596 
L 244.301976 362.642887 
L 246.337853 363.780467 
L 248.373731 363.942884 
L 250.409608 362.883554 
L 252.445485 365.798959 
L 254.481362 363.947926 
L 256.517239 367.225427 
L 258.553116 364.047656 
L 260.588994 366.444464 
L 262.624871 364.24317 
L 264.660748 364.402519 
L 270.768379 364.439343 
L 274.840134 364.403834 
L 280.947765 364.010394 
L 285.01952 363.56654 
L 287.055397 363.681613 
L 289.091274 363.956255 
L 293.163028 363.83614 
L 295.198905 363.837017 
L 297.234783 363.503853 
L 299.27066 363.671969 
L 301.306537 366.236894 
L 303.342414 363.961077 
L 305.378291 365.319159 
L 307.414168 368.803354 
L 309.450046 375.52209 
L 311.485923 389.123952 
L 313.5218 408.83543 
L 315.557677 364.436932 
L 317.593554 365.378778 
L 319.629431 373.280685 
L 321.665309 371.572342 
L 323.701186 402.658962 
L 325.737063 392.996765 
L 327.77294 386.227178 
L 329.808817 364.804727 
L 331.844694 361.90335 
L 333.880572 363.888088 
L 335.916449 408.922447 
L 337.952326 421.039537 
L 339.988203 447.545151 
L 342.02408 441.304243 
L 344.059957 455.755673 
L 346.095835 459.817864 
L 348.131712 449.603536 
L 350.167589 456.205226 
L 354.239343 460.644856 
L 356.27522 462.330184 
L 358.311098 463.507876 
L 360.346975 464.160833 
L 362.382852 464.172012 
L 364.418729 465.43146 
L 366.454606 465.331511 
L 368.490483 464.796475 
L 374.598115 463.762571 
L 376.633992 464.023842 
L 378.669869 463.799613 
L 380.705746 463.784709 
L 382.741624 464.322374 
L 384.777501 464.384623 
L 388.849255 465.349703 
L 390.885132 465.065418 
L 392.921009 465.297098 
L 394.956887 465.197587 
L 396.992764 464.953194 
L 399.028641 465.425323 
L 401.064518 465.616892 
L 403.100395 465.334579 
L 405.136272 465.309154 
L 409.208027 464.491148 
L 411.243904 463.855506 
L 413.279781 463.025884 
L 415.315658 463.265455 
L 419.387413 463.186767 
L 421.42329 463.863397 
L 423.459167 464.713842 
L 425.495044 465.314414 
L 429.566798 466.06228 
L 433.638553 466.300098 
L 435.67443 466.356209 
L 439.746184 466.08639 
L 441.782061 465.653496 
L 443.817939 465.491955 
L 449.92557 465.27781 
L 456.033202 464.268454 
L 458.069079 464.034801 
L 464.17671 464.015293 
L 466.212587 464.63625 
L 468.248465 464.988702 
L 472.320219 464.801078 
L 474.356096 464.602276 
L 478.42785 464.947934 
L 480.463728 465.003826 
L 482.499605 464.820805 
L 484.535482 464.368184 
L 488.607236 464.068117 
L 492.678991 463.526287 
L 494.714868 463.775503 
L 498.786622 463.450668 
L 500.822499 463.746789 
L 504.894254 463.889918 
L 506.930131 464.620688 
L 508.966008 464.684471 
L 513.037762 465.321209 
L 515.073639 465.923534 
L 517.109517 466.032251 
L 521.181271 465.805831 
L 523.217148 465.170847 
L 527.288902 464.67658 
L 535.432411 463.553247 
L 551.719428 464.311634 
L 553.755306 464.513067 
L 555.791183 464.575535 
L 557.82706 464.85982 
L 563.934691 464.818394 
L 565.970569 464.414213 
L 568.006446 464.133654 
L 574.114077 464.315141 
L 576.149954 464.400843 
L 584.293463 464.127298 
L 586.32934 464.352184 
L 588.365217 464.357663 
L 590.401095 464.646113 
L 592.436972 464.645456 
L 594.472849 464.816202 
L 610.759866 464.606002 
L 612.795743 464.812257 
L 620.939252 464.37213 
L 625.011006 464.609947 
L 629.082761 464.532574 
L 631.118638 464.62003 
L 637.226269 464.386596 
L 645.369778 464.529287 
L 647.405655 464.739925 
L 661.656795 464.687759 
L 665.72855 464.475147 
L 675.907936 464.519642 
L 686.087321 464.712527 
L 698.302584 464.593508 
L 710.517847 465.280878 
L 730.876619 465.101364 
L 747.163636 465.050951 
L 747.163636 465.050951 
" clip-path="url(#pcd1de61b06)" style="fill: none; stroke: #1f77b4; stroke-width: 4; stroke-linecap: square"/>
   </g>
   <g id="line2d_26">
    <path d="M 138.436364 104.409157 
L 140.472241 135.888341 
L 142.508118 165.645812 
L 146.579872 228.075501 
L 148.615749 256.549194 
L 150.651627 283.371095 
L 152.687504 307.374033 
L 154.723381 327.322014 
L 156.759258 341.694976 
L 158.795135 351.845959 
L 160.831012 358.872434 
L 162.86689 362.751165 
L 164.902767 364.247116 
L 166.938644 364.529428 
L 171.010398 364.150673 
L 175.082153 364.530963 
L 177.11803 364.451617 
L 179.153907 363.672188 
L 183.225661 363.027121 
L 187.297416 362.661737 
L 189.333293 362.816264 
L 191.36917 363.320832 
L 193.405047 362.932433 
L 195.440924 363.583856 
L 197.476801 363.883704 
L 199.512679 364.297748 
L 201.548556 364.552443 
L 205.62031 364.683736 
L 209.692064 364.925937 
L 211.727942 365.573416 
L 213.763819 368.903961 
L 215.799696 356.278357 
L 217.835573 415.345062 
L 219.87145 418.735883 
L 221.907327 428.521701 
L 223.943205 325.844475 
L 225.979082 347.61894 
L 228.014959 363.150304 
L 232.086713 329.978778 
L 234.12259 369.635606 
L 236.158468 390.256271 
L 238.194345 356.60363 
L 240.230222 492.48 
L 242.266099 344.821458 
L 246.337853 362.803989 
L 248.373731 364.465864 
L 250.409608 362.034205 
L 252.445485 357.596328 
L 254.481362 357.237519 
L 256.517239 360.30219 
L 258.553116 362.609132 
L 260.588994 364.00864 
L 262.624871 364.452713 
L 268.732502 364.388053 
L 272.804257 363.589993 
L 274.840134 362.873471 
L 276.876011 362.521238 
L 278.911888 362.7904 
L 282.983642 362.797852 
L 287.055397 362.493182 
L 289.091274 363.150743 
L 291.127151 363.393602 
L 293.163028 363.777837 
L 295.198905 364.283281 
L 297.234783 364.456878 
L 301.306537 364.463234 
L 303.342414 364.441096 
L 307.414168 364.018723 
L 309.450046 363.409383 
L 311.485923 363.006079 
L 315.557677 363.316667 
L 319.629431 363.679641 
L 323.701186 363.933898 
L 329.808817 363.483907 
L 331.844694 363.79844 
L 339.988203 364.267062 
L 342.02408 363.640626 
L 344.059957 362.664586 
L 348.131712 362.168347 
L 350.167589 362.489456 
L 352.203466 363.629447 
L 354.239343 364.05182 
L 362.382852 364.400327 
L 364.418729 364.137522 
L 368.490483 363.874717 
L 370.526361 363.55843 
L 372.562238 363.442481 
L 374.598115 363.654653 
L 378.669869 363.027341 
L 380.705746 363.265597 
L 382.741624 363.76622 
L 384.777501 364.101795 
L 386.813378 364.086452 
L 390.885132 364.380381 
L 392.921009 364.309365 
L 394.956887 363.934774 
L 399.028641 363.811372 
L 401.064518 363.981242 
L 403.100395 364.339832 
L 405.136272 364.312433 
L 411.243904 363.435028 
L 417.351535 363.441165 
L 419.387413 363.282693 
L 421.42329 363.391848 
L 423.459167 363.821016 
L 425.495044 363.95472 
L 427.530921 364.331941 
L 431.602676 364.459946 
L 433.638553 364.475508 
L 435.67443 364.325146 
L 437.710307 363.930171 
L 439.746184 363.742547 
L 441.782061 363.009367 
L 443.817939 362.779879 
L 445.853816 362.928706 
L 447.889693 363.417055 
L 451.961447 363.390752 
L 458.069079 364.115604 
L 460.104956 364.056423 
L 462.140833 363.671312 
L 464.17671 363.592843 
L 466.212587 363.194799 
L 468.248465 363.483249 
L 470.284342 363.58276 
L 472.320219 363.834387 
L 474.356096 363.532128 
L 476.391973 363.66101 
L 482.499605 363.520949 
L 484.535482 363.988694 
L 488.607236 364.295118 
L 490.643113 364.206785 
L 492.678991 363.973132 
L 494.714868 363.871868 
L 496.750745 363.436563 
L 498.786622 363.174634 
L 500.822499 362.654942 
L 504.894254 362.664367 
L 506.930131 363.066575 
L 508.966008 362.961584 
L 513.037762 363.358751 
L 515.073639 364.209854 
L 517.109517 364.349038 
L 519.145394 364.260486 
L 523.217148 363.529279 
L 525.253025 363.795591 
L 535.432411 363.737287 
L 539.504165 364.179168 
L 541.540043 364.219279 
L 543.57592 364.043272 
L 549.683551 363.990667 
L 551.719428 364.189689 
L 555.791183 364.057519 
L 559.862937 364.412821 
L 568.006446 363.918554 
L 572.0782 364.165797 
L 574.114077 364.302132 
L 576.149954 364.800563 
L 578.185832 365.004626 
L 580.221709 366.364899 
L 582.257586 213.340881 
L 584.293463 363.305708 
L 586.32934 363.522045 
L 588.365217 364.226512 
L 592.436972 364.880566 
L 596.508726 364.543676 
L 600.58048 363.312503 
L 602.616358 363.678106 
L 604.652235 363.597227 
L 606.688112 364.036258 
L 608.723989 365.005064 
L 612.795743 368.151492 
L 614.831621 363.594596 
L 616.867498 363.861128 
L 618.903375 364.540607 
L 620.939252 364.491947 
L 622.975129 364.123056 
L 627.046884 363.705505 
L 629.082761 364.227827 
L 631.118638 364.492167 
L 635.190392 364.434082 
L 637.226269 364.245801 
L 641.298024 364.083164 
L 643.333901 364.180483 
L 651.47741 363.906938 
L 653.513287 364.121302 
L 659.620918 364.43189 
L 661.656795 364.366573 
L 665.72855 363.940692 
L 669.800304 363.766 
L 671.836181 364.119111 
L 673.872058 364.279994 
L 675.907936 364.254349 
L 679.97969 363.68797 
L 682.015567 363.635803 
L 684.051444 363.37804 
L 686.087321 363.280063 
L 690.159076 363.39667 
L 692.194953 363.74452 
L 694.23083 363.96831 
L 696.266707 363.827373 
L 698.302584 364.010613 
L 708.48197 363.780028 
L 714.589602 364.434959 
L 716.625479 364.342462 
L 724.768988 363.36445 
L 726.804865 363.469002 
L 728.840742 363.783535 
L 730.876619 363.977735 
L 734.948373 364.159222 
L 736.984251 364.431233 
L 741.056005 365.411656 
L 743.091882 366.967444 
L 745.127759 369.319539 
L 747.163636 372.780719 
L 747.163636 372.780719 
" clip-path="url(#pcd1de61b06)" style="fill: none; stroke: #ff7f0e; stroke-width: 4; stroke-linecap: square"/>
   </g>
   <g id="line2d_27"/>
   <g id="line2d_28"/>
   <g id="patch_3">
    <path d="M 108 512.64 
L 108 69.12 
" style="fill: none; stroke: #000000; stroke-width: 0.8; stroke-linejoin: miter; stroke-linecap: square"/>
   </g>
   <g id="patch_4">
    <path d="M 777.6 512.64 
L 777.6 69.12 
" style="fill: none; stroke: #000000; stroke-width: 0.8; stroke-linejoin: miter; stroke-linecap: square"/>
   </g>
   <g id="patch_5">
    <path d="M 108 512.64 
L 777.6 512.64 
" style="fill: none; stroke: #000000; stroke-width: 0.8; stroke-linejoin: miter; stroke-linecap: square"/>
   </g>
   <g id="patch_6">
    <path d="M 108 69.12 
L 777.6 69.12 
" style="fill: none; stroke: #000000; stroke-width: 0.8; stroke-linejoin: miter; stroke-linecap: square"/>
   </g>
   <g id="text_15">
    <!-- immunogenicity -->
    <g transform="translate(200.442188 56.641875) scale(0.6 -0.6)">
     <defs>
      <path id="DejaVuSans-69" d="M 603 3500 
L 1178 3500 
L 1178 0 
L 603 0 
L 603 3500 
z
M 603 4863 
L 1178 4863 
L 1178 4134 
L 603 4134 
L 603 4863 
z
" transform="scale(0.015625)"/>
      <path id="DejaVuSans-6d" d="M 3328 2828 
Q 3544 3216 3844 3400 
Q 4144 3584 4550 3584 
Q 5097 3584 5394 3201 
Q 5691 2819 5691 2113 
L 5691 0 
L 5113 0 
L 5113 2094 
Q 5113 2597 4934 2840 
Q 4756 3084 4391 3084 
Q 3944 3084 3684 2787 
Q 3425 2491 3425 1978 
L 3425 0 
L 2847 0 
L 2847 2094 
Q 2847 2600 2669 2842 
Q 2491 3084 2119 3084 
Q 1678 3084 1418 2786 
Q 1159 2488 1159 1978 
L 1159 0 
L 581 0 
L 581 3500 
L 1159 3500 
L 1159 2956 
Q 1356 3278 1631 3431 
Q 1906 3584 2284 3584 
Q 2666 3584 2933 3390 
Q 3200 3197 3328 2828 
z
" transform="scale(0.015625)"/>
      <path id="DejaVuSans-75" d="M 544 1381 
L 544 3500 
L 1119 3500 
L 1119 1403 
Q 1119 906 1312 657 
Q 1506 409 1894 409 
Q 2359 409 2629 706 
Q 2900 1003 2900 1516 
L 2900 3500 
L 3475 3500 
L 3475 0 
L 2900 0 
L 2900 538 
Q 2691 219 2414 64 
Q 2138 -91 1772 -91 
Q 1169 -91 856 284 
Q 544 659 544 1381 
z
M 1991 3584 
L 1991 3584 
z
" transform="scale(0.015625)"/>
      <path id="DejaVuSans-6e" d="M 3513 2113 
L 3513 0 
L 2938 0 
L 2938 2094 
Q 2938 2591 2744 2837 
Q 2550 3084 2163 3084 
Q 1697 3084 1428 2787 
Q 1159 2491 1159 1978 
L 1159 0 
L 581 0 
L 581 3500 
L 1159 3500 
L 1159 2956 
Q 1366 3272 1645 3428 
Q 1925 3584 2291 3584 
Q 2894 3584 3203 3211 
Q 3513 2838 3513 2113 
z
" transform="scale(0.015625)"/>
      <path id="DejaVuSans-6f" d="M 1959 3097 
Q 1497 3097 1228 2736 
Q 959 2375 959 1747 
Q 959 1119 1226 758 
Q 1494 397 1959 397 
Q 2419 397 2687 759 
Q 2956 1122 2956 1747 
Q 2956 2369 2687 2733 
Q 2419 3097 1959 3097 
z
M 1959 3584 
Q 2709 3584 3137 3096 
Q 3566 2609 3566 1747 
Q 3566 888 3137 398 
Q 2709 -91 1959 -91 
Q 1206 -91 779 398 
Q 353 888 353 1747 
Q 353 2609 779 3096 
Q 1206 3584 1959 3584 
z
" transform="scale(0.015625)"/>
      <path id="DejaVuSans-67" d="M 2906 1791 
Q 2906 2416 2648 2759 
Q 2391 3103 1925 3103 
Q 1463 3103 1205 2759 
Q 947 2416 947 1791 
Q 947 1169 1205 825 
Q 1463 481 1925 481 
Q 2391 481 2648 825 
Q 2906 1169 2906 1791 
z
M 3481 434 
Q 3481 -459 3084 -895 
Q 2688 -1331 1869 -1331 
Q 1566 -1331 1297 -1286 
Q 1028 -1241 775 -1147 
L 775 -588 
Q 1028 -725 1275 -790 
Q 1522 -856 1778 -856 
Q 2344 -856 2625 -561 
Q 2906 -266 2906 331 
L 2906 616 
Q 2728 306 2450 153 
Q 2172 0 1784 0 
Q 1141 0 747 490 
Q 353 981 353 1791 
Q 353 2603 747 3093 
Q 1141 3584 1784 3584 
Q 2172 3584 2450 3431 
Q 2728 3278 2906 2969 
L 2906 3500 
L 3481 3500 
L 3481 434 
z
" transform="scale(0.015625)"/>
      <path id="DejaVuSans-63" d="M 3122 3366 
L 3122 2828 
Q 2878 2963 2633 3030 
Q 2388 3097 2138 3097 
Q 1578 3097 1268 2742 
Q 959 2388 959 1747 
Q 959 1106 1268 751 
Q 1578 397 2138 397 
Q 2388 397 2633 464 
Q 2878 531 3122 666 
L 3122 134 
Q 2881 22 2623 -34 
Q 2366 -91 2075 -91 
Q 1284 -91 818 406 
Q 353 903 353 1747 
Q 353 2603 823 3093 
Q 1294 3584 2113 3584 
Q 2378 3584 2631 3529 
Q 2884 3475 3122 3366 
z
" transform="scale(0.015625)"/>
      <path id="DejaVuSans-79" d="M 2059 -325 
Q 1816 -950 1584 -1140 
Q 1353 -1331 966 -1331 
L 506 -1331 
L 506 -850 
L 844 -850 
Q 1081 -850 1212 -737 
Q 1344 -625 1503 -206 
L 1606 56 
L 191 3500 
L 800 3500 
L 1894 763 
L 2988 3500 
L 3597 3500 
L 2059 -325 
z
" transform="scale(0.015625)"/>
     </defs>
     <use xlink:href="#DejaVuSans-69"/>
     <use xlink:href="#DejaVuSans-6d" transform="translate(27.783203 0)"/>
     <use xlink:href="#DejaVuSans-6d" transform="translate(125.195312 0)"/>
     <use xlink:href="#DejaVuSans-75" transform="translate(222.607422 0)"/>
     <use xlink:href="#DejaVuSans-6e" transform="translate(285.986328 0)"/>
     <use xlink:href="#DejaVuSans-6f" transform="translate(349.365234 0)"/>
     <use xlink:href="#DejaVuSans-67" transform="translate(410.546875 0)"/>
     <use xlink:href="#DejaVuSans-65" transform="translate(474.023438 0)"/>
     <use xlink:href="#DejaVuSans-6e" transform="translate(535.546875 0)"/>
     <use xlink:href="#DejaVuSans-69" transform="translate(598.925781 0)"/>
     <use xlink:href="#DejaVuSans-63" transform="translate(626.708984 0)"/>
     <use xlink:href="#DejaVuSans-69" transform="translate(681.689453 0)"/>
     <use xlink:href="#DejaVuSans-74" transform="translate(709.472656 0)"/>
     <use xlink:href="#DejaVuSans-79" transform="translate(748.681641 0)"/>
    </g>
   </g>
   <g id="legend_1">
    <g id="patch_7">
     <path d="M 483.93125 355.5925 
L 749.6 355.5925 
Q 757.6 355.5925 757.6 347.5925 
L 757.6 234.1675 
Q 757.6 226.1675 749.6 226.1675 
L 483.93125 226.1675 
Q 475.93125 226.1675 475.93125 234.1675 
L 475.93125 347.5925 
Q 475.93125 355.5925 483.93125 355.5925 
z
" style="fill: #ffffff; opacity: 0.8; stroke: #cccccc; stroke-linejoin: miter"/>
    </g>
    <g id="line2d_29">
     <path d="M 491.93125 258.56125 
L 531.93125 258.56125 
L 571.93125 258.56125 
" style="fill: none; stroke: #1f77b4; stroke-width: 4; stroke-linecap: square"/>
    </g>
    <g id="text_16">
     <!-- fedavg -->
     <g transform="translate(603.93125 272.56125) scale(0.4 -0.4)">
      <defs>
       <path id="DejaVuSans-66" d="M 2375 4863 
L 2375 4384 
L 1825 4384 
Q 1516 4384 1395 4259 
Q 1275 4134 1275 3809 
L 1275 3500 
L 2222 3500 
L 2222 3053 
L 1275 3053 
L 1275 0 
L 697 0 
L 697 3053 
L 147 3053 
L 147 3500 
L 697 3500 
L 697 3744 
Q 697 4328 969 4595 
Q 1241 4863 1831 4863 
L 2375 4863 
z
" transform="scale(0.015625)"/>
       <path id="DejaVuSans-64" d="M 2906 2969 
L 2906 4863 
L 3481 4863 
L 3481 0 
L 2906 0 
L 2906 525 
Q 2725 213 2448 61 
Q 2172 -91 1784 -91 
Q 1150 -91 751 415 
Q 353 922 353 1747 
Q 353 2572 751 3078 
Q 1150 3584 1784 3584 
Q 2172 3584 2448 3432 
Q 2725 3281 2906 2969 
z
M 947 1747 
Q 947 1113 1208 752 
Q 1469 391 1925 391 
Q 2381 391 2643 752 
Q 2906 1113 2906 1747 
Q 2906 2381 2643 2742 
Q 2381 3103 1925 3103 
Q 1469 3103 1208 2742 
Q 947 2381 947 1747 
z
" transform="scale(0.015625)"/>
       <path id="DejaVuSans-61" d="M 2194 1759 
Q 1497 1759 1228 1600 
Q 959 1441 959 1056 
Q 959 750 1161 570 
Q 1363 391 1709 391 
Q 2188 391 2477 730 
Q 2766 1069 2766 1631 
L 2766 1759 
L 2194 1759 
z
M 3341 1997 
L 3341 0 
L 2766 0 
L 2766 531 
Q 2569 213 2275 61 
Q 1981 -91 1556 -91 
Q 1019 -91 701 211 
Q 384 513 384 1019 
Q 384 1609 779 1909 
Q 1175 2209 1959 2209 
L 2766 2209 
L 2766 2266 
Q 2766 2663 2505 2880 
Q 2244 3097 1772 3097 
Q 1472 3097 1187 3025 
Q 903 2953 641 2809 
L 641 3341 
Q 956 3463 1253 3523 
Q 1550 3584 1831 3584 
Q 2591 3584 2966 3190 
Q 3341 2797 3341 1997 
z
" transform="scale(0.015625)"/>
       <path id="DejaVuSans-76" d="M 191 3500 
L 800 3500 
L 1894 563 
L 2988 3500 
L 3597 3500 
L 2284 0 
L 1503 0 
L 191 3500 
z
" transform="scale(0.015625)"/>
      </defs>
      <use xlink:href="#DejaVuSans-66"/>
      <use xlink:href="#DejaVuSans-65" transform="translate(35.205078 0)"/>
      <use xlink:href="#DejaVuSans-64" transform="translate(96.728516 0)"/>
      <use xlink:href="#DejaVuSans-61" transform="translate(160.205078 0)"/>
      <use xlink:href="#DejaVuSans-76" transform="translate(221.484375 0)"/>
      <use xlink:href="#DejaVuSans-67" transform="translate(280.664062 0)"/>
     </g>
    </g>
    <g id="line2d_30">
     <path d="M 491.93125 317.27375 
L 531.93125 317.27375 
L 571.93125 317.27375 
" style="fill: none; stroke: #ff7f0e; stroke-width: 4; stroke-linecap: square"/>
    </g>
    <g id="text_17">
     <!-- local -->
     <g transform="translate(603.93125 331.27375) scale(0.4 -0.4)">
      <defs>
       <path id="DejaVuSans-6c" d="M 603 4863 
L 1178 4863 
L 1178 0 
L 603 0 
L 603 4863 
z
" transform="scale(0.015625)"/>
      </defs>
      <use xlink:href="#DejaVuSans-6c"/>
      <use xlink:href="#DejaVuSans-6f" transform="translate(27.783203 0)"/>
      <use xlink:href="#DejaVuSans-63" transform="translate(88.964844 0)"/>
      <use xlink:href="#DejaVuSans-61" transform="translate(143.945312 0)"/>
      <use xlink:href="#DejaVuSans-6c" transform="translate(205.224609 0)"/>
     </g>
    </g>
   </g>
  </g>
 </g>
 <defs>
  <clipPath id="pcd1de61b06">
   <rect x="108" y="69.12" width="669.6" height="443.52"/>
  </clipPath>
 </defs>
</svg>
