<?xml version="1.0" encoding="utf-8" standalone="no"?>
<!DOCTYPE svg PUBLIC "-//W3C//DTD SVG 1.1//EN"
  "http://www.w3.org/Graphics/SVG/1.1/DTD/svg11.dtd">
<svg xmlns:xlink="http://www.w3.org/1999/xlink" width="864pt" height="576pt" viewBox="0 0 864 576" xmlns="http://www.w3.org/2000/svg" version="1.1">
 <metadata>
  <rdf:RDF xmlns:dc="http://purl.org/dc/elements/1.1/" xmlns:cc="http://creativecommons.org/ns#" xmlns:rdf="http://www.w3.org/1999/02/22-rdf-syntax-ns#">
   <cc:Work>
    <dc:type rdf:resource="http://purl.org/dc/dcmitype/StillImage"/>
    <dc:date>2025-04-17T13:45:44.189077</dc:date>
    <dc:format>image/svg+xml</dc:format>
    <dc:creator>
     <cc:Agent>
      <dc:title>Matplotlib v3.10.1, https://matplotlib.org/</dc:title>
     </cc:Agent>
    </dc:creator>
   </cc:Work>
  </rdf:RDF>
 </metadata>
 <defs>
  <style type="text/css">*{stroke-linejoin: round; stroke-linecap: butt}</style>
 </defs>
 <g id="figure_1">
  <g id="patch_1">
   <path d="M 0 576 
L 864 576 
L 864 0 
L 0 0 
z
" style="fill: #ffffff"/>
  </g>
  <g id="axes_1">
   <g id="patch_2">
    <path d="M 108 512.64 
L 777.6 512.64 
L 777.6 69.12 
L 108 69.12 
z
" style="fill: #ffffff"/>
   </g>
   <g id="FillBetweenPolyCollection_1"/>
   <g id="FillBetweenPolyCollection_2"/>
   <g id="matplotlib.axis_1">
    <g id="xtick_1">
     <g id="line2d_1">
      <path d="M 136.400486 512.64 
L 136.400486 69.12 
" clip-path="url(#p6fdf7a0f33)" style="fill: none; stroke: #b0b0b0; stroke-width: 0.8; stroke-linecap: square"/>
     </g>
     <g id="line2d_2">
      <defs>
       <path id="m0917b4c3d5" d="M 0 0 
L 0 3.5 
" style="stroke: #000000; stroke-width: 0.8"/>
      </defs>
      <g>
       <use xlink:href="#m0917b4c3d5" x="136.400486" y="512.64" style="stroke: #000000; stroke-width: 0.8"/>
      </g>
     </g>
     <g id="text_1">
      <!-- 0 -->
      <g transform="translate(126.856736 542.435313) scale(0.3 -0.3)">
       <defs>
        <path id="DejaVuSans-30" d="M 2034 4250 
Q 1547 4250 1301 3770 
Q 1056 3291 1056 2328 
Q 1056 1369 1301 889 
Q 1547 409 2034 409 
Q 2525 409 2770 889 
Q 3016 1369 3016 2328 
Q 3016 3291 2770 3770 
Q 2525 4250 2034 4250 
z
M 2034 4750 
Q 2819 4750 3233 4129 
Q 3647 3509 3647 2328 
Q 3647 1150 3233 529 
Q 2819 -91 2034 -91 
Q 1250 -91 836 529 
Q 422 1150 422 2328 
Q 422 3509 836 4129 
Q 1250 4750 2034 4750 
z
" transform="scale(0.015625)"/>
       </defs>
       <use xlink:href="#DejaVuSans-30"/>
      </g>
     </g>
    </g>
    <g id="xtick_2">
     <g id="line2d_3">
      <path d="M 221.228702 512.64 
L 221.228702 69.12 
" clip-path="url(#p6fdf7a0f33)" style="fill: none; stroke: #b0b0b0; stroke-width: 0.8; stroke-linecap: square"/>
     </g>
     <g id="line2d_4">
      <g>
       <use xlink:href="#m0917b4c3d5" x="221.228702" y="512.64" style="stroke: #000000; stroke-width: 0.8"/>
      </g>
     </g>
     <g id="text_2">
      <!-- 250 -->
      <g transform="translate(192.597452 542.435313) scale(0.3 -0.3)">
       <defs>
        <path id="DejaVuSans-32" d="M 1228 531 
L 3431 531 
L 3431 0 
L 469 0 
L 469 531 
Q 828 903 1448 1529 
Q 2069 2156 2228 2338 
Q 2531 2678 2651 2914 
Q 2772 3150 2772 3378 
Q 2772 3750 2511 3984 
Q 2250 4219 1831 4219 
Q 1534 4219 1204 4116 
Q 875 4013 500 3803 
L 500 4441 
Q 881 4594 1212 4672 
Q 1544 4750 1819 4750 
Q 2544 4750 2975 4387 
Q 3406 4025 3406 3419 
Q 3406 3131 3298 2873 
Q 3191 2616 2906 2266 
Q 2828 2175 2409 1742 
Q 1991 1309 1228 531 
z
" transform="scale(0.015625)"/>
        <path id="DejaVuSans-35" d="M 691 4666 
L 3169 4666 
L 3169 4134 
L 1269 4134 
L 1269 2991 
Q 1406 3038 1543 3061 
Q 1681 3084 1819 3084 
Q 2600 3084 3056 2656 
Q 3513 2228 3513 1497 
Q 3513 744 3044 326 
Q 2575 -91 1722 -91 
Q 1428 -91 1123 -41 
Q 819 9 494 109 
L 494 744 
Q 775 591 1075 516 
Q 1375 441 1709 441 
Q 2250 441 2565 725 
Q 2881 1009 2881 1497 
Q 2881 1984 2565 2268 
Q 2250 2553 1709 2553 
Q 1456 2553 1204 2497 
Q 953 2441 691 2322 
L 691 4666 
z
" transform="scale(0.015625)"/>
       </defs>
       <use xlink:href="#DejaVuSans-32"/>
       <use xlink:href="#DejaVuSans-35" transform="translate(63.623047 0)"/>
       <use xlink:href="#DejaVuSans-30" transform="translate(127.246094 0)"/>
      </g>
     </g>
    </g>
    <g id="xtick_3">
     <g id="line2d_5">
      <path d="M 306.056917 512.64 
L 306.056917 69.12 
" clip-path="url(#p6fdf7a0f33)" style="fill: none; stroke: #b0b0b0; stroke-width: 0.8; stroke-linecap: square"/>
     </g>
     <g id="line2d_6">
      <g>
       <use xlink:href="#m0917b4c3d5" x="306.056917" y="512.64" style="stroke: #000000; stroke-width: 0.8"/>
      </g>
     </g>
     <g id="text_3">
      <!-- 500 -->
      <g transform="translate(277.425667 542.435313) scale(0.3 -0.3)">
       <use xlink:href="#DejaVuSans-35"/>
       <use xlink:href="#DejaVuSans-30" transform="translate(63.623047 0)"/>
       <use xlink:href="#DejaVuSans-30" transform="translate(127.246094 0)"/>
      </g>
     </g>
    </g>
    <g id="xtick_4">
     <g id="line2d_7">
      <path d="M 390.885132 512.64 
L 390.885132 69.12 
" clip-path="url(#p6fdf7a0f33)" style="fill: none; stroke: #b0b0b0; stroke-width: 0.8; stroke-linecap: square"/>
     </g>
     <g id="line2d_8">
      <g>
       <use xlink:href="#m0917b4c3d5" x="390.885132" y="512.64" style="stroke: #000000; stroke-width: 0.8"/>
      </g>
     </g>
     <g id="text_4">
      <!-- 750 -->
      <g transform="translate(362.253882 542.435313) scale(0.3 -0.3)">
       <defs>
        <path id="DejaVuSans-37" d="M 525 4666 
L 3525 4666 
L 3525 4397 
L 1831 0 
L 1172 0 
L 2766 4134 
L 525 4134 
L 525 4666 
z
" transform="scale(0.015625)"/>
       </defs>
       <use xlink:href="#DejaVuSans-37"/>
       <use xlink:href="#DejaVuSans-35" transform="translate(63.623047 0)"/>
       <use xlink:href="#DejaVuSans-30" transform="translate(127.246094 0)"/>
      </g>
     </g>
    </g>
    <g id="xtick_5">
     <g id="line2d_9">
      <path d="M 475.713348 512.64 
L 475.713348 69.12 
" clip-path="url(#p6fdf7a0f33)" style="fill: none; stroke: #b0b0b0; stroke-width: 0.8; stroke-linecap: square"/>
     </g>
     <g id="line2d_10">
      <g>
       <use xlink:href="#m0917b4c3d5" x="475.713348" y="512.64" style="stroke: #000000; stroke-width: 0.8"/>
      </g>
     </g>
     <g id="text_5">
      <!-- 1000 -->
      <g transform="translate(437.538348 542.435313) scale(0.3 -0.3)">
       <defs>
        <path id="DejaVuSans-31" d="M 794 531 
L 1825 531 
L 1825 4091 
L 703 3866 
L 703 4441 
L 1819 4666 
L 2450 4666 
L 2450 531 
L 3481 531 
L 3481 0 
L 794 0 
L 794 531 
z
" transform="scale(0.015625)"/>
       </defs>
       <use xlink:href="#DejaVuSans-31"/>
       <use xlink:href="#DejaVuSans-30" transform="translate(63.623047 0)"/>
       <use xlink:href="#DejaVuSans-30" transform="translate(127.246094 0)"/>
       <use xlink:href="#DejaVuSans-30" transform="translate(190.869141 0)"/>
      </g>
     </g>
    </g>
    <g id="xtick_6">
     <g id="line2d_11">
      <path d="M 560.541563 512.64 
L 560.541563 69.12 
" clip-path="url(#p6fdf7a0f33)" style="fill: none; stroke: #b0b0b0; stroke-width: 0.8; stroke-linecap: square"/>
     </g>
     <g id="line2d_12">
      <g>
       <use xlink:href="#m0917b4c3d5" x="560.541563" y="512.64" style="stroke: #000000; stroke-width: 0.8"/>
      </g>
     </g>
     <g id="text_6">
      <!-- 1250 -->
      <g transform="translate(522.366563 542.435313) scale(0.3 -0.3)">
       <use xlink:href="#DejaVuSans-31"/>
       <use xlink:href="#DejaVuSans-32" transform="translate(63.623047 0)"/>
       <use xlink:href="#DejaVuSans-35" transform="translate(127.246094 0)"/>
       <use xlink:href="#DejaVuSans-30" transform="translate(190.869141 0)"/>
      </g>
     </g>
    </g>
    <g id="xtick_7">
     <g id="line2d_13">
      <path d="M 645.369778 512.64 
L 645.369778 69.12 
" clip-path="url(#p6fdf7a0f33)" style="fill: none; stroke: #b0b0b0; stroke-width: 0.8; stroke-linecap: square"/>
     </g>
     <g id="line2d_14">
      <g>
       <use xlink:href="#m0917b4c3d5" x="645.369778" y="512.64" style="stroke: #000000; stroke-width: 0.8"/>
      </g>
     </g>
     <g id="text_7">
      <!-- 1500 -->
      <g transform="translate(607.194778 542.435313) scale(0.3 -0.3)">
       <use xlink:href="#DejaVuSans-31"/>
       <use xlink:href="#DejaVuSans-35" transform="translate(63.623047 0)"/>
       <use xlink:href="#DejaVuSans-30" transform="translate(127.246094 0)"/>
       <use xlink:href="#DejaVuSans-30" transform="translate(190.869141 0)"/>
      </g>
     </g>
    </g>
    <g id="xtick_8">
     <g id="line2d_15">
      <path d="M 730.197993 512.64 
L 730.197993 69.12 
" clip-path="url(#p6fdf7a0f33)" style="fill: none; stroke: #b0b0b0; stroke-width: 0.8; stroke-linecap: square"/>
     </g>
     <g id="line2d_16">
      <g>
       <use xlink:href="#m0917b4c3d5" x="730.197993" y="512.64" style="stroke: #000000; stroke-width: 0.8"/>
      </g>
     </g>
     <g id="text_8">
      <!-- 1750 -->
      <g transform="translate(692.022993 542.435313) scale(0.3 -0.3)">
       <use xlink:href="#DejaVuSans-31"/>
       <use xlink:href="#DejaVuSans-37" transform="translate(63.623047 0)"/>
       <use xlink:href="#DejaVuSans-35" transform="translate(127.246094 0)"/>
       <use xlink:href="#DejaVuSans-30" transform="translate(190.869141 0)"/>
      </g>
     </g>
    </g>
    <g id="text_9">
     <!-- Steps -->
     <g transform="translate(386.840625 583.068125) scale(0.4 -0.4)">
      <defs>
       <path id="DejaVuSans-53" d="M 3425 4513 
L 3425 3897 
Q 3066 4069 2747 4153 
Q 2428 4238 2131 4238 
Q 1616 4238 1336 4038 
Q 1056 3838 1056 3469 
Q 1056 3159 1242 3001 
Q 1428 2844 1947 2747 
L 2328 2669 
Q 3034 2534 3370 2195 
Q 3706 1856 3706 1288 
Q 3706 609 3251 259 
Q 2797 -91 1919 -91 
Q 1588 -91 1214 -16 
Q 841 59 441 206 
L 441 856 
Q 825 641 1194 531 
Q 1563 422 1919 422 
Q 2459 422 2753 634 
Q 3047 847 3047 1241 
Q 3047 1584 2836 1778 
Q 2625 1972 2144 2069 
L 1759 2144 
Q 1053 2284 737 2584 
Q 422 2884 422 3419 
Q 422 4038 858 4394 
Q 1294 4750 2059 4750 
Q 2388 4750 2728 4690 
Q 3069 4631 3425 4513 
z
" transform="scale(0.015625)"/>
       <path id="DejaVuSans-74" d="M 1172 4494 
L 1172 3500 
L 2356 3500 
L 2356 3053 
L 1172 3053 
L 1172 1153 
Q 1172 725 1289 603 
Q 1406 481 1766 481 
L 2356 481 
L 2356 0 
L 1766 0 
Q 1100 0 847 248 
Q 594 497 594 1153 
L 594 3053 
L 172 3053 
L 172 3500 
L 594 3500 
L 594 4494 
L 1172 4494 
z
" transform="scale(0.015625)"/>
       <path id="DejaVuSans-65" d="M 3597 1894 
L 3597 1613 
L 953 1613 
Q 991 1019 1311 708 
Q 1631 397 2203 397 
Q 2534 397 2845 478 
Q 3156 559 3463 722 
L 3463 178 
Q 3153 47 2828 -22 
Q 2503 -91 2169 -91 
Q 1331 -91 842 396 
Q 353 884 353 1716 
Q 353 2575 817 3079 
Q 1281 3584 2069 3584 
Q 2775 3584 3186 3129 
Q 3597 2675 3597 1894 
z
M 3022 2063 
Q 3016 2534 2758 2815 
Q 2500 3097 2075 3097 
Q 1594 3097 1305 2825 
Q 1016 2553 972 2059 
L 3022 2063 
z
" transform="scale(0.015625)"/>
       <path id="DejaVuSans-70" d="M 1159 525 
L 1159 -1331 
L 581 -1331 
L 581 3500 
L 1159 3500 
L 1159 2969 
Q 1341 3281 1617 3432 
Q 1894 3584 2278 3584 
Q 2916 3584 3314 3078 
Q 3713 2572 3713 1747 
Q 3713 922 3314 415 
Q 2916 -91 2278 -91 
Q 1894 -91 1617 61 
Q 1341 213 1159 525 
z
M 3116 1747 
Q 3116 2381 2855 2742 
Q 2594 3103 2138 3103 
Q 1681 3103 1420 2742 
Q 1159 2381 1159 1747 
Q 1159 1113 1420 752 
Q 1681 391 2138 391 
Q 2594 391 2855 752 
Q 3116 1113 3116 1747 
z
" transform="scale(0.015625)"/>
       <path id="DejaVuSans-73" d="M 2834 3397 
L 2834 2853 
Q 2591 2978 2328 3040 
Q 2066 3103 1784 3103 
Q 1356 3103 1142 2972 
Q 928 2841 928 2578 
Q 928 2378 1081 2264 
Q 1234 2150 1697 2047 
L 1894 2003 
Q 2506 1872 2764 1633 
Q 3022 1394 3022 966 
Q 3022 478 2636 193 
Q 2250 -91 1575 -91 
Q 1294 -91 989 -36 
Q 684 19 347 128 
L 347 722 
Q 666 556 975 473 
Q 1284 391 1588 391 
Q 1994 391 2212 530 
Q 2431 669 2431 922 
Q 2431 1156 2273 1281 
Q 2116 1406 1581 1522 
L 1381 1569 
Q 847 1681 609 1914 
Q 372 2147 372 2553 
Q 372 3047 722 3315 
Q 1072 3584 1716 3584 
Q 2034 3584 2315 3537 
Q 2597 3491 2834 3397 
z
" transform="scale(0.015625)"/>
      </defs>
      <use xlink:href="#DejaVuSans-53"/>
      <use xlink:href="#DejaVuSans-74" transform="translate(63.476562 0)"/>
      <use xlink:href="#DejaVuSans-65" transform="translate(102.685547 0)"/>
      <use xlink:href="#DejaVuSans-70" transform="translate(164.208984 0)"/>
      <use xlink:href="#DejaVuSans-73" transform="translate(227.685547 0)"/>
     </g>
    </g>
   </g>
   <g id="matplotlib.axis_2">
    <g id="ytick_1">
     <g id="line2d_17">
      <path d="M 108 473.779451 
L 777.6 473.779451 
" clip-path="url(#p6fdf7a0f33)" style="fill: none; stroke: #b0b0b0; stroke-width: 0.8; stroke-linecap: square"/>
     </g>
     <g id="line2d_18">
      <defs>
       <path id="m098669617d" d="M 0 0 
L -3.5 0 
" style="stroke: #000000; stroke-width: 0.8"/>
      </defs>
      <g>
       <use xlink:href="#m098669617d" x="108" y="473.779451" style="stroke: #000000; stroke-width: 0.8"/>
      </g>
     </g>
     <g id="text_10">
      <!-- 4.2 -->
      <g transform="translate(53.290625 485.177108) scale(0.3 -0.3)">
       <defs>
        <path id="DejaVuSans-34" d="M 2419 4116 
L 825 1625 
L 2419 1625 
L 2419 4116 
z
M 2253 4666 
L 3047 4666 
L 3047 1625 
L 3713 1625 
L 3713 1100 
L 3047 1100 
L 3047 0 
L 2419 0 
L 2419 1100 
L 313 1100 
L 313 1709 
L 2253 4666 
z
" transform="scale(0.015625)"/>
        <path id="DejaVuSans-2e" d="M 684 794 
L 1344 794 
L 1344 0 
L 684 0 
L 684 794 
z
" transform="scale(0.015625)"/>
       </defs>
       <use xlink:href="#DejaVuSans-34"/>
       <use xlink:href="#DejaVuSans-2e" transform="translate(63.623047 0)"/>
       <use xlink:href="#DejaVuSans-32" transform="translate(95.410156 0)"/>
      </g>
     </g>
    </g>
    <g id="ytick_2">
     <g id="line2d_19">
      <path d="M 108 421.589966 
L 777.6 421.589966 
" clip-path="url(#p6fdf7a0f33)" style="fill: none; stroke: #b0b0b0; stroke-width: 0.8; stroke-linecap: square"/>
     </g>
     <g id="line2d_20">
      <g>
       <use xlink:href="#m098669617d" x="108" y="421.589966" style="stroke: #000000; stroke-width: 0.8"/>
      </g>
     </g>
     <g id="text_11">
      <!-- 4.4 -->
      <g transform="translate(53.290625 432.987623) scale(0.3 -0.3)">
       <use xlink:href="#DejaVuSans-34"/>
       <use xlink:href="#DejaVuSans-2e" transform="translate(63.623047 0)"/>
       <use xlink:href="#DejaVuSans-34" transform="translate(95.410156 0)"/>
      </g>
     </g>
    </g>
    <g id="ytick_3">
     <g id="line2d_21">
      <path d="M 108 369.400482 
L 777.6 369.400482 
" clip-path="url(#p6fdf7a0f33)" style="fill: none; stroke: #b0b0b0; stroke-width: 0.8; stroke-linecap: square"/>
     </g>
     <g id="line2d_22">
      <g>
       <use xlink:href="#m098669617d" x="108" y="369.400482" style="stroke: #000000; stroke-width: 0.8"/>
      </g>
     </g>
     <g id="text_12">
      <!-- 4.6 -->
      <g transform="translate(53.290625 380.798138) scale(0.3 -0.3)">
       <defs>
        <path id="DejaVuSans-36" d="M 2113 2584 
Q 1688 2584 1439 2293 
Q 1191 2003 1191 1497 
Q 1191 994 1439 701 
Q 1688 409 2113 409 
Q 2538 409 2786 701 
Q 3034 994 3034 1497 
Q 3034 2003 2786 2293 
Q 2538 2584 2113 2584 
z
M 3366 4563 
L 3366 3988 
Q 3128 4100 2886 4159 
Q 2644 4219 2406 4219 
Q 1781 4219 1451 3797 
Q 1122 3375 1075 2522 
Q 1259 2794 1537 2939 
Q 1816 3084 2150 3084 
Q 2853 3084 3261 2657 
Q 3669 2231 3669 1497 
Q 3669 778 3244 343 
Q 2819 -91 2113 -91 
Q 1303 -91 875 529 
Q 447 1150 447 2328 
Q 447 3434 972 4092 
Q 1497 4750 2381 4750 
Q 2619 4750 2861 4703 
Q 3103 4656 3366 4563 
z
" transform="scale(0.015625)"/>
       </defs>
       <use xlink:href="#DejaVuSans-34"/>
       <use xlink:href="#DejaVuSans-2e" transform="translate(63.623047 0)"/>
       <use xlink:href="#DejaVuSans-36" transform="translate(95.410156 0)"/>
      </g>
     </g>
    </g>
    <g id="ytick_4">
     <g id="line2d_23">
      <path d="M 108 317.210997 
L 777.6 317.210997 
" clip-path="url(#p6fdf7a0f33)" style="fill: none; stroke: #b0b0b0; stroke-width: 0.8; stroke-linecap: square"/>
     </g>
     <g id="line2d_24">
      <g>
       <use xlink:href="#m098669617d" x="108" y="317.210997" style="stroke: #000000; stroke-width: 0.8"/>
      </g>
     </g>
     <g id="text_13">
      <!-- 4.8 -->
      <g transform="translate(53.290625 328.608653) scale(0.3 -0.3)">
       <defs>
        <path id="DejaVuSans-38" d="M 2034 2216 
Q 1584 2216 1326 1975 
Q 1069 1734 1069 1313 
Q 1069 891 1326 650 
Q 1584 409 2034 409 
Q 2484 409 2743 651 
Q 3003 894 3003 1313 
Q 3003 1734 2745 1975 
Q 2488 2216 2034 2216 
z
M 1403 2484 
Q 997 2584 770 2862 
Q 544 3141 544 3541 
Q 544 4100 942 4425 
Q 1341 4750 2034 4750 
Q 2731 4750 3128 4425 
Q 3525 4100 3525 3541 
Q 3525 3141 3298 2862 
Q 3072 2584 2669 2484 
Q 3125 2378 3379 2068 
Q 3634 1759 3634 1313 
Q 3634 634 3220 271 
Q 2806 -91 2034 -91 
Q 1263 -91 848 271 
Q 434 634 434 1313 
Q 434 1759 690 2068 
Q 947 2378 1403 2484 
z
M 1172 3481 
Q 1172 3119 1398 2916 
Q 1625 2713 2034 2713 
Q 2441 2713 2670 2916 
Q 2900 3119 2900 3481 
Q 2900 3844 2670 4047 
Q 2441 4250 2034 4250 
Q 1625 4250 1398 4047 
Q 1172 3844 1172 3481 
z
" transform="scale(0.015625)"/>
       </defs>
       <use xlink:href="#DejaVuSans-34"/>
       <use xlink:href="#DejaVuSans-2e" transform="translate(63.623047 0)"/>
       <use xlink:href="#DejaVuSans-38" transform="translate(95.410156 0)"/>
      </g>
     </g>
    </g>
    <g id="ytick_5">
     <g id="line2d_25">
      <path d="M 108 265.021512 
L 777.6 265.021512 
" clip-path="url(#p6fdf7a0f33)" style="fill: none; stroke: #b0b0b0; stroke-width: 0.8; stroke-linecap: square"/>
     </g>
     <g id="line2d_26">
      <g>
       <use xlink:href="#m098669617d" x="108" y="265.021512" style="stroke: #000000; stroke-width: 0.8"/>
      </g>
     </g>
     <g id="text_14">
      <!-- 5.0 -->
      <g transform="translate(53.290625 276.419168) scale(0.3 -0.3)">
       <use xlink:href="#DejaVuSans-35"/>
       <use xlink:href="#DejaVuSans-2e" transform="translate(63.623047 0)"/>
       <use xlink:href="#DejaVuSans-30" transform="translate(95.410156 0)"/>
      </g>
     </g>
    </g>
    <g id="ytick_6">
     <g id="line2d_27">
      <path d="M 108 212.832027 
L 777.6 212.832027 
" clip-path="url(#p6fdf7a0f33)" style="fill: none; stroke: #b0b0b0; stroke-width: 0.8; stroke-linecap: square"/>
     </g>
     <g id="line2d_28">
      <g>
       <use xlink:href="#m098669617d" x="108" y="212.832027" style="stroke: #000000; stroke-width: 0.8"/>
      </g>
     </g>
     <g id="text_15">
      <!-- 5.2 -->
      <g transform="translate(53.290625 224.229683) scale(0.3 -0.3)">
       <use xlink:href="#DejaVuSans-35"/>
       <use xlink:href="#DejaVuSans-2e" transform="translate(63.623047 0)"/>
       <use xlink:href="#DejaVuSans-32" transform="translate(95.410156 0)"/>
      </g>
     </g>
    </g>
    <g id="ytick_7">
     <g id="line2d_29">
      <path d="M 108 160.642542 
L 777.6 160.642542 
" clip-path="url(#p6fdf7a0f33)" style="fill: none; stroke: #b0b0b0; stroke-width: 0.8; stroke-linecap: square"/>
     </g>
     <g id="line2d_30">
      <g>
       <use xlink:href="#m098669617d" x="108" y="160.642542" style="stroke: #000000; stroke-width: 0.8"/>
      </g>
     </g>
     <g id="text_16">
      <!-- 5.4 -->
      <g transform="translate(53.290625 172.040198) scale(0.3 -0.3)">
       <use xlink:href="#DejaVuSans-35"/>
       <use xlink:href="#DejaVuSans-2e" transform="translate(63.623047 0)"/>
       <use xlink:href="#DejaVuSans-34" transform="translate(95.410156 0)"/>
      </g>
     </g>
    </g>
    <g id="ytick_8">
     <g id="line2d_31">
      <path d="M 108 108.453057 
L 777.6 108.453057 
" clip-path="url(#p6fdf7a0f33)" style="fill: none; stroke: #b0b0b0; stroke-width: 0.8; stroke-linecap: square"/>
     </g>
     <g id="line2d_32">
      <g>
       <use xlink:href="#m098669617d" x="108" y="108.453057" style="stroke: #000000; stroke-width: 0.8"/>
      </g>
     </g>
     <g id="text_17">
      <!-- 5.6 -->
      <g transform="translate(53.290625 119.850713) scale(0.3 -0.3)">
       <use xlink:href="#DejaVuSans-35"/>
       <use xlink:href="#DejaVuSans-2e" transform="translate(63.623047 0)"/>
       <use xlink:href="#DejaVuSans-36" transform="translate(95.410156 0)"/>
      </g>
     </g>
    </g>
    <g id="text_18">
     <!-- RMSE -->
     <g transform="translate(40.971875 347.3675) rotate(-90) scale(0.4 -0.4)">
      <defs>
       <path id="DejaVuSans-52" d="M 2841 2188 
Q 3044 2119 3236 1894 
Q 3428 1669 3622 1275 
L 4263 0 
L 3584 0 
L 2988 1197 
Q 2756 1666 2539 1819 
Q 2322 1972 1947 1972 
L 1259 1972 
L 1259 0 
L 628 0 
L 628 4666 
L 2053 4666 
Q 2853 4666 3247 4331 
Q 3641 3997 3641 3322 
Q 3641 2881 3436 2590 
Q 3231 2300 2841 2188 
z
M 1259 4147 
L 1259 2491 
L 2053 2491 
Q 2509 2491 2742 2702 
Q 2975 2913 2975 3322 
Q 2975 3731 2742 3939 
Q 2509 4147 2053 4147 
L 1259 4147 
z
" transform="scale(0.015625)"/>
       <path id="DejaVuSans-4d" d="M 628 4666 
L 1569 4666 
L 2759 1491 
L 3956 4666 
L 4897 4666 
L 4897 0 
L 4281 0 
L 4281 4097 
L 3078 897 
L 2444 897 
L 1241 4097 
L 1241 0 
L 628 0 
L 628 4666 
z
" transform="scale(0.015625)"/>
       <path id="DejaVuSans-45" d="M 628 4666 
L 3578 4666 
L 3578 4134 
L 1259 4134 
L 1259 2753 
L 3481 2753 
L 3481 2222 
L 1259 2222 
L 1259 531 
L 3634 531 
L 3634 0 
L 628 0 
L 628 4666 
z
" transform="scale(0.015625)"/>
      </defs>
      <use xlink:href="#DejaVuSans-52"/>
      <use xlink:href="#DejaVuSans-4d" transform="translate(69.482422 0)"/>
      <use xlink:href="#DejaVuSans-53" transform="translate(155.761719 0)"/>
      <use xlink:href="#DejaVuSans-45" transform="translate(219.238281 0)"/>
     </g>
    </g>
   </g>
   <g id="line2d_33">
    <path d="M 138.436364 171.726193 
L 140.472241 356.424135 
L 142.508118 465.810045 
L 144.543995 492.48 
L 146.579872 479.537722 
L 148.615749 452.017292 
L 150.651627 431.386395 
L 152.687504 438.20687 
L 156.759258 469.640107 
L 158.795135 457.526903 
L 160.831012 450.400829 
L 162.86689 457.91674 
L 164.902767 453.505468 
L 166.938644 442.799311 
L 168.974521 438.903177 
L 171.010398 449.413357 
L 173.046275 452.464242 
L 175.082153 440.136521 
L 177.11803 446.609962 
L 179.153907 460.337514 
L 181.189784 448.393534 
L 183.225661 439.186876 
L 185.261538 443.35999 
L 187.297416 445.188232 
L 189.333293 445.77728 
L 191.36917 444.925063 
L 193.405047 451.451387 
L 195.440924 467.678229 
L 197.476801 454.937028 
L 199.512679 451.005556 
L 201.548556 445.414569 
L 203.584433 449.344797 
L 205.62031 439.294507 
L 207.656187 446.997684 
L 209.692064 441.447634 
L 211.727942 462.091721 
L 213.763819 458.00297 
L 215.799696 448.268482 
L 217.835573 448.416926 
L 219.87145 441.287618 
L 221.907327 460.175881 
L 223.943205 461.040541 
L 225.979082 448.24061 
L 228.014959 443.97492 
L 230.050836 445.661437 
L 232.086713 460.149502 
L 234.12259 457.378209 
L 236.158468 454.126246 
L 238.194345 442.31217 
L 240.230222 444.611874 
L 242.266099 458.761616 
L 244.301976 459.841041 
L 246.337853 440.005373 
L 248.373731 434.763907 
L 250.409608 450.097595 
L 252.445485 448.277068 
L 254.481362 459.58509 
L 256.517239 463.230001 
L 258.553116 445.956832 
L 260.588994 435.768177 
L 262.624871 439.292268 
L 264.660748 451.858147 
L 266.696625 444.055924 
L 268.732502 452.514761 
L 270.768379 446.251481 
L 272.804257 447.09026 
L 274.840134 448.190714 
L 276.876011 448.375989 
L 278.911888 449.471217 
L 280.947765 450.929157 
L 282.983642 459.915077 
L 287.055397 448.712944 
L 289.091274 446.599137 
L 291.127151 449.511656 
L 293.163028 449.345045 
L 295.198905 447.224768 
L 297.234783 452.968057 
L 299.27066 455.166725 
L 301.306537 457.989656 
L 303.342414 451.932307 
L 305.378291 433.275358 
L 307.414168 442.943525 
L 309.450046 459.508068 
L 311.485923 453.675438 
L 313.5218 450.661136 
L 315.557677 454.616001 
L 317.593554 445.050115 
L 319.629431 449.331607 
L 321.665309 445.230413 
L 323.701186 452.985228 
L 325.737063 458.389572 
L 327.77294 446.858323 
L 329.808817 446.682878 
L 331.844694 448.306557 
L 333.880572 449.188638 
L 335.916449 449.053507 
L 337.952326 436.976263 
L 339.988203 454.531015 
L 342.02408 462.259203 
L 344.059957 451.780752 
L 346.095835 451.599707 
L 348.131712 436.78265 
L 350.167589 443.505697 
L 352.203466 454.005425 
L 354.239343 438.728478 
L 356.27522 457.277546 
L 358.311098 462.724569 
L 360.346975 435.997252 
L 362.382852 438.768171 
L 364.418729 441.016486 
L 366.454606 431.042721 
L 368.490483 431.8596 
L 370.526361 443.602254 
L 372.562238 448.767569 
L 374.598115 444.804242 
L 376.633992 435.619111 
L 378.669869 441.760947 
L 380.705746 419.775387 
L 382.741624 438.100234 
L 384.777501 445.654344 
L 386.813378 442.397777 
L 388.849255 448.54907 
L 390.885132 452.635831 
L 392.921009 444.191676 
L 394.956887 443.19761 
L 399.028641 435.205259 
L 401.064518 440.397574 
L 403.100395 430.753422 
L 405.136272 428.608384 
L 407.17215 441.543196 
L 409.208027 448.563504 
L 411.243904 440.922169 
L 413.279781 441.706447 
L 415.315658 438.349715 
L 417.351535 433.349269 
L 419.387413 448.194571 
L 421.42329 448.748904 
L 423.459167 445.352603 
L 425.495044 436.663696 
L 427.530921 443.169986 
L 429.566798 447.182462 
L 431.602676 450.532351 
L 433.638553 434.204721 
L 435.67443 433.019407 
L 437.710307 433.03185 
L 439.746184 438.546189 
L 441.782061 450.499377 
L 443.817939 447.103947 
L 445.853816 441.837596 
L 447.889693 441.946098 
L 449.92557 440.191021 
L 451.961447 444.184584 
L 453.997324 455.183399 
L 456.033202 454.793561 
L 458.069079 453.543419 
L 460.104956 452.826083 
L 462.140833 442.047135 
L 464.17671 443.129298 
L 466.212587 439.057345 
L 468.248465 443.613204 
L 470.284342 437.800732 
L 472.320219 434.052171 
L 474.356096 440.834197 
L 476.391973 441.758583 
L 478.42785 437.017822 
L 480.463728 437.482193 
L 482.499605 446.360979 
L 484.535482 446.781675 
L 486.571359 445.557911 
L 488.607236 447.595692 
L 490.643113 444.71851 
L 492.678991 441.026192 
L 494.714868 429.982707 
L 496.750745 436.790489 
L 498.786622 437.318692 
L 500.822499 445.719794 
L 502.858376 443.249123 
L 504.894254 439.348136 
L 506.930131 440.584343 
L 508.966008 439.004089 
L 511.001885 438.555148 
L 513.037762 432.873824 
L 515.073639 440.895665 
L 517.109517 445.273217 
L 519.145394 445.44157 
L 521.181271 442.539751 
L 523.217148 436.326617 
L 525.253025 434.897545 
L 527.288902 437.705792 
L 531.360657 439.474806 
L 533.396534 439.115702 
L 535.432411 432.124635 
L 537.468288 425.788937 
L 539.504165 433.156404 
L 541.540043 439.249713 
L 543.57592 435.706336 
L 545.611797 438.111183 
L 547.647674 443.346676 
L 549.683551 451.544584 
L 551.719428 447.76952 
L 553.755306 444.689518 
L 555.791183 446.291174 
L 557.82706 443.139999 
L 559.862937 440.70815 
L 561.898814 441.676211 
L 563.934691 441.869077 
L 565.970569 441.570073 
L 568.006446 438.962156 
L 570.042323 437.051791 
L 572.0782 443.251736 
L 574.114077 443.926642 
L 576.149954 450.68092 
L 578.185832 450.774366 
L 580.221709 444.692256 
L 582.257586 441.630794 
L 584.293463 435.413056 
L 586.32934 434.177223 
L 588.365217 429.832023 
L 590.401095 428.664377 
L 594.472849 440.477831 
L 596.508726 442.40039 
L 598.544603 445.891133 
L 600.58048 445.268364 
L 602.616358 446.768859 
L 604.652235 448.646748 
L 606.688112 446.155422 
L 608.723989 442.223203 
L 610.759866 439.307946 
L 612.795743 439.209024 
L 614.831621 439.611429 
L 616.867498 439.630964 
L 618.903375 439.780653 
L 620.939252 441.464432 
L 622.975129 439.406991 
L 625.011006 440.053029 
L 627.046884 445.700134 
L 629.082761 440.570407 
L 631.118638 438.99961 
L 635.190392 445.655962 
L 637.226269 448.25915 
L 639.262147 445.969026 
L 641.298024 444.670854 
L 643.333901 443.704037 
L 645.369778 443.027266 
L 647.405655 441.149501 
L 649.441532 438.197413 
L 651.47741 438.260001 
L 653.513287 436.470084 
L 655.549164 436.241631 
L 657.585041 434.995471 
L 659.620918 435.966642 
L 661.656795 438.346853 
L 663.692673 439.932706 
L 665.72855 441.036644 
L 667.764427 440.804085 
L 669.800304 440.847884 
L 671.836181 441.033035 
L 673.872058 442.442572 
L 675.907936 442.899103 
L 677.943813 442.839128 
L 679.97969 441.796285 
L 682.015567 441.686787 
L 684.051444 439.328228 
L 686.087321 439.840504 
L 688.123199 441.94361 
L 690.159076 441.235855 
L 692.194953 441.291973 
L 694.23083 439.782271 
L 696.266707 439.838886 
L 700.338462 438.860746 
L 702.374339 439.234159 
L 704.410216 440.667088 
L 706.446093 441.574054 
L 708.48197 441.257008 
L 710.517847 441.149377 
L 712.553725 440.860203 
L 714.589602 441.312006 
L 716.625479 440.961115 
L 718.661356 439.922876 
L 720.697233 439.709231 
L 722.73311 440.080652 
L 724.768988 439.666054 
L 726.804865 439.470699 
L 728.840742 440.325903 
L 730.876619 440.40056 
L 734.948373 440.78455 
L 747.163636 441.061903 
L 747.163636 441.061903 
" clip-path="url(#p6fdf7a0f33)" style="fill: none; stroke: #1f77b4; stroke-width: 4; stroke-linecap: square"/>
   </g>
   <g id="line2d_34">
    <path d="M 138.436364 236.767073 
L 140.472241 401.246228 
L 142.508118 479.723744 
L 144.543995 491.021936 
L 146.579872 427.497726 
L 148.615749 441.698982 
L 150.651627 443.685995 
L 152.687504 451.93268 
L 154.723381 440.667959 
L 156.759258 442.906071 
L 158.795135 446.871264 
L 160.831012 443.917683 
L 162.86689 446.496109 
L 164.902767 447.208592 
L 166.938644 440.87165 
L 168.974521 459.558711 
L 171.010398 457.539719 
L 173.046275 440.704168 
L 175.082153 452.479921 
L 177.11803 463.592215 
L 179.153907 450.458689 
L 181.189784 444.29122 
L 183.225661 458.829057 
L 185.261538 444.946341 
L 187.297416 437.706539 
L 189.333293 454.673985 
L 191.36917 445.241612 
L 193.405047 454.781865 
L 195.440924 455.342793 
L 197.476801 440.887328 
L 199.512679 438.284762 
L 201.548556 452.942922 
L 203.584433 455.188376 
L 205.62031 444.53759 
L 207.656187 442.638175 
L 209.692064 455.969917 
L 211.727942 452.863412 
L 213.763819 462.12681 
L 215.799696 452.438237 
L 217.835573 441.536228 
L 219.87145 443.997815 
L 221.907327 442.33071 
L 223.943205 453.334377 
L 225.979082 453.885226 
L 228.014959 437.501479 
L 230.050836 445.779022 
L 232.086713 446.936963 
L 234.12259 457.682315 
L 236.158468 455.830058 
L 238.194345 439.367423 
L 240.230222 447.414274 
L 242.266099 454.163077 
L 244.301976 452.964946 
L 246.337853 445.599471 
L 248.373731 436.050508 
L 250.409608 438.173274 
L 252.445485 464.199306 
L 254.481362 462.1125 
L 256.517239 459.25672 
L 258.553116 446.755794 
L 260.588994 440.375301 
L 262.624871 464.05783 
L 264.660748 449.502075 
L 266.696625 436.313551 
L 268.732502 439.686709 
L 270.768379 441.263976 
L 272.804257 449.201578 
L 274.840134 443.031994 
L 276.876011 448.668025 
L 278.911888 451.821067 
L 280.947765 445.274959 
L 282.983642 449.763004 
L 285.01952 443.894539 
L 287.055397 454.815212 
L 289.091274 460.324574 
L 291.127151 449.186398 
L 293.163028 447.617592 
L 295.198905 456.930263 
L 297.234783 459.921547 
L 299.27066 460.378452 
L 301.306537 452.304973 
L 303.342414 437.93101 
L 305.378291 450.381791 
L 307.414168 444.625437 
L 309.450046 435.023965 
L 311.485923 439.958089 
L 313.5218 459.442991 
L 315.557677 457.519686 
L 317.593554 457.997619 
L 319.629431 451.69278 
L 321.665309 444.035268 
L 323.701186 450.503235 
L 325.737063 459.313087 
L 327.77294 456.11973 
L 329.808817 458.0836 
L 331.844694 433.637323 
L 333.880572 445.269982 
L 335.916449 443.961357 
L 337.952326 440.870655 
L 339.988203 439.120804 
L 342.02408 463.819796 
L 344.059957 459.173726 
L 346.095835 438.558507 
L 348.131712 447.545298 
L 350.167589 446.709008 
L 352.203466 449.842265 
L 354.239343 458.127772 
L 356.27522 446.091092 
L 360.346975 437.206955 
L 362.382852 442.981973 
L 366.454606 467.088184 
L 368.490483 453.777844 
L 370.526361 434.865566 
L 372.562238 455.661208 
L 374.598115 458.871363 
L 376.633992 89.28 
L 378.669869 443.447588 
L 380.705746 453.36872 
L 382.741624 445.877695 
L 384.777501 454.405839 
L 386.813378 461.175547 
L 388.849255 441.679446 
L 390.885132 438.656682 
L 392.921009 452.361961 
L 394.956887 461.734733 
L 396.992764 447.638496 
L 399.028641 443.1125 
L 401.064518 451.993526 
L 403.100395 454.516208 
L 405.136272 457.330055 
L 407.17215 456.892188 
L 409.208027 455.933335 
L 411.243904 451.235626 
L 413.279781 447.851519 
L 415.315658 444.132323 
L 417.351535 445.135847 
L 419.387413 455.79584 
L 421.42329 455.146816 
L 423.459167 456.855979 
L 425.495044 440.522377 
L 427.530921 446.734889 
L 429.566798 468.611449 
L 431.602676 476.972485 
L 433.638553 450.499502 
L 435.67443 412.56719 
L 437.710307 433.747319 
L 439.746184 467.064045 
L 441.782061 457.473025 
L 443.817939 446.782173 
L 445.853816 454.361169 
L 447.889693 459.278122 
L 449.92557 455.77954 
L 451.961447 440.411635 
L 453.997324 437.368589 
L 456.033202 451.42339 
L 458.069079 461.000599 
L 460.104956 453.779461 
L 462.140833 440.532829 
L 464.17671 451.841598 
L 466.212587 458.959459 
L 468.248465 448.275823 
L 470.284342 442.01217 
L 472.320219 439.800188 
L 474.356096 444.065007 
L 476.391973 451.666152 
L 478.42785 464.649243 
L 480.463728 454.22467 
L 482.499605 438.530013 
L 484.535482 440.919058 
L 486.571359 452.469966 
L 488.607236 461.801178 
L 490.643113 445.584539 
L 492.678991 443.005615 
L 494.714868 448.072506 
L 496.750745 449.043304 
L 498.786622 452.911939 
L 500.822499 450.377436 
L 502.858376 453.057771 
L 504.894254 449.836791 
L 506.930131 445.074876 
L 508.966008 450.123849 
L 511.001885 457.699362 
L 513.037762 454.31737 
L 515.073639 446.538664 
L 517.109517 452.239896 
L 519.145394 455.205174 
L 521.181271 449.89353 
L 523.217148 449.166365 
L 525.253025 459.606367 
L 527.288902 445.872469 
L 529.32478 450.537826 
L 531.360657 445.889018 
L 533.396534 443.628384 
L 535.432411 456.796253 
L 537.468288 464.888521 
L 539.504165 459.368209 
L 541.540043 442.520465 
L 543.57592 439.512632 
L 545.611797 445.968031 
L 547.647674 455.293768 
L 549.683551 449.564041 
L 551.719428 448.200668 
L 553.755306 456.113758 
L 555.791183 458.741209 
L 557.82706 457.618607 
L 559.862937 454.992524 
L 561.898814 443.094458 
L 563.934691 446.691463 
L 565.970569 461.024863 
L 568.006446 461.978614 
L 570.042323 460.425362 
L 572.0782 458.717941 
L 574.114077 444.808722 
L 576.149954 447.833103 
L 578.185832 459.757424 
L 580.221709 455.788375 
L 582.257586 452.662832 
L 584.293463 454.690409 
L 586.32934 460.330795 
L 588.365217 451.622228 
L 590.401095 440.791144 
L 592.436972 454.097752 
L 594.472849 452.482907 
L 596.508726 459.102304 
L 598.544603 450.568187 
L 600.58048 440.962359 
L 602.616358 454.106462 
L 604.652235 464.513739 
L 606.688112 455.941174 
L 608.723989 457.675596 
L 610.759866 458.820969 
L 612.795743 445.95621 
L 614.831621 437.089742 
L 616.867498 443.27177 
L 618.903375 448.365786 
L 622.975129 466.679682 
L 625.011006 461.780149 
L 627.046884 451.074117 
L 629.082761 448.604939 
L 631.118638 453.808578 
L 633.154515 463.200387 
L 635.190392 444.372721 
L 637.226269 436.687711 
L 639.262147 440.977664 
L 641.298024 435.301069 
L 643.333901 455.745446 
L 645.369778 456.205462 
L 647.405655 457.528396 
L 649.441532 448.075119 
L 651.47741 445.904572 
L 653.513287 441.421379 
L 655.549164 454.747025 
L 657.585041 454.014758 
L 659.620918 451.979839 
L 661.656795 440.758171 
L 663.692673 450.157694 
L 665.72855 456.685884 
L 667.764427 456.340219 
L 669.800304 441.016237 
L 671.836181 435.251546 
L 673.872058 453.804223 
L 675.907936 465.575122 
L 677.943813 456.778708 
L 679.97969 432.113187 
L 682.015567 436.513261 
L 684.051444 454.437569 
L 686.087321 469.401949 
L 688.123199 455.713841 
L 690.159076 434.240433 
L 692.194953 437.086258 
L 694.23083 447.049571 
L 696.266707 463.473509 
L 698.302584 467.993906 
L 700.338462 453.624174 
L 702.374339 445.977985 
L 704.410216 449.449815 
L 706.446093 447.978313 
L 708.48197 450.79328 
L 710.517847 453.141014 
L 712.553725 454.777759 
L 714.589602 462.38724 
L 716.625479 459.875757 
L 718.661356 455.312308 
L 720.697233 449.898383 
L 722.73311 438.365393 
L 724.768988 431.853627 
L 726.804865 431.107424 
L 728.840742 447.424228 
L 730.876619 461.050246 
L 732.912496 459.577873 
L 734.948373 447.196025 
L 736.984251 443.74933 
L 739.020128 446.84165 
L 741.056005 454.064903 
L 743.091882 462.695079 
L 747.163636 445.42527 
L 747.163636 445.42527 
" clip-path="url(#p6fdf7a0f33)" style="fill: none; stroke: #ff7f0e; stroke-width: 4; stroke-linecap: square"/>
   </g>
   <g id="line2d_35"/>
   <g id="line2d_36"/>
   <g id="patch_3">
    <path d="M 108 512.64 
L 108 69.12 
" style="fill: none; stroke: #000000; stroke-width: 0.8; stroke-linejoin: miter; stroke-linecap: square"/>
   </g>
   <g id="patch_4">
    <path d="M 777.6 512.64 
L 777.6 69.12 
" style="fill: none; stroke: #000000; stroke-width: 0.8; stroke-linejoin: miter; stroke-linecap: square"/>
   </g>
   <g id="patch_5">
    <path d="M 108 512.64 
L 777.6 512.64 
" style="fill: none; stroke: #000000; stroke-width: 0.8; stroke-linejoin: miter; stroke-linecap: square"/>
   </g>
   <g id="patch_6">
    <path d="M 108 69.12 
L 777.6 69.12 
" style="fill: none; stroke: #000000; stroke-width: 0.8; stroke-linejoin: miter; stroke-linecap: square"/>
   </g>
   <g id="text_19">
    <!-- polyreactivity -->
    <g transform="translate(238.607813 56.641875) scale(0.6 -0.6)">
     <defs>
      <path id="DejaVuSans-6f" d="M 1959 3097 
Q 1497 3097 1228 2736 
Q 959 2375 959 1747 
Q 959 1119 1226 758 
Q 1494 397 1959 397 
Q 2419 397 2687 759 
Q 2956 1122 2956 1747 
Q 2956 2369 2687 2733 
Q 2419 3097 1959 3097 
z
M 1959 3584 
Q 2709 3584 3137 3096 
Q 3566 2609 3566 1747 
Q 3566 888 3137 398 
Q 2709 -91 1959 -91 
Q 1206 -91 779 398 
Q 353 888 353 1747 
Q 353 2609 779 3096 
Q 1206 3584 1959 3584 
z
" transform="scale(0.015625)"/>
      <path id="DejaVuSans-6c" d="M 603 4863 
L 1178 4863 
L 1178 0 
L 603 0 
L 603 4863 
z
" transform="scale(0.015625)"/>
      <path id="DejaVuSans-79" d="M 2059 -325 
Q 1816 -950 1584 -1140 
Q 1353 -1331 966 -1331 
L 506 -1331 
L 506 -850 
L 844 -850 
Q 1081 -850 1212 -737 
Q 1344 -625 1503 -206 
L 1606 56 
L 191 3500 
L 800 3500 
L 1894 763 
L 2988 3500 
L 3597 3500 
L 2059 -325 
z
" transform="scale(0.015625)"/>
      <path id="DejaVuSans-72" d="M 2631 2963 
Q 2534 3019 2420 3045 
Q 2306 3072 2169 3072 
Q 1681 3072 1420 2755 
Q 1159 2438 1159 1844 
L 1159 0 
L 581 0 
L 581 3500 
L 1159 3500 
L 1159 2956 
Q 1341 3275 1631 3429 
Q 1922 3584 2338 3584 
Q 2397 3584 2469 3576 
Q 2541 3569 2628 3553 
L 2631 2963 
z
" transform="scale(0.015625)"/>
      <path id="DejaVuSans-61" d="M 2194 1759 
Q 1497 1759 1228 1600 
Q 959 1441 959 1056 
Q 959 750 1161 570 
Q 1363 391 1709 391 
Q 2188 391 2477 730 
Q 2766 1069 2766 1631 
L 2766 1759 
L 2194 1759 
z
M 3341 1997 
L 3341 0 
L 2766 0 
L 2766 531 
Q 2569 213 2275 61 
Q 1981 -91 1556 -91 
Q 1019 -91 701 211 
Q 384 513 384 1019 
Q 384 1609 779 1909 
Q 1175 2209 1959 2209 
L 2766 2209 
L 2766 2266 
Q 2766 2663 2505 2880 
Q 2244 3097 1772 3097 
Q 1472 3097 1187 3025 
Q 903 2953 641 2809 
L 641 3341 
Q 956 3463 1253 3523 
Q 1550 3584 1831 3584 
Q 2591 3584 2966 3190 
Q 3341 2797 3341 1997 
z
" transform="scale(0.015625)"/>
      <path id="DejaVuSans-63" d="M 3122 3366 
L 3122 2828 
Q 2878 2963 2633 3030 
Q 2388 3097 2138 3097 
Q 1578 3097 1268 2742 
Q 959 2388 959 1747 
Q 959 1106 1268 751 
Q 1578 397 2138 397 
Q 2388 397 2633 464 
Q 2878 531 3122 666 
L 3122 134 
Q 2881 22 2623 -34 
Q 2366 -91 2075 -91 
Q 1284 -91 818 406 
Q 353 903 353 1747 
Q 353 2603 823 3093 
Q 1294 3584 2113 3584 
Q 2378 3584 2631 3529 
Q 2884 3475 3122 3366 
z
" transform="scale(0.015625)"/>
      <path id="DejaVuSans-69" d="M 603 3500 
L 1178 3500 
L 1178 0 
L 603 0 
L 603 3500 
z
M 603 4863 
L 1178 4863 
L 1178 4134 
L 603 4134 
L 603 4863 
z
" transform="scale(0.015625)"/>
      <path id="DejaVuSans-76" d="M 191 3500 
L 800 3500 
L 1894 563 
L 2988 3500 
L 3597 3500 
L 2284 0 
L 1503 0 
L 191 3500 
z
" transform="scale(0.015625)"/>
     </defs>
     <use xlink:href="#DejaVuSans-70"/>
     <use xlink:href="#DejaVuSans-6f" transform="translate(63.476562 0)"/>
     <use xlink:href="#DejaVuSans-6c" transform="translate(124.658203 0)"/>
     <use xlink:href="#DejaVuSans-79" transform="translate(152.441406 0)"/>
     <use xlink:href="#DejaVuSans-72" transform="translate(211.621094 0)"/>
     <use xlink:href="#DejaVuSans-65" transform="translate(250.484375 0)"/>
     <use xlink:href="#DejaVuSans-61" transform="translate(312.007812 0)"/>
     <use xlink:href="#DejaVuSans-63" transform="translate(373.287109 0)"/>
     <use xlink:href="#DejaVuSans-74" transform="translate(428.267578 0)"/>
     <use xlink:href="#DejaVuSans-69" transform="translate(467.476562 0)"/>
     <use xlink:href="#DejaVuSans-76" transform="translate(495.259766 0)"/>
     <use xlink:href="#DejaVuSans-69" transform="translate(554.439453 0)"/>
     <use xlink:href="#DejaVuSans-74" transform="translate(582.222656 0)"/>
     <use xlink:href="#DejaVuSans-79" transform="translate(621.431641 0)"/>
    </g>
   </g>
   <g id="legend_1">
    <g id="patch_7">
     <path d="M 483.93125 218.545 
L 749.6 218.545 
Q 757.6 218.545 757.6 210.545 
L 757.6 97.12 
Q 757.6 89.12 749.6 89.12 
L 483.93125 89.12 
Q 475.93125 89.12 475.93125 97.12 
L 475.93125 210.545 
Q 475.93125 218.545 483.93125 218.545 
z
" style="fill: #ffffff; opacity: 0.8; stroke: #cccccc; stroke-linejoin: miter"/>
    </g>
    <g id="line2d_37">
     <path d="M 491.93125 121.51375 
L 531.93125 121.51375 
L 571.93125 121.51375 
" style="fill: none; stroke: #1f77b4; stroke-width: 4; stroke-linecap: square"/>
    </g>
    <g id="text_20">
     <!-- fedavg -->
     <g transform="translate(603.93125 135.51375) scale(0.4 -0.4)">
      <defs>
       <path id="DejaVuSans-66" d="M 2375 4863 
L 2375 4384 
L 1825 4384 
Q 1516 4384 1395 4259 
Q 1275 4134 1275 3809 
L 1275 3500 
L 2222 3500 
L 2222 3053 
L 1275 3053 
L 1275 0 
L 697 0 
L 697 3053 
L 147 3053 
L 147 3500 
L 697 3500 
L 697 3744 
Q 697 4328 969 4595 
Q 1241 4863 1831 4863 
L 2375 4863 
z
" transform="scale(0.015625)"/>
       <path id="DejaVuSans-64" d="M 2906 2969 
L 2906 4863 
L 3481 4863 
L 3481 0 
L 2906 0 
L 2906 525 
Q 2725 213 2448 61 
Q 2172 -91 1784 -91 
Q 1150 -91 751 415 
Q 353 922 353 1747 
Q 353 2572 751 3078 
Q 1150 3584 1784 3584 
Q 2172 3584 2448 3432 
Q 2725 3281 2906 2969 
z
M 947 1747 
Q 947 1113 1208 752 
Q 1469 391 1925 391 
Q 2381 391 2643 752 
Q 2906 1113 2906 1747 
Q 2906 2381 2643 2742 
Q 2381 3103 1925 3103 
Q 1469 3103 1208 2742 
Q 947 2381 947 1747 
z
" transform="scale(0.015625)"/>
       <path id="DejaVuSans-67" d="M 2906 1791 
Q 2906 2416 2648 2759 
Q 2391 3103 1925 3103 
Q 1463 3103 1205 2759 
Q 947 2416 947 1791 
Q 947 1169 1205 825 
Q 1463 481 1925 481 
Q 2391 481 2648 825 
Q 2906 1169 2906 1791 
z
M 3481 434 
Q 3481 -459 3084 -895 
Q 2688 -1331 1869 -1331 
Q 1566 -1331 1297 -1286 
Q 1028 -1241 775 -1147 
L 775 -588 
Q 1028 -725 1275 -790 
Q 1522 -856 1778 -856 
Q 2344 -856 2625 -561 
Q 2906 -266 2906 331 
L 2906 616 
Q 2728 306 2450 153 
Q 2172 0 1784 0 
Q 1141 0 747 490 
Q 353 981 353 1791 
Q 353 2603 747 3093 
Q 1141 3584 1784 3584 
Q 2172 3584 2450 3431 
Q 2728 3278 2906 2969 
L 2906 3500 
L 3481 3500 
L 3481 434 
z
" transform="scale(0.015625)"/>
      </defs>
      <use xlink:href="#DejaVuSans-66"/>
      <use xlink:href="#DejaVuSans-65" transform="translate(35.205078 0)"/>
      <use xlink:href="#DejaVuSans-64" transform="translate(96.728516 0)"/>
      <use xlink:href="#DejaVuSans-61" transform="translate(160.205078 0)"/>
      <use xlink:href="#DejaVuSans-76" transform="translate(221.484375 0)"/>
      <use xlink:href="#DejaVuSans-67" transform="translate(280.664062 0)"/>
     </g>
    </g>
    <g id="line2d_38">
     <path d="M 491.93125 180.22625 
L 531.93125 180.22625 
L 571.93125 180.22625 
" style="fill: none; stroke: #ff7f0e; stroke-width: 4; stroke-linecap: square"/>
    </g>
    <g id="text_21">
     <!-- local -->
     <g transform="translate(603.93125 194.22625) scale(0.4 -0.4)">
      <use xlink:href="#DejaVuSans-6c"/>
      <use xlink:href="#DejaVuSans-6f" transform="translate(27.783203 0)"/>
      <use xlink:href="#DejaVuSans-63" transform="translate(88.964844 0)"/>
      <use xlink:href="#DejaVuSans-61" transform="translate(143.945312 0)"/>
      <use xlink:href="#DejaVuSans-6c" transform="translate(205.224609 0)"/>
     </g>
    </g>
   </g>
  </g>
 </g>
 <defs>
  <clipPath id="p6fdf7a0f33">
   <rect x="108" y="69.12" width="669.6" height="443.52"/>
  </clipPath>
 </defs>
</svg>
