<?xml version="1.0" encoding="utf-8" standalone="no"?>
<!DOCTYPE svg PUBLIC "-//W3C//DTD SVG 1.1//EN"
  "http://www.w3.org/Graphics/SVG/1.1/DTD/svg11.dtd">
<svg xmlns:xlink="http://www.w3.org/1999/xlink" width="864pt" height="576pt" viewBox="0 0 864 576" xmlns="http://www.w3.org/2000/svg" version="1.1">
 <metadata>
  <rdf:RDF xmlns:dc="http://purl.org/dc/elements/1.1/" xmlns:cc="http://creativecommons.org/ns#" xmlns:rdf="http://www.w3.org/1999/02/22-rdf-syntax-ns#">
   <cc:Work>
    <dc:type rdf:resource="http://purl.org/dc/dcmitype/StillImage"/>
    <dc:date>2025-04-25T14:16:23.998252</dc:date>
    <dc:format>image/svg+xml</dc:format>
    <dc:creator>
     <cc:Agent>
      <dc:title>Matplotlib v3.8.2, https://matplotlib.org/</dc:title>
     </cc:Agent>
    </dc:creator>
   </cc:Work>
  </rdf:RDF>
 </metadata>
 <defs>
  <style type="text/css">*{stroke-linejoin: round; stroke-linecap: butt}</style>
 </defs>
 <g id="figure_1">
  <g id="patch_1">
   <path d="M 0 576 
L 864 576 
L 864 0 
L 0 0 
z
" style="fill: #ffffff"/>
  </g>
  <g id="axes_1">
   <g id="patch_2">
    <path d="M 108 512.64 
L 777.6 512.64 
L 777.6 69.12 
L 108 69.12 
z
" style="fill: #ffffff"/>
   </g>
   <g id="PolyCollection_1"/>
   <g id="PolyCollection_2"/>
   <g id="matplotlib.axis_1">
    <g id="xtick_1">
     <g id="line2d_1">
      <path d="M 137.420124 512.64 
L 137.420124 69.12 
" clip-path="url(#p0415253f63)" style="fill: none; stroke: #b0b0b0; stroke-width: 0.8; stroke-linecap: square"/>
     </g>
     <g id="line2d_2">
      <defs>
       <path id="m6f7cfff7f8" d="M 0 0 
L 0 3.5 
" style="stroke: #000000; stroke-width: 0.8"/>
      </defs>
      <g>
       <use xlink:href="#m6f7cfff7f8" x="137.420124" y="512.64" style="stroke: #000000; stroke-width: 0.8"/>
      </g>
     </g>
     <g id="text_1">
      <!-- 0 -->
      <g transform="translate(127.876374 542.435313) scale(0.3 -0.3)">
       <defs>
        <path id="DejaVuSans-30" d="M 2034 4250 
Q 1547 4250 1301 3770 
Q 1056 3291 1056 2328 
Q 1056 1369 1301 889 
Q 1547 409 2034 409 
Q 2525 409 2770 889 
Q 3016 1369 3016 2328 
Q 3016 3291 2770 3770 
Q 2525 4250 2034 4250 
z
M 2034 4750 
Q 2819 4750 3233 4129 
Q 3647 3509 3647 2328 
Q 3647 1150 3233 529 
Q 2819 -91 2034 -91 
Q 1250 -91 836 529 
Q 422 1150 422 2328 
Q 422 3509 836 4129 
Q 1250 4750 2034 4750 
z
" transform="scale(0.015625)"/>
       </defs>
       <use xlink:href="#DejaVuSans-30"/>
      </g>
     </g>
    </g>
    <g id="xtick_2">
     <g id="line2d_3">
      <path d="M 222.106723 512.64 
L 222.106723 69.12 
" clip-path="url(#p0415253f63)" style="fill: none; stroke: #b0b0b0; stroke-width: 0.8; stroke-linecap: square"/>
     </g>
     <g id="line2d_4">
      <g>
       <use xlink:href="#m6f7cfff7f8" x="222.106723" y="512.64" style="stroke: #000000; stroke-width: 0.8"/>
      </g>
     </g>
     <g id="text_2">
      <!-- 250 -->
      <g transform="translate(193.475473 542.435313) scale(0.3 -0.3)">
       <defs>
        <path id="DejaVuSans-32" d="M 1228 531 
L 3431 531 
L 3431 0 
L 469 0 
L 469 531 
Q 828 903 1448 1529 
Q 2069 2156 2228 2338 
Q 2531 2678 2651 2914 
Q 2772 3150 2772 3378 
Q 2772 3750 2511 3984 
Q 2250 4219 1831 4219 
Q 1534 4219 1204 4116 
Q 875 4013 500 3803 
L 500 4441 
Q 881 4594 1212 4672 
Q 1544 4750 1819 4750 
Q 2544 4750 2975 4387 
Q 3406 4025 3406 3419 
Q 3406 3131 3298 2873 
Q 3191 2616 2906 2266 
Q 2828 2175 2409 1742 
Q 1991 1309 1228 531 
z
" transform="scale(0.015625)"/>
        <path id="DejaVuSans-35" d="M 691 4666 
L 3169 4666 
L 3169 4134 
L 1269 4134 
L 1269 2991 
Q 1406 3038 1543 3061 
Q 1681 3084 1819 3084 
Q 2600 3084 3056 2656 
Q 3513 2228 3513 1497 
Q 3513 744 3044 326 
Q 2575 -91 1722 -91 
Q 1428 -91 1123 -41 
Q 819 9 494 109 
L 494 744 
Q 775 591 1075 516 
Q 1375 441 1709 441 
Q 2250 441 2565 725 
Q 2881 1009 2881 1497 
Q 2881 1984 2565 2268 
Q 2250 2553 1709 2553 
Q 1456 2553 1204 2497 
Q 953 2441 691 2322 
L 691 4666 
z
" transform="scale(0.015625)"/>
       </defs>
       <use xlink:href="#DejaVuSans-32"/>
       <use xlink:href="#DejaVuSans-35" x="63.623047"/>
       <use xlink:href="#DejaVuSans-30" x="127.246094"/>
      </g>
     </g>
    </g>
    <g id="xtick_3">
     <g id="line2d_5">
      <path d="M 306.793322 512.64 
L 306.793322 69.12 
" clip-path="url(#p0415253f63)" style="fill: none; stroke: #b0b0b0; stroke-width: 0.8; stroke-linecap: square"/>
     </g>
     <g id="line2d_6">
      <g>
       <use xlink:href="#m6f7cfff7f8" x="306.793322" y="512.64" style="stroke: #000000; stroke-width: 0.8"/>
      </g>
     </g>
     <g id="text_3">
      <!-- 500 -->
      <g transform="translate(278.162072 542.435313) scale(0.3 -0.3)">
       <use xlink:href="#DejaVuSans-35"/>
       <use xlink:href="#DejaVuSans-30" x="63.623047"/>
       <use xlink:href="#DejaVuSans-30" x="127.246094"/>
      </g>
     </g>
    </g>
    <g id="xtick_4">
     <g id="line2d_7">
      <path d="M 391.479921 512.64 
L 391.479921 69.12 
" clip-path="url(#p0415253f63)" style="fill: none; stroke: #b0b0b0; stroke-width: 0.8; stroke-linecap: square"/>
     </g>
     <g id="line2d_8">
      <g>
       <use xlink:href="#m6f7cfff7f8" x="391.479921" y="512.64" style="stroke: #000000; stroke-width: 0.8"/>
      </g>
     </g>
     <g id="text_4">
      <!-- 750 -->
      <g transform="translate(362.848671 542.435313) scale(0.3 -0.3)">
       <defs>
        <path id="DejaVuSans-37" d="M 525 4666 
L 3525 4666 
L 3525 4397 
L 1831 0 
L 1172 0 
L 2766 4134 
L 525 4134 
L 525 4666 
z
" transform="scale(0.015625)"/>
       </defs>
       <use xlink:href="#DejaVuSans-37"/>
       <use xlink:href="#DejaVuSans-35" x="63.623047"/>
       <use xlink:href="#DejaVuSans-30" x="127.246094"/>
      </g>
     </g>
    </g>
    <g id="xtick_5">
     <g id="line2d_9">
      <path d="M 476.16652 512.64 
L 476.16652 69.12 
" clip-path="url(#p0415253f63)" style="fill: none; stroke: #b0b0b0; stroke-width: 0.8; stroke-linecap: square"/>
     </g>
     <g id="line2d_10">
      <g>
       <use xlink:href="#m6f7cfff7f8" x="476.16652" y="512.64" style="stroke: #000000; stroke-width: 0.8"/>
      </g>
     </g>
     <g id="text_5">
      <!-- 1000 -->
      <g transform="translate(437.99152 542.435313) scale(0.3 -0.3)">
       <defs>
        <path id="DejaVuSans-31" d="M 794 531 
L 1825 531 
L 1825 4091 
L 703 3866 
L 703 4441 
L 1819 4666 
L 2450 4666 
L 2450 531 
L 3481 531 
L 3481 0 
L 794 0 
L 794 531 
z
" transform="scale(0.015625)"/>
       </defs>
       <use xlink:href="#DejaVuSans-31"/>
       <use xlink:href="#DejaVuSans-30" x="63.623047"/>
       <use xlink:href="#DejaVuSans-30" x="127.246094"/>
       <use xlink:href="#DejaVuSans-30" x="190.869141"/>
      </g>
     </g>
    </g>
    <g id="xtick_6">
     <g id="line2d_11">
      <path d="M 560.853119 512.64 
L 560.853119 69.12 
" clip-path="url(#p0415253f63)" style="fill: none; stroke: #b0b0b0; stroke-width: 0.8; stroke-linecap: square"/>
     </g>
     <g id="line2d_12">
      <g>
       <use xlink:href="#m6f7cfff7f8" x="560.853119" y="512.64" style="stroke: #000000; stroke-width: 0.8"/>
      </g>
     </g>
     <g id="text_6">
      <!-- 1250 -->
      <g transform="translate(522.678119 542.435313) scale(0.3 -0.3)">
       <use xlink:href="#DejaVuSans-31"/>
       <use xlink:href="#DejaVuSans-32" x="63.623047"/>
       <use xlink:href="#DejaVuSans-35" x="127.246094"/>
       <use xlink:href="#DejaVuSans-30" x="190.869141"/>
      </g>
     </g>
    </g>
    <g id="xtick_7">
     <g id="line2d_13">
      <path d="M 645.539718 512.64 
L 645.539718 69.12 
" clip-path="url(#p0415253f63)" style="fill: none; stroke: #b0b0b0; stroke-width: 0.8; stroke-linecap: square"/>
     </g>
     <g id="line2d_14">
      <g>
       <use xlink:href="#m6f7cfff7f8" x="645.539718" y="512.64" style="stroke: #000000; stroke-width: 0.8"/>
      </g>
     </g>
     <g id="text_7">
      <!-- 1500 -->
      <g transform="translate(607.364718 542.435313) scale(0.3 -0.3)">
       <use xlink:href="#DejaVuSans-31"/>
       <use xlink:href="#DejaVuSans-35" x="63.623047"/>
       <use xlink:href="#DejaVuSans-30" x="127.246094"/>
       <use xlink:href="#DejaVuSans-30" x="190.869141"/>
      </g>
     </g>
    </g>
    <g id="xtick_8">
     <g id="line2d_15">
      <path d="M 730.226317 512.64 
L 730.226317 69.12 
" clip-path="url(#p0415253f63)" style="fill: none; stroke: #b0b0b0; stroke-width: 0.8; stroke-linecap: square"/>
     </g>
     <g id="line2d_16">
      <g>
       <use xlink:href="#m6f7cfff7f8" x="730.226317" y="512.64" style="stroke: #000000; stroke-width: 0.8"/>
      </g>
     </g>
     <g id="text_8">
      <!-- 1750 -->
      <g transform="translate(692.051317 542.435313) scale(0.3 -0.3)">
       <use xlink:href="#DejaVuSans-31"/>
       <use xlink:href="#DejaVuSans-37" x="63.623047"/>
       <use xlink:href="#DejaVuSans-35" x="127.246094"/>
       <use xlink:href="#DejaVuSans-30" x="190.869141"/>
      </g>
     </g>
    </g>
    <g id="text_9">
     <!-- Steps -->
     <g transform="translate(386.840625 583.068125) scale(0.4 -0.4)">
      <defs>
       <path id="DejaVuSans-53" d="M 3425 4513 
L 3425 3897 
Q 3066 4069 2747 4153 
Q 2428 4238 2131 4238 
Q 1616 4238 1336 4038 
Q 1056 3838 1056 3469 
Q 1056 3159 1242 3001 
Q 1428 2844 1947 2747 
L 2328 2669 
Q 3034 2534 3370 2195 
Q 3706 1856 3706 1288 
Q 3706 609 3251 259 
Q 2797 -91 1919 -91 
Q 1588 -91 1214 -16 
Q 841 59 441 206 
L 441 856 
Q 825 641 1194 531 
Q 1563 422 1919 422 
Q 2459 422 2753 634 
Q 3047 847 3047 1241 
Q 3047 1584 2836 1778 
Q 2625 1972 2144 2069 
L 1759 2144 
Q 1053 2284 737 2584 
Q 422 2884 422 3419 
Q 422 4038 858 4394 
Q 1294 4750 2059 4750 
Q 2388 4750 2728 4690 
Q 3069 4631 3425 4513 
z
" transform="scale(0.015625)"/>
       <path id="DejaVuSans-74" d="M 1172 4494 
L 1172 3500 
L 2356 3500 
L 2356 3053 
L 1172 3053 
L 1172 1153 
Q 1172 725 1289 603 
Q 1406 481 1766 481 
L 2356 481 
L 2356 0 
L 1766 0 
Q 1100 0 847 248 
Q 594 497 594 1153 
L 594 3053 
L 172 3053 
L 172 3500 
L 594 3500 
L 594 4494 
L 1172 4494 
z
" transform="scale(0.015625)"/>
       <path id="DejaVuSans-65" d="M 3597 1894 
L 3597 1613 
L 953 1613 
Q 991 1019 1311 708 
Q 1631 397 2203 397 
Q 2534 397 2845 478 
Q 3156 559 3463 722 
L 3463 178 
Q 3153 47 2828 -22 
Q 2503 -91 2169 -91 
Q 1331 -91 842 396 
Q 353 884 353 1716 
Q 353 2575 817 3079 
Q 1281 3584 2069 3584 
Q 2775 3584 3186 3129 
Q 3597 2675 3597 1894 
z
M 3022 2063 
Q 3016 2534 2758 2815 
Q 2500 3097 2075 3097 
Q 1594 3097 1305 2825 
Q 1016 2553 972 2059 
L 3022 2063 
z
" transform="scale(0.015625)"/>
       <path id="DejaVuSans-70" d="M 1159 525 
L 1159 -1331 
L 581 -1331 
L 581 3500 
L 1159 3500 
L 1159 2969 
Q 1341 3281 1617 3432 
Q 1894 3584 2278 3584 
Q 2916 3584 3314 3078 
Q 3713 2572 3713 1747 
Q 3713 922 3314 415 
Q 2916 -91 2278 -91 
Q 1894 -91 1617 61 
Q 1341 213 1159 525 
z
M 3116 1747 
Q 3116 2381 2855 2742 
Q 2594 3103 2138 3103 
Q 1681 3103 1420 2742 
Q 1159 2381 1159 1747 
Q 1159 1113 1420 752 
Q 1681 391 2138 391 
Q 2594 391 2855 752 
Q 3116 1113 3116 1747 
z
" transform="scale(0.015625)"/>
       <path id="DejaVuSans-73" d="M 2834 3397 
L 2834 2853 
Q 2591 2978 2328 3040 
Q 2066 3103 1784 3103 
Q 1356 3103 1142 2972 
Q 928 2841 928 2578 
Q 928 2378 1081 2264 
Q 1234 2150 1697 2047 
L 1894 2003 
Q 2506 1872 2764 1633 
Q 3022 1394 3022 966 
Q 3022 478 2636 193 
Q 2250 -91 1575 -91 
Q 1294 -91 989 -36 
Q 684 19 347 128 
L 347 722 
Q 666 556 975 473 
Q 1284 391 1588 391 
Q 1994 391 2212 530 
Q 2431 669 2431 922 
Q 2431 1156 2273 1281 
Q 2116 1406 1581 1522 
L 1381 1569 
Q 847 1681 609 1914 
Q 372 2147 372 2553 
Q 372 3047 722 3315 
Q 1072 3584 1716 3584 
Q 2034 3584 2315 3537 
Q 2597 3491 2834 3397 
z
" transform="scale(0.015625)"/>
      </defs>
      <use xlink:href="#DejaVuSans-53"/>
      <use xlink:href="#DejaVuSans-74" x="63.476562"/>
      <use xlink:href="#DejaVuSans-65" x="102.685547"/>
      <use xlink:href="#DejaVuSans-70" x="164.208984"/>
      <use xlink:href="#DejaVuSans-73" x="227.685547"/>
     </g>
    </g>
   </g>
   <g id="matplotlib.axis_2">
    <g id="ytick_1">
     <g id="line2d_17">
      <path d="M 108 465.158181 
L 777.6 465.158181 
" clip-path="url(#p0415253f63)" style="fill: none; stroke: #b0b0b0; stroke-width: 0.8; stroke-linecap: square"/>
     </g>
     <g id="line2d_18">
      <defs>
       <path id="m2b48fd4afb" d="M 0 0 
L -3.5 0 
" style="stroke: #000000; stroke-width: 0.8"/>
      </defs>
      <g>
       <use xlink:href="#m2b48fd4afb" x="108" y="465.158181" style="stroke: #000000; stroke-width: 0.8"/>
      </g>
     </g>
     <g id="text_10">
      <!-- 17.0 -->
      <g transform="translate(34.203125 476.555838) scale(0.3 -0.3)">
       <defs>
        <path id="DejaVuSans-2e" d="M 684 794 
L 1344 794 
L 1344 0 
L 684 0 
L 684 794 
z
" transform="scale(0.015625)"/>
       </defs>
       <use xlink:href="#DejaVuSans-31"/>
       <use xlink:href="#DejaVuSans-37" x="63.623047"/>
       <use xlink:href="#DejaVuSans-2e" x="127.246094"/>
       <use xlink:href="#DejaVuSans-30" x="159.033203"/>
      </g>
     </g>
    </g>
    <g id="ytick_2">
     <g id="line2d_19">
      <path d="M 108 389.550027 
L 777.6 389.550027 
" clip-path="url(#p0415253f63)" style="fill: none; stroke: #b0b0b0; stroke-width: 0.8; stroke-linecap: square"/>
     </g>
     <g id="line2d_20">
      <g>
       <use xlink:href="#m2b48fd4afb" x="108" y="389.550027" style="stroke: #000000; stroke-width: 0.8"/>
      </g>
     </g>
     <g id="text_11">
      <!-- 17.5 -->
      <g transform="translate(34.203125 400.947683) scale(0.3 -0.3)">
       <use xlink:href="#DejaVuSans-31"/>
       <use xlink:href="#DejaVuSans-37" x="63.623047"/>
       <use xlink:href="#DejaVuSans-2e" x="127.246094"/>
       <use xlink:href="#DejaVuSans-35" x="159.033203"/>
      </g>
     </g>
    </g>
    <g id="ytick_3">
     <g id="line2d_21">
      <path d="M 108 313.941873 
L 777.6 313.941873 
" clip-path="url(#p0415253f63)" style="fill: none; stroke: #b0b0b0; stroke-width: 0.8; stroke-linecap: square"/>
     </g>
     <g id="line2d_22">
      <g>
       <use xlink:href="#m2b48fd4afb" x="108" y="313.941873" style="stroke: #000000; stroke-width: 0.8"/>
      </g>
     </g>
     <g id="text_12">
      <!-- 18.0 -->
      <g transform="translate(34.203125 325.339529) scale(0.3 -0.3)">
       <defs>
        <path id="DejaVuSans-38" d="M 2034 2216 
Q 1584 2216 1326 1975 
Q 1069 1734 1069 1313 
Q 1069 891 1326 650 
Q 1584 409 2034 409 
Q 2484 409 2743 651 
Q 3003 894 3003 1313 
Q 3003 1734 2745 1975 
Q 2488 2216 2034 2216 
z
M 1403 2484 
Q 997 2584 770 2862 
Q 544 3141 544 3541 
Q 544 4100 942 4425 
Q 1341 4750 2034 4750 
Q 2731 4750 3128 4425 
Q 3525 4100 3525 3541 
Q 3525 3141 3298 2862 
Q 3072 2584 2669 2484 
Q 3125 2378 3379 2068 
Q 3634 1759 3634 1313 
Q 3634 634 3220 271 
Q 2806 -91 2034 -91 
Q 1263 -91 848 271 
Q 434 634 434 1313 
Q 434 1759 690 2068 
Q 947 2378 1403 2484 
z
M 1172 3481 
Q 1172 3119 1398 2916 
Q 1625 2713 2034 2713 
Q 2441 2713 2670 2916 
Q 2900 3119 2900 3481 
Q 2900 3844 2670 4047 
Q 2441 4250 2034 4250 
Q 1625 4250 1398 4047 
Q 1172 3844 1172 3481 
z
" transform="scale(0.015625)"/>
       </defs>
       <use xlink:href="#DejaVuSans-31"/>
       <use xlink:href="#DejaVuSans-38" x="63.623047"/>
       <use xlink:href="#DejaVuSans-2e" x="127.246094"/>
       <use xlink:href="#DejaVuSans-30" x="159.033203"/>
      </g>
     </g>
    </g>
    <g id="ytick_4">
     <g id="line2d_23">
      <path d="M 108 238.333719 
L 777.6 238.333719 
" clip-path="url(#p0415253f63)" style="fill: none; stroke: #b0b0b0; stroke-width: 0.8; stroke-linecap: square"/>
     </g>
     <g id="line2d_24">
      <g>
       <use xlink:href="#m2b48fd4afb" x="108" y="238.333719" style="stroke: #000000; stroke-width: 0.8"/>
      </g>
     </g>
     <g id="text_13">
      <!-- 18.5 -->
      <g transform="translate(34.203125 249.731375) scale(0.3 -0.3)">
       <use xlink:href="#DejaVuSans-31"/>
       <use xlink:href="#DejaVuSans-38" x="63.623047"/>
       <use xlink:href="#DejaVuSans-2e" x="127.246094"/>
       <use xlink:href="#DejaVuSans-35" x="159.033203"/>
      </g>
     </g>
    </g>
    <g id="ytick_5">
     <g id="line2d_25">
      <path d="M 108 162.725564 
L 777.6 162.725564 
" clip-path="url(#p0415253f63)" style="fill: none; stroke: #b0b0b0; stroke-width: 0.8; stroke-linecap: square"/>
     </g>
     <g id="line2d_26">
      <g>
       <use xlink:href="#m2b48fd4afb" x="108" y="162.725564" style="stroke: #000000; stroke-width: 0.8"/>
      </g>
     </g>
     <g id="text_14">
      <!-- 19.0 -->
      <g transform="translate(34.203125 174.123221) scale(0.3 -0.3)">
       <defs>
        <path id="DejaVuSans-39" d="M 703 97 
L 703 672 
Q 941 559 1184 500 
Q 1428 441 1663 441 
Q 2288 441 2617 861 
Q 2947 1281 2994 2138 
Q 2813 1869 2534 1725 
Q 2256 1581 1919 1581 
Q 1219 1581 811 2004 
Q 403 2428 403 3163 
Q 403 3881 828 4315 
Q 1253 4750 1959 4750 
Q 2769 4750 3195 4129 
Q 3622 3509 3622 2328 
Q 3622 1225 3098 567 
Q 2575 -91 1691 -91 
Q 1453 -91 1209 -44 
Q 966 3 703 97 
z
M 1959 2075 
Q 2384 2075 2632 2365 
Q 2881 2656 2881 3163 
Q 2881 3666 2632 3958 
Q 2384 4250 1959 4250 
Q 1534 4250 1286 3958 
Q 1038 3666 1038 3163 
Q 1038 2656 1286 2365 
Q 1534 2075 1959 2075 
z
" transform="scale(0.015625)"/>
       </defs>
       <use xlink:href="#DejaVuSans-31"/>
       <use xlink:href="#DejaVuSans-39" x="63.623047"/>
       <use xlink:href="#DejaVuSans-2e" x="127.246094"/>
       <use xlink:href="#DejaVuSans-30" x="159.033203"/>
      </g>
     </g>
    </g>
    <g id="ytick_6">
     <g id="line2d_27">
      <path d="M 108 87.11741 
L 777.6 87.11741 
" clip-path="url(#p0415253f63)" style="fill: none; stroke: #b0b0b0; stroke-width: 0.8; stroke-linecap: square"/>
     </g>
     <g id="line2d_28">
      <g>
       <use xlink:href="#m2b48fd4afb" x="108" y="87.11741" style="stroke: #000000; stroke-width: 0.8"/>
      </g>
     </g>
     <g id="text_15">
      <!-- 19.5 -->
      <g transform="translate(34.203125 98.515066) scale(0.3 -0.3)">
       <use xlink:href="#DejaVuSans-31"/>
       <use xlink:href="#DejaVuSans-39" x="63.623047"/>
       <use xlink:href="#DejaVuSans-2e" x="127.246094"/>
       <use xlink:href="#DejaVuSans-35" x="159.033203"/>
      </g>
     </g>
    </g>
    <g id="text_16">
     <!-- RMSE -->
     <g transform="translate(21.884375 347.3675) rotate(-90) scale(0.4 -0.4)">
      <defs>
       <path id="DejaVuSans-52" d="M 2841 2188 
Q 3044 2119 3236 1894 
Q 3428 1669 3622 1275 
L 4263 0 
L 3584 0 
L 2988 1197 
Q 2756 1666 2539 1819 
Q 2322 1972 1947 1972 
L 1259 1972 
L 1259 0 
L 628 0 
L 628 4666 
L 2053 4666 
Q 2853 4666 3247 4331 
Q 3641 3997 3641 3322 
Q 3641 2881 3436 2590 
Q 3231 2300 2841 2188 
z
M 1259 4147 
L 1259 2491 
L 2053 2491 
Q 2509 2491 2742 2702 
Q 2975 2913 2975 3322 
Q 2975 3731 2742 3939 
Q 2509 4147 2053 4147 
L 1259 4147 
z
" transform="scale(0.015625)"/>
       <path id="DejaVuSans-4d" d="M 628 4666 
L 1569 4666 
L 2759 1491 
L 3956 4666 
L 4897 4666 
L 4897 0 
L 4281 0 
L 4281 4097 
L 3078 897 
L 2444 897 
L 1241 4097 
L 1241 0 
L 628 0 
L 628 4666 
z
" transform="scale(0.015625)"/>
       <path id="DejaVuSans-45" d="M 628 4666 
L 3578 4666 
L 3578 4134 
L 1259 4134 
L 1259 2753 
L 3481 2753 
L 3481 2222 
L 1259 2222 
L 1259 531 
L 3634 531 
L 3634 0 
L 628 0 
L 628 4666 
z
" transform="scale(0.015625)"/>
      </defs>
      <use xlink:href="#DejaVuSans-52"/>
      <use xlink:href="#DejaVuSans-4d" x="69.482422"/>
      <use xlink:href="#DejaVuSans-53" x="155.761719"/>
      <use xlink:href="#DejaVuSans-45" x="219.238281"/>
     </g>
    </g>
   </g>
   <g id="line2d_29">
    <path d="M 138.436364 101.197606 
L 140.468842 138.058254 
L 143.51756 195.477109 
L 145.550038 230.433726 
L 147.582516 260.112423 
L 148.598756 272.514741 
L 149.614995 283.412453 
L 150.631234 292.880107 
L 151.647473 301.058423 
L 152.663712 308.141837 
L 153.679951 314.327493 
L 155.71243 324.657447 
L 157.744908 332.900543 
L 159.777387 339.625649 
L 161.809865 345.193262 
L 163.842343 349.976058 
L 165.874822 354.023054 
L 167.9073 357.505617 
L 168.923539 367.703919 
L 169.939778 376.721709 
L 170.956018 384.438137 
L 171.972257 390.830016 
L 172.988496 395.936647 
L 174.004735 399.864121 
L 175.020974 402.726923 
L 176.037214 404.667005 
L 177.053453 405.936014 
L 178.069692 406.820634 
L 179.085931 407.523615 
L 180.10217 408.565877 
L 181.118409 411.765508 
L 182.134649 407.751921 
L 183.150888 407.603153 
L 191.280801 407.640571 
L 194.329519 407.813182 
L 195.345758 407.722819 
L 196.361997 407.894728 
L 197.378236 408.28205 
L 198.394476 409.132858 
L 199.410715 411.540875 
L 201.443193 419.907418 
L 202.459432 419.605161 
L 203.475672 423.122883 
L 204.491911 421.947678 
L 205.50815 421.561961 
L 208.556868 421.198857 
L 209.573107 420.871315 
L 210.589346 419.981013 
L 211.605585 416.804119 
L 212.621824 420.767146 
L 213.638063 420.877131 
L 215.670542 420.886149 
L 216.686781 420.966023 
L 218.719259 421.543992 
L 220.751738 422.536473 
L 221.767977 424.595269 
L 222.784216 424.169586 
L 223.800455 423.615989 
L 224.816694 423.213505 
L 225.832934 423.19023 
L 226.849173 423.055392 
L 227.865412 422.722188 
L 228.881651 421.894041 
L 229.89789 419.497195 
L 230.91413 415.535485 
L 231.930369 411.098455 
L 232.946608 411.336711 
L 233.962847 407.729212 
L 234.979086 408.87521 
L 235.995326 409.242785 
L 238.027804 409.403792 
L 240.060282 409.532236 
L 241.076521 409.887841 
L 242.092761 412.269545 
L 243.109 411.656985 
L 246.157717 411.893568 
L 247.173957 412.477921 
L 249.206435 415.330888 
L 250.222674 413.163991 
L 251.238913 415.69901 
L 252.255153 414.322333 
L 253.271392 413.86501 
L 254.287631 414.025739 
L 255.30387 414.373633 
L 256.320109 414.208098 
L 257.336348 413.668528 
L 258.352588 413.428349 
L 263.433784 413.441088 
L 265.466262 413.56459 
L 268.51498 413.318191 
L 270.547458 413.093933 
L 271.563697 412.705284 
L 272.579936 410.302323 
L 273.596175 410.924748 
L 276.644893 410.619703 
L 277.661132 409.913741 
L 278.677371 408.338745 
L 279.693611 406.535817 
L 280.70985 408.203965 
L 281.726089 405.093254 
L 282.742328 404.369545 
L 283.758567 405.198375 
L 284.774806 405.538905 
L 285.791046 405.558835 
L 286.807285 405.852295 
L 287.823524 406.401913 
L 288.839763 406.751163 
L 292.90472 406.92189 
L 296.969677 407.011627 
L 300.018394 407.165847 
L 306.115829 407.21733 
L 317.29446 407.321047 
L 318.3107 407.278476 
L 320.343178 407.047555 
L 322.375656 407.102019 
L 324.408135 407.428263 
L 326.440613 408.29227 
L 327.456852 409.112649 
L 328.473092 410.423633 
L 329.489331 412.292292 
L 330.50557 414.487724 
L 331.521809 417.071843 
L 332.538048 421.046224 
L 334.570527 431.233575 
L 335.586766 435.861579 
L 336.603005 435.173086 
L 337.619244 444.050828 
L 338.635483 449.863228 
L 339.651723 458.444174 
L 341.684201 479.135016 
L 342.70044 486.236293 
L 343.716679 485.92772 
L 344.732919 492.48 
L 345.749158 481.18304 
L 346.765397 475.78518 
L 347.781636 472.876394 
L 348.797875 478.771619 
L 349.814114 481.998563 
L 350.830354 485.625713 
L 351.846593 482.444695 
L 352.862832 481.791967 
L 353.879071 481.696739 
L 354.89531 481.35818 
L 356.927789 480.141365 
L 357.944028 479.340022 
L 358.960267 478.004983 
L 359.976506 476.068535 
L 360.992745 473.797057 
L 362.008985 471.126526 
L 363.025224 467.133311 
L 365.057702 456.976763 
L 366.073941 452.370872 
L 367.090181 453.099455 
L 368.10642 444.246873 
L 369.122659 438.437098 
L 370.138898 429.861027 
L 372.171377 409.124892 
L 373.187616 401.998397 
L 374.203855 402.291684 
L 375.220094 395.746423 
L 376.236333 407.076349 
L 377.252572 412.51156 
L 378.268812 415.467955 
L 379.285051 409.619551 
L 380.30129 406.423842 
L 381.317529 402.783156 
L 382.333768 405.898202 
L 383.350008 406.447752 
L 384.366247 406.417603 
L 388.431204 406.831229 
L 390.463682 406.912526 
L 393.512399 407.124977 
L 397.577356 407.112239 
L 403.674791 407.467979 
L 406.723509 407.693188 
L 408.755987 408.00405 
L 409.772226 408.482927 
L 410.788466 409.362115 
L 411.804705 411.358237 
L 412.820944 416.514447 
L 413.837183 422.656168 
L 414.853422 433.082602 
L 415.869662 434.44658 
L 416.885901 441.199871 
L 417.90214 440.527001 
L 418.918379 418.81174 
L 419.934618 422.069863 
L 420.950857 418.862848 
L 421.967097 409.244958 
L 422.983336 406.802752 
L 423.999575 405.742329 
L 425.015814 405.509563 
L 430.09701 405.359276 
L 435.178206 404.974713 
L 439.243163 404.250629 
L 440.259402 403.755466 
L 441.275641 402.904389 
L 442.29188 400.960481 
L 443.30812 395.888442 
L 444.324359 389.829201 
L 445.340598 379.50754 
L 446.356837 378.340949 
L 447.373076 371.398886 
L 448.389316 372.093234 
L 449.405555 393.918643 
L 450.421794 390.894315 
L 451.438033 394.563574 
L 452.454272 406.322394 
L 453.470511 411.71464 
L 454.486751 412.485324 
L 455.50299 412.450242 
L 457.535468 412.091175 
L 459.567947 411.943888 
L 461.600425 412.061641 
L 462.616664 412.349381 
L 463.632903 412.903661 
L 464.649143 413.162058 
L 465.665382 414.220674 
L 466.681621 416.6514 
L 467.69786 419.865087 
L 468.714099 419.514327 
L 469.730338 417.704477 
L 470.746578 416.912912 
L 471.762817 415.750023 
L 472.779056 415.192214 
L 474.811534 414.971956 
L 475.827774 414.673208 
L 476.844013 414.166277 
L 477.860252 414.108141 
L 479.89273 413.738989 
L 480.908969 413.478294 
L 481.925209 413.010742 
L 482.941448 410.890454 
L 483.957687 407.971237 
L 487.006405 408.878921 
L 489.038883 409.151615 
L 491.071361 409.230344 
L 492.087601 409.186869 
L 493.10384 408.9761 
L 494.120079 408.477514 
L 495.136318 408.282252 
L 496.152557 407.322873 
L 497.168796 405.045386 
L 498.185036 402.053073 
L 499.201275 402.709858 
L 500.217514 405.161591 
L 502.249992 407.117382 
L 503.266232 407.500734 
L 505.29871 407.505868 
L 506.314949 407.693025 
L 508.347428 408.268668 
L 510.379906 408.57478 
L 512.412384 408.645982 
L 517.49358 408.463968 
L 520.542298 408.352406 
L 524.607255 408.335707 
L 527.655972 408.622408 
L 528.672211 408.844906 
L 529.68845 409.735025 
L 530.70469 408.963756 
L 531.720929 408.647472 
L 534.769646 409.032515 
L 536.802125 409.006404 
L 543.915799 408.558888 
L 550.013234 408.588739 
L 554.078191 408.142935 
L 557.126908 407.556572 
L 558.143148 407.301982 
L 559.159387 406.887567 
L 560.175626 405.711141 
L 562.208104 405.952801 
L 565.256822 406.028165 
L 577.451692 406.411853 
L 581.516649 406.714466 
L 591.679041 407.813182 
L 592.69528 408.111487 
L 593.711519 408.780511 
L 594.727758 407.490081 
L 595.743998 407.203524 
L 597.776476 407.064803 
L 600.825194 407.184825 
L 602.857672 407.29181 
L 606.922629 407.198862 
L 612.003825 406.851082 
L 615.052542 406.787687 
L 619.117499 406.83046 
L 622.166216 406.759489 
L 623.182456 406.654272 
L 624.198695 406.372234 
L 625.214934 407.656001 
L 627.247412 408.099816 
L 628.263652 406.725282 
L 629.279891 406.591377 
L 630.29613 406.339046 
L 631.312369 406.332768 
L 632.328608 406.740636 
L 633.344847 407.550679 
L 634.361087 409.021767 
L 635.377326 411.468328 
L 636.393565 412.65555 
L 637.409804 414.090797 
L 638.426043 416.672935 
L 639.442283 417.952434 
L 640.458522 413.760842 
L 641.474761 412.065621 
L 642.491 412.074485 
L 644.523479 414.403399 
L 645.539718 415.018671 
L 649.604674 414.470784 
L 650.620914 415.330013 
L 652.653392 414.998289 
L 653.669631 415.00275 
L 654.68587 415.2521 
L 655.70211 417.0019 
L 656.718349 420.163815 
L 657.734588 424.942327 
L 658.750827 425.330717 
L 659.767066 424.718425 
L 660.783306 426.034476 
L 661.799545 428.927015 
L 662.815784 431.219702 
L 663.832023 434.322222 
L 664.848262 440.868185 
L 665.864501 446.277351 
L 666.880741 450.429862 
L 667.89698 450.569911 
L 668.913219 450.27572 
L 669.929458 450.745675 
L 670.945697 456.515475 
L 671.961937 458.325661 
L 672.978176 467.448311 
L 673.994415 451.707275 
L 675.010654 445.745924 
L 676.026893 444.797409 
L 677.043132 442.500251 
L 678.059372 439.845411 
L 679.075611 437.87791 
L 680.09185 436.660182 
L 681.108089 435.268987 
L 684.156807 435.063669 
L 685.173046 434.434918 
L 686.189285 432.691713 
L 687.205524 429.596799 
L 688.221764 424.740345 
L 689.238003 425.765946 
L 690.254242 426.530169 
L 691.270481 425.476697 
L 693.302959 419.907754 
L 694.319199 416.006728 
L 696.351677 400.172992 
L 697.367916 394.880166 
L 698.384155 393.395503 
L 699.400395 391.229606 
L 701.432873 388.211758 
L 702.449112 388.256252 
L 703.465351 379.287503 
L 704.481591 394.057624 
L 705.49783 399.140114 
L 706.514069 400.312723 
L 707.530308 405.7159 
L 708.546547 408.550139 
L 709.562786 410.342039 
L 710.579026 411.527098 
L 711.595265 411.799619 
L 712.611504 411.951944 
L 716.676461 411.933408 
L 721.757657 411.689519 
L 730.903809 411.026994 
L 733.952527 410.617992 
L 735.985005 410.156487 
L 737.001244 409.318207 
L 738.017484 406.3671 
L 739.033723 406.368879 
L 740.049962 406.678221 
L 741.066201 406.677404 
L 742.08244 406.877396 
L 747.163636 406.91242 
L 747.163636 406.91242 
" clip-path="url(#p0415253f63)" style="fill: none; stroke: #1f77b4; stroke-width: 4; stroke-linecap: square"/>
   </g>
   <g id="line2d_30">
    <path d="M 138.436364 89.28 
L 142.50132 169.996169 
L 144.533799 207.84988 
L 146.566277 240.97432 
L 147.582516 255.383942 
L 148.598756 268.101304 
L 149.614995 279.279747 
L 150.631234 289.030446 
L 151.647473 297.472017 
L 152.663712 304.800561 
L 153.679951 311.20754 
L 154.696191 316.858466 
L 156.728669 326.38084 
L 158.761147 334.06836 
L 160.793626 340.360433 
L 162.826104 345.611048 
L 164.858582 349.966609 
L 166.891061 353.783752 
L 167.9073 355.540587 
L 168.923539 366.134594 
L 169.939778 375.359779 
L 170.956018 383.261692 
L 171.972257 389.817568 
L 172.988496 395.091022 
L 174.004735 399.141383 
L 175.020974 402.085337 
L 176.037214 404.147585 
L 177.053453 405.427372 
L 178.069692 406.151245 
L 179.085931 406.520444 
L 180.10217 406.655589 
L 188.232084 406.557382 
L 193.31328 406.471384 
L 199.410715 406.620883 
L 206.524389 406.569197 
L 215.670542 406.544037 
L 221.767977 406.379339 
L 224.816694 406.457193 
L 230.91413 406.599751 
L 233.962847 406.431168 
L 237.011565 406.228225 
L 242.092761 406.215361 
L 248.190196 406.240223 
L 255.30387 406.384655 
L 261.401305 406.083331 
L 264.450023 406.216063 
L 267.49874 406.387953 
L 271.563697 406.384376 
L 279.693611 406.179962 
L 286.807285 406.402489 
L 291.888481 406.596521 
L 296.969677 406.458376 
L 302.050873 406.368946 
L 312.213265 406.652676 
L 321.359417 406.582234 
L 332.538048 406.790475 
L 337.619244 406.708707 
L 347.781636 406.716514 
L 362.008985 406.487997 
L 366.073941 406.618556 
L 372.171377 406.525501 
L 379.285051 406.412411 
L 384.366247 406.556891 
L 388.431204 406.600049 
L 403.674791 406.420352 
L 405.70727 406.479412 
L 406.723509 406.043519 
L 436.194445 406.432197 
L 437.210684 406.889884 
L 443.30812 406.800647 
L 460.584186 406.632006 
L 474.811534 406.875588 
L 479.89273 406.827412 
L 480.908969 406.788004 
L 481.925209 407.479429 
L 482.941448 407.854099 
L 483.957687 407.721223 
L 485.990165 408.576472 
L 487.006405 409.476147 
L 488.022644 410.020333 
L 489.038883 410.235861 
L 490.055122 411.858938 
L 492.087601 416.127346 
L 493.10384 416.551904 
L 494.120079 418.05717 
L 495.136318 419.961276 
L 496.152557 420.613908 
L 497.168796 420.335849 
L 498.185036 420.535957 
L 499.201275 420.135108 
L 501.233753 420.016364 
L 505.29871 419.408947 
L 506.314949 419.309278 
L 508.347428 419.424599 
L 510.379906 419.746545 
L 511.396145 420.04661 
L 512.412384 419.83237 
L 514.444863 420.908521 
L 515.461102 420.673803 
L 516.477341 419.622101 
L 517.49358 419.11814 
L 518.509819 418.204852 
L 519.526059 417.736117 
L 520.542298 415.959658 
L 522.574776 410.823848 
L 523.591015 411.949243 
L 524.607255 410.755954 
L 525.623494 408.649635 
L 526.639733 408.729451 
L 527.655972 409.657565 
L 529.68845 412.342439 
L 530.70469 413.048766 
L 533.753407 416.664052 
L 534.769646 418.941097 
L 536.802125 421.898983 
L 537.818364 422.894155 
L 538.834603 424.278822 
L 540.867081 428.135786 
L 542.89956 431.02919 
L 543.915799 429.872001 
L 544.932038 430.166682 
L 545.948277 431.9305 
L 546.964517 435.195506 
L 547.980756 436.356829 
L 548.996995 437.944036 
L 550.013234 438.631134 
L 551.029473 439.606357 
L 552.045713 442.095604 
L 553.061952 443.377737 
L 554.078191 440.258114 
L 555.09443 439.916257 
L 556.110669 440.598414 
L 557.126908 439.986719 
L 558.143148 439.745761 
L 559.159387 438.104341 
L 560.175626 436.876181 
L 561.191865 435.183431 
L 563.224344 430.527518 
L 564.240583 429.942367 
L 565.256822 428.775728 
L 566.273061 427.937409 
L 568.30554 425.663306 
L 569.321779 425.470784 
L 570.338018 424.470161 
L 571.354257 421.288085 
L 573.386735 417.23907 
L 574.402975 416.884666 
L 575.419214 415.857431 
L 576.435453 413.263208 
L 577.451692 410.059664 
L 578.467931 408.260265 
L 579.484171 406.026964 
L 581.516649 401.203525 
L 582.532888 397.316632 
L 583.549127 394.506073 
L 584.565367 394.058086 
L 585.581606 392.682225 
L 586.597845 390.526894 
L 587.614084 389.007466 
L 588.630323 388.895713 
L 589.646562 388.430103 
L 590.662802 387.635 
L 592.69528 385.571521 
L 593.711519 384.952202 
L 594.727758 383.186837 
L 596.760237 378.888577 
L 597.776476 377.269903 
L 598.792715 378.295225 
L 599.808954 377.210306 
L 600.825194 373.541546 
L 601.841433 371.265462 
L 602.857672 370.614964 
L 603.873911 367.252576 
L 604.89015 365.674445 
L 605.906389 364.873718 
L 606.922629 366.00814 
L 607.938868 367.628045 
L 608.955107 367.694987 
L 609.971346 369.024316 
L 610.987585 373.551045 
L 612.003825 375.684273 
L 613.020064 376.352567 
L 614.036303 374.666777 
L 615.052542 373.273477 
L 616.068781 372.80606 
L 617.08502 372.88478 
L 618.10126 371.4212 
L 620.133738 361.285794 
L 621.149977 358.786375 
L 622.166216 358.344752 
L 623.182456 358.579913 
L 625.214934 359.249514 
L 626.231173 359.802919 
L 627.247412 359.770087 
L 628.263652 360.169167 
L 629.279891 357.721107 
L 630.29613 356.812625 
L 632.328608 366.058605 
L 634.361087 372.032848 
L 635.377326 373.782917 
L 636.393565 376.89382 
L 637.409804 376.910971 
L 638.426043 372.623556 
L 639.442283 371.456801 
L 640.458522 367.514291 
L 641.474761 360.295496 
L 642.491 355.464049 
L 643.507239 351.400978 
L 644.523479 349.784583 
L 647.572196 342.371334 
L 648.588435 341.430251 
L 649.604674 345.864934 
L 651.637153 349.395424 
L 652.653392 354.501459 
L 653.669631 355.471135 
L 654.68587 351.419312 
L 655.70211 351.383278 
L 656.718349 352.204686 
L 657.734588 349.939167 
L 658.750827 345.896613 
L 659.767066 343.698018 
L 660.783306 340.999569 
L 661.799545 335.895947 
L 662.815784 332.217372 
L 663.832023 327.439485 
L 664.848262 330.787528 
L 665.864501 331.519102 
L 666.880741 329.384748 
L 667.89698 325.959215 
L 668.913219 329.624802 
L 669.929458 329.06733 
L 672.978176 347.026209 
L 673.994415 356.321653 
L 676.026893 373.186421 
L 677.043132 377.758625 
L 678.059372 383.456858 
L 679.075611 385.768533 
L 680.09185 385.546688 
L 681.108089 386.410186 
L 682.124328 384.263527 
L 683.140568 380.481658 
L 684.156807 378.948559 
L 685.173046 381.147288 
L 686.189285 380.471217 
L 687.205524 376.397157 
L 688.221764 378.260018 
L 689.238003 380.749785 
L 690.254242 382.54977 
L 692.28672 385.429406 
L 693.302959 386.758417 
L 694.319199 387.462706 
L 695.335438 382.928103 
L 696.351677 381.392908 
L 697.367916 379.159126 
L 698.384155 379.139869 
L 699.400395 376.3876 
L 700.416634 375.112534 
L 701.432873 370.047119 
L 703.465351 361.149687 
L 705.49783 345.434916 
L 706.514069 337.966684 
L 707.530308 333.965162 
L 708.546547 327.751971 
L 709.562786 325.243025 
L 710.579026 321.86562 
L 711.595265 320.376553 
L 712.611504 320.549597 
L 713.627743 317.115738 
L 714.643982 315.239638 
L 715.660222 314.158468 
L 716.676461 310.301792 
L 717.6927 310.669915 
L 721.757657 300.833718 
L 722.773896 298.205816 
L 723.790135 296.151827 
L 724.806374 295.299107 
L 726.838853 291.19083 
L 728.871331 288.01234 
L 729.88757 285.878545 
L 730.903809 285.397764 
L 732.936288 281.982989 
L 733.952527 281.168129 
L 735.985005 281.22166 
L 737.001244 280.986942 
L 738.017484 280.345636 
L 739.033723 280.483521 
L 740.049962 280.179254 
L 741.066201 280.213606 
L 742.08244 280.450669 
L 743.09868 280.030448 
L 746.147397 281.648352 
L 747.163636 283.044547 
L 747.163636 283.044547 
" clip-path="url(#p0415253f63)" style="fill: none; stroke: #ff7f0e; stroke-width: 4; stroke-linecap: square"/>
   </g>
   <g id="line2d_31"/>
   <g id="line2d_32"/>
   <g id="patch_3">
    <path d="M 108 512.64 
L 108 69.12 
" style="fill: none; stroke: #000000; stroke-width: 0.8; stroke-linejoin: miter; stroke-linecap: square"/>
   </g>
   <g id="patch_4">
    <path d="M 777.6 512.64 
L 777.6 69.12 
" style="fill: none; stroke: #000000; stroke-width: 0.8; stroke-linejoin: miter; stroke-linecap: square"/>
   </g>
   <g id="patch_5">
    <path d="M 108 512.64 
L 777.6 512.64 
" style="fill: none; stroke: #000000; stroke-width: 0.8; stroke-linejoin: miter; stroke-linecap: square"/>
   </g>
   <g id="patch_6">
    <path d="M 108 69.12 
L 777.6 69.12 
" style="fill: none; stroke: #000000; stroke-width: 0.8; stroke-linejoin: miter; stroke-linecap: square"/>
   </g>
   <g id="text_17">
    <!-- immunogenicity -->
    <g transform="translate(200.442188 56.641875) scale(0.6 -0.6)">
     <defs>
      <path id="DejaVuSans-69" d="M 603 3500 
L 1178 3500 
L 1178 0 
L 603 0 
L 603 3500 
z
M 603 4863 
L 1178 4863 
L 1178 4134 
L 603 4134 
L 603 4863 
z
" transform="scale(0.015625)"/>
      <path id="DejaVuSans-6d" d="M 3328 2828 
Q 3544 3216 3844 3400 
Q 4144 3584 4550 3584 
Q 5097 3584 5394 3201 
Q 5691 2819 5691 2113 
L 5691 0 
L 5113 0 
L 5113 2094 
Q 5113 2597 4934 2840 
Q 4756 3084 4391 3084 
Q 3944 3084 3684 2787 
Q 3425 2491 3425 1978 
L 3425 0 
L 2847 0 
L 2847 2094 
Q 2847 2600 2669 2842 
Q 2491 3084 2119 3084 
Q 1678 3084 1418 2786 
Q 1159 2488 1159 1978 
L 1159 0 
L 581 0 
L 581 3500 
L 1159 3500 
L 1159 2956 
Q 1356 3278 1631 3431 
Q 1906 3584 2284 3584 
Q 2666 3584 2933 3390 
Q 3200 3197 3328 2828 
z
" transform="scale(0.015625)"/>
      <path id="DejaVuSans-75" d="M 544 1381 
L 544 3500 
L 1119 3500 
L 1119 1403 
Q 1119 906 1312 657 
Q 1506 409 1894 409 
Q 2359 409 2629 706 
Q 2900 1003 2900 1516 
L 2900 3500 
L 3475 3500 
L 3475 0 
L 2900 0 
L 2900 538 
Q 2691 219 2414 64 
Q 2138 -91 1772 -91 
Q 1169 -91 856 284 
Q 544 659 544 1381 
z
M 1991 3584 
L 1991 3584 
z
" transform="scale(0.015625)"/>
      <path id="DejaVuSans-6e" d="M 3513 2113 
L 3513 0 
L 2938 0 
L 2938 2094 
Q 2938 2591 2744 2837 
Q 2550 3084 2163 3084 
Q 1697 3084 1428 2787 
Q 1159 2491 1159 1978 
L 1159 0 
L 581 0 
L 581 3500 
L 1159 3500 
L 1159 2956 
Q 1366 3272 1645 3428 
Q 1925 3584 2291 3584 
Q 2894 3584 3203 3211 
Q 3513 2838 3513 2113 
z
" transform="scale(0.015625)"/>
      <path id="DejaVuSans-6f" d="M 1959 3097 
Q 1497 3097 1228 2736 
Q 959 2375 959 1747 
Q 959 1119 1226 758 
Q 1494 397 1959 397 
Q 2419 397 2687 759 
Q 2956 1122 2956 1747 
Q 2956 2369 2687 2733 
Q 2419 3097 1959 3097 
z
M 1959 3584 
Q 2709 3584 3137 3096 
Q 3566 2609 3566 1747 
Q 3566 888 3137 398 
Q 2709 -91 1959 -91 
Q 1206 -91 779 398 
Q 353 888 353 1747 
Q 353 2609 779 3096 
Q 1206 3584 1959 3584 
z
" transform="scale(0.015625)"/>
      <path id="DejaVuSans-67" d="M 2906 1791 
Q 2906 2416 2648 2759 
Q 2391 3103 1925 3103 
Q 1463 3103 1205 2759 
Q 947 2416 947 1791 
Q 947 1169 1205 825 
Q 1463 481 1925 481 
Q 2391 481 2648 825 
Q 2906 1169 2906 1791 
z
M 3481 434 
Q 3481 -459 3084 -895 
Q 2688 -1331 1869 -1331 
Q 1566 -1331 1297 -1286 
Q 1028 -1241 775 -1147 
L 775 -588 
Q 1028 -725 1275 -790 
Q 1522 -856 1778 -856 
Q 2344 -856 2625 -561 
Q 2906 -266 2906 331 
L 2906 616 
Q 2728 306 2450 153 
Q 2172 0 1784 0 
Q 1141 0 747 490 
Q 353 981 353 1791 
Q 353 2603 747 3093 
Q 1141 3584 1784 3584 
Q 2172 3584 2450 3431 
Q 2728 3278 2906 2969 
L 2906 3500 
L 3481 3500 
L 3481 434 
z
" transform="scale(0.015625)"/>
      <path id="DejaVuSans-63" d="M 3122 3366 
L 3122 2828 
Q 2878 2963 2633 3030 
Q 2388 3097 2138 3097 
Q 1578 3097 1268 2742 
Q 959 2388 959 1747 
Q 959 1106 1268 751 
Q 1578 397 2138 397 
Q 2388 397 2633 464 
Q 2878 531 3122 666 
L 3122 134 
Q 2881 22 2623 -34 
Q 2366 -91 2075 -91 
Q 1284 -91 818 406 
Q 353 903 353 1747 
Q 353 2603 823 3093 
Q 1294 3584 2113 3584 
Q 2378 3584 2631 3529 
Q 2884 3475 3122 3366 
z
" transform="scale(0.015625)"/>
      <path id="DejaVuSans-79" d="M 2059 -325 
Q 1816 -950 1584 -1140 
Q 1353 -1331 966 -1331 
L 506 -1331 
L 506 -850 
L 844 -850 
Q 1081 -850 1212 -737 
Q 1344 -625 1503 -206 
L 1606 56 
L 191 3500 
L 800 3500 
L 1894 763 
L 2988 3500 
L 3597 3500 
L 2059 -325 
z
" transform="scale(0.015625)"/>
     </defs>
     <use xlink:href="#DejaVuSans-69"/>
     <use xlink:href="#DejaVuSans-6d" x="27.783203"/>
     <use xlink:href="#DejaVuSans-6d" x="125.195312"/>
     <use xlink:href="#DejaVuSans-75" x="222.607422"/>
     <use xlink:href="#DejaVuSans-6e" x="285.986328"/>
     <use xlink:href="#DejaVuSans-6f" x="349.365234"/>
     <use xlink:href="#DejaVuSans-67" x="410.546875"/>
     <use xlink:href="#DejaVuSans-65" x="474.023438"/>
     <use xlink:href="#DejaVuSans-6e" x="535.546875"/>
     <use xlink:href="#DejaVuSans-69" x="598.925781"/>
     <use xlink:href="#DejaVuSans-63" x="626.708984"/>
     <use xlink:href="#DejaVuSans-69" x="681.689453"/>
     <use xlink:href="#DejaVuSans-74" x="709.472656"/>
     <use xlink:href="#DejaVuSans-79" x="748.681641"/>
    </g>
   </g>
   <g id="legend_1">
    <g id="patch_7">
     <path d="M 483.93125 218.545 
L 749.6 218.545 
Q 757.6 218.545 757.6 210.545 
L 757.6 97.12 
Q 757.6 89.12 749.6 89.12 
L 483.93125 89.12 
Q 475.93125 89.12 475.93125 97.12 
L 475.93125 210.545 
Q 475.93125 218.545 483.93125 218.545 
z
" style="fill: #ffffff; opacity: 0.8; stroke: #cccccc; stroke-linejoin: miter"/>
    </g>
    <g id="line2d_33">
     <path d="M 491.93125 121.51375 
L 531.93125 121.51375 
L 571.93125 121.51375 
" style="fill: none; stroke: #1f77b4; stroke-width: 4; stroke-linecap: square"/>
    </g>
    <g id="text_18">
     <!-- local -->
     <g transform="translate(603.93125 135.51375) scale(0.4 -0.4)">
      <defs>
       <path id="DejaVuSans-6c" d="M 603 4863 
L 1178 4863 
L 1178 0 
L 603 0 
L 603 4863 
z
" transform="scale(0.015625)"/>
       <path id="DejaVuSans-61" d="M 2194 1759 
Q 1497 1759 1228 1600 
Q 959 1441 959 1056 
Q 959 750 1161 570 
Q 1363 391 1709 391 
Q 2188 391 2477 730 
Q 2766 1069 2766 1631 
L 2766 1759 
L 2194 1759 
z
M 3341 1997 
L 3341 0 
L 2766 0 
L 2766 531 
Q 2569 213 2275 61 
Q 1981 -91 1556 -91 
Q 1019 -91 701 211 
Q 384 513 384 1019 
Q 384 1609 779 1909 
Q 1175 2209 1959 2209 
L 2766 2209 
L 2766 2266 
Q 2766 2663 2505 2880 
Q 2244 3097 1772 3097 
Q 1472 3097 1187 3025 
Q 903 2953 641 2809 
L 641 3341 
Q 956 3463 1253 3523 
Q 1550 3584 1831 3584 
Q 2591 3584 2966 3190 
Q 3341 2797 3341 1997 
z
" transform="scale(0.015625)"/>
      </defs>
      <use xlink:href="#DejaVuSans-6c"/>
      <use xlink:href="#DejaVuSans-6f" x="27.783203"/>
      <use xlink:href="#DejaVuSans-63" x="88.964844"/>
      <use xlink:href="#DejaVuSans-61" x="143.945312"/>
      <use xlink:href="#DejaVuSans-6c" x="205.224609"/>
     </g>
    </g>
    <g id="line2d_34">
     <path d="M 491.93125 180.22625 
L 531.93125 180.22625 
L 571.93125 180.22625 
" style="fill: none; stroke: #ff7f0e; stroke-width: 4; stroke-linecap: square"/>
    </g>
    <g id="text_19">
     <!-- fedavg -->
     <g transform="translate(603.93125 194.22625) scale(0.4 -0.4)">
      <defs>
       <path id="DejaVuSans-66" d="M 2375 4863 
L 2375 4384 
L 1825 4384 
Q 1516 4384 1395 4259 
Q 1275 4134 1275 3809 
L 1275 3500 
L 2222 3500 
L 2222 3053 
L 1275 3053 
L 1275 0 
L 697 0 
L 697 3053 
L 147 3053 
L 147 3500 
L 697 3500 
L 697 3744 
Q 697 4328 969 4595 
Q 1241 4863 1831 4863 
L 2375 4863 
z
" transform="scale(0.015625)"/>
       <path id="DejaVuSans-64" d="M 2906 2969 
L 2906 4863 
L 3481 4863 
L 3481 0 
L 2906 0 
L 2906 525 
Q 2725 213 2448 61 
Q 2172 -91 1784 -91 
Q 1150 -91 751 415 
Q 353 922 353 1747 
Q 353 2572 751 3078 
Q 1150 3584 1784 3584 
Q 2172 3584 2448 3432 
Q 2725 3281 2906 2969 
z
M 947 1747 
Q 947 1113 1208 752 
Q 1469 391 1925 391 
Q 2381 391 2643 752 
Q 2906 1113 2906 1747 
Q 2906 2381 2643 2742 
Q 2381 3103 1925 3103 
Q 1469 3103 1208 2742 
Q 947 2381 947 1747 
z
" transform="scale(0.015625)"/>
       <path id="DejaVuSans-76" d="M 191 3500 
L 800 3500 
L 1894 563 
L 2988 3500 
L 3597 3500 
L 2284 0 
L 1503 0 
L 191 3500 
z
" transform="scale(0.015625)"/>
      </defs>
      <use xlink:href="#DejaVuSans-66"/>
      <use xlink:href="#DejaVuSans-65" x="35.205078"/>
      <use xlink:href="#DejaVuSans-64" x="96.728516"/>
      <use xlink:href="#DejaVuSans-61" x="160.205078"/>
      <use xlink:href="#DejaVuSans-76" x="221.484375"/>
      <use xlink:href="#DejaVuSans-67" x="280.664062"/>
     </g>
    </g>
   </g>
  </g>
 </g>
 <defs>
  <clipPath id="p0415253f63">
   <rect x="108" y="69.12" width="669.6" height="443.52"/>
  </clipPath>
 </defs>
</svg>
