<?xml version="1.0" encoding="utf-8" standalone="no"?>
<!DOCTYPE svg PUBLIC "-//W3C//DTD SVG 1.1//EN"
  "http://www.w3.org/Graphics/SVG/1.1/DTD/svg11.dtd">
<svg xmlns:xlink="http://www.w3.org/1999/xlink" width="864pt" height="576pt" viewBox="0 0 864 576" xmlns="http://www.w3.org/2000/svg" version="1.1">
 <metadata>
  <rdf:RDF xmlns:dc="http://purl.org/dc/elements/1.1/" xmlns:cc="http://creativecommons.org/ns#" xmlns:rdf="http://www.w3.org/1999/02/22-rdf-syntax-ns#">
   <cc:Work>
    <dc:type rdf:resource="http://purl.org/dc/dcmitype/StillImage"/>
    <dc:date>2025-04-25T14:16:23.604877</dc:date>
    <dc:format>image/svg+xml</dc:format>
    <dc:creator>
     <cc:Agent>
      <dc:title>Matplotlib v3.8.2, https://matplotlib.org/</dc:title>
     </cc:Agent>
    </dc:creator>
   </cc:Work>
  </rdf:RDF>
 </metadata>
 <defs>
  <style type="text/css">*{stroke-linejoin: round; stroke-linecap: butt}</style>
 </defs>
 <g id="figure_1">
  <g id="patch_1">
   <path d="M 0 576 
L 864 576 
L 864 0 
L 0 0 
z
" style="fill: #ffffff"/>
  </g>
  <g id="axes_1">
   <g id="patch_2">
    <path d="M 108 512.64 
L 777.6 512.64 
L 777.6 69.12 
L 108 69.12 
z
" style="fill: #ffffff"/>
   </g>
   <g id="PolyCollection_1"/>
   <g id="PolyCollection_2"/>
   <g id="matplotlib.axis_1">
    <g id="xtick_1">
     <g id="line2d_1">
      <path d="M 137.420124 512.64 
L 137.420124 69.12 
" clip-path="url(#p9e9c6316ef)" style="fill: none; stroke: #b0b0b0; stroke-width: 0.8; stroke-linecap: square"/>
     </g>
     <g id="line2d_2">
      <defs>
       <path id="m2372d28e9b" d="M 0 0 
L 0 3.5 
" style="stroke: #000000; stroke-width: 0.8"/>
      </defs>
      <g>
       <use xlink:href="#m2372d28e9b" x="137.420124" y="512.64" style="stroke: #000000; stroke-width: 0.8"/>
      </g>
     </g>
     <g id="text_1">
      <!-- 0 -->
      <g transform="translate(127.876374 542.435313) scale(0.3 -0.3)">
       <defs>
        <path id="DejaVuSans-30" d="M 2034 4250 
Q 1547 4250 1301 3770 
Q 1056 3291 1056 2328 
Q 1056 1369 1301 889 
Q 1547 409 2034 409 
Q 2525 409 2770 889 
Q 3016 1369 3016 2328 
Q 3016 3291 2770 3770 
Q 2525 4250 2034 4250 
z
M 2034 4750 
Q 2819 4750 3233 4129 
Q 3647 3509 3647 2328 
Q 3647 1150 3233 529 
Q 2819 -91 2034 -91 
Q 1250 -91 836 529 
Q 422 1150 422 2328 
Q 422 3509 836 4129 
Q 1250 4750 2034 4750 
z
" transform="scale(0.015625)"/>
       </defs>
       <use xlink:href="#DejaVuSans-30"/>
      </g>
     </g>
    </g>
    <g id="xtick_2">
     <g id="line2d_3">
      <path d="M 229.805505 512.64 
L 229.805505 69.12 
" clip-path="url(#p9e9c6316ef)" style="fill: none; stroke: #b0b0b0; stroke-width: 0.8; stroke-linecap: square"/>
     </g>
     <g id="line2d_4">
      <g>
       <use xlink:href="#m2372d28e9b" x="229.805505" y="512.64" style="stroke: #000000; stroke-width: 0.8"/>
      </g>
     </g>
     <g id="text_2">
      <!-- 1000 -->
      <g transform="translate(191.630505 542.435313) scale(0.3 -0.3)">
       <defs>
        <path id="DejaVuSans-31" d="M 794 531 
L 1825 531 
L 1825 4091 
L 703 3866 
L 703 4441 
L 1819 4666 
L 2450 4666 
L 2450 531 
L 3481 531 
L 3481 0 
L 794 0 
L 794 531 
z
" transform="scale(0.015625)"/>
       </defs>
       <use xlink:href="#DejaVuSans-31"/>
       <use xlink:href="#DejaVuSans-30" x="63.623047"/>
       <use xlink:href="#DejaVuSans-30" x="127.246094"/>
       <use xlink:href="#DejaVuSans-30" x="190.869141"/>
      </g>
     </g>
    </g>
    <g id="xtick_3">
     <g id="line2d_5">
      <path d="M 322.190886 512.64 
L 322.190886 69.12 
" clip-path="url(#p9e9c6316ef)" style="fill: none; stroke: #b0b0b0; stroke-width: 0.8; stroke-linecap: square"/>
     </g>
     <g id="line2d_6">
      <g>
       <use xlink:href="#m2372d28e9b" x="322.190886" y="512.64" style="stroke: #000000; stroke-width: 0.8"/>
      </g>
     </g>
     <g id="text_3">
      <!-- 2000 -->
      <g transform="translate(284.015886 542.435313) scale(0.3 -0.3)">
       <defs>
        <path id="DejaVuSans-32" d="M 1228 531 
L 3431 531 
L 3431 0 
L 469 0 
L 469 531 
Q 828 903 1448 1529 
Q 2069 2156 2228 2338 
Q 2531 2678 2651 2914 
Q 2772 3150 2772 3378 
Q 2772 3750 2511 3984 
Q 2250 4219 1831 4219 
Q 1534 4219 1204 4116 
Q 875 4013 500 3803 
L 500 4441 
Q 881 4594 1212 4672 
Q 1544 4750 1819 4750 
Q 2544 4750 2975 4387 
Q 3406 4025 3406 3419 
Q 3406 3131 3298 2873 
Q 3191 2616 2906 2266 
Q 2828 2175 2409 1742 
Q 1991 1309 1228 531 
z
" transform="scale(0.015625)"/>
       </defs>
       <use xlink:href="#DejaVuSans-32"/>
       <use xlink:href="#DejaVuSans-30" x="63.623047"/>
       <use xlink:href="#DejaVuSans-30" x="127.246094"/>
       <use xlink:href="#DejaVuSans-30" x="190.869141"/>
      </g>
     </g>
    </g>
    <g id="xtick_4">
     <g id="line2d_7">
      <path d="M 414.576266 512.64 
L 414.576266 69.12 
" clip-path="url(#p9e9c6316ef)" style="fill: none; stroke: #b0b0b0; stroke-width: 0.8; stroke-linecap: square"/>
     </g>
     <g id="line2d_8">
      <g>
       <use xlink:href="#m2372d28e9b" x="414.576266" y="512.64" style="stroke: #000000; stroke-width: 0.8"/>
      </g>
     </g>
     <g id="text_4">
      <!-- 3000 -->
      <g transform="translate(376.401266 542.435313) scale(0.3 -0.3)">
       <defs>
        <path id="DejaVuSans-33" d="M 2597 2516 
Q 3050 2419 3304 2112 
Q 3559 1806 3559 1356 
Q 3559 666 3084 287 
Q 2609 -91 1734 -91 
Q 1441 -91 1130 -33 
Q 819 25 488 141 
L 488 750 
Q 750 597 1062 519 
Q 1375 441 1716 441 
Q 2309 441 2620 675 
Q 2931 909 2931 1356 
Q 2931 1769 2642 2001 
Q 2353 2234 1838 2234 
L 1294 2234 
L 1294 2753 
L 1863 2753 
Q 2328 2753 2575 2939 
Q 2822 3125 2822 3475 
Q 2822 3834 2567 4026 
Q 2313 4219 1838 4219 
Q 1578 4219 1281 4162 
Q 984 4106 628 3988 
L 628 4550 
Q 988 4650 1302 4700 
Q 1616 4750 1894 4750 
Q 2613 4750 3031 4423 
Q 3450 4097 3450 3541 
Q 3450 3153 3228 2886 
Q 3006 2619 2597 2516 
z
" transform="scale(0.015625)"/>
       </defs>
       <use xlink:href="#DejaVuSans-33"/>
       <use xlink:href="#DejaVuSans-30" x="63.623047"/>
       <use xlink:href="#DejaVuSans-30" x="127.246094"/>
       <use xlink:href="#DejaVuSans-30" x="190.869141"/>
      </g>
     </g>
    </g>
    <g id="xtick_5">
     <g id="line2d_9">
      <path d="M 506.961647 512.64 
L 506.961647 69.12 
" clip-path="url(#p9e9c6316ef)" style="fill: none; stroke: #b0b0b0; stroke-width: 0.8; stroke-linecap: square"/>
     </g>
     <g id="line2d_10">
      <g>
       <use xlink:href="#m2372d28e9b" x="506.961647" y="512.64" style="stroke: #000000; stroke-width: 0.8"/>
      </g>
     </g>
     <g id="text_5">
      <!-- 4000 -->
      <g transform="translate(468.786647 542.435313) scale(0.3 -0.3)">
       <defs>
        <path id="DejaVuSans-34" d="M 2419 4116 
L 825 1625 
L 2419 1625 
L 2419 4116 
z
M 2253 4666 
L 3047 4666 
L 3047 1625 
L 3713 1625 
L 3713 1100 
L 3047 1100 
L 3047 0 
L 2419 0 
L 2419 1100 
L 313 1100 
L 313 1709 
L 2253 4666 
z
" transform="scale(0.015625)"/>
       </defs>
       <use xlink:href="#DejaVuSans-34"/>
       <use xlink:href="#DejaVuSans-30" x="63.623047"/>
       <use xlink:href="#DejaVuSans-30" x="127.246094"/>
       <use xlink:href="#DejaVuSans-30" x="190.869141"/>
      </g>
     </g>
    </g>
    <g id="xtick_6">
     <g id="line2d_11">
      <path d="M 599.347027 512.64 
L 599.347027 69.12 
" clip-path="url(#p9e9c6316ef)" style="fill: none; stroke: #b0b0b0; stroke-width: 0.8; stroke-linecap: square"/>
     </g>
     <g id="line2d_12">
      <g>
       <use xlink:href="#m2372d28e9b" x="599.347027" y="512.64" style="stroke: #000000; stroke-width: 0.8"/>
      </g>
     </g>
     <g id="text_6">
      <!-- 5000 -->
      <g transform="translate(561.172027 542.435313) scale(0.3 -0.3)">
       <defs>
        <path id="DejaVuSans-35" d="M 691 4666 
L 3169 4666 
L 3169 4134 
L 1269 4134 
L 1269 2991 
Q 1406 3038 1543 3061 
Q 1681 3084 1819 3084 
Q 2600 3084 3056 2656 
Q 3513 2228 3513 1497 
Q 3513 744 3044 326 
Q 2575 -91 1722 -91 
Q 1428 -91 1123 -41 
Q 819 9 494 109 
L 494 744 
Q 775 591 1075 516 
Q 1375 441 1709 441 
Q 2250 441 2565 725 
Q 2881 1009 2881 1497 
Q 2881 1984 2565 2268 
Q 2250 2553 1709 2553 
Q 1456 2553 1204 2497 
Q 953 2441 691 2322 
L 691 4666 
z
" transform="scale(0.015625)"/>
       </defs>
       <use xlink:href="#DejaVuSans-35"/>
       <use xlink:href="#DejaVuSans-30" x="63.623047"/>
       <use xlink:href="#DejaVuSans-30" x="127.246094"/>
       <use xlink:href="#DejaVuSans-30" x="190.869141"/>
      </g>
     </g>
    </g>
    <g id="xtick_7">
     <g id="line2d_13">
      <path d="M 691.732408 512.64 
L 691.732408 69.12 
" clip-path="url(#p9e9c6316ef)" style="fill: none; stroke: #b0b0b0; stroke-width: 0.8; stroke-linecap: square"/>
     </g>
     <g id="line2d_14">
      <g>
       <use xlink:href="#m2372d28e9b" x="691.732408" y="512.64" style="stroke: #000000; stroke-width: 0.8"/>
      </g>
     </g>
     <g id="text_7">
      <!-- 6000 -->
      <g transform="translate(653.557408 542.435313) scale(0.3 -0.3)">
       <defs>
        <path id="DejaVuSans-36" d="M 2113 2584 
Q 1688 2584 1439 2293 
Q 1191 2003 1191 1497 
Q 1191 994 1439 701 
Q 1688 409 2113 409 
Q 2538 409 2786 701 
Q 3034 994 3034 1497 
Q 3034 2003 2786 2293 
Q 2538 2584 2113 2584 
z
M 3366 4563 
L 3366 3988 
Q 3128 4100 2886 4159 
Q 2644 4219 2406 4219 
Q 1781 4219 1451 3797 
Q 1122 3375 1075 2522 
Q 1259 2794 1537 2939 
Q 1816 3084 2150 3084 
Q 2853 3084 3261 2657 
Q 3669 2231 3669 1497 
Q 3669 778 3244 343 
Q 2819 -91 2113 -91 
Q 1303 -91 875 529 
Q 447 1150 447 2328 
Q 447 3434 972 4092 
Q 1497 4750 2381 4750 
Q 2619 4750 2861 4703 
Q 3103 4656 3366 4563 
z
" transform="scale(0.015625)"/>
       </defs>
       <use xlink:href="#DejaVuSans-36"/>
       <use xlink:href="#DejaVuSans-30" x="63.623047"/>
       <use xlink:href="#DejaVuSans-30" x="127.246094"/>
       <use xlink:href="#DejaVuSans-30" x="190.869141"/>
      </g>
     </g>
    </g>
    <g id="text_8">
     <!-- Steps -->
     <g transform="translate(386.840625 583.068125) scale(0.4 -0.4)">
      <defs>
       <path id="DejaVuSans-53" d="M 3425 4513 
L 3425 3897 
Q 3066 4069 2747 4153 
Q 2428 4238 2131 4238 
Q 1616 4238 1336 4038 
Q 1056 3838 1056 3469 
Q 1056 3159 1242 3001 
Q 1428 2844 1947 2747 
L 2328 2669 
Q 3034 2534 3370 2195 
Q 3706 1856 3706 1288 
Q 3706 609 3251 259 
Q 2797 -91 1919 -91 
Q 1588 -91 1214 -16 
Q 841 59 441 206 
L 441 856 
Q 825 641 1194 531 
Q 1563 422 1919 422 
Q 2459 422 2753 634 
Q 3047 847 3047 1241 
Q 3047 1584 2836 1778 
Q 2625 1972 2144 2069 
L 1759 2144 
Q 1053 2284 737 2584 
Q 422 2884 422 3419 
Q 422 4038 858 4394 
Q 1294 4750 2059 4750 
Q 2388 4750 2728 4690 
Q 3069 4631 3425 4513 
z
" transform="scale(0.015625)"/>
       <path id="DejaVuSans-74" d="M 1172 4494 
L 1172 3500 
L 2356 3500 
L 2356 3053 
L 1172 3053 
L 1172 1153 
Q 1172 725 1289 603 
Q 1406 481 1766 481 
L 2356 481 
L 2356 0 
L 1766 0 
Q 1100 0 847 248 
Q 594 497 594 1153 
L 594 3053 
L 172 3053 
L 172 3500 
L 594 3500 
L 594 4494 
L 1172 4494 
z
" transform="scale(0.015625)"/>
       <path id="DejaVuSans-65" d="M 3597 1894 
L 3597 1613 
L 953 1613 
Q 991 1019 1311 708 
Q 1631 397 2203 397 
Q 2534 397 2845 478 
Q 3156 559 3463 722 
L 3463 178 
Q 3153 47 2828 -22 
Q 2503 -91 2169 -91 
Q 1331 -91 842 396 
Q 353 884 353 1716 
Q 353 2575 817 3079 
Q 1281 3584 2069 3584 
Q 2775 3584 3186 3129 
Q 3597 2675 3597 1894 
z
M 3022 2063 
Q 3016 2534 2758 2815 
Q 2500 3097 2075 3097 
Q 1594 3097 1305 2825 
Q 1016 2553 972 2059 
L 3022 2063 
z
" transform="scale(0.015625)"/>
       <path id="DejaVuSans-70" d="M 1159 525 
L 1159 -1331 
L 581 -1331 
L 581 3500 
L 1159 3500 
L 1159 2969 
Q 1341 3281 1617 3432 
Q 1894 3584 2278 3584 
Q 2916 3584 3314 3078 
Q 3713 2572 3713 1747 
Q 3713 922 3314 415 
Q 2916 -91 2278 -91 
Q 1894 -91 1617 61 
Q 1341 213 1159 525 
z
M 3116 1747 
Q 3116 2381 2855 2742 
Q 2594 3103 2138 3103 
Q 1681 3103 1420 2742 
Q 1159 2381 1159 1747 
Q 1159 1113 1420 752 
Q 1681 391 2138 391 
Q 2594 391 2855 752 
Q 3116 1113 3116 1747 
z
" transform="scale(0.015625)"/>
       <path id="DejaVuSans-73" d="M 2834 3397 
L 2834 2853 
Q 2591 2978 2328 3040 
Q 2066 3103 1784 3103 
Q 1356 3103 1142 2972 
Q 928 2841 928 2578 
Q 928 2378 1081 2264 
Q 1234 2150 1697 2047 
L 1894 2003 
Q 2506 1872 2764 1633 
Q 3022 1394 3022 966 
Q 3022 478 2636 193 
Q 2250 -91 1575 -91 
Q 1294 -91 989 -36 
Q 684 19 347 128 
L 347 722 
Q 666 556 975 473 
Q 1284 391 1588 391 
Q 1994 391 2212 530 
Q 2431 669 2431 922 
Q 2431 1156 2273 1281 
Q 2116 1406 1581 1522 
L 1381 1569 
Q 847 1681 609 1914 
Q 372 2147 372 2553 
Q 372 3047 722 3315 
Q 1072 3584 1716 3584 
Q 2034 3584 2315 3537 
Q 2597 3491 2834 3397 
z
" transform="scale(0.015625)"/>
      </defs>
      <use xlink:href="#DejaVuSans-53"/>
      <use xlink:href="#DejaVuSans-74" x="63.476562"/>
      <use xlink:href="#DejaVuSans-65" x="102.685547"/>
      <use xlink:href="#DejaVuSans-70" x="164.208984"/>
      <use xlink:href="#DejaVuSans-73" x="227.685547"/>
     </g>
    </g>
   </g>
   <g id="matplotlib.axis_2">
    <g id="ytick_1">
     <g id="line2d_15">
      <path d="M 108 506.448858 
L 777.6 506.448858 
" clip-path="url(#p9e9c6316ef)" style="fill: none; stroke: #b0b0b0; stroke-width: 0.8; stroke-linecap: square"/>
     </g>
     <g id="line2d_16">
      <defs>
       <path id="m204d3b824c" d="M 0 0 
L -3.5 0 
" style="stroke: #000000; stroke-width: 0.8"/>
      </defs>
      <g>
       <use xlink:href="#m204d3b824c" x="108" y="506.448858" style="stroke: #000000; stroke-width: 0.8"/>
      </g>
     </g>
     <g id="text_9">
      <!-- 244 -->
      <g transform="translate(43.7375 517.846514) scale(0.3 -0.3)">
       <use xlink:href="#DejaVuSans-32"/>
       <use xlink:href="#DejaVuSans-34" x="63.623047"/>
       <use xlink:href="#DejaVuSans-34" x="127.246094"/>
      </g>
     </g>
    </g>
    <g id="ytick_2">
     <g id="line2d_17">
      <path d="M 108 437.327656 
L 777.6 437.327656 
" clip-path="url(#p9e9c6316ef)" style="fill: none; stroke: #b0b0b0; stroke-width: 0.8; stroke-linecap: square"/>
     </g>
     <g id="line2d_18">
      <g>
       <use xlink:href="#m204d3b824c" x="108" y="437.327656" style="stroke: #000000; stroke-width: 0.8"/>
      </g>
     </g>
     <g id="text_10">
      <!-- 246 -->
      <g transform="translate(43.7375 448.725312) scale(0.3 -0.3)">
       <use xlink:href="#DejaVuSans-32"/>
       <use xlink:href="#DejaVuSans-34" x="63.623047"/>
       <use xlink:href="#DejaVuSans-36" x="127.246094"/>
      </g>
     </g>
    </g>
    <g id="ytick_3">
     <g id="line2d_19">
      <path d="M 108 368.206453 
L 777.6 368.206453 
" clip-path="url(#p9e9c6316ef)" style="fill: none; stroke: #b0b0b0; stroke-width: 0.8; stroke-linecap: square"/>
     </g>
     <g id="line2d_20">
      <g>
       <use xlink:href="#m204d3b824c" x="108" y="368.206453" style="stroke: #000000; stroke-width: 0.8"/>
      </g>
     </g>
     <g id="text_11">
      <!-- 248 -->
      <g transform="translate(43.7375 379.60411) scale(0.3 -0.3)">
       <defs>
        <path id="DejaVuSans-38" d="M 2034 2216 
Q 1584 2216 1326 1975 
Q 1069 1734 1069 1313 
Q 1069 891 1326 650 
Q 1584 409 2034 409 
Q 2484 409 2743 651 
Q 3003 894 3003 1313 
Q 3003 1734 2745 1975 
Q 2488 2216 2034 2216 
z
M 1403 2484 
Q 997 2584 770 2862 
Q 544 3141 544 3541 
Q 544 4100 942 4425 
Q 1341 4750 2034 4750 
Q 2731 4750 3128 4425 
Q 3525 4100 3525 3541 
Q 3525 3141 3298 2862 
Q 3072 2584 2669 2484 
Q 3125 2378 3379 2068 
Q 3634 1759 3634 1313 
Q 3634 634 3220 271 
Q 2806 -91 2034 -91 
Q 1263 -91 848 271 
Q 434 634 434 1313 
Q 434 1759 690 2068 
Q 947 2378 1403 2484 
z
M 1172 3481 
Q 1172 3119 1398 2916 
Q 1625 2713 2034 2713 
Q 2441 2713 2670 2916 
Q 2900 3119 2900 3481 
Q 2900 3844 2670 4047 
Q 2441 4250 2034 4250 
Q 1625 4250 1398 4047 
Q 1172 3844 1172 3481 
z
" transform="scale(0.015625)"/>
       </defs>
       <use xlink:href="#DejaVuSans-32"/>
       <use xlink:href="#DejaVuSans-34" x="63.623047"/>
       <use xlink:href="#DejaVuSans-38" x="127.246094"/>
      </g>
     </g>
    </g>
    <g id="ytick_4">
     <g id="line2d_21">
      <path d="M 108 299.085251 
L 777.6 299.085251 
" clip-path="url(#p9e9c6316ef)" style="fill: none; stroke: #b0b0b0; stroke-width: 0.8; stroke-linecap: square"/>
     </g>
     <g id="line2d_22">
      <g>
       <use xlink:href="#m204d3b824c" x="108" y="299.085251" style="stroke: #000000; stroke-width: 0.8"/>
      </g>
     </g>
     <g id="text_12">
      <!-- 250 -->
      <g transform="translate(43.7375 310.482907) scale(0.3 -0.3)">
       <use xlink:href="#DejaVuSans-32"/>
       <use xlink:href="#DejaVuSans-35" x="63.623047"/>
       <use xlink:href="#DejaVuSans-30" x="127.246094"/>
      </g>
     </g>
    </g>
    <g id="ytick_5">
     <g id="line2d_23">
      <path d="M 108 229.964049 
L 777.6 229.964049 
" clip-path="url(#p9e9c6316ef)" style="fill: none; stroke: #b0b0b0; stroke-width: 0.8; stroke-linecap: square"/>
     </g>
     <g id="line2d_24">
      <g>
       <use xlink:href="#m204d3b824c" x="108" y="229.964049" style="stroke: #000000; stroke-width: 0.8"/>
      </g>
     </g>
     <g id="text_13">
      <!-- 252 -->
      <g transform="translate(43.7375 241.361705) scale(0.3 -0.3)">
       <use xlink:href="#DejaVuSans-32"/>
       <use xlink:href="#DejaVuSans-35" x="63.623047"/>
       <use xlink:href="#DejaVuSans-32" x="127.246094"/>
      </g>
     </g>
    </g>
    <g id="ytick_6">
     <g id="line2d_25">
      <path d="M 108 160.842846 
L 777.6 160.842846 
" clip-path="url(#p9e9c6316ef)" style="fill: none; stroke: #b0b0b0; stroke-width: 0.8; stroke-linecap: square"/>
     </g>
     <g id="line2d_26">
      <g>
       <use xlink:href="#m204d3b824c" x="108" y="160.842846" style="stroke: #000000; stroke-width: 0.8"/>
      </g>
     </g>
     <g id="text_14">
      <!-- 254 -->
      <g transform="translate(43.7375 172.240503) scale(0.3 -0.3)">
       <use xlink:href="#DejaVuSans-32"/>
       <use xlink:href="#DejaVuSans-35" x="63.623047"/>
       <use xlink:href="#DejaVuSans-34" x="127.246094"/>
      </g>
     </g>
    </g>
    <g id="ytick_7">
     <g id="line2d_27">
      <path d="M 108 91.721644 
L 777.6 91.721644 
" clip-path="url(#p9e9c6316ef)" style="fill: none; stroke: #b0b0b0; stroke-width: 0.8; stroke-linecap: square"/>
     </g>
     <g id="line2d_28">
      <g>
       <use xlink:href="#m204d3b824c" x="108" y="91.721644" style="stroke: #000000; stroke-width: 0.8"/>
      </g>
     </g>
     <g id="text_15">
      <!-- 256 -->
      <g transform="translate(43.7375 103.1193) scale(0.3 -0.3)">
       <use xlink:href="#DejaVuSans-32"/>
       <use xlink:href="#DejaVuSans-35" x="63.623047"/>
       <use xlink:href="#DejaVuSans-36" x="127.246094"/>
      </g>
     </g>
    </g>
    <g id="text_16">
     <!-- RMSE -->
     <g transform="translate(31.41875 347.3675) rotate(-90) scale(0.4 -0.4)">
      <defs>
       <path id="DejaVuSans-52" d="M 2841 2188 
Q 3044 2119 3236 1894 
Q 3428 1669 3622 1275 
L 4263 0 
L 3584 0 
L 2988 1197 
Q 2756 1666 2539 1819 
Q 2322 1972 1947 1972 
L 1259 1972 
L 1259 0 
L 628 0 
L 628 4666 
L 2053 4666 
Q 2853 4666 3247 4331 
Q 3641 3997 3641 3322 
Q 3641 2881 3436 2590 
Q 3231 2300 2841 2188 
z
M 1259 4147 
L 1259 2491 
L 2053 2491 
Q 2509 2491 2742 2702 
Q 2975 2913 2975 3322 
Q 2975 3731 2742 3939 
Q 2509 4147 2053 4147 
L 1259 4147 
z
" transform="scale(0.015625)"/>
       <path id="DejaVuSans-4d" d="M 628 4666 
L 1569 4666 
L 2759 1491 
L 3956 4666 
L 4897 4666 
L 4897 0 
L 4281 0 
L 4281 4097 
L 3078 897 
L 2444 897 
L 1241 4097 
L 1241 0 
L 628 0 
L 628 4666 
z
" transform="scale(0.015625)"/>
       <path id="DejaVuSans-45" d="M 628 4666 
L 3578 4666 
L 3578 4134 
L 1259 4134 
L 1259 2753 
L 3481 2753 
L 3481 2222 
L 1259 2222 
L 1259 531 
L 3634 531 
L 3634 0 
L 628 0 
L 628 4666 
z
" transform="scale(0.015625)"/>
      </defs>
      <use xlink:href="#DejaVuSans-52"/>
      <use xlink:href="#DejaVuSans-4d" x="69.482422"/>
      <use xlink:href="#DejaVuSans-53" x="155.761719"/>
      <use xlink:href="#DejaVuSans-45" x="219.238281"/>
     </g>
    </g>
   </g>
   <g id="line2d_29">
    <path d="M 138.436364 92.815901 
L 139.452603 108.937871 
L 141.485081 148.101736 
L 143.51756 194.130769 
L 146.566277 265.929401 
L 148.598756 308.886105 
L 149.614995 327.458069 
L 150.631234 343.700282 
L 151.647473 357.49181 
L 152.663712 369.003038 
L 153.679951 378.279685 
L 154.696191 385.866355 
L 155.71243 392.21777 
L 157.744908 402.385304 
L 158.761147 406.751959 
L 160.793626 413.852472 
L 161.809865 416.89128 
L 162.826104 419.431513 
L 163.842343 421.593027 
L 167.9073 428.852989 
L 169.939778 452.644129 
L 170.956018 462.868905 
L 171.972257 471.883933 
L 172.988496 479.391891 
L 174.004735 485.182754 
L 175.020974 489.264747 
L 176.037214 491.803793 
L 177.053453 492.48 
L 178.069692 492.057608 
L 179.085931 490.163919 
L 182.134649 482.204511 
L 183.150888 480.827575 
L 185.183366 479.237412 
L 186.199605 478.29273 
L 187.215845 477.17265 
L 188.232084 476.887422 
L 189.248323 475.828199 
L 190.264562 474.9449 
L 191.280801 474.211264 
L 192.297041 473.283018 
L 193.31328 472.553407 
L 194.329519 472.132123 
L 195.345758 471.902935 
L 196.361997 471.918123 
L 198.394476 471.16378 
L 199.410715 471.119587 
L 200.426954 471.508581 
L 202.459432 471.241406 
L 203.475672 470.915344 
L 206.524389 469.094763 
L 207.540628 469.102375 
L 208.556868 469.24984 
L 210.589346 471.006453 
L 211.605585 471.623772 
L 212.621824 471.999827 
L 214.654303 470.924607 
L 215.670542 471.06302 
L 216.686781 471.499914 
L 217.70302 472.222722 
L 218.719259 471.678582 
L 219.735499 471.610096 
L 220.751738 471.677281 
L 222.784216 471.462789 
L 223.800455 471.688918 
L 224.816694 471.146166 
L 226.849173 470.68359 
L 229.89789 471.732495 
L 230.91413 471.861274 
L 232.946608 472.495205 
L 233.962847 472.514489 
L 235.995326 473.533317 
L 237.011565 474.028044 
L 238.027804 474.202247 
L 239.044043 474.043425 
L 241.076521 473.204073 
L 243.109 472.901654 
L 244.125239 472.847776 
L 245.141478 472.661075 
L 246.157717 472.185684 
L 247.173957 471.504502 
L 248.190196 470.656993 
L 249.206435 470.338015 
L 251.238913 470.497065 
L 252.255153 470.651439 
L 253.271392 471.383405 
L 254.287631 471.861134 
L 255.30387 472.956112 
L 256.320109 473.781454 
L 257.336348 474.102436 
L 260.385066 473.132265 
L 261.401305 473.075873 
L 262.417544 473.219893 
L 263.433784 473.09013 
L 264.450023 473.187813 
L 265.466262 472.955742 
L 266.482501 473.155504 
L 268.51498 473.266301 
L 269.531219 473.472285 
L 270.547458 473.969367 
L 272.579936 474.629033 
L 273.596175 475.030946 
L 274.612415 475.276429 
L 276.644893 475.448118 
L 277.661132 475.405719 
L 280.70985 476.642924 
L 282.742328 477.742437 
L 283.758567 477.803628 
L 285.791046 477.215383 
L 286.807285 476.816423 
L 289.856002 475.953568 
L 291.888481 475.745703 
L 293.920959 474.926232 
L 296.969677 472.632827 
L 297.985916 472.316204 
L 301.034633 471.911988 
L 302.050873 471.936141 
L 304.083351 471.719856 
L 307.132069 472.065078 
L 309.164547 473.25113 
L 310.180786 473.333099 
L 311.197025 473.22529 
L 312.213265 472.945406 
L 313.229504 472.377711 
L 314.245743 472.199026 
L 315.261982 471.902285 
L 316.278221 471.756138 
L 317.29446 472.032629 
L 318.3107 472.45031 
L 319.326939 473.187883 
L 320.343178 473.727189 
L 321.359417 473.94307 
L 323.391896 474.177004 
L 324.408135 474.496931 
L 326.440613 475.748252 
L 327.456852 476.110983 
L 329.489331 475.681436 
L 331.521809 474.862035 
L 332.538048 474.585386 
L 333.554287 474.567104 
L 335.586766 473.70149 
L 336.603005 473.183137 
L 337.619244 473.17201 
L 338.635483 472.931396 
L 339.651723 472.462298 
L 341.684201 472.622455 
L 344.732919 472.957061 
L 346.765397 474.002854 
L 349.814114 474.53643 
L 351.846593 475.100153 
L 353.879071 475.532477 
L 355.91155 475.986598 
L 358.960267 475.634449 
L 359.976506 475.636154 
L 360.992745 475.93889 
L 362.008985 475.876223 
L 364.041463 476.063275 
L 365.057702 476.000168 
L 366.073941 475.799827 
L 367.090181 475.860912 
L 369.122659 475.112809 
L 371.155137 474.989075 
L 373.187616 474.199627 
L 375.220094 473.345579 
L 378.268812 473.410514 
L 381.317529 472.582043 
L 383.350008 473.126868 
L 385.382486 472.85275 
L 386.398725 472.876112 
L 387.414964 473.205673 
L 388.431204 473.680589 
L 390.463682 474.34261 
L 391.479921 474.522227 
L 392.49616 474.904311 
L 394.528639 475.18242 
L 395.544878 475.672682 
L 396.561117 476.325545 
L 397.577356 476.724769 
L 399.609835 476.438926 
L 402.658552 475.193916 
L 403.674791 474.915298 
L 404.691031 474.793743 
L 405.70727 474.971338 
L 406.723509 474.441735 
L 408.755987 472.82299 
L 409.772226 472.360923 
L 411.804705 471.015752 
L 414.853422 467.831894 
L 418.918379 465.822767 
L 419.934618 465.204955 
L 420.950857 464.781702 
L 422.983336 463.789452 
L 423.999575 463.351503 
L 426.032053 462.809648 
L 427.048293 462.171621 
L 428.064532 461.229365 
L 429.080771 461.369535 
L 433.145728 463.664364 
L 435.178206 463.783124 
L 437.210684 464.343718 
L 438.226924 464.997495 
L 439.243163 465.500572 
L 440.259402 465.541934 
L 443.30812 466.913262 
L 444.324359 467.429998 
L 445.340598 468.133399 
L 446.356837 468.452395 
L 448.389316 468.778967 
L 451.438033 469.858353 
L 452.454272 470.066323 
L 453.470511 470.111043 
L 455.50299 470.566148 
L 457.535468 471.55446 
L 458.551707 472.500725 
L 463.632903 473.078387 
L 465.665382 474.159039 
L 467.69786 474.257021 
L 468.714099 473.859854 
L 469.730338 473.707045 
L 470.746578 474.017198 
L 471.762817 474.210069 
L 472.779056 474.274177 
L 473.795295 474.205833 
L 476.844013 474.584085 
L 478.876491 475.355849 
L 479.89273 475.844722 
L 480.908969 476.14621 
L 481.925209 475.817616 
L 483.957687 475.601138 
L 487.006405 474.571235 
L 488.022644 474.467294 
L 489.038883 474.536694 
L 490.055122 474.781913 
L 491.071361 474.574101 
L 492.087601 474.17231 
L 493.10384 473.919128 
L 495.136318 472.969383 
L 497.168796 472.651425 
L 500.217514 472.505735 
L 502.249992 471.558451 
L 503.266232 471.33879 
L 506.314949 471.665187 
L 510.379906 470.425257 
L 511.396145 470.516964 
L 512.412384 470.878552 
L 513.428623 470.985657 
L 514.444863 471.388696 
L 516.477341 471.537866 
L 518.509819 471.015593 
L 521.558537 470.918736 
L 522.574776 470.947372 
L 525.623494 471.445316 
L 526.639733 471.379344 
L 527.655972 471.122066 
L 528.672211 470.739014 
L 529.68845 470.776949 
L 531.720929 471.099109 
L 533.753407 471.167998 
L 535.785886 471.278795 
L 536.802125 471.404534 
L 537.818364 471.905748 
L 539.850842 472.640122 
L 542.89956 472.950399 
L 543.915799 473.486892 
L 544.932038 473.875376 
L 545.948277 474.675669 
L 546.964517 475.228089 
L 547.980756 475.994227 
L 548.996995 476.512298 
L 551.029473 476.686395 
L 553.061952 476.685956 
L 554.078191 476.810956 
L 555.09443 476.820044 
L 557.126908 477.071539 
L 558.143148 477.14862 
L 559.159387 477.104182 
L 560.175626 476.731906 
L 563.224344 476.354303 
L 566.273061 474.953232 
L 567.2893 474.302321 
L 568.30554 473.467538 
L 569.321779 472.928777 
L 570.338018 472.160617 
L 571.354257 471.751145 
L 573.386735 471.420829 
L 575.419214 470.453277 
L 576.435453 469.547584 
L 577.451692 469.058429 
L 578.467931 468.843005 
L 581.516649 468.782096 
L 582.532888 469.165288 
L 583.549127 469.398518 
L 584.565367 469.44264 
L 587.614084 470.579631 
L 589.646562 471.728821 
L 590.662802 472.394235 
L 592.69528 473.085594 
L 594.727758 473.973217 
L 595.743998 474.232956 
L 596.760237 474.335632 
L 598.792715 475.442211 
L 600.825194 475.235999 
L 601.841433 475.004649 
L 603.873911 474.86149 
L 604.89015 475.127927 
L 607.938868 476.545012 
L 612.003825 476.482608 
L 613.020064 476.207541 
L 615.052542 476.179961 
L 616.068781 475.849416 
L 617.08502 475.29392 
L 619.117499 474.595634 
L 620.133738 474.169867 
L 623.182456 473.344173 
L 624.198695 473.364019 
L 626.231173 473.931029 
L 627.247412 474.007829 
L 628.263652 473.588548 
L 629.279891 473.493115 
L 631.312369 474.275531 
L 632.328608 474.427163 
L 633.344847 474.237263 
L 634.361087 473.70991 
L 635.377326 473.369451 
L 636.393565 472.868553 
L 637.409804 472.524719 
L 639.442283 471.144742 
L 640.458522 470.275559 
L 643.507239 468.952518 
L 644.523479 468.446207 
L 645.539718 468.273815 
L 646.555957 468.246481 
L 650.620914 468.905549 
L 652.653392 469.037 
L 654.68587 469.283046 
L 655.70211 469.007767 
L 656.718349 468.910313 
L 657.734588 469.045667 
L 658.750827 469.50318 
L 659.767066 469.705227 
L 660.783306 469.500368 
L 662.815784 468.31305 
L 663.832023 468.22398 
L 664.848262 468.744952 
L 666.880741 469.175114 
L 667.89698 469.418681 
L 668.913219 469.539128 
L 669.929458 470.240139 
L 670.945697 471.159596 
L 673.994415 473.076998 
L 675.010654 473.425508 
L 677.043132 473.156734 
L 679.075611 472.644358 
L 682.124328 473.023472 
L 683.140568 473.360837 
L 684.156807 473.85952 
L 686.189285 474.122089 
L 687.205524 473.845914 
L 690.254242 472.500531 
L 691.270481 472.60558 
L 692.28672 473.453757 
L 693.302959 473.959594 
L 694.319199 473.927197 
L 695.335438 473.742395 
L 696.351677 473.837863 
L 698.384155 473.644747 
L 699.400395 473.408686 
L 701.432873 472.62017 
L 703.465351 471.510549 
L 704.481591 471.451064 
L 706.514069 471.752411 
L 707.530308 471.894005 
L 708.546547 471.850534 
L 709.562786 471.550593 
L 710.579026 470.70493 
L 715.660222 468.097293 
L 717.6927 467.785363 
L 718.708939 468.010965 
L 719.725178 468.006219 
L 720.741418 468.199634 
L 723.790135 468.348225 
L 725.822613 468.620532 
L 727.855092 468.397831 
L 728.871331 468.604096 
L 730.903809 469.622872 
L 731.920049 469.988152 
L 732.936288 470.122486 
L 733.952527 470.013113 
L 734.968766 469.750228 
L 739.033723 470.066903 
L 740.049962 470.278143 
L 744.114919 472.237347 
L 745.131158 472.752061 
L 746.147397 473.410303 
L 747.163636 473.797521 
L 747.163636 473.797521 
" clip-path="url(#p9e9c6316ef)" style="fill: none; stroke: #1f77b4; stroke-width: 4; stroke-linecap: square"/>
   </g>
   <g id="line2d_30">
    <path d="M 138.436364 89.28 
L 139.452603 105.21766 
L 140.468842 123.136233 
L 141.485081 143.256813 
L 143.51756 189.969076 
L 147.582516 288.873695 
L 148.598756 310.163114 
L 149.614995 328.977373 
L 150.631234 345.109126 
L 151.647473 358.668673 
L 152.663712 369.870006 
L 153.679951 379.150411 
L 154.696191 386.671902 
L 155.71243 393.089836 
L 156.728669 398.356081 
L 158.761147 406.04601 
L 160.793626 412.065318 
L 162.826104 417.458453 
L 164.858582 422.121493 
L 167.9073 427.884523 
L 169.939778 452.196231 
L 170.956018 462.662956 
L 171.972257 471.623104 
L 172.988496 478.887443 
L 174.004735 484.542671 
L 175.020974 488.20039 
L 176.037214 490.028371 
L 177.053453 490.241826 
L 178.069692 489.126106 
L 180.10217 484.684054 
L 181.118409 482.359342 
L 182.134649 480.362608 
L 183.150888 478.680756 
L 184.167127 477.239641 
L 185.183366 476.195869 
L 186.199605 475.56635 
L 187.215845 475.151974 
L 189.248323 474.88835 
L 190.264562 474.963744 
L 191.280801 474.907089 
L 192.297041 474.62717 
L 194.329519 473.661376 
L 195.345758 473.499549 
L 196.361997 473.680431 
L 198.394476 473.472988 
L 199.410715 473.230722 
L 202.459432 472.876991 
L 204.491911 471.506858 
L 205.50815 471.365439 
L 206.524389 471.391702 
L 209.573107 472.367586 
L 210.589346 472.414415 
L 212.621824 472.966799 
L 213.638063 472.992657 
L 215.670542 472.757739 
L 218.719259 471.258527 
L 222.784216 470.020918 
L 225.832934 470.300872 
L 227.865412 470.246432 
L 228.881651 470.648398 
L 231.930369 472.588898 
L 232.946608 473.104632 
L 233.962847 474.109925 
L 234.979086 474.702634 
L 237.011565 475.260433 
L 239.044043 474.785007 
L 240.060282 474.514826 
L 241.076521 474.61606 
L 242.092761 474.513701 
L 243.109 474.011187 
L 244.125239 473.738932 
L 246.157717 473.428673 
L 247.173957 473.687515 
L 250.222674 474.864233 
L 253.271392 476.522898 
L 254.287631 476.616925 
L 256.320109 476.344565 
L 257.336348 475.726103 
L 258.352588 475.341698 
L 259.368827 475.188836 
L 261.401305 475.521859 
L 266.482501 473.813605 
L 267.49874 473.170252 
L 268.51498 472.769815 
L 270.547458 472.957043 
L 271.563697 472.899474 
L 273.596175 472.339566 
L 275.628654 471.978786 
L 277.661132 471.870679 
L 279.693611 471.917068 
L 280.70985 471.985993 
L 282.742328 471.450853 
L 283.758567 471.211593 
L 284.774806 471.262729 
L 285.791046 471.124685 
L 286.807285 470.640347 
L 287.823524 470.648503 
L 288.839763 470.508948 
L 289.856002 470.153723 
L 290.872242 469.369409 
L 291.888481 468.743458 
L 292.90472 468.523675 
L 293.920959 468.458529 
L 294.937198 468.647251 
L 296.969677 469.35974 
L 297.985916 470.027457 
L 301.034633 471.6452 
L 303.067112 472.330653 
L 305.09959 473.026583 
L 308.148308 473.96042 
L 309.164547 473.863756 
L 310.180786 473.633303 
L 312.213265 472.775528 
L 313.229504 472.19159 
L 314.245743 471.762044 
L 315.261982 471.455705 
L 316.278221 471.53929 
L 317.29446 472.365054 
L 319.326939 473.521117 
L 322.375656 474.227225 
L 323.391896 474.283019 
L 325.424374 474.545254 
L 326.440613 474.626977 
L 328.473092 474.560864 
L 329.489331 474.61766 
L 331.521809 474.017655 
L 333.554287 473.933841 
L 335.586766 473.541298 
L 336.603005 473.51899 
L 337.619244 473.349007 
L 338.635483 472.674101 
L 341.684201 472.165504 
L 342.70044 472.14158 
L 343.716679 472.314147 
L 345.749158 472.872596 
L 346.765397 473.093909 
L 347.781636 473.147963 
L 350.830354 472.883776 
L 351.846593 472.831568 
L 353.879071 473.172063 
L 354.89531 473.048416 
L 355.91155 472.722969 
L 356.927789 472.543669 
L 357.944028 472.101571 
L 358.960267 471.396272 
L 359.976506 471.003728 
L 360.992745 470.858864 
L 363.025224 470.916574 
L 364.041463 471.079473 
L 365.057702 471.406626 
L 367.090181 471.232107 
L 368.10642 471.127621 
L 369.122659 471.449236 
L 370.138898 471.545232 
L 371.155137 471.830547 
L 372.171377 471.942399 
L 373.187616 472.243658 
L 374.203855 472.222704 
L 375.220094 471.960909 
L 378.268812 471.628131 
L 379.285051 471.215706 
L 380.30129 470.964669 
L 382.333768 471.106861 
L 383.350008 471.037848 
L 384.366247 470.83617 
L 386.398725 470.799678 
L 387.414964 470.689848 
L 388.431204 470.943698 
L 389.447443 471.382508 
L 390.463682 471.580476 
L 392.49616 471.598846 
L 395.544878 471.096788 
L 396.561117 471.132595 
L 400.626074 470.737257 
L 401.642313 470.896394 
L 402.658552 471.201556 
L 403.674791 471.336663 
L 404.691031 471.678546 
L 406.723509 471.881806 
L 408.755987 471.622295 
L 409.772226 471.672833 
L 410.788466 471.545478 
L 415.869662 469.498381 
L 418.918379 469.275733 
L 421.967097 468.797881 
L 423.999575 467.947067 
L 425.015814 467.771898 
L 426.032053 467.768734 
L 429.080771 468.680967 
L 430.09701 469.015941 
L 431.113249 469.156165 
L 435.178206 468.925166 
L 440.259402 470.443275 
L 441.275641 470.8692 
L 443.30812 472.01999 
L 445.340598 473.24431 
L 447.373076 474.204198 
L 451.438033 475.458841 
L 453.470511 476.347676 
L 454.486751 476.831769 
L 455.50299 476.947013 
L 456.519229 476.779965 
L 458.551707 476.22628 
L 459.567947 476.04807 
L 461.600425 475.40426 
L 462.616664 475.137577 
L 463.632903 475.003665 
L 464.649143 474.668391 
L 466.681621 473.683489 
L 469.730338 471.955881 
L 470.746578 471.534474 
L 474.811534 470.70841 
L 477.860252 470.348562 
L 479.89273 470.041608 
L 481.925209 469.699162 
L 483.957687 469.548375 
L 485.990165 469.312156 
L 490.055122 470.229609 
L 494.120079 471.665486 
L 497.168796 472.57705 
L 498.185036 472.81726 
L 500.217514 472.832307 
L 501.233753 472.811881 
L 504.282471 472.202893 
L 508.347428 471.400842 
L 509.363667 471.247998 
L 513.428623 469.981964 
L 515.461102 469.352621 
L 518.509819 468.862359 
L 520.542298 468.37795 
L 524.607255 468.087941 
L 526.639733 468.487147 
L 527.655972 468.540041 
L 528.672211 468.710639 
L 530.70469 469.213031 
L 532.737168 469.641347 
L 540.867081 473.269799 
L 543.915799 474.302408 
L 546.964517 475.728705 
L 547.980756 476.154155 
L 550.013234 476.647055 
L 552.045713 476.650219 
L 554.078191 476.61921 
L 555.09443 476.485843 
L 557.126908 476.020665 
L 559.159387 476.043464 
L 560.175626 476.008782 
L 563.224344 476.265568 
L 564.240583 476.182703 
L 566.273061 475.678747 
L 569.321779 474.946166 
L 575.419214 473.971635 
L 580.50041 473.584294 
L 585.581606 474.239144 
L 587.614084 474.769538 
L 589.646562 474.898018 
L 590.662802 474.877926 
L 592.69528 474.585984 
L 594.727758 474.07874 
L 596.760237 473.83883 
L 598.792715 473.686109 
L 599.808954 473.694089 
L 602.857672 473.16918 
L 605.906389 472.977381 
L 607.938868 472.632071 
L 609.971346 472.572726 
L 612.003825 472.592431 
L 616.068781 472.319245 
L 619.117499 472.393549 
L 621.149977 472.760376 
L 626.231173 474.339763 
L 628.263652 474.694478 
L 631.312369 474.866518 
L 634.361087 475.393097 
L 639.442283 475.802587 
L 646.555957 475.09669 
L 648.588435 474.737615 
L 651.637153 473.845246 
L 656.718349 471.991091 
L 658.750827 471.556464 
L 660.783306 471.392387 
L 664.848262 471.441958 
L 666.880741 471.637413 
L 675.010654 471.751057 
L 680.09185 471.661724 
L 685.173046 472.127517 
L 688.221764 472.076557 
L 690.254242 471.875249 
L 693.302959 471.064356 
L 696.351677 470.270549 
L 698.384155 469.926188 
L 705.49783 469.203591 
L 708.546547 469.330771 
L 716.676461 469.614434 
L 721.757657 470.123031 
L 726.838853 470.963526 
L 730.903809 471.392545 
L 737.001244 471.976835 
L 747.163636 472.452015 
L 747.163636 472.452015 
" clip-path="url(#p9e9c6316ef)" style="fill: none; stroke: #ff7f0e; stroke-width: 4; stroke-linecap: square"/>
   </g>
   <g id="line2d_31"/>
   <g id="line2d_32"/>
   <g id="patch_3">
    <path d="M 108 512.64 
L 108 69.12 
" style="fill: none; stroke: #000000; stroke-width: 0.8; stroke-linejoin: miter; stroke-linecap: square"/>
   </g>
   <g id="patch_4">
    <path d="M 777.6 512.64 
L 777.6 69.12 
" style="fill: none; stroke: #000000; stroke-width: 0.8; stroke-linejoin: miter; stroke-linecap: square"/>
   </g>
   <g id="patch_5">
    <path d="M 108 512.64 
L 777.6 512.64 
" style="fill: none; stroke: #000000; stroke-width: 0.8; stroke-linejoin: miter; stroke-linecap: square"/>
   </g>
   <g id="patch_6">
    <path d="M 108 69.12 
L 777.6 69.12 
" style="fill: none; stroke: #000000; stroke-width: 0.8; stroke-linejoin: miter; stroke-linecap: square"/>
   </g>
   <g id="text_17">
    <!-- aggregation -->
    <g transform="translate(261.314062 56.641875) scale(0.6 -0.6)">
     <defs>
      <path id="DejaVuSans-61" d="M 2194 1759 
Q 1497 1759 1228 1600 
Q 959 1441 959 1056 
Q 959 750 1161 570 
Q 1363 391 1709 391 
Q 2188 391 2477 730 
Q 2766 1069 2766 1631 
L 2766 1759 
L 2194 1759 
z
M 3341 1997 
L 3341 0 
L 2766 0 
L 2766 531 
Q 2569 213 2275 61 
Q 1981 -91 1556 -91 
Q 1019 -91 701 211 
Q 384 513 384 1019 
Q 384 1609 779 1909 
Q 1175 2209 1959 2209 
L 2766 2209 
L 2766 2266 
Q 2766 2663 2505 2880 
Q 2244 3097 1772 3097 
Q 1472 3097 1187 3025 
Q 903 2953 641 2809 
L 641 3341 
Q 956 3463 1253 3523 
Q 1550 3584 1831 3584 
Q 2591 3584 2966 3190 
Q 3341 2797 3341 1997 
z
" transform="scale(0.015625)"/>
      <path id="DejaVuSans-67" d="M 2906 1791 
Q 2906 2416 2648 2759 
Q 2391 3103 1925 3103 
Q 1463 3103 1205 2759 
Q 947 2416 947 1791 
Q 947 1169 1205 825 
Q 1463 481 1925 481 
Q 2391 481 2648 825 
Q 2906 1169 2906 1791 
z
M 3481 434 
Q 3481 -459 3084 -895 
Q 2688 -1331 1869 -1331 
Q 1566 -1331 1297 -1286 
Q 1028 -1241 775 -1147 
L 775 -588 
Q 1028 -725 1275 -790 
Q 1522 -856 1778 -856 
Q 2344 -856 2625 -561 
Q 2906 -266 2906 331 
L 2906 616 
Q 2728 306 2450 153 
Q 2172 0 1784 0 
Q 1141 0 747 490 
Q 353 981 353 1791 
Q 353 2603 747 3093 
Q 1141 3584 1784 3584 
Q 2172 3584 2450 3431 
Q 2728 3278 2906 2969 
L 2906 3500 
L 3481 3500 
L 3481 434 
z
" transform="scale(0.015625)"/>
      <path id="DejaVuSans-72" d="M 2631 2963 
Q 2534 3019 2420 3045 
Q 2306 3072 2169 3072 
Q 1681 3072 1420 2755 
Q 1159 2438 1159 1844 
L 1159 0 
L 581 0 
L 581 3500 
L 1159 3500 
L 1159 2956 
Q 1341 3275 1631 3429 
Q 1922 3584 2338 3584 
Q 2397 3584 2469 3576 
Q 2541 3569 2628 3553 
L 2631 2963 
z
" transform="scale(0.015625)"/>
      <path id="DejaVuSans-69" d="M 603 3500 
L 1178 3500 
L 1178 0 
L 603 0 
L 603 3500 
z
M 603 4863 
L 1178 4863 
L 1178 4134 
L 603 4134 
L 603 4863 
z
" transform="scale(0.015625)"/>
      <path id="DejaVuSans-6f" d="M 1959 3097 
Q 1497 3097 1228 2736 
Q 959 2375 959 1747 
Q 959 1119 1226 758 
Q 1494 397 1959 397 
Q 2419 397 2687 759 
Q 2956 1122 2956 1747 
Q 2956 2369 2687 2733 
Q 2419 3097 1959 3097 
z
M 1959 3584 
Q 2709 3584 3137 3096 
Q 3566 2609 3566 1747 
Q 3566 888 3137 398 
Q 2709 -91 1959 -91 
Q 1206 -91 779 398 
Q 353 888 353 1747 
Q 353 2609 779 3096 
Q 1206 3584 1959 3584 
z
" transform="scale(0.015625)"/>
      <path id="DejaVuSans-6e" d="M 3513 2113 
L 3513 0 
L 2938 0 
L 2938 2094 
Q 2938 2591 2744 2837 
Q 2550 3084 2163 3084 
Q 1697 3084 1428 2787 
Q 1159 2491 1159 1978 
L 1159 0 
L 581 0 
L 581 3500 
L 1159 3500 
L 1159 2956 
Q 1366 3272 1645 3428 
Q 1925 3584 2291 3584 
Q 2894 3584 3203 3211 
Q 3513 2838 3513 2113 
z
" transform="scale(0.015625)"/>
     </defs>
     <use xlink:href="#DejaVuSans-61"/>
     <use xlink:href="#DejaVuSans-67" x="61.279297"/>
     <use xlink:href="#DejaVuSans-67" x="124.755859"/>
     <use xlink:href="#DejaVuSans-72" x="188.232422"/>
     <use xlink:href="#DejaVuSans-65" x="227.095703"/>
     <use xlink:href="#DejaVuSans-67" x="288.619141"/>
     <use xlink:href="#DejaVuSans-61" x="352.095703"/>
     <use xlink:href="#DejaVuSans-74" x="413.375"/>
     <use xlink:href="#DejaVuSans-69" x="452.583984"/>
     <use xlink:href="#DejaVuSans-6f" x="480.367188"/>
     <use xlink:href="#DejaVuSans-6e" x="541.548828"/>
    </g>
   </g>
   <g id="legend_1">
    <g id="patch_7">
     <path d="M 483.93125 218.545 
L 749.6 218.545 
Q 757.6 218.545 757.6 210.545 
L 757.6 97.12 
Q 757.6 89.12 749.6 89.12 
L 483.93125 89.12 
Q 475.93125 89.12 475.93125 97.12 
L 475.93125 210.545 
Q 475.93125 218.545 483.93125 218.545 
z
" style="fill: #ffffff; opacity: 0.8; stroke: #cccccc; stroke-linejoin: miter"/>
    </g>
    <g id="line2d_33">
     <path d="M 491.93125 121.51375 
L 531.93125 121.51375 
L 571.93125 121.51375 
" style="fill: none; stroke: #1f77b4; stroke-width: 4; stroke-linecap: square"/>
    </g>
    <g id="text_18">
     <!-- local -->
     <g transform="translate(603.93125 135.51375) scale(0.4 -0.4)">
      <defs>
       <path id="DejaVuSans-6c" d="M 603 4863 
L 1178 4863 
L 1178 0 
L 603 0 
L 603 4863 
z
" transform="scale(0.015625)"/>
       <path id="DejaVuSans-63" d="M 3122 3366 
L 3122 2828 
Q 2878 2963 2633 3030 
Q 2388 3097 2138 3097 
Q 1578 3097 1268 2742 
Q 959 2388 959 1747 
Q 959 1106 1268 751 
Q 1578 397 2138 397 
Q 2388 397 2633 464 
Q 2878 531 3122 666 
L 3122 134 
Q 2881 22 2623 -34 
Q 2366 -91 2075 -91 
Q 1284 -91 818 406 
Q 353 903 353 1747 
Q 353 2603 823 3093 
Q 1294 3584 2113 3584 
Q 2378 3584 2631 3529 
Q 2884 3475 3122 3366 
z
" transform="scale(0.015625)"/>
      </defs>
      <use xlink:href="#DejaVuSans-6c"/>
      <use xlink:href="#DejaVuSans-6f" x="27.783203"/>
      <use xlink:href="#DejaVuSans-63" x="88.964844"/>
      <use xlink:href="#DejaVuSans-61" x="143.945312"/>
      <use xlink:href="#DejaVuSans-6c" x="205.224609"/>
     </g>
    </g>
    <g id="line2d_34">
     <path d="M 491.93125 180.22625 
L 531.93125 180.22625 
L 571.93125 180.22625 
" style="fill: none; stroke: #ff7f0e; stroke-width: 4; stroke-linecap: square"/>
    </g>
    <g id="text_19">
     <!-- fedavg -->
     <g transform="translate(603.93125 194.22625) scale(0.4 -0.4)">
      <defs>
       <path id="DejaVuSans-66" d="M 2375 4863 
L 2375 4384 
L 1825 4384 
Q 1516 4384 1395 4259 
Q 1275 4134 1275 3809 
L 1275 3500 
L 2222 3500 
L 2222 3053 
L 1275 3053 
L 1275 0 
L 697 0 
L 697 3053 
L 147 3053 
L 147 3500 
L 697 3500 
L 697 3744 
Q 697 4328 969 4595 
Q 1241 4863 1831 4863 
L 2375 4863 
z
" transform="scale(0.015625)"/>
       <path id="DejaVuSans-64" d="M 2906 2969 
L 2906 4863 
L 3481 4863 
L 3481 0 
L 2906 0 
L 2906 525 
Q 2725 213 2448 61 
Q 2172 -91 1784 -91 
Q 1150 -91 751 415 
Q 353 922 353 1747 
Q 353 2572 751 3078 
Q 1150 3584 1784 3584 
Q 2172 3584 2448 3432 
Q 2725 3281 2906 2969 
z
M 947 1747 
Q 947 1113 1208 752 
Q 1469 391 1925 391 
Q 2381 391 2643 752 
Q 2906 1113 2906 1747 
Q 2906 2381 2643 2742 
Q 2381 3103 1925 3103 
Q 1469 3103 1208 2742 
Q 947 2381 947 1747 
z
" transform="scale(0.015625)"/>
       <path id="DejaVuSans-76" d="M 191 3500 
L 800 3500 
L 1894 563 
L 2988 3500 
L 3597 3500 
L 2284 0 
L 1503 0 
L 191 3500 
z
" transform="scale(0.015625)"/>
      </defs>
      <use xlink:href="#DejaVuSans-66"/>
      <use xlink:href="#DejaVuSans-65" x="35.205078"/>
      <use xlink:href="#DejaVuSans-64" x="96.728516"/>
      <use xlink:href="#DejaVuSans-61" x="160.205078"/>
      <use xlink:href="#DejaVuSans-76" x="221.484375"/>
      <use xlink:href="#DejaVuSans-67" x="280.664062"/>
     </g>
    </g>
   </g>
  </g>
 </g>
 <defs>
  <clipPath id="p9e9c6316ef">
   <rect x="108" y="69.12" width="669.6" height="443.52"/>
  </clipPath>
 </defs>
</svg>
