<?xml version="1.0" encoding="utf-8" standalone="no"?>
<!DOCTYPE svg PUBLIC "-//W3C//DTD SVG 1.1//EN"
  "http://www.w3.org/Graphics/SVG/1.1/DTD/svg11.dtd">
<svg xmlns:xlink="http://www.w3.org/1999/xlink" width="864pt" height="576pt" viewBox="0 0 864 576" xmlns="http://www.w3.org/2000/svg" version="1.1">
 <metadata>
  <rdf:RDF xmlns:dc="http://purl.org/dc/elements/1.1/" xmlns:cc="http://creativecommons.org/ns#" xmlns:rdf="http://www.w3.org/1999/02/22-rdf-syntax-ns#">
   <cc:Work>
    <dc:type rdf:resource="http://purl.org/dc/dcmitype/StillImage"/>
    <dc:date>2025-04-25T14:16:23.799926</dc:date>
    <dc:format>image/svg+xml</dc:format>
    <dc:creator>
     <cc:Agent>
      <dc:title>Matplotlib v3.8.2, https://matplotlib.org/</dc:title>
     </cc:Agent>
    </dc:creator>
   </cc:Work>
  </rdf:RDF>
 </metadata>
 <defs>
  <style type="text/css">*{stroke-linejoin: round; stroke-linecap: butt}</style>
 </defs>
 <g id="figure_1">
  <g id="patch_1">
   <path d="M 0 576 
L 864 576 
L 864 0 
L 0 0 
z
" style="fill: #ffffff"/>
  </g>
  <g id="axes_1">
   <g id="patch_2">
    <path d="M 108 512.64 
L 777.6 512.64 
L 777.6 69.12 
L 108 69.12 
z
" style="fill: #ffffff"/>
   </g>
   <g id="PolyCollection_1"/>
   <g id="PolyCollection_2"/>
   <g id="matplotlib.axis_1">
    <g id="xtick_1">
     <g id="line2d_1">
      <path d="M 137.420124 512.64 
L 137.420124 69.12 
" clip-path="url(#pa47b5482da)" style="fill: none; stroke: #b0b0b0; stroke-width: 0.8; stroke-linecap: square"/>
     </g>
     <g id="line2d_2">
      <defs>
       <path id="med2489131f" d="M 0 0 
L 0 3.5 
" style="stroke: #000000; stroke-width: 0.8"/>
      </defs>
      <g>
       <use xlink:href="#med2489131f" x="137.420124" y="512.64" style="stroke: #000000; stroke-width: 0.8"/>
      </g>
     </g>
     <g id="text_1">
      <!-- 0 -->
      <g transform="translate(127.876374 542.435313) scale(0.3 -0.3)">
       <defs>
        <path id="DejaVuSans-30" d="M 2034 4250 
Q 1547 4250 1301 3770 
Q 1056 3291 1056 2328 
Q 1056 1369 1301 889 
Q 1547 409 2034 409 
Q 2525 409 2770 889 
Q 3016 1369 3016 2328 
Q 3016 3291 2770 3770 
Q 2525 4250 2034 4250 
z
M 2034 4750 
Q 2819 4750 3233 4129 
Q 3647 3509 3647 2328 
Q 3647 1150 3233 529 
Q 2819 -91 2034 -91 
Q 1250 -91 836 529 
Q 422 1150 422 2328 
Q 422 3509 836 4129 
Q 1250 4750 2034 4750 
z
" transform="scale(0.015625)"/>
       </defs>
       <use xlink:href="#DejaVuSans-30"/>
      </g>
     </g>
    </g>
    <g id="xtick_2">
     <g id="line2d_3">
      <path d="M 254.229226 512.64 
L 254.229226 69.12 
" clip-path="url(#pa47b5482da)" style="fill: none; stroke: #b0b0b0; stroke-width: 0.8; stroke-linecap: square"/>
     </g>
     <g id="line2d_4">
      <g>
       <use xlink:href="#med2489131f" x="254.229226" y="512.64" style="stroke: #000000; stroke-width: 0.8"/>
      </g>
     </g>
     <g id="text_2">
      <!-- 10000 -->
      <g transform="translate(206.510476 542.435313) scale(0.3 -0.3)">
       <defs>
        <path id="DejaVuSans-31" d="M 794 531 
L 1825 531 
L 1825 4091 
L 703 3866 
L 703 4441 
L 1819 4666 
L 2450 4666 
L 2450 531 
L 3481 531 
L 3481 0 
L 794 0 
L 794 531 
z
" transform="scale(0.015625)"/>
       </defs>
       <use xlink:href="#DejaVuSans-31"/>
       <use xlink:href="#DejaVuSans-30" x="63.623047"/>
       <use xlink:href="#DejaVuSans-30" x="127.246094"/>
       <use xlink:href="#DejaVuSans-30" x="190.869141"/>
       <use xlink:href="#DejaVuSans-30" x="254.492188"/>
      </g>
     </g>
    </g>
    <g id="xtick_3">
     <g id="line2d_5">
      <path d="M 371.038328 512.64 
L 371.038328 69.12 
" clip-path="url(#pa47b5482da)" style="fill: none; stroke: #b0b0b0; stroke-width: 0.8; stroke-linecap: square"/>
     </g>
     <g id="line2d_6">
      <g>
       <use xlink:href="#med2489131f" x="371.038328" y="512.64" style="stroke: #000000; stroke-width: 0.8"/>
      </g>
     </g>
     <g id="text_3">
      <!-- 20000 -->
      <g transform="translate(323.319578 542.435313) scale(0.3 -0.3)">
       <defs>
        <path id="DejaVuSans-32" d="M 1228 531 
L 3431 531 
L 3431 0 
L 469 0 
L 469 531 
Q 828 903 1448 1529 
Q 2069 2156 2228 2338 
Q 2531 2678 2651 2914 
Q 2772 3150 2772 3378 
Q 2772 3750 2511 3984 
Q 2250 4219 1831 4219 
Q 1534 4219 1204 4116 
Q 875 4013 500 3803 
L 500 4441 
Q 881 4594 1212 4672 
Q 1544 4750 1819 4750 
Q 2544 4750 2975 4387 
Q 3406 4025 3406 3419 
Q 3406 3131 3298 2873 
Q 3191 2616 2906 2266 
Q 2828 2175 2409 1742 
Q 1991 1309 1228 531 
z
" transform="scale(0.015625)"/>
       </defs>
       <use xlink:href="#DejaVuSans-32"/>
       <use xlink:href="#DejaVuSans-30" x="63.623047"/>
       <use xlink:href="#DejaVuSans-30" x="127.246094"/>
       <use xlink:href="#DejaVuSans-30" x="190.869141"/>
       <use xlink:href="#DejaVuSans-30" x="254.492188"/>
      </g>
     </g>
    </g>
    <g id="xtick_4">
     <g id="line2d_7">
      <path d="M 487.84743 512.64 
L 487.84743 69.12 
" clip-path="url(#pa47b5482da)" style="fill: none; stroke: #b0b0b0; stroke-width: 0.8; stroke-linecap: square"/>
     </g>
     <g id="line2d_8">
      <g>
       <use xlink:href="#med2489131f" x="487.84743" y="512.64" style="stroke: #000000; stroke-width: 0.8"/>
      </g>
     </g>
     <g id="text_4">
      <!-- 30000 -->
      <g transform="translate(440.12868 542.435313) scale(0.3 -0.3)">
       <defs>
        <path id="DejaVuSans-33" d="M 2597 2516 
Q 3050 2419 3304 2112 
Q 3559 1806 3559 1356 
Q 3559 666 3084 287 
Q 2609 -91 1734 -91 
Q 1441 -91 1130 -33 
Q 819 25 488 141 
L 488 750 
Q 750 597 1062 519 
Q 1375 441 1716 441 
Q 2309 441 2620 675 
Q 2931 909 2931 1356 
Q 2931 1769 2642 2001 
Q 2353 2234 1838 2234 
L 1294 2234 
L 1294 2753 
L 1863 2753 
Q 2328 2753 2575 2939 
Q 2822 3125 2822 3475 
Q 2822 3834 2567 4026 
Q 2313 4219 1838 4219 
Q 1578 4219 1281 4162 
Q 984 4106 628 3988 
L 628 4550 
Q 988 4650 1302 4700 
Q 1616 4750 1894 4750 
Q 2613 4750 3031 4423 
Q 3450 4097 3450 3541 
Q 3450 3153 3228 2886 
Q 3006 2619 2597 2516 
z
" transform="scale(0.015625)"/>
       </defs>
       <use xlink:href="#DejaVuSans-33"/>
       <use xlink:href="#DejaVuSans-30" x="63.623047"/>
       <use xlink:href="#DejaVuSans-30" x="127.246094"/>
       <use xlink:href="#DejaVuSans-30" x="190.869141"/>
       <use xlink:href="#DejaVuSans-30" x="254.492188"/>
      </g>
     </g>
    </g>
    <g id="xtick_5">
     <g id="line2d_9">
      <path d="M 604.656532 512.64 
L 604.656532 69.12 
" clip-path="url(#pa47b5482da)" style="fill: none; stroke: #b0b0b0; stroke-width: 0.8; stroke-linecap: square"/>
     </g>
     <g id="line2d_10">
      <g>
       <use xlink:href="#med2489131f" x="604.656532" y="512.64" style="stroke: #000000; stroke-width: 0.8"/>
      </g>
     </g>
     <g id="text_5">
      <!-- 40000 -->
      <g transform="translate(556.937782 542.435313) scale(0.3 -0.3)">
       <defs>
        <path id="DejaVuSans-34" d="M 2419 4116 
L 825 1625 
L 2419 1625 
L 2419 4116 
z
M 2253 4666 
L 3047 4666 
L 3047 1625 
L 3713 1625 
L 3713 1100 
L 3047 1100 
L 3047 0 
L 2419 0 
L 2419 1100 
L 313 1100 
L 313 1709 
L 2253 4666 
z
" transform="scale(0.015625)"/>
       </defs>
       <use xlink:href="#DejaVuSans-34"/>
       <use xlink:href="#DejaVuSans-30" x="63.623047"/>
       <use xlink:href="#DejaVuSans-30" x="127.246094"/>
       <use xlink:href="#DejaVuSans-30" x="190.869141"/>
       <use xlink:href="#DejaVuSans-30" x="254.492188"/>
      </g>
     </g>
    </g>
    <g id="xtick_6">
     <g id="line2d_11">
      <path d="M 721.465634 512.64 
L 721.465634 69.12 
" clip-path="url(#pa47b5482da)" style="fill: none; stroke: #b0b0b0; stroke-width: 0.8; stroke-linecap: square"/>
     </g>
     <g id="line2d_12">
      <g>
       <use xlink:href="#med2489131f" x="721.465634" y="512.64" style="stroke: #000000; stroke-width: 0.8"/>
      </g>
     </g>
     <g id="text_6">
      <!-- 50000 -->
      <g transform="translate(673.746884 542.435313) scale(0.3 -0.3)">
       <defs>
        <path id="DejaVuSans-35" d="M 691 4666 
L 3169 4666 
L 3169 4134 
L 1269 4134 
L 1269 2991 
Q 1406 3038 1543 3061 
Q 1681 3084 1819 3084 
Q 2600 3084 3056 2656 
Q 3513 2228 3513 1497 
Q 3513 744 3044 326 
Q 2575 -91 1722 -91 
Q 1428 -91 1123 -41 
Q 819 9 494 109 
L 494 744 
Q 775 591 1075 516 
Q 1375 441 1709 441 
Q 2250 441 2565 725 
Q 2881 1009 2881 1497 
Q 2881 1984 2565 2268 
Q 2250 2553 1709 2553 
Q 1456 2553 1204 2497 
Q 953 2441 691 2322 
L 691 4666 
z
" transform="scale(0.015625)"/>
       </defs>
       <use xlink:href="#DejaVuSans-35"/>
       <use xlink:href="#DejaVuSans-30" x="63.623047"/>
       <use xlink:href="#DejaVuSans-30" x="127.246094"/>
       <use xlink:href="#DejaVuSans-30" x="190.869141"/>
       <use xlink:href="#DejaVuSans-30" x="254.492188"/>
      </g>
     </g>
    </g>
    <g id="text_7">
     <!-- Steps -->
     <g transform="translate(386.840625 583.068125) scale(0.4 -0.4)">
      <defs>
       <path id="DejaVuSans-53" d="M 3425 4513 
L 3425 3897 
Q 3066 4069 2747 4153 
Q 2428 4238 2131 4238 
Q 1616 4238 1336 4038 
Q 1056 3838 1056 3469 
Q 1056 3159 1242 3001 
Q 1428 2844 1947 2747 
L 2328 2669 
Q 3034 2534 3370 2195 
Q 3706 1856 3706 1288 
Q 3706 609 3251 259 
Q 2797 -91 1919 -91 
Q 1588 -91 1214 -16 
Q 841 59 441 206 
L 441 856 
Q 825 641 1194 531 
Q 1563 422 1919 422 
Q 2459 422 2753 634 
Q 3047 847 3047 1241 
Q 3047 1584 2836 1778 
Q 2625 1972 2144 2069 
L 1759 2144 
Q 1053 2284 737 2584 
Q 422 2884 422 3419 
Q 422 4038 858 4394 
Q 1294 4750 2059 4750 
Q 2388 4750 2728 4690 
Q 3069 4631 3425 4513 
z
" transform="scale(0.015625)"/>
       <path id="DejaVuSans-74" d="M 1172 4494 
L 1172 3500 
L 2356 3500 
L 2356 3053 
L 1172 3053 
L 1172 1153 
Q 1172 725 1289 603 
Q 1406 481 1766 481 
L 2356 481 
L 2356 0 
L 1766 0 
Q 1100 0 847 248 
Q 594 497 594 1153 
L 594 3053 
L 172 3053 
L 172 3500 
L 594 3500 
L 594 4494 
L 1172 4494 
z
" transform="scale(0.015625)"/>
       <path id="DejaVuSans-65" d="M 3597 1894 
L 3597 1613 
L 953 1613 
Q 991 1019 1311 708 
Q 1631 397 2203 397 
Q 2534 397 2845 478 
Q 3156 559 3463 722 
L 3463 178 
Q 3153 47 2828 -22 
Q 2503 -91 2169 -91 
Q 1331 -91 842 396 
Q 353 884 353 1716 
Q 353 2575 817 3079 
Q 1281 3584 2069 3584 
Q 2775 3584 3186 3129 
Q 3597 2675 3597 1894 
z
M 3022 2063 
Q 3016 2534 2758 2815 
Q 2500 3097 2075 3097 
Q 1594 3097 1305 2825 
Q 1016 2553 972 2059 
L 3022 2063 
z
" transform="scale(0.015625)"/>
       <path id="DejaVuSans-70" d="M 1159 525 
L 1159 -1331 
L 581 -1331 
L 581 3500 
L 1159 3500 
L 1159 2969 
Q 1341 3281 1617 3432 
Q 1894 3584 2278 3584 
Q 2916 3584 3314 3078 
Q 3713 2572 3713 1747 
Q 3713 922 3314 415 
Q 2916 -91 2278 -91 
Q 1894 -91 1617 61 
Q 1341 213 1159 525 
z
M 3116 1747 
Q 3116 2381 2855 2742 
Q 2594 3103 2138 3103 
Q 1681 3103 1420 2742 
Q 1159 2381 1159 1747 
Q 1159 1113 1420 752 
Q 1681 391 2138 391 
Q 2594 391 2855 752 
Q 3116 1113 3116 1747 
z
" transform="scale(0.015625)"/>
       <path id="DejaVuSans-73" d="M 2834 3397 
L 2834 2853 
Q 2591 2978 2328 3040 
Q 2066 3103 1784 3103 
Q 1356 3103 1142 2972 
Q 928 2841 928 2578 
Q 928 2378 1081 2264 
Q 1234 2150 1697 2047 
L 1894 2003 
Q 2506 1872 2764 1633 
Q 3022 1394 3022 966 
Q 3022 478 2636 193 
Q 2250 -91 1575 -91 
Q 1294 -91 989 -36 
Q 684 19 347 128 
L 347 722 
Q 666 556 975 473 
Q 1284 391 1588 391 
Q 1994 391 2212 530 
Q 2431 669 2431 922 
Q 2431 1156 2273 1281 
Q 2116 1406 1581 1522 
L 1381 1569 
Q 847 1681 609 1914 
Q 372 2147 372 2553 
Q 372 3047 722 3315 
Q 1072 3584 1716 3584 
Q 2034 3584 2315 3537 
Q 2597 3491 2834 3397 
z
" transform="scale(0.015625)"/>
      </defs>
      <use xlink:href="#DejaVuSans-53"/>
      <use xlink:href="#DejaVuSans-74" x="63.476562"/>
      <use xlink:href="#DejaVuSans-65" x="102.685547"/>
      <use xlink:href="#DejaVuSans-70" x="164.208984"/>
      <use xlink:href="#DejaVuSans-73" x="227.685547"/>
     </g>
    </g>
   </g>
   <g id="matplotlib.axis_2">
    <g id="ytick_1">
     <g id="line2d_13">
      <path d="M 108 477.548834 
L 777.6 477.548834 
" clip-path="url(#pa47b5482da)" style="fill: none; stroke: #b0b0b0; stroke-width: 0.8; stroke-linecap: square"/>
     </g>
     <g id="line2d_14">
      <defs>
       <path id="m74e2f0e859" d="M 0 0 
L -3.5 0 
" style="stroke: #000000; stroke-width: 0.8"/>
      </defs>
      <g>
       <use xlink:href="#m74e2f0e859" x="108" y="477.548834" style="stroke: #000000; stroke-width: 0.8"/>
      </g>
     </g>
     <g id="text_8">
      <!-- 46 -->
      <g transform="translate(62.825 488.94649) scale(0.3 -0.3)">
       <defs>
        <path id="DejaVuSans-36" d="M 2113 2584 
Q 1688 2584 1439 2293 
Q 1191 2003 1191 1497 
Q 1191 994 1439 701 
Q 1688 409 2113 409 
Q 2538 409 2786 701 
Q 3034 994 3034 1497 
Q 3034 2003 2786 2293 
Q 2538 2584 2113 2584 
z
M 3366 4563 
L 3366 3988 
Q 3128 4100 2886 4159 
Q 2644 4219 2406 4219 
Q 1781 4219 1451 3797 
Q 1122 3375 1075 2522 
Q 1259 2794 1537 2939 
Q 1816 3084 2150 3084 
Q 2853 3084 3261 2657 
Q 3669 2231 3669 1497 
Q 3669 778 3244 343 
Q 2819 -91 2113 -91 
Q 1303 -91 875 529 
Q 447 1150 447 2328 
Q 447 3434 972 4092 
Q 1497 4750 2381 4750 
Q 2619 4750 2861 4703 
Q 3103 4656 3366 4563 
z
" transform="scale(0.015625)"/>
       </defs>
       <use xlink:href="#DejaVuSans-34"/>
       <use xlink:href="#DejaVuSans-36" x="63.623047"/>
      </g>
     </g>
    </g>
    <g id="ytick_2">
     <g id="line2d_15">
      <path d="M 108 424.348496 
L 777.6 424.348496 
" clip-path="url(#pa47b5482da)" style="fill: none; stroke: #b0b0b0; stroke-width: 0.8; stroke-linecap: square"/>
     </g>
     <g id="line2d_16">
      <g>
       <use xlink:href="#m74e2f0e859" x="108" y="424.348496" style="stroke: #000000; stroke-width: 0.8"/>
      </g>
     </g>
     <g id="text_9">
      <!-- 48 -->
      <g transform="translate(62.825 435.746153) scale(0.3 -0.3)">
       <defs>
        <path id="DejaVuSans-38" d="M 2034 2216 
Q 1584 2216 1326 1975 
Q 1069 1734 1069 1313 
Q 1069 891 1326 650 
Q 1584 409 2034 409 
Q 2484 409 2743 651 
Q 3003 894 3003 1313 
Q 3003 1734 2745 1975 
Q 2488 2216 2034 2216 
z
M 1403 2484 
Q 997 2584 770 2862 
Q 544 3141 544 3541 
Q 544 4100 942 4425 
Q 1341 4750 2034 4750 
Q 2731 4750 3128 4425 
Q 3525 4100 3525 3541 
Q 3525 3141 3298 2862 
Q 3072 2584 2669 2484 
Q 3125 2378 3379 2068 
Q 3634 1759 3634 1313 
Q 3634 634 3220 271 
Q 2806 -91 2034 -91 
Q 1263 -91 848 271 
Q 434 634 434 1313 
Q 434 1759 690 2068 
Q 947 2378 1403 2484 
z
M 1172 3481 
Q 1172 3119 1398 2916 
Q 1625 2713 2034 2713 
Q 2441 2713 2670 2916 
Q 2900 3119 2900 3481 
Q 2900 3844 2670 4047 
Q 2441 4250 2034 4250 
Q 1625 4250 1398 4047 
Q 1172 3844 1172 3481 
z
" transform="scale(0.015625)"/>
       </defs>
       <use xlink:href="#DejaVuSans-34"/>
       <use xlink:href="#DejaVuSans-38" x="63.623047"/>
      </g>
     </g>
    </g>
    <g id="ytick_3">
     <g id="line2d_17">
      <path d="M 108 371.148159 
L 777.6 371.148159 
" clip-path="url(#pa47b5482da)" style="fill: none; stroke: #b0b0b0; stroke-width: 0.8; stroke-linecap: square"/>
     </g>
     <g id="line2d_18">
      <g>
       <use xlink:href="#m74e2f0e859" x="108" y="371.148159" style="stroke: #000000; stroke-width: 0.8"/>
      </g>
     </g>
     <g id="text_10">
      <!-- 50 -->
      <g transform="translate(62.825 382.545815) scale(0.3 -0.3)">
       <use xlink:href="#DejaVuSans-35"/>
       <use xlink:href="#DejaVuSans-30" x="63.623047"/>
      </g>
     </g>
    </g>
    <g id="ytick_4">
     <g id="line2d_19">
      <path d="M 108 317.947821 
L 777.6 317.947821 
" clip-path="url(#pa47b5482da)" style="fill: none; stroke: #b0b0b0; stroke-width: 0.8; stroke-linecap: square"/>
     </g>
     <g id="line2d_20">
      <g>
       <use xlink:href="#m74e2f0e859" x="108" y="317.947821" style="stroke: #000000; stroke-width: 0.8"/>
      </g>
     </g>
     <g id="text_11">
      <!-- 52 -->
      <g transform="translate(62.825 329.345477) scale(0.3 -0.3)">
       <use xlink:href="#DejaVuSans-35"/>
       <use xlink:href="#DejaVuSans-32" x="63.623047"/>
      </g>
     </g>
    </g>
    <g id="ytick_5">
     <g id="line2d_21">
      <path d="M 108 264.747483 
L 777.6 264.747483 
" clip-path="url(#pa47b5482da)" style="fill: none; stroke: #b0b0b0; stroke-width: 0.8; stroke-linecap: square"/>
     </g>
     <g id="line2d_22">
      <g>
       <use xlink:href="#m74e2f0e859" x="108" y="264.747483" style="stroke: #000000; stroke-width: 0.8"/>
      </g>
     </g>
     <g id="text_12">
      <!-- 54 -->
      <g transform="translate(62.825 276.14514) scale(0.3 -0.3)">
       <use xlink:href="#DejaVuSans-35"/>
       <use xlink:href="#DejaVuSans-34" x="63.623047"/>
      </g>
     </g>
    </g>
    <g id="ytick_6">
     <g id="line2d_23">
      <path d="M 108 211.547146 
L 777.6 211.547146 
" clip-path="url(#pa47b5482da)" style="fill: none; stroke: #b0b0b0; stroke-width: 0.8; stroke-linecap: square"/>
     </g>
     <g id="line2d_24">
      <g>
       <use xlink:href="#m74e2f0e859" x="108" y="211.547146" style="stroke: #000000; stroke-width: 0.8"/>
      </g>
     </g>
     <g id="text_13">
      <!-- 56 -->
      <g transform="translate(62.825 222.944802) scale(0.3 -0.3)">
       <use xlink:href="#DejaVuSans-35"/>
       <use xlink:href="#DejaVuSans-36" x="63.623047"/>
      </g>
     </g>
    </g>
    <g id="ytick_7">
     <g id="line2d_25">
      <path d="M 108 158.346808 
L 777.6 158.346808 
" clip-path="url(#pa47b5482da)" style="fill: none; stroke: #b0b0b0; stroke-width: 0.8; stroke-linecap: square"/>
     </g>
     <g id="line2d_26">
      <g>
       <use xlink:href="#m74e2f0e859" x="108" y="158.346808" style="stroke: #000000; stroke-width: 0.8"/>
      </g>
     </g>
     <g id="text_14">
      <!-- 58 -->
      <g transform="translate(62.825 169.744464) scale(0.3 -0.3)">
       <use xlink:href="#DejaVuSans-35"/>
       <use xlink:href="#DejaVuSans-38" x="63.623047"/>
      </g>
     </g>
    </g>
    <g id="ytick_8">
     <g id="line2d_27">
      <path d="M 108 105.14647 
L 777.6 105.14647 
" clip-path="url(#pa47b5482da)" style="fill: none; stroke: #b0b0b0; stroke-width: 0.8; stroke-linecap: square"/>
     </g>
     <g id="line2d_28">
      <g>
       <use xlink:href="#m74e2f0e859" x="108" y="105.14647" style="stroke: #000000; stroke-width: 0.8"/>
      </g>
     </g>
     <g id="text_15">
      <!-- 60 -->
      <g transform="translate(62.825 116.544126) scale(0.3 -0.3)">
       <use xlink:href="#DejaVuSans-36"/>
       <use xlink:href="#DejaVuSans-30" x="63.623047"/>
      </g>
     </g>
    </g>
    <g id="text_16">
     <!-- RMSE -->
     <g transform="translate(50.50625 347.3675) rotate(-90) scale(0.4 -0.4)">
      <defs>
       <path id="DejaVuSans-52" d="M 2841 2188 
Q 3044 2119 3236 1894 
Q 3428 1669 3622 1275 
L 4263 0 
L 3584 0 
L 2988 1197 
Q 2756 1666 2539 1819 
Q 2322 1972 1947 1972 
L 1259 1972 
L 1259 0 
L 628 0 
L 628 4666 
L 2053 4666 
Q 2853 4666 3247 4331 
Q 3641 3997 3641 3322 
Q 3641 2881 3436 2590 
Q 3231 2300 2841 2188 
z
M 1259 4147 
L 1259 2491 
L 2053 2491 
Q 2509 2491 2742 2702 
Q 2975 2913 2975 3322 
Q 2975 3731 2742 3939 
Q 2509 4147 2053 4147 
L 1259 4147 
z
" transform="scale(0.015625)"/>
       <path id="DejaVuSans-4d" d="M 628 4666 
L 1569 4666 
L 2759 1491 
L 3956 4666 
L 4897 4666 
L 4897 0 
L 4281 0 
L 4281 4097 
L 3078 897 
L 2444 897 
L 1241 4097 
L 1241 0 
L 628 0 
L 628 4666 
z
" transform="scale(0.015625)"/>
       <path id="DejaVuSans-45" d="M 628 4666 
L 3578 4666 
L 3578 4134 
L 1259 4134 
L 1259 2753 
L 3481 2753 
L 3481 2222 
L 1259 2222 
L 1259 531 
L 3634 531 
L 3634 0 
L 628 0 
L 628 4666 
z
" transform="scale(0.015625)"/>
      </defs>
      <use xlink:href="#DejaVuSans-52"/>
      <use xlink:href="#DejaVuSans-4d" x="69.482422"/>
      <use xlink:href="#DejaVuSans-53" x="155.761719"/>
      <use xlink:href="#DejaVuSans-45" x="219.238281"/>
     </g>
    </g>
   </g>
   <g id="line2d_29">
    <path d="M 138.436364 92.807525 
L 140.468842 92.670301 
L 141.485081 92.160339 
L 142.50132 92.006934 
L 144.533799 91.535665 
L 146.566277 91.471008 
L 147.582516 91.564406 
L 148.598756 90.89199 
L 149.614995 90.575623 
L 150.631234 90.485535 
L 151.647473 90.529313 
L 153.679951 90.230825 
L 158.761147 90.134618 
L 161.809865 90.174142 
L 168.923539 90.047196 
L 172.988496 89.781084 
L 175.020974 89.739301 
L 178.069692 89.52089 
L 180.10217 89.873511 
L 183.150888 90.032875 
L 184.167127 90.111709 
L 187.215845 90.057959 
L 197.378236 89.931316 
L 202.459432 89.916481 
L 206.524389 89.99874 
L 208.556868 89.931661 
L 213.638063 89.773724 
L 216.686781 89.880712 
L 219.735499 89.760106 
L 238.027804 90.009608 
L 244.125239 90.271858 
L 246.157717 90.309436 
L 252.255153 90.552937 
L 261.401305 90.551858 
L 266.482501 90.358809 
L 271.563697 90.360679 
L 273.596175 90.345702 
L 281.726089 90.508121 
L 286.807285 90.435153 
L 293.920959 90.589065 
L 299.002155 90.324812 
L 302.050873 90.391726 
L 305.09959 90.399022 
L 311.197025 89.973667 
L 313.229504 89.921226 
L 315.261982 89.788711 
L 339.651723 89.593956 
L 341.684201 89.620207 
L 343.716679 89.578543 
L 347.781636 89.740803 
L 348.797875 89.640965 
L 350.830354 89.761611 
L 356.927789 89.977908 
L 358.960267 89.984845 
L 360.992745 90.076904 
L 367.090181 89.810483 
L 370.138898 89.829969 
L 371.155137 89.791917 
L 372.171377 89.90173 
L 382.333768 89.784764 
L 385.382486 89.767561 
L 390.463682 89.790412 
L 394.528639 89.96979 
L 396.561117 90.091242 
L 401.642313 90.475268 
L 403.674791 90.437368 
L 408.755987 90.449954 
L 409.772226 90.416137 
L 411.804705 90.493008 
L 413.837183 90.457436 
L 417.90214 90.273481 
L 420.950857 90.149375 
L 427.048293 89.859355 
L 430.09701 89.784496 
L 431.113249 89.713889 
L 435.178206 89.910778 
L 440.259402 90.05781 
L 442.29188 89.987964 
L 444.324359 90.005664 
L 448.389316 90.156897 
L 452.454272 90.254232 
L 456.519229 90.47564 
L 462.616664 90.028275 
L 467.69786 89.893233 
L 471.762817 89.938202 
L 476.844013 89.977177 
L 480.908969 89.961071 
L 489.038883 89.99967 
L 492.087601 90.063276 
L 498.185036 90.091536 
L 507.331188 90.636915 
L 509.363667 90.661722 
L 511.396145 90.686765 
L 516.477341 90.500348 
L 529.68845 90.580944 
L 537.818364 89.776818 
L 538.834603 89.841415 
L 540.867081 89.731555 
L 551.029473 90.238095 
L 557.126908 89.90314 
L 559.159387 89.808802 
L 562.208104 89.762961 
L 570.338018 89.971698 
L 578.467931 89.855953 
L 580.50041 89.892198 
L 582.532888 89.825501 
L 584.565367 90.03321 
L 587.614084 90.173413 
L 589.646562 90.273268 
L 594.727758 90.201308 
L 599.808954 89.953365 
L 601.841433 89.950115 
L 607.938868 89.824135 
L 609.971346 89.858662 
L 620.133738 89.364583 
L 622.166216 89.494883 
L 633.344847 89.751484 
L 635.377326 89.841584 
L 637.409804 89.804351 
L 640.458522 89.62842 
L 645.539718 89.944629 
L 648.588435 90.123865 
L 657.734588 90.206963 
L 669.929458 90.364495 
L 672.978176 90.251607 
L 696.351677 90.040012 
L 705.49783 89.885248 
L 708.546547 89.777089 
L 713.627743 89.822078 
L 718.708939 89.958483 
L 720.741418 90.06793 
L 723.790135 90.077891 
L 730.903809 90.178409 
L 747.163636 90.604482 
L 747.163636 90.604482 
" clip-path="url(#pa47b5482da)" style="fill: none; stroke: #1f77b4; stroke-width: 4; stroke-linecap: square"/>
   </g>
   <g id="line2d_30">
    <path d="M 138.436364 92.754861 
L 139.452603 92.605647 
L 140.468842 92.209552 
L 142.50132 92.404033 
L 148.598756 91.965642 
L 149.614995 91.967949 
L 151.647473 91.61785 
L 154.696191 91.514663 
L 155.71243 91.55722 
L 160.793626 90.988915 
L 165.874822 90.68891 
L 181.118409 89.732648 
L 184.167127 89.714948 
L 187.215845 89.628169 
L 191.280801 89.774982 
L 207.540628 89.791292 
L 209.573107 89.784114 
L 223.800455 89.983039 
L 229.89789 89.953129 
L 238.027804 90.254898 
L 249.206435 90.080438 
L 251.238913 90.158463 
L 259.368827 90.115605 
L 271.563697 89.73051 
L 286.807285 89.350939 
L 302.050873 89.28 
L 306.115829 89.620133 
L 310.180786 89.791623 
L 326.440613 89.849401 
L 328.473092 89.989953 
L 331.521809 90.253623 
L 334.570527 90.239194 
L 338.635483 89.980073 
L 340.667962 89.946618 
L 342.70044 90.035835 
L 346.765397 90.105431 
L 354.89531 90.212862 
L 356.927789 90.043652 
L 358.960267 89.942971 
L 360.992745 89.762142 
L 367.090181 89.798489 
L 369.122659 89.912435 
L 371.155137 90.049249 
L 375.220094 90.161281 
L 380.30129 90.258386 
L 391.479921 90.365256 
L 395.544878 90.380331 
L 401.642313 90.024619 
L 402.658552 90.023421 
L 405.70727 89.774099 
L 412.820944 89.739308 
L 429.080771 89.720167 
L 436.194445 89.759217 
L 451.438033 89.817634 
L 457.535468 89.931377 
L 464.649143 89.979921 
L 466.681621 90.106489 
L 470.746578 90.439702 
L 473.795295 90.516878 
L 476.844013 90.479672 
L 477.860252 91.216321 
L 478.876491 92.190371 
L 479.89273 93.811901 
L 480.908969 95.840751 
L 481.925209 98.415815 
L 482.941448 101.323136 
L 483.957687 103.840399 
L 484.973926 107.10889 
L 487.006405 115.074424 
L 490.055122 128.513598 
L 497.168796 161.107806 
L 498.185036 166.475761 
L 507.331188 208.268669 
L 509.363667 215.599018 
L 511.396145 220.524977 
L 512.412384 222.161774 
L 513.428623 223.4686 
L 516.477341 229.677626 
L 517.49358 229.815638 
L 518.509819 225.591599 
L 519.526059 225.602263 
L 520.542298 224.893572 
L 521.558537 225.914116 
L 523.591015 227.506351 
L 525.623494 229.557984 
L 526.639733 225.504834 
L 527.655972 225.829407 
L 528.672211 225.287816 
L 529.68845 225.162049 
L 532.737168 228.608335 
L 533.753407 229.221782 
L 534.769646 229.645893 
L 535.785886 231.514823 
L 537.818364 236.280971 
L 538.834603 238.256143 
L 539.850842 240.474724 
L 540.867081 242.987915 
L 541.883321 243.912254 
L 542.89956 244.525027 
L 543.915799 249.82248 
L 544.932038 254.098635 
L 545.948277 259.040477 
L 546.964517 261.281985 
L 547.980756 262.796252 
L 548.996995 272.301076 
L 550.013234 275.786544 
L 551.029473 281.634541 
L 552.045713 282.757764 
L 553.061952 285.030085 
L 555.09443 294.036676 
L 556.110669 297.438884 
L 558.143148 308.631017 
L 559.159387 311.208974 
L 560.175626 318.756134 
L 561.191865 319.661602 
L 562.208104 318.405505 
L 563.224344 323.988039 
L 564.240583 328.576845 
L 566.273061 335.93799 
L 569.321779 348.7082 
L 571.354257 361.204656 
L 573.386735 376.563687 
L 574.402975 376.207137 
L 575.419214 380.588369 
L 576.435453 383.893511 
L 577.451692 388.589319 
L 578.467931 394.452791 
L 579.484171 399.209732 
L 580.50041 402.747992 
L 581.516649 400.358583 
L 582.532888 404.569556 
L 583.549127 410.078946 
L 584.565367 411.339913 
L 585.581606 415.059249 
L 586.597845 420.482946 
L 587.614084 429.162826 
L 588.630323 424.746072 
L 589.646562 429.422096 
L 590.662802 432.691782 
L 592.69528 448.779091 
L 593.711519 451.28248 
L 594.727758 457.210308 
L 595.743998 464.261478 
L 596.760237 469.60806 
L 597.776476 471.235782 
L 598.792715 476.335173 
L 599.808954 482.571796 
L 600.825194 484.919822 
L 601.841433 485.776628 
L 602.857672 488.640078 
L 603.873911 492.48 
L 605.906389 480.276191 
L 606.922629 475.74197 
L 607.938868 470.362592 
L 608.955107 472.290498 
L 609.971346 472.391574 
L 610.987585 474.866419 
L 612.003825 478.572635 
L 613.020064 478.467839 
L 614.036303 477.403517 
L 615.052542 479.345717 
L 616.068781 473.915082 
L 617.08502 466.389087 
L 618.10126 465.237858 
L 619.117499 467.013539 
L 620.133738 468.075781 
L 622.166216 467.825782 
L 623.182456 469.71634 
L 624.198695 469.057039 
L 625.214934 465.846467 
L 626.231173 463.086602 
L 627.247412 461.71588 
L 628.263652 460.710868 
L 629.279891 457.143875 
L 630.29613 453.068116 
L 631.312369 451.069572 
L 632.328608 447.87181 
L 634.361087 444.515092 
L 635.377326 456.279986 
L 637.409804 464.740792 
L 638.426043 466.277153 
L 640.458522 456.569075 
L 641.474761 455.75598 
L 642.491 457.539959 
L 643.507239 457.868808 
L 644.523479 456.779443 
L 645.539718 454.140546 
L 646.555957 455.438513 
L 647.572196 460.421654 
L 648.588435 457.827134 
L 649.604674 460.448696 
L 650.620914 459.406955 
L 652.653392 452.088513 
L 654.68587 445.512284 
L 655.70211 445.410813 
L 656.718349 442.628039 
L 657.734588 441.162332 
L 658.750827 444.135995 
L 659.767066 442.61272 
L 660.783306 442.359988 
L 661.799545 442.891848 
L 662.815784 438.976888 
L 663.832023 435.559047 
L 664.848262 432.65142 
L 665.864501 430.41713 
L 666.880741 431.630612 
L 667.89698 429.28903 
L 668.913219 431.593051 
L 669.929458 432.942203 
L 670.945697 435.58589 
L 671.961937 435.862058 
L 672.978176 433.101818 
L 673.994415 435.06647 
L 675.010654 435.516071 
L 676.026893 436.668085 
L 677.043132 440.283595 
L 678.059372 440.783532 
L 679.075611 442.144493 
L 680.09185 443.755882 
L 681.108089 444.146585 
L 682.124328 445.505161 
L 683.140568 446.057569 
L 684.156807 447.581713 
L 685.173046 449.563713 
L 686.189285 450.703429 
L 687.205524 451.451274 
L 688.221764 451.590619 
L 689.238003 450.266184 
L 690.254242 452.260121 
L 691.270481 452.196012 
L 692.28672 450.710633 
L 693.302959 457.39707 
L 694.319199 458.367037 
L 695.335438 460.479046 
L 696.351677 459.288162 
L 697.367916 459.87737 
L 698.384155 461.983082 
L 699.400395 464.367238 
L 700.416634 466.110415 
L 702.449112 465.055019 
L 703.465351 466.949078 
L 704.481591 466.398845 
L 705.49783 467.281184 
L 706.514069 468.473888 
L 707.530308 466.905235 
L 708.546547 465.122826 
L 709.562786 465.531398 
L 710.579026 466.777861 
L 711.595265 466.92694 
L 713.627743 465.969245 
L 714.643982 464.656229 
L 715.660222 464.106882 
L 716.676461 463.130885 
L 717.6927 463.713315 
L 718.708939 463.111649 
L 719.725178 460.922778 
L 720.741418 459.574119 
L 721.757657 458.660225 
L 722.773896 458.381652 
L 723.790135 457.735992 
L 724.806374 458.436433 
L 725.822613 455.957022 
L 726.838853 457.175919 
L 727.855092 455.376784 
L 728.871331 454.829785 
L 729.88757 453.234597 
L 731.920049 454.631644 
L 732.936288 454.363587 
L 733.952527 454.469733 
L 734.968766 453.626294 
L 735.985005 453.429422 
L 737.001244 452.387766 
L 738.017484 452.850131 
L 739.033723 453.692075 
L 741.066201 451.986463 
L 742.08244 450.984931 
L 743.09868 450.712247 
L 744.114919 450.625729 
L 745.131158 451.222784 
L 746.147397 451.950704 
L 747.163636 451.256584 
L 747.163636 451.256584 
" clip-path="url(#pa47b5482da)" style="fill: none; stroke: #ff7f0e; stroke-width: 4; stroke-linecap: square"/>
   </g>
   <g id="line2d_31"/>
   <g id="line2d_32"/>
   <g id="patch_3">
    <path d="M 108 512.64 
L 108 69.12 
" style="fill: none; stroke: #000000; stroke-width: 0.8; stroke-linejoin: miter; stroke-linecap: square"/>
   </g>
   <g id="patch_4">
    <path d="M 777.6 512.64 
L 777.6 69.12 
" style="fill: none; stroke: #000000; stroke-width: 0.8; stroke-linejoin: miter; stroke-linecap: square"/>
   </g>
   <g id="patch_5">
    <path d="M 108 512.64 
L 777.6 512.64 
" style="fill: none; stroke: #000000; stroke-width: 0.8; stroke-linejoin: miter; stroke-linecap: square"/>
   </g>
   <g id="patch_6">
    <path d="M 108 69.12 
L 777.6 69.12 
" style="fill: none; stroke: #000000; stroke-width: 0.8; stroke-linejoin: miter; stroke-linecap: square"/>
   </g>
   <g id="text_17">
    <!-- binding -->
    <g transform="translate(330.970313 56.641875) scale(0.6 -0.6)">
     <defs>
      <path id="DejaVuSans-62" d="M 3116 1747 
Q 3116 2381 2855 2742 
Q 2594 3103 2138 3103 
Q 1681 3103 1420 2742 
Q 1159 2381 1159 1747 
Q 1159 1113 1420 752 
Q 1681 391 2138 391 
Q 2594 391 2855 752 
Q 3116 1113 3116 1747 
z
M 1159 2969 
Q 1341 3281 1617 3432 
Q 1894 3584 2278 3584 
Q 2916 3584 3314 3078 
Q 3713 2572 3713 1747 
Q 3713 922 3314 415 
Q 2916 -91 2278 -91 
Q 1894 -91 1617 61 
Q 1341 213 1159 525 
L 1159 0 
L 581 0 
L 581 4863 
L 1159 4863 
L 1159 2969 
z
" transform="scale(0.015625)"/>
      <path id="DejaVuSans-69" d="M 603 3500 
L 1178 3500 
L 1178 0 
L 603 0 
L 603 3500 
z
M 603 4863 
L 1178 4863 
L 1178 4134 
L 603 4134 
L 603 4863 
z
" transform="scale(0.015625)"/>
      <path id="DejaVuSans-6e" d="M 3513 2113 
L 3513 0 
L 2938 0 
L 2938 2094 
Q 2938 2591 2744 2837 
Q 2550 3084 2163 3084 
Q 1697 3084 1428 2787 
Q 1159 2491 1159 1978 
L 1159 0 
L 581 0 
L 581 3500 
L 1159 3500 
L 1159 2956 
Q 1366 3272 1645 3428 
Q 1925 3584 2291 3584 
Q 2894 3584 3203 3211 
Q 3513 2838 3513 2113 
z
" transform="scale(0.015625)"/>
      <path id="DejaVuSans-64" d="M 2906 2969 
L 2906 4863 
L 3481 4863 
L 3481 0 
L 2906 0 
L 2906 525 
Q 2725 213 2448 61 
Q 2172 -91 1784 -91 
Q 1150 -91 751 415 
Q 353 922 353 1747 
Q 353 2572 751 3078 
Q 1150 3584 1784 3584 
Q 2172 3584 2448 3432 
Q 2725 3281 2906 2969 
z
M 947 1747 
Q 947 1113 1208 752 
Q 1469 391 1925 391 
Q 2381 391 2643 752 
Q 2906 1113 2906 1747 
Q 2906 2381 2643 2742 
Q 2381 3103 1925 3103 
Q 1469 3103 1208 2742 
Q 947 2381 947 1747 
z
" transform="scale(0.015625)"/>
      <path id="DejaVuSans-67" d="M 2906 1791 
Q 2906 2416 2648 2759 
Q 2391 3103 1925 3103 
Q 1463 3103 1205 2759 
Q 947 2416 947 1791 
Q 947 1169 1205 825 
Q 1463 481 1925 481 
Q 2391 481 2648 825 
Q 2906 1169 2906 1791 
z
M 3481 434 
Q 3481 -459 3084 -895 
Q 2688 -1331 1869 -1331 
Q 1566 -1331 1297 -1286 
Q 1028 -1241 775 -1147 
L 775 -588 
Q 1028 -725 1275 -790 
Q 1522 -856 1778 -856 
Q 2344 -856 2625 -561 
Q 2906 -266 2906 331 
L 2906 616 
Q 2728 306 2450 153 
Q 2172 0 1784 0 
Q 1141 0 747 490 
Q 353 981 353 1791 
Q 353 2603 747 3093 
Q 1141 3584 1784 3584 
Q 2172 3584 2450 3431 
Q 2728 3278 2906 2969 
L 2906 3500 
L 3481 3500 
L 3481 434 
z
" transform="scale(0.015625)"/>
     </defs>
     <use xlink:href="#DejaVuSans-62"/>
     <use xlink:href="#DejaVuSans-69" x="63.476562"/>
     <use xlink:href="#DejaVuSans-6e" x="91.259766"/>
     <use xlink:href="#DejaVuSans-64" x="154.638672"/>
     <use xlink:href="#DejaVuSans-69" x="218.115234"/>
     <use xlink:href="#DejaVuSans-6e" x="245.898438"/>
     <use xlink:href="#DejaVuSans-67" x="309.277344"/>
    </g>
   </g>
   <g id="legend_1">
    <g id="patch_7">
     <path d="M 136 492.64 
L 401.66875 492.64 
Q 409.66875 492.64 409.66875 484.64 
L 409.66875 371.215 
Q 409.66875 363.215 401.66875 363.215 
L 136 363.215 
Q 128 363.215 128 371.215 
L 128 484.64 
Q 128 492.64 136 492.64 
z
" style="fill: #ffffff; opacity: 0.8; stroke: #cccccc; stroke-linejoin: miter"/>
    </g>
    <g id="line2d_33">
     <path d="M 144 395.60875 
L 184 395.60875 
L 224 395.60875 
" style="fill: none; stroke: #1f77b4; stroke-width: 4; stroke-linecap: square"/>
    </g>
    <g id="text_18">
     <!-- local -->
     <g transform="translate(256 409.60875) scale(0.4 -0.4)">
      <defs>
       <path id="DejaVuSans-6c" d="M 603 4863 
L 1178 4863 
L 1178 0 
L 603 0 
L 603 4863 
z
" transform="scale(0.015625)"/>
       <path id="DejaVuSans-6f" d="M 1959 3097 
Q 1497 3097 1228 2736 
Q 959 2375 959 1747 
Q 959 1119 1226 758 
Q 1494 397 1959 397 
Q 2419 397 2687 759 
Q 2956 1122 2956 1747 
Q 2956 2369 2687 2733 
Q 2419 3097 1959 3097 
z
M 1959 3584 
Q 2709 3584 3137 3096 
Q 3566 2609 3566 1747 
Q 3566 888 3137 398 
Q 2709 -91 1959 -91 
Q 1206 -91 779 398 
Q 353 888 353 1747 
Q 353 2609 779 3096 
Q 1206 3584 1959 3584 
z
" transform="scale(0.015625)"/>
       <path id="DejaVuSans-63" d="M 3122 3366 
L 3122 2828 
Q 2878 2963 2633 3030 
Q 2388 3097 2138 3097 
Q 1578 3097 1268 2742 
Q 959 2388 959 1747 
Q 959 1106 1268 751 
Q 1578 397 2138 397 
Q 2388 397 2633 464 
Q 2878 531 3122 666 
L 3122 134 
Q 2881 22 2623 -34 
Q 2366 -91 2075 -91 
Q 1284 -91 818 406 
Q 353 903 353 1747 
Q 353 2603 823 3093 
Q 1294 3584 2113 3584 
Q 2378 3584 2631 3529 
Q 2884 3475 3122 3366 
z
" transform="scale(0.015625)"/>
       <path id="DejaVuSans-61" d="M 2194 1759 
Q 1497 1759 1228 1600 
Q 959 1441 959 1056 
Q 959 750 1161 570 
Q 1363 391 1709 391 
Q 2188 391 2477 730 
Q 2766 1069 2766 1631 
L 2766 1759 
L 2194 1759 
z
M 3341 1997 
L 3341 0 
L 2766 0 
L 2766 531 
Q 2569 213 2275 61 
Q 1981 -91 1556 -91 
Q 1019 -91 701 211 
Q 384 513 384 1019 
Q 384 1609 779 1909 
Q 1175 2209 1959 2209 
L 2766 2209 
L 2766 2266 
Q 2766 2663 2505 2880 
Q 2244 3097 1772 3097 
Q 1472 3097 1187 3025 
Q 903 2953 641 2809 
L 641 3341 
Q 956 3463 1253 3523 
Q 1550 3584 1831 3584 
Q 2591 3584 2966 3190 
Q 3341 2797 3341 1997 
z
" transform="scale(0.015625)"/>
      </defs>
      <use xlink:href="#DejaVuSans-6c"/>
      <use xlink:href="#DejaVuSans-6f" x="27.783203"/>
      <use xlink:href="#DejaVuSans-63" x="88.964844"/>
      <use xlink:href="#DejaVuSans-61" x="143.945312"/>
      <use xlink:href="#DejaVuSans-6c" x="205.224609"/>
     </g>
    </g>
    <g id="line2d_34">
     <path d="M 144 454.32125 
L 184 454.32125 
L 224 454.32125 
" style="fill: none; stroke: #ff7f0e; stroke-width: 4; stroke-linecap: square"/>
    </g>
    <g id="text_19">
     <!-- fedavg -->
     <g transform="translate(256 468.32125) scale(0.4 -0.4)">
      <defs>
       <path id="DejaVuSans-66" d="M 2375 4863 
L 2375 4384 
L 1825 4384 
Q 1516 4384 1395 4259 
Q 1275 4134 1275 3809 
L 1275 3500 
L 2222 3500 
L 2222 3053 
L 1275 3053 
L 1275 0 
L 697 0 
L 697 3053 
L 147 3053 
L 147 3500 
L 697 3500 
L 697 3744 
Q 697 4328 969 4595 
Q 1241 4863 1831 4863 
L 2375 4863 
z
" transform="scale(0.015625)"/>
       <path id="DejaVuSans-76" d="M 191 3500 
L 800 3500 
L 1894 563 
L 2988 3500 
L 3597 3500 
L 2284 0 
L 1503 0 
L 191 3500 
z
" transform="scale(0.015625)"/>
      </defs>
      <use xlink:href="#DejaVuSans-66"/>
      <use xlink:href="#DejaVuSans-65" x="35.205078"/>
      <use xlink:href="#DejaVuSans-64" x="96.728516"/>
      <use xlink:href="#DejaVuSans-61" x="160.205078"/>
      <use xlink:href="#DejaVuSans-76" x="221.484375"/>
      <use xlink:href="#DejaVuSans-67" x="280.664062"/>
     </g>
    </g>
   </g>
  </g>
 </g>
 <defs>
  <clipPath id="pa47b5482da">
   <rect x="108" y="69.12" width="669.6" height="443.52"/>
  </clipPath>
 </defs>
</svg>
