<?xml version="1.0" encoding="utf-8" standalone="no"?>
<!DOCTYPE svg PUBLIC "-//W3C//DTD SVG 1.1//EN"
  "http://www.w3.org/Graphics/SVG/1.1/DTD/svg11.dtd">
<svg xmlns:xlink="http://www.w3.org/1999/xlink" width="864pt" height="576pt" viewBox="0 0 864 576" xmlns="http://www.w3.org/2000/svg" version="1.1">
 <metadata>
  <rdf:RDF xmlns:dc="http://purl.org/dc/elements/1.1/" xmlns:cc="http://creativecommons.org/ns#" xmlns:rdf="http://www.w3.org/1999/02/22-rdf-syntax-ns#">
   <cc:Work>
    <dc:type rdf:resource="http://purl.org/dc/dcmitype/StillImage"/>
    <dc:date>2025-04-25T14:16:24.194705</dc:date>
    <dc:format>image/svg+xml</dc:format>
    <dc:creator>
     <cc:Agent>
      <dc:title>Matplotlib v3.8.2, https://matplotlib.org/</dc:title>
     </cc:Agent>
    </dc:creator>
   </cc:Work>
  </rdf:RDF>
 </metadata>
 <defs>
  <style type="text/css">*{stroke-linejoin: round; stroke-linecap: butt}</style>
 </defs>
 <g id="figure_1">
  <g id="patch_1">
   <path d="M 0 576 
L 864 576 
L 864 0 
L 0 0 
z
" style="fill: #ffffff"/>
  </g>
  <g id="axes_1">
   <g id="patch_2">
    <path d="M 108 512.64 
L 777.6 512.64 
L 777.6 69.12 
L 108 69.12 
z
" style="fill: #ffffff"/>
   </g>
   <g id="PolyCollection_1"/>
   <g id="PolyCollection_2"/>
   <g id="matplotlib.axis_1">
    <g id="xtick_1">
     <g id="line2d_1">
      <path d="M 137.420124 512.64 
L 137.420124 69.12 
" clip-path="url(#p92b08e4b6c)" style="fill: none; stroke: #b0b0b0; stroke-width: 0.8; stroke-linecap: square"/>
     </g>
     <g id="line2d_2">
      <defs>
       <path id="mf4443141fa" d="M 0 0 
L 0 3.5 
" style="stroke: #000000; stroke-width: 0.8"/>
      </defs>
      <g>
       <use xlink:href="#mf4443141fa" x="137.420124" y="512.64" style="stroke: #000000; stroke-width: 0.8"/>
      </g>
     </g>
     <g id="text_1">
      <!-- 0 -->
      <g transform="translate(127.876374 542.435313) scale(0.3 -0.3)">
       <defs>
        <path id="DejaVuSans-30" d="M 2034 4250 
Q 1547 4250 1301 3770 
Q 1056 3291 1056 2328 
Q 1056 1369 1301 889 
Q 1547 409 2034 409 
Q 2525 409 2770 889 
Q 3016 1369 3016 2328 
Q 3016 3291 2770 3770 
Q 2525 4250 2034 4250 
z
M 2034 4750 
Q 2819 4750 3233 4129 
Q 3647 3509 3647 2328 
Q 3647 1150 3233 529 
Q 2819 -91 2034 -91 
Q 1250 -91 836 529 
Q 422 1150 422 2328 
Q 422 3509 836 4129 
Q 1250 4750 2034 4750 
z
" transform="scale(0.015625)"/>
       </defs>
       <use xlink:href="#DejaVuSans-30"/>
      </g>
     </g>
    </g>
    <g id="xtick_2">
     <g id="line2d_3">
      <path d="M 222.106723 512.64 
L 222.106723 69.12 
" clip-path="url(#p92b08e4b6c)" style="fill: none; stroke: #b0b0b0; stroke-width: 0.8; stroke-linecap: square"/>
     </g>
     <g id="line2d_4">
      <g>
       <use xlink:href="#mf4443141fa" x="222.106723" y="512.64" style="stroke: #000000; stroke-width: 0.8"/>
      </g>
     </g>
     <g id="text_2">
      <!-- 500 -->
      <g transform="translate(193.475473 542.435313) scale(0.3 -0.3)">
       <defs>
        <path id="DejaVuSans-35" d="M 691 4666 
L 3169 4666 
L 3169 4134 
L 1269 4134 
L 1269 2991 
Q 1406 3038 1543 3061 
Q 1681 3084 1819 3084 
Q 2600 3084 3056 2656 
Q 3513 2228 3513 1497 
Q 3513 744 3044 326 
Q 2575 -91 1722 -91 
Q 1428 -91 1123 -41 
Q 819 9 494 109 
L 494 744 
Q 775 591 1075 516 
Q 1375 441 1709 441 
Q 2250 441 2565 725 
Q 2881 1009 2881 1497 
Q 2881 1984 2565 2268 
Q 2250 2553 1709 2553 
Q 1456 2553 1204 2497 
Q 953 2441 691 2322 
L 691 4666 
z
" transform="scale(0.015625)"/>
       </defs>
       <use xlink:href="#DejaVuSans-35"/>
       <use xlink:href="#DejaVuSans-30" x="63.623047"/>
       <use xlink:href="#DejaVuSans-30" x="127.246094"/>
      </g>
     </g>
    </g>
    <g id="xtick_3">
     <g id="line2d_5">
      <path d="M 306.793322 512.64 
L 306.793322 69.12 
" clip-path="url(#p92b08e4b6c)" style="fill: none; stroke: #b0b0b0; stroke-width: 0.8; stroke-linecap: square"/>
     </g>
     <g id="line2d_6">
      <g>
       <use xlink:href="#mf4443141fa" x="306.793322" y="512.64" style="stroke: #000000; stroke-width: 0.8"/>
      </g>
     </g>
     <g id="text_3">
      <!-- 1000 -->
      <g transform="translate(268.618322 542.435313) scale(0.3 -0.3)">
       <defs>
        <path id="DejaVuSans-31" d="M 794 531 
L 1825 531 
L 1825 4091 
L 703 3866 
L 703 4441 
L 1819 4666 
L 2450 4666 
L 2450 531 
L 3481 531 
L 3481 0 
L 794 0 
L 794 531 
z
" transform="scale(0.015625)"/>
       </defs>
       <use xlink:href="#DejaVuSans-31"/>
       <use xlink:href="#DejaVuSans-30" x="63.623047"/>
       <use xlink:href="#DejaVuSans-30" x="127.246094"/>
       <use xlink:href="#DejaVuSans-30" x="190.869141"/>
      </g>
     </g>
    </g>
    <g id="xtick_4">
     <g id="line2d_7">
      <path d="M 391.479921 512.64 
L 391.479921 69.12 
" clip-path="url(#p92b08e4b6c)" style="fill: none; stroke: #b0b0b0; stroke-width: 0.8; stroke-linecap: square"/>
     </g>
     <g id="line2d_8">
      <g>
       <use xlink:href="#mf4443141fa" x="391.479921" y="512.64" style="stroke: #000000; stroke-width: 0.8"/>
      </g>
     </g>
     <g id="text_4">
      <!-- 1500 -->
      <g transform="translate(353.304921 542.435313) scale(0.3 -0.3)">
       <use xlink:href="#DejaVuSans-31"/>
       <use xlink:href="#DejaVuSans-35" x="63.623047"/>
       <use xlink:href="#DejaVuSans-30" x="127.246094"/>
       <use xlink:href="#DejaVuSans-30" x="190.869141"/>
      </g>
     </g>
    </g>
    <g id="xtick_5">
     <g id="line2d_9">
      <path d="M 476.16652 512.64 
L 476.16652 69.12 
" clip-path="url(#p92b08e4b6c)" style="fill: none; stroke: #b0b0b0; stroke-width: 0.8; stroke-linecap: square"/>
     </g>
     <g id="line2d_10">
      <g>
       <use xlink:href="#mf4443141fa" x="476.16652" y="512.64" style="stroke: #000000; stroke-width: 0.8"/>
      </g>
     </g>
     <g id="text_5">
      <!-- 2000 -->
      <g transform="translate(437.99152 542.435313) scale(0.3 -0.3)">
       <defs>
        <path id="DejaVuSans-32" d="M 1228 531 
L 3431 531 
L 3431 0 
L 469 0 
L 469 531 
Q 828 903 1448 1529 
Q 2069 2156 2228 2338 
Q 2531 2678 2651 2914 
Q 2772 3150 2772 3378 
Q 2772 3750 2511 3984 
Q 2250 4219 1831 4219 
Q 1534 4219 1204 4116 
Q 875 4013 500 3803 
L 500 4441 
Q 881 4594 1212 4672 
Q 1544 4750 1819 4750 
Q 2544 4750 2975 4387 
Q 3406 4025 3406 3419 
Q 3406 3131 3298 2873 
Q 3191 2616 2906 2266 
Q 2828 2175 2409 1742 
Q 1991 1309 1228 531 
z
" transform="scale(0.015625)"/>
       </defs>
       <use xlink:href="#DejaVuSans-32"/>
       <use xlink:href="#DejaVuSans-30" x="63.623047"/>
       <use xlink:href="#DejaVuSans-30" x="127.246094"/>
       <use xlink:href="#DejaVuSans-30" x="190.869141"/>
      </g>
     </g>
    </g>
    <g id="xtick_6">
     <g id="line2d_11">
      <path d="M 560.853119 512.64 
L 560.853119 69.12 
" clip-path="url(#p92b08e4b6c)" style="fill: none; stroke: #b0b0b0; stroke-width: 0.8; stroke-linecap: square"/>
     </g>
     <g id="line2d_12">
      <g>
       <use xlink:href="#mf4443141fa" x="560.853119" y="512.64" style="stroke: #000000; stroke-width: 0.8"/>
      </g>
     </g>
     <g id="text_6">
      <!-- 2500 -->
      <g transform="translate(522.678119 542.435313) scale(0.3 -0.3)">
       <use xlink:href="#DejaVuSans-32"/>
       <use xlink:href="#DejaVuSans-35" x="63.623047"/>
       <use xlink:href="#DejaVuSans-30" x="127.246094"/>
       <use xlink:href="#DejaVuSans-30" x="190.869141"/>
      </g>
     </g>
    </g>
    <g id="xtick_7">
     <g id="line2d_13">
      <path d="M 645.539718 512.64 
L 645.539718 69.12 
" clip-path="url(#p92b08e4b6c)" style="fill: none; stroke: #b0b0b0; stroke-width: 0.8; stroke-linecap: square"/>
     </g>
     <g id="line2d_14">
      <g>
       <use xlink:href="#mf4443141fa" x="645.539718" y="512.64" style="stroke: #000000; stroke-width: 0.8"/>
      </g>
     </g>
     <g id="text_7">
      <!-- 3000 -->
      <g transform="translate(607.364718 542.435313) scale(0.3 -0.3)">
       <defs>
        <path id="DejaVuSans-33" d="M 2597 2516 
Q 3050 2419 3304 2112 
Q 3559 1806 3559 1356 
Q 3559 666 3084 287 
Q 2609 -91 1734 -91 
Q 1441 -91 1130 -33 
Q 819 25 488 141 
L 488 750 
Q 750 597 1062 519 
Q 1375 441 1716 441 
Q 2309 441 2620 675 
Q 2931 909 2931 1356 
Q 2931 1769 2642 2001 
Q 2353 2234 1838 2234 
L 1294 2234 
L 1294 2753 
L 1863 2753 
Q 2328 2753 2575 2939 
Q 2822 3125 2822 3475 
Q 2822 3834 2567 4026 
Q 2313 4219 1838 4219 
Q 1578 4219 1281 4162 
Q 984 4106 628 3988 
L 628 4550 
Q 988 4650 1302 4700 
Q 1616 4750 1894 4750 
Q 2613 4750 3031 4423 
Q 3450 4097 3450 3541 
Q 3450 3153 3228 2886 
Q 3006 2619 2597 2516 
z
" transform="scale(0.015625)"/>
       </defs>
       <use xlink:href="#DejaVuSans-33"/>
       <use xlink:href="#DejaVuSans-30" x="63.623047"/>
       <use xlink:href="#DejaVuSans-30" x="127.246094"/>
       <use xlink:href="#DejaVuSans-30" x="190.869141"/>
      </g>
     </g>
    </g>
    <g id="xtick_8">
     <g id="line2d_15">
      <path d="M 730.226317 512.64 
L 730.226317 69.12 
" clip-path="url(#p92b08e4b6c)" style="fill: none; stroke: #b0b0b0; stroke-width: 0.8; stroke-linecap: square"/>
     </g>
     <g id="line2d_16">
      <g>
       <use xlink:href="#mf4443141fa" x="730.226317" y="512.64" style="stroke: #000000; stroke-width: 0.8"/>
      </g>
     </g>
     <g id="text_8">
      <!-- 3500 -->
      <g transform="translate(692.051317 542.435313) scale(0.3 -0.3)">
       <use xlink:href="#DejaVuSans-33"/>
       <use xlink:href="#DejaVuSans-35" x="63.623047"/>
       <use xlink:href="#DejaVuSans-30" x="127.246094"/>
       <use xlink:href="#DejaVuSans-30" x="190.869141"/>
      </g>
     </g>
    </g>
    <g id="text_9">
     <!-- Steps -->
     <g transform="translate(386.840625 583.068125) scale(0.4 -0.4)">
      <defs>
       <path id="DejaVuSans-53" d="M 3425 4513 
L 3425 3897 
Q 3066 4069 2747 4153 
Q 2428 4238 2131 4238 
Q 1616 4238 1336 4038 
Q 1056 3838 1056 3469 
Q 1056 3159 1242 3001 
Q 1428 2844 1947 2747 
L 2328 2669 
Q 3034 2534 3370 2195 
Q 3706 1856 3706 1288 
Q 3706 609 3251 259 
Q 2797 -91 1919 -91 
Q 1588 -91 1214 -16 
Q 841 59 441 206 
L 441 856 
Q 825 641 1194 531 
Q 1563 422 1919 422 
Q 2459 422 2753 634 
Q 3047 847 3047 1241 
Q 3047 1584 2836 1778 
Q 2625 1972 2144 2069 
L 1759 2144 
Q 1053 2284 737 2584 
Q 422 2884 422 3419 
Q 422 4038 858 4394 
Q 1294 4750 2059 4750 
Q 2388 4750 2728 4690 
Q 3069 4631 3425 4513 
z
" transform="scale(0.015625)"/>
       <path id="DejaVuSans-74" d="M 1172 4494 
L 1172 3500 
L 2356 3500 
L 2356 3053 
L 1172 3053 
L 1172 1153 
Q 1172 725 1289 603 
Q 1406 481 1766 481 
L 2356 481 
L 2356 0 
L 1766 0 
Q 1100 0 847 248 
Q 594 497 594 1153 
L 594 3053 
L 172 3053 
L 172 3500 
L 594 3500 
L 594 4494 
L 1172 4494 
z
" transform="scale(0.015625)"/>
       <path id="DejaVuSans-65" d="M 3597 1894 
L 3597 1613 
L 953 1613 
Q 991 1019 1311 708 
Q 1631 397 2203 397 
Q 2534 397 2845 478 
Q 3156 559 3463 722 
L 3463 178 
Q 3153 47 2828 -22 
Q 2503 -91 2169 -91 
Q 1331 -91 842 396 
Q 353 884 353 1716 
Q 353 2575 817 3079 
Q 1281 3584 2069 3584 
Q 2775 3584 3186 3129 
Q 3597 2675 3597 1894 
z
M 3022 2063 
Q 3016 2534 2758 2815 
Q 2500 3097 2075 3097 
Q 1594 3097 1305 2825 
Q 1016 2553 972 2059 
L 3022 2063 
z
" transform="scale(0.015625)"/>
       <path id="DejaVuSans-70" d="M 1159 525 
L 1159 -1331 
L 581 -1331 
L 581 3500 
L 1159 3500 
L 1159 2969 
Q 1341 3281 1617 3432 
Q 1894 3584 2278 3584 
Q 2916 3584 3314 3078 
Q 3713 2572 3713 1747 
Q 3713 922 3314 415 
Q 2916 -91 2278 -91 
Q 1894 -91 1617 61 
Q 1341 213 1159 525 
z
M 3116 1747 
Q 3116 2381 2855 2742 
Q 2594 3103 2138 3103 
Q 1681 3103 1420 2742 
Q 1159 2381 1159 1747 
Q 1159 1113 1420 752 
Q 1681 391 2138 391 
Q 2594 391 2855 752 
Q 3116 1113 3116 1747 
z
" transform="scale(0.015625)"/>
       <path id="DejaVuSans-73" d="M 2834 3397 
L 2834 2853 
Q 2591 2978 2328 3040 
Q 2066 3103 1784 3103 
Q 1356 3103 1142 2972 
Q 928 2841 928 2578 
Q 928 2378 1081 2264 
Q 1234 2150 1697 2047 
L 1894 2003 
Q 2506 1872 2764 1633 
Q 3022 1394 3022 966 
Q 3022 478 2636 193 
Q 2250 -91 1575 -91 
Q 1294 -91 989 -36 
Q 684 19 347 128 
L 347 722 
Q 666 556 975 473 
Q 1284 391 1588 391 
Q 1994 391 2212 530 
Q 2431 669 2431 922 
Q 2431 1156 2273 1281 
Q 2116 1406 1581 1522 
L 1381 1569 
Q 847 1681 609 1914 
Q 372 2147 372 2553 
Q 372 3047 722 3315 
Q 1072 3584 1716 3584 
Q 2034 3584 2315 3537 
Q 2597 3491 2834 3397 
z
" transform="scale(0.015625)"/>
      </defs>
      <use xlink:href="#DejaVuSans-53"/>
      <use xlink:href="#DejaVuSans-74" x="63.476562"/>
      <use xlink:href="#DejaVuSans-65" x="102.685547"/>
      <use xlink:href="#DejaVuSans-70" x="164.208984"/>
      <use xlink:href="#DejaVuSans-73" x="227.685547"/>
     </g>
    </g>
   </g>
   <g id="matplotlib.axis_2">
    <g id="ytick_1">
     <g id="line2d_17">
      <path d="M 108 446.071271 
L 777.6 446.071271 
" clip-path="url(#p92b08e4b6c)" style="fill: none; stroke: #b0b0b0; stroke-width: 0.8; stroke-linecap: square"/>
     </g>
     <g id="line2d_18">
      <defs>
       <path id="m79b04bf8fb" d="M 0 0 
L -3.5 0 
" style="stroke: #000000; stroke-width: 0.8"/>
      </defs>
      <g>
       <use xlink:href="#m79b04bf8fb" x="108" y="446.071271" style="stroke: #000000; stroke-width: 0.8"/>
      </g>
     </g>
     <g id="text_10">
      <!-- 4.5 -->
      <g transform="translate(53.290625 457.468927) scale(0.3 -0.3)">
       <defs>
        <path id="DejaVuSans-34" d="M 2419 4116 
L 825 1625 
L 2419 1625 
L 2419 4116 
z
M 2253 4666 
L 3047 4666 
L 3047 1625 
L 3713 1625 
L 3713 1100 
L 3047 1100 
L 3047 0 
L 2419 0 
L 2419 1100 
L 313 1100 
L 313 1709 
L 2253 4666 
z
" transform="scale(0.015625)"/>
        <path id="DejaVuSans-2e" d="M 684 794 
L 1344 794 
L 1344 0 
L 684 0 
L 684 794 
z
" transform="scale(0.015625)"/>
       </defs>
       <use xlink:href="#DejaVuSans-34"/>
       <use xlink:href="#DejaVuSans-2e" x="63.623047"/>
       <use xlink:href="#DejaVuSans-35" x="95.410156"/>
      </g>
     </g>
    </g>
    <g id="ytick_2">
     <g id="line2d_19">
      <path d="M 108 355.821009 
L 777.6 355.821009 
" clip-path="url(#p92b08e4b6c)" style="fill: none; stroke: #b0b0b0; stroke-width: 0.8; stroke-linecap: square"/>
     </g>
     <g id="line2d_20">
      <g>
       <use xlink:href="#m79b04bf8fb" x="108" y="355.821009" style="stroke: #000000; stroke-width: 0.8"/>
      </g>
     </g>
     <g id="text_11">
      <!-- 5.0 -->
      <g transform="translate(53.290625 367.218666) scale(0.3 -0.3)">
       <use xlink:href="#DejaVuSans-35"/>
       <use xlink:href="#DejaVuSans-2e" x="63.623047"/>
       <use xlink:href="#DejaVuSans-30" x="95.410156"/>
      </g>
     </g>
    </g>
    <g id="ytick_3">
     <g id="line2d_21">
      <path d="M 108 265.570748 
L 777.6 265.570748 
" clip-path="url(#p92b08e4b6c)" style="fill: none; stroke: #b0b0b0; stroke-width: 0.8; stroke-linecap: square"/>
     </g>
     <g id="line2d_22">
      <g>
       <use xlink:href="#m79b04bf8fb" x="108" y="265.570748" style="stroke: #000000; stroke-width: 0.8"/>
      </g>
     </g>
     <g id="text_12">
      <!-- 5.5 -->
      <g transform="translate(53.290625 276.968404) scale(0.3 -0.3)">
       <use xlink:href="#DejaVuSans-35"/>
       <use xlink:href="#DejaVuSans-2e" x="63.623047"/>
       <use xlink:href="#DejaVuSans-35" x="95.410156"/>
      </g>
     </g>
    </g>
    <g id="ytick_4">
     <g id="line2d_23">
      <path d="M 108 175.320486 
L 777.6 175.320486 
" clip-path="url(#p92b08e4b6c)" style="fill: none; stroke: #b0b0b0; stroke-width: 0.8; stroke-linecap: square"/>
     </g>
     <g id="line2d_24">
      <g>
       <use xlink:href="#m79b04bf8fb" x="108" y="175.320486" style="stroke: #000000; stroke-width: 0.8"/>
      </g>
     </g>
     <g id="text_13">
      <!-- 6.0 -->
      <g transform="translate(53.290625 186.718142) scale(0.3 -0.3)">
       <defs>
        <path id="DejaVuSans-36" d="M 2113 2584 
Q 1688 2584 1439 2293 
Q 1191 2003 1191 1497 
Q 1191 994 1439 701 
Q 1688 409 2113 409 
Q 2538 409 2786 701 
Q 3034 994 3034 1497 
Q 3034 2003 2786 2293 
Q 2538 2584 2113 2584 
z
M 3366 4563 
L 3366 3988 
Q 3128 4100 2886 4159 
Q 2644 4219 2406 4219 
Q 1781 4219 1451 3797 
Q 1122 3375 1075 2522 
Q 1259 2794 1537 2939 
Q 1816 3084 2150 3084 
Q 2853 3084 3261 2657 
Q 3669 2231 3669 1497 
Q 3669 778 3244 343 
Q 2819 -91 2113 -91 
Q 1303 -91 875 529 
Q 447 1150 447 2328 
Q 447 3434 972 4092 
Q 1497 4750 2381 4750 
Q 2619 4750 2861 4703 
Q 3103 4656 3366 4563 
z
" transform="scale(0.015625)"/>
       </defs>
       <use xlink:href="#DejaVuSans-36"/>
       <use xlink:href="#DejaVuSans-2e" x="63.623047"/>
       <use xlink:href="#DejaVuSans-30" x="95.410156"/>
      </g>
     </g>
    </g>
    <g id="ytick_5">
     <g id="line2d_25">
      <path d="M 108 85.070224 
L 777.6 85.070224 
" clip-path="url(#p92b08e4b6c)" style="fill: none; stroke: #b0b0b0; stroke-width: 0.8; stroke-linecap: square"/>
     </g>
     <g id="line2d_26">
      <g>
       <use xlink:href="#m79b04bf8fb" x="108" y="85.070224" style="stroke: #000000; stroke-width: 0.8"/>
      </g>
     </g>
     <g id="text_14">
      <!-- 6.5 -->
      <g transform="translate(53.290625 96.467881) scale(0.3 -0.3)">
       <use xlink:href="#DejaVuSans-36"/>
       <use xlink:href="#DejaVuSans-2e" x="63.623047"/>
       <use xlink:href="#DejaVuSans-35" x="95.410156"/>
      </g>
     </g>
    </g>
    <g id="text_15">
     <!-- RMSE -->
     <g transform="translate(40.971875 347.3675) rotate(-90) scale(0.4 -0.4)">
      <defs>
       <path id="DejaVuSans-52" d="M 2841 2188 
Q 3044 2119 3236 1894 
Q 3428 1669 3622 1275 
L 4263 0 
L 3584 0 
L 2988 1197 
Q 2756 1666 2539 1819 
Q 2322 1972 1947 1972 
L 1259 1972 
L 1259 0 
L 628 0 
L 628 4666 
L 2053 4666 
Q 2853 4666 3247 4331 
Q 3641 3997 3641 3322 
Q 3641 2881 3436 2590 
Q 3231 2300 2841 2188 
z
M 1259 4147 
L 1259 2491 
L 2053 2491 
Q 2509 2491 2742 2702 
Q 2975 2913 2975 3322 
Q 2975 3731 2742 3939 
Q 2509 4147 2053 4147 
L 1259 4147 
z
" transform="scale(0.015625)"/>
       <path id="DejaVuSans-4d" d="M 628 4666 
L 1569 4666 
L 2759 1491 
L 3956 4666 
L 4897 4666 
L 4897 0 
L 4281 0 
L 4281 4097 
L 3078 897 
L 2444 897 
L 1241 4097 
L 1241 0 
L 628 0 
L 628 4666 
z
" transform="scale(0.015625)"/>
       <path id="DejaVuSans-45" d="M 628 4666 
L 3578 4666 
L 3578 4134 
L 1259 4134 
L 1259 2753 
L 3481 2753 
L 3481 2222 
L 1259 2222 
L 1259 531 
L 3634 531 
L 3634 0 
L 628 0 
L 628 4666 
z
" transform="scale(0.015625)"/>
      </defs>
      <use xlink:href="#DejaVuSans-52"/>
      <use xlink:href="#DejaVuSans-4d" x="69.482422"/>
      <use xlink:href="#DejaVuSans-53" x="155.761719"/>
      <use xlink:href="#DejaVuSans-45" x="219.238281"/>
     </g>
    </g>
   </g>
   <g id="line2d_27">
    <path d="M 138.436364 385.536369 
L 139.452603 430.594968 
L 140.468842 455.784858 
L 141.485081 467.894888 
L 142.50132 469.064166 
L 143.51756 469.523865 
L 144.533799 469.577784 
L 145.550038 471.708191 
L 146.566277 471.473331 
L 147.582516 474.021055 
L 148.598756 475.154216 
L 149.614995 474.813781 
L 150.631234 474.931935 
L 151.647473 475.679695 
L 152.663712 476.162438 
L 153.679951 477.003678 
L 154.696191 476.175618 
L 155.71243 477.32632 
L 157.744908 473.305178 
L 158.761147 474.050148 
L 159.777387 473.46633 
L 160.793626 471.387566 
L 161.809865 471.196164 
L 162.826104 469.542774 
L 163.842343 465.509684 
L 164.858582 465.674839 
L 167.9073 462.01817 
L 168.923539 461.303289 
L 169.939778 458.201685 
L 170.956018 452.237699 
L 171.972257 447.594951 
L 172.988496 446.668595 
L 174.004735 441.157118 
L 175.020974 438.415235 
L 176.037214 438.395715 
L 177.053453 433.949931 
L 178.069692 427.989557 
L 179.085931 421.303746 
L 180.10217 415.768021 
L 182.134649 403.568146 
L 183.150888 393.392209 
L 184.167127 391.930002 
L 185.183366 388.46932 
L 186.199605 385.61318 
L 187.215845 381.389576 
L 188.232084 378.76255 
L 189.248323 374.857953 
L 191.280801 360.752918 
L 192.297041 353.621071 
L 193.31328 345.328911 
L 194.329519 338.829986 
L 195.345758 331.166568 
L 196.361997 322.295635 
L 198.394476 306.398656 
L 200.426954 290.003956 
L 201.443193 284.560758 
L 202.459432 278.325673 
L 203.475672 269.43529 
L 204.491911 267.691038 
L 205.50815 264.968518 
L 206.524389 260.263625 
L 207.540628 260.841016 
L 208.556868 259.28316 
L 209.573107 258.95803 
L 210.589346 257.786078 
L 211.605585 254.24602 
L 212.621824 249.088833 
L 213.638063 247.091723 
L 214.654303 236.203823 
L 215.670542 230.367064 
L 216.686781 221.32868 
L 217.70302 214.689138 
L 218.719259 207.04823 
L 219.735499 200.252297 
L 221.767977 195.669835 
L 222.784216 191.929978 
L 223.800455 191.795377 
L 224.816694 189.988245 
L 225.832934 183.914113 
L 226.849173 182.620949 
L 227.865412 182.98891 
L 228.881651 181.375012 
L 229.89789 181.690361 
L 230.91413 182.561972 
L 231.930369 182.674131 
L 232.946608 181.768306 
L 233.962847 179.835283 
L 234.979086 175.970645 
L 235.995326 169.902391 
L 238.027804 155.25625 
L 239.044043 150.496035 
L 241.076521 138.201788 
L 242.092761 135.732567 
L 243.109 134.319199 
L 244.125239 134.134687 
L 245.141478 134.104924 
L 246.157717 131.804732 
L 248.190196 130.640469 
L 249.206435 129.742642 
L 251.238913 126.364678 
L 252.255153 126.122066 
L 253.271392 125.714533 
L 254.287631 123.149035 
L 255.30387 121.710876 
L 256.320109 122.834317 
L 257.336348 122.32254 
L 258.352588 121.34326 
L 259.368827 122.999966 
L 260.385066 123.492064 
L 261.401305 123.679673 
L 262.417544 123.1107 
L 264.450023 125.439077 
L 265.466262 124.899531 
L 266.482501 124.56182 
L 267.49874 125.265598 
L 268.51498 126.532335 
L 269.531219 127.44453 
L 270.547458 130.438028 
L 272.579936 133.03783 
L 273.596175 136.150316 
L 274.612415 138.501981 
L 275.628654 143.856014 
L 276.644893 152.03433 
L 277.661132 156.922312 
L 279.693611 173.722545 
L 280.70985 179.068181 
L 281.726089 182.50526 
L 282.742328 188.436128 
L 283.758567 192.046562 
L 284.774806 199.426507 
L 285.791046 210.122114 
L 286.807285 216.264195 
L 287.823524 219.729807 
L 288.839763 220.076219 
L 290.872242 225.508779 
L 291.888481 226.757737 
L 292.90472 228.702867 
L 293.920959 227.69768 
L 294.937198 227.622306 
L 296.969677 228.737117 
L 297.985916 228.222216 
L 299.002155 227.439048 
L 300.018394 226.263059 
L 301.034633 223.987184 
L 302.050873 223.636452 
L 303.067112 222.431071 
L 304.083351 220.973638 
L 305.09959 219.878101 
L 306.115829 215.607185 
L 307.132069 207.054126 
L 308.148308 201.877863 
L 310.180786 186.540137 
L 311.197025 180.001136 
L 312.213265 175.999932 
L 313.229504 170.046377 
L 314.245743 166.329827 
L 315.261982 159.050761 
L 316.278221 149.693829 
L 317.29446 143.488879 
L 318.3107 139.447656 
L 319.326939 136.664033 
L 320.343178 131.261964 
L 321.359417 127.437713 
L 322.375656 124.233598 
L 323.391896 120.347124 
L 324.408135 118.603896 
L 325.424374 117.269049 
L 326.440613 115.588596 
L 327.456852 115.093411 
L 328.473092 114.895807 
L 329.489331 114.131155 
L 330.50557 114.069249 
L 331.521809 114.235689 
L 333.554287 112.452315 
L 336.603005 107.709156 
L 337.619244 107.278353 
L 338.635483 106.111904 
L 340.667962 105.788952 
L 341.684201 105.833037 
L 342.70044 105.255764 
L 344.732919 104.584793 
L 346.765397 103.382817 
L 347.781636 104.097838 
L 348.797875 104.57159 
L 349.814114 104.437749 
L 350.830354 104.695289 
L 351.846593 103.808352 
L 352.862832 103.660643 
L 353.879071 104.798331 
L 354.89531 104.684943 
L 355.91155 103.961998 
L 356.927789 104.504938 
L 357.944028 104.241178 
L 358.960267 103.028845 
L 360.992745 102.590583 
L 362.008985 103.953009 
L 363.025224 110.837129 
L 364.041463 112.504482 
L 365.057702 117.41368 
L 366.073941 123.216387 
L 367.090181 122.281625 
L 368.10642 124.026337 
L 369.122659 125.407985 
L 370.138898 125.501881 
L 371.155137 126.776299 
L 372.171377 128.874222 
L 373.187616 128.54655 
L 374.203855 127.03177 
L 375.220094 126.18129 
L 376.236333 126.947531 
L 377.252572 127.286165 
L 378.268812 127.348941 
L 379.285051 127.095306 
L 380.30129 126.17682 
L 381.317529 126.442915 
L 382.333768 128.201254 
L 383.350008 128.634436 
L 384.366247 127.670568 
L 385.382486 127.841163 
L 386.398725 129.060996 
L 387.414964 129.033006 
L 388.431204 128.842752 
L 389.447443 129.301551 
L 390.463682 130.030659 
L 391.479921 130.385147 
L 392.49616 128.124308 
L 393.512399 121.48695 
L 394.528639 121.517243 
L 395.544878 116.502446 
L 396.561117 110.26012 
L 397.577356 111.370946 
L 398.593595 110.348094 
L 399.609835 110.348229 
L 400.626074 110.122455 
L 401.642313 108.719022 
L 402.658552 107.919794 
L 403.674791 108.926438 
L 404.691031 110.815325 
L 405.70727 111.098642 
L 406.723509 110.009102 
L 407.739748 109.903073 
L 410.788466 111.482437 
L 411.804705 110.83574 
L 412.820944 110.486844 
L 413.837183 110.568785 
L 414.853422 110.89423 
L 415.869662 110.831259 
L 416.885901 110.19607 
L 418.918379 110.436115 
L 419.934618 109.91944 
L 420.950857 108.108696 
L 421.967097 108.488035 
L 422.983336 109.445772 
L 423.999575 109.340977 
L 425.015814 107.110243 
L 426.032053 106.248878 
L 428.064532 107.688379 
L 429.080771 107.574733 
L 432.129489 106.555026 
L 433.145728 105.841991 
L 435.178206 104.856815 
L 437.210684 106.226666 
L 438.226924 106.091196 
L 439.243163 105.40102 
L 440.259402 104.09097 
L 441.275641 104.847672 
L 442.29188 104.734654 
L 443.30812 104.043316 
L 444.324359 103.216086 
L 446.356837 102.455417 
L 447.373076 103.06434 
L 448.389316 102.12582 
L 449.405555 101.651916 
L 450.421794 101.344775 
L 451.438033 101.220181 
L 452.454272 99.983694 
L 454.486751 100.389353 
L 456.519229 102.599075 
L 457.535468 101.266676 
L 458.551707 100.323617 
L 459.567947 100.779291 
L 461.600425 99.822839 
L 462.616664 100.106174 
L 465.665382 99.731118 
L 466.681621 99.357801 
L 467.69786 99.756735 
L 468.714099 99.886272 
L 469.730338 99.699289 
L 470.746578 100.071792 
L 471.762817 99.126877 
L 473.795295 100.040078 
L 474.811534 100.264903 
L 475.827774 99.250369 
L 476.844013 99.153733 
L 477.860252 98.304653 
L 478.876491 99.366086 
L 479.89273 100.095341 
L 480.908969 101.471483 
L 481.925209 101.926736 
L 482.941448 101.539171 
L 483.957687 100.814677 
L 484.973926 101.032596 
L 485.990165 100.836862 
L 487.006405 100.293091 
L 489.038883 102.013327 
L 490.055122 101.316966 
L 491.071361 101.76595 
L 492.087601 101.918533 
L 493.10384 100.719211 
L 494.120079 100.821258 
L 495.136318 101.09209 
L 496.152557 100.469183 
L 497.168796 99.560695 
L 498.185036 98.941228 
L 500.217514 100.376053 
L 501.233753 100.795888 
L 502.249992 100.924312 
L 503.266232 100.87504 
L 504.282471 100.384846 
L 505.29871 99.317529 
L 506.314949 100.526149 
L 507.331188 100.910607 
L 508.347428 101.147085 
L 509.363667 101.02297 
L 510.379906 100.195967 
L 511.396145 99.167017 
L 512.412384 99.167309 
L 513.428623 100.360282 
L 514.444863 100.057355 
L 515.461102 99.09296 
L 516.477341 98.675116 
L 517.49358 98.023505 
L 518.509819 98.891666 
L 519.526059 97.738948 
L 520.542298 97.681514 
L 521.558537 98.343336 
L 523.591015 98.737754 
L 524.607255 99.147051 
L 525.623494 98.798536 
L 526.639733 99.03068 
L 527.655972 99.514771 
L 528.672211 99.400953 
L 530.70469 97.359236 
L 531.720929 96.751951 
L 532.737168 96.910097 
L 533.753407 96.806917 
L 534.769646 96.291445 
L 535.785886 96.646295 
L 536.802125 96.307764 
L 537.818364 95.176333 
L 538.834603 94.631222 
L 539.850842 94.760412 
L 540.867081 95.134159 
L 541.883321 95.054362 
L 542.89956 94.217449 
L 543.915799 92.95933 
L 544.932038 93.453245 
L 545.948277 95.018545 
L 546.964517 94.822562 
L 547.980756 96.262236 
L 548.996995 96.254702 
L 550.013234 97.806716 
L 551.029473 96.81876 
L 552.045713 95.566136 
L 553.061952 96.097646 
L 554.078191 97.164794 
L 555.09443 96.228121 
L 557.126908 97.263323 
L 558.143148 98.074667 
L 559.159387 98.531532 
L 561.191865 98.495225 
L 562.208104 99.046924 
L 563.224344 98.415158 
L 564.240583 98.086634 
L 565.256822 99.096009 
L 567.2893 100.287387 
L 568.30554 101.59641 
L 569.321779 101.355574 
L 570.338018 100.302495 
L 571.354257 100.505257 
L 572.370496 101.679372 
L 573.386735 102.060786 
L 574.402975 102.206412 
L 575.419214 102.043124 
L 576.435453 100.968606 
L 577.451692 101.631601 
L 578.467931 100.782409 
L 579.484171 100.186786 
L 580.50041 98.589635 
L 581.516649 99.357479 
L 582.532888 99.5362 
L 584.565367 98.953367 
L 585.581606 98.469565 
L 586.597845 97.149734 
L 587.614084 96.207582 
L 588.630323 95.501113 
L 589.646562 96.053509 
L 590.662802 96.188406 
L 591.679041 95.810286 
L 592.69528 95.693547 
L 593.711519 96.197363 
L 594.727758 96.064905 
L 595.743998 95.47759 
L 598.792715 93.316819 
L 599.808954 93.233808 
L 600.825194 94.004074 
L 601.841433 94.288238 
L 602.857672 93.855728 
L 603.873911 94.563786 
L 604.89015 95.045999 
L 605.906389 95.684292 
L 606.922629 95.532445 
L 608.955107 95.555776 
L 609.971346 95.813218 
L 610.987585 96.328782 
L 612.003825 96.091262 
L 613.020064 96.609996 
L 614.036303 96.164504 
L 615.052542 95.588301 
L 616.068781 96.475527 
L 617.08502 96.870247 
L 618.10126 96.519738 
L 619.117499 96.933677 
L 620.133738 96.242193 
L 621.149977 95.794492 
L 622.166216 96.056892 
L 623.182456 96.111801 
L 624.198695 96.032804 
L 625.214934 95.576808 
L 626.231173 94.992182 
L 627.247412 95.94499 
L 629.279891 95.910166 
L 630.29613 96.776391 
L 631.312369 96.132423 
L 632.328608 95.164117 
L 634.361087 93.749705 
L 635.377326 93.839625 
L 636.393565 93.595899 
L 638.426043 93.484987 
L 639.442283 93.362293 
L 641.474761 91.607582 
L 642.491 92.517921 
L 643.507239 92.088836 
L 644.523479 91.205848 
L 645.539718 92.402361 
L 646.555957 92.894144 
L 647.572196 92.759933 
L 648.588435 92.199846 
L 649.604674 91.196647 
L 651.637153 91.576953 
L 652.653392 91.401719 
L 653.669631 90.431645 
L 654.68587 89.934718 
L 655.70211 90.863705 
L 656.718349 91.483886 
L 658.750827 89.840831 
L 659.767066 90.543811 
L 660.783306 90.343312 
L 661.799545 91.170729 
L 662.815784 91.5142 
L 663.832023 91.1866 
L 664.848262 91.337362 
L 665.864501 91.354653 
L 666.880741 91.68056 
L 667.89698 91.727437 
L 668.913219 90.646354 
L 669.929458 89.915806 
L 670.945697 90.106475 
L 671.961937 91.058973 
L 672.978176 90.740362 
L 673.994415 90.871988 
L 675.010654 91.744714 
L 676.026893 90.345105 
L 677.043132 90.659198 
L 678.059372 91.211428 
L 680.09185 91.656957 
L 681.108089 91.526043 
L 682.124328 91.538294 
L 683.140568 92.073372 
L 684.156807 93.099428 
L 685.173046 93.581328 
L 686.189285 92.824546 
L 687.205524 92.648617 
L 688.221764 93.485245 
L 689.238003 94.733016 
L 690.254242 94.454467 
L 691.270481 93.723015 
L 692.28672 92.635282 
L 693.302959 92.358664 
L 695.335438 93.568661 
L 696.351677 93.372302 
L 697.367916 92.78487 
L 698.384155 93.253346 
L 699.400395 94.198749 
L 700.416634 94.228288 
L 701.432873 94.834899 
L 702.449112 95.110261 
L 703.465351 94.237609 
L 704.481591 93.907089 
L 706.514069 94.12491 
L 707.530308 93.376089 
L 709.562786 93.594195 
L 710.579026 93.88136 
L 711.595265 94.292364 
L 712.611504 94.22193 
L 713.627743 93.695737 
L 714.643982 93.801315 
L 715.660222 93.161696 
L 716.676461 93.875406 
L 717.6927 93.653617 
L 718.708939 92.800116 
L 719.725178 92.804907 
L 720.741418 93.030957 
L 721.757657 93.443155 
L 722.773896 93.248761 
L 724.806374 93.369571 
L 725.822613 92.314811 
L 726.838853 91.739331 
L 727.855092 91.962667 
L 728.871331 91.717642 
L 729.88757 91.651544 
L 730.903809 92.250076 
L 731.920049 91.535029 
L 732.936288 90.139233 
L 733.952527 90.817985 
L 734.968766 90.980099 
L 735.985005 89.87869 
L 737.001244 89.8015 
L 739.033723 89.28 
L 740.049962 90.005605 
L 741.066201 89.549279 
L 742.08244 89.538343 
L 743.09868 90.190605 
L 744.114919 90.497015 
L 745.131158 89.505221 
L 746.147397 89.688339 
L 747.163636 89.99608 
L 747.163636 89.99608 
" clip-path="url(#p92b08e4b6c)" style="fill: none; stroke: #1f77b4; stroke-width: 4; stroke-linecap: square"/>
   </g>
   <g id="line2d_28">
    <path d="M 138.436364 368.529666 
L 139.452603 419.87873 
L 140.468842 449.446108 
L 141.485081 462.566226 
L 143.51756 470.9105 
L 144.533799 472.401301 
L 145.550038 473.387146 
L 147.582516 477.935601 
L 149.614995 478.719279 
L 150.631234 479.550887 
L 151.647473 479.714743 
L 152.663712 479.668542 
L 153.679951 479.857759 
L 154.696191 480.297859 
L 155.71243 480.420045 
L 156.728669 479.96152 
L 157.744908 480.241735 
L 158.761147 480.93634 
L 159.777387 480.756541 
L 160.793626 480.315877 
L 161.809865 480.408429 
L 162.826104 480.685547 
L 164.858582 480.483352 
L 165.874822 480.730531 
L 166.891061 481.36415 
L 167.9073 481.485331 
L 168.923539 485.342937 
L 169.939778 485.665559 
L 171.972257 483.833734 
L 172.988496 483.767159 
L 174.004735 483.416048 
L 175.020974 483.879416 
L 176.037214 483.985766 
L 178.069692 483.119788 
L 179.085931 483.089638 
L 180.10217 483.377276 
L 182.134649 483.135372 
L 184.167127 483.218237 
L 186.199605 483.624777 
L 187.215845 484.073795 
L 189.248323 483.145001 
L 191.280801 484.433364 
L 192.297041 484.041938 
L 193.31328 483.486834 
L 196.361997 484.18992 
L 199.410715 483.52152 
L 201.443193 483.439034 
L 203.475672 483.617413 
L 204.491911 483.614331 
L 205.50815 483.182932 
L 206.524389 483.254031 
L 207.540628 483.438936 
L 208.556868 483.287035 
L 209.573107 483.376975 
L 212.621824 483.336247 
L 214.654303 483.52636 
L 216.686781 482.984565 
L 217.70302 482.999925 
L 218.719259 483.472443 
L 219.735499 483.735422 
L 220.751738 483.501793 
L 221.767977 482.919777 
L 222.784216 483.252633 
L 223.800455 483.871527 
L 226.849173 483.537976 
L 227.865412 483.180588 
L 229.89789 483.397442 
L 231.930369 484.009619 
L 232.946608 484.154525 
L 233.962847 483.976296 
L 235.995326 484.261383 
L 237.011565 484.268114 
L 238.027804 483.842937 
L 239.044043 484.044646 
L 240.060282 484.491579 
L 241.076521 484.31036 
L 243.109 484.357623 
L 246.157717 484.201324 
L 248.190196 484.884701 
L 251.238913 484.201339 
L 252.255153 484.298009 
L 254.287631 484.133381 
L 255.30387 484.299022 
L 256.320109 484.320829 
L 257.336348 484.033876 
L 258.352588 484.181818 
L 259.368827 483.996835 
L 260.385066 484.072034 
L 261.401305 483.978235 
L 262.417544 483.721026 
L 263.433784 483.982918 
L 264.450023 484.366532 
L 265.466262 484.328962 
L 267.49874 483.774409 
L 268.51498 484.057502 
L 269.531219 484.048775 
L 270.547458 483.525958 
L 271.563697 483.275898 
L 272.579936 483.246207 
L 273.596175 483.538123 
L 274.612415 483.555288 
L 275.628654 483.459673 
L 276.644893 483.605661 
L 278.677371 483.110573 
L 279.693611 483.469878 
L 280.70985 483.707871 
L 281.726089 483.654242 
L 284.774806 484.523809 
L 286.807285 484.136789 
L 288.839763 483.990477 
L 289.856002 484.437467 
L 290.872242 484.584869 
L 294.937198 484.356728 
L 297.985916 485.611344 
L 299.002155 485.890656 
L 300.018394 485.676553 
L 303.067112 486.039206 
L 305.09959 485.636625 
L 307.132069 485.533279 
L 308.148308 485.509759 
L 309.164547 485.274595 
L 311.197025 485.467023 
L 313.229504 485.925684 
L 314.245743 485.84423 
L 316.278221 485.228734 
L 318.3107 485.395238 
L 319.326939 485.700452 
L 323.391896 485.362302 
L 324.408135 485.270096 
L 326.440613 484.529013 
L 332.538048 483.685849 
L 333.554287 483.585687 
L 336.603005 483.672388 
L 337.619244 483.336083 
L 338.635483 483.323761 
L 339.651723 483.434412 
L 341.684201 482.829752 
L 342.70044 482.729343 
L 343.716679 482.80713 
L 345.749158 482.581872 
L 346.765397 482.922213 
L 348.797875 483.016244 
L 349.814114 482.860412 
L 350.830354 482.826157 
L 351.846593 482.949107 
L 353.879071 482.842507 
L 354.89531 482.996571 
L 356.927789 483.735947 
L 357.944028 483.840874 
L 359.976506 483.317137 
L 360.992745 483.2528 
L 362.008985 483.343815 
L 363.025224 483.158717 
L 364.041463 483.206713 
L 366.073941 483.84228 
L 367.090181 484.045519 
L 368.10642 484.5133 
L 369.122659 484.735049 
L 372.171377 484.809284 
L 373.187616 484.618121 
L 374.203855 484.309697 
L 375.220094 484.353687 
L 376.236333 484.612036 
L 377.252572 484.679259 
L 382.333768 484.542231 
L 383.350008 484.634242 
L 387.414964 484.380931 
L 388.431204 484.165066 
L 390.463682 484.412151 
L 391.479921 484.715571 
L 393.512399 484.859517 
L 394.528639 484.72625 
L 395.544878 484.242635 
L 396.561117 483.933336 
L 398.593595 483.567137 
L 402.658552 483.522117 
L 405.70727 483.517833 
L 409.772226 483.433918 
L 410.788466 483.317036 
L 411.804705 483.313596 
L 414.853422 483.73966 
L 417.90214 482.858083 
L 418.918379 482.792977 
L 419.934618 482.869321 
L 421.967097 483.246812 
L 423.999575 483.346931 
L 425.015814 483.268944 
L 427.048293 483.462663 
L 430.09701 483.390812 
L 432.129489 483.181646 
L 434.161967 483.704718 
L 435.178206 483.878811 
L 439.243163 483.914862 
L 442.29188 484.401186 
L 444.324359 483.947437 
L 445.340598 483.820003 
L 446.356837 483.915979 
L 447.373076 484.203955 
L 451.438033 484.653257 
L 453.470511 484.343912 
L 455.50299 484.217175 
L 458.551707 484.20654 
L 461.600425 484.768289 
L 462.616664 484.833937 
L 464.649143 484.191151 
L 466.681621 483.769471 
L 469.730338 483.641409 
L 472.779056 483.598368 
L 475.827774 484.059815 
L 476.844013 484.109824 
L 478.876491 483.845333 
L 480.908969 483.51221 
L 483.957687 483.948757 
L 485.990165 484.516332 
L 487.006405 484.521502 
L 492.087601 483.943351 
L 493.10384 483.994207 
L 496.152557 484.783337 
L 497.168796 484.923963 
L 499.201275 484.547702 
L 500.217514 484.25113 
L 501.233753 484.189464 
L 508.347428 484.627548 
L 511.396145 485.267141 
L 513.428623 484.667723 
L 515.461102 484.484888 
L 516.477341 484.239688 
L 517.49358 484.395735 
L 520.542298 485.43065 
L 523.591015 485.411379 
L 526.639733 484.255967 
L 527.655972 484.157047 
L 531.720929 485.055887 
L 532.737168 484.971395 
L 534.769646 484.358665 
L 535.785886 483.884357 
L 537.818364 483.815636 
L 538.834603 483.617286 
L 540.867081 482.971086 
L 542.89956 482.643744 
L 544.932038 482.397856 
L 546.964517 482.546902 
L 547.980756 482.239637 
L 550.013234 482.169402 
L 552.045713 481.012265 
L 553.061952 480.992099 
L 555.09443 481.457379 
L 557.126908 482.219273 
L 558.143148 482.42454 
L 561.191865 482.34117 
L 563.224344 482.048718 
L 564.240583 482.081402 
L 565.256822 482.260541 
L 568.30554 483.728878 
L 569.321779 484.05554 
L 570.338018 484.080279 
L 571.354257 483.944631 
L 572.370496 484.039726 
L 573.386735 484.40563 
L 574.402975 484.991777 
L 575.419214 485.171822 
L 576.435453 485.025966 
L 577.451692 485.209354 
L 578.467931 485.764074 
L 579.484171 485.555671 
L 580.50041 485.994103 
L 581.516649 486.76344 
L 582.532888 487.377714 
L 584.565367 487.303909 
L 587.614084 488.530105 
L 588.630323 489.177022 
L 589.646562 489.663136 
L 594.727758 491.374 
L 595.743998 491.823113 
L 598.792715 491.767753 
L 599.808954 491.337071 
L 601.841433 492.0728 
L 602.857672 492.216596 
L 603.873911 492.207972 
L 604.89015 491.81901 
L 605.906389 492.403195 
L 607.938868 492.48 
L 608.955107 492.154047 
L 609.971346 492.157521 
L 610.987585 491.68558 
L 614.036303 491.002548 
L 616.068781 490.521767 
L 617.08502 490.25054 
L 618.10126 489.400866 
L 620.133738 488.140188 
L 622.166216 487.722313 
L 623.182456 487.423199 
L 624.198695 487.311286 
L 625.214934 487.035086 
L 626.231173 486.601942 
L 627.247412 486.362879 
L 629.279891 485.517425 
L 630.29613 485.669754 
L 631.312369 485.171986 
L 635.377326 483.831863 
L 636.393565 482.967827 
L 637.409804 482.619433 
L 638.426043 482.134773 
L 640.458522 482.062914 
L 641.474761 481.678583 
L 642.491 480.890136 
L 643.507239 480.569886 
L 645.539718 480.221328 
L 646.555957 479.801869 
L 647.572196 479.086687 
L 648.588435 478.984425 
L 652.653392 476.741475 
L 653.669631 476.365039 
L 655.70211 475.07642 
L 656.718349 474.315926 
L 657.734588 473.845215 
L 658.750827 473.507832 
L 659.767066 472.993573 
L 660.783306 472.664459 
L 662.815784 473.02628 
L 663.832023 472.991855 
L 664.848262 473.238561 
L 666.880741 473.502258 
L 668.913219 474.043023 
L 669.929458 473.385241 
L 670.945697 473.079657 
L 671.961937 473.061101 
L 675.010654 473.65248 
L 676.026893 473.744798 
L 677.043132 473.566024 
L 678.059372 474.118394 
L 680.09185 474.667163 
L 681.108089 475.191053 
L 682.124328 475.233431 
L 685.173046 475.841588 
L 687.205524 477.156717 
L 688.221764 477.607657 
L 690.254242 478.063248 
L 692.28672 478.036498 
L 693.302959 477.818716 
L 694.319199 478.015887 
L 697.367916 477.036205 
L 699.400395 476.531308 
L 700.416634 476.970477 
L 702.449112 477.223868 
L 703.465351 477.214633 
L 704.481591 476.918233 
L 705.49783 476.460591 
L 706.514069 476.264895 
L 707.530308 476.323749 
L 710.579026 475.009392 
L 711.595265 474.350618 
L 713.627743 473.716932 
L 714.643982 473.620333 
L 715.660222 473.393437 
L 716.676461 472.700258 
L 718.708939 471.626594 
L 725.822613 469.490998 
L 727.855092 469.676621 
L 730.903809 469.091952 
L 732.936288 468.563716 
L 734.968766 468.457759 
L 735.985005 468.550292 
L 739.033723 468.340808 
L 741.066201 468.420757 
L 743.09868 468.897332 
L 745.131158 469.183111 
L 746.147397 469.161625 
L 747.163636 469.266423 
L 747.163636 469.266423 
" clip-path="url(#p92b08e4b6c)" style="fill: none; stroke: #ff7f0e; stroke-width: 4; stroke-linecap: square"/>
   </g>
   <g id="line2d_29"/>
   <g id="line2d_30"/>
   <g id="patch_3">
    <path d="M 108 512.64 
L 108 69.12 
" style="fill: none; stroke: #000000; stroke-width: 0.8; stroke-linejoin: miter; stroke-linecap: square"/>
   </g>
   <g id="patch_4">
    <path d="M 777.6 512.64 
L 777.6 69.12 
" style="fill: none; stroke: #000000; stroke-width: 0.8; stroke-linejoin: miter; stroke-linecap: square"/>
   </g>
   <g id="patch_5">
    <path d="M 108 512.64 
L 777.6 512.64 
" style="fill: none; stroke: #000000; stroke-width: 0.8; stroke-linejoin: miter; stroke-linecap: square"/>
   </g>
   <g id="patch_6">
    <path d="M 108 69.12 
L 777.6 69.12 
" style="fill: none; stroke: #000000; stroke-width: 0.8; stroke-linejoin: miter; stroke-linecap: square"/>
   </g>
   <g id="text_16">
    <!-- polyreactivity -->
    <g transform="translate(238.607813 56.641875) scale(0.6 -0.6)">
     <defs>
      <path id="DejaVuSans-6f" d="M 1959 3097 
Q 1497 3097 1228 2736 
Q 959 2375 959 1747 
Q 959 1119 1226 758 
Q 1494 397 1959 397 
Q 2419 397 2687 759 
Q 2956 1122 2956 1747 
Q 2956 2369 2687 2733 
Q 2419 3097 1959 3097 
z
M 1959 3584 
Q 2709 3584 3137 3096 
Q 3566 2609 3566 1747 
Q 3566 888 3137 398 
Q 2709 -91 1959 -91 
Q 1206 -91 779 398 
Q 353 888 353 1747 
Q 353 2609 779 3096 
Q 1206 3584 1959 3584 
z
" transform="scale(0.015625)"/>
      <path id="DejaVuSans-6c" d="M 603 4863 
L 1178 4863 
L 1178 0 
L 603 0 
L 603 4863 
z
" transform="scale(0.015625)"/>
      <path id="DejaVuSans-79" d="M 2059 -325 
Q 1816 -950 1584 -1140 
Q 1353 -1331 966 -1331 
L 506 -1331 
L 506 -850 
L 844 -850 
Q 1081 -850 1212 -737 
Q 1344 -625 1503 -206 
L 1606 56 
L 191 3500 
L 800 3500 
L 1894 763 
L 2988 3500 
L 3597 3500 
L 2059 -325 
z
" transform="scale(0.015625)"/>
      <path id="DejaVuSans-72" d="M 2631 2963 
Q 2534 3019 2420 3045 
Q 2306 3072 2169 3072 
Q 1681 3072 1420 2755 
Q 1159 2438 1159 1844 
L 1159 0 
L 581 0 
L 581 3500 
L 1159 3500 
L 1159 2956 
Q 1341 3275 1631 3429 
Q 1922 3584 2338 3584 
Q 2397 3584 2469 3576 
Q 2541 3569 2628 3553 
L 2631 2963 
z
" transform="scale(0.015625)"/>
      <path id="DejaVuSans-61" d="M 2194 1759 
Q 1497 1759 1228 1600 
Q 959 1441 959 1056 
Q 959 750 1161 570 
Q 1363 391 1709 391 
Q 2188 391 2477 730 
Q 2766 1069 2766 1631 
L 2766 1759 
L 2194 1759 
z
M 3341 1997 
L 3341 0 
L 2766 0 
L 2766 531 
Q 2569 213 2275 61 
Q 1981 -91 1556 -91 
Q 1019 -91 701 211 
Q 384 513 384 1019 
Q 384 1609 779 1909 
Q 1175 2209 1959 2209 
L 2766 2209 
L 2766 2266 
Q 2766 2663 2505 2880 
Q 2244 3097 1772 3097 
Q 1472 3097 1187 3025 
Q 903 2953 641 2809 
L 641 3341 
Q 956 3463 1253 3523 
Q 1550 3584 1831 3584 
Q 2591 3584 2966 3190 
Q 3341 2797 3341 1997 
z
" transform="scale(0.015625)"/>
      <path id="DejaVuSans-63" d="M 3122 3366 
L 3122 2828 
Q 2878 2963 2633 3030 
Q 2388 3097 2138 3097 
Q 1578 3097 1268 2742 
Q 959 2388 959 1747 
Q 959 1106 1268 751 
Q 1578 397 2138 397 
Q 2388 397 2633 464 
Q 2878 531 3122 666 
L 3122 134 
Q 2881 22 2623 -34 
Q 2366 -91 2075 -91 
Q 1284 -91 818 406 
Q 353 903 353 1747 
Q 353 2603 823 3093 
Q 1294 3584 2113 3584 
Q 2378 3584 2631 3529 
Q 2884 3475 3122 3366 
z
" transform="scale(0.015625)"/>
      <path id="DejaVuSans-69" d="M 603 3500 
L 1178 3500 
L 1178 0 
L 603 0 
L 603 3500 
z
M 603 4863 
L 1178 4863 
L 1178 4134 
L 603 4134 
L 603 4863 
z
" transform="scale(0.015625)"/>
      <path id="DejaVuSans-76" d="M 191 3500 
L 800 3500 
L 1894 563 
L 2988 3500 
L 3597 3500 
L 2284 0 
L 1503 0 
L 191 3500 
z
" transform="scale(0.015625)"/>
     </defs>
     <use xlink:href="#DejaVuSans-70"/>
     <use xlink:href="#DejaVuSans-6f" x="63.476562"/>
     <use xlink:href="#DejaVuSans-6c" x="124.658203"/>
     <use xlink:href="#DejaVuSans-79" x="152.441406"/>
     <use xlink:href="#DejaVuSans-72" x="211.621094"/>
     <use xlink:href="#DejaVuSans-65" x="250.484375"/>
     <use xlink:href="#DejaVuSans-61" x="312.007812"/>
     <use xlink:href="#DejaVuSans-63" x="373.287109"/>
     <use xlink:href="#DejaVuSans-74" x="428.267578"/>
     <use xlink:href="#DejaVuSans-69" x="467.476562"/>
     <use xlink:href="#DejaVuSans-76" x="495.259766"/>
     <use xlink:href="#DejaVuSans-69" x="554.439453"/>
     <use xlink:href="#DejaVuSans-74" x="582.222656"/>
     <use xlink:href="#DejaVuSans-79" x="621.431641"/>
    </g>
   </g>
   <g id="legend_1">
    <g id="patch_7">
     <path d="M 483.93125 355.5925 
L 749.6 355.5925 
Q 757.6 355.5925 757.6 347.5925 
L 757.6 234.1675 
Q 757.6 226.1675 749.6 226.1675 
L 483.93125 226.1675 
Q 475.93125 226.1675 475.93125 234.1675 
L 475.93125 347.5925 
Q 475.93125 355.5925 483.93125 355.5925 
z
" style="fill: #ffffff; opacity: 0.8; stroke: #cccccc; stroke-linejoin: miter"/>
    </g>
    <g id="line2d_31">
     <path d="M 491.93125 258.56125 
L 531.93125 258.56125 
L 571.93125 258.56125 
" style="fill: none; stroke: #1f77b4; stroke-width: 4; stroke-linecap: square"/>
    </g>
    <g id="text_17">
     <!-- local -->
     <g transform="translate(603.93125 272.56125) scale(0.4 -0.4)">
      <use xlink:href="#DejaVuSans-6c"/>
      <use xlink:href="#DejaVuSans-6f" x="27.783203"/>
      <use xlink:href="#DejaVuSans-63" x="88.964844"/>
      <use xlink:href="#DejaVuSans-61" x="143.945312"/>
      <use xlink:href="#DejaVuSans-6c" x="205.224609"/>
     </g>
    </g>
    <g id="line2d_32">
     <path d="M 491.93125 317.27375 
L 531.93125 317.27375 
L 571.93125 317.27375 
" style="fill: none; stroke: #ff7f0e; stroke-width: 4; stroke-linecap: square"/>
    </g>
    <g id="text_18">
     <!-- fedavg -->
     <g transform="translate(603.93125 331.27375) scale(0.4 -0.4)">
      <defs>
       <path id="DejaVuSans-66" d="M 2375 4863 
L 2375 4384 
L 1825 4384 
Q 1516 4384 1395 4259 
Q 1275 4134 1275 3809 
L 1275 3500 
L 2222 3500 
L 2222 3053 
L 1275 3053 
L 1275 0 
L 697 0 
L 697 3053 
L 147 3053 
L 147 3500 
L 697 3500 
L 697 3744 
Q 697 4328 969 4595 
Q 1241 4863 1831 4863 
L 2375 4863 
z
" transform="scale(0.015625)"/>
       <path id="DejaVuSans-64" d="M 2906 2969 
L 2906 4863 
L 3481 4863 
L 3481 0 
L 2906 0 
L 2906 525 
Q 2725 213 2448 61 
Q 2172 -91 1784 -91 
Q 1150 -91 751 415 
Q 353 922 353 1747 
Q 353 2572 751 3078 
Q 1150 3584 1784 3584 
Q 2172 3584 2448 3432 
Q 2725 3281 2906 2969 
z
M 947 1747 
Q 947 1113 1208 752 
Q 1469 391 1925 391 
Q 2381 391 2643 752 
Q 2906 1113 2906 1747 
Q 2906 2381 2643 2742 
Q 2381 3103 1925 3103 
Q 1469 3103 1208 2742 
Q 947 2381 947 1747 
z
" transform="scale(0.015625)"/>
       <path id="DejaVuSans-67" d="M 2906 1791 
Q 2906 2416 2648 2759 
Q 2391 3103 1925 3103 
Q 1463 3103 1205 2759 
Q 947 2416 947 1791 
Q 947 1169 1205 825 
Q 1463 481 1925 481 
Q 2391 481 2648 825 
Q 2906 1169 2906 1791 
z
M 3481 434 
Q 3481 -459 3084 -895 
Q 2688 -1331 1869 -1331 
Q 1566 -1331 1297 -1286 
Q 1028 -1241 775 -1147 
L 775 -588 
Q 1028 -725 1275 -790 
Q 1522 -856 1778 -856 
Q 2344 -856 2625 -561 
Q 2906 -266 2906 331 
L 2906 616 
Q 2728 306 2450 153 
Q 2172 0 1784 0 
Q 1141 0 747 490 
Q 353 981 353 1791 
Q 353 2603 747 3093 
Q 1141 3584 1784 3584 
Q 2172 3584 2450 3431 
Q 2728 3278 2906 2969 
L 2906 3500 
L 3481 3500 
L 3481 434 
z
" transform="scale(0.015625)"/>
      </defs>
      <use xlink:href="#DejaVuSans-66"/>
      <use xlink:href="#DejaVuSans-65" x="35.205078"/>
      <use xlink:href="#DejaVuSans-64" x="96.728516"/>
      <use xlink:href="#DejaVuSans-61" x="160.205078"/>
      <use xlink:href="#DejaVuSans-76" x="221.484375"/>
      <use xlink:href="#DejaVuSans-67" x="280.664062"/>
     </g>
    </g>
   </g>
  </g>
 </g>
 <defs>
  <clipPath id="p92b08e4b6c">
   <rect x="108" y="69.12" width="669.6" height="443.52"/>
  </clipPath>
 </defs>
</svg>
