<svg version="1.1" viewBox="0.0 0.0 432.0 307.1653543307087" fill="none" stroke="none" stroke-linecap="square" stroke-miterlimit="10" xmlns:xlink="http://www.w3.org/1999/xlink" xmlns="http://www.w3.org/2000/svg"><clipPath id="p8.0"><path d="m0 0l432.0 0l0 307.16534l-432.0 0l0 -307.16534z" clip-rule="nonzero"/></clipPath><g clip-path="url(#p8.0)"><path fill="#ffffff" d="m0 0l432.0 0l0 307.16534l-432.0 0z" fill-rule="evenodd"/><path fill="#b1cdfb" d="m9.381207 142.30362l166.37091 0l0 67.252075l-166.37091 0z" fill-rule="evenodd"/><path fill="#000000" d="m60.98083 170.61853l0.765625 -1.90625q0.578125 0.421875 1.4375 0.71875q0.8750038 0.28125 1.5625038 0.28125q1.21875 0 1.953125 -0.671875q0.75 -0.671875 0.75 -1.703125q0 -0.765625 -0.421875 -1.421875q-0.40625 -0.671875 -2.0625 -1.453125l-1.2187538 -0.5625q-1.5625 -0.734375 -2.1875 -1.734375q-0.625 -1.0 -0.625 -2.40625q0 -1.703125 1.203125 -2.828125q1.21875 -1.125 3.1093788 -1.125q2.53125 0 3.53125 0.828125l-0.625 1.8125q-0.40625 -0.3125 -1.265625 -0.59375q-0.859375 -0.28125 -1.578125 -0.28125q-1.0625 0 -1.6718788 0.609375q-0.609375 0.609375 -0.609375 1.546875q0 0.59375 0.21875 1.078125q0.21875 0.46875 0.609375 0.796875q0.3906288 0.3125 1.5937538 0.890625l1.25 0.59375q1.5625 0.75 2.1875 1.78125q0.640625 1.015625 0.640625 2.59375q0 1.71875 -1.390625 2.921875q-1.375 1.203125 -3.6875 1.203125q-2.0312538 0 -3.4687538 -0.96875zm17.664173 0.703125l0 -7.015625q0 -1.25 -0.625 -1.96875q-0.609375 -0.71875 -1.71875 -0.71875q-0.71875 0 -1.453125 0.421875q-0.71875 0.421875 -1.09375 0.984375l0 8.296875l-1.984375 0l0 -15.71875l1.984375 0l0 5.796875q0.390625 -0.625 1.265625 -1.03125q0.890625 -0.40625 1.828125 -0.40625q1.765625 0 2.765625 1.171875q1.015625 1.15625 1.015625 3.171875l0 7.015625l-1.984375 0zm11.075287 -1.28125q-1.1875 1.484375 -3.625 1.484375q-1.3125 0 -2.28125 -0.953125q-0.96875 -0.953125 -0.96875 -2.359375q0 -1.703125 1.484375 -2.875q1.484375 -1.171875 3.796875 -1.171875q0.625 0 1.40625 0.265625q0 -2.703125 -2.40625 -2.703125q-1.859375 0 -2.859375 1.0l-0.828125 -1.65625q0.5625 -0.453125 1.546875 -0.78125q1.0 -0.328125 1.90625 -0.328125q2.421875 0 3.515625 1.109375q1.109375 1.09375 1.109375 3.5l0 4.0q0 1.46875 0.875 1.953125l0 1.0q-1.203125 0 -1.8125 -0.34375q-0.59375 -0.34375 -0.859375 -1.140625zm-0.1875 -4.203125q-0.9375 -0.203125 -1.3125 -0.203125q-1.5 0 -2.453125 0.78125q-0.9375 0.765625 -0.9375 1.8125q0 1.734375 2.046875 1.734375q1.5 0 2.65625 -1.421875l0 -2.703125zm11.158722 -3.765625q-0.640625 -0.453125 -1.296875 -0.453125q-1.0625 0 -1.84375 0.96875q-0.78125 0.96875 -0.78125 2.34375l0 6.390625l-1.984375 0l0 -11.15625l1.984375 0l0 1.78125q1.078125 -1.984375 3.21875 -1.984375q0.53125 0 1.53125 0.1875l-0.828125 1.921875zm11.617767 3.859375l-8.03125 0q0 1.96875 1.0625 3.015625q0.953125 0.921875 2.4375 0.921875q1.703125 0 2.84375 -1.0l0.828125 1.4375q-0.453125 0.453125 -1.40625 0.78125q-1.1875 0.4375 -2.640625 0.4375q-2.109375 0 -3.578125 -1.421875q-1.640625 -1.578125 -1.640625 -4.234375q0 -2.75 1.6875 -4.421875q1.5 -1.484375 3.546875 -1.484375q2.390625 0 3.734375 1.34375q1.3125 1.28125 1.3125 3.421875q0 0.65625 -0.15625 1.203125zm-4.796875 -4.3125q-1.328125 0 -2.21875 0.859375q-0.859375 0.8125 -0.96875 2.015625l6.171875 0q0 -1.1875 -0.75 -2.0q-0.8125 -0.875 -2.234375 -0.875zm14.116959 9.6875l0 -0.8125q-1.03125 1.03125 -3.0 1.03125q-2.09375 0 -3.40625 -1.5q-1.296875 -1.5 -1.296875 -4.0q0 -2.515625 1.5 -4.28125q1.5 -1.78125 3.578125 -1.78125q1.71875 0 2.625 0.8125l0 -5.171875l1.96875 0l0 15.703125l-1.96875 0zm0 -8.5625q-0.75 -1.125 -2.0625 -1.125q-1.59375 0 -2.578125 1.1875q-0.984375 1.1875 -0.984375 3.03125q0 4.03125 3.671875 4.03125q0.46875 0 1.125 -0.296875q0.65625 -0.296875 0.828125 -0.640625l0 -6.1875z" fill-rule="nonzero"/><path fill="#000000" d="m34.526073 194.36166l-1.0625 -3.21875l-5.671875 0l-1.125 3.21875l-2.328125 0l6.1875 -15.46875l0.5625 0l5.734375 15.46875l-2.296875 0zm-3.8125 -11.46875l-2.375 6.71875l4.53125 0l-2.15625 -6.71875zm19.205261 11.46875l-1.8125 -9.796875l-3.328125 10.0l-0.515625 0l-3.4375 -10.0l-1.765625 9.796875l-1.984375 0l2.859375 -15.25l0.953125 0l3.625 11.125l3.359375 -11.125l0.9375 0l3.09375 15.25l-1.984375 0zm5.725479 -5.875l0 5.875l-2.078125 0l0 -15.25q2.359375 -0.109375 2.859375 -0.109375q6.640625 0 6.640625 4.453125q0 5.140625 -5.875 5.140625q-0.359375 0 -1.546875 -0.109375zm0 -7.5l0 5.625q1.328125 0.109375 1.40625 0.109375q3.875 0 3.875 -3.046875q0 -2.796875 -4.140625 -2.796875q-0.421875 0 -1.140625 0.109375zm9.814808 13.375l0 -15.25l2.078125 0l0 13.375l6.90625 0l0 1.875l-8.984375 0zm11.158829 0l0 -15.25l2.09375 0l0 15.25l-2.09375 0zm7.6548004 -13.375l0 4.234375l5.375 0l0 1.765625l-5.375 0l0 7.375l-2.078125 0l0 -15.25l9.421875 0l0 1.875l-7.34375 0zm14.69519 6.546875l0 6.828125l-2.09375 0l0 -6.828125l-4.90625 -8.421875l2.140625 0l3.796875 6.65625l3.8125 -6.65625l2.140625 0l-4.890625 8.421875zm13.172546 -2.765625l-1.28125 0l0 -1.5625l1.28125 0l0 -2.328125l1.984375 -0.765625l0 3.09375l3.0625 0l0 1.5625l-3.0625 0l0 5.546875q0 1.40625 0.46875 2.0q0.484375 0.59375 1.53125 0.59375q0.765625 0 1.578125 -0.390625l0.28125 1.734375q-1.21875 0.3125 -2.6875 0.3125q-1.328125 0 -2.25 -0.984375q-0.90625 -0.984375 -0.90625 -2.484375l0 -6.328125zm13.815643 0.34375q-0.640625 -0.453125 -1.296875 -0.453125q-1.0625 0 -1.84375 0.96875q-0.78125 0.96875 -0.78125 2.34375l0 6.390625l-1.984375 0l0 -11.15625l1.984375 0l0 1.78125q1.078125 -1.984375 3.21875 -1.984375q0.53125 0 1.53125 0.1875l-0.828125 1.921875zm4.1021423 -1.90625l0 7.109375q0 2.59375 2.234375 2.59375q0.984375 0 1.796875 -0.5625q0.8125 -0.5625 1.078125 -1.3125l0 -7.828125l1.96875 0l0 11.15625l-1.96875 0l0 -1.546875q-0.34375 0.65625 -1.34375 1.203125q-1.0 0.546875 -1.96875 0.546875q-1.828125 0 -2.8125 -1.046875q-0.96875 -1.046875 -0.96875 -2.984375l0 -7.328125l1.984375 0zm16.637787 11.15625l0 -6.484375q0 -1.78125 -0.53125 -2.5q-0.53125 -0.71875 -1.796875 -0.71875q-0.671875 0 -1.421875 0.40625q-0.734375 0.40625 -1.125 1.0l0 8.296875l-1.984375 0l0 -11.15625l1.359375 0l0.625 1.4375q0.96875 -1.640625 3.1875 -1.640625q3.671875 0 3.671875 4.453125l0 6.90625l-1.984375 0zm11.997162 0l-3.5 -5.578125l-1.71875 1.78125l0 3.796875l-1.984375 0l0 -15.71875l1.984375 0l0 9.75l4.265625 -5.1875l2.3125 0l-3.578125 4.234375l4.359375 6.921875l-2.140625 0z" fill-rule="nonzero"/><path fill="#b1cdfb" d="m258.20526 57.412704l73.4465 0l0 23.249344l-73.4465 0z" fill-rule="evenodd"/><path fill="#000000" d="m279.331 71.357216l-0.359375 -1.078125l-1.90625 0l-0.375 1.078125l-0.78125 0l2.078125 -5.1875l0.1875 0l1.921875 5.1875l-0.765625 0zm-1.28125 -3.84375l-0.796875 2.25l1.515625 0l-0.71875 -2.25zm2.3929443 4.875l0.375 -0.53125q0.578125 0.375 1.0625 0.375q0.453125 0 0.703125 -0.15625q0.265625 -0.15625 0.265625 -0.375q0 -0.453125 -0.65625 -0.453125q-0.109375 0 -0.40625 0.0625q-0.296875 0.046875 -0.453125 0.046875q-0.796875 0 -0.796875 -0.609375q0 -0.1875 0.1875 -0.328125q0.1875 -0.15625 0.453125 -0.21875q-0.78125 -0.375 -0.78125 -1.28125q0 -0.59375 0.40625 -0.984375q0.40625 -0.390625 1.015625 -0.390625q0.546875 0 0.859375 0.234375l0.328125 -0.40625l0.4375 0.40625l-0.40625 0.296875q0.265625 0.34375 0.265625 0.875q0 0.5625 -0.359375 0.953125q-0.34375 0.375 -0.921875 0.4375l-0.546875 0.0625q-0.09375 0 -0.265625 0.0625q-0.171875 0.0625 -0.171875 0.171875q0 0.140625 0.34375 0.140625q0.15625 0 0.46875 -0.046875q0.328125 -0.0625 0.484375 -0.0625q0.546875 0 0.84375 0.265625q0.3125 0.265625 0.3125 0.734375q0 0.515625 -0.46875 0.828125q-0.453125 0.328125 -1.15625 0.328125q-0.359375 0 -0.765625 -0.140625q-0.40625 -0.125 -0.65625 -0.296875zm1.421875 -4.3125q-0.359375 0 -0.578125 0.25q-0.21875 0.25 -0.21875 0.59375q0 0.390625 0.21875 0.65625q0.21875 0.25 0.578125 0.25q0.34375 0 0.546875 -0.25q0.203125 -0.25 0.203125 -0.65625q0 -0.34375 -0.21875 -0.59375q-0.21875 -0.25 -0.53125 -0.25zm2.170227 4.3125l0.375 -0.53125q0.578125 0.375 1.0625 0.375q0.453125 0 0.703125 -0.15625q0.265625 -0.15625 0.265625 -0.375q0 -0.453125 -0.65625 -0.453125q-0.109375 0 -0.40625 0.0625q-0.296875 0.046875 -0.453125 0.046875q-0.796875 0 -0.796875 -0.609375q0 -0.1875 0.1875 -0.328125q0.1875 -0.15625 0.453125 -0.21875q-0.78125 -0.375 -0.78125 -1.28125q0 -0.59375 0.40625 -0.984375q0.40625 -0.390625 1.015625 -0.390625q0.546875 0 0.859375 0.234375l0.328125 -0.40625l0.4375 0.40625l-0.40625 0.296875q0.265625 0.34375 0.265625 0.875q0 0.5625 -0.359375 0.953125q-0.34375 0.375 -0.921875 0.4375l-0.546875 0.0625q-0.09375 0 -0.265625 0.0625q-0.171875 0.0625 -0.171875 0.171875q0 0.140625 0.34375 0.140625q0.15625 0 0.46875 -0.046875q0.328125 -0.0625 0.484375 -0.0625q0.546875 0 0.84375 0.265625q0.3125 0.265625 0.3125 0.734375q0 0.515625 -0.46875 0.828125q-0.453125 0.328125 -1.15625 0.328125q-0.359375 0 -0.765625 -0.140625q-0.40625 -0.125 -0.65625 -0.296875zm1.421875 -4.3125q-0.359375 0 -0.578125 0.25q-0.21875 0.25 -0.21875 0.59375q0 0.390625 0.21875 0.65625q0.21875 0.25 0.578125 0.25q0.34375 0 0.546875 -0.25q0.203125 -0.25 0.203125 -0.65625q0 -0.34375 -0.21875 -0.59375q-0.21875 -0.25 -0.53125 -0.25zm4.342102 0.171875q-0.21875 -0.140625 -0.4375 -0.140625q-0.34375 0 -0.609375 0.328125q-0.265625 0.3125 -0.265625 0.78125l0 2.140625l-0.65625 0l0 -3.75l0.65625 0l0 0.609375q0.359375 -0.671875 1.078125 -0.671875q0.1875 0 0.515625 0.0625l-0.28125 0.640625zm3.906433 1.296875l-2.703125 0q0 0.65625 0.359375 1.015625q0.328125 0.3125 0.828125 0.3125q0.5625 0 0.9375 -0.34375l0.28125 0.484375q-0.140625 0.15625 -0.46875 0.265625q-0.390625 0.140625 -0.890625 0.140625q-0.703125 0 -1.1875 -0.46875q-0.546875 -0.53125 -0.546875 -1.421875q0 -0.921875 0.5625 -1.484375q0.5 -0.5 1.1875 -0.5q0.796875 0 1.25 0.453125q0.4375 0.4375 0.4375 1.140625q0 0.234375 -0.046875 0.40625zm-1.609375 -1.4375q-0.453125 0 -0.75 0.28125q-0.28125 0.28125 -0.328125 0.6875l2.078125 0q0 -0.40625 -0.25 -0.671875q-0.28125 -0.296875 -0.75 -0.296875zm2.2156067 4.28125l0.375 -0.53125q0.578125 0.375 1.0625 0.375q0.453125 0 0.703125 -0.15625q0.265625 -0.15625 0.265625 -0.375q0 -0.453125 -0.65625 -0.453125q-0.109375 0 -0.40625 0.0625q-0.296875 0.046875 -0.453125 0.046875q-0.796875 0 -0.796875 -0.609375q0 -0.1875 0.1875 -0.328125q0.1875 -0.15625 0.453125 -0.21875q-0.78125 -0.375 -0.78125 -1.28125q0 -0.59375 0.40625 -0.984375q0.40625 -0.390625 1.015625 -0.390625q0.546875 0 0.859375 0.234375l0.328125 -0.40625l0.4375 0.40625l-0.40625 0.296875q0.265625 0.34375 0.265625 0.875q0 0.5625 -0.359375 0.953125q-0.34375 0.375 -0.921875 0.4375l-0.546875 0.0625q-0.09375 0 -0.265625 0.0625q-0.171875 0.0625 -0.171875 0.171875q0 0.140625 0.34375 0.140625q0.15625 0 0.46875 -0.046875q0.328125 -0.0625 0.484375 -0.0625q0.546875 0 0.84375 0.265625q0.3125 0.265625 0.3125 0.734375q0 0.515625 -0.46875 0.828125q-0.453125 0.328125 -1.15625 0.328125q-0.359375 0 -0.765625 -0.140625q-0.40625 -0.125 -0.65625 -0.296875zm1.421875 -4.3125q-0.359375 0 -0.578125 0.25q-0.21875 0.25 -0.21875 0.59375q0 0.390625 0.21875 0.65625q0.21875 0.25 0.578125 0.25q0.34375 0 0.546875 -0.25q0.203125 -0.25 0.203125 -0.65625q0 -0.34375 -0.21875 -0.59375q-0.21875 -0.25 -0.53125 -0.25zm4.420227 2.84375q-0.390625 0.5 -1.21875 0.5q-0.4375 0 -0.765625 -0.3125q-0.3125 -0.3125 -0.3125 -0.796875q0 -0.5625 0.5 -0.953125q0.5 -0.40625 1.265625 -0.40625q0.203125 0 0.46875 0.09375q0 -0.90625 -0.796875 -0.90625q-0.625 0 -0.96875 0.34375l-0.28125 -0.5625q0.1875 -0.15625 0.515625 -0.265625q0.34375 -0.109375 0.65625 -0.109375q0.8125 0 1.171875 0.375q0.375 0.359375 0.375 1.171875l0 1.34375q0 0.484375 0.296875 0.65625l0 0.328125q-0.40625 0 -0.609375 -0.109375q-0.203125 -0.125 -0.296875 -0.390625zm-0.0625 -1.40625q-0.3125 -0.0625 -0.4375 -0.0625q-0.5 0 -0.828125 0.265625q-0.3125 0.25 -0.3125 0.609375q0 0.578125 0.6875 0.578125q0.515625 0 0.890625 -0.484375l0 -0.90625zm1.9473267 -1.375l-0.421875 0l0 -0.53125l0.421875 0l0 -0.78125l0.671875 -0.25l0 1.03125l1.03125 0l0 0.53125l-1.03125 0l0 1.859375q0 0.46875 0.15625 0.671875q0.15625 0.203125 0.515625 0.203125q0.25 0 0.53125 -0.140625l0.09375 0.59375q-0.421875 0.09375 -0.90625 0.09375q-0.4375 0 -0.75 -0.328125q-0.3125 -0.328125 -0.3125 -0.828125l0 -2.125zm3.2904663 -1.9375q0.171875 0 0.28125 0.125q0.125 0.109375 0.125 0.28125q0 0.171875 -0.125 0.296875q-0.109375 0.109375 -0.28125 0.109375q-0.171875 0 -0.296875 -0.109375q-0.109375 -0.125 -0.109375 -0.296875q0 -0.171875 0.109375 -0.28125q0.125 -0.125 0.296875 -0.125zm-0.359375 5.15625l0 -3.1875l-0.515625 0l0 -0.5625l1.171875 0l0 3.75l-0.65625 0zm1.4781494 -1.875q0 -0.875 0.453125 -1.40625q0.46875 -0.53125 1.234375 -0.53125q0.796875 0 1.234375 0.515625q0.453125 0.515625 0.453125 1.421875q0 0.90625 -0.453125 1.421875q-0.453125 0.515625 -1.234375 0.515625q-0.796875 0 -1.25 -0.515625q-0.4375 -0.53125 -0.4375 -1.421875zm0.6875 0q0 1.40625 1.0 1.40625q0.46875 0 0.734375 -0.375q0.265625 -0.375 0.265625 -1.03125q0 -1.390625 -1.0 -1.390625q-0.453125 0 -0.734375 0.375q-0.265625 0.359375 -0.265625 1.015625zm5.6995544 1.875l0 -2.171875q0 -0.609375 -0.1875 -0.84375q-0.171875 -0.234375 -0.609375 -0.234375q-0.21875 0 -0.46875 0.140625q-0.25 0.125 -0.375 0.328125l0 2.78125l-0.671875 0l0 -3.75l0.453125 0l0.21875 0.484375q0.328125 -0.546875 1.0625 -0.546875q1.234375 0 1.234375 1.5l0 2.3125l-0.65625 0z" fill-rule="nonzero"/><path fill="#000000" fill-opacity="0.0" d="m246.70184 53.49764l96.45364 0l0 32.012074l-96.45364 0z" fill-rule="evenodd"/><path stroke="#000000" stroke-width="2.6666666666666665" stroke-linejoin="round" stroke-linecap="butt" d="m246.70184 53.49764l96.45364 0l0 32.012074l-96.45364 0z" fill-rule="evenodd"/><path fill="#000000" fill-opacity="0.0" d="m322.59097 57.411182l96.66141 0l0 22.61417l-96.66141 0z" fill-rule="evenodd"/><path fill="#000000" d="m355.75385 71.776184q-1.546875 0 -2.375 -0.953125q-0.828125 -0.953125 -0.828125 -2.671875l0 -0.46875q0 -1.109375 0.375 -1.921875q0.390625 -0.828125 1.109375 -1.265625q0.71875 -0.4375 1.71875 -0.4375l0.125 0q1.015625 0 1.703125 0.46875q0.703125 0.46875 0.984375 1.328125l-0.8125 0.28125q-0.1875 -0.640625 -0.6875 -0.96875q-0.484375 -0.328125 -1.1875 -0.328125l-0.125 0q-1.09375 0 -1.703125 0.734375q-0.609375 0.734375 -0.609375 2.078125l0 0.53125q0 1.375 0.59375 2.09375q0.59375 0.71875 1.71875 0.71875l0.125 0q0.71875 0 1.21875 -0.3125q0.515625 -0.3125 0.71875 -0.921875l0.78125 0.3125q-0.296875 0.8125 -1.0 1.265625q-0.703125 0.4375 -1.71875 0.4375l-0.125 0zm4.18808 -0.125l0 -7.781254l0.84375 0l0 7.781254l-0.84375 0zm2.5575256 0l0 -5.421875l0.84375 0l0 5.421875l-0.84375 0zm-0.03125 -6.5625l0 -0.96875l0.890625 0l0 0.96875l-0.890625 0zm4.6981506 6.6875q-1.109375 0 -1.765625 -0.6875q-0.65625 -0.6875 -0.65625 -1.953125l0 -0.390625q0 -0.828125 0.296875 -1.40625q0.3125 -0.59375 0.859375 -0.90625q0.546875 -0.328125 1.265625 -0.328125l0.09375 0q0.703125 0 1.21875 0.296875q0.53125 0.296875 0.8125 0.84375q0.28125 0.546875 0.28125 1.28125l0 0.65625l-3.984375 0q0.015625 0.9375 0.4375 1.40625q0.421875 0.46875 1.140625 0.46875l0.171875 0q0.53125 0 0.859375 -0.1875q0.34375 -0.1875 0.546875 -0.546875l0.640625 0.390625q-0.28125 0.484375 -0.8125 0.78125q-0.515625 0.28125 -1.234375 0.28125l-0.171875 0zm-1.5625 -3.25l3.140625 0l0 -0.109375q0 -0.796875 -0.40625 -1.203125q-0.40625 -0.40625 -1.078125 -0.40625l-0.09375 0q-0.65625 0 -1.09375 0.4375q-0.421875 0.4375 -0.46875 1.28125zm5.335449 3.125l0 -5.421875l0.765625 0l0 0.96875q0.234375 -0.484375 0.6875 -0.78125q0.453125 -0.3125 1.140625 -0.3125l0.09375 0q0.921875 0 1.484375 0.5625q0.5625 0.5625 0.5625 1.65625l0 3.328125l-0.859375 0l0 -3.203125q0 -0.796875 -0.359375 -1.203125q-0.34375 -0.40625 -1.0 -0.40625l-0.078125 0q-0.421875 0 -0.78125 0.203125q-0.359375 0.203125 -0.59375 0.625q-0.21875 0.40625 -0.21875 1.015625l0 2.96875l-0.84375 0zm8.446869 0.046875q-0.9375 0 -1.328125 -0.4375q-0.390625 -0.4375 -0.390625 -1.203125l0 -3.125l-1.15625 0l0 -0.703125l1.15625 0l0 -1.640625l0.859375 0l0 1.640625l1.875 0l-0.125 0.703125l-1.75 0l0 3.078125q0 0.515625 0.234375 0.75q0.234375 0.21875 0.71875 0.21875l0.921875 0l0 0.71875l-1.015625 0zm7.2626343 -0.046875l0 -6.578125l-1.1874695 0l0.109375 -0.75l1.9530945 0l0 7.328125l-0.875 0z" fill-rule="nonzero"/><path fill="#000000" fill-opacity="0.0" d="m175.75212 175.92966l35.480316 0l0 -106.42519l35.480316 0" fill-rule="evenodd"/><path stroke="#000000" stroke-width="3.0" stroke-linejoin="round" stroke-linecap="butt" d="m175.75212 175.92966l35.480316 0l0 -106.42519l35.480316 0" fill-rule="evenodd"/><path fill="#000000" fill-opacity="0.0" d="m211.23727 165.69707l0 112.12599l35.46457 0" fill-rule="evenodd"/><path stroke="#000000" stroke-width="3.0" stroke-linejoin="round" stroke-linecap="butt" d="m211.23727 165.69707l0 112.12599l35.46457 0" fill-rule="evenodd"/><path fill="#000000" fill-opacity="0.0" d="m108.49617 0l372.86475 0l0 48.468765l-372.86475 0z" fill-rule="evenodd"/><path fill="#000000" d="m216.53676 19.36l0 -10.0625l-3.59375 0l0 -1.140625l8.515625 0l0 1.140625l-3.59375 0l0 10.0625l-1.328125 0zm7.518265 0.1875q-1.3125 0 -2.015625 -0.625q-0.703125 -0.625 -0.703125 -1.78125q0 -0.96875 0.59375 -1.578125q0.609375 -0.625 1.78125 -0.78125l3.1875 -0.4375l0 -0.0625q0 -2.1875 -1.953125 -2.1875l-0.171875 0q-1.53125 0 -2.09375 1.1875l-1.03125 -0.5q0.375 -0.828125 1.171875 -1.296875q0.8125 -0.46875 1.953125 -0.46875l0.25 0q1.546875 0 2.34375 0.828125q0.8125 0.8125 0.8125 2.359375l0 5.15625l-1.15625 0l0 -1.453125q-0.375 0.765625 -1.125 1.203125q-0.75 0.4375 -1.703125 0.4375l-0.140625 0zm2.84375 -4.21875l-2.65625 0.390625q-0.921875 0.125 -1.296875 0.4375q-0.359375 0.296875 -0.359375 0.921875q0 0.6875 0.4375 1.0625q0.4375 0.359375 1.265625 0.359375l0.171875 0q1.09375 0 1.765625 -0.703125q0.671875 -0.703125 0.671875 -1.875l0 -0.59375zm6.594269 4.21875q-2.671875 0 -3.484375 -1.875l1.03125 -0.5q0.3125 0.671875 0.90625 1.0q0.609375 0.3125 1.5625 0.3125l0.1875 0q1.90625 0 1.90625 -1.234375l0 -0.078125q0 -1.078125 -1.265625 -1.234375l-1.8125 -0.265625q-1.078125 -0.140625 -1.671875 -0.671875q-0.578125 -0.546875 -0.578125 -1.484375l0 -0.171875q0 -1.046875 0.828125 -1.6875q0.84375 -0.640625 2.203125 -0.640625l0.203125 0q1.125 0 1.953125 0.46875q0.828125 0.453125 1.15625 1.265625l-1.03125 0.46875q-0.5 -1.125 -2.078125 -1.125l-0.1875 0q-0.828125 0 -1.328125 0.34375q-0.484375 0.328125 -0.484375 0.890625l0 0.09375q0 0.5 0.296875 0.765625q0.296875 0.265625 0.96875 0.359375l1.84375 0.25q1.046875 0.140625 1.625 0.734375q0.59375 0.59375 0.59375 1.546875l0 0.171875q0 1.140625 -0.796875 1.71875q-0.796875 0.578125 -2.328125 0.578125l-0.21875 0zm5.2846375 -0.1875l0 -11.6875l1.28125 0l0 7.21875l4.03125 -3.671875l1.671875 0l-3.40625 3.078125l3.671875 5.0625l-1.5625 0l-3.046875 -4.265625l-1.359375 1.21875l0 3.046875l-1.28125 0zm12.896027 0l0 -8.140625l1.171875 0l0 1.703125q0.28125 -0.796875 0.859375 -1.28125q0.59375 -0.484375 1.71875 -0.484375l0.75 0l0 1.15625l-0.828125 0q-1.03125 0 -1.71875 0.71875q-0.671875 0.71875 -0.671875 2.1875l0 4.140625l-1.28125 0zm9.091522 0.1875q-1.6875 0 -2.671875 -1.03125q-0.96875 -1.046875 -0.96875 -2.9375l0 -0.59375q0 -1.21875 0.453125 -2.109375q0.453125 -0.890625 1.265625 -1.375q0.828125 -0.484375 1.921875 -0.484375l0.125 0q1.0625 0 1.84375 0.453125q0.78125 0.453125 1.203125 1.28125q0.4375 0.8125 0.4375 1.921875l0 0.96875l-5.984375 0q0.015625 1.4375 0.640625 2.140625q0.640625 0.703125 1.734375 0.703125l0.234375 0q0.796875 0 1.296875 -0.28125q0.515625 -0.296875 0.8125 -0.84375l0.984375 0.59375q-0.421875 0.734375 -1.21875 1.171875q-0.78125 0.421875 -1.875 0.421875l-0.234375 0zm-2.359375 -4.875l4.703125 0l0 -0.171875q0 -1.1875 -0.609375 -1.796875q-0.59375 -0.609375 -1.609375 -0.609375l-0.125 0q-1.0 0 -1.65625 0.65625q-0.640625 0.65625 -0.703125 1.921875zm11.238251 8.109375q-2.375 0 -3.203125 -1.515625l0.921875 -0.671875q0.359375 0.578125 0.875 0.84375q0.53125 0.265625 1.421875 0.265625l0.234375 0q2.296875 0 2.296875 -2.53125l0 -1.234375q-0.796875 1.390625 -2.625 1.390625l-0.09375 0q-1.0625 0 -1.84375 -0.484375q-0.78125 -0.5 -1.234375 -1.375q-0.4375 -0.875 -0.4375 -2.046875l0 -0.515625q0 -1.15625 0.4375 -2.03125q0.453125 -0.875 1.234375 -1.359375q0.78125 -0.5 1.84375 -0.5l0.09375 0q2.015625 0 2.765625 1.609375l0 -1.390625l1.171875 0l0 7.921875q0 1.734375 -0.9375 2.671875q-0.921875 0.953125 -2.640625 0.953125l-0.28125 0zm0.03125 -4.5625l0.140625 0q1.125 0 1.765625 -0.765625q0.640625 -0.765625 0.640625 -2.09375l0 -0.390625q0 -1.328125 -0.640625 -2.078125q-0.640625 -0.765625 -1.765625 -0.765625l-0.140625 0q-1.125 0 -1.78125 0.765625q-0.65625 0.75 -0.65625 2.03125l0 0.5q0 1.28125 0.65625 2.046875q0.65625 0.75 1.78125 0.75zm6.382416 1.140625l0 -8.140625l1.171875 0l0 1.703125q0.28125 -0.796875 0.859375 -1.28125q0.59375 -0.484375 1.71875 -0.484375l0.75 0l0 1.15625l-0.828125 0q-1.03125 0 -1.71875 0.71875q-0.671875 0.71875 -0.671875 2.1875l0 4.140625l-1.28125 0zm9.091522 0.1875q-1.6875 0 -2.671875 -1.03125q-0.96875 -1.046875 -0.96875 -2.9375l0 -0.59375q0 -1.21875 0.453125 -2.109375q0.453125 -0.890625 1.265625 -1.375q0.828125 -0.484375 1.921875 -0.484375l0.125 0q1.0625 0 1.84375 0.453125q0.78125 0.453125 1.203125 1.28125q0.4375 0.8125 0.4375 1.921875l0 0.96875l-5.984375 0q0.015625 1.4375 0.640625 2.140625q0.640625 0.703125 1.734375 0.703125l0.234375 0q0.796875 0 1.296875 -0.28125q0.515625 -0.296875 0.8125 -0.84375l0.984375 0.59375q-0.421875 0.734375 -1.21875 1.171875q-0.78125 0.421875 -1.875 0.421875l-0.234375 0zm-2.359375 -4.875l4.703125 0l0 -0.171875q0 -1.1875 -0.609375 -1.796875q-0.59375 -0.609375 -1.609375 -0.609375l-0.125 0q-1.0 0 -1.65625 0.65625q-0.640625 0.65625 -0.703125 1.921875zm10.863251 4.875q-2.671875 0 -3.484375 -1.875l1.03125 -0.5q0.3125 0.671875 0.90625 1.0q0.609375 0.3125 1.5625 0.3125l0.1875 0q1.90625 0 1.90625 -1.234375l0 -0.078125q0 -1.078125 -1.265625 -1.234375l-1.8125 -0.265625q-1.078125 -0.140625 -1.671875 -0.671875q-0.578125 -0.546875 -0.578125 -1.484375l0 -0.171875q0 -1.046875 0.828125 -1.6875q0.84375 -0.640625 2.203125 -0.640625l0.203125 0q1.125 0 1.953125 0.46875q0.828125 0.453125 1.15625 1.265625l-1.03125 0.46875q-0.5 -1.125 -2.078125 -1.125l-0.1875 0q-0.828125 0 -1.328125 0.34375q-0.484375 0.328125 -0.484375 0.890625l0 0.09375q0 0.5 0.296875 0.765625q0.296875 0.265625 0.96875 0.359375l1.84375 0.25q1.046875 0.140625 1.625 0.734375q0.59375 0.59375 0.59375 1.546875l0 0.171875q0 1.140625 -0.796875 1.71875q-0.796875 0.578125 -2.328125 0.578125l-0.21875 0zm7.984009 0q-2.671875 0 -3.484375 -1.875l1.03125 -0.5q0.3125 0.671875 0.90625 1.0q0.609375 0.3125 1.5625 0.3125l0.1875 0q1.90625 0 1.90625 -1.234375l0 -0.078125q0 -1.078125 -1.265625 -1.234375l-1.8125 -0.265625q-1.078125 -0.140625 -1.671875 -0.671875q-0.578125 -0.546875 -0.578125 -1.484375l0 -0.171875q0 -1.046875 0.828125 -1.6875q0.84375 -0.640625 2.203125 -0.640625l0.203125 0q1.125 0 1.953125 0.46875q0.828125 0.453125 1.15625 1.265625l-1.03125 0.46875q-0.5 -1.125 -2.078125 -1.125l-0.1875 0q-0.828125 0 -1.328125 0.34375q-0.484375 0.328125 -0.484375 0.890625l0 0.09375q0 0.5 0.296875 0.765625q0.296875 0.265625 0.96875 0.359375l1.84375 0.25q1.046875 0.140625 1.625 0.734375q0.59375 0.59375 0.59375 1.546875l0 0.171875q0 1.140625 -0.796875 1.71875q-0.796875 0.578125 -2.328125 0.578125l-0.21875 0zm5.2846375 -0.1875l0 -8.140625l1.28125 0l0 8.140625l-1.28125 0zm-0.03125 -9.859375l0 -1.453125l1.34375 0l0 1.453125l-1.34375 0zm7.136902 10.046875q-1.0625 0 -1.90625 -0.46875q-0.828125 -0.46875 -1.328125 -1.359375q-0.484375 -0.90625 -0.484375 -2.15625l0 -0.5625q0 -1.234375 0.484375 -2.125q0.5 -0.90625 1.328125 -1.375q0.84375 -0.484375 1.90625 -0.484375l0.15625 0q1.078125 0 1.90625 0.484375q0.84375 0.46875 1.328125 1.359375q0.5 0.890625 0.5 2.125l0 0.59375q0 1.25 -0.5 2.140625q-0.484375 0.890625 -1.328125 1.359375q-0.828125 0.46875 -1.90625 0.46875l-0.15625 0zm0.015625 -1.09375l0.125 0q1.046875 0 1.75 -0.71875q0.71875 -0.734375 0.71875 -2.15625l0 -0.59375q0 -1.421875 -0.71875 -2.140625q-0.703125 -0.71875 -1.75 -0.71875l-0.125 0q-1.03125 0 -1.75 0.71875q-0.703125 0.71875 -0.703125 2.140625l0 0.59375q0 1.421875 0.703125 2.15625q0.71875 0.71875 1.75 0.71875zm5.9667664 0.90625l0 -8.140625l1.171875 0l0 1.453125q0.328125 -0.734375 1.015625 -1.1875q0.6875 -0.46875 1.71875 -0.46875l0.140625 0q1.390625 0 2.234375 0.859375q0.84375 0.84375 0.84375 2.46875l0 5.015625l-1.28125 0l0 -4.796875q0 -1.203125 -0.53125 -1.8125q-0.53125 -0.625 -1.515625 -0.625l-0.125 0q-0.640625 0 -1.1875 0.3125q-0.53125 0.3125 -0.875 0.9375q-0.328125 0.609375 -0.328125 1.53125l0 4.453125l-1.28125 0zm13.696014 0l0 -11.6875l1.28125 0l0 4.8125q0.34375 -0.65625 1.0 -1.0625q0.671875 -0.40625 1.625 -0.40625l0.140625 0q1.390625 0 2.234375 0.859375q0.84375 0.84375 0.84375 2.46875l0 5.015625l-1.28125 0l0 -4.796875q0 -1.203125 -0.53125 -1.8125q-0.53125 -0.625 -1.515625 -0.625l-0.125 0q-0.640625 0 -1.1875 0.3125q-0.53125 0.3125 -0.875 0.9375q-0.328125 0.609375 -0.328125 1.53125l0 4.453125l-1.28125 0zm12.755524 0.1875q-1.6875 0 -2.671875 -1.03125q-0.96875 -1.046875 -0.96875 -2.9375l0 -0.59375q0 -1.21875 0.453125 -2.109375q0.453125 -0.890625 1.265625 -1.375q0.828125 -0.484375 1.921875 -0.484375l0.125 0q1.0625 0 1.84375 0.453125q0.78125 0.453125 1.203125 1.28125q0.4375 0.8125 0.4375 1.921875l0 0.96875l-5.984375 0q0.015625 1.4375 0.640625 2.140625q0.640625 0.703125 1.734375 0.703125l0.234375 0q0.796875 0 1.296875 -0.28125q0.515625 -0.296875 0.8125 -0.84375l0.984375 0.59375q-0.421875 0.734375 -1.21875 1.171875q-0.78125 0.421875 -1.875 0.421875l-0.234375 0zm-2.359375 -4.875l4.703125 0l0 -0.171875q0 -1.1875 -0.609375 -1.796875q-0.59375 -0.609375 -1.609375 -0.609375l-0.125 0q-1.0 0 -1.65625 0.65625q-0.640625 0.65625 -0.703125 1.921875zm10.113281 4.875q-1.3125 0 -2.015625 -0.625q-0.703125 -0.625 -0.703125 -1.78125q0 -0.96875 0.59375 -1.578125q0.609375 -0.625 1.78125 -0.78125l3.1875 -0.4375l0 -0.0625q0 -2.1875 -1.953125 -2.1875l-0.171875 0q-1.53125 0 -2.09375 1.1875l-1.03125 -0.5q0.375 -0.828125 1.171875 -1.296875q0.8125 -0.46875 1.953125 -0.46875l0.25 0q1.546875 0 2.34375 0.828125q0.8125 0.8125 0.8125 2.359375l0 5.15625l-1.15625 0l0 -1.453125q-0.375 0.765625 -1.125 1.203125q-0.75 0.4375 -1.703125 0.4375l-0.140625 0zm2.84375 -4.21875l-2.65625 0.390625q-0.921875 0.125 -1.296875 0.4375q-0.359375 0.296875 -0.359375 0.921875q0 0.6875 0.4375 1.0625q0.4375 0.359375 1.265625 0.359375l0.171875 0q1.09375 0 1.765625 -0.703125q0.671875 -0.703125 0.671875 -1.875l0 -0.59375zm6.797394 4.21875q-1.015625 0 -1.8125 -0.453125q-0.78125 -0.453125 -1.25 -1.34375q-0.453125 -0.90625 -0.453125 -2.1875l0 -0.578125q0 -1.265625 0.453125 -2.15625q0.46875 -0.890625 1.25 -1.34375q0.796875 -0.46875 1.8125 -0.46875l0.09375 0q0.921875 0 1.59375 0.40625q0.671875 0.390625 1.0625 1.046875l0 -4.796875l1.28125 0l0 11.6875l-1.171875 0l0 -1.40625q-0.375 0.71875 -1.078125 1.15625q-0.6875 0.4375 -1.6875 0.4375l-0.09375 0zm0.203125 -1.09375l0.140625 0q0.671875 0 1.21875 -0.296875q0.546875 -0.3125 0.859375 -0.953125q0.328125 -0.640625 0.328125 -1.671875l0 -0.484375q0 -1.03125 -0.328125 -1.671875q-0.328125 -0.640625 -0.875 -0.9375q-0.546875 -0.3125 -1.203125 -0.3125l-0.140625 0q-1.046875 0 -1.75 0.703125q-0.6875 0.6875 -0.6875 2.15625l0 0.578125q0 1.484375 0.6875 2.1875q0.703125 0.703125 1.75 0.703125zm9.24176 1.09375q-2.671875 0 -3.484375 -1.875l1.03125 -0.5q0.3125 0.671875 0.90625 1.0q0.609375 0.3125 1.5625 0.3125l0.1875 0q1.90625 0 1.90625 -1.234375l0 -0.078125q0 -1.078125 -1.265625 -1.234375l-1.8125 -0.265625q-1.078125 -0.140625 -1.671875 -0.671875q-0.578125 -0.546875 -0.578125 -1.484375l0 -0.171875q0 -1.046875 0.828125 -1.6875q0.84375 -0.640625 2.203125 -0.640625l0.203125 0q1.125 0 1.953125 0.46875q0.828125 0.453125 1.15625 1.265625l-1.03125 0.46875q-0.5 -1.125 -2.078125 -1.125l-0.1875 0q-0.828125 0 -1.328125 0.34375q-0.484375 0.328125 -0.484375 0.890625l0 0.09375q0 0.5 0.296875 0.765625q0.296875 0.265625 0.96875 0.359375l1.84375 0.25q1.046875 0.140625 1.625 0.734375q0.59375 0.59375 0.59375 1.546875l0 0.171875q0 1.140625 -0.796875 1.71875q-0.796875 0.578125 -2.328125 0.578125l-0.21875 0z" fill-rule="nonzero"/><path fill="#000000" d="m214.92775 40.638126q-0.65625 -0.890625 -1.140625 -2.03125q-0.484375 -1.125 -0.75 -2.359375q-0.25 -1.234375 -0.25 -2.484375l0 -0.65625q0 -1.25 0.25 -2.484375q0.265625 -1.25 0.75 -2.375q0.484375 -1.125 1.140625 -2.0l1.203125 0q-0.609375 0.84375 -1.0625 1.984375q-0.4375 1.125 -0.6875 2.390625q-0.25 1.25 -0.25 2.484375l0 0.65625q0 1.21875 0.25 2.484375q0.25 1.265625 0.703125 2.40625q0.453125 1.140625 1.046875 1.984375l-1.203125 0zm2.7698822 1.125l0 -11.34375l1.171875 0l0 1.390625q0.359375 -0.71875 1.046875 -1.15625q0.703125 -0.4375 1.703125 -0.4375l0.109375 0q1.03125 0 1.8125 0.46875q0.78125 0.453125 1.234375 1.34375q0.453125 0.890625 0.453125 2.15625l0 0.59375q0 1.28125 -0.453125 2.171875q-0.453125 0.890625 -1.234375 1.34375q-0.78125 0.453125 -1.8125 0.453125l-0.109375 0q-0.921875 0 -1.609375 -0.375q-0.671875 -0.390625 -1.03125 -1.046875l0 4.4375l-1.28125 0zm3.671875 -4.109375l0.15625 0q1.03125 0 1.71875 -0.703125q0.703125 -0.703125 0.703125 -2.1875l0 -0.578125q0 -1.46875 -0.703125 -2.15625q-0.6875 -0.703125 -1.71875 -0.703125l-0.15625 0q-0.65625 0 -1.203125 0.3125q-0.546875 0.296875 -0.875 0.9375q-0.3125 0.640625 -0.3125 1.671875l0 0.484375q0 1.53125 0.703125 2.234375q0.703125 0.6875 1.6875 0.6875zm5.9761505 0.90625l0 -8.140625l1.171875 0l0 1.703125q0.28125 -0.796875 0.859375 -1.28125q0.59375 -0.484375 1.71875 -0.484375l0.75 0l0 1.15625l-0.828125 0q-1.03125 0 -1.71875 0.71875q-0.671875 0.71875 -0.671875 2.1875l0 4.140625l-1.28125 0zm6.3520203 0l0 -8.140625l1.28125 0l0 8.140625l-1.28125 0zm-0.03125 -9.859375l0 -1.453125l1.34375 0l0 1.453125l-1.34375 0zm6.0900116 9.859375l-3.21875 -8.140625l1.328125 0l2.46875 6.546875l2.453125 -6.546875l1.28125 0l-3.21875 8.140625l-1.09375 0zm7.746643 0.1875q-1.3125 0 -2.015625 -0.625q-0.703125 -0.625 -0.703125 -1.78125q0 -0.96875 0.59375 -1.578125q0.609375 -0.625 1.78125 -0.78125l3.1875 -0.4375l0 -0.0625q0 -2.1875 -1.953125 -2.1875l-0.171875 0q-1.53125 0 -2.09375 1.1875l-1.03125 -0.5q0.375 -0.828125 1.171875 -1.296875q0.8125 -0.46875 1.953125 -0.46875l0.25 0q1.546875 0 2.34375 0.828125q0.8125 0.8125 0.8125 2.359375l0 5.15625l-1.15625 0l0 -1.453125q-0.375 0.765625 -1.125 1.203125q-0.75 0.4375 -1.703125 0.4375l-0.140625 0zm2.84375 -4.21875l-2.65625 0.390625q-0.921875 0.125 -1.296875 0.4375q-0.359375 0.296875 -0.359375 0.921875q0 0.6875 0.4375 1.0625q0.4375 0.359375 1.265625 0.359375l0.171875 0q1.09375 0 1.765625 -0.703125q0.671875 -0.703125 0.671875 -1.875l0 -0.59375zm6.869873 4.09375q-1.4062347 0 -1.9999847 -0.65625q-0.59375 -0.65625 -0.59375 -1.796875l0 -4.703125l-1.75 0l0 -1.046875l1.75 0l0 -2.46875l1.28125 0l0 2.46875l2.8124847 0l-0.171875 1.046875l-2.6406097 0l0 4.625q0 0.765625 0.34373474 1.109375q0.359375 0.34375 1.09375 0.34375l1.375 0l0 1.078125l-1.5 0zm6.6125183 0.125q-1.6875 0 -2.671875 -1.03125q-0.96875 -1.046875 -0.96875 -2.9375l0 -0.59375q0 -1.21875 0.453125 -2.109375q0.453125 -0.890625 1.265625 -1.375q0.828125 -0.484375 1.921875 -0.484375l0.125 0q1.0625 0 1.84375 0.453125q0.78125 0.453125 1.203125 1.28125q0.4375 0.8125 0.4375 1.921875l0 0.96875l-5.984375 0q0.015625 1.4375 0.640625 2.140625q0.640625 0.703125 1.734375 0.703125l0.234375 0q0.796875 0 1.296875 -0.28125q0.515625 -0.296875 0.8125 -0.84375l0.984375 0.59375q-0.421875 0.734375 -1.21875 1.171875q-0.78125 0.421875 -1.875 0.421875l-0.234375 0zm-2.359375 -4.875l4.703125 0l0 -0.171875q0 -1.1875 -0.609375 -1.796875q-0.59375 -0.609375 -1.609375 -0.609375l-0.125 0q-1.0 0 -1.65625 0.65625q-0.640625 0.65625 -0.703125 1.921875zm15.506897 4.75q-1.40625 0 -2.0 -0.65625q-0.59375 -0.65625 -0.59375 -1.796875l0 -4.703125l-1.75 0l0 -1.046875l1.75 0l0 -2.46875l1.28125 0l0 2.46875l2.8125 0l-0.171875 1.046875l-2.640625 0l0 4.625q0 0.765625 0.34375 1.109375q0.359375 0.34375 1.09375 0.34375l1.375 0l0 1.078125l-1.5 0zm6.6906433 0.125q-1.0625 0 -1.90625 -0.46875q-0.828125 -0.46875 -1.328125 -1.359375q-0.484375 -0.90625 -0.484375 -2.15625l0 -0.5625q0 -1.234375 0.484375 -2.125q0.5 -0.90625 1.328125 -1.375q0.84375 -0.484375 1.90625 -0.484375l0.15625 0q1.078125 0 1.90625 0.484375q0.84375 0.46875 1.328125 1.359375q0.5 0.890625 0.5 2.125l0 0.59375q0 1.25 -0.5 2.140625q-0.484375 0.890625 -1.328125 1.359375q-0.828125 0.46875 -1.90625 0.46875l-0.15625 0zm0.015625 -1.09375l0.125 0q1.046875 0 1.75 -0.71875q0.71875 -0.734375 0.71875 -2.15625l0 -0.59375q0 -1.421875 -0.71875 -2.140625q-0.703125 -0.71875 -1.75 -0.71875l-0.125 0q-1.03125 0 -1.75 0.71875q-0.703125 0.71875 -0.703125 2.140625l0 0.59375q0 1.421875 0.703125 2.15625q0.71875 0.71875 1.75 0.71875zm13.282288 1.09375q-1.6875 0 -2.671875 -1.03125q-0.96875 -1.046875 -0.96875 -2.9375l0 -0.59375q0 -1.21875 0.453125 -2.109375q0.453125 -0.890625 1.265625 -1.375q0.828125 -0.484375 1.921875 -0.484375l0.125 0q1.0625 0 1.84375 0.453125q0.78125 0.453125 1.203125 1.28125q0.4375 0.8125 0.4375 1.921875l0 0.96875l-5.984375 0q0.015625 1.4375 0.640625 2.140625q0.640625 0.703125 1.734375 0.703125l0.234375 0q0.796875 0 1.296875 -0.28125q0.515625 -0.296875 0.8125 -0.84375l0.984375 0.59375q-0.421875 0.734375 -1.21875 1.171875q-0.78125 0.421875 -1.875 0.421875l-0.234375 0zm-2.359375 -4.875l4.703125 0l0 -0.171875q0 -1.1875 -0.609375 -1.796875q-0.59375 -0.609375 -1.609375 -0.609375l-0.125 0q-1.0 0 -1.65625 0.65625q-0.640625 0.65625 -0.703125 1.921875zm10.113251 4.875q-1.3125 0 -2.015625 -0.625q-0.703125 -0.625 -0.703125 -1.78125q0 -0.96875 0.59375 -1.578125q0.609375 -0.625 1.78125 -0.78125l3.1875 -0.4375l0 -0.0625q0 -2.1875 -1.953125 -2.1875l-0.171875 0q-1.53125 0 -2.09375 1.1875l-1.03125 -0.5q0.375 -0.828125 1.171875 -1.296875q0.8125 -0.46875 1.953125 -0.46875l0.25 0q1.546875 0 2.34375 0.828125q0.8125 0.8125 0.8125 2.359375l0 5.15625l-1.15625 0l0 -1.453125q-0.375 0.765625 -1.125 1.203125q-0.75 0.4375 -1.703125 0.4375l-0.140625 0zm2.84375 -4.21875l-2.65625 0.390625q-0.921875 0.125 -1.296875 0.4375q-0.359375 0.296875 -0.359375 0.921875q0 0.6875 0.4375 1.0625q0.4375 0.359375 1.265625 0.359375l0.171875 0q1.09375 0 1.765625 -0.703125q0.671875 -0.703125 0.671875 -1.875l0 -0.59375zm7.031769 4.21875q-1.71875 0 -2.734375 -1.03125q-1.015625 -1.046875 -1.015625 -2.9375l0 -0.59375q0 -1.234375 0.46875 -2.125q0.484375 -0.890625 1.328125 -1.359375q0.84375 -0.484375 1.953125 -0.484375l0.171875 0q1.078125 0 1.84375 0.515625q0.765625 0.5 1.125 1.328125l-1.03125 0.484375q-0.265625 -0.5625 -0.75 -0.890625q-0.484375 -0.328125 -1.1875 -0.328125l-0.15625 0q-1.09375 0 -1.796875 0.71875q-0.6875 0.71875 -0.6875 2.140625l0 0.59375q0 1.4375 0.671875 2.15625q0.6875 0.71875 1.8125 0.71875l0.15625 0q0.734375 0 1.21875 -0.3125q0.5 -0.3125 0.75 -0.84375l1.03125 0.5q-0.359375 0.78125 -1.140625 1.265625q-0.765625 0.484375 -1.859375 0.484375l-0.171875 0zm5.167145 -0.1875l0 -11.6875l1.28125 0l0 4.8125q0.34375 -0.65625 1.0 -1.0625q0.671875 -0.40625 1.625 -0.40625l0.140625 0q1.390625 0 2.234375 0.859375q0.84375 0.84375 0.84375 2.46875l0 5.015625l-1.28125 0l0 -4.796875q0 -1.203125 -0.53125 -1.8125q-0.53125 -0.625 -1.515625 -0.625l-0.125 0q-0.640625 0 -1.1875 0.3125q-0.53125 0.3125 -0.875 0.9375q-0.328125 0.609375 -0.328125 1.53125l0 4.453125l-1.28125 0zm16.99292 0.1875q-1.71875 0 -2.734375 -1.03125q-1.015625 -1.046875 -1.015625 -2.9375l0 -0.59375q0 -1.234375 0.46875 -2.125q0.484375 -0.890625 1.328125 -1.359375q0.84375 -0.484375 1.953125 -0.484375l0.171875 0q1.078125 0 1.84375 0.515625q0.765625 0.5 1.125 1.328125l-1.03125 0.484375q-0.265625 -0.5625 -0.75 -0.890625q-0.484375 -0.328125 -1.1875 -0.328125l-0.15625 0q-1.09375 0 -1.796875 0.71875q-0.6875 0.71875 -0.6875 2.140625l0 0.59375q0 1.4375 0.671875 2.15625q0.6875 0.71875 1.8125 0.71875l0.15625 0q0.734375 0 1.21875 -0.3125q0.5 -0.3125 0.75 -0.84375l1.03125 0.5q-0.359375 0.78125 -1.140625 1.265625q-0.765625 0.484375 -1.859375 0.484375l-0.171875 0zm5.167145 -0.1875l0 -11.6875l1.28125 0l0 11.6875l-1.28125 0zm3.8399963 0l0 -8.140625l1.28125 0l0 8.140625l-1.28125 0zm-0.03125 -9.859375l0 -1.453125l1.34375 0l0 1.453125l-1.34375 0zm7.058777 10.046875q-1.6875 0 -2.671875 -1.03125q-0.96875 -1.046875 -0.96875 -2.9375l0 -0.59375q0 -1.21875 0.453125 -2.109375q0.453125 -0.890625 1.265625 -1.375q0.828125 -0.484375 1.921875 -0.484375l0.125 0q1.0625 0 1.84375 0.453125q0.78125 0.453125 1.203125 1.28125q0.4375 0.8125 0.4375 1.921875l0 0.96875l-5.984375 0q0.015625 1.4375 0.640625 2.140625q0.640625 0.703125 1.734375 0.703125l0.234375 0q0.796875 0 1.296875 -0.28125q0.515625 -0.296875 0.8125 -0.84375l0.984375 0.59375q-0.421875 0.734375 -1.21875 1.171875q-0.78125 0.421875 -1.875 0.421875l-0.234375 0zm-2.359375 -4.875l4.703125 0l0 -0.171875q0 -1.1875 -0.609375 -1.796875q-0.59375 -0.609375 -1.609375 -0.609375l-0.125 0q-1.0 0 -1.65625 0.65625q-0.640625 0.65625 -0.703125 1.921875zm8.003876 4.6875l0 -8.140625l1.171875 0l0 1.453125q0.328125 -0.734375 1.015625 -1.1875q0.6875 -0.46875 1.71875 -0.46875l0.140625 0q1.390625 0 2.234375 0.859375q0.84375 0.84375 0.84375 2.46875l0 5.015625l-1.28125 0l0 -4.796875q0 -1.203125 -0.53125 -1.8125q-0.53125 -0.625 -1.515625 -0.625l-0.125 0q-0.640625 0 -1.1875 0.3125q-0.53125 0.3125 -0.875 0.9375q-0.328125 0.609375 -0.328125 1.53125l0 4.453125l-1.28125 0zm12.703033 0.0625q-1.40625 0 -2.0 -0.65625q-0.59375 -0.65625 -0.59375 -1.796875l0 -4.703125l-1.75 0l0 -1.046875l1.75 0l0 -2.46875l1.28125 0l0 2.46875l2.8125 0l-0.171875 1.046875l-2.640625 0l0 4.625q0 0.765625 0.34375 1.109375q0.359375 0.34375 1.09375 0.34375l1.375 0l0 1.078125l-1.5 0zm2.585022 2.015625q0.609375 -0.84375 1.0625 -1.984375q0.453125 -1.140625 0.6875 -2.40625q0.25 -1.265625 0.25 -2.484375l0 -0.65625q0 -1.234375 -0.25 -2.484375q-0.234375 -1.265625 -0.6875 -2.390625q-0.453125 -1.140625 -1.0625 -1.984375l1.203125 0q0.671875 0.875 1.15625 2.0q0.484375 1.125 0.734375 2.375q0.25 1.234375 0.25 2.484375l0 0.65625q0 1.25 -0.25 2.484375q-0.25 1.234375 -0.734375 2.359375q-0.484375 1.140625 -1.15625 2.03125l-1.203125 0z" fill-rule="nonzero"/><path fill="#000000" fill-opacity="0.0" d="m0 207.71979l183.84021 0l0 48.46878l-183.84021 0z" fill-rule="evenodd"/><path fill="#000000" d="m19.360283 227.26729q-3.25 0 -4.265625 -2.40625l1.140625 -0.59375q0.375 0.921875 1.140625 1.390625q0.765625 0.46875 1.96875 0.46875l0.1875 0q1.328125 0 2.03125 -0.5q0.71875 -0.515625 0.71875 -1.421875l0 -0.1875q0 -0.78125 -0.453125 -1.25q-0.4375 -0.484375 -1.453125 -0.65625l-2.046875 -0.34375q-2.890625 -0.484375 -2.890625 -2.90625l0 -0.21875q0 -0.875 0.484375 -1.546875q0.484375 -0.671875 1.34375 -1.046875q0.875 -0.375 2.0 -0.375l0.234375 0q1.4375 0 2.453125 0.59375q1.015625 0.59375 1.46875 1.6875l-1.171875 0.5q-0.609375 -1.609375 -2.765625 -1.609375l-0.203125 0q-1.171875 0 -1.859375 0.484375q-0.671875 0.484375 -0.671875 1.3125l0 0.203125q0 0.734375 0.4375 1.140625q0.453125 0.40625 1.421875 0.578125l2.046875 0.34375q1.484375 0.234375 2.21875 1.03125q0.734375 0.78125 0.734375 2.0625l0 0.203125q0 1.421875 -1.078125 2.25q-1.078125 0.8125 -2.953125 0.8125l-0.21875 0zm6.2489014 -0.1875l0 -11.6875l1.28125 0l0 4.8125q0.34375 -0.65625 1.0 -1.0625q0.671875 -0.40625 1.625 -0.40625l0.140625 0q1.390625 0 2.234375 0.859375q0.84375 0.84375 0.84375 2.46875l0 5.015625l-1.28125 0l0 -4.796875q0 -1.203125 -0.53125 -1.8125q-0.53125 -0.625 -1.515625 -0.625l-0.125 0q-0.640625 0 -1.1875 0.3125q-0.53125 0.3125 -0.875 0.9375q-0.328125 0.609375 -0.328125 1.53125l0 4.453125l-1.28125 0zm11.677399 0.1875q-1.3125 0 -2.015625 -0.625q-0.703125 -0.625 -0.703125 -1.78125q0 -0.96875 0.59375 -1.578125q0.609375 -0.625 1.78125 -0.78125l3.1875 -0.4375l0 -0.0625q0 -2.1875 -1.953125 -2.1875l-0.171875 0q-1.53125 0 -2.09375 1.1875l-1.03125 -0.5q0.375 -0.828125 1.171875 -1.296875q0.8125 -0.46875 1.953125 -0.46875l0.25 0q1.546875 0 2.34375 0.828125q0.8125 0.8125 0.8125 2.359375l0 5.15625l-1.15625 0l0 -1.453125q-0.375 0.765625 -1.125 1.203125q-0.75 0.4375 -1.703125 0.4375l-0.140625 0zm2.84375 -4.21875l-2.65625 0.390625q-0.921875 0.125 -1.296875 0.4375q-0.359375 0.296875 -0.359375 0.921875q0 0.6875 0.4375 1.0625q0.4375 0.359375 1.265625 0.359375l0.171875 0q1.09375 0 1.765625 -0.703125q0.671875 -0.703125 0.671875 -1.875l0 -0.59375zm3.7348938 4.03125l0 -8.140625l1.171875 0l0 1.703125q0.28125 -0.796875 0.859375 -1.28125q0.59375 -0.484375 1.71875 -0.484375l0.75 0l0 1.15625l-0.828125 0q-1.03125 0 -1.71875 0.71875q-0.671875 0.71875 -0.671875 2.1875l0 4.140625l-1.28125 0zm9.091522 0.1875q-1.6875 0 -2.671875 -1.03125q-0.96875 -1.046875 -0.96875 -2.9375l0 -0.59375q0 -1.21875 0.453125 -2.109375q0.453125 -0.890625 1.265625 -1.375q0.828125 -0.484375 1.921875 -0.484375l0.125 0q1.0625 0 1.84375 0.453125q0.78125 0.453125 1.203125 1.28125q0.4375 0.8125 0.4375 1.921875l0 0.96875l-5.984375 0q0.015625 1.4375 0.640625 2.140625q0.640625 0.703125 1.734375 0.703125l0.234375 0q0.796875 0 1.296875 -0.28125q0.515625 -0.296875 0.8125 -0.84375l0.984375 0.59375q-0.421875 0.734375 -1.21875 1.171875q-0.78125 0.421875 -1.875 0.421875l-0.234375 0zm-2.359375 -4.875l4.703125 0l0 -0.171875q0 -1.1875 -0.609375 -1.796875q-0.59375 -0.609375 -1.609375 -0.609375l-0.125 0q-1.0 0 -1.65625 0.65625q-0.640625 0.65625 -0.703125 1.921875zm11.066391 4.875q-1.015625 0 -1.8125 -0.453125q-0.78125 -0.453125 -1.25 -1.34375q-0.453125 -0.90625 -0.453125 -2.1875l0 -0.578125q0 -1.265625 0.453125 -2.15625q0.46875 -0.890625 1.25 -1.34375q0.796875 -0.46875 1.8125 -0.46875l0.09375 0q0.921875 0 1.59375 0.40625q0.671875 0.390625 1.0625 1.046875l0 -4.796875l1.28125 0l0 11.6875l-1.171875 0l0 -1.40625q-0.375 0.71875 -1.078125 1.15625q-0.6875 0.4375 -1.6875 0.4375l-0.09375 0zm0.203125 -1.09375l0.140625 0q0.671875 0 1.21875 -0.296875q0.546875 -0.3125 0.859375 -0.953125q0.328125 -0.640625 0.328125 -1.671875l0 -0.484375q0 -1.03125 -0.328125 -1.671875q-0.328125 -0.640625 -0.875 -0.9375q-0.546875 -0.3125 -1.203125 -0.3125l-0.140625 0q-1.046875 0 -1.75 0.703125q-0.6875 0.6875 -0.6875 2.15625l0 0.578125q0 1.484375 0.6875 2.1875q0.703125 0.703125 1.75 0.703125zm13.8854065 0.96875q-1.40625 0 -2.0 -0.65625q-0.59375 -0.65625 -0.59375 -1.796875l0 -4.703125l-1.75 0l0 -1.046875l1.75 0l0 -2.46875l1.28125 0l0 2.46875l2.8125 0l-0.171875 1.046875l-2.640625 0l0 4.625q0 0.765625 0.34375 1.109375q0.359375 0.34375 1.09375 0.34375l1.375 0l0 1.078125l-1.5 0zm3.4730225 -0.0625l0 -8.140625l1.171875 0l0 1.703125q0.28125 -0.796875 0.859375 -1.28125q0.59375 -0.484375 1.71875 -0.484375l0.75 0l0 1.15625l-0.828125 0q-1.03125 0 -1.71875 0.71875q-0.671875 0.71875 -0.671875 2.1875l0 4.140625l-1.28125 0zm9.211395 0.1875q-1.34375 0 -2.15625 -0.84375q-0.8125 -0.84375 -0.8125 -2.484375l0 -5.0l1.28125 0l0 4.8125q0 1.1875 0.5 1.8125q0.5 0.609375 1.453125 0.609375l0.125 0q0.625 0 1.140625 -0.3125q0.515625 -0.3125 0.828125 -0.921875q0.3125 -0.625 0.3125 -1.5625l0 -4.4375l1.28125 0l0 8.140625l-1.171875 0l0 -1.4375q-0.328125 0.734375 -0.984375 1.1875q-0.65625 0.4375 -1.65625 0.4375l-0.140625 0zm6.5166473 -0.1875l0 -8.140625l1.171875 0l0 1.453125q0.328125 -0.734375 1.015625 -1.1875q0.6875 -0.46875 1.71875 -0.46875l0.140625 0q1.390625 0 2.234375 0.859375q0.84375 0.84375 0.84375 2.46875l0 5.015625l-1.28125 0l0 -4.796875q0 -1.203125 -0.53125 -1.8125q-0.53125 -0.625 -1.515625 -0.625l-0.125 0q-0.640625 0 -1.1875 0.3125q-0.53125 0.3125 -0.875 0.9375q-0.328125 0.609375 -0.328125 1.53125l0 4.453125l-1.28125 0zm9.568024 0l0 -11.6875l1.28125 0l0 7.21875l4.03125 -3.671875l1.671875 0l-3.40625 3.078125l3.671875 5.0625l-1.5625 0l-3.046875 -4.265625l-1.359375 1.21875l0 3.046875l-1.28125 0zm16.271027 0.0625q-1.40625 0 -2.0 -0.65625q-0.59375 -0.65625 -0.59375 -1.796875l0 -4.703125l-1.75 0l0 -1.046875l1.75 0l0 -2.46875l1.28125 0l0 2.46875l2.8125 0l-0.171875 1.046875l-2.640625 0l0 4.625q0 0.765625 0.34375 1.109375q0.359375 0.34375 1.09375 0.34375l1.375 0l0 1.078125l-1.5 0zm3.4730225 -0.0625l0 -8.140625l1.171875 0l0 1.703125q0.28125 -0.796875 0.859375 -1.28125q0.59375 -0.484375 1.7187576 -0.484375l0.75 0l0 1.15625l-0.8281326 0q-1.03125 0 -1.71875 0.71875q-0.671875 0.71875 -0.671875 2.1875l0 4.140625l-1.28125 0zm8.013405 0.1875q-1.3125 0 -2.015625 -0.625q-0.703125 -0.625 -0.703125 -1.78125q0 -0.96875 0.59375 -1.578125q0.609375 -0.625 1.78125 -0.78125l3.1875 -0.4375l0 -0.0625q0 -2.1875 -1.953125 -2.1875l-0.171875 0q-1.53125 0 -2.09375 1.1875l-1.03125 -0.5q0.375 -0.828125 1.171875 -1.296875q0.8125 -0.46875 1.953125 -0.46875l0.25 0q1.546875 0 2.34375 0.828125q0.8125 0.8125 0.8125 2.359375l0 5.15625l-1.15625 0l0 -1.453125q-0.375 0.765625 -1.125 1.203125q-0.75 0.4375 -1.703125 0.4375l-0.140625 0zm2.84375 -4.21875l-2.65625 0.390625q-0.921875 0.125 -1.296875 0.4375q-0.359375 0.296875 -0.359375 0.921875q0 0.6875 0.4375 1.0625q0.4375 0.359375 1.265625 0.359375l0.171875 0q1.09375 0 1.765625 -0.703125q0.671875 -0.703125 0.671875 -1.875l0 -0.59375zm3.7348938 4.03125l0 -8.140625l1.28125 0l0 8.140625l-1.28125 0zm-0.03125 -9.859375l0 -1.453125l1.34375 0l0 1.453125l-1.34375 0zm3.8712463 9.859375l0 -8.140625l1.171875 0l0 1.453125q0.328125 -0.734375 1.015625 -1.1875q0.6875 -0.46875 1.71875 -0.46875l0.140625 0q1.390625 0 2.234375 0.859375q0.84375 0.84375 0.84375 2.46875l0 5.015625l-1.28125 0l0 -4.796875q0 -1.203125 -0.53125 -1.8125q-0.53125 -0.625 -1.515625 -0.625l-0.125 0q-0.640625 0 -1.1875 0.3125q-0.53125 0.3125 -0.875 0.9375q-0.328125 0.609375 -0.328125 1.53125l0 4.453125l-1.28125 0zm12.755524 0.1875q-1.6875 0 -2.671875 -1.03125q-0.96875 -1.046875 -0.96875 -2.9375l0 -0.59375q0 -1.21875 0.453125 -2.109375q0.453125 -0.890625 1.265625 -1.375q0.828125 -0.484375 1.921875 -0.484375l0.125 0q1.0625 0 1.84375 0.453125q0.78125 0.453125 1.203125 1.28125q0.4375 0.8125 0.4375 1.921875l0 0.96875l-5.984375 0q0.015625 1.4375 0.640625 2.140625q0.640625 0.703125 1.734375 0.703125l0.234375 0q0.796875 0 1.296875 -0.28125q0.515625 -0.296875 0.8125 -0.84375l0.984375 0.59375q-0.421875 0.734375 -1.21875 1.171875q-0.78125 0.421875 -1.875 0.421875l-0.234375 0zm-2.359375 -4.875l4.703125 0l0 -0.171875q0 -1.1875 -0.609375 -1.796875q-0.59375 -0.609375 -1.609375 -0.609375l-0.125 0q-1.0 0 -1.65625 0.65625q-0.640625 0.65625 -0.703125 1.921875zm11.066406 4.875q-1.015625 0 -1.8125 -0.453125q-0.78125 -0.453125 -1.25 -1.34375q-0.453125 -0.90625 -0.453125 -2.1875l0 -0.578125q0 -1.265625 0.453125 -2.15625q0.46875 -0.890625 1.25 -1.34375q0.796875 -0.46875 1.8125 -0.46875l0.09375 0q0.921875 0 1.59375 0.40625q0.671875 0.390625 1.0625 1.046875l0 -4.796875l1.28125 0l0 11.6875l-1.171875 0l0 -1.40625q-0.375 0.71875 -1.078125 1.15625q-0.6875 0.4375 -1.6875 0.4375l-0.09375 0zm0.203125 -1.09375l0.140625 0q0.671875 0 1.21875 -0.296875q0.546875 -0.3125 0.859375 -0.953125q0.328125 -0.640625 0.328125 -1.671875l0 -0.484375q0 -1.03125 -0.328125 -1.671875q-0.328125 -0.640625 -0.875 -0.9375q-0.546875 -0.3125 -1.203125 -0.3125l-0.140625 0q-1.046875 0 -1.75 0.703125q-0.6875 0.6875 -0.6875 2.15625l0 0.578125q0 1.484375 0.6875 2.1875q0.703125 0.703125 1.75 0.703125z" fill-rule="nonzero"/><path fill="#000000" d="m51.42713 246.46729q-1.0 0 -1.703125 -0.421875q-0.6875 -0.4375 -1.046875 -1.171875l0 1.40625l-1.171875 0l0 -11.6875l1.28125 0l0 4.796875q0.359375 -0.65625 1.03125 -1.046875q0.6875 -0.40625 1.609375 -0.40625l0.109375 0q1.03125 0 1.8125 0.46875q0.78125 0.453125 1.234375 1.34375q0.453125 0.890625 0.453125 2.15625l0 0.59375q0 1.28125 -0.453125 2.171875q-0.453125 0.890625 -1.234375 1.34375q-0.78125 0.453125 -1.8125 0.453125l-0.109375 0zm-0.25 -1.09375l0.15625 0q1.03125 0 1.71875 -0.703125q0.703125 -0.703125 0.703125 -2.1875l0 -0.578125q0 -1.46875 -0.703125 -2.15625q-0.6875 -0.703125 -1.71875 -0.703125l-0.15625 0q-0.65625 0 -1.203125 0.3125q-0.546875 0.296875 -0.875 0.9375q-0.3125 0.640625 -0.3125 1.671875l0 0.484375q0 1.53125 0.703125 2.234375q0.703125 0.6875 1.6875 0.6875zm5.3752747 4.109375l0 -1.078125l0.453125 0q0.75 0 1.140625 -0.34375q0.390625 -0.328125 0.75 -1.28125l0.171875 -0.484375l-3.21875 -8.15625l1.359375 0l2.53125 6.796875l2.421875 -6.796875l1.296875 0l-3.296875 8.6875q-0.390625 1.03125 -0.796875 1.609375q-0.390625 0.59375 -0.921875 0.8125q-0.515625 0.234375 -1.3125 0.234375l-0.578125 0zm14.710266 -3.015625q-1.3125 0 -2.015625 -0.625q-0.703125 -0.625 -0.703125 -1.78125q0 -0.96875 0.59375 -1.578125q0.609375 -0.625 1.78125 -0.78125l3.1875 -0.4375l0 -0.0625q0 -2.1875 -1.953125 -2.1875l-0.171875 0q-1.53125 0 -2.09375 1.1875l-1.03125 -0.5q0.375 -0.828125 1.171875 -1.296875q0.8125 -0.46875 1.953125 -0.46875l0.25 0q1.546875 0 2.34375 0.828125q0.8125 0.8125 0.8125 2.359375l0 5.15625l-1.15625 0l0 -1.453125q-0.375 0.765625 -1.125 1.203125q-0.75 0.4375 -1.703125 0.4375l-0.140625 0zm2.84375 -4.21875l-2.65625 0.390625q-0.921875 0.125 -1.296875 0.4375q-0.359375 0.296875 -0.359375 0.921875q0 0.6875 0.4375 1.0625q0.4375 0.359375 1.265625 0.359375l0.171875 0q1.09375 0 1.765625 -0.703125q0.671875 -0.703125 0.671875 -1.875l0 -0.59375zm3.7348938 4.03125l0 -11.6875l1.28125 0l0 11.6875l-1.28125 0zm3.8400116 0l0 -11.6875l1.28125 0l0 11.6875l-1.28125 0zm11.264893 0.1875q-1.71875 0 -2.734375 -1.03125q-1.015625 -1.046875 -1.015625 -2.9375l0 -0.59375q0 -1.234375 0.46875 -2.125q0.484375 -0.890625 1.328125 -1.359375q0.84375 -0.484375 1.953125 -0.484375l0.171875 0q1.078125 0 1.84375 0.515625q0.765625 0.5 1.125 1.328125l-1.03125 0.484375q-0.265625 -0.5625 -0.75 -0.890625q-0.484375 -0.328125 -1.1875 -0.328125l-0.15625 0q-1.09375 0 -1.796875 0.71875q-0.6875 0.71875 -0.6875 2.140625l0 0.59375q0 1.4375 0.671875 2.15625q0.6875 0.71875 1.8125 0.71875l0.15625 0q0.734375 0 1.21875 -0.3125q0.5 -0.3125 0.75 -0.84375l1.03125 0.5q-0.359375 0.78125 -1.140625 1.265625q-0.765625 0.484375 -1.859375 0.484375l-0.171875 0zm5.167145 -0.1875l0 -11.6875l1.28125 0l0 11.6875l-1.28125 0zm3.8400116 0l0 -8.140625l1.28125 0l0 8.140625l-1.28125 0zm-0.03125 -9.859375l0 -1.453125l1.34375 0l0 1.453125l-1.34375 0zm7.0587616 10.046875q-1.6875 0 -2.671875 -1.03125q-0.96875 -1.046875 -0.96875 -2.9375l0 -0.59375q0 -1.21875 0.453125 -2.109375q0.453125 -0.890625 1.265625 -1.375q0.828125 -0.484375 1.921875 -0.484375l0.125 0q1.0625 0 1.84375 0.453125q0.78125 0.453125 1.203125 1.28125q0.4375 0.8125 0.4375 1.921875l0 0.96875l-5.984375 0q0.015625 1.4375 0.640625 2.140625q0.640625 0.703125 1.734375 0.703125l0.234375 0q0.796875 0 1.296875 -0.28125q0.515625 -0.296875 0.8125 -0.84375l0.984375 0.59375q-0.421875 0.734375 -1.21875 1.171875q-0.78125 0.421875 -1.875 0.421875l-0.234375 0zm-2.359375 -4.875l4.703125 0l0 -0.171875q0 -1.1875 -0.609375 -1.796875q-0.59375 -0.609375 -1.609375 -0.609375l-0.125 0q-1.0 0 -1.65625 0.65625q-0.640625 0.65625 -0.703125 1.921875zm8.003891 4.6875l0 -8.140625l1.171875 0l0 1.453125q0.328125 -0.734375 1.015625 -1.1875q0.6875 -0.46875 1.71875 -0.46875l0.140625 0q1.390625 0 2.234375 0.859375q0.84375 0.84375 0.84375 2.46875l0 5.015625l-1.28125 0l0 -4.796875q0 -1.203125 -0.53125 -1.8125q-0.53125 -0.625 -1.515625 -0.625l-0.125 0q-0.640625 0 -1.1875 0.3125q-0.53125 0.3125 -0.875 0.9375q-0.328125 0.609375 -0.328125 1.53125l0 4.453125l-1.28125 0zm12.703018 0.0625q-1.40625 0 -2.0 -0.65625q-0.59375 -0.65625 -0.59375 -1.796875l0 -4.703125l-1.75 0l0 -1.046875l1.75 0l0 -2.46875l1.28125 0l0 2.46875l2.8125076 0l-0.171875 1.046875l-2.6406326 0l0 4.625q0 0.765625 0.34375 1.109375q0.359375 0.34375 1.09375 0.34375l1.3750076 0l0 1.078125l-1.5000076 0zm6.284401 0.125q-2.671875 0 -3.484375 -1.875l1.03125 -0.5q0.3125 0.671875 0.90625 1.0q0.609375 0.3125 1.5625 0.3125l0.1875 0q1.90625 0 1.90625 -1.234375l0 -0.078125q0 -1.078125 -1.265625 -1.234375l-1.8125 -0.265625q-1.078125 -0.140625 -1.671875 -0.671875q-0.578125 -0.546875 -0.578125 -1.484375l0 -0.171875q0 -1.046875 0.828125 -1.6875q0.84375 -0.640625 2.203125 -0.640625l0.203125 0q1.125 0 1.953125 0.46875q0.828125 0.453125 1.15625 1.265625l-1.03125 0.46875q-0.5 -1.125 -2.078125 -1.125l-0.1875 0q-0.828125 0 -1.328125 0.34375q-0.484375 0.328125 -0.484375 0.890625l0 0.09375q0 0.5 0.296875 0.765625q0.296875 0.265625 0.96875 0.359375l1.84375 0.25q1.046875 0.140625 1.625 0.734375q0.59375 0.59375 0.59375 1.546875l0 0.171875q0 1.140625 -0.796875 1.71875q-0.796875 0.578125 -2.328125 0.578125l-0.21875 0z" fill-rule="nonzero"/><path fill="#b1cdfb" d="m258.20526 100.109924l73.4465 0l0 23.249344l-73.4465 0z" fill-rule="evenodd"/><path fill="#000000" d="m285.1477 114.054436l-1.453125 0l0 -5.125q0.921875 -0.046875 1.34375 -0.046875q0.75 0 1.15625 0.328125q0.421875 0.328125 0.421875 0.9375q0 0.359375 -0.265625 0.65625q-0.265625 0.296875 -0.578125 0.359375q0.609375 0.15625 0.875 0.5q0.28125 0.328125 0.28125 0.90625q0 0.6875 -0.5 1.09375q-0.484375 0.390625 -1.28125 0.390625zm-0.765625 -4.5625l0 1.46875q0.21875 0.03125 0.546875 0.03125q1.0 0 1.0 -0.8125q0 -0.703125 -0.921875 -0.703125q-0.34375 0 -0.625 0.015625zm0 2.015625l0 1.953125q0.359375 0.03125 0.5625 0.03125q0.65625 0 0.953125 -0.234375q0.296875 -0.25 0.296875 -0.796875q0 -0.5 -0.296875 -0.734375q-0.28125 -0.234375 -0.953125 -0.234375l-0.5625 0.015625zm3.9873352 -2.609375q0.171875 0 0.28125 0.125q0.125 0.109375 0.125 0.28125q0 0.171875 -0.125 0.296875q-0.109375 0.109375 -0.28125 0.109375q-0.171875 0 -0.296875 -0.109375q-0.109375 -0.125 -0.109375 -0.296875q0 -0.171875 0.109375 -0.28125q0.125 -0.125 0.296875 -0.125zm-0.359375 5.15625l0 -3.1875l-0.515625 0l0 -0.5625l1.171875 0l0 3.75l-0.65625 0zm4.0250244 0l0 -2.171875q0 -0.609375 -0.1875 -0.84375q-0.171875 -0.234375 -0.609375 -0.234375q-0.21875 0 -0.46875 0.140625q-0.25 0.125 -0.375 0.328125l0 2.78125l-0.671875 0l0 -3.75l0.453125 0l0.21875 0.484375q0.328125 -0.546875 1.0625 -0.546875q1.234375 0 1.234375 1.5l0 2.3125l-0.65625 0zm3.9725952 0l0 -0.28125q-0.34375 0.34375 -1.0 0.34375q-0.703125 0 -1.140625 -0.5q-0.4375 -0.5 -0.4375 -1.34375q0 -0.84375 0.5 -1.4375q0.5 -0.59375 1.203125 -0.59375q0.578125 0 0.875 0.265625l0 -1.734375l0.671875 0l0 5.28125l-0.671875 0zm0 -2.875q-0.25 -0.375 -0.6875 -0.375q-0.53125 0 -0.875 0.40625q-0.328125 0.390625 -0.328125 1.0q0 1.359375 1.234375 1.359375q0.15625 0 0.375 -0.09375q0.21875 -0.109375 0.28125 -0.21875l0 -2.078125zm2.2994385 -2.28125q0.171875 0 0.28125 0.125q0.125 0.109375 0.125 0.28125q0 0.171875 -0.125 0.296875q-0.109375 0.109375 -0.28125 0.109375q-0.171875 0 -0.296875 -0.109375q-0.109375 -0.125 -0.109375 -0.296875q0 -0.171875 0.109375 -0.28125q0.125 -0.125 0.296875 -0.125zm-0.359375 5.15625l0 -3.1875l-0.515625 0l0 -0.5625l1.171875 0l0 3.75l-0.65625 0zm4.0250244 0l0 -2.171875q0 -0.609375 -0.1875 -0.84375q-0.171875 -0.234375 -0.609375 -0.234375q-0.21875 0 -0.46875 0.140625q-0.25 0.125 -0.375 0.328125l0 2.78125l-0.671875 0l0 -3.75l0.453125 0l0.21875 0.484375q0.328125 -0.546875 1.0625 -0.546875q1.234375 0 1.234375 1.5l0 2.3125l-0.65625 0zm1.4569702 1.03125l0.375 -0.53125q0.578125 0.375 1.0625 0.375q0.453125 0 0.703125 -0.15625q0.265625 -0.15625 0.265625 -0.375q0 -0.453125 -0.65625 -0.453125q-0.109375 0 -0.40625 0.0625q-0.296875 0.046875 -0.453125 0.046875q-0.796875 0 -0.796875 -0.609375q0 -0.1875 0.1875 -0.328125q0.1875 -0.15625 0.453125 -0.21875q-0.78125 -0.375 -0.78125 -1.28125q0 -0.59375 0.40625 -0.984375q0.40625 -0.390625 1.015625 -0.390625q0.546875 0 0.859375 0.234375l0.328125 -0.40625l0.4375 0.40625l-0.40625 0.296875q0.265625 0.34375 0.265625 0.875q0 0.5625 -0.359375 0.953125q-0.34375 0.375 -0.921875 0.4375l-0.546875 0.0625q-0.09375 0 -0.265625 0.0625q-0.171875 0.0625 -0.171875 0.171875q0 0.140625 0.34375 0.140625q0.15625 0 0.46875 -0.046875q0.328125 -0.0625 0.484375 -0.0625q0.546875 0 0.84375 0.265625q0.3125 0.265625 0.3125 0.734375q0 0.515625 -0.46875 0.828125q-0.453125 0.328125 -1.15625 0.328125q-0.359375 0 -0.765625 -0.140625q-0.40625 -0.125 -0.65625 -0.296875zm1.421875 -4.3125q-0.359375 0 -0.578125 0.25q-0.21875 0.25 -0.21875 0.59375q0 0.390625 0.21875 0.65625q0.21875 0.25 0.578125 0.25q0.34375 0 0.546875 -0.25q0.203125 -0.25 0.203125 -0.65625q0 -0.34375 -0.21875 -0.59375q-0.21875 -0.25 -0.53125 -0.25z" fill-rule="nonzero"/><path fill="#000000" fill-opacity="0.0" d="m246.70184 96.194855l96.45364 0l0 32.01207l-96.45364 0z" fill-rule="evenodd"/><path stroke="#000000" stroke-width="2.6666666666666665" stroke-linejoin="round" stroke-linecap="butt" d="m246.70184 96.194855l96.45364 0l0 32.01207l-96.45364 0z" fill-rule="evenodd"/><path fill="#000000" fill-opacity="0.0" d="m322.59088 100.1084l96.66141 0l0 22.614174l-96.66141 0z" fill-rule="evenodd"/><path fill="#000000" d="m355.75375 114.4734q-1.546875 0 -2.375 -0.953125q-0.828125 -0.953125 -0.828125 -2.671875l0 -0.46875q0 -1.109375 0.375 -1.921875q0.390625 -0.828125 1.109375 -1.265625q0.71875 -0.4375 1.71875 -0.4375l0.125 0q1.015625 0 1.703125 0.46875q0.703125 0.46875 0.984375 1.328125l-0.8125 0.28125q-0.1875 -0.640625 -0.6875 -0.96875q-0.484375 -0.328125 -1.1875 -0.328125l-0.125 0q-1.09375 0 -1.703125 0.734375q-0.609375 0.734375 -0.609375 2.078125l0 0.53125q0 1.375 0.59375 2.09375q0.59375 0.71875 1.71875 0.71875l0.125 0q0.71875 0 1.21875 -0.3125q0.515625 -0.3125 0.71875 -0.921875l0.78125 0.3125q-0.296875 0.8125 -1.0 1.265625q-0.703125 0.4375 -1.71875 0.4375l-0.125 0zm4.18808 -0.125l0 -7.78125l0.84375 0l0 7.78125l-0.84375 0zm2.5575256 0l0 -5.421875l0.84375 0l0 5.421875l-0.84375 0zm-0.03125 -6.5625l0 -0.96875l0.890625 0l0 0.96875l-0.890625 0zm4.6981506 6.6875q-1.109375 0 -1.765625 -0.6875q-0.65625 -0.6875 -0.65625 -1.953125l0 -0.390625q0 -0.828125 0.296875 -1.40625q0.3125 -0.59375 0.859375 -0.90625q0.546875 -0.328125 1.265625 -0.328125l0.09375 0q0.703125 0 1.21875 0.296875q0.53125 0.296875 0.8125 0.84375q0.28125 0.546875 0.28125 1.28125l0 0.65625l-3.984375 0q0.015625 0.9375 0.4375 1.40625q0.421875 0.46875 1.140625 0.46875l0.171875 0q0.53125 0 0.859375 -0.1875q0.34375 -0.1875 0.546875 -0.546875l0.640625 0.390625q-0.28125 0.484375 -0.8125 0.78125q-0.515625 0.28125 -1.234375 0.28125l-0.171875 0zm-1.5625 -3.25l3.140625 0l0 -0.109375q0 -0.796875 -0.40625 -1.203125q-0.40625 -0.40625 -1.078125 -0.40625l-0.09375 0q-0.65625 0 -1.09375 0.4375q-0.421875 0.4375 -0.46875 1.28125zm5.3354187 3.125l0 -5.421875l0.765625 0l0 0.96875q0.234375 -0.484375 0.6875 -0.78125q0.453125 -0.3125 1.140625 -0.3125l0.09375 0q0.921875 0 1.484375 0.5625q0.5625 0.5625 0.5625 1.65625l0 3.328125l-0.859375 0l0 -3.203125q0 -0.796875 -0.359375 -1.203125q-0.34375 -0.40625 -1.0 -0.40625l-0.078125 0q-0.421875 0 -0.78125 0.203125q-0.359375 0.203125 -0.59375 0.625q-0.21875 0.40625 -0.21875 1.015625l0 2.96875l-0.84375 0zm8.446869 0.046875q-0.9375 0 -1.328125 -0.4375q-0.390625 -0.4375 -0.390625 -1.203125l0 -3.125l-1.15625 0l0 -0.703125l1.15625 0l0 -1.640625l0.859375 0l0 1.640625l1.875 0l-0.125 0.703125l-1.75 0l0 3.078125q0 0.515625 0.234375 0.75q0.234375 0.21875 0.71875 0.21875l0.921875 0l0 0.71875l-1.015625 0zm4.93454 -0.046875l0 -0.890625q0 -1.59375 1.421875 -2.328125l1.4375 -0.75q1.0625 -0.546875 1.0625 -1.4375l0 -0.140625q0 -0.53125 -0.390625 -0.84375q-0.390625 -0.328125 -1.03125 -0.328125l-0.078125 0q-0.65625 0 -1.0625 0.25q-0.390625 0.25 -0.59375 0.78125l-0.734375 -0.328125q0.546875 -1.4375 2.390625 -1.4375l0.109375 0q0.6875 0 1.1875 0.234375q0.5 0.234375 0.78125 0.65625q0.296875 0.40625 0.296875 0.984375l0 0.1875q0 0.703125 -0.359375 1.203125q-0.359375 0.484375 -1.21875 0.921875l-1.375 0.703125q-0.5 0.25 -0.71875 0.6875q-0.21875 0.421875 -0.21875 1.046875l0 0.0625l3.921875 0l0 0.765625l-4.828125 0z" fill-rule="nonzero"/><path fill="#b1cdfb" d="m258.82257 142.4358l73.4465 0l0 23.249344l-73.4465 0z" fill-rule="evenodd"/><path fill="#000000" d="m279.92746 151.89594l0 1.421875l1.703125 0l0 0.59375l-1.703125 0l0 1.84375l2.328125 0l0 0.625l-3.015625 0l0 -5.125l3.046875 0l0 0.640625l-2.359375 0zm5.3644714 4.484375l-1.015625 -1.359375l-0.921875 1.359375l-0.765625 0l1.359375 -1.921875l-1.25 -1.828125l0.75 0l0.828125 1.296875l0.953125 -1.296875l0.71875 0l-1.359375 1.828125l1.5 1.921875l-0.796875 0zm1.9757385 -0.203125l0 1.671875l-0.671875 0l0 -5.21875l0.671875 0l0 0.3125q0.375 -0.375 0.90625 -0.375q0.796875 0 1.234375 0.5q0.453125 0.5 0.453125 1.453125q0 0.84375 -0.453125 1.390625q-0.4375 0.53125 -1.296875 0.53125q-0.234375 0 -0.5 -0.078125q-0.265625 -0.078125 -0.34375 -0.1875zm0 -2.734375l0 2.1875q0.0625 0.09375 0.265625 0.1875q0.203125 0.078125 0.390625 0.078125q1.234375 0 1.234375 -1.40625q0 -0.703125 -0.296875 -1.03125q-0.28125 -0.328125 -0.9375 -0.328125q-0.140625 0 -0.34375 0.09375q-0.203125 0.09375 -0.3125 0.21875zm5.3463135 -0.171875q-0.21875 -0.140625 -0.4375 -0.140625q-0.34375 0 -0.609375 0.328125q-0.265625 0.3125 -0.265625 0.78125l0 2.140625l-0.65625 0l0 -3.75l0.65625 0l0 0.609375q0.359375 -0.671875 1.078125 -0.671875q0.1875 0 0.515625 0.0625l-0.28125 0.640625zm3.906433 1.296875l-2.703125 0q0 0.65625 0.359375 1.015625q0.328125 0.3125 0.828125 0.3125q0.5625 0 0.9375 -0.34375l0.28125 0.484375q-0.140625 0.15625 -0.46875 0.265625q-0.390625 0.140625 -0.890625 0.140625q-0.703125 0 -1.1875 -0.46875q-0.546875 -0.53125 -0.546875 -1.421875q0 -0.921875 0.5625 -1.484375q0.5 -0.5 1.1875 -0.5q0.796875 0 1.25 0.453125q0.4375 0.4375 0.4375 1.140625q0 0.234375 -0.046875 0.40625zm-1.609375 -1.4375q-0.453125 0 -0.75 0.28125q-0.28125 0.28125 -0.328125 0.6875l2.078125 0q0 -0.40625 -0.25 -0.671875q-0.28125 -0.296875 -0.75 -0.296875zm2.1218567 3.03125l0.234375 -0.640625q0.546875 0.375 0.890625 0.375q0.609375 0 0.609375 -0.515625q0 -0.375 -0.59375 -0.640625q-0.453125 -0.21875 -0.625 -0.3125q-0.15625 -0.109375 -0.28125 -0.25q-0.109375 -0.140625 -0.171875 -0.296875q-0.046875 -0.15625 -0.046875 -0.328125q0 -0.46875 0.328125 -0.71875q0.34375 -0.265625 0.890625 -0.265625q0.40625 0 1.03125 0.265625l-0.1875 0.609375q-0.40625 -0.3125 -0.796875 -0.3125q-0.234375 0 -0.40625 0.109375q-0.15625 0.109375 -0.15625 0.28125q0 0.359375 0.40625 0.546875l0.46875 0.21875q0.4375 0.203125 0.640625 0.453125q0.203125 0.25 0.203125 0.640625q0 0.5 -0.359375 0.78125q-0.34375 0.28125 -0.96875 0.28125q-0.59375 0 -1.109375 -0.28125zm2.8967285 0l0.234375 -0.640625q0.546875 0.375 0.890625 0.375q0.609375 0 0.609375 -0.515625q0 -0.375 -0.59375 -0.640625q-0.453125 -0.21875 -0.625 -0.3125q-0.15625 -0.109375 -0.28125 -0.25q-0.109375 -0.140625 -0.171875 -0.296875q-0.046875 -0.15625 -0.046875 -0.328125q0 -0.46875 0.328125 -0.71875q0.34375 -0.265625 0.890625 -0.265625q0.40625 0 1.03125 0.265625l-0.1875 0.609375q-0.40625 -0.3125 -0.796875 -0.3125q-0.234375 0 -0.40625 0.109375q-0.15625 0.109375 -0.15625 0.28125q0 0.359375 0.40625 0.546875l0.46875 0.21875q0.4375 0.203125 0.640625 0.453125q0.203125 0.25 0.203125 0.640625q0 0.5 -0.359375 0.78125q-0.34375 0.28125 -0.96875 0.28125q-0.59375 0 -1.109375 -0.28125zm3.818634 -4.9375q0.171875 0 0.28125 0.125q0.125 0.109375 0.125 0.28125q0 0.171875 -0.125 0.296875q-0.109375 0.109375 -0.28125 0.109375q-0.171875 0 -0.296875 -0.109375q-0.109375 -0.125 -0.109375 -0.296875q0 -0.171875 0.109375 -0.28125q0.125 -0.125 0.296875 -0.125zm-0.359375 5.15625l0 -3.1875l-0.515625 0l0 -0.5625l1.171875 0l0 3.75l-0.65625 0zm1.4781494 -1.875q0 -0.875 0.453125 -1.40625q0.46875 -0.53125 1.234375 -0.53125q0.796875 0 1.234375 0.515625q0.453125 0.515625 0.453125 1.421875q0 0.90625 -0.453125 1.421875q-0.453125 0.515625 -1.234375 0.515625q-0.796875 0 -1.25 -0.515625q-0.4375 -0.53125 -0.4375 -1.421875zm0.6875 0q0 1.40625 1.0 1.40625q0.46875 0 0.734375 -0.375q0.265625 -0.375 0.265625 -1.03125q0 -1.390625 -1.0 -1.390625q-0.453125 0 -0.734375 0.375q-0.265625 0.359375 -0.265625 1.015625zm5.6995544 1.875l0 -2.171875q0 -0.609375 -0.1875 -0.84375q-0.171875 -0.234375 -0.609375 -0.234375q-0.21875 0 -0.46875 0.140625q-0.25 0.125 -0.375 0.328125l0 2.78125l-0.671875 0l0 -3.75l0.453125 0l0.21875 0.484375q0.328125 -0.546875 1.0625 -0.546875q1.234375 0 1.234375 1.5l0 2.3125l-0.65625 0z" fill-rule="nonzero"/><path fill="#000000" fill-opacity="0.0" d="m247.31915 138.52074l96.45364 0l0 32.01207l-96.45364 0z" fill-rule="evenodd"/><path stroke="#000000" stroke-width="2.6666666666666665" stroke-linejoin="round" stroke-linecap="butt" d="m247.31915 138.52074l96.45364 0l0 32.01207l-96.45364 0z" fill-rule="evenodd"/><path fill="#000000" fill-opacity="0.0" d="m323.2082 142.43428l96.66141 0l0 22.614166l-96.66141 0z" fill-rule="evenodd"/><path fill="#000000" d="m356.37106 156.79927q-1.546875 0 -2.375 -0.953125q-0.828125 -0.953125 -0.828125 -2.671875l0 -0.46875q0 -1.109375 0.375 -1.921875q0.390625 -0.828125 1.109375 -1.265625q0.71875 -0.4375 1.71875 -0.4375l0.125 0q1.015625 0 1.703125 0.46875q0.703125 0.46875 0.984375 1.328125l-0.8125 0.28125q-0.1875 -0.640625 -0.6875 -0.96875q-0.484375 -0.328125 -1.1875 -0.328125l-0.125 0q-1.09375 0 -1.703125 0.734375q-0.609375 0.734375 -0.609375 2.078125l0 0.53125q0 1.375 0.59375 2.09375q0.59375 0.71875 1.71875 0.71875l0.125 0q0.71875 0 1.21875 -0.3125q0.515625 -0.3125 0.71875 -0.921875l0.78125 0.3125q-0.296875 0.8125 -1.0 1.265625q-0.703125 0.4375 -1.71875 0.4375l-0.125 0zm4.18808 -0.125l0 -7.78125l0.84375 0l0 7.78125l-0.84375 0zm2.5575256 0l0 -5.421875l0.84375 0l0 5.421875l-0.84375 0zm-0.03125 -6.5625l0 -0.96875l0.890625 0l0 0.96875l-0.890625 0zm4.6981506 6.6875q-1.109375 0 -1.765625 -0.6875q-0.65625 -0.6875 -0.65625 -1.953125l0 -0.390625q0 -0.828125 0.296875 -1.40625q0.3125 -0.59375 0.859375 -0.90625q0.546875 -0.328125 1.265625 -0.328125l0.09375 0q0.703125 0 1.21875 0.296875q0.53125 0.296875 0.8125 0.84375q0.28125 0.546875 0.28125 1.28125l0 0.65625l-3.984375 0q0.015625 0.9375 0.4375 1.40625q0.421875 0.46875 1.140625 0.46875l0.171875 0q0.53125 0 0.859375 -0.1875q0.34375 -0.1875 0.546875 -0.546875l0.640625 0.390625q-0.28125 0.484375 -0.8125 0.78125q-0.515625 0.28125 -1.234375 0.28125l-0.171875 0zm-1.5625 -3.25l3.140625 0l0 -0.109375q0 -0.796875 -0.40625 -1.203125q-0.40625 -0.40625 -1.078125 -0.40625l-0.09375 0q-0.65625 0 -1.09375 0.4375q-0.421875 0.4375 -0.46875 1.28125zm5.335449 3.125l0 -5.421875l0.765625 0l0 0.96875q0.234375 -0.484375 0.6875 -0.78125q0.453125 -0.3125 1.140625 -0.3125l0.09375 0q0.921875 0 1.484375 0.5625q0.5625 0.5625 0.5625 1.65625l0 3.328125l-0.859375 0l0 -3.203125q0 -0.796875 -0.359375 -1.203125q-0.34375 -0.40625 -1.0 -0.40625l-0.078125 0q-0.421875 0 -0.78125 0.203125q-0.359375 0.203125 -0.59375 0.625q-0.21875 0.40625 -0.21875 1.015625l0 2.96875l-0.84375 0zm8.446869 0.046875q-0.9375 0 -1.328125 -0.4375q-0.390625 -0.4375 -0.390625 -1.203125l0 -3.125l-1.15625 0l0 -0.703125l1.15625 0l0 -1.640625l0.859375 0l0 1.640625l1.875 0l-0.125 0.703125l-1.75 0l0 3.078125q0 0.515625 0.234375 0.75q0.234375 0.21875 0.71875 0.21875l0.921875 0l0 0.71875l-1.015625 0zm7.18454 0.078125q-1.953125 0 -2.46875 -1.203125l0.71875 -0.34375q0.1875 0.40625 0.59375 0.609375q0.421875 0.1875 1.140625 0.1875l0.09371948 0q0.78125 0 1.234375 -0.359375q0.46875 -0.359375 0.46875 -0.96875l0 -0.171875q0 -0.609375 -0.4375 -0.96875q-0.421875 -0.375 -1.140625 -0.375l-1.1405945 0l0 -0.734375l1.1249695 0q0.65625 0 1.03125 -0.3125q0.375 -0.3125 0.375 -0.859375l0 -0.140625q0 -0.5625 -0.421875 -0.875q-0.40625 -0.328125 -1.109375 -0.328125l-0.09371948 0q-1.296875 0 -1.640625 0.875l-0.703125 -0.34375q0.25 -0.609375 0.859375 -0.9375q0.625 -0.328125 1.515625 -0.328125l0.12496948 0q0.703125 0 1.21875 0.234375q0.53125 0.234375 0.8125 0.671875q0.296875 0.4375 0.296875 1.015625l0 0.171875q0 0.484375 -0.265625 0.890625q-0.25 0.390625 -0.703125 0.59375q0.53125 0.234375 0.84375 0.6875q0.3125 0.453125 0.3125 1.03125l0 0.203125q0 0.96875 -0.6875 1.53125q-0.671875 0.546875 -1.828125 0.546875l-0.12496948 0z" fill-rule="nonzero"/><path fill="#b1cdfb" d="m258.20526 184.47044l73.4465 0l0 23.249344l-73.4465 0z" fill-rule="evenodd"/><path fill="#000000" d="m270.10468 198.41496l0 -5.125l0.703125 0l0 5.125l-0.703125 0zm6.1479797 0l0 -2.375q0 -0.875 -0.75 -0.875q-0.25 0 -0.46875 0.15625q-0.203125 0.140625 -0.28125 0.328125l0 2.765625l-0.65625 0l0 -2.65625q0 -0.28125 -0.21875 -0.4375q-0.203125 -0.15625 -0.546875 -0.15625q-0.1875 0 -0.421875 0.15625q-0.21875 0.140625 -0.3125 0.328125l0 2.765625l-0.671875 0l0 -3.75l0.4375 0l0.21875 0.4375q0.390625 -0.5 0.96875 -0.5q0.796875 0 1.125 0.5q0.109375 -0.21875 0.40625 -0.359375q0.3125 -0.140625 0.625 -0.140625q0.578125 0 0.890625 0.34375q0.328125 0.34375 0.328125 0.96875l0 2.5l-0.671875 0zm5.9402466 0l0 -2.375q0 -0.875 -0.75 -0.875q-0.25 0 -0.46875 0.15625q-0.203125 0.140625 -0.28125 0.328125l0 2.765625l-0.65625 0l0 -2.65625q0 -0.28125 -0.21875 -0.4375q-0.203125 -0.15625 -0.546875 -0.15625q-0.1875 0 -0.421875 0.15625q-0.21875 0.140625 -0.3125 0.328125l0 2.765625l-0.671875 0l0 -3.75l0.4375 0l0.21875 0.4375q0.390625 -0.5 0.96875 -0.5q0.796875 0 1.125 0.5q0.109375 -0.21875 0.40625 -0.359375q0.3125 -0.140625 0.625 -0.140625q0.578125 0 0.890625 0.34375q0.328125 0.34375 0.328125 0.96875l0 2.5l-0.671875 0zm2.2371216 -3.75l0 2.390625q0 0.875 0.765625 0.875q0.328125 0 0.59375 -0.1875q0.265625 -0.1875 0.359375 -0.4375l0 -2.640625l0.671875 0l0 3.75l-0.671875 0l0 -0.515625q-0.109375 0.21875 -0.453125 0.40625q-0.328125 0.171875 -0.65625 0.171875q-0.609375 0 -0.9375 -0.34375q-0.328125 -0.359375 -0.328125 -1.0l0 -2.46875l0.65625 0zm5.597595 3.75l0 -2.171875q0 -0.609375 -0.1875 -0.84375q-0.171875 -0.234375 -0.609375 -0.234375q-0.21875 0 -0.46875 0.140625q-0.25 0.125 -0.375 0.328125l0 2.78125l-0.671875 0l0 -3.75l0.453125 0l0.21875 0.484375q0.328125 -0.546875 1.0625 -0.546875q1.234375 0 1.234375 1.5l0 2.3125l-0.65625 0zm1.3631897 -1.875q0 -0.875 0.453125 -1.40625q0.46875 -0.53125 1.234375 -0.53125q0.796875 0 1.234375 0.515625q0.453125 0.515625 0.453125 1.421875q0 0.90625 -0.453125 1.421875q-0.453125 0.515625 -1.234375 0.515625q-0.796875 0 -1.25 -0.515625q-0.4375 -0.53125 -0.4375 -1.421875zm0.6875 0q0 1.40625 1.0 1.40625q0.46875 0 0.734375 -0.375q0.265625 -0.375 0.265625 -1.03125q0 -1.390625 -1.0 -1.390625q-0.453125 0 -0.734375 0.375q-0.265625 0.359375 -0.265625 1.015625zm3.24646 2.90625l0.375 -0.53125q0.578125 0.375 1.0625 0.375q0.453125 0 0.703125 -0.15625q0.265625 -0.15625 0.265625 -0.375q0 -0.453125 -0.65625 -0.453125q-0.109375 0 -0.40625 0.0625q-0.296875 0.046875 -0.453125 0.046875q-0.796875 0 -0.796875 -0.609375q0 -0.1875 0.1875 -0.328125q0.1875 -0.15625 0.453125 -0.21875q-0.78125 -0.375 -0.78125 -1.28125q0 -0.59375 0.40625 -0.984375q0.40625 -0.390625 1.015625 -0.390625q0.546875 0 0.859375 0.234375l0.328125 -0.40625l0.4375 0.40625l-0.40625 0.296875q0.265625 0.34375 0.265625 0.875q0 0.5625 -0.359375 0.953125q-0.34375 0.375 -0.921875 0.4375l-0.546875 0.0625q-0.09375 0 -0.265625 0.0625q-0.171875 0.0625 -0.171875 0.171875q0 0.140625 0.34375 0.140625q0.15625 0 0.46875 -0.046875q0.328125 -0.0625 0.484375 -0.0625q0.546875 0 0.84375 0.265625q0.3125 0.265625 0.3125 0.734375q0 0.515625 -0.46875 0.828125q-0.453125 0.328125 -1.15625 0.328125q-0.359375 0 -0.765625 -0.140625q-0.40625 -0.125 -0.65625 -0.296875zm1.421875 -4.3125q-0.359375 0 -0.578125 0.25q-0.21875 0.25 -0.21875 0.59375q0 0.390625 0.21875 0.65625q0.21875 0.25 0.578125 0.25q0.34375 0 0.546875 -0.25q0.203125 -0.25 0.203125 -0.65625q0 -0.34375 -0.21875 -0.59375q-0.21875 -0.25 -0.53125 -0.25zm5.467102 1.46875l-2.703125 0q0 0.65625 0.359375 1.015625q0.328125 0.3125 0.828125 0.3125q0.5625 0 0.9375 -0.34375l0.28125 0.484375q-0.140625 0.15625 -0.46875 0.265625q-0.390625 0.140625 -0.890625 0.140625q-0.703125 0 -1.1875 -0.46875q-0.546875 -0.53125 -0.546875 -1.421875q0 -0.921875 0.5625 -1.484375q0.5 -0.5 1.1875 -0.5q0.796875 0 1.25 0.453125q0.4375 0.4375 0.4375 1.140625q0 0.234375 -0.046875 0.40625zm-1.609375 -1.4375q-0.453125 0 -0.75 0.28125q-0.28125 0.28125 -0.328125 0.6875l2.078125 0q0 -0.40625 -0.25 -0.671875q-0.28125 -0.296875 -0.75 -0.296875zm4.668701 3.25l0 -2.171875q0 -0.609375 -0.1875 -0.84375q-0.171875 -0.234375 -0.609375 -0.234375q-0.21875 0 -0.46875 0.140625q-0.25 0.125 -0.375 0.328125l0 2.78125l-0.671875 0l0 -3.75l0.453125 0l0.21875 0.484375q0.328125 -0.546875 1.0625 -0.546875q1.234375 0 1.234375 1.5l0 2.3125l-0.65625 0zm2.2850952 -5.15625q0.171875 0 0.28125 0.125q0.125 0.109375 0.125 0.28125q0 0.171875 -0.125 0.296875q-0.109375 0.109375 -0.28125 0.109375q-0.171875 0 -0.296875 -0.109375q-0.109375 -0.125 -0.109375 -0.296875q0 -0.171875 0.109375 -0.28125q0.125 -0.125 0.296875 -0.125zm-0.359375 5.15625l0 -3.1875l-0.515625 0l0 -0.5625l1.171875 0l0 3.75l-0.65625 0zm4.5406494 -3.4375l-0.328125 0.46875q-0.109375 -0.109375 -0.359375 -0.1875q-0.25 -0.09375 -0.5 -0.09375q-0.546875 0 -0.875 0.375q-0.3125 0.375 -0.3125 1.046875q0 0.65625 0.328125 1.0q0.328125 0.34375 0.90625 0.34375q0.4375 0 0.890625 -0.34375l0.265625 0.546875q-0.53125 0.34375 -1.328125 0.34375q-0.765625 0 -1.265625 -0.5q-0.484375 -0.515625 -0.484375 -1.390625q0 -0.90625 0.515625 -1.4375q0.515625 -0.546875 1.421875 -0.546875q0.28125 0 0.625 0.125q0.34375 0.125 0.5 0.25zm1.4025574 -1.71875q0.171875 0 0.28125 0.125q0.125 0.109375 0.125 0.28125q0 0.171875 -0.125 0.296875q-0.109375 0.109375 -0.28125 0.109375q-0.171875 0 -0.296875 -0.109375q-0.109375 -0.125 -0.109375 -0.296875q0 -0.171875 0.109375 -0.28125q0.125 -0.125 0.296875 -0.125zm-0.359375 5.15625l0 -3.1875l-0.515625 0l0 -0.5625l1.171875 0l0 3.75l-0.65625 0zm1.9468994 -3.21875l-0.421875 0l0 -0.53125l0.421875 0l0 -0.78125l0.671875 -0.25l0 1.03125l1.03125 0l0 0.53125l-1.03125 0l0 1.859375q0 0.46875 0.15625 0.671875q0.15625 0.203125 0.515625 0.203125q0.25 0 0.53125 -0.140625l0.09375 0.59375q-0.421875 0.09375 -0.90625 0.09375q-0.4375 0 -0.75 -0.328125q-0.3125 -0.328125 -0.3125 -0.828125l0 -2.125zm4.0404663 3.859375q-0.140625 0.359375 -0.5625 0.59375q-0.40625 0.234375 -0.90625 0.234375l0 -0.59375q0.40625 0 0.703125 -0.203125q0.296875 -0.1875 0.296875 -0.46875q0 -0.296875 -0.109375 -0.59375q-0.109375 -0.3125 -0.265625 -0.75l-1.015625 -2.609375l0.671875 0l1.109375 2.90625l0.984375 -2.90625l0.671875 0l-1.578125 4.390625z" fill-rule="nonzero"/><path fill="#000000" fill-opacity="0.0" d="m246.70184 180.55537l96.45364 0l0 32.012085l-96.45364 0z" fill-rule="evenodd"/><path stroke="#000000" stroke-width="2.6666666666666665" stroke-linejoin="round" stroke-linecap="butt" d="m246.70184 180.55537l96.45364 0l0 32.012085l-96.45364 0z" fill-rule="evenodd"/><path fill="#000000" fill-opacity="0.0" d="m322.59088 184.46892l96.66141 0l0 22.614182l-96.66141 0z" fill-rule="evenodd"/><path fill="#000000" d="m355.75375 198.83392q-1.546875 0 -2.375 -0.953125q-0.828125 -0.953125 -0.828125 -2.671875l0 -0.46875q0 -1.109375 0.375 -1.921875q0.390625 -0.828125 1.109375 -1.265625q0.71875 -0.4375 1.71875 -0.4375l0.125 0q1.015625 0 1.703125 0.46875q0.703125 0.46875 0.984375 1.328125l-0.8125 0.28125q-0.1875 -0.640625 -0.6875 -0.96875q-0.484375 -0.328125 -1.1875 -0.328125l-0.125 0q-1.09375 0 -1.703125 0.734375q-0.609375 0.734375 -0.609375 2.078125l0 0.53125q0 1.375 0.59375 2.09375q0.59375 0.71875 1.71875 0.71875l0.125 0q0.71875 0 1.21875 -0.3125q0.515625 -0.3125 0.71875 -0.921875l0.78125 0.3125q-0.296875 0.8125 -1.0 1.265625q-0.703125 0.4375 -1.71875 0.4375l-0.125 0zm4.18808 -0.125l0 -7.78125l0.84375 0l0 7.78125l-0.84375 0zm2.5575256 0l0 -5.421875l0.84375 0l0 5.421875l-0.84375 0zm-0.03125 -6.5625l0 -0.96875l0.890625 0l0 0.96875l-0.890625 0zm4.6981506 6.6875q-1.109375 0 -1.765625 -0.6875q-0.65625 -0.6875 -0.65625 -1.953125l0 -0.390625q0 -0.828125 0.296875 -1.40625q0.3125 -0.59375 0.859375 -0.90625q0.546875 -0.328125 1.265625 -0.328125l0.09375 0q0.703125 0 1.21875 0.296875q0.53125 0.296875 0.8125 0.84375q0.28125 0.546875 0.28125 1.28125l0 0.65625l-3.984375 0q0.015625 0.9375 0.4375 1.40625q0.421875 0.46875 1.140625 0.46875l0.171875 0q0.53125 0 0.859375 -0.1875q0.34375 -0.1875 0.546875 -0.546875l0.640625 0.390625q-0.28125 0.484375 -0.8125 0.78125q-0.515625 0.28125 -1.234375 0.28125l-0.171875 0zm-1.5625 -3.25l3.140625 0l0 -0.109375q0 -0.796875 -0.40625 -1.203125q-0.40625 -0.40625 -1.078125 -0.40625l-0.09375 0q-0.65625 0 -1.09375 0.4375q-0.421875 0.4375 -0.46875 1.28125zm5.3354187 3.125l0 -5.421875l0.765625 0l0 0.96875q0.234375 -0.484375 0.6875 -0.78125q0.453125 -0.3125 1.140625 -0.3125l0.09375 0q0.921875 0 1.484375 0.5625q0.5625 0.5625 0.5625 1.65625l0 3.328125l-0.859375 0l0 -3.203125q0 -0.796875 -0.359375 -1.203125q-0.34375 -0.40625 -1.0 -0.40625l-0.078125 0q-0.421875 0 -0.78125 0.203125q-0.359375 0.203125 -0.59375 0.625q-0.21875 0.40625 -0.21875 1.015625l0 2.96875l-0.84375 0zm8.446869 0.046875q-0.9375 0 -1.328125 -0.4375q-0.390625 -0.4375 -0.390625 -1.203125l0 -3.125l-1.15625 0l0 -0.703125l1.15625 0l0 -1.640625l0.859375 0l0 1.640625l1.875 0l-0.125 0.703125l-1.75 0l0 3.078125q0 0.515625 0.234375 0.75q0.234375 0.21875 0.71875 0.21875l0.921875 0l0 0.71875l-1.015625 0zm8.387665 -0.046875l0 -1.671875l-3.78125 0l0 -0.625l3.78125 -5.03125l0.828125 0l0 4.9375l1.0 0l-0.09375 0.71875l-0.90625 0l0 1.671875l-0.828125 0zm0 -2.390625l0 -3.8125l-2.84375 3.8125l2.84375 0z" fill-rule="nonzero"/><path fill="#b1cdfb" d="m258.20526 224.85396l73.4465 0l0 23.249344l-73.4465 0z" fill-rule="evenodd"/><path fill="#000000" d="m274.19113 236.82973l0 1.96875l-0.6875 0l0 -5.125q0.78125 -0.03125 0.953125 -0.03125q2.21875 0 2.21875 1.5q0 1.71875 -1.96875 1.71875q-0.109375 0 -0.515625 -0.03125zm0 -2.515625l0 1.890625q0.453125 0.03125 0.46875 0.03125q1.296875 0 1.296875 -1.03125q0 -0.9375 -1.375 -0.9375q-0.140625 0 -0.390625 0.046875zm2.6704712 2.609375q0 -0.875 0.453125 -1.40625q0.46875 -0.53125 1.234375 -0.53125q0.796875 0 1.234375 0.515625q0.453125 0.515625 0.453125 1.421875q0 0.90625 -0.453125 1.421875q-0.453125 0.515625 -1.234375 0.515625q-0.796875 0 -1.25 -0.515625q-0.4375 -0.53125 -0.4375 -1.421875zm0.6875 0q0 1.40625 1.0 1.40625q0.46875 0 0.734375 -0.375q0.265625 -0.375 0.265625 -1.03125q0 -1.390625 -1.0 -1.390625q-0.453125 0 -0.734375 0.375q-0.265625 0.359375 -0.265625 1.015625zm3.4495544 0.8125l0 -4.21875l0.65625 0l0 4.109375q0 0.296875 0.171875 0.46875q0.171875 0.171875 0.453125 0.171875l0 0.59375q-1.28125 0 -1.28125 -1.125zm3.4855347 1.703125q-0.140625 0.359375 -0.5625 0.59375q-0.40625 0.234375 -0.90625 0.234375l0 -0.59375q0.40625 0 0.703125 -0.203125q0.296875 -0.1875 0.296875 -0.46875q0 -0.296875 -0.109375 -0.59375q-0.109375 -0.3125 -0.265625 -0.75l-1.015625 -2.609375l0.671875 0l1.109375 2.90625l0.984375 -2.90625l0.671875 0l-1.578125 4.390625zm4.1229553 -3.75q-0.21875 -0.140625 -0.4375 -0.140625q-0.34375 0 -0.609375 0.328125q-0.265625 0.3125 -0.265625 0.78125l0 2.140625l-0.65625 0l0 -3.75l0.65625 0l0 0.609375q0.359375 -0.671875 1.078125 -0.671875q0.1875 0 0.515625 0.0625l-0.28125 0.640625zm3.906433 1.296875l-2.703125 0q0 0.65625 0.359375 1.015625q0.328125 0.3125 0.828125 0.3125q0.5625 0 0.9375 -0.34375l0.28125 0.484375q-0.140625 0.15625 -0.46875 0.265625q-0.390625 0.140625 -0.890625 0.140625q-0.703125 0 -1.1875 -0.46875q-0.546875 -0.53125 -0.546875 -1.421875q0 -0.921875 0.5625 -1.484375q0.5 -0.5 1.1875 -0.5q0.796875 0 1.25 0.453125q0.4375 0.4375 0.4375 1.140625q0 0.234375 -0.046875 0.40625zm-1.609375 -1.4375q-0.453125 0 -0.75 0.28125q-0.28125 0.28125 -0.328125 0.6875l2.078125 0q0 -0.40625 -0.25 -0.671875q-0.28125 -0.296875 -0.75 -0.296875zm4.4656067 2.8125q-0.390625 0.5 -1.21875 0.5q-0.4375 0 -0.765625 -0.3125q-0.3125 -0.3125 -0.3125 -0.796875q0 -0.5625 0.5 -0.953125q0.5 -0.40625 1.265625 -0.40625q0.203125 0 0.46875 0.09375q0 -0.90625 -0.796875 -0.90625q-0.625 0 -0.96875 0.34375l-0.28125 -0.5625q0.1875 -0.15625 0.515625 -0.265625q0.34375 -0.109375 0.65625 -0.109375q0.8125 0 1.171875 0.375q0.375 0.359375 0.375 1.171875l0 1.34375q0 0.484375 0.296875 0.65625l0 0.328125q-0.40625 0 -0.609375 -0.109375q-0.203125 -0.125 -0.296875 -0.390625zm-0.0625 -1.40625q-0.3125 -0.0625 -0.4375 -0.0625q-0.5 0 -0.828125 0.265625q-0.3125 0.25 -0.3125 0.609375q0 0.578125 0.6875 0.578125q0.515625 0 0.890625 -0.484375l0 -0.90625zm4.5410767 -1.59375l-0.328125 0.46875q-0.109375 -0.109375 -0.359375 -0.1875q-0.25 -0.09375 -0.5 -0.09375q-0.546875 0 -0.875 0.375q-0.3125 0.375 -0.3125 1.046875q0 0.65625 0.328125 1.0q0.328125 0.34375 0.90625 0.34375q0.4375 0 0.890625 -0.34375l0.265625 0.546875q-0.53125 0.34375 -1.328125 0.34375q-0.765625 0 -1.265625 -0.5q-0.484375 -0.515625 -0.484375 -1.390625q0 -0.90625 0.515625 -1.4375q0.515625 -0.546875 1.421875 -0.546875q0.28125 0 0.625 0.125q0.34375 0.125 0.5 0.25zm0.9494324 0.21875l-0.421875 0l0 -0.53125l0.421875 0l0 -0.78125l0.671875 -0.25l0 1.03125l1.03125 0l0 0.53125l-1.03125 0l0 1.859375q0 0.46875 0.15625 0.671875q0.15625 0.203125 0.515625 0.203125q0.25 0 0.53125 -0.140625l0.09375 0.59375q-0.421875 0.09375 -0.90625 0.09375q-0.4375 0 -0.75 -0.328125q-0.3125 -0.328125 -0.3125 -0.828125l0 -2.125zm3.2904663 -1.9375q0.171875 0 0.28125 0.125q0.125 0.109375 0.125 0.28125q0 0.171875 -0.125 0.296875q-0.109375 0.109375 -0.28125 0.109375q-0.171875 0 -0.296875 -0.109375q-0.109375 -0.125 -0.109375 -0.296875q0 -0.171875 0.109375 -0.28125q0.125 -0.125 0.296875 -0.125zm-0.359375 5.15625l0 -3.1875l-0.515625 0l0 -0.5625l1.171875 0l0 3.75l-0.65625 0zm3.0718994 0.0625l-0.1875 0l-1.59375 -3.8125l0.71875 0l0.984375 2.625l1.015625 -2.625l0.703125 0l-1.640625 3.8125zm2.8328552 -5.21875q0.171875 0 0.28125 0.125q0.125 0.109375 0.125 0.28125q0 0.171875 -0.125 0.296875q-0.109375 0.109375 -0.28125 0.109375q-0.171875 0 -0.296875 -0.109375q-0.109375 -0.125 -0.109375 -0.296875q0 -0.171875 0.109375 -0.28125q0.125 -0.125 0.296875 -0.125zm-0.359375 5.15625l0 -3.1875l-0.515625 0l0 -0.5625l1.171875 0l0 3.75l-0.65625 0zm1.9468994 -3.21875l-0.421875 0l0 -0.53125l0.421875 0l0 -0.78125l0.671875 -0.25l0 1.03125l1.03125 0l0 0.53125l-1.03125 0l0 1.859375q0 0.46875 0.15625 0.671875q0.15625 0.203125 0.515625 0.203125q0.25 0 0.53125 -0.140625l0.09375 0.59375q-0.421875 0.09375 -0.90625 0.09375q-0.4375 0 -0.75 -0.328125q-0.3125 -0.328125 -0.3125 -0.828125l0 -2.125zm4.0404663 3.859375q-0.140625 0.359375 -0.5625 0.59375q-0.40625 0.234375 -0.90625 0.234375l0 -0.59375q0.40625 0 0.703125 -0.203125q0.296875 -0.1875 0.296875 -0.46875q0 -0.296875 -0.109375 -0.59375q-0.109375 -0.3125 -0.265625 -0.75l-1.015625 -2.609375l0.671875 0l1.109375 2.90625l0.984375 -2.90625l0.671875 0l-1.578125 4.390625z" fill-rule="nonzero"/><path fill="#000000" fill-opacity="0.0" d="m246.70184 220.9389l96.45364 0l0 32.01207l-96.45364 0z" fill-rule="evenodd"/><path stroke="#000000" stroke-width="2.6666666666666665" stroke-linejoin="round" stroke-linecap="butt" d="m246.70184 220.9389l96.45364 0l0 32.01207l-96.45364 0z" fill-rule="evenodd"/><path fill="#000000" fill-opacity="0.0" d="m322.59088 224.85245l96.66141 0l0 22.614166l-96.66141 0z" fill-rule="evenodd"/><path fill="#000000" d="m355.75375 239.21744q-1.546875 0 -2.375 -0.953125q-0.828125 -0.953125 -0.828125 -2.671875l0 -0.46875q0 -1.109375 0.375 -1.921875q0.390625 -0.828125 1.109375 -1.265625q0.71875 -0.4375 1.71875 -0.4375l0.125 0q1.015625 0 1.703125 0.46875q0.703125 0.46875 0.984375 1.328125l-0.8125 0.28125q-0.1875 -0.640625 -0.6875 -0.96875q-0.484375 -0.328125 -1.1875 -0.328125l-0.125 0q-1.09375 0 -1.703125 0.734375q-0.609375 0.734375 -0.609375 2.078125l0 0.53125q0 1.375 0.59375 2.09375q0.59375 0.71875 1.71875 0.71875l0.125 0q0.71875 0 1.21875 -0.3125q0.515625 -0.3125 0.71875 -0.921875l0.78125 0.3125q-0.296875 0.8125 -1.0 1.265625q-0.703125 0.4375 -1.71875 0.4375l-0.125 0zm4.18808 -0.125l0 -7.78125l0.84375 0l0 7.78125l-0.84375 0zm2.5575256 0l0 -5.421875l0.84375 0l0 5.421875l-0.84375 0zm-0.03125 -6.5625l0 -0.96875l0.890625 0l0 0.96875l-0.890625 0zm4.6981506 6.6875q-1.109375 0 -1.765625 -0.6875q-0.65625 -0.6875 -0.65625 -1.953125l0 -0.390625q0 -0.828125 0.296875 -1.40625q0.3125 -0.59375 0.859375 -0.90625q0.546875 -0.328125 1.265625 -0.328125l0.09375 0q0.703125 0 1.21875 0.296875q0.53125 0.296875 0.8125 0.84375q0.28125 0.546875 0.28125 1.28125l0 0.65625l-3.984375 0q0.015625 0.9375 0.4375 1.40625q0.421875 0.46875 1.140625 0.46875l0.171875 0q0.53125 0 0.859375 -0.1875q0.34375 -0.1875 0.546875 -0.546875l0.640625 0.390625q-0.28125 0.484375 -0.8125 0.78125q-0.515625 0.28125 -1.234375 0.28125l-0.171875 0zm-1.5625 -3.25l3.140625 0l0 -0.109375q0 -0.796875 -0.40625 -1.203125q-0.40625 -0.40625 -1.078125 -0.40625l-0.09375 0q-0.65625 0 -1.09375 0.4375q-0.421875 0.4375 -0.46875 1.28125zm5.3354187 3.125l0 -5.421875l0.765625 0l0 0.96875q0.234375 -0.484375 0.6875 -0.78125q0.453125 -0.3125 1.140625 -0.3125l0.09375 0q0.921875 0 1.484375 0.5625q0.5625 0.5625 0.5625 1.65625l0 3.328125l-0.859375 0l0 -3.203125q0 -0.796875 -0.359375 -1.203125q-0.34375 -0.40625 -1.0 -0.40625l-0.078125 0q-0.421875 0 -0.78125 0.203125q-0.359375 0.203125 -0.59375 0.625q-0.21875 0.40625 -0.21875 1.015625l0 2.96875l-0.84375 0zm8.446869 0.046875q-0.9375 0 -1.328125 -0.4375q-0.390625 -0.4375 -0.390625 -1.203125l0 -3.125l-1.15625 0l0 -0.703125l1.15625 0l0 -1.640625l0.859375 0l0 1.640625l1.875 0l-0.125 0.703125l-1.75 0l0 3.078125q0 0.515625 0.234375 0.75q0.234375 0.21875 0.71875 0.21875l0.921875 0l0 0.71875l-1.015625 0zm7.24704 0.078125q-0.90625 0 -1.546875 -0.328125q-0.640625 -0.34375 -0.890625 -0.953125l0.71875 -0.34375q0.375 0.875 1.6875 0.875l0.109375 0q0.78125 0 1.234375 -0.390625q0.46875 -0.40625 0.46875 -1.0625l0 -0.1875q0 -0.703125 -0.484375 -1.109375q-0.484375 -0.40625 -1.34375 -0.40625l-0.078125 0q-0.875 0 -1.546875 0.4375l-0.5 -0.25l0.171875 -3.734375l4.25 0l0 0.765625l-3.53125 0l-0.09375 2.359375q0.640625 -0.3125 1.453125 -0.3125l0.09375 0q0.75 0 1.296875 0.28125q0.5625 0.265625 0.875 0.765625q0.3125 0.5 0.3125 1.171875l0 0.21875q0 1.015625 -0.6875 1.609375q-0.6875 0.59375 -1.84375 0.59375l-0.125 0z" fill-rule="nonzero"/><path fill="#b1cdfb" d="m258.20526 265.7321l73.4465 0l0 23.249329l-73.4465 0z" fill-rule="evenodd"/><path fill="#000000" d="m272.03464 275.1922l0 4.484375l-0.703125 0l0 -4.484375l-1.625 0l0 -0.640625l4.03125 0l0 0.640625l-1.703125 0zm4.5453186 4.484375l0 -2.359375q0 -0.40625 -0.21875 -0.640625q-0.203125 -0.25 -0.578125 -0.25q-0.234375 0 -0.484375 0.140625q-0.234375 0.140625 -0.359375 0.328125l0 2.78125l-0.671875 0l0 -5.28125l0.671875 0l0 1.953125q0.125 -0.203125 0.421875 -0.34375q0.296875 -0.140625 0.609375 -0.140625q0.59375 0 0.921875 0.390625q0.34375 0.390625 0.34375 1.0625l0 2.359375l-0.65625 0zm4.7538147 -1.8125l-2.703125 0q0 0.65625 0.359375 1.015625q0.328125 0.3125 0.828125 0.3125q0.5625 0 0.9375 -0.34375l0.28125 0.484375q-0.140625 0.15625 -0.46875 0.265625q-0.390625 0.140625 -0.890625 0.140625q-0.703125 0 -1.1875 -0.46875q-0.546875 -0.53125 -0.546875 -1.421875q0 -0.921875 0.5625 -1.484375q0.5 -0.5 1.1875 -0.5q0.796875 0 1.25 0.453125q0.4375 0.4375 0.4375 1.140625q0 0.234375 -0.046875 0.40625zm-1.609375 -1.4375q-0.453125 0 -0.75 0.28125q-0.28125 0.28125 -0.328125 0.6875l2.078125 0q0 -0.40625 -0.25 -0.671875q-0.28125 -0.296875 -0.75 -0.296875zm4.3874817 0.140625q-0.21875 -0.140625 -0.4375 -0.140625q-0.34375 0 -0.609375 0.328125q-0.265625 0.3125 -0.265625 0.78125l0 2.140625l-0.65625 0l0 -3.75l0.65625 0l0 0.609375q0.359375 -0.671875 1.078125 -0.671875q0.1875 0 0.515625 0.0625l-0.28125 0.640625zm5.078308 3.109375l0 -2.375q0 -0.875 -0.75 -0.875q-0.25 0 -0.46875 0.15625q-0.203125 0.140625 -0.28125 0.328125l0 2.765625l-0.65625 0l0 -2.65625q0 -0.28125 -0.21875 -0.4375q-0.203125 -0.15625 -0.546875 -0.15625q-0.1875 0 -0.421875 0.15625q-0.21875 0.140625 -0.3125 0.328125l0 2.765625l-0.671875 0l0 -3.75l0.4375 0l0.21875 0.4375q0.390625 -0.5 0.96875 -0.5q0.796875 0 1.125 0.5q0.109375 -0.21875 0.40625 -0.359375q0.3125 -0.140625 0.625 -0.140625q0.578125 0 0.890625 0.34375q0.328125 0.34375 0.328125 0.96875l0 2.5l-0.671875 0zm1.3777466 -1.875q0 -0.875 0.453125 -1.40625q0.46875 -0.53125 1.234375 -0.53125q0.796875 0 1.234375 0.515625q0.453125 0.515625 0.453125 1.421875q0 0.90625 -0.453125 1.421875q-0.453125 0.515625 -1.234375 0.515625q-0.796875 0 -1.25 -0.515625q-0.4375 -0.53125 -0.4375 -1.421875zm0.6875 0q0 1.40625 1.0 1.40625q0.46875 0 0.734375 -0.375q0.265625 -0.375 0.265625 -1.03125q0 -1.390625 -1.0 -1.390625q-0.453125 0 -0.734375 0.375q-0.265625 0.359375 -0.265625 1.015625zm3.1526794 1.65625l0.234375 -0.640625q0.546875 0.375 0.890625 0.375q0.609375 0 0.609375 -0.515625q0 -0.375 -0.59375 -0.640625q-0.453125 -0.21875 -0.625 -0.3125q-0.15625 -0.109375 -0.28125 -0.25q-0.109375 -0.140625 -0.171875 -0.296875q-0.046875 -0.15625 -0.046875 -0.328125q0 -0.46875 0.328125 -0.71875q0.34375 -0.265625 0.890625 -0.265625q0.40625 0 1.03125 0.265625l-0.1875 0.609375q-0.40625 -0.3125 -0.796875 -0.3125q-0.234375 0 -0.40625 0.109375q-0.15625 0.109375 -0.15625 0.28125q0 0.359375 0.40625 0.546875l0.46875 0.21875q0.4375 0.203125 0.640625 0.453125q0.203125 0.25 0.203125 0.640625q0 0.5 -0.359375 0.78125q-0.34375 0.28125 -0.96875 0.28125q-0.59375 0 -1.109375 -0.28125zm3.365509 -3.0l-0.421875 0l0 -0.53125l0.421875 0l0 -0.78125l0.671875 -0.25l0 1.03125l1.03125 0l0 0.53125l-1.03125 0l0 1.859375q0 0.46875 0.15625 0.671875q0.15625 0.203125 0.515625 0.203125q0.25 0 0.53125 -0.140625l0.09375 0.59375q-0.421875 0.09375 -0.90625 0.09375q-0.4375 0 -0.75 -0.328125q-0.3125 -0.328125 -0.3125 -0.828125l0 -2.125zm4.7123413 2.78125q-0.390625 0.5 -1.21875 0.5q-0.4375 0 -0.765625 -0.3125q-0.3125 -0.3125 -0.3125 -0.796875q0 -0.5625 0.5 -0.953125q0.5 -0.40625 1.265625 -0.40625q0.203125 0 0.46875 0.09375q0 -0.90625 -0.796875 -0.90625q-0.625 0 -0.96875 0.34375l-0.28125 -0.5625q0.1875 -0.15625 0.515625 -0.265625q0.34375 -0.109375 0.65625 -0.109375q0.8125 0 1.171875 0.375q0.375 0.359375 0.375 1.171875l0 1.34375q0 0.484375 0.296875 0.65625l0 0.328125q-0.40625 0 -0.609375 -0.109375q-0.203125 -0.125 -0.296875 -0.390625zm-0.0625 -1.40625q-0.3125 -0.0625 -0.4375 -0.0625q-0.5 0 -0.828125 0.265625q-0.3125 0.25 -0.3125 0.609375q0 0.578125 0.6875 0.578125q0.515625 0 0.890625 -0.484375l0 -0.90625zm2.2754517 1.578125l-0.234375 0.328125l-0.328125 0l0 -5.34375l0.671875 0l0 1.8125q0.09375 -0.125 0.34375 -0.234375q0.265625 -0.109375 0.515625 -0.109375q0.765625 0 1.234375 0.53125q0.484375 0.53125 0.484375 1.34375q0 0.9375 -0.484375 1.46875q-0.46875 0.53125 -1.28125 0.53125q-0.265625 0 -0.53125 -0.09375q-0.25 -0.09375 -0.390625 -0.234375zm0.109375 -2.6875l0 2.15625q0 0.046875 0.234375 0.1875q0.25 0.125 0.390625 0.125q0.671875 0 0.96875 -0.328125q0.296875 -0.328125 0.296875 -1.09375q0 -0.640625 -0.34375 -0.984375q-0.34375 -0.359375 -0.921875 -0.359375q-0.125 0 -0.34375 0.109375q-0.21875 0.09375 -0.28125 0.1875zm4.0025635 -2.203125q0.171875 0 0.28125 0.125q0.125 0.109375 0.125 0.28125q0 0.171875 -0.125 0.296875q-0.109375 0.109375 -0.28125 0.109375q-0.171875 0 -0.296875 -0.109375q-0.109375 -0.125 -0.109375 -0.296875q0 -0.171875 0.109375 -0.28125q0.125 -0.125 0.296875 -0.125zm-0.359375 5.15625l0 -3.1875l-0.515625 0l0 -0.5625l1.171875 0l0 3.75l-0.65625 0zm1.7750244 -1.0625l0 -4.21875l0.65625 0l0 4.109375q0 0.296875 0.171875 0.46875q0.171875 0.171875 0.453125 0.171875l0 0.59375q-1.28125 0 -1.28125 -1.125zm2.7355347 -4.09375q0.171875 0 0.28125 0.125q0.125 0.109375 0.125 0.28125q0 0.171875 -0.125 0.296875q-0.109375 0.109375 -0.28125 0.109375q-0.171875 0 -0.296875 -0.109375q-0.109375 -0.125 -0.109375 -0.296875q0 -0.171875 0.109375 -0.28125q0.125 -0.125 0.296875 -0.125zm-0.359375 5.15625l0 -3.1875l-0.515625 0l0 -0.5625l1.171875 0l0 3.75l-0.65625 0zm1.9468994 -3.21875l-0.421875 0l0 -0.53125l0.421875 0l0 -0.78125l0.671875 -0.25l0 1.03125l1.03125 0l0 0.53125l-1.03125 0l0 1.859375q0 0.46875 0.15625 0.671875q0.15625 0.203125 0.515625 0.203125q0.25 0 0.53125 -0.140625l0.09375 0.59375q-0.421875 0.09375 -0.90625 0.09375q-0.4375 0 -0.75 -0.328125q-0.3125 -0.328125 -0.3125 -0.828125l0 -2.125zm4.0404663 3.859375q-0.140625 0.359375 -0.5625 0.59375q-0.40625 0.234375 -0.90625 0.234375l0 -0.59375q0.40625 0 0.703125 -0.203125q0.296875 -0.1875 0.296875 -0.46875q0 -0.296875 -0.109375 -0.59375q-0.109375 -0.3125 -0.265625 -0.75l-1.015625 -2.609375l0.671875 0l1.109375 2.90625l0.984375 -2.90625l0.671875 0l-1.578125 4.390625z" fill-rule="nonzero"/><path fill="#000000" fill-opacity="0.0" d="m246.70184 261.81702l96.45364 0l0 32.012054l-96.45364 0z" fill-rule="evenodd"/><path stroke="#000000" stroke-width="2.6666666666666665" stroke-linejoin="round" stroke-linecap="butt" d="m246.70184 261.81702l96.45364 0l0 32.012054l-96.45364 0z" fill-rule="evenodd"/><path fill="#000000" fill-opacity="0.0" d="m322.59088 265.73056l96.66141 0l0 22.614166l-96.66141 0z" fill-rule="evenodd"/><path fill="#000000" d="m355.75375 280.09555q-1.546875 0 -2.375 -0.953125q-0.828125 -0.953125 -0.828125 -2.671875l0 -0.46875q0 -1.109375 0.375 -1.921875q0.390625 -0.828125 1.109375 -1.265625q0.71875 -0.4375 1.71875 -0.4375l0.125 0q1.015625 0 1.703125 0.46875q0.703125 0.46875 0.984375 1.328125l-0.8125 0.28125q-0.1875 -0.640625 -0.6875 -0.96875q-0.484375 -0.328125 -1.1875 -0.328125l-0.125 0q-1.09375 0 -1.703125 0.734375q-0.609375 0.734375 -0.609375 2.078125l0 0.53125q0 1.375 0.59375 2.09375q0.59375 0.71875 1.71875 0.71875l0.125 0q0.71875 0 1.21875 -0.3125q0.515625 -0.3125 0.71875 -0.921875l0.78125 0.3125q-0.296875 0.8125 -1.0 1.265625q-0.703125 0.4375 -1.71875 0.4375l-0.125 0zm4.18808 -0.125l0 -7.78125l0.84375 0l0 7.78125l-0.84375 0zm2.5575256 0l0 -5.421875l0.84375 0l0 5.421875l-0.84375 0zm-0.03125 -6.5625l0 -0.96875l0.890625 0l0 0.96875l-0.890625 0zm4.6981506 6.6875q-1.109375 0 -1.765625 -0.6875q-0.65625 -0.6875 -0.65625 -1.953125l0 -0.390625q0 -0.828125 0.296875 -1.40625q0.3125 -0.59375 0.859375 -0.90625q0.546875 -0.328125 1.265625 -0.328125l0.09375 0q0.703125 0 1.21875 0.296875q0.53125 0.296875 0.8125 0.84375q0.28125 0.546875 0.28125 1.28125l0 0.65625l-3.984375 0q0.015625 0.9375 0.4375 1.40625q0.421875 0.46875 1.140625 0.46875l0.171875 0q0.53125 0 0.859375 -0.1875q0.34375 -0.1875 0.546875 -0.546875l0.640625 0.390625q-0.28125 0.484375 -0.8125 0.78125q-0.515625 0.28125 -1.234375 0.28125l-0.171875 0zm-1.5625 -3.25l3.140625 0l0 -0.109375q0 -0.796875 -0.40625 -1.203125q-0.40625 -0.40625 -1.078125 -0.40625l-0.09375 0q-0.65625 0 -1.09375 0.4375q-0.421875 0.4375 -0.46875 1.28125zm5.3354187 3.125l0 -5.421875l0.765625 0l0 0.96875q0.234375 -0.484375 0.6875 -0.78125q0.453125 -0.3125 1.140625 -0.3125l0.09375 0q0.921875 0 1.484375 0.5625q0.5625 0.5625 0.5625 1.65625l0 3.328125l-0.859375 0l0 -3.203125q0 -0.796875 -0.359375 -1.203125q-0.34375 -0.40625 -1.0 -0.40625l-0.078125 0q-0.421875 0 -0.78125 0.203125q-0.359375 0.203125 -0.59375 0.625q-0.21875 0.40625 -0.21875 1.015625l0 2.96875l-0.84375 0zm8.446869 0.046875q-0.9375 0 -1.328125 -0.4375q-0.390625 -0.4375 -0.390625 -1.203125l0 -3.125l-1.15625 0l0 -0.703125l1.15625 0l0 -1.640625l0.859375 0l0 1.640625l1.875 0l-0.125 0.703125l-1.75 0l0 3.078125q0 0.515625 0.234375 0.75q0.234375 0.21875 0.71875 0.21875l0.921875 0l0 0.71875l-1.015625 0zm7.418915 0.078125q-1.234375 0 -1.9375 -0.765625q-0.6875 -0.765625 -0.6875 -2.125l0 -1.28125q0 -1.671875 0.6875 -2.53125q0.703125 -0.875 2.0 -0.875l0.125 0q1.65625 0 2.15625 1.265625l-0.765625 0.28125q-0.171875 -0.421875 -0.515625 -0.609375q-0.34375 -0.203125 -0.90625 -0.203125l-0.09375 0q-1.859375 0 -1.859375 2.65625l0 0.265625q0.28125 -0.46875 0.78125 -0.71875q0.515625 -0.265625 1.15625 -0.265625l0.109375 0q0.703125 0 1.234375 0.296875q0.546875 0.296875 0.84375 0.828125q0.3125 0.515625 0.3125 1.203125l0 0.203125q0 0.6875 -0.328125 1.234375q-0.328125 0.53125 -0.90625 0.84375q-0.5625 0.296875 -1.3125 0.296875l-0.09375 0zm-0.046875 -0.734375l0.109375 0q0.75 0 1.234375 -0.453125q0.484375 -0.453125 0.484375 -1.171875l0 -0.1875q0 -0.71875 -0.484375 -1.171875q-0.484375 -0.453125 -1.234375 -0.453125l-0.109375 0q-0.765625 0 -1.25 0.453125q-0.46875 0.453125 -0.46875 1.171875l0 0.1875q0 0.703125 0.46875 1.171875q0.484375 0.453125 1.25 0.453125z" fill-rule="nonzero"/><path fill="#000000" fill-opacity="0.0" d="m246.70184 112.20089l-35.46457 0" fill-rule="evenodd"/><path stroke="#000000" stroke-width="3.0" stroke-linejoin="round" stroke-linecap="butt" d="m246.70184 112.20089l-35.46457 0" fill-rule="evenodd"/><path fill="#000000" fill-opacity="0.0" d="m246.70184 154.52672l-35.475067 0" fill-rule="evenodd"/><path stroke="#000000" stroke-width="3.0" stroke-linejoin="round" stroke-linecap="butt" d="m246.70184 154.52672l-35.475067 0" fill-rule="evenodd"/><path fill="#000000" fill-opacity="0.0" d="m246.70184 196.09512l-35.475067 0" fill-rule="evenodd"/><path stroke="#000000" stroke-width="3.0" stroke-linejoin="round" stroke-linecap="butt" d="m246.70184 196.09512l-35.475067 0" fill-rule="evenodd"/><path fill="#000000" fill-opacity="0.0" d="m246.70184 239.99654l-35.475067 0" fill-rule="evenodd"/><path stroke="#000000" stroke-width="3.0" stroke-linejoin="round" stroke-linecap="butt" d="m246.70184 239.99654l-35.475067 0" fill-rule="evenodd"/></g></svg>