<?xml version="1.0" encoding="utf-8" standalone="no"?>
<!DOCTYPE svg PUBLIC "-//W3C//DTD SVG 1.1//EN"
  "http://www.w3.org/Graphics/SVG/1.1/DTD/svg11.dtd">
<svg xmlns:xlink="http://www.w3.org/1999/xlink" width="864pt" height="576pt" viewBox="0 0 864 576" xmlns="http://www.w3.org/2000/svg" version="1.1">
 <metadata>
  <rdf:RDF xmlns:dc="http://purl.org/dc/elements/1.1/" xmlns:cc="http://creativecommons.org/ns#" xmlns:rdf="http://www.w3.org/1999/02/22-rdf-syntax-ns#">
   <cc:Work>
    <dc:type rdf:resource="http://purl.org/dc/dcmitype/StillImage"/>
    <dc:date>2025-04-25T14:16:38.055166</dc:date>
    <dc:format>image/svg+xml</dc:format>
    <dc:creator>
     <cc:Agent>
      <dc:title>Matplotlib v3.8.2, https://matplotlib.org/</dc:title>
     </cc:Agent>
    </dc:creator>
   </cc:Work>
  </rdf:RDF>
 </metadata>
 <defs>
  <style type="text/css">*{stroke-linejoin: round; stroke-linecap: butt}</style>
 </defs>
 <g id="figure_1">
  <g id="patch_1">
   <path d="M 0 576 
L 864 576 
L 864 0 
L 0 0 
z
" style="fill: #ffffff"/>
  </g>
  <g id="axes_1">
   <g id="patch_2">
    <path d="M 108 512.64 
L 777.6 512.64 
L 777.6 69.12 
L 108 69.12 
z
" style="fill: #ffffff"/>
   </g>
   <g id="PolyCollection_1"/>
   <g id="PolyCollection_2"/>
   <g id="matplotlib.axis_1">
    <g id="xtick_1">
     <g id="line2d_1">
      <path d="M 137.420124 512.64 
L 137.420124 69.12 
" clip-path="url(#pbf858f6d53)" style="fill: none; stroke: #b0b0b0; stroke-width: 0.8; stroke-linecap: square"/>
     </g>
     <g id="line2d_2">
      <defs>
       <path id="m0ad7f3cd52" d="M 0 0 
L 0 3.5 
" style="stroke: #000000; stroke-width: 0.8"/>
      </defs>
      <g>
       <use xlink:href="#m0ad7f3cd52" x="137.420124" y="512.64" style="stroke: #000000; stroke-width: 0.8"/>
      </g>
     </g>
     <g id="text_1">
      <!-- 0 -->
      <g transform="translate(127.876374 542.435313) scale(0.3 -0.3)">
       <defs>
        <path id="DejaVuSans-30" d="M 2034 4250 
Q 1547 4250 1301 3770 
Q 1056 3291 1056 2328 
Q 1056 1369 1301 889 
Q 1547 409 2034 409 
Q 2525 409 2770 889 
Q 3016 1369 3016 2328 
Q 3016 3291 2770 3770 
Q 2525 4250 2034 4250 
z
M 2034 4750 
Q 2819 4750 3233 4129 
Q 3647 3509 3647 2328 
Q 3647 1150 3233 529 
Q 2819 -91 2034 -91 
Q 1250 -91 836 529 
Q 422 1150 422 2328 
Q 422 3509 836 4129 
Q 1250 4750 2034 4750 
z
" transform="scale(0.015625)"/>
       </defs>
       <use xlink:href="#DejaVuSans-30"/>
      </g>
     </g>
    </g>
    <g id="xtick_2">
     <g id="line2d_3">
      <path d="M 229.805505 512.64 
L 229.805505 69.12 
" clip-path="url(#pbf858f6d53)" style="fill: none; stroke: #b0b0b0; stroke-width: 0.8; stroke-linecap: square"/>
     </g>
     <g id="line2d_4">
      <g>
       <use xlink:href="#m0ad7f3cd52" x="229.805505" y="512.64" style="stroke: #000000; stroke-width: 0.8"/>
      </g>
     </g>
     <g id="text_2">
      <!-- 1000 -->
      <g transform="translate(191.630505 542.435313) scale(0.3 -0.3)">
       <defs>
        <path id="DejaVuSans-31" d="M 794 531 
L 1825 531 
L 1825 4091 
L 703 3866 
L 703 4441 
L 1819 4666 
L 2450 4666 
L 2450 531 
L 3481 531 
L 3481 0 
L 794 0 
L 794 531 
z
" transform="scale(0.015625)"/>
       </defs>
       <use xlink:href="#DejaVuSans-31"/>
       <use xlink:href="#DejaVuSans-30" x="63.623047"/>
       <use xlink:href="#DejaVuSans-30" x="127.246094"/>
       <use xlink:href="#DejaVuSans-30" x="190.869141"/>
      </g>
     </g>
    </g>
    <g id="xtick_3">
     <g id="line2d_5">
      <path d="M 322.190886 512.64 
L 322.190886 69.12 
" clip-path="url(#pbf858f6d53)" style="fill: none; stroke: #b0b0b0; stroke-width: 0.8; stroke-linecap: square"/>
     </g>
     <g id="line2d_6">
      <g>
       <use xlink:href="#m0ad7f3cd52" x="322.190886" y="512.64" style="stroke: #000000; stroke-width: 0.8"/>
      </g>
     </g>
     <g id="text_3">
      <!-- 2000 -->
      <g transform="translate(284.015886 542.435313) scale(0.3 -0.3)">
       <defs>
        <path id="DejaVuSans-32" d="M 1228 531 
L 3431 531 
L 3431 0 
L 469 0 
L 469 531 
Q 828 903 1448 1529 
Q 2069 2156 2228 2338 
Q 2531 2678 2651 2914 
Q 2772 3150 2772 3378 
Q 2772 3750 2511 3984 
Q 2250 4219 1831 4219 
Q 1534 4219 1204 4116 
Q 875 4013 500 3803 
L 500 4441 
Q 881 4594 1212 4672 
Q 1544 4750 1819 4750 
Q 2544 4750 2975 4387 
Q 3406 4025 3406 3419 
Q 3406 3131 3298 2873 
Q 3191 2616 2906 2266 
Q 2828 2175 2409 1742 
Q 1991 1309 1228 531 
z
" transform="scale(0.015625)"/>
       </defs>
       <use xlink:href="#DejaVuSans-32"/>
       <use xlink:href="#DejaVuSans-30" x="63.623047"/>
       <use xlink:href="#DejaVuSans-30" x="127.246094"/>
       <use xlink:href="#DejaVuSans-30" x="190.869141"/>
      </g>
     </g>
    </g>
    <g id="xtick_4">
     <g id="line2d_7">
      <path d="M 414.576266 512.64 
L 414.576266 69.12 
" clip-path="url(#pbf858f6d53)" style="fill: none; stroke: #b0b0b0; stroke-width: 0.8; stroke-linecap: square"/>
     </g>
     <g id="line2d_8">
      <g>
       <use xlink:href="#m0ad7f3cd52" x="414.576266" y="512.64" style="stroke: #000000; stroke-width: 0.8"/>
      </g>
     </g>
     <g id="text_4">
      <!-- 3000 -->
      <g transform="translate(376.401266 542.435313) scale(0.3 -0.3)">
       <defs>
        <path id="DejaVuSans-33" d="M 2597 2516 
Q 3050 2419 3304 2112 
Q 3559 1806 3559 1356 
Q 3559 666 3084 287 
Q 2609 -91 1734 -91 
Q 1441 -91 1130 -33 
Q 819 25 488 141 
L 488 750 
Q 750 597 1062 519 
Q 1375 441 1716 441 
Q 2309 441 2620 675 
Q 2931 909 2931 1356 
Q 2931 1769 2642 2001 
Q 2353 2234 1838 2234 
L 1294 2234 
L 1294 2753 
L 1863 2753 
Q 2328 2753 2575 2939 
Q 2822 3125 2822 3475 
Q 2822 3834 2567 4026 
Q 2313 4219 1838 4219 
Q 1578 4219 1281 4162 
Q 984 4106 628 3988 
L 628 4550 
Q 988 4650 1302 4700 
Q 1616 4750 1894 4750 
Q 2613 4750 3031 4423 
Q 3450 4097 3450 3541 
Q 3450 3153 3228 2886 
Q 3006 2619 2597 2516 
z
" transform="scale(0.015625)"/>
       </defs>
       <use xlink:href="#DejaVuSans-33"/>
       <use xlink:href="#DejaVuSans-30" x="63.623047"/>
       <use xlink:href="#DejaVuSans-30" x="127.246094"/>
       <use xlink:href="#DejaVuSans-30" x="190.869141"/>
      </g>
     </g>
    </g>
    <g id="xtick_5">
     <g id="line2d_9">
      <path d="M 506.961647 512.64 
L 506.961647 69.12 
" clip-path="url(#pbf858f6d53)" style="fill: none; stroke: #b0b0b0; stroke-width: 0.8; stroke-linecap: square"/>
     </g>
     <g id="line2d_10">
      <g>
       <use xlink:href="#m0ad7f3cd52" x="506.961647" y="512.64" style="stroke: #000000; stroke-width: 0.8"/>
      </g>
     </g>
     <g id="text_5">
      <!-- 4000 -->
      <g transform="translate(468.786647 542.435313) scale(0.3 -0.3)">
       <defs>
        <path id="DejaVuSans-34" d="M 2419 4116 
L 825 1625 
L 2419 1625 
L 2419 4116 
z
M 2253 4666 
L 3047 4666 
L 3047 1625 
L 3713 1625 
L 3713 1100 
L 3047 1100 
L 3047 0 
L 2419 0 
L 2419 1100 
L 313 1100 
L 313 1709 
L 2253 4666 
z
" transform="scale(0.015625)"/>
       </defs>
       <use xlink:href="#DejaVuSans-34"/>
       <use xlink:href="#DejaVuSans-30" x="63.623047"/>
       <use xlink:href="#DejaVuSans-30" x="127.246094"/>
       <use xlink:href="#DejaVuSans-30" x="190.869141"/>
      </g>
     </g>
    </g>
    <g id="xtick_6">
     <g id="line2d_11">
      <path d="M 599.347027 512.64 
L 599.347027 69.12 
" clip-path="url(#pbf858f6d53)" style="fill: none; stroke: #b0b0b0; stroke-width: 0.8; stroke-linecap: square"/>
     </g>
     <g id="line2d_12">
      <g>
       <use xlink:href="#m0ad7f3cd52" x="599.347027" y="512.64" style="stroke: #000000; stroke-width: 0.8"/>
      </g>
     </g>
     <g id="text_6">
      <!-- 5000 -->
      <g transform="translate(561.172027 542.435313) scale(0.3 -0.3)">
       <defs>
        <path id="DejaVuSans-35" d="M 691 4666 
L 3169 4666 
L 3169 4134 
L 1269 4134 
L 1269 2991 
Q 1406 3038 1543 3061 
Q 1681 3084 1819 3084 
Q 2600 3084 3056 2656 
Q 3513 2228 3513 1497 
Q 3513 744 3044 326 
Q 2575 -91 1722 -91 
Q 1428 -91 1123 -41 
Q 819 9 494 109 
L 494 744 
Q 775 591 1075 516 
Q 1375 441 1709 441 
Q 2250 441 2565 725 
Q 2881 1009 2881 1497 
Q 2881 1984 2565 2268 
Q 2250 2553 1709 2553 
Q 1456 2553 1204 2497 
Q 953 2441 691 2322 
L 691 4666 
z
" transform="scale(0.015625)"/>
       </defs>
       <use xlink:href="#DejaVuSans-35"/>
       <use xlink:href="#DejaVuSans-30" x="63.623047"/>
       <use xlink:href="#DejaVuSans-30" x="127.246094"/>
       <use xlink:href="#DejaVuSans-30" x="190.869141"/>
      </g>
     </g>
    </g>
    <g id="xtick_7">
     <g id="line2d_13">
      <path d="M 691.732408 512.64 
L 691.732408 69.12 
" clip-path="url(#pbf858f6d53)" style="fill: none; stroke: #b0b0b0; stroke-width: 0.8; stroke-linecap: square"/>
     </g>
     <g id="line2d_14">
      <g>
       <use xlink:href="#m0ad7f3cd52" x="691.732408" y="512.64" style="stroke: #000000; stroke-width: 0.8"/>
      </g>
     </g>
     <g id="text_7">
      <!-- 6000 -->
      <g transform="translate(653.557408 542.435313) scale(0.3 -0.3)">
       <defs>
        <path id="DejaVuSans-36" d="M 2113 2584 
Q 1688 2584 1439 2293 
Q 1191 2003 1191 1497 
Q 1191 994 1439 701 
Q 1688 409 2113 409 
Q 2538 409 2786 701 
Q 3034 994 3034 1497 
Q 3034 2003 2786 2293 
Q 2538 2584 2113 2584 
z
M 3366 4563 
L 3366 3988 
Q 3128 4100 2886 4159 
Q 2644 4219 2406 4219 
Q 1781 4219 1451 3797 
Q 1122 3375 1075 2522 
Q 1259 2794 1537 2939 
Q 1816 3084 2150 3084 
Q 2853 3084 3261 2657 
Q 3669 2231 3669 1497 
Q 3669 778 3244 343 
Q 2819 -91 2113 -91 
Q 1303 -91 875 529 
Q 447 1150 447 2328 
Q 447 3434 972 4092 
Q 1497 4750 2381 4750 
Q 2619 4750 2861 4703 
Q 3103 4656 3366 4563 
z
" transform="scale(0.015625)"/>
       </defs>
       <use xlink:href="#DejaVuSans-36"/>
       <use xlink:href="#DejaVuSans-30" x="63.623047"/>
       <use xlink:href="#DejaVuSans-30" x="127.246094"/>
       <use xlink:href="#DejaVuSans-30" x="190.869141"/>
      </g>
     </g>
    </g>
    <g id="text_8">
     <!-- Steps -->
     <g transform="translate(386.840625 583.068125) scale(0.4 -0.4)">
      <defs>
       <path id="DejaVuSans-53" d="M 3425 4513 
L 3425 3897 
Q 3066 4069 2747 4153 
Q 2428 4238 2131 4238 
Q 1616 4238 1336 4038 
Q 1056 3838 1056 3469 
Q 1056 3159 1242 3001 
Q 1428 2844 1947 2747 
L 2328 2669 
Q 3034 2534 3370 2195 
Q 3706 1856 3706 1288 
Q 3706 609 3251 259 
Q 2797 -91 1919 -91 
Q 1588 -91 1214 -16 
Q 841 59 441 206 
L 441 856 
Q 825 641 1194 531 
Q 1563 422 1919 422 
Q 2459 422 2753 634 
Q 3047 847 3047 1241 
Q 3047 1584 2836 1778 
Q 2625 1972 2144 2069 
L 1759 2144 
Q 1053 2284 737 2584 
Q 422 2884 422 3419 
Q 422 4038 858 4394 
Q 1294 4750 2059 4750 
Q 2388 4750 2728 4690 
Q 3069 4631 3425 4513 
z
" transform="scale(0.015625)"/>
       <path id="DejaVuSans-74" d="M 1172 4494 
L 1172 3500 
L 2356 3500 
L 2356 3053 
L 1172 3053 
L 1172 1153 
Q 1172 725 1289 603 
Q 1406 481 1766 481 
L 2356 481 
L 2356 0 
L 1766 0 
Q 1100 0 847 248 
Q 594 497 594 1153 
L 594 3053 
L 172 3053 
L 172 3500 
L 594 3500 
L 594 4494 
L 1172 4494 
z
" transform="scale(0.015625)"/>
       <path id="DejaVuSans-65" d="M 3597 1894 
L 3597 1613 
L 953 1613 
Q 991 1019 1311 708 
Q 1631 397 2203 397 
Q 2534 397 2845 478 
Q 3156 559 3463 722 
L 3463 178 
Q 3153 47 2828 -22 
Q 2503 -91 2169 -91 
Q 1331 -91 842 396 
Q 353 884 353 1716 
Q 353 2575 817 3079 
Q 1281 3584 2069 3584 
Q 2775 3584 3186 3129 
Q 3597 2675 3597 1894 
z
M 3022 2063 
Q 3016 2534 2758 2815 
Q 2500 3097 2075 3097 
Q 1594 3097 1305 2825 
Q 1016 2553 972 2059 
L 3022 2063 
z
" transform="scale(0.015625)"/>
       <path id="DejaVuSans-70" d="M 1159 525 
L 1159 -1331 
L 581 -1331 
L 581 3500 
L 1159 3500 
L 1159 2969 
Q 1341 3281 1617 3432 
Q 1894 3584 2278 3584 
Q 2916 3584 3314 3078 
Q 3713 2572 3713 1747 
Q 3713 922 3314 415 
Q 2916 -91 2278 -91 
Q 1894 -91 1617 61 
Q 1341 213 1159 525 
z
M 3116 1747 
Q 3116 2381 2855 2742 
Q 2594 3103 2138 3103 
Q 1681 3103 1420 2742 
Q 1159 2381 1159 1747 
Q 1159 1113 1420 752 
Q 1681 391 2138 391 
Q 2594 391 2855 752 
Q 3116 1113 3116 1747 
z
" transform="scale(0.015625)"/>
       <path id="DejaVuSans-73" d="M 2834 3397 
L 2834 2853 
Q 2591 2978 2328 3040 
Q 2066 3103 1784 3103 
Q 1356 3103 1142 2972 
Q 928 2841 928 2578 
Q 928 2378 1081 2264 
Q 1234 2150 1697 2047 
L 1894 2003 
Q 2506 1872 2764 1633 
Q 3022 1394 3022 966 
Q 3022 478 2636 193 
Q 2250 -91 1575 -91 
Q 1294 -91 989 -36 
Q 684 19 347 128 
L 347 722 
Q 666 556 975 473 
Q 1284 391 1588 391 
Q 1994 391 2212 530 
Q 2431 669 2431 922 
Q 2431 1156 2273 1281 
Q 2116 1406 1581 1522 
L 1381 1569 
Q 847 1681 609 1914 
Q 372 2147 372 2553 
Q 372 3047 722 3315 
Q 1072 3584 1716 3584 
Q 2034 3584 2315 3537 
Q 2597 3491 2834 3397 
z
" transform="scale(0.015625)"/>
      </defs>
      <use xlink:href="#DejaVuSans-53"/>
      <use xlink:href="#DejaVuSans-74" x="63.476562"/>
      <use xlink:href="#DejaVuSans-65" x="102.685547"/>
      <use xlink:href="#DejaVuSans-70" x="164.208984"/>
      <use xlink:href="#DejaVuSans-73" x="227.685547"/>
     </g>
    </g>
   </g>
   <g id="matplotlib.axis_2">
    <g id="ytick_1">
     <g id="line2d_15">
      <path d="M 108 507.411823 
L 777.6 507.411823 
" clip-path="url(#pbf858f6d53)" style="fill: none; stroke: #b0b0b0; stroke-width: 0.8; stroke-linecap: square"/>
     </g>
     <g id="line2d_16">
      <defs>
       <path id="mf51c06a479" d="M 0 0 
L -3.5 0 
" style="stroke: #000000; stroke-width: 0.8"/>
      </defs>
      <g>
       <use xlink:href="#mf51c06a479" x="108" y="507.411823" style="stroke: #000000; stroke-width: 0.8"/>
      </g>
     </g>
     <g id="text_9">
      <!-- −0.100 -->
      <g transform="translate(-10.023438 518.809479) scale(0.3 -0.3)">
       <defs>
        <path id="DejaVuSans-2212" d="M 678 2272 
L 4684 2272 
L 4684 1741 
L 678 1741 
L 678 2272 
z
" transform="scale(0.015625)"/>
        <path id="DejaVuSans-2e" d="M 684 794 
L 1344 794 
L 1344 0 
L 684 0 
L 684 794 
z
" transform="scale(0.015625)"/>
       </defs>
       <use xlink:href="#DejaVuSans-2212"/>
       <use xlink:href="#DejaVuSans-30" x="83.789062"/>
       <use xlink:href="#DejaVuSans-2e" x="147.412109"/>
       <use xlink:href="#DejaVuSans-31" x="179.199219"/>
       <use xlink:href="#DejaVuSans-30" x="242.822266"/>
       <use xlink:href="#DejaVuSans-30" x="306.445312"/>
      </g>
     </g>
    </g>
    <g id="ytick_2">
     <g id="line2d_17">
      <path d="M 108 448.904308 
L 777.6 448.904308 
" clip-path="url(#pbf858f6d53)" style="fill: none; stroke: #b0b0b0; stroke-width: 0.8; stroke-linecap: square"/>
     </g>
     <g id="line2d_18">
      <g>
       <use xlink:href="#mf51c06a479" x="108" y="448.904308" style="stroke: #000000; stroke-width: 0.8"/>
      </g>
     </g>
     <g id="text_10">
      <!-- −0.075 -->
      <g transform="translate(-10.023438 460.301964) scale(0.3 -0.3)">
       <defs>
        <path id="DejaVuSans-37" d="M 525 4666 
L 3525 4666 
L 3525 4397 
L 1831 0 
L 1172 0 
L 2766 4134 
L 525 4134 
L 525 4666 
z
" transform="scale(0.015625)"/>
       </defs>
       <use xlink:href="#DejaVuSans-2212"/>
       <use xlink:href="#DejaVuSans-30" x="83.789062"/>
       <use xlink:href="#DejaVuSans-2e" x="147.412109"/>
       <use xlink:href="#DejaVuSans-30" x="179.199219"/>
       <use xlink:href="#DejaVuSans-37" x="242.822266"/>
       <use xlink:href="#DejaVuSans-35" x="306.445312"/>
      </g>
     </g>
    </g>
    <g id="ytick_3">
     <g id="line2d_19">
      <path d="M 108 390.396792 
L 777.6 390.396792 
" clip-path="url(#pbf858f6d53)" style="fill: none; stroke: #b0b0b0; stroke-width: 0.8; stroke-linecap: square"/>
     </g>
     <g id="line2d_20">
      <g>
       <use xlink:href="#mf51c06a479" x="108" y="390.396792" style="stroke: #000000; stroke-width: 0.8"/>
      </g>
     </g>
     <g id="text_11">
      <!-- −0.050 -->
      <g transform="translate(-10.023438 401.794448) scale(0.3 -0.3)">
       <use xlink:href="#DejaVuSans-2212"/>
       <use xlink:href="#DejaVuSans-30" x="83.789062"/>
       <use xlink:href="#DejaVuSans-2e" x="147.412109"/>
       <use xlink:href="#DejaVuSans-30" x="179.199219"/>
       <use xlink:href="#DejaVuSans-35" x="242.822266"/>
       <use xlink:href="#DejaVuSans-30" x="306.445312"/>
      </g>
     </g>
    </g>
    <g id="ytick_4">
     <g id="line2d_21">
      <path d="M 108 331.889277 
L 777.6 331.889277 
" clip-path="url(#pbf858f6d53)" style="fill: none; stroke: #b0b0b0; stroke-width: 0.8; stroke-linecap: square"/>
     </g>
     <g id="line2d_22">
      <g>
       <use xlink:href="#mf51c06a479" x="108" y="331.889277" style="stroke: #000000; stroke-width: 0.8"/>
      </g>
     </g>
     <g id="text_12">
      <!-- −0.025 -->
      <g transform="translate(-10.023438 343.286933) scale(0.3 -0.3)">
       <use xlink:href="#DejaVuSans-2212"/>
       <use xlink:href="#DejaVuSans-30" x="83.789062"/>
       <use xlink:href="#DejaVuSans-2e" x="147.412109"/>
       <use xlink:href="#DejaVuSans-30" x="179.199219"/>
       <use xlink:href="#DejaVuSans-32" x="242.822266"/>
       <use xlink:href="#DejaVuSans-35" x="306.445312"/>
      </g>
     </g>
    </g>
    <g id="ytick_5">
     <g id="line2d_23">
      <path d="M 108 273.381761 
L 777.6 273.381761 
" clip-path="url(#pbf858f6d53)" style="fill: none; stroke: #b0b0b0; stroke-width: 0.8; stroke-linecap: square"/>
     </g>
     <g id="line2d_24">
      <g>
       <use xlink:href="#mf51c06a479" x="108" y="273.381761" style="stroke: #000000; stroke-width: 0.8"/>
      </g>
     </g>
     <g id="text_13">
      <!-- 0.000 -->
      <g transform="translate(15.115625 284.779417) scale(0.3 -0.3)">
       <use xlink:href="#DejaVuSans-30"/>
       <use xlink:href="#DejaVuSans-2e" x="63.623047"/>
       <use xlink:href="#DejaVuSans-30" x="95.410156"/>
       <use xlink:href="#DejaVuSans-30" x="159.033203"/>
       <use xlink:href="#DejaVuSans-30" x="222.65625"/>
      </g>
     </g>
    </g>
    <g id="ytick_6">
     <g id="line2d_25">
      <path d="M 108 214.874246 
L 777.6 214.874246 
" clip-path="url(#pbf858f6d53)" style="fill: none; stroke: #b0b0b0; stroke-width: 0.8; stroke-linecap: square"/>
     </g>
     <g id="line2d_26">
      <g>
       <use xlink:href="#mf51c06a479" x="108" y="214.874246" style="stroke: #000000; stroke-width: 0.8"/>
      </g>
     </g>
     <g id="text_14">
      <!-- 0.025 -->
      <g transform="translate(15.115625 226.271902) scale(0.3 -0.3)">
       <use xlink:href="#DejaVuSans-30"/>
       <use xlink:href="#DejaVuSans-2e" x="63.623047"/>
       <use xlink:href="#DejaVuSans-30" x="95.410156"/>
       <use xlink:href="#DejaVuSans-32" x="159.033203"/>
       <use xlink:href="#DejaVuSans-35" x="222.65625"/>
      </g>
     </g>
    </g>
    <g id="ytick_7">
     <g id="line2d_27">
      <path d="M 108 156.36673 
L 777.6 156.36673 
" clip-path="url(#pbf858f6d53)" style="fill: none; stroke: #b0b0b0; stroke-width: 0.8; stroke-linecap: square"/>
     </g>
     <g id="line2d_28">
      <g>
       <use xlink:href="#mf51c06a479" x="108" y="156.36673" style="stroke: #000000; stroke-width: 0.8"/>
      </g>
     </g>
     <g id="text_15">
      <!-- 0.050 -->
      <g transform="translate(15.115625 167.764386) scale(0.3 -0.3)">
       <use xlink:href="#DejaVuSans-30"/>
       <use xlink:href="#DejaVuSans-2e" x="63.623047"/>
       <use xlink:href="#DejaVuSans-30" x="95.410156"/>
       <use xlink:href="#DejaVuSans-35" x="159.033203"/>
       <use xlink:href="#DejaVuSans-30" x="222.65625"/>
      </g>
     </g>
    </g>
    <g id="ytick_8">
     <g id="line2d_29">
      <path d="M 108 97.859214 
L 777.6 97.859214 
" clip-path="url(#pbf858f6d53)" style="fill: none; stroke: #b0b0b0; stroke-width: 0.8; stroke-linecap: square"/>
     </g>
     <g id="line2d_30">
      <g>
       <use xlink:href="#mf51c06a479" x="108" y="97.859214" style="stroke: #000000; stroke-width: 0.8"/>
      </g>
     </g>
     <g id="text_16">
      <!-- 0.075 -->
      <g transform="translate(15.115625 109.256871) scale(0.3 -0.3)">
       <use xlink:href="#DejaVuSans-30"/>
       <use xlink:href="#DejaVuSans-2e" x="63.623047"/>
       <use xlink:href="#DejaVuSans-30" x="95.410156"/>
       <use xlink:href="#DejaVuSans-37" x="159.033203"/>
       <use xlink:href="#DejaVuSans-35" x="222.65625"/>
      </g>
     </g>
    </g>
    <g id="text_17">
     <!-- Pearson -->
     <g transform="translate(-22.342188 370.33) rotate(-90) scale(0.4 -0.4)">
      <defs>
       <path id="DejaVuSans-50" d="M 1259 4147 
L 1259 2394 
L 2053 2394 
Q 2494 2394 2734 2622 
Q 2975 2850 2975 3272 
Q 2975 3691 2734 3919 
Q 2494 4147 2053 4147 
L 1259 4147 
z
M 628 4666 
L 2053 4666 
Q 2838 4666 3239 4311 
Q 3641 3956 3641 3272 
Q 3641 2581 3239 2228 
Q 2838 1875 2053 1875 
L 1259 1875 
L 1259 0 
L 628 0 
L 628 4666 
z
" transform="scale(0.015625)"/>
       <path id="DejaVuSans-61" d="M 2194 1759 
Q 1497 1759 1228 1600 
Q 959 1441 959 1056 
Q 959 750 1161 570 
Q 1363 391 1709 391 
Q 2188 391 2477 730 
Q 2766 1069 2766 1631 
L 2766 1759 
L 2194 1759 
z
M 3341 1997 
L 3341 0 
L 2766 0 
L 2766 531 
Q 2569 213 2275 61 
Q 1981 -91 1556 -91 
Q 1019 -91 701 211 
Q 384 513 384 1019 
Q 384 1609 779 1909 
Q 1175 2209 1959 2209 
L 2766 2209 
L 2766 2266 
Q 2766 2663 2505 2880 
Q 2244 3097 1772 3097 
Q 1472 3097 1187 3025 
Q 903 2953 641 2809 
L 641 3341 
Q 956 3463 1253 3523 
Q 1550 3584 1831 3584 
Q 2591 3584 2966 3190 
Q 3341 2797 3341 1997 
z
" transform="scale(0.015625)"/>
       <path id="DejaVuSans-72" d="M 2631 2963 
Q 2534 3019 2420 3045 
Q 2306 3072 2169 3072 
Q 1681 3072 1420 2755 
Q 1159 2438 1159 1844 
L 1159 0 
L 581 0 
L 581 3500 
L 1159 3500 
L 1159 2956 
Q 1341 3275 1631 3429 
Q 1922 3584 2338 3584 
Q 2397 3584 2469 3576 
Q 2541 3569 2628 3553 
L 2631 2963 
z
" transform="scale(0.015625)"/>
       <path id="DejaVuSans-6f" d="M 1959 3097 
Q 1497 3097 1228 2736 
Q 959 2375 959 1747 
Q 959 1119 1226 758 
Q 1494 397 1959 397 
Q 2419 397 2687 759 
Q 2956 1122 2956 1747 
Q 2956 2369 2687 2733 
Q 2419 3097 1959 3097 
z
M 1959 3584 
Q 2709 3584 3137 3096 
Q 3566 2609 3566 1747 
Q 3566 888 3137 398 
Q 2709 -91 1959 -91 
Q 1206 -91 779 398 
Q 353 888 353 1747 
Q 353 2609 779 3096 
Q 1206 3584 1959 3584 
z
" transform="scale(0.015625)"/>
       <path id="DejaVuSans-6e" d="M 3513 2113 
L 3513 0 
L 2938 0 
L 2938 2094 
Q 2938 2591 2744 2837 
Q 2550 3084 2163 3084 
Q 1697 3084 1428 2787 
Q 1159 2491 1159 1978 
L 1159 0 
L 581 0 
L 581 3500 
L 1159 3500 
L 1159 2956 
Q 1366 3272 1645 3428 
Q 1925 3584 2291 3584 
Q 2894 3584 3203 3211 
Q 3513 2838 3513 2113 
z
" transform="scale(0.015625)"/>
      </defs>
      <use xlink:href="#DejaVuSans-50"/>
      <use xlink:href="#DejaVuSans-65" x="56.677734"/>
      <use xlink:href="#DejaVuSans-61" x="118.201172"/>
      <use xlink:href="#DejaVuSans-72" x="179.480469"/>
      <use xlink:href="#DejaVuSans-73" x="220.59375"/>
      <use xlink:href="#DejaVuSans-6f" x="272.693359"/>
      <use xlink:href="#DejaVuSans-6e" x="333.875"/>
     </g>
    </g>
   </g>
   <g id="line2d_31">
    <path d="M 138.436364 119.505227 
L 139.452603 89.607442 
L 140.468842 89.28 
L 141.485081 102.777826 
L 142.50132 127.055581 
L 143.51756 134.42874 
L 144.533799 165.489459 
L 145.550038 200.6299 
L 146.566277 227.175653 
L 147.582516 244.062801 
L 149.614995 266.670101 
L 150.631234 262.289662 
L 151.647473 264.005086 
L 152.663712 275.311889 
L 153.679951 264.062378 
L 154.696191 273.363524 
L 155.71243 263.225122 
L 156.728669 255.897014 
L 157.744908 258.467921 
L 158.761147 252.197257 
L 161.809865 272.978854 
L 162.826104 281.561811 
L 166.891061 310.872269 
L 167.9073 315.466022 
L 168.923539 314.489818 
L 169.939778 330.633776 
L 170.956018 343.130325 
L 171.972257 357.446177 
L 172.988496 354.018126 
L 175.020974 348.180761 
L 176.037214 346.440485 
L 177.053453 343.176993 
L 178.069692 342.888267 
L 179.085931 343.537276 
L 180.10217 346.059886 
L 181.118409 354.014959 
L 182.134649 356.961669 
L 183.150888 346.12112 
L 184.167127 357.812008 
L 185.183366 358.775415 
L 186.199605 372.581263 
L 187.215845 371.204016 
L 188.232084 368.471252 
L 189.248323 372.602123 
L 190.264562 372.930639 
L 191.280801 377.190397 
L 192.297041 379.149389 
L 193.31328 379.818869 
L 194.329519 380.037729 
L 195.345758 375.589606 
L 196.361997 367.759844 
L 197.378236 354.84616 
L 198.394476 343.699746 
L 199.410715 345.104333 
L 200.426954 332.11072 
L 201.443193 325.869091 
L 202.459432 314.825831 
L 204.491911 325.719704 
L 205.50815 326.849758 
L 206.524389 320.448281 
L 207.540628 325.198196 
L 209.573107 337.346001 
L 210.589346 339.109082 
L 211.605585 341.312635 
L 212.621824 344.923783 
L 213.638063 359.444755 
L 214.654303 357.457995 
L 215.670542 351.728422 
L 216.686781 344.01186 
L 217.70302 351.996053 
L 218.719259 364.067345 
L 219.735499 369.649093 
L 220.751738 373.335107 
L 221.767977 372.461261 
L 222.784216 374.871785 
L 223.800455 375.781516 
L 224.816694 377.306765 
L 225.832934 383.6792 
L 226.849173 391.946272 
L 228.881651 416.448478 
L 229.89789 425.317111 
L 230.91413 432.345751 
L 231.930369 435.20167 
L 232.946608 440.395047 
L 233.962847 437.979584 
L 234.979086 441.73134 
L 235.995326 446.674321 
L 237.011565 452.619911 
L 238.027804 451.460568 
L 239.044043 439.541617 
L 240.060282 420.381111 
L 241.076521 413.047843 
L 242.092761 404.074811 
L 243.109 397.501433 
L 244.125239 389.7189 
L 245.141478 388.59467 
L 246.157717 392.572398 
L 247.173957 398.0871 
L 248.190196 400.522151 
L 249.206435 397.236937 
L 250.222674 397.122011 
L 251.238913 396.149496 
L 252.255153 391.494351 
L 253.271392 389.013123 
L 254.287631 386.917827 
L 256.320109 381.093692 
L 258.352588 375.237236 
L 259.368827 370.526355 
L 260.385066 370.233943 
L 261.401305 371.673884 
L 262.417544 374.651753 
L 263.433784 374.722788 
L 264.450023 381.403573 
L 265.466262 379.234746 
L 266.482501 377.653305 
L 267.49874 379.582837 
L 268.51498 377.104547 
L 269.531219 384.209349 
L 270.547458 397.380199 
L 272.579936 407.961053 
L 273.596175 411.675852 
L 274.612415 413.652599 
L 275.628654 417.539098 
L 276.644893 416.160507 
L 277.661132 414.33111 
L 278.677371 414.074112 
L 279.693611 410.190085 
L 280.70985 411.342169 
L 281.726089 407.617124 
L 282.742328 410.624945 
L 283.758567 409.300763 
L 284.774806 402.420192 
L 285.791046 404.474979 
L 286.807285 396.661414 
L 287.823524 392.230866 
L 288.839763 388.520524 
L 289.856002 387.239729 
L 290.872242 385.04936 
L 291.888481 386.13677 
L 292.90472 376.528822 
L 293.920959 372.596044 
L 294.937198 369.461875 
L 295.953438 371.658942 
L 296.969677 373.512044 
L 297.985916 377.491543 
L 299.002155 378.233369 
L 300.018394 377.35141 
L 301.034633 377.223466 
L 302.050873 376.074916 
L 303.067112 370.462566 
L 304.083351 369.919289 
L 305.09959 373.203648 
L 306.115829 366.053503 
L 307.132069 364.960615 
L 308.148308 362.99449 
L 309.164547 368.534453 
L 310.180786 368.730983 
L 311.197025 368.185664 
L 312.213265 369.453337 
L 313.229504 357.515616 
L 314.245743 353.415688 
L 315.261982 359.892585 
L 316.278221 349.066594 
L 317.29446 349.926471 
L 318.3107 345.670387 
L 319.326939 346.490331 
L 320.343178 351.575755 
L 321.359417 353.154445 
L 322.375656 345.200226 
L 323.391896 344.13728 
L 324.408135 341.41804 
L 325.424374 341.606918 
L 326.440613 337.545288 
L 327.456852 334.79926 
L 328.473092 333.628397 
L 330.50557 320.554925 
L 331.521809 324.045803 
L 332.538048 315.869132 
L 333.554287 323.653005 
L 334.570527 322.855676 
L 335.586766 319.431427 
L 336.603005 313.633819 
L 337.619244 310.037708 
L 338.635483 305.414077 
L 339.651723 290.293262 
L 340.667962 294.622976 
L 341.684201 290.673174 
L 342.70044 285.471024 
L 343.716679 298.770297 
L 344.732919 301.400647 
L 345.749158 302.801428 
L 346.765397 306.279912 
L 347.781636 309.140576 
L 348.797875 312.604745 
L 349.814114 314.964686 
L 350.830354 312.420816 
L 351.846593 310.909597 
L 352.862832 330.144685 
L 353.879071 335.892907 
L 354.89531 332.725638 
L 355.91155 339.938462 
L 356.927789 344.175124 
L 357.944028 341.140368 
L 358.960267 336.44438 
L 359.976506 349.332646 
L 360.992745 364.829508 
L 362.008985 367.608101 
L 363.025224 380.200024 
L 364.041463 382.901211 
L 365.057702 388.01436 
L 366.073941 386.63683 
L 367.090181 398.99139 
L 368.10642 400.655367 
L 369.122659 392.430017 
L 370.138898 409.068806 
L 371.155137 403.781863 
L 372.171377 409.646305 
L 373.187616 417.096119 
L 374.203855 414.56501 
L 375.220094 418.768339 
L 376.236333 418.650972 
L 377.252572 425.307044 
L 378.268812 436.152859 
L 379.285051 431.603236 
L 381.317529 398.488523 
L 382.333768 392.526885 
L 383.350008 370.831691 
L 384.366247 362.360196 
L 385.382486 369.842701 
L 386.398725 350.08178 
L 387.414964 348.602166 
L 388.431204 345.661648 
L 389.447443 341.593302 
L 390.463682 332.94347 
L 391.479921 326.82191 
L 392.49616 313.150231 
L 395.544878 267.78424 
L 396.561117 266.84022 
L 397.577356 259.498811 
L 398.593595 265.423545 
L 399.609835 276.068686 
L 400.626074 260.642016 
L 401.642313 255.650322 
L 402.658552 262.024112 
L 403.674791 247.688216 
L 404.691031 245.519626 
L 405.70727 234.697578 
L 406.723509 226.939262 
L 407.739748 217.665984 
L 408.755987 206.199649 
L 409.772226 214.889135 
L 411.804705 235.903824 
L 412.820944 234.235548 
L 414.853422 253.283646 
L 415.869662 258.055398 
L 416.885901 273.362203 
L 417.90214 280.778801 
L 418.918379 294.265569 
L 419.934618 300.308966 
L 420.950857 304.966874 
L 421.967097 304.909894 
L 422.983336 312.402133 
L 423.999575 321.173846 
L 425.015814 333.328388 
L 427.048293 362.520032 
L 428.064532 370.917573 
L 429.080771 374.88883 
L 430.09701 381.878974 
L 432.129489 394.069551 
L 433.145728 390.05786 
L 434.161967 404.156196 
L 435.178206 410.42343 
L 436.194445 421.222206 
L 437.210684 426.079723 
L 438.226924 436.551643 
L 441.275641 444.034516 
L 442.29188 459.475069 
L 443.30812 465.435914 
L 444.324359 470.511964 
L 445.340598 471.981274 
L 446.356837 468.321851 
L 447.373076 476.688039 
L 448.389316 469.819676 
L 449.405555 453.71473 
L 450.421794 457.161791 
L 451.438033 458.248747 
L 452.454272 444.432488 
L 453.470511 451.807372 
L 454.486751 439.310378 
L 455.50299 439.514884 
L 456.519229 431.618825 
L 457.535468 417.20604 
L 458.551707 416.445086 
L 459.567947 408.636931 
L 460.584186 406.604054 
L 461.600425 400.335908 
L 462.616664 398.385887 
L 463.632903 386.576343 
L 464.649143 384.654676 
L 465.665382 381.613641 
L 466.681621 390.595245 
L 468.714099 380.915674 
L 469.730338 367.310963 
L 470.746578 362.003373 
L 471.762817 371.196908 
L 472.779056 355.955719 
L 473.795295 350.76228 
L 474.811534 349.753152 
L 475.827774 350.046996 
L 476.844013 338.82749 
L 477.860252 321.915747 
L 478.876491 321.819563 
L 479.89273 333.717812 
L 480.908969 322.477912 
L 481.925209 319.953308 
L 482.941448 325.685615 
L 483.957687 304.623134 
L 484.973926 318.982498 
L 485.990165 310.641106 
L 487.006405 312.892293 
L 488.022644 315.884447 
L 489.038883 298.933084 
L 490.055122 292.076006 
L 491.071361 286.91183 
L 492.087601 296.833016 
L 493.10384 296.233692 
L 494.120079 312.537243 
L 495.136318 295.205558 
L 496.152557 292.345927 
L 497.168796 277.576299 
L 498.185036 285.084801 
L 499.201275 278.392852 
L 500.217514 284.712739 
L 501.233753 290.252575 
L 502.249992 274.085368 
L 503.266232 273.918365 
L 504.282471 278.061805 
L 505.29871 264.452237 
L 506.314949 246.282753 
L 508.347428 275.260712 
L 509.363667 279.49109 
L 510.379906 266.466755 
L 511.396145 259.264991 
L 512.412384 247.92865 
L 513.428623 251.767342 
L 514.444863 267.947704 
L 515.461102 254.564001 
L 516.477341 251.728274 
L 517.49358 253.610209 
L 518.509819 246.193176 
L 519.526059 256.095744 
L 520.542298 255.332742 
L 521.558537 235.613789 
L 522.574776 221.010284 
L 523.591015 215.416981 
L 524.607255 197.284722 
L 525.623494 199.948287 
L 526.639733 199.256931 
L 527.655972 193.841547 
L 528.672211 183.921571 
L 529.68845 187.149076 
L 530.70469 191.499699 
L 531.720929 185.582301 
L 532.737168 198.874506 
L 533.753407 199.940522 
L 534.769646 205.762466 
L 535.785886 206.303404 
L 536.802125 212.660707 
L 537.818364 202.766418 
L 538.834603 184.603475 
L 539.850842 171.577969 
L 540.867081 176.813935 
L 541.883321 193.713214 
L 542.89956 197.295274 
L 543.915799 188.366538 
L 544.932038 178.36678 
L 545.948277 182.390422 
L 546.964517 184.941538 
L 547.980756 180.742213 
L 548.996995 183.678031 
L 550.013234 192.630782 
L 551.029473 195.572876 
L 552.045713 208.842499 
L 553.061952 230.641793 
L 554.078191 240.181822 
L 555.09443 233.687371 
L 556.110669 226.170336 
L 557.126908 237.086411 
L 558.143148 234.510255 
L 559.159387 239.803872 
L 560.175626 242.438137 
L 561.191865 241.240017 
L 562.208104 238.01572 
L 563.224344 225.505937 
L 564.240583 224.378772 
L 565.256822 216.462041 
L 566.273061 211.518166 
L 567.2893 213.355656 
L 568.30554 209.471315 
L 569.321779 209.095926 
L 570.338018 212.818117 
L 571.354257 222.561522 
L 572.370496 213.292041 
L 573.386735 217.472896 
L 574.402975 222.276686 
L 575.419214 233.407628 
L 576.435453 242.730357 
L 577.451692 246.313889 
L 578.467931 244.344063 
L 579.484171 244.468279 
L 580.50041 230.526324 
L 581.516649 233.510393 
L 582.532888 238.941873 
L 583.549127 228.708823 
L 584.565367 225.798233 
L 585.581606 239.71014 
L 586.597845 255.887284 
L 587.614084 242.065824 
L 588.630323 233.286485 
L 589.646562 228.838688 
L 590.662802 232.608932 
L 591.679041 237.327089 
L 592.69528 239.735992 
L 593.711519 240.880991 
L 594.727758 239.904627 
L 595.743998 243.822809 
L 597.776476 261.938312 
L 598.792715 260.782322 
L 599.808954 261.62828 
L 600.825194 267.690581 
L 601.841433 270.616436 
L 602.857672 285.104419 
L 603.873911 285.7276 
L 604.89015 290.747851 
L 605.906389 289.126266 
L 606.922629 298.156353 
L 607.938868 303.149954 
L 608.955107 314.960885 
L 609.971346 318.971508 
L 610.987585 326.812664 
L 612.003825 318.029863 
L 613.020064 321.279756 
L 614.036303 323.736106 
L 615.052542 323.125953 
L 616.068781 326.854173 
L 617.08502 327.813522 
L 618.10126 323.610354 
L 619.117499 341.811268 
L 621.149977 340.307404 
L 622.166216 330.733712 
L 623.182456 333.329512 
L 625.214934 360.412035 
L 626.231173 357.729185 
L 627.247412 363.580697 
L 628.263652 362.286797 
L 629.279891 360.305123 
L 630.29613 370.435699 
L 631.312369 367.865283 
L 633.344847 342.006745 
L 634.361087 340.005507 
L 635.377326 325.878579 
L 636.393565 319.76131 
L 637.409804 300.46242 
L 638.426043 296.512612 
L 639.442283 287.3943 
L 640.458522 281.960765 
L 641.474761 289.743003 
L 642.491 302.27455 
L 643.507239 303.352484 
L 644.523479 298.481143 
L 645.539718 302.467211 
L 646.555957 288.813374 
L 647.572196 288.408117 
L 648.588435 278.927202 
L 649.604674 275.105249 
L 650.620914 270.771344 
L 651.637153 259.818904 
L 652.653392 269.073549 
L 653.669631 263.279555 
L 654.68587 252.645309 
L 655.70211 245.58233 
L 656.718349 245.660965 
L 657.734588 234.347828 
L 659.767066 238.719137 
L 660.783306 234.893622 
L 661.799545 225.140793 
L 662.815784 219.685291 
L 663.832023 218.869397 
L 664.848262 222.218729 
L 667.89698 243.144657 
L 668.913219 240.566271 
L 669.929458 249.848309 
L 670.945697 262.163821 
L 671.961937 253.488667 
L 672.978176 252.091738 
L 673.994415 251.853939 
L 675.010654 258.903574 
L 676.026893 260.833227 
L 677.043132 268.618607 
L 678.059372 260.068251 
L 679.075611 273.159876 
L 680.09185 261.344688 
L 681.108089 265.971502 
L 682.124328 276.571223 
L 683.140568 265.097927 
L 684.156807 260.021982 
L 685.173046 256.224433 
L 686.189285 254.31743 
L 687.205524 263.403024 
L 688.221764 264.904863 
L 689.238003 267.129151 
L 690.254242 273.664998 
L 691.270481 270.80205 
L 694.319199 276.506032 
L 695.335438 278.064328 
L 696.351677 268.807875 
L 697.367916 260.772148 
L 698.384155 263.80352 
L 699.400395 263.476742 
L 700.416634 246.339735 
L 701.432873 243.735466 
L 702.449112 239.35075 
L 703.465351 240.580983 
L 704.481591 234.249708 
L 705.49783 229.442974 
L 707.530308 212.381796 
L 708.546547 222.651546 
L 709.562786 222.22655 
L 710.579026 244.622195 
L 711.595265 252.286827 
L 712.611504 256.925714 
L 713.627743 264.616737 
L 714.643982 277.389372 
L 715.660222 288.018186 
L 716.676461 287.027677 
L 717.6927 274.168387 
L 718.708939 274.939835 
L 719.725178 273.587432 
L 720.741418 270.352216 
L 721.757657 271.422639 
L 722.773896 268.274289 
L 723.790135 274.741181 
L 724.806374 271.527878 
L 725.822613 273.407834 
L 726.838853 284.101411 
L 727.855092 284.36596 
L 728.871331 287.146876 
L 729.88757 283.28907 
L 730.903809 288.023471 
L 731.920049 280.968057 
L 732.936288 288.038374 
L 733.952527 292.386608 
L 734.968766 300.055902 
L 735.985005 297.797169 
L 737.001244 279.122155 
L 738.017484 293.105453 
L 739.033723 294.035436 
L 740.049962 295.676606 
L 742.08244 272.679365 
L 743.09868 257.489527 
L 744.114919 254.441955 
L 745.131158 256.050376 
L 746.147397 250.839826 
L 747.163636 259.36646 
L 747.163636 259.36646 
" clip-path="url(#pbf858f6d53)" style="fill: none; stroke: #1f77b4; stroke-width: 4; stroke-linecap: square"/>
   </g>
   <g id="line2d_32">
    <path d="M 138.436364 313.937484 
L 139.452603 179.708418 
L 141.485081 274.501208 
L 142.50132 279.020817 
L 143.51756 257.379139 
L 144.533799 263.965496 
L 145.550038 258.917476 
L 146.566277 242.752157 
L 147.582516 230.641348 
L 148.598756 237.305015 
L 149.614995 246.611154 
L 150.631234 242.052796 
L 151.647473 247.892274 
L 152.663712 252.681414 
L 153.679951 252.685457 
L 154.696191 254.438937 
L 155.71243 255.192971 
L 156.728669 258.010773 
L 157.744908 265.069236 
L 158.761147 266.173012 
L 159.777387 270.030069 
L 160.793626 271.828621 
L 161.809865 275.046365 
L 162.826104 277.601437 
L 163.842343 280.571991 
L 164.858582 282.076947 
L 165.874822 280.271769 
L 166.891061 284.994491 
L 167.9073 284.674088 
L 168.923539 285.42123 
L 169.939778 296.942957 
L 170.956018 298.299917 
L 171.972257 292.637834 
L 172.988496 292.166784 
L 174.004735 298.750574 
L 175.020974 298.68237 
L 176.037214 300.971224 
L 178.069692 314.205054 
L 180.10217 317.738472 
L 181.118409 321.372351 
L 182.134649 324.35521 
L 183.150888 331.827815 
L 184.167127 341.882434 
L 185.183366 348.121921 
L 186.199605 357.459837 
L 187.215845 364.928839 
L 188.232084 366.393319 
L 189.248323 374.930729 
L 190.264562 377.702508 
L 191.280801 386.015962 
L 192.297041 390.69648 
L 193.31328 396.416153 
L 194.329519 399.84859 
L 196.361997 408.171403 
L 197.378236 407.765413 
L 198.394476 408.654869 
L 199.410715 400.247386 
L 200.426954 387.7203 
L 201.443193 377.927172 
L 202.459432 372.855195 
L 203.475672 370.815795 
L 204.491911 367.569873 
L 205.50815 366.06102 
L 206.524389 364.772703 
L 207.540628 362.539552 
L 208.556868 357.243374 
L 210.589346 348.012808 
L 212.621824 351.931439 
L 213.638063 344.428652 
L 214.654303 335.638533 
L 215.670542 329.425834 
L 219.735499 284.423628 
L 220.751738 275.98307 
L 221.767977 266.277948 
L 222.784216 260.75229 
L 223.800455 252.383406 
L 225.832934 238.634887 
L 226.849173 238.667301 
L 227.865412 234.444824 
L 228.881651 236.934859 
L 229.89789 242.703797 
L 230.91413 250.640676 
L 231.930369 255.042959 
L 232.946608 256.677819 
L 233.962847 253.65857 
L 234.979086 257.870295 
L 235.995326 264.519686 
L 237.011565 262.209188 
L 238.027804 264.132586 
L 239.044043 265.76235 
L 240.060282 264.559968 
L 241.076521 258.390782 
L 242.092761 265.507538 
L 243.109 250.014287 
L 244.125239 250.835612 
L 245.141478 256.374574 
L 246.157717 256.098971 
L 247.173957 254.203936 
L 248.190196 259.388025 
L 249.206435 269.774565 
L 250.222674 277.4981 
L 251.238913 288.254549 
L 252.255153 291.869172 
L 253.271392 303.253914 
L 254.287631 304.899473 
L 255.30387 318.989667 
L 256.320109 315.523387 
L 257.336348 306.632761 
L 258.352588 300.864189 
L 259.368827 295.801272 
L 260.385066 295.2919 
L 261.401305 294.059213 
L 262.417544 290.667004 
L 263.433784 295.290089 
L 264.450023 290.342565 
L 265.466262 281.146704 
L 266.482501 273.268728 
L 267.49874 275.435218 
L 268.51498 274.911181 
L 269.531219 267.762971 
L 270.547458 269.00823 
L 271.563697 282.039569 
L 272.579936 275.423765 
L 273.596175 286.296313 
L 274.612415 291.339116 
L 275.628654 281.586061 
L 276.644893 285.601876 
L 277.661132 287.05368 
L 278.677371 275.625298 
L 279.693611 253.55731 
L 280.70985 244.747693 
L 281.726089 233.032799 
L 282.742328 236.223759 
L 283.758567 225.389351 
L 284.774806 223.637151 
L 285.791046 212.786096 
L 286.807285 221.507842 
L 287.823524 228.455154 
L 288.839763 233.903115 
L 289.856002 238.139352 
L 290.872242 250.896193 
L 291.888481 248.81146 
L 292.90472 257.164171 
L 293.920959 253.589627 
L 294.937198 250.90798 
L 295.953438 255.545182 
L 296.969677 255.423888 
L 297.985916 250.347331 
L 299.002155 247.510271 
L 300.018394 265.097435 
L 301.034633 266.602729 
L 302.050873 248.390986 
L 303.067112 247.268213 
L 304.083351 243.259393 
L 305.09959 240.220057 
L 306.115829 242.932976 
L 307.132069 248.522831 
L 308.148308 249.107721 
L 309.164547 255.706911 
L 310.180786 281.20412 
L 311.197025 292.301918 
L 312.213265 308.080495 
L 313.229504 325.628102 
L 314.245743 325.628102 
L 315.261982 327.404054 
L 316.278221 326.287215 
L 317.29446 326.950057 
L 318.3107 335.030628 
L 319.326939 332.180299 
L 320.343178 327.140105 
L 321.359417 312.94947 
L 322.375656 319.399131 
L 323.391896 323.383356 
L 324.408135 338.117102 
L 325.424374 349.028921 
L 326.440613 357.157971 
L 327.456852 363.845176 
L 328.473092 360.699783 
L 329.489331 363.199133 
L 330.50557 366.370238 
L 331.521809 363.625861 
L 332.538048 375.728349 
L 333.554287 372.3965 
L 334.570527 373.478878 
L 335.586766 368.589479 
L 336.603005 364.488814 
L 337.619244 355.232813 
L 338.635483 357.418524 
L 339.651723 364.09679 
L 340.667962 354.913275 
L 341.684201 349.524065 
L 342.70044 339.216995 
L 343.716679 316.036534 
L 344.732919 314.633476 
L 345.749158 312.27687 
L 346.765397 312.360365 
L 347.781636 305.757421 
L 348.797875 297.142075 
L 351.846593 303.212475 
L 352.862832 300.937717 
L 353.879071 294.664174 
L 354.89531 284.787127 
L 355.91155 287.175878 
L 356.927789 281.613677 
L 357.944028 281.483153 
L 358.960267 286.107898 
L 359.976506 288.930053 
L 360.992745 276.0129 
L 362.008985 273.152933 
L 363.025224 274.579922 
L 364.041463 274.973323 
L 366.073941 268.481761 
L 367.090181 264.605127 
L 368.10642 262.473723 
L 369.122659 254.834303 
L 370.138898 255.427746 
L 371.155137 262.885967 
L 372.171377 265.679711 
L 375.220094 283.249484 
L 376.236333 291.197539 
L 377.252572 296.1311 
L 378.268812 304.243158 
L 379.285051 310.303372 
L 381.317529 300.083374 
L 384.366247 282.938924 
L 385.382486 275.597252 
L 386.398725 281.609436 
L 387.414964 286.822417 
L 388.431204 288.275086 
L 389.447443 298.286433 
L 390.463682 300.163759 
L 391.479921 295.548452 
L 392.49616 292.188561 
L 393.512399 284.431501 
L 394.528639 279.416114 
L 395.544878 278.035258 
L 396.561117 276.092377 
L 397.577356 275.285407 
L 398.593595 271.914913 
L 399.609835 273.792992 
L 400.626074 265.107492 
L 401.642313 253.405434 
L 402.658552 245.669393 
L 403.674791 234.742322 
L 404.691031 225.410137 
L 405.70727 211.533576 
L 406.723509 208.732826 
L 407.739748 195.797754 
L 409.772226 175.367675 
L 410.788466 179.006241 
L 411.804705 181.592979 
L 412.820944 183.501824 
L 413.837183 186.215155 
L 414.853422 189.407228 
L 415.869662 193.701373 
L 419.934618 160.698852 
L 420.950857 154.103676 
L 421.967097 157.531535 
L 422.983336 160.472378 
L 423.999575 163.923816 
L 425.015814 166.73972 
L 428.064532 174.354233 
L 430.09701 179.678342 
L 432.129489 183.845617 
L 434.161967 186.652479 
L 435.178206 187.61334 
L 436.194445 191.594991 
L 437.210684 185.184988 
L 438.226924 189.025082 
L 440.259402 191.858405 
L 441.275641 191.654703 
L 442.29188 191.583591 
L 443.30812 193.332712 
L 444.324359 194.5962 
L 446.356837 195.615022 
L 447.373076 195.231791 
L 448.389316 194.567873 
L 449.405555 194.457725 
L 450.421794 194.147848 
L 451.438033 193.335357 
L 452.454272 193.689517 
L 453.470511 194.435247 
L 454.486751 194.317199 
L 455.50299 194.471141 
L 456.519229 195.527753 
L 458.551707 195.466606 
L 459.567947 195.092183 
L 460.584186 195.499958 
L 461.600425 195.177392 
L 462.616664 194.33756 
L 463.632903 192.748619 
L 464.649143 189.720537 
L 465.665382 185.474755 
L 466.681621 194.549523 
L 467.69786 202.221824 
L 468.714099 198.955231 
L 469.730338 207.017851 
L 470.746578 212.258614 
L 471.762817 213.242375 
L 475.827774 197.65328 
L 476.844013 195.072316 
L 477.860252 193.712295 
L 478.876491 194.432064 
L 479.89273 193.373364 
L 480.908969 190.350367 
L 481.925209 198.588295 
L 482.941448 203.013637 
L 483.957687 201.136286 
L 484.973926 203.642067 
L 485.990165 212.506397 
L 487.006405 218.927465 
L 488.022644 222.335212 
L 489.038883 217.157372 
L 490.055122 226.324013 
L 491.071361 222.370132 
L 492.087601 219.890257 
L 493.10384 214.572496 
L 494.120079 222.725632 
L 495.136318 231.93965 
L 496.152557 245.620527 
L 497.168796 235.560977 
L 498.185036 222.26506 
L 499.201275 218.356995 
L 500.217514 209.907355 
L 501.233753 189.722282 
L 502.249992 184.862161 
L 504.282471 194.638139 
L 505.29871 190.787585 
L 506.314949 190.996079 
L 507.331188 189.117161 
L 508.347428 186.75312 
L 509.363667 186.718611 
L 510.379906 190.458883 
L 511.396145 198.750547 
L 512.412384 198.354403 
L 513.428623 202.084129 
L 514.444863 204.929754 
L 515.461102 208.497998 
L 516.477341 210.619918 
L 517.49358 211.983627 
L 518.509819 215.986899 
L 519.526059 228.059037 
L 520.542298 225.3613 
L 521.558537 232.475866 
L 522.574776 241.566007 
L 523.591015 251.757073 
L 524.607255 258.672863 
L 525.623494 261.263668 
L 526.639733 256.635157 
L 527.655972 268.357962 
L 529.68845 306.003217 
L 530.70469 317.082774 
L 531.720929 340.516765 
L 532.737168 352.711413 
L 533.753407 359.635737 
L 534.769646 363.700157 
L 535.785886 379.32451 
L 536.802125 387.683073 
L 537.818364 391.052224 
L 538.834603 399.097412 
L 539.850842 404.515862 
L 540.867081 404.974033 
L 541.883321 400.619821 
L 542.89956 399.235582 
L 543.915799 389.976023 
L 544.932038 389.137235 
L 545.948277 386.070975 
L 546.964517 379.778285 
L 547.980756 377.678263 
L 548.996995 378.785404 
L 550.013234 377.381718 
L 551.029473 379.061587 
L 552.045713 385.353466 
L 553.061952 390.85906 
L 554.078191 392.709915 
L 555.09443 385.84591 
L 556.110669 382.036487 
L 557.126908 382.33979 
L 558.143148 375.896768 
L 559.159387 366.727124 
L 561.191865 354.491271 
L 562.208104 350.445743 
L 563.224344 355.036426 
L 564.240583 357.534608 
L 565.256822 361.484894 
L 566.273061 356.539445 
L 567.2893 354.181482 
L 568.30554 357.847542 
L 569.321779 364.008694 
L 570.338018 368.117279 
L 572.370496 385.476087 
L 573.386735 389.167101 
L 574.402975 399.36881 
L 575.419214 405.171242 
L 576.435453 407.561066 
L 577.451692 411.122073 
L 578.467931 412.201917 
L 579.484171 412.273593 
L 580.50041 416.428925 
L 581.516649 416.628161 
L 582.532888 417.098128 
L 583.549127 414.23243 
L 585.581606 420.044767 
L 586.597845 423.549355 
L 587.614084 426.123221 
L 590.662802 436.559266 
L 591.679041 441.392628 
L 592.69528 445.582201 
L 593.711519 440.69959 
L 594.727758 439.033402 
L 595.743998 438.150541 
L 598.792715 454.975325 
L 600.825194 450.107803 
L 602.857672 437.012754 
L 603.873911 433.741088 
L 604.89015 432.207242 
L 605.906389 427.083093 
L 606.922629 422.742205 
L 607.938868 422.832569 
L 609.971346 424.046772 
L 610.987585 422.608971 
L 612.003825 424.180288 
L 613.020064 423.316017 
L 614.036303 424.369342 
L 615.052542 425.153507 
L 616.068781 425.711661 
L 617.08502 427.929425 
L 618.10126 431.310697 
L 620.133738 436.487687 
L 621.149977 437.824969 
L 622.166216 438.271022 
L 623.182456 439.442286 
L 625.214934 442.62684 
L 626.231173 443.738076 
L 627.247412 444.328892 
L 628.263652 445.398283 
L 630.29613 449.111847 
L 631.312369 452.081902 
L 632.328608 456.979366 
L 633.344847 464.549282 
L 634.361087 468.607745 
L 635.377326 470.640893 
L 636.393565 478.969034 
L 637.409804 484.22945 
L 638.426043 485.405294 
L 639.442283 486.97526 
L 640.458522 487.99147 
L 641.474761 490.419759 
L 642.491 490.911741 
L 643.507239 491.550423 
L 644.523479 492.48 
L 645.539718 488.259157 
L 646.555957 485.787859 
L 647.572196 484.380774 
L 648.588435 482.586333 
L 649.604674 481.87029 
L 650.620914 481.412958 
L 652.653392 482.242561 
L 653.669631 481.979333 
L 654.68587 481.49366 
L 657.734588 479.511125 
L 658.750827 478.717286 
L 660.783306 476.194283 
L 662.815784 474.655055 
L 663.832023 473.682963 
L 664.848262 472.075851 
L 665.864501 471.304516 
L 666.880741 471.278986 
L 667.89698 474.576285 
L 669.929458 474.261165 
L 670.945697 472.436395 
L 671.961937 471.561556 
L 672.978176 469.751869 
L 673.994415 468.871679 
L 675.010654 467.534942 
L 676.026893 471.242076 
L 677.043132 473.050931 
L 678.059372 467.18848 
L 679.075611 467.228285 
L 680.09185 464.488461 
L 681.108089 457.270797 
L 682.124328 454.591888 
L 683.140568 453.675654 
L 684.156807 452.998813 
L 685.173046 449.508345 
L 686.189285 442.766296 
L 688.221764 431.967416 
L 690.254242 425.724428 
L 691.270481 424.19412 
L 693.302959 416.105061 
L 696.351677 400.357648 
L 699.400395 385.950643 
L 700.416634 382.992032 
L 701.432873 379.684488 
L 702.449112 375.779488 
L 703.465351 373.106238 
L 706.514069 362.947965 
L 707.530308 359.318965 
L 708.546547 362.401341 
L 709.562786 359.612623 
L 710.579026 359.277395 
L 711.595265 363.194679 
L 712.611504 361.435209 
L 713.627743 358.19006 
L 714.643982 355.590326 
L 715.660222 355.25528 
L 716.676461 359.056624 
L 718.708939 362.090406 
L 719.725178 361.76463 
L 720.741418 362.421539 
L 721.757657 361.464018 
L 722.773896 361.254257 
L 723.790135 361.436192 
L 725.822613 366.041276 
L 726.838853 370.976404 
L 728.871331 376.300437 
L 729.88757 378.278215 
L 730.903809 379.603882 
L 731.920049 381.686762 
L 732.936288 383.347328 
L 733.952527 384.547463 
L 738.017484 391.841552 
L 739.033723 393.769251 
L 740.049962 395.371076 
L 742.08244 397.954185 
L 744.114919 401.502462 
L 745.131158 402.621243 
L 746.147397 404.518523 
L 747.163636 405.530815 
L 747.163636 405.530815 
" clip-path="url(#pbf858f6d53)" style="fill: none; stroke: #ff7f0e; stroke-width: 4; stroke-linecap: square"/>
   </g>
   <g id="line2d_33"/>
   <g id="line2d_34"/>
   <g id="patch_3">
    <path d="M 108 512.64 
L 108 69.12 
" style="fill: none; stroke: #000000; stroke-width: 0.8; stroke-linejoin: miter; stroke-linecap: square"/>
   </g>
   <g id="patch_4">
    <path d="M 777.6 512.64 
L 777.6 69.12 
" style="fill: none; stroke: #000000; stroke-width: 0.8; stroke-linejoin: miter; stroke-linecap: square"/>
   </g>
   <g id="patch_5">
    <path d="M 108 512.64 
L 777.6 512.64 
" style="fill: none; stroke: #000000; stroke-width: 0.8; stroke-linejoin: miter; stroke-linecap: square"/>
   </g>
   <g id="patch_6">
    <path d="M 108 69.12 
L 777.6 69.12 
" style="fill: none; stroke: #000000; stroke-width: 0.8; stroke-linejoin: miter; stroke-linecap: square"/>
   </g>
   <g id="text_18">
    <!-- aggregation -->
    <g transform="translate(261.314062 56.641875) scale(0.6 -0.6)">
     <defs>
      <path id="DejaVuSans-67" d="M 2906 1791 
Q 2906 2416 2648 2759 
Q 2391 3103 1925 3103 
Q 1463 3103 1205 2759 
Q 947 2416 947 1791 
Q 947 1169 1205 825 
Q 1463 481 1925 481 
Q 2391 481 2648 825 
Q 2906 1169 2906 1791 
z
M 3481 434 
Q 3481 -459 3084 -895 
Q 2688 -1331 1869 -1331 
Q 1566 -1331 1297 -1286 
Q 1028 -1241 775 -1147 
L 775 -588 
Q 1028 -725 1275 -790 
Q 1522 -856 1778 -856 
Q 2344 -856 2625 -561 
Q 2906 -266 2906 331 
L 2906 616 
Q 2728 306 2450 153 
Q 2172 0 1784 0 
Q 1141 0 747 490 
Q 353 981 353 1791 
Q 353 2603 747 3093 
Q 1141 3584 1784 3584 
Q 2172 3584 2450 3431 
Q 2728 3278 2906 2969 
L 2906 3500 
L 3481 3500 
L 3481 434 
z
" transform="scale(0.015625)"/>
      <path id="DejaVuSans-69" d="M 603 3500 
L 1178 3500 
L 1178 0 
L 603 0 
L 603 3500 
z
M 603 4863 
L 1178 4863 
L 1178 4134 
L 603 4134 
L 603 4863 
z
" transform="scale(0.015625)"/>
     </defs>
     <use xlink:href="#DejaVuSans-61"/>
     <use xlink:href="#DejaVuSans-67" x="61.279297"/>
     <use xlink:href="#DejaVuSans-67" x="124.755859"/>
     <use xlink:href="#DejaVuSans-72" x="188.232422"/>
     <use xlink:href="#DejaVuSans-65" x="227.095703"/>
     <use xlink:href="#DejaVuSans-67" x="288.619141"/>
     <use xlink:href="#DejaVuSans-61" x="352.095703"/>
     <use xlink:href="#DejaVuSans-74" x="413.375"/>
     <use xlink:href="#DejaVuSans-69" x="452.583984"/>
     <use xlink:href="#DejaVuSans-6f" x="480.367188"/>
     <use xlink:href="#DejaVuSans-6e" x="541.548828"/>
    </g>
   </g>
   <g id="legend_1">
    <g id="patch_7">
     <path d="M 136 218.545 
L 401.66875 218.545 
Q 409.66875 218.545 409.66875 210.545 
L 409.66875 97.12 
Q 409.66875 89.12 401.66875 89.12 
L 136 89.12 
Q 128 89.12 128 97.12 
L 128 210.545 
Q 128 218.545 136 218.545 
z
" style="fill: #ffffff; opacity: 0.8; stroke: #cccccc; stroke-linejoin: miter"/>
    </g>
    <g id="line2d_35">
     <path d="M 144 121.51375 
L 184 121.51375 
L 224 121.51375 
" style="fill: none; stroke: #1f77b4; stroke-width: 4; stroke-linecap: square"/>
    </g>
    <g id="text_19">
     <!-- local -->
     <g transform="translate(256 135.51375) scale(0.4 -0.4)">
      <defs>
       <path id="DejaVuSans-6c" d="M 603 4863 
L 1178 4863 
L 1178 0 
L 603 0 
L 603 4863 
z
" transform="scale(0.015625)"/>
       <path id="DejaVuSans-63" d="M 3122 3366 
L 3122 2828 
Q 2878 2963 2633 3030 
Q 2388 3097 2138 3097 
Q 1578 3097 1268 2742 
Q 959 2388 959 1747 
Q 959 1106 1268 751 
Q 1578 397 2138 397 
Q 2388 397 2633 464 
Q 2878 531 3122 666 
L 3122 134 
Q 2881 22 2623 -34 
Q 2366 -91 2075 -91 
Q 1284 -91 818 406 
Q 353 903 353 1747 
Q 353 2603 823 3093 
Q 1294 3584 2113 3584 
Q 2378 3584 2631 3529 
Q 2884 3475 3122 3366 
z
" transform="scale(0.015625)"/>
      </defs>
      <use xlink:href="#DejaVuSans-6c"/>
      <use xlink:href="#DejaVuSans-6f" x="27.783203"/>
      <use xlink:href="#DejaVuSans-63" x="88.964844"/>
      <use xlink:href="#DejaVuSans-61" x="143.945312"/>
      <use xlink:href="#DejaVuSans-6c" x="205.224609"/>
     </g>
    </g>
    <g id="line2d_36">
     <path d="M 144 180.22625 
L 184 180.22625 
L 224 180.22625 
" style="fill: none; stroke: #ff7f0e; stroke-width: 4; stroke-linecap: square"/>
    </g>
    <g id="text_20">
     <!-- fedavg -->
     <g transform="translate(256 194.22625) scale(0.4 -0.4)">
      <defs>
       <path id="DejaVuSans-66" d="M 2375 4863 
L 2375 4384 
L 1825 4384 
Q 1516 4384 1395 4259 
Q 1275 4134 1275 3809 
L 1275 3500 
L 2222 3500 
L 2222 3053 
L 1275 3053 
L 1275 0 
L 697 0 
L 697 3053 
L 147 3053 
L 147 3500 
L 697 3500 
L 697 3744 
Q 697 4328 969 4595 
Q 1241 4863 1831 4863 
L 2375 4863 
z
" transform="scale(0.015625)"/>
       <path id="DejaVuSans-64" d="M 2906 2969 
L 2906 4863 
L 3481 4863 
L 3481 0 
L 2906 0 
L 2906 525 
Q 2725 213 2448 61 
Q 2172 -91 1784 -91 
Q 1150 -91 751 415 
Q 353 922 353 1747 
Q 353 2572 751 3078 
Q 1150 3584 1784 3584 
Q 2172 3584 2448 3432 
Q 2725 3281 2906 2969 
z
M 947 1747 
Q 947 1113 1208 752 
Q 1469 391 1925 391 
Q 2381 391 2643 752 
Q 2906 1113 2906 1747 
Q 2906 2381 2643 2742 
Q 2381 3103 1925 3103 
Q 1469 3103 1208 2742 
Q 947 2381 947 1747 
z
" transform="scale(0.015625)"/>
       <path id="DejaVuSans-76" d="M 191 3500 
L 800 3500 
L 1894 563 
L 2988 3500 
L 3597 3500 
L 2284 0 
L 1503 0 
L 191 3500 
z
" transform="scale(0.015625)"/>
      </defs>
      <use xlink:href="#DejaVuSans-66"/>
      <use xlink:href="#DejaVuSans-65" x="35.205078"/>
      <use xlink:href="#DejaVuSans-64" x="96.728516"/>
      <use xlink:href="#DejaVuSans-61" x="160.205078"/>
      <use xlink:href="#DejaVuSans-76" x="221.484375"/>
      <use xlink:href="#DejaVuSans-67" x="280.664062"/>
     </g>
    </g>
   </g>
  </g>
 </g>
 <defs>
  <clipPath id="pbf858f6d53">
   <rect x="108" y="69.12" width="669.6" height="443.52"/>
  </clipPath>
 </defs>
</svg>
