<?xml version="1.0" encoding="utf-8" standalone="no"?>
<!DOCTYPE svg PUBLIC "-//W3C//DTD SVG 1.1//EN"
  "http://www.w3.org/Graphics/SVG/1.1/DTD/svg11.dtd">
<svg xmlns:xlink="http://www.w3.org/1999/xlink" width="864pt" height="576pt" viewBox="0 0 864 576" xmlns="http://www.w3.org/2000/svg" version="1.1">
 <metadata>
  <rdf:RDF xmlns:dc="http://purl.org/dc/elements/1.1/" xmlns:cc="http://creativecommons.org/ns#" xmlns:rdf="http://www.w3.org/1999/02/22-rdf-syntax-ns#">
   <cc:Work>
    <dc:type rdf:resource="http://purl.org/dc/dcmitype/StillImage"/>
    <dc:date>2025-04-25T14:16:38.266185</dc:date>
    <dc:format>image/svg+xml</dc:format>
    <dc:creator>
     <cc:Agent>
      <dc:title>Matplotlib v3.8.2, https://matplotlib.org/</dc:title>
     </cc:Agent>
    </dc:creator>
   </cc:Work>
  </rdf:RDF>
 </metadata>
 <defs>
  <style type="text/css">*{stroke-linejoin: round; stroke-linecap: butt}</style>
 </defs>
 <g id="figure_1">
  <g id="patch_1">
   <path d="M 0 576 
L 864 576 
L 864 0 
L 0 0 
z
" style="fill: #ffffff"/>
  </g>
  <g id="axes_1">
   <g id="patch_2">
    <path d="M 108 512.64 
L 777.6 512.64 
L 777.6 69.12 
L 108 69.12 
z
" style="fill: #ffffff"/>
   </g>
   <g id="PolyCollection_1"/>
   <g id="PolyCollection_2"/>
   <g id="matplotlib.axis_1">
    <g id="xtick_1">
     <g id="line2d_1">
      <path d="M 137.420124 512.64 
L 137.420124 69.12 
" clip-path="url(#p13b781f985)" style="fill: none; stroke: #b0b0b0; stroke-width: 0.8; stroke-linecap: square"/>
     </g>
     <g id="line2d_2">
      <defs>
       <path id="ma39acbadbd" d="M 0 0 
L 0 3.5 
" style="stroke: #000000; stroke-width: 0.8"/>
      </defs>
      <g>
       <use xlink:href="#ma39acbadbd" x="137.420124" y="512.64" style="stroke: #000000; stroke-width: 0.8"/>
      </g>
     </g>
     <g id="text_1">
      <!-- 0 -->
      <g transform="translate(127.876374 542.435313) scale(0.3 -0.3)">
       <defs>
        <path id="DejaVuSans-30" d="M 2034 4250 
Q 1547 4250 1301 3770 
Q 1056 3291 1056 2328 
Q 1056 1369 1301 889 
Q 1547 409 2034 409 
Q 2525 409 2770 889 
Q 3016 1369 3016 2328 
Q 3016 3291 2770 3770 
Q 2525 4250 2034 4250 
z
M 2034 4750 
Q 2819 4750 3233 4129 
Q 3647 3509 3647 2328 
Q 3647 1150 3233 529 
Q 2819 -91 2034 -91 
Q 1250 -91 836 529 
Q 422 1150 422 2328 
Q 422 3509 836 4129 
Q 1250 4750 2034 4750 
z
" transform="scale(0.015625)"/>
       </defs>
       <use xlink:href="#DejaVuSans-30"/>
      </g>
     </g>
    </g>
    <g id="xtick_2">
     <g id="line2d_3">
      <path d="M 254.229226 512.64 
L 254.229226 69.12 
" clip-path="url(#p13b781f985)" style="fill: none; stroke: #b0b0b0; stroke-width: 0.8; stroke-linecap: square"/>
     </g>
     <g id="line2d_4">
      <g>
       <use xlink:href="#ma39acbadbd" x="254.229226" y="512.64" style="stroke: #000000; stroke-width: 0.8"/>
      </g>
     </g>
     <g id="text_2">
      <!-- 10000 -->
      <g transform="translate(206.510476 542.435313) scale(0.3 -0.3)">
       <defs>
        <path id="DejaVuSans-31" d="M 794 531 
L 1825 531 
L 1825 4091 
L 703 3866 
L 703 4441 
L 1819 4666 
L 2450 4666 
L 2450 531 
L 3481 531 
L 3481 0 
L 794 0 
L 794 531 
z
" transform="scale(0.015625)"/>
       </defs>
       <use xlink:href="#DejaVuSans-31"/>
       <use xlink:href="#DejaVuSans-30" x="63.623047"/>
       <use xlink:href="#DejaVuSans-30" x="127.246094"/>
       <use xlink:href="#DejaVuSans-30" x="190.869141"/>
       <use xlink:href="#DejaVuSans-30" x="254.492188"/>
      </g>
     </g>
    </g>
    <g id="xtick_3">
     <g id="line2d_5">
      <path d="M 371.038328 512.64 
L 371.038328 69.12 
" clip-path="url(#p13b781f985)" style="fill: none; stroke: #b0b0b0; stroke-width: 0.8; stroke-linecap: square"/>
     </g>
     <g id="line2d_6">
      <g>
       <use xlink:href="#ma39acbadbd" x="371.038328" y="512.64" style="stroke: #000000; stroke-width: 0.8"/>
      </g>
     </g>
     <g id="text_3">
      <!-- 20000 -->
      <g transform="translate(323.319578 542.435313) scale(0.3 -0.3)">
       <defs>
        <path id="DejaVuSans-32" d="M 1228 531 
L 3431 531 
L 3431 0 
L 469 0 
L 469 531 
Q 828 903 1448 1529 
Q 2069 2156 2228 2338 
Q 2531 2678 2651 2914 
Q 2772 3150 2772 3378 
Q 2772 3750 2511 3984 
Q 2250 4219 1831 4219 
Q 1534 4219 1204 4116 
Q 875 4013 500 3803 
L 500 4441 
Q 881 4594 1212 4672 
Q 1544 4750 1819 4750 
Q 2544 4750 2975 4387 
Q 3406 4025 3406 3419 
Q 3406 3131 3298 2873 
Q 3191 2616 2906 2266 
Q 2828 2175 2409 1742 
Q 1991 1309 1228 531 
z
" transform="scale(0.015625)"/>
       </defs>
       <use xlink:href="#DejaVuSans-32"/>
       <use xlink:href="#DejaVuSans-30" x="63.623047"/>
       <use xlink:href="#DejaVuSans-30" x="127.246094"/>
       <use xlink:href="#DejaVuSans-30" x="190.869141"/>
       <use xlink:href="#DejaVuSans-30" x="254.492188"/>
      </g>
     </g>
    </g>
    <g id="xtick_4">
     <g id="line2d_7">
      <path d="M 487.84743 512.64 
L 487.84743 69.12 
" clip-path="url(#p13b781f985)" style="fill: none; stroke: #b0b0b0; stroke-width: 0.8; stroke-linecap: square"/>
     </g>
     <g id="line2d_8">
      <g>
       <use xlink:href="#ma39acbadbd" x="487.84743" y="512.64" style="stroke: #000000; stroke-width: 0.8"/>
      </g>
     </g>
     <g id="text_4">
      <!-- 30000 -->
      <g transform="translate(440.12868 542.435313) scale(0.3 -0.3)">
       <defs>
        <path id="DejaVuSans-33" d="M 2597 2516 
Q 3050 2419 3304 2112 
Q 3559 1806 3559 1356 
Q 3559 666 3084 287 
Q 2609 -91 1734 -91 
Q 1441 -91 1130 -33 
Q 819 25 488 141 
L 488 750 
Q 750 597 1062 519 
Q 1375 441 1716 441 
Q 2309 441 2620 675 
Q 2931 909 2931 1356 
Q 2931 1769 2642 2001 
Q 2353 2234 1838 2234 
L 1294 2234 
L 1294 2753 
L 1863 2753 
Q 2328 2753 2575 2939 
Q 2822 3125 2822 3475 
Q 2822 3834 2567 4026 
Q 2313 4219 1838 4219 
Q 1578 4219 1281 4162 
Q 984 4106 628 3988 
L 628 4550 
Q 988 4650 1302 4700 
Q 1616 4750 1894 4750 
Q 2613 4750 3031 4423 
Q 3450 4097 3450 3541 
Q 3450 3153 3228 2886 
Q 3006 2619 2597 2516 
z
" transform="scale(0.015625)"/>
       </defs>
       <use xlink:href="#DejaVuSans-33"/>
       <use xlink:href="#DejaVuSans-30" x="63.623047"/>
       <use xlink:href="#DejaVuSans-30" x="127.246094"/>
       <use xlink:href="#DejaVuSans-30" x="190.869141"/>
       <use xlink:href="#DejaVuSans-30" x="254.492188"/>
      </g>
     </g>
    </g>
    <g id="xtick_5">
     <g id="line2d_9">
      <path d="M 604.656532 512.64 
L 604.656532 69.12 
" clip-path="url(#p13b781f985)" style="fill: none; stroke: #b0b0b0; stroke-width: 0.8; stroke-linecap: square"/>
     </g>
     <g id="line2d_10">
      <g>
       <use xlink:href="#ma39acbadbd" x="604.656532" y="512.64" style="stroke: #000000; stroke-width: 0.8"/>
      </g>
     </g>
     <g id="text_5">
      <!-- 40000 -->
      <g transform="translate(556.937782 542.435313) scale(0.3 -0.3)">
       <defs>
        <path id="DejaVuSans-34" d="M 2419 4116 
L 825 1625 
L 2419 1625 
L 2419 4116 
z
M 2253 4666 
L 3047 4666 
L 3047 1625 
L 3713 1625 
L 3713 1100 
L 3047 1100 
L 3047 0 
L 2419 0 
L 2419 1100 
L 313 1100 
L 313 1709 
L 2253 4666 
z
" transform="scale(0.015625)"/>
       </defs>
       <use xlink:href="#DejaVuSans-34"/>
       <use xlink:href="#DejaVuSans-30" x="63.623047"/>
       <use xlink:href="#DejaVuSans-30" x="127.246094"/>
       <use xlink:href="#DejaVuSans-30" x="190.869141"/>
       <use xlink:href="#DejaVuSans-30" x="254.492188"/>
      </g>
     </g>
    </g>
    <g id="xtick_6">
     <g id="line2d_11">
      <path d="M 721.465634 512.64 
L 721.465634 69.12 
" clip-path="url(#p13b781f985)" style="fill: none; stroke: #b0b0b0; stroke-width: 0.8; stroke-linecap: square"/>
     </g>
     <g id="line2d_12">
      <g>
       <use xlink:href="#ma39acbadbd" x="721.465634" y="512.64" style="stroke: #000000; stroke-width: 0.8"/>
      </g>
     </g>
     <g id="text_6">
      <!-- 50000 -->
      <g transform="translate(673.746884 542.435313) scale(0.3 -0.3)">
       <defs>
        <path id="DejaVuSans-35" d="M 691 4666 
L 3169 4666 
L 3169 4134 
L 1269 4134 
L 1269 2991 
Q 1406 3038 1543 3061 
Q 1681 3084 1819 3084 
Q 2600 3084 3056 2656 
Q 3513 2228 3513 1497 
Q 3513 744 3044 326 
Q 2575 -91 1722 -91 
Q 1428 -91 1123 -41 
Q 819 9 494 109 
L 494 744 
Q 775 591 1075 516 
Q 1375 441 1709 441 
Q 2250 441 2565 725 
Q 2881 1009 2881 1497 
Q 2881 1984 2565 2268 
Q 2250 2553 1709 2553 
Q 1456 2553 1204 2497 
Q 953 2441 691 2322 
L 691 4666 
z
" transform="scale(0.015625)"/>
       </defs>
       <use xlink:href="#DejaVuSans-35"/>
       <use xlink:href="#DejaVuSans-30" x="63.623047"/>
       <use xlink:href="#DejaVuSans-30" x="127.246094"/>
       <use xlink:href="#DejaVuSans-30" x="190.869141"/>
       <use xlink:href="#DejaVuSans-30" x="254.492188"/>
      </g>
     </g>
    </g>
    <g id="text_7">
     <!-- Steps -->
     <g transform="translate(386.840625 583.068125) scale(0.4 -0.4)">
      <defs>
       <path id="DejaVuSans-53" d="M 3425 4513 
L 3425 3897 
Q 3066 4069 2747 4153 
Q 2428 4238 2131 4238 
Q 1616 4238 1336 4038 
Q 1056 3838 1056 3469 
Q 1056 3159 1242 3001 
Q 1428 2844 1947 2747 
L 2328 2669 
Q 3034 2534 3370 2195 
Q 3706 1856 3706 1288 
Q 3706 609 3251 259 
Q 2797 -91 1919 -91 
Q 1588 -91 1214 -16 
Q 841 59 441 206 
L 441 856 
Q 825 641 1194 531 
Q 1563 422 1919 422 
Q 2459 422 2753 634 
Q 3047 847 3047 1241 
Q 3047 1584 2836 1778 
Q 2625 1972 2144 2069 
L 1759 2144 
Q 1053 2284 737 2584 
Q 422 2884 422 3419 
Q 422 4038 858 4394 
Q 1294 4750 2059 4750 
Q 2388 4750 2728 4690 
Q 3069 4631 3425 4513 
z
" transform="scale(0.015625)"/>
       <path id="DejaVuSans-74" d="M 1172 4494 
L 1172 3500 
L 2356 3500 
L 2356 3053 
L 1172 3053 
L 1172 1153 
Q 1172 725 1289 603 
Q 1406 481 1766 481 
L 2356 481 
L 2356 0 
L 1766 0 
Q 1100 0 847 248 
Q 594 497 594 1153 
L 594 3053 
L 172 3053 
L 172 3500 
L 594 3500 
L 594 4494 
L 1172 4494 
z
" transform="scale(0.015625)"/>
       <path id="DejaVuSans-65" d="M 3597 1894 
L 3597 1613 
L 953 1613 
Q 991 1019 1311 708 
Q 1631 397 2203 397 
Q 2534 397 2845 478 
Q 3156 559 3463 722 
L 3463 178 
Q 3153 47 2828 -22 
Q 2503 -91 2169 -91 
Q 1331 -91 842 396 
Q 353 884 353 1716 
Q 353 2575 817 3079 
Q 1281 3584 2069 3584 
Q 2775 3584 3186 3129 
Q 3597 2675 3597 1894 
z
M 3022 2063 
Q 3016 2534 2758 2815 
Q 2500 3097 2075 3097 
Q 1594 3097 1305 2825 
Q 1016 2553 972 2059 
L 3022 2063 
z
" transform="scale(0.015625)"/>
       <path id="DejaVuSans-70" d="M 1159 525 
L 1159 -1331 
L 581 -1331 
L 581 3500 
L 1159 3500 
L 1159 2969 
Q 1341 3281 1617 3432 
Q 1894 3584 2278 3584 
Q 2916 3584 3314 3078 
Q 3713 2572 3713 1747 
Q 3713 922 3314 415 
Q 2916 -91 2278 -91 
Q 1894 -91 1617 61 
Q 1341 213 1159 525 
z
M 3116 1747 
Q 3116 2381 2855 2742 
Q 2594 3103 2138 3103 
Q 1681 3103 1420 2742 
Q 1159 2381 1159 1747 
Q 1159 1113 1420 752 
Q 1681 391 2138 391 
Q 2594 391 2855 752 
Q 3116 1113 3116 1747 
z
" transform="scale(0.015625)"/>
       <path id="DejaVuSans-73" d="M 2834 3397 
L 2834 2853 
Q 2591 2978 2328 3040 
Q 2066 3103 1784 3103 
Q 1356 3103 1142 2972 
Q 928 2841 928 2578 
Q 928 2378 1081 2264 
Q 1234 2150 1697 2047 
L 1894 2003 
Q 2506 1872 2764 1633 
Q 3022 1394 3022 966 
Q 3022 478 2636 193 
Q 2250 -91 1575 -91 
Q 1294 -91 989 -36 
Q 684 19 347 128 
L 347 722 
Q 666 556 975 473 
Q 1284 391 1588 391 
Q 1994 391 2212 530 
Q 2431 669 2431 922 
Q 2431 1156 2273 1281 
Q 2116 1406 1581 1522 
L 1381 1569 
Q 847 1681 609 1914 
Q 372 2147 372 2553 
Q 372 3047 722 3315 
Q 1072 3584 1716 3584 
Q 2034 3584 2315 3537 
Q 2597 3491 2834 3397 
z
" transform="scale(0.015625)"/>
      </defs>
      <use xlink:href="#DejaVuSans-53"/>
      <use xlink:href="#DejaVuSans-74" x="63.476562"/>
      <use xlink:href="#DejaVuSans-65" x="102.685547"/>
      <use xlink:href="#DejaVuSans-70" x="164.208984"/>
      <use xlink:href="#DejaVuSans-73" x="227.685547"/>
     </g>
    </g>
   </g>
   <g id="matplotlib.axis_2">
    <g id="ytick_1">
     <g id="line2d_13">
      <path d="M 108 466.975825 
L 777.6 466.975825 
" clip-path="url(#p13b781f985)" style="fill: none; stroke: #b0b0b0; stroke-width: 0.8; stroke-linecap: square"/>
     </g>
     <g id="line2d_14">
      <defs>
       <path id="m46bafdcd56" d="M 0 0 
L -3.5 0 
" style="stroke: #000000; stroke-width: 0.8"/>
      </defs>
      <g>
       <use xlink:href="#m46bafdcd56" x="108" y="466.975825" style="stroke: #000000; stroke-width: 0.8"/>
      </g>
     </g>
     <g id="text_8">
      <!-- 0.0 -->
      <g transform="translate(53.290625 478.373482) scale(0.3 -0.3)">
       <defs>
        <path id="DejaVuSans-2e" d="M 684 794 
L 1344 794 
L 1344 0 
L 684 0 
L 684 794 
z
" transform="scale(0.015625)"/>
       </defs>
       <use xlink:href="#DejaVuSans-30"/>
       <use xlink:href="#DejaVuSans-2e" x="63.623047"/>
       <use xlink:href="#DejaVuSans-30" x="95.410156"/>
      </g>
     </g>
    </g>
    <g id="ytick_2">
     <g id="line2d_15">
      <path d="M 108 412.255762 
L 777.6 412.255762 
" clip-path="url(#p13b781f985)" style="fill: none; stroke: #b0b0b0; stroke-width: 0.8; stroke-linecap: square"/>
     </g>
     <g id="line2d_16">
      <g>
       <use xlink:href="#m46bafdcd56" x="108" y="412.255762" style="stroke: #000000; stroke-width: 0.8"/>
      </g>
     </g>
     <g id="text_9">
      <!-- 0.1 -->
      <g transform="translate(53.290625 423.653418) scale(0.3 -0.3)">
       <use xlink:href="#DejaVuSans-30"/>
       <use xlink:href="#DejaVuSans-2e" x="63.623047"/>
       <use xlink:href="#DejaVuSans-31" x="95.410156"/>
      </g>
     </g>
    </g>
    <g id="ytick_3">
     <g id="line2d_17">
      <path d="M 108 357.535698 
L 777.6 357.535698 
" clip-path="url(#p13b781f985)" style="fill: none; stroke: #b0b0b0; stroke-width: 0.8; stroke-linecap: square"/>
     </g>
     <g id="line2d_18">
      <g>
       <use xlink:href="#m46bafdcd56" x="108" y="357.535698" style="stroke: #000000; stroke-width: 0.8"/>
      </g>
     </g>
     <g id="text_10">
      <!-- 0.2 -->
      <g transform="translate(53.290625 368.933355) scale(0.3 -0.3)">
       <use xlink:href="#DejaVuSans-30"/>
       <use xlink:href="#DejaVuSans-2e" x="63.623047"/>
       <use xlink:href="#DejaVuSans-32" x="95.410156"/>
      </g>
     </g>
    </g>
    <g id="ytick_4">
     <g id="line2d_19">
      <path d="M 108 302.815635 
L 777.6 302.815635 
" clip-path="url(#p13b781f985)" style="fill: none; stroke: #b0b0b0; stroke-width: 0.8; stroke-linecap: square"/>
     </g>
     <g id="line2d_20">
      <g>
       <use xlink:href="#m46bafdcd56" x="108" y="302.815635" style="stroke: #000000; stroke-width: 0.8"/>
      </g>
     </g>
     <g id="text_11">
      <!-- 0.3 -->
      <g transform="translate(53.290625 314.213291) scale(0.3 -0.3)">
       <use xlink:href="#DejaVuSans-30"/>
       <use xlink:href="#DejaVuSans-2e" x="63.623047"/>
       <use xlink:href="#DejaVuSans-33" x="95.410156"/>
      </g>
     </g>
    </g>
    <g id="ytick_5">
     <g id="line2d_21">
      <path d="M 108 248.095571 
L 777.6 248.095571 
" clip-path="url(#p13b781f985)" style="fill: none; stroke: #b0b0b0; stroke-width: 0.8; stroke-linecap: square"/>
     </g>
     <g id="line2d_22">
      <g>
       <use xlink:href="#m46bafdcd56" x="108" y="248.095571" style="stroke: #000000; stroke-width: 0.8"/>
      </g>
     </g>
     <g id="text_12">
      <!-- 0.4 -->
      <g transform="translate(53.290625 259.493227) scale(0.3 -0.3)">
       <use xlink:href="#DejaVuSans-30"/>
       <use xlink:href="#DejaVuSans-2e" x="63.623047"/>
       <use xlink:href="#DejaVuSans-34" x="95.410156"/>
      </g>
     </g>
    </g>
    <g id="ytick_6">
     <g id="line2d_23">
      <path d="M 108 193.375508 
L 777.6 193.375508 
" clip-path="url(#p13b781f985)" style="fill: none; stroke: #b0b0b0; stroke-width: 0.8; stroke-linecap: square"/>
     </g>
     <g id="line2d_24">
      <g>
       <use xlink:href="#m46bafdcd56" x="108" y="193.375508" style="stroke: #000000; stroke-width: 0.8"/>
      </g>
     </g>
     <g id="text_13">
      <!-- 0.5 -->
      <g transform="translate(53.290625 204.773164) scale(0.3 -0.3)">
       <use xlink:href="#DejaVuSans-30"/>
       <use xlink:href="#DejaVuSans-2e" x="63.623047"/>
       <use xlink:href="#DejaVuSans-35" x="95.410156"/>
      </g>
     </g>
    </g>
    <g id="ytick_7">
     <g id="line2d_25">
      <path d="M 108 138.655444 
L 777.6 138.655444 
" clip-path="url(#p13b781f985)" style="fill: none; stroke: #b0b0b0; stroke-width: 0.8; stroke-linecap: square"/>
     </g>
     <g id="line2d_26">
      <g>
       <use xlink:href="#m46bafdcd56" x="108" y="138.655444" style="stroke: #000000; stroke-width: 0.8"/>
      </g>
     </g>
     <g id="text_14">
      <!-- 0.6 -->
      <g transform="translate(53.290625 150.0531) scale(0.3 -0.3)">
       <defs>
        <path id="DejaVuSans-36" d="M 2113 2584 
Q 1688 2584 1439 2293 
Q 1191 2003 1191 1497 
Q 1191 994 1439 701 
Q 1688 409 2113 409 
Q 2538 409 2786 701 
Q 3034 994 3034 1497 
Q 3034 2003 2786 2293 
Q 2538 2584 2113 2584 
z
M 3366 4563 
L 3366 3988 
Q 3128 4100 2886 4159 
Q 2644 4219 2406 4219 
Q 1781 4219 1451 3797 
Q 1122 3375 1075 2522 
Q 1259 2794 1537 2939 
Q 1816 3084 2150 3084 
Q 2853 3084 3261 2657 
Q 3669 2231 3669 1497 
Q 3669 778 3244 343 
Q 2819 -91 2113 -91 
Q 1303 -91 875 529 
Q 447 1150 447 2328 
Q 447 3434 972 4092 
Q 1497 4750 2381 4750 
Q 2619 4750 2861 4703 
Q 3103 4656 3366 4563 
z
" transform="scale(0.015625)"/>
       </defs>
       <use xlink:href="#DejaVuSans-30"/>
       <use xlink:href="#DejaVuSans-2e" x="63.623047"/>
       <use xlink:href="#DejaVuSans-36" x="95.410156"/>
      </g>
     </g>
    </g>
    <g id="ytick_8">
     <g id="line2d_27">
      <path d="M 108 83.935381 
L 777.6 83.935381 
" clip-path="url(#p13b781f985)" style="fill: none; stroke: #b0b0b0; stroke-width: 0.8; stroke-linecap: square"/>
     </g>
     <g id="line2d_28">
      <g>
       <use xlink:href="#m46bafdcd56" x="108" y="83.935381" style="stroke: #000000; stroke-width: 0.8"/>
      </g>
     </g>
     <g id="text_15">
      <!-- 0.7 -->
      <g transform="translate(53.290625 95.333037) scale(0.3 -0.3)">
       <defs>
        <path id="DejaVuSans-37" d="M 525 4666 
L 3525 4666 
L 3525 4397 
L 1831 0 
L 1172 0 
L 2766 4134 
L 525 4134 
L 525 4666 
z
" transform="scale(0.015625)"/>
       </defs>
       <use xlink:href="#DejaVuSans-30"/>
       <use xlink:href="#DejaVuSans-2e" x="63.623047"/>
       <use xlink:href="#DejaVuSans-37" x="95.410156"/>
      </g>
     </g>
    </g>
    <g id="text_16">
     <!-- Pearson -->
     <g transform="translate(40.971875 370.33) rotate(-90) scale(0.4 -0.4)">
      <defs>
       <path id="DejaVuSans-50" d="M 1259 4147 
L 1259 2394 
L 2053 2394 
Q 2494 2394 2734 2622 
Q 2975 2850 2975 3272 
Q 2975 3691 2734 3919 
Q 2494 4147 2053 4147 
L 1259 4147 
z
M 628 4666 
L 2053 4666 
Q 2838 4666 3239 4311 
Q 3641 3956 3641 3272 
Q 3641 2581 3239 2228 
Q 2838 1875 2053 1875 
L 1259 1875 
L 1259 0 
L 628 0 
L 628 4666 
z
" transform="scale(0.015625)"/>
       <path id="DejaVuSans-61" d="M 2194 1759 
Q 1497 1759 1228 1600 
Q 959 1441 959 1056 
Q 959 750 1161 570 
Q 1363 391 1709 391 
Q 2188 391 2477 730 
Q 2766 1069 2766 1631 
L 2766 1759 
L 2194 1759 
z
M 3341 1997 
L 3341 0 
L 2766 0 
L 2766 531 
Q 2569 213 2275 61 
Q 1981 -91 1556 -91 
Q 1019 -91 701 211 
Q 384 513 384 1019 
Q 384 1609 779 1909 
Q 1175 2209 1959 2209 
L 2766 2209 
L 2766 2266 
Q 2766 2663 2505 2880 
Q 2244 3097 1772 3097 
Q 1472 3097 1187 3025 
Q 903 2953 641 2809 
L 641 3341 
Q 956 3463 1253 3523 
Q 1550 3584 1831 3584 
Q 2591 3584 2966 3190 
Q 3341 2797 3341 1997 
z
" transform="scale(0.015625)"/>
       <path id="DejaVuSans-72" d="M 2631 2963 
Q 2534 3019 2420 3045 
Q 2306 3072 2169 3072 
Q 1681 3072 1420 2755 
Q 1159 2438 1159 1844 
L 1159 0 
L 581 0 
L 581 3500 
L 1159 3500 
L 1159 2956 
Q 1341 3275 1631 3429 
Q 1922 3584 2338 3584 
Q 2397 3584 2469 3576 
Q 2541 3569 2628 3553 
L 2631 2963 
z
" transform="scale(0.015625)"/>
       <path id="DejaVuSans-6f" d="M 1959 3097 
Q 1497 3097 1228 2736 
Q 959 2375 959 1747 
Q 959 1119 1226 758 
Q 1494 397 1959 397 
Q 2419 397 2687 759 
Q 2956 1122 2956 1747 
Q 2956 2369 2687 2733 
Q 2419 3097 1959 3097 
z
M 1959 3584 
Q 2709 3584 3137 3096 
Q 3566 2609 3566 1747 
Q 3566 888 3137 398 
Q 2709 -91 1959 -91 
Q 1206 -91 779 398 
Q 353 888 353 1747 
Q 353 2609 779 3096 
Q 1206 3584 1959 3584 
z
" transform="scale(0.015625)"/>
       <path id="DejaVuSans-6e" d="M 3513 2113 
L 3513 0 
L 2938 0 
L 2938 2094 
Q 2938 2591 2744 2837 
Q 2550 3084 2163 3084 
Q 1697 3084 1428 2787 
Q 1159 2491 1159 1978 
L 1159 0 
L 581 0 
L 581 3500 
L 1159 3500 
L 1159 2956 
Q 1366 3272 1645 3428 
Q 1925 3584 2291 3584 
Q 2894 3584 3203 3211 
Q 3513 2838 3513 2113 
z
" transform="scale(0.015625)"/>
      </defs>
      <use xlink:href="#DejaVuSans-50"/>
      <use xlink:href="#DejaVuSans-65" x="56.677734"/>
      <use xlink:href="#DejaVuSans-61" x="118.201172"/>
      <use xlink:href="#DejaVuSans-72" x="179.480469"/>
      <use xlink:href="#DejaVuSans-73" x="220.59375"/>
      <use xlink:href="#DejaVuSans-6f" x="272.693359"/>
      <use xlink:href="#DejaVuSans-6e" x="333.875"/>
     </g>
    </g>
   </g>
   <g id="line2d_29">
    <path d="M 138.436364 400.203494 
L 139.452603 379.240501 
L 140.468842 378.739605 
L 141.485081 421.29015 
L 142.50132 452.06015 
L 143.51756 467.363076 
L 144.533799 478.691478 
L 145.550038 480.588374 
L 146.566277 488.625399 
L 147.582516 492.48 
L 148.598756 480.197675 
L 149.614995 472.363424 
L 150.631234 469.305047 
L 151.647473 477.612985 
L 152.663712 477.223495 
L 153.679951 471.984825 
L 154.696191 467.712533 
L 155.71243 465.428377 
L 156.728669 466.494353 
L 157.744908 468.13644 
L 158.761147 468.720258 
L 159.777387 468.742702 
L 160.793626 466.877818 
L 161.809865 468.483686 
L 162.826104 469.812796 
L 163.842343 470.271624 
L 164.858582 470.275165 
L 165.874822 470.766735 
L 167.9073 471.394237 
L 169.939778 477.565889 
L 170.956018 480.925254 
L 171.972257 479.652009 
L 172.988496 477.081003 
L 174.004735 475.023703 
L 175.020974 471.695921 
L 176.037214 470.799561 
L 177.053453 467.562034 
L 178.069692 466.174293 
L 179.085931 469.677256 
L 180.10217 475.647641 
L 181.118409 477.131887 
L 182.134649 474.766799 
L 183.150888 474.147035 
L 184.167127 477.042475 
L 185.183366 484.14378 
L 187.215845 488.002109 
L 188.232084 488.187645 
L 189.248323 487.302005 
L 190.264562 488.321146 
L 191.280801 488.466633 
L 192.297041 487.71836 
L 193.31328 486.344947 
L 194.329519 484.551564 
L 195.345758 484.185627 
L 196.361997 484.224756 
L 197.378236 482.83395 
L 198.394476 482.968626 
L 199.410715 482.254057 
L 200.426954 484.114157 
L 201.443193 485.214391 
L 202.459432 483.499611 
L 203.475672 484.385725 
L 204.491911 484.468207 
L 205.50815 486.171441 
L 206.524389 486.714573 
L 207.540628 485.308969 
L 208.556868 485.290444 
L 209.573107 486.345067 
L 210.589346 483.975806 
L 211.605585 483.315208 
L 212.621824 477.92538 
L 213.638063 478.124574 
L 214.654303 477.266281 
L 215.670542 472.913306 
L 216.686781 471.58286 
L 217.70302 469.399629 
L 219.735499 472.515124 
L 220.751738 473.347375 
L 221.767977 475.501638 
L 222.784216 477.114933 
L 223.800455 475.509134 
L 224.816694 476.183784 
L 225.832934 471.28608 
L 226.849173 472.089463 
L 227.865412 471.179812 
L 228.881651 470.563592 
L 229.89789 468.533983 
L 230.91413 467.371013 
L 231.930369 463.750004 
L 232.946608 463.786411 
L 233.962847 461.92923 
L 234.979086 462.727774 
L 237.011565 460.61306 
L 238.027804 461.057429 
L 239.044043 456.939689 
L 240.060282 459.89926 
L 241.076521 459.32659 
L 242.092761 457.907292 
L 243.109 462.32556 
L 244.125239 459.770309 
L 245.141478 458.081493 
L 246.157717 457.736602 
L 247.173957 452.440114 
L 248.190196 450.794817 
L 249.206435 447.160824 
L 250.222674 444.500359 
L 251.238913 435.757802 
L 252.255153 435.445145 
L 253.271392 433.112819 
L 254.287631 430.183339 
L 255.30387 428.228906 
L 256.320109 432.607858 
L 257.336348 430.03496 
L 258.352588 429.760018 
L 259.368827 427.887916 
L 260.385066 423.774086 
L 261.401305 422.00976 
L 262.417544 421.632351 
L 263.433784 422.22273 
L 264.450023 418.629188 
L 265.466262 418.533354 
L 266.482501 416.435526 
L 267.49874 415.492052 
L 268.51498 410.793955 
L 269.531219 409.474513 
L 271.563697 393.8807 
L 272.579936 396.304022 
L 273.596175 393.921685 
L 274.612415 394.874377 
L 275.628654 395.186469 
L 276.644893 397.267736 
L 277.661132 400.734273 
L 278.677371 402.816322 
L 279.693611 402.816322 
L 280.70985 404.401518 
L 281.726089 412.00428 
L 282.742328 412.311688 
L 283.758567 412.980269 
L 284.774806 417.716374 
L 285.791046 418.41684 
L 286.807285 417.585942 
L 287.823524 418.371509 
L 288.839763 418.277684 
L 289.856002 418.874414 
L 290.872242 423.615001 
L 291.888481 425.089618 
L 292.90472 429.085516 
L 293.920959 429.52352 
L 294.937198 433.965517 
L 295.953438 434.212828 
L 296.969677 439.68687 
L 297.985916 441.416628 
L 299.002155 447.557236 
L 300.018394 451.848425 
L 301.034633 458.250505 
L 302.050873 466.626472 
L 303.067112 465.481999 
L 304.083351 467.515853 
L 305.09959 470.593229 
L 306.115829 475.670375 
L 307.132069 472.640519 
L 308.148308 472.109995 
L 309.164547 463.432917 
L 310.180786 463.979209 
L 311.197025 463.189037 
L 313.229504 456.746873 
L 314.245743 457.184205 
L 315.261982 457.80168 
L 316.278221 459.642284 
L 318.3107 459.683536 
L 319.326939 461.31908 
L 320.343178 460.074432 
L 321.359417 461.021111 
L 322.375656 461.025484 
L 324.408135 462.166687 
L 325.424374 461.931853 
L 326.440613 461.998425 
L 327.456852 460.250407 
L 328.473092 460.153197 
L 329.489331 462.650569 
L 330.50557 463.875942 
L 331.521809 462.373108 
L 333.554287 462.300989 
L 334.570527 462.109576 
L 335.586766 461.194419 
L 336.603005 458.212283 
L 337.619244 457.772234 
L 338.635483 457.638922 
L 339.651723 464.190446 
L 340.667962 464.177489 
L 341.684201 463.899399 
L 342.70044 466.735289 
L 343.716679 467.701873 
L 344.732919 466.897975 
L 345.749158 468.485021 
L 346.765397 467.541683 
L 347.781636 467.541683 
L 348.797875 467.659478 
L 349.814114 469.200917 
L 350.830354 471.993093 
L 351.846593 471.405677 
L 352.862832 475.312672 
L 354.89531 471.901672 
L 355.91155 471.70427 
L 356.927789 470.735149 
L 357.944028 473.44827 
L 358.960267 473.852966 
L 359.976506 471.133134 
L 362.008985 471.204869 
L 363.025224 469.911077 
L 365.057702 470.198556 
L 366.073941 467.551999 
L 367.090181 467.551999 
L 368.10642 464.674315 
L 369.122659 464.246243 
L 370.138898 465.657258 
L 371.155137 465.264892 
L 372.171377 466.29052 
L 373.187616 465.455781 
L 374.203855 467.566316 
L 375.220094 466.848181 
L 376.236333 462.650126 
L 377.252572 462.549551 
L 378.268812 463.382497 
L 380.30129 463.36923 
L 381.317529 461.588298 
L 382.333768 463.962648 
L 383.350008 457.996653 
L 384.366247 461.770763 
L 385.382486 463.440304 
L 387.414964 463.440304 
L 388.431204 461.801031 
L 389.447443 461.801031 
L 390.463682 463.945417 
L 391.479921 463.945417 
L 392.49616 464.103115 
L 393.512399 465.259294 
L 394.528639 464.725045 
L 396.561117 474.125166 
L 397.577356 473.529146 
L 398.593595 476.620089 
L 399.609835 476.287369 
L 400.626074 478.085446 
L 401.642313 478.709587 
L 402.658552 475.739284 
L 403.674791 474.465415 
L 404.691031 471.86326 
L 405.70727 471.114729 
L 406.723509 471.39665 
L 407.739748 472.085938 
L 408.755987 471.195982 
L 410.788466 465.03467 
L 411.804705 465.335215 
L 412.820944 463.704611 
L 413.837183 463.704611 
L 414.853422 459.843423 
L 415.869662 459.328048 
L 417.90214 459.328048 
L 418.918379 458.76408 
L 419.934618 458.76408 
L 420.950857 456.985645 
L 421.967097 457.29672 
L 422.983336 456.875828 
L 423.999575 456.875828 
L 425.015814 457.29741 
L 426.032053 455.004717 
L 427.048293 455.599889 
L 428.064532 455.665428 
L 429.080771 455.438341 
L 430.09701 455.773047 
L 431.113249 455.352236 
L 432.129489 452.550046 
L 433.145728 453.412156 
L 434.161967 453.934334 
L 435.178206 455.248419 
L 436.194445 454.414282 
L 437.210684 456.962524 
L 438.226924 458.065693 
L 439.243163 458.924504 
L 440.259402 460.825238 
L 441.275641 463.439378 
L 442.29188 464.571939 
L 443.30812 466.464264 
L 444.324359 465.852618 
L 445.340598 467.504025 
L 446.356837 468.304784 
L 447.373076 468.278616 
L 448.389316 468.771788 
L 449.405555 468.057078 
L 451.438033 467.961267 
L 452.454272 468.547145 
L 453.470511 469.691399 
L 454.486751 470.289234 
L 455.50299 470.40878 
L 456.519229 470.214349 
L 457.535468 468.236652 
L 458.551707 468.340341 
L 460.584186 469.183742 
L 461.600425 469.221418 
L 462.616664 471.623509 
L 463.632903 472.367972 
L 464.649143 473.930744 
L 465.665382 473.930744 
L 466.681621 475.539339 
L 467.69786 473.825679 
L 468.714099 472.985329 
L 469.730338 472.378254 
L 470.746578 473.491792 
L 471.762817 473.897181 
L 472.779056 473.081489 
L 473.795295 471.242733 
L 474.811534 472.323732 
L 475.827774 472.052703 
L 477.860252 472.634799 
L 478.876491 473.310891 
L 479.89273 474.953569 
L 480.908969 473.929175 
L 481.925209 474.497238 
L 482.941448 469.299986 
L 483.957687 468.437041 
L 484.973926 466.746897 
L 485.990165 463.692702 
L 487.006405 463.692702 
L 488.022644 464.375704 
L 489.038883 463.645171 
L 493.10384 463.645171 
L 494.120079 463.493126 
L 495.136318 459.351975 
L 498.185036 459.351975 
L 499.201275 472.089361 
L 500.217514 469.604363 
L 501.233753 460.053721 
L 502.249992 460.036393 
L 503.266232 458.930122 
L 504.282471 457.507228 
L 507.331188 457.464656 
L 509.363667 460.024689 
L 510.379906 460.941982 
L 511.396145 462.560282 
L 512.412384 462.560282 
L 513.428623 466.717839 
L 515.461102 466.717839 
L 516.477341 466.902373 
L 518.509819 466.797637 
L 519.526059 467.415781 
L 520.542298 467.415781 
L 521.558537 467.077241 
L 522.574776 467.077241 
L 523.591015 472.048679 
L 525.623494 470.939769 
L 526.639733 470.122908 
L 527.655972 469.966294 
L 528.672211 469.399423 
L 529.68845 463.597645 
L 530.70469 463.79755 
L 531.720929 469.489302 
L 532.737168 469.995943 
L 534.769646 470.037854 
L 535.785886 470.760016 
L 536.802125 470.760016 
L 537.818364 466.932879 
L 538.834603 465.130164 
L 539.850842 465.939991 
L 540.867081 466.058356 
L 541.883321 465.640294 
L 542.89956 465.875994 
L 543.915799 465.875994 
L 544.932038 466.917535 
L 547.980756 467.542526 
L 548.996995 467.078364 
L 550.013234 466.991816 
L 551.029473 466.539152 
L 553.061952 466.856747 
L 554.078191 463.29522 
L 555.09443 463.265739 
L 556.110669 463.365986 
L 557.126908 464.192096 
L 558.143148 464.027921 
L 559.159387 464.345512 
L 560.175626 464.238729 
L 561.191865 463.356565 
L 562.208104 463.817777 
L 563.224344 463.817777 
L 564.240583 465.127749 
L 565.256822 464.606557 
L 567.2893 464.630201 
L 568.30554 468.329411 
L 569.321779 470.115286 
L 570.338018 466.83542 
L 571.354257 466.344553 
L 572.370496 468.450788 
L 573.386735 464.490879 
L 574.402975 464.490879 
L 575.419214 463.009816 
L 576.435453 457.888741 
L 577.451692 459.497508 
L 578.467931 458.457512 
L 579.484171 458.69815 
L 580.50041 458.69815 
L 581.516649 458.836895 
L 582.532888 458.836895 
L 583.549127 453.257436 
L 584.565367 452.984862 
L 585.581606 456.715663 
L 586.597845 456.715663 
L 587.614084 443.853932 
L 588.630323 449.062063 
L 589.646562 449.652899 
L 590.662802 449.099837 
L 591.679041 453.883874 
L 592.69528 452.170529 
L 593.711519 455.578649 
L 594.727758 455.610127 
L 595.743998 453.249715 
L 596.760237 453.582219 
L 597.776476 452.167501 
L 598.792715 452.950242 
L 599.808954 452.950242 
L 600.825194 452.595516 
L 601.841433 455.403157 
L 602.857672 453.383145 
L 603.873911 455.7143 
L 604.89015 457.20903 
L 605.906389 457.20903 
L 606.922629 462.612966 
L 607.938868 462.813436 
L 608.955107 462.374572 
L 609.971346 459.79677 
L 610.987585 460.352849 
L 612.003825 460.352849 
L 613.020064 462.352893 
L 614.036303 463.75663 
L 615.052542 464.36718 
L 616.068781 462.510412 
L 617.08502 462.510412 
L 618.10126 470.572439 
L 619.117499 468.124655 
L 620.133738 467.165085 
L 621.149977 467.119584 
L 622.166216 464.43374 
L 623.182456 464.237424 
L 625.214934 459.54497 
L 626.231173 461.731706 
L 627.247412 461.878584 
L 628.263652 461.690857 
L 629.279891 461.875117 
L 630.29613 461.662606 
L 631.312369 462.592423 
L 632.328608 459.744124 
L 633.344847 459.876628 
L 634.361087 462.092835 
L 635.377326 462.707454 
L 636.393565 462.707454 
L 637.409804 459.874617 
L 638.426043 459.874617 
L 639.442283 461.202302 
L 640.458522 468.509764 
L 641.474761 468.097213 
L 642.491 468.638931 
L 643.507239 465.809768 
L 644.523479 466.674087 
L 645.539718 466.674087 
L 646.555957 464.992165 
L 647.572196 464.982652 
L 648.588435 464.583055 
L 650.620914 466.626056 
L 651.637153 466.364615 
L 652.653392 469.712841 
L 654.68587 469.712841 
L 655.70211 470.704674 
L 656.718349 471.488775 
L 657.734588 471.692574 
L 658.750827 473.373196 
L 659.767066 473.533256 
L 660.783306 474.348169 
L 661.799545 474.348169 
L 662.815784 474.971128 
L 663.832023 474.971128 
L 664.848262 473.642833 
L 665.864501 471.289926 
L 668.913219 471.289926 
L 669.929458 471.06803 
L 670.945697 467.064805 
L 671.961937 467.760603 
L 672.978176 467.124215 
L 675.010654 468.186885 
L 676.026893 468.186885 
L 677.043132 470.632069 
L 678.059372 471.846707 
L 679.075611 469.905103 
L 680.09185 468.611368 
L 681.108089 469.541709 
L 682.124328 471.573263 
L 683.140568 466.326016 
L 684.156807 458.552154 
L 685.173046 458.552154 
L 686.189285 461.859011 
L 687.205524 459.04659 
L 688.221764 457.936969 
L 691.270481 457.936969 
L 692.28672 461.600355 
L 695.335438 461.600355 
L 696.351677 462.05009 
L 697.367916 459.485031 
L 701.432873 459.591065 
L 702.449112 457.400133 
L 704.481591 457.400133 
L 705.49783 458.14071 
L 707.530308 458.14071 
L 708.546547 455.365098 
L 710.579026 460.917528 
L 713.627743 460.917528 
L 714.643982 471.250405 
L 715.660222 470.865147 
L 716.676461 467.052718 
L 717.6927 464.834026 
L 718.708939 466.622495 
L 719.725178 466.622495 
L 720.741418 468.564949 
L 721.757657 468.564949 
L 722.773896 465.314213 
L 724.806374 465.314213 
L 725.822613 467.2161 
L 726.838853 467.2161 
L 727.855092 471.068175 
L 729.88757 471.068175 
L 730.903809 460.345704 
L 731.920049 460.345704 
L 732.936288 460.980974 
L 733.952527 463.609508 
L 734.968766 463.609508 
L 735.985005 463.467575 
L 737.001244 463.467575 
L 738.017484 466.344937 
L 739.033723 467.139749 
L 740.049962 467.139749 
L 741.066201 465.619839 
L 742.08244 462.478291 
L 743.09868 462.478291 
L 744.114919 463.898666 
L 745.131158 462.976447 
L 746.147397 462.504457 
L 747.163636 460.482097 
L 747.163636 460.482097 
" clip-path="url(#p13b781f985)" style="fill: none; stroke: #1f77b4; stroke-width: 4; stroke-linecap: square"/>
   </g>
   <g id="line2d_30">
    <path d="M 138.436364 414.983542 
L 140.468842 401.002043 
L 141.485081 417.421095 
L 142.50132 443.476459 
L 143.51756 415.452761 
L 144.533799 411.953959 
L 145.550038 415.443184 
L 146.566277 398.280209 
L 147.582516 420.76613 
L 148.598756 411.890368 
L 149.614995 412.355512 
L 150.631234 414.016851 
L 151.647473 420.118275 
L 152.663712 418.350282 
L 153.679951 413.294021 
L 154.696191 412.290879 
L 155.71243 411.092159 
L 156.728669 412.445685 
L 157.744908 415.780509 
L 158.761147 418.32418 
L 159.777387 423.559118 
L 160.793626 422.455361 
L 161.809865 419.969801 
L 163.842343 422.48368 
L 164.858582 422.561805 
L 165.874822 422.245492 
L 166.891061 425.4586 
L 167.9073 427.771438 
L 169.939778 435.200836 
L 170.956018 439.733406 
L 171.972257 441.529794 
L 172.988496 440.815174 
L 174.004735 446.383241 
L 175.020974 447.543164 
L 176.037214 450.089972 
L 177.053453 457.208673 
L 178.069692 451.780156 
L 179.085931 455.361299 
L 181.118409 454.800205 
L 182.134649 453.137153 
L 183.150888 454.823723 
L 184.167127 457.031562 
L 185.183366 460.169105 
L 186.199605 462.51474 
L 187.215845 463.953086 
L 188.232084 460.309857 
L 189.248323 457.800488 
L 190.264562 454.508886 
L 192.297041 459.560224 
L 193.31328 458.457783 
L 194.329519 457.653492 
L 195.345758 457.353223 
L 196.361997 458.746952 
L 197.378236 458.639349 
L 198.394476 457.266953 
L 199.410715 452.099868 
L 200.426954 449.425525 
L 201.443193 449.640795 
L 202.459432 447.695022 
L 203.475672 443.796935 
L 204.491911 443.601844 
L 205.50815 442.634008 
L 206.524389 440.812598 
L 207.540628 440.698156 
L 208.556868 440.938491 
L 210.589346 447.475759 
L 211.605585 451.165963 
L 212.621824 453.114691 
L 213.638063 455.787469 
L 214.654303 459.746667 
L 215.670542 460.294059 
L 216.686781 459.269443 
L 217.70302 460.331162 
L 218.719259 464.223241 
L 219.735499 465.181975 
L 220.751738 465.948749 
L 221.767977 464.235959 
L 222.784216 462.806602 
L 223.800455 462.346381 
L 224.816694 462.194475 
L 225.832934 461.495019 
L 226.849173 461.125603 
L 227.865412 457.529908 
L 228.881651 456.343568 
L 229.89789 457.298407 
L 230.91413 456.206386 
L 231.930369 451.774309 
L 232.946608 448.839148 
L 233.962847 448.298253 
L 234.979086 445.729402 
L 235.995326 442.318541 
L 237.011565 442.921929 
L 238.027804 440.760251 
L 239.044043 439.560147 
L 240.060282 442.039058 
L 241.076521 441.432453 
L 242.092761 442.815759 
L 243.109 444.666354 
L 244.125239 444.851528 
L 245.141478 445.618024 
L 246.157717 446.690649 
L 247.173957 449.616407 
L 248.190196 449.798859 
L 249.206435 451.014812 
L 250.222674 453.286394 
L 251.238913 454.013853 
L 252.255153 455.171368 
L 253.271392 457.17048 
L 254.287631 458.715628 
L 255.30387 458.351949 
L 256.320109 459.886295 
L 257.336348 459.979801 
L 258.352588 462.876356 
L 259.368827 464.38451 
L 261.401305 469.133387 
L 262.417544 472.835168 
L 263.433784 475.022621 
L 264.450023 478.044498 
L 265.466262 481.853524 
L 266.482501 487.218891 
L 268.51498 488.286461 
L 269.531219 488.192825 
L 270.547458 484.519366 
L 271.563697 483.60001 
L 274.612415 474.441035 
L 276.644893 467.279415 
L 277.661132 462.746648 
L 278.677371 461.306518 
L 279.693611 457.812959 
L 281.726089 458.436409 
L 282.742328 459.019063 
L 284.774806 457.987506 
L 285.791046 458.665152 
L 286.807285 459.018291 
L 287.823524 457.467155 
L 288.839763 456.365222 
L 289.856002 456.435402 
L 291.888481 455.32252 
L 292.90472 455.544975 
L 293.920959 452.926837 
L 294.937198 449.773596 
L 295.953438 448.583598 
L 296.969677 449.091489 
L 297.985916 447.923566 
L 299.002155 448.902744 
L 300.018394 450.388727 
L 301.034633 450.090971 
L 302.050873 448.563977 
L 303.067112 447.595737 
L 304.083351 446.963588 
L 305.09959 445.337856 
L 306.115829 448.733764 
L 307.132069 448.999002 
L 308.148308 451.595703 
L 309.164547 450.326947 
L 310.180786 450.970459 
L 311.197025 449.336383 
L 312.213265 448.382276 
L 313.229504 447.120737 
L 314.245743 446.868808 
L 315.261982 447.866449 
L 316.278221 448.633008 
L 317.29446 449.615511 
L 318.3107 451.433706 
L 319.326939 451.838131 
L 320.343178 451.980147 
L 321.359417 453.015903 
L 323.391896 452.475885 
L 324.408135 455.927322 
L 325.424374 456.840605 
L 327.456852 465.192224 
L 330.50557 452.496775 
L 331.521809 447.646077 
L 332.538048 444.936725 
L 333.554287 440.964763 
L 334.570527 448.502741 
L 335.586766 445.837378 
L 336.603005 438.237162 
L 337.619244 434.318474 
L 338.635483 429.597336 
L 341.684201 417.222805 
L 342.70044 412.48288 
L 344.732919 404.742604 
L 350.830354 374.933064 
L 351.846593 369.256776 
L 352.862832 364.855249 
L 353.879071 358.634174 
L 354.89531 353.805921 
L 355.91155 350.567906 
L 356.927789 341.732379 
L 357.944028 330.065671 
L 360.992745 332.877815 
L 363.025224 335.846772 
L 364.041463 339.584921 
L 365.057702 331.972309 
L 366.073941 339.628197 
L 367.090181 341.402432 
L 368.10642 343.639672 
L 369.122659 340.959009 
L 370.138898 343.173991 
L 371.155137 345.985969 
L 372.171377 348.091525 
L 373.187616 345.3263 
L 374.203855 350.799218 
L 381.317529 363.610207 
L 384.366247 369.17044 
L 386.398725 372.58282 
L 387.414964 374.742734 
L 388.431204 379.107309 
L 389.447443 379.247181 
L 390.463682 379.703705 
L 391.479921 379.664879 
L 393.512399 378.695815 
L 395.544878 373.248508 
L 396.561117 367.187298 
L 397.577356 367.032583 
L 398.593595 366.151988 
L 399.609835 370.160153 
L 400.626074 369.222178 
L 401.642313 367.634092 
L 402.658552 366.426567 
L 403.674791 370.3964 
L 404.691031 365.618326 
L 405.70727 364.724911 
L 406.723509 366.821853 
L 414.853422 361.909572 
L 417.90214 360.029528 
L 421.967097 358.228012 
L 426.032053 356.667116 
L 428.064532 356.014084 
L 430.09701 355.579337 
L 432.129489 355.378027 
L 433.145728 356.093932 
L 434.161967 356.358351 
L 435.178206 356.785369 
L 436.194445 356.934512 
L 437.210684 354.173946 
L 447.373076 353.671645 
L 449.405555 353.547665 
L 456.519229 353.016485 
L 460.584186 352.954013 
L 462.616664 353.048801 
L 463.632903 352.551045 
L 464.649143 352.458384 
L 465.665382 349.731799 
L 466.681621 348.765755 
L 469.730338 342.327974 
L 471.762817 337.290982 
L 475.827774 326.757766 
L 476.844013 323.799056 
L 477.860252 320.100393 
L 479.89273 312.136097 
L 492.087601 267.153642 
L 495.136318 255.864345 
L 496.152557 254.955459 
L 497.168796 252.191434 
L 498.185036 250.064635 
L 500.217514 246.918283 
L 501.233753 245.610416 
L 506.314949 240.050892 
L 507.331188 239.262747 
L 508.347428 239.208475 
L 510.379906 240.101188 
L 511.396145 240.356814 
L 513.428623 241.123525 
L 514.444863 241.227089 
L 515.461102 240.632154 
L 516.477341 239.727012 
L 517.49358 239.774942 
L 518.509819 246.338277 
L 520.542298 245.697116 
L 521.558537 244.882115 
L 522.574776 244.323544 
L 525.623494 241.874379 
L 526.639733 244.440978 
L 527.655972 244.15088 
L 528.672211 244.252163 
L 529.68845 243.757078 
L 530.70469 242.482496 
L 531.720929 241.669827 
L 532.737168 240.156625 
L 533.753407 239.778731 
L 534.769646 239.240169 
L 535.785886 238.029153 
L 536.802125 236.622702 
L 537.818364 234.720699 
L 538.834603 232.319337 
L 539.850842 231.083476 
L 541.883321 227.252554 
L 542.89956 226.13272 
L 544.932038 219.381392 
L 545.948277 216.2838 
L 546.964517 213.572665 
L 547.980756 212.167071 
L 548.996995 202.345841 
L 550.013234 199.236178 
L 551.029473 195.689732 
L 552.045713 194.509627 
L 553.061952 193.0353 
L 555.09443 187.390456 
L 556.110669 184.189836 
L 557.126908 179.591858 
L 559.159387 173.332405 
L 560.175626 168.895458 
L 561.191865 166.857621 
L 562.208104 167.719997 
L 563.224344 165.035121 
L 564.240583 161.718473 
L 565.256822 159.695828 
L 567.2893 153.847338 
L 568.30554 151.243285 
L 569.321779 149.332575 
L 572.370496 139.072789 
L 573.386735 134.551376 
L 574.402975 134.279143 
L 575.419214 132.420961 
L 576.435453 131.421887 
L 577.451692 129.601951 
L 578.467931 125.973922 
L 579.484171 124.178789 
L 580.50041 123.884631 
L 581.516649 125.231797 
L 583.549127 120.203859 
L 584.565367 118.587038 
L 586.597845 114.952187 
L 587.614084 111.370974 
L 588.630323 112.41761 
L 589.646562 111.394355 
L 590.662802 110.632333 
L 591.679041 108.345492 
L 592.69528 103.897439 
L 593.711519 103.273148 
L 594.727758 101.376678 
L 595.743998 98.471355 
L 596.760237 97.348786 
L 597.776476 96.007396 
L 599.808954 92.723438 
L 600.825194 91.055169 
L 601.841433 90.620449 
L 602.857672 89.832849 
L 603.873911 89.28 
L 604.89015 94.271705 
L 605.906389 97.331909 
L 606.922629 99.347774 
L 607.938868 102.286581 
L 608.955107 102.825502 
L 609.971346 102.934286 
L 612.003825 99.679872 
L 613.020064 99.791577 
L 614.036303 99.630252 
L 615.052542 100.092089 
L 616.068781 102.246145 
L 617.08502 105.432314 
L 618.10126 106.045732 
L 619.117499 105.274849 
L 620.133738 105.166763 
L 622.166216 105.683114 
L 623.182456 105.090345 
L 624.198695 105.420852 
L 625.214934 106.323917 
L 626.231173 107.437807 
L 627.247412 108.016242 
L 628.263652 109.079159 
L 632.328608 115.09792 
L 634.361087 116.652488 
L 635.377326 110.004585 
L 637.409804 106.216614 
L 638.426043 105.437155 
L 639.442283 106.804238 
L 640.458522 108.654446 
L 641.474761 109.401972 
L 642.491 109.031291 
L 644.523479 110.301158 
L 645.539718 111.114391 
L 646.555957 110.896029 
L 647.572196 109.205695 
L 648.588435 110.402422 
L 649.604674 109.907885 
L 650.620914 110.524166 
L 652.653392 113.490727 
L 654.68587 115.634166 
L 655.70211 115.965051 
L 656.718349 116.877999 
L 657.734588 117.331586 
L 658.750827 116.729767 
L 659.767066 117.500248 
L 660.783306 117.89961 
L 661.799545 117.729035 
L 662.815784 120.230759 
L 663.832023 121.536835 
L 664.848262 122.639851 
L 665.864501 123.232879 
L 666.880741 122.8147 
L 667.89698 123.512947 
L 668.913219 122.721315 
L 669.929458 122.681673 
L 670.945697 121.473431 
L 671.961937 121.406189 
L 672.978176 122.566933 
L 673.994415 121.74406 
L 675.010654 121.709194 
L 676.026893 121.485261 
L 677.043132 120.404465 
L 678.059372 120.217326 
L 680.09185 118.990805 
L 681.108089 118.716474 
L 682.124328 118.247483 
L 683.140568 117.977852 
L 684.156807 117.488367 
L 685.173046 116.75878 
L 687.205524 116.055047 
L 688.221764 116.008127 
L 689.238003 116.546891 
L 690.254242 115.792985 
L 691.270481 115.507172 
L 692.28672 115.872294 
L 693.302959 112.933679 
L 694.319199 112.505491 
L 695.335438 111.716369 
L 696.351677 112.254632 
L 697.367916 111.93733 
L 699.400395 110.485582 
L 700.416634 109.577185 
L 701.432873 109.892035 
L 702.449112 110.073335 
L 703.465351 109.231217 
L 704.481591 109.38024 
L 706.514069 108.73194 
L 708.546547 109.884649 
L 709.562786 109.86523 
L 710.579026 109.342888 
L 711.595265 109.318647 
L 713.627743 109.655845 
L 714.643982 110.261182 
L 716.676461 110.958541 
L 717.6927 110.888883 
L 718.708939 111.175131 
L 719.725178 111.975532 
L 721.757657 112.983652 
L 723.790135 113.472486 
L 724.806374 113.254967 
L 725.822613 114.22065 
L 726.838853 113.891188 
L 727.855092 114.711095 
L 728.871331 115.065944 
L 729.88757 115.652482 
L 731.920049 115.245404 
L 733.952527 115.387088 
L 734.968766 115.751862 
L 735.985005 115.902465 
L 737.001244 116.298327 
L 739.033723 116.042016 
L 741.066201 116.734688 
L 742.08244 117.165017 
L 744.114919 117.405908 
L 746.147397 117.045137 
L 747.163636 117.35149 
L 747.163636 117.35149 
" clip-path="url(#p13b781f985)" style="fill: none; stroke: #ff7f0e; stroke-width: 4; stroke-linecap: square"/>
   </g>
   <g id="line2d_31"/>
   <g id="line2d_32"/>
   <g id="patch_3">
    <path d="M 108 512.64 
L 108 69.12 
" style="fill: none; stroke: #000000; stroke-width: 0.8; stroke-linejoin: miter; stroke-linecap: square"/>
   </g>
   <g id="patch_4">
    <path d="M 777.6 512.64 
L 777.6 69.12 
" style="fill: none; stroke: #000000; stroke-width: 0.8; stroke-linejoin: miter; stroke-linecap: square"/>
   </g>
   <g id="patch_5">
    <path d="M 108 512.64 
L 777.6 512.64 
" style="fill: none; stroke: #000000; stroke-width: 0.8; stroke-linejoin: miter; stroke-linecap: square"/>
   </g>
   <g id="patch_6">
    <path d="M 108 69.12 
L 777.6 69.12 
" style="fill: none; stroke: #000000; stroke-width: 0.8; stroke-linejoin: miter; stroke-linecap: square"/>
   </g>
   <g id="text_17">
    <!-- binding -->
    <g transform="translate(330.970313 56.641875) scale(0.6 -0.6)">
     <defs>
      <path id="DejaVuSans-62" d="M 3116 1747 
Q 3116 2381 2855 2742 
Q 2594 3103 2138 3103 
Q 1681 3103 1420 2742 
Q 1159 2381 1159 1747 
Q 1159 1113 1420 752 
Q 1681 391 2138 391 
Q 2594 391 2855 752 
Q 3116 1113 3116 1747 
z
M 1159 2969 
Q 1341 3281 1617 3432 
Q 1894 3584 2278 3584 
Q 2916 3584 3314 3078 
Q 3713 2572 3713 1747 
Q 3713 922 3314 415 
Q 2916 -91 2278 -91 
Q 1894 -91 1617 61 
Q 1341 213 1159 525 
L 1159 0 
L 581 0 
L 581 4863 
L 1159 4863 
L 1159 2969 
z
" transform="scale(0.015625)"/>
      <path id="DejaVuSans-69" d="M 603 3500 
L 1178 3500 
L 1178 0 
L 603 0 
L 603 3500 
z
M 603 4863 
L 1178 4863 
L 1178 4134 
L 603 4134 
L 603 4863 
z
" transform="scale(0.015625)"/>
      <path id="DejaVuSans-64" d="M 2906 2969 
L 2906 4863 
L 3481 4863 
L 3481 0 
L 2906 0 
L 2906 525 
Q 2725 213 2448 61 
Q 2172 -91 1784 -91 
Q 1150 -91 751 415 
Q 353 922 353 1747 
Q 353 2572 751 3078 
Q 1150 3584 1784 3584 
Q 2172 3584 2448 3432 
Q 2725 3281 2906 2969 
z
M 947 1747 
Q 947 1113 1208 752 
Q 1469 391 1925 391 
Q 2381 391 2643 752 
Q 2906 1113 2906 1747 
Q 2906 2381 2643 2742 
Q 2381 3103 1925 3103 
Q 1469 3103 1208 2742 
Q 947 2381 947 1747 
z
" transform="scale(0.015625)"/>
      <path id="DejaVuSans-67" d="M 2906 1791 
Q 2906 2416 2648 2759 
Q 2391 3103 1925 3103 
Q 1463 3103 1205 2759 
Q 947 2416 947 1791 
Q 947 1169 1205 825 
Q 1463 481 1925 481 
Q 2391 481 2648 825 
Q 2906 1169 2906 1791 
z
M 3481 434 
Q 3481 -459 3084 -895 
Q 2688 -1331 1869 -1331 
Q 1566 -1331 1297 -1286 
Q 1028 -1241 775 -1147 
L 775 -588 
Q 1028 -725 1275 -790 
Q 1522 -856 1778 -856 
Q 2344 -856 2625 -561 
Q 2906 -266 2906 331 
L 2906 616 
Q 2728 306 2450 153 
Q 2172 0 1784 0 
Q 1141 0 747 490 
Q 353 981 353 1791 
Q 353 2603 747 3093 
Q 1141 3584 1784 3584 
Q 2172 3584 2450 3431 
Q 2728 3278 2906 2969 
L 2906 3500 
L 3481 3500 
L 3481 434 
z
" transform="scale(0.015625)"/>
     </defs>
     <use xlink:href="#DejaVuSans-62"/>
     <use xlink:href="#DejaVuSans-69" x="63.476562"/>
     <use xlink:href="#DejaVuSans-6e" x="91.259766"/>
     <use xlink:href="#DejaVuSans-64" x="154.638672"/>
     <use xlink:href="#DejaVuSans-69" x="218.115234"/>
     <use xlink:href="#DejaVuSans-6e" x="245.898438"/>
     <use xlink:href="#DejaVuSans-67" x="309.277344"/>
    </g>
   </g>
   <g id="legend_1">
    <g id="patch_7">
     <path d="M 136 218.545 
L 401.66875 218.545 
Q 409.66875 218.545 409.66875 210.545 
L 409.66875 97.12 
Q 409.66875 89.12 401.66875 89.12 
L 136 89.12 
Q 128 89.12 128 97.12 
L 128 210.545 
Q 128 218.545 136 218.545 
z
" style="fill: #ffffff; opacity: 0.8; stroke: #cccccc; stroke-linejoin: miter"/>
    </g>
    <g id="line2d_33">
     <path d="M 144 121.51375 
L 184 121.51375 
L 224 121.51375 
" style="fill: none; stroke: #1f77b4; stroke-width: 4; stroke-linecap: square"/>
    </g>
    <g id="text_18">
     <!-- local -->
     <g transform="translate(256 135.51375) scale(0.4 -0.4)">
      <defs>
       <path id="DejaVuSans-6c" d="M 603 4863 
L 1178 4863 
L 1178 0 
L 603 0 
L 603 4863 
z
" transform="scale(0.015625)"/>
       <path id="DejaVuSans-63" d="M 3122 3366 
L 3122 2828 
Q 2878 2963 2633 3030 
Q 2388 3097 2138 3097 
Q 1578 3097 1268 2742 
Q 959 2388 959 1747 
Q 959 1106 1268 751 
Q 1578 397 2138 397 
Q 2388 397 2633 464 
Q 2878 531 3122 666 
L 3122 134 
Q 2881 22 2623 -34 
Q 2366 -91 2075 -91 
Q 1284 -91 818 406 
Q 353 903 353 1747 
Q 353 2603 823 3093 
Q 1294 3584 2113 3584 
Q 2378 3584 2631 3529 
Q 2884 3475 3122 3366 
z
" transform="scale(0.015625)"/>
      </defs>
      <use xlink:href="#DejaVuSans-6c"/>
      <use xlink:href="#DejaVuSans-6f" x="27.783203"/>
      <use xlink:href="#DejaVuSans-63" x="88.964844"/>
      <use xlink:href="#DejaVuSans-61" x="143.945312"/>
      <use xlink:href="#DejaVuSans-6c" x="205.224609"/>
     </g>
    </g>
    <g id="line2d_34">
     <path d="M 144 180.22625 
L 184 180.22625 
L 224 180.22625 
" style="fill: none; stroke: #ff7f0e; stroke-width: 4; stroke-linecap: square"/>
    </g>
    <g id="text_19">
     <!-- fedavg -->
     <g transform="translate(256 194.22625) scale(0.4 -0.4)">
      <defs>
       <path id="DejaVuSans-66" d="M 2375 4863 
L 2375 4384 
L 1825 4384 
Q 1516 4384 1395 4259 
Q 1275 4134 1275 3809 
L 1275 3500 
L 2222 3500 
L 2222 3053 
L 1275 3053 
L 1275 0 
L 697 0 
L 697 3053 
L 147 3053 
L 147 3500 
L 697 3500 
L 697 3744 
Q 697 4328 969 4595 
Q 1241 4863 1831 4863 
L 2375 4863 
z
" transform="scale(0.015625)"/>
       <path id="DejaVuSans-76" d="M 191 3500 
L 800 3500 
L 1894 563 
L 2988 3500 
L 3597 3500 
L 2284 0 
L 1503 0 
L 191 3500 
z
" transform="scale(0.015625)"/>
      </defs>
      <use xlink:href="#DejaVuSans-66"/>
      <use xlink:href="#DejaVuSans-65" x="35.205078"/>
      <use xlink:href="#DejaVuSans-64" x="96.728516"/>
      <use xlink:href="#DejaVuSans-61" x="160.205078"/>
      <use xlink:href="#DejaVuSans-76" x="221.484375"/>
      <use xlink:href="#DejaVuSans-67" x="280.664062"/>
     </g>
    </g>
   </g>
  </g>
 </g>
 <defs>
  <clipPath id="p13b781f985">
   <rect x="108" y="69.12" width="669.6" height="443.52"/>
  </clipPath>
 </defs>
</svg>
