<?xml version="1.0" encoding="utf-8" standalone="no"?>
<!DOCTYPE svg PUBLIC "-//W3C//DTD SVG 1.1//EN"
  "http://www.w3.org/Graphics/SVG/1.1/DTD/svg11.dtd">
<svg xmlns:xlink="http://www.w3.org/1999/xlink" width="864pt" height="576pt" viewBox="0 0 864 576" xmlns="http://www.w3.org/2000/svg" version="1.1">
 <metadata>
  <rdf:RDF xmlns:dc="http://purl.org/dc/elements/1.1/" xmlns:cc="http://creativecommons.org/ns#" xmlns:rdf="http://www.w3.org/1999/02/22-rdf-syntax-ns#">
   <cc:Work>
    <dc:type rdf:resource="http://purl.org/dc/dcmitype/StillImage"/>
    <dc:date>2025-04-25T14:16:38.673049</dc:date>
    <dc:format>image/svg+xml</dc:format>
    <dc:creator>
     <cc:Agent>
      <dc:title>Matplotlib v3.8.2, https://matplotlib.org/</dc:title>
     </cc:Agent>
    </dc:creator>
   </cc:Work>
  </rdf:RDF>
 </metadata>
 <defs>
  <style type="text/css">*{stroke-linejoin: round; stroke-linecap: butt}</style>
 </defs>
 <g id="figure_1">
  <g id="patch_1">
   <path d="M 0 576 
L 864 576 
L 864 0 
L 0 0 
z
" style="fill: #ffffff"/>
  </g>
  <g id="axes_1">
   <g id="patch_2">
    <path d="M 108 512.64 
L 777.6 512.64 
L 777.6 69.12 
L 108 69.12 
z
" style="fill: #ffffff"/>
   </g>
   <g id="PolyCollection_1"/>
   <g id="PolyCollection_2"/>
   <g id="matplotlib.axis_1">
    <g id="xtick_1">
     <g id="line2d_1">
      <path d="M 137.420124 512.64 
L 137.420124 69.12 
" clip-path="url(#pf5e54e73a2)" style="fill: none; stroke: #b0b0b0; stroke-width: 0.8; stroke-linecap: square"/>
     </g>
     <g id="line2d_2">
      <defs>
       <path id="m7bd86c1244" d="M 0 0 
L 0 3.5 
" style="stroke: #000000; stroke-width: 0.8"/>
      </defs>
      <g>
       <use xlink:href="#m7bd86c1244" x="137.420124" y="512.64" style="stroke: #000000; stroke-width: 0.8"/>
      </g>
     </g>
     <g id="text_1">
      <!-- 0 -->
      <g transform="translate(127.876374 542.435313) scale(0.3 -0.3)">
       <defs>
        <path id="DejaVuSans-30" d="M 2034 4250 
Q 1547 4250 1301 3770 
Q 1056 3291 1056 2328 
Q 1056 1369 1301 889 
Q 1547 409 2034 409 
Q 2525 409 2770 889 
Q 3016 1369 3016 2328 
Q 3016 3291 2770 3770 
Q 2525 4250 2034 4250 
z
M 2034 4750 
Q 2819 4750 3233 4129 
Q 3647 3509 3647 2328 
Q 3647 1150 3233 529 
Q 2819 -91 2034 -91 
Q 1250 -91 836 529 
Q 422 1150 422 2328 
Q 422 3509 836 4129 
Q 1250 4750 2034 4750 
z
" transform="scale(0.015625)"/>
       </defs>
       <use xlink:href="#DejaVuSans-30"/>
      </g>
     </g>
    </g>
    <g id="xtick_2">
     <g id="line2d_3">
      <path d="M 222.106723 512.64 
L 222.106723 69.12 
" clip-path="url(#pf5e54e73a2)" style="fill: none; stroke: #b0b0b0; stroke-width: 0.8; stroke-linecap: square"/>
     </g>
     <g id="line2d_4">
      <g>
       <use xlink:href="#m7bd86c1244" x="222.106723" y="512.64" style="stroke: #000000; stroke-width: 0.8"/>
      </g>
     </g>
     <g id="text_2">
      <!-- 500 -->
      <g transform="translate(193.475473 542.435313) scale(0.3 -0.3)">
       <defs>
        <path id="DejaVuSans-35" d="M 691 4666 
L 3169 4666 
L 3169 4134 
L 1269 4134 
L 1269 2991 
Q 1406 3038 1543 3061 
Q 1681 3084 1819 3084 
Q 2600 3084 3056 2656 
Q 3513 2228 3513 1497 
Q 3513 744 3044 326 
Q 2575 -91 1722 -91 
Q 1428 -91 1123 -41 
Q 819 9 494 109 
L 494 744 
Q 775 591 1075 516 
Q 1375 441 1709 441 
Q 2250 441 2565 725 
Q 2881 1009 2881 1497 
Q 2881 1984 2565 2268 
Q 2250 2553 1709 2553 
Q 1456 2553 1204 2497 
Q 953 2441 691 2322 
L 691 4666 
z
" transform="scale(0.015625)"/>
       </defs>
       <use xlink:href="#DejaVuSans-35"/>
       <use xlink:href="#DejaVuSans-30" x="63.623047"/>
       <use xlink:href="#DejaVuSans-30" x="127.246094"/>
      </g>
     </g>
    </g>
    <g id="xtick_3">
     <g id="line2d_5">
      <path d="M 306.793322 512.64 
L 306.793322 69.12 
" clip-path="url(#pf5e54e73a2)" style="fill: none; stroke: #b0b0b0; stroke-width: 0.8; stroke-linecap: square"/>
     </g>
     <g id="line2d_6">
      <g>
       <use xlink:href="#m7bd86c1244" x="306.793322" y="512.64" style="stroke: #000000; stroke-width: 0.8"/>
      </g>
     </g>
     <g id="text_3">
      <!-- 1000 -->
      <g transform="translate(268.618322 542.435313) scale(0.3 -0.3)">
       <defs>
        <path id="DejaVuSans-31" d="M 794 531 
L 1825 531 
L 1825 4091 
L 703 3866 
L 703 4441 
L 1819 4666 
L 2450 4666 
L 2450 531 
L 3481 531 
L 3481 0 
L 794 0 
L 794 531 
z
" transform="scale(0.015625)"/>
       </defs>
       <use xlink:href="#DejaVuSans-31"/>
       <use xlink:href="#DejaVuSans-30" x="63.623047"/>
       <use xlink:href="#DejaVuSans-30" x="127.246094"/>
       <use xlink:href="#DejaVuSans-30" x="190.869141"/>
      </g>
     </g>
    </g>
    <g id="xtick_4">
     <g id="line2d_7">
      <path d="M 391.479921 512.64 
L 391.479921 69.12 
" clip-path="url(#pf5e54e73a2)" style="fill: none; stroke: #b0b0b0; stroke-width: 0.8; stroke-linecap: square"/>
     </g>
     <g id="line2d_8">
      <g>
       <use xlink:href="#m7bd86c1244" x="391.479921" y="512.64" style="stroke: #000000; stroke-width: 0.8"/>
      </g>
     </g>
     <g id="text_4">
      <!-- 1500 -->
      <g transform="translate(353.304921 542.435313) scale(0.3 -0.3)">
       <use xlink:href="#DejaVuSans-31"/>
       <use xlink:href="#DejaVuSans-35" x="63.623047"/>
       <use xlink:href="#DejaVuSans-30" x="127.246094"/>
       <use xlink:href="#DejaVuSans-30" x="190.869141"/>
      </g>
     </g>
    </g>
    <g id="xtick_5">
     <g id="line2d_9">
      <path d="M 476.16652 512.64 
L 476.16652 69.12 
" clip-path="url(#pf5e54e73a2)" style="fill: none; stroke: #b0b0b0; stroke-width: 0.8; stroke-linecap: square"/>
     </g>
     <g id="line2d_10">
      <g>
       <use xlink:href="#m7bd86c1244" x="476.16652" y="512.64" style="stroke: #000000; stroke-width: 0.8"/>
      </g>
     </g>
     <g id="text_5">
      <!-- 2000 -->
      <g transform="translate(437.99152 542.435313) scale(0.3 -0.3)">
       <defs>
        <path id="DejaVuSans-32" d="M 1228 531 
L 3431 531 
L 3431 0 
L 469 0 
L 469 531 
Q 828 903 1448 1529 
Q 2069 2156 2228 2338 
Q 2531 2678 2651 2914 
Q 2772 3150 2772 3378 
Q 2772 3750 2511 3984 
Q 2250 4219 1831 4219 
Q 1534 4219 1204 4116 
Q 875 4013 500 3803 
L 500 4441 
Q 881 4594 1212 4672 
Q 1544 4750 1819 4750 
Q 2544 4750 2975 4387 
Q 3406 4025 3406 3419 
Q 3406 3131 3298 2873 
Q 3191 2616 2906 2266 
Q 2828 2175 2409 1742 
Q 1991 1309 1228 531 
z
" transform="scale(0.015625)"/>
       </defs>
       <use xlink:href="#DejaVuSans-32"/>
       <use xlink:href="#DejaVuSans-30" x="63.623047"/>
       <use xlink:href="#DejaVuSans-30" x="127.246094"/>
       <use xlink:href="#DejaVuSans-30" x="190.869141"/>
      </g>
     </g>
    </g>
    <g id="xtick_6">
     <g id="line2d_11">
      <path d="M 560.853119 512.64 
L 560.853119 69.12 
" clip-path="url(#pf5e54e73a2)" style="fill: none; stroke: #b0b0b0; stroke-width: 0.8; stroke-linecap: square"/>
     </g>
     <g id="line2d_12">
      <g>
       <use xlink:href="#m7bd86c1244" x="560.853119" y="512.64" style="stroke: #000000; stroke-width: 0.8"/>
      </g>
     </g>
     <g id="text_6">
      <!-- 2500 -->
      <g transform="translate(522.678119 542.435313) scale(0.3 -0.3)">
       <use xlink:href="#DejaVuSans-32"/>
       <use xlink:href="#DejaVuSans-35" x="63.623047"/>
       <use xlink:href="#DejaVuSans-30" x="127.246094"/>
       <use xlink:href="#DejaVuSans-30" x="190.869141"/>
      </g>
     </g>
    </g>
    <g id="xtick_7">
     <g id="line2d_13">
      <path d="M 645.539718 512.64 
L 645.539718 69.12 
" clip-path="url(#pf5e54e73a2)" style="fill: none; stroke: #b0b0b0; stroke-width: 0.8; stroke-linecap: square"/>
     </g>
     <g id="line2d_14">
      <g>
       <use xlink:href="#m7bd86c1244" x="645.539718" y="512.64" style="stroke: #000000; stroke-width: 0.8"/>
      </g>
     </g>
     <g id="text_7">
      <!-- 3000 -->
      <g transform="translate(607.364718 542.435313) scale(0.3 -0.3)">
       <defs>
        <path id="DejaVuSans-33" d="M 2597 2516 
Q 3050 2419 3304 2112 
Q 3559 1806 3559 1356 
Q 3559 666 3084 287 
Q 2609 -91 1734 -91 
Q 1441 -91 1130 -33 
Q 819 25 488 141 
L 488 750 
Q 750 597 1062 519 
Q 1375 441 1716 441 
Q 2309 441 2620 675 
Q 2931 909 2931 1356 
Q 2931 1769 2642 2001 
Q 2353 2234 1838 2234 
L 1294 2234 
L 1294 2753 
L 1863 2753 
Q 2328 2753 2575 2939 
Q 2822 3125 2822 3475 
Q 2822 3834 2567 4026 
Q 2313 4219 1838 4219 
Q 1578 4219 1281 4162 
Q 984 4106 628 3988 
L 628 4550 
Q 988 4650 1302 4700 
Q 1616 4750 1894 4750 
Q 2613 4750 3031 4423 
Q 3450 4097 3450 3541 
Q 3450 3153 3228 2886 
Q 3006 2619 2597 2516 
z
" transform="scale(0.015625)"/>
       </defs>
       <use xlink:href="#DejaVuSans-33"/>
       <use xlink:href="#DejaVuSans-30" x="63.623047"/>
       <use xlink:href="#DejaVuSans-30" x="127.246094"/>
       <use xlink:href="#DejaVuSans-30" x="190.869141"/>
      </g>
     </g>
    </g>
    <g id="xtick_8">
     <g id="line2d_15">
      <path d="M 730.226317 512.64 
L 730.226317 69.12 
" clip-path="url(#pf5e54e73a2)" style="fill: none; stroke: #b0b0b0; stroke-width: 0.8; stroke-linecap: square"/>
     </g>
     <g id="line2d_16">
      <g>
       <use xlink:href="#m7bd86c1244" x="730.226317" y="512.64" style="stroke: #000000; stroke-width: 0.8"/>
      </g>
     </g>
     <g id="text_8">
      <!-- 3500 -->
      <g transform="translate(692.051317 542.435313) scale(0.3 -0.3)">
       <use xlink:href="#DejaVuSans-33"/>
       <use xlink:href="#DejaVuSans-35" x="63.623047"/>
       <use xlink:href="#DejaVuSans-30" x="127.246094"/>
       <use xlink:href="#DejaVuSans-30" x="190.869141"/>
      </g>
     </g>
    </g>
    <g id="text_9">
     <!-- Steps -->
     <g transform="translate(386.840625 583.068125) scale(0.4 -0.4)">
      <defs>
       <path id="DejaVuSans-53" d="M 3425 4513 
L 3425 3897 
Q 3066 4069 2747 4153 
Q 2428 4238 2131 4238 
Q 1616 4238 1336 4038 
Q 1056 3838 1056 3469 
Q 1056 3159 1242 3001 
Q 1428 2844 1947 2747 
L 2328 2669 
Q 3034 2534 3370 2195 
Q 3706 1856 3706 1288 
Q 3706 609 3251 259 
Q 2797 -91 1919 -91 
Q 1588 -91 1214 -16 
Q 841 59 441 206 
L 441 856 
Q 825 641 1194 531 
Q 1563 422 1919 422 
Q 2459 422 2753 634 
Q 3047 847 3047 1241 
Q 3047 1584 2836 1778 
Q 2625 1972 2144 2069 
L 1759 2144 
Q 1053 2284 737 2584 
Q 422 2884 422 3419 
Q 422 4038 858 4394 
Q 1294 4750 2059 4750 
Q 2388 4750 2728 4690 
Q 3069 4631 3425 4513 
z
" transform="scale(0.015625)"/>
       <path id="DejaVuSans-74" d="M 1172 4494 
L 1172 3500 
L 2356 3500 
L 2356 3053 
L 1172 3053 
L 1172 1153 
Q 1172 725 1289 603 
Q 1406 481 1766 481 
L 2356 481 
L 2356 0 
L 1766 0 
Q 1100 0 847 248 
Q 594 497 594 1153 
L 594 3053 
L 172 3053 
L 172 3500 
L 594 3500 
L 594 4494 
L 1172 4494 
z
" transform="scale(0.015625)"/>
       <path id="DejaVuSans-65" d="M 3597 1894 
L 3597 1613 
L 953 1613 
Q 991 1019 1311 708 
Q 1631 397 2203 397 
Q 2534 397 2845 478 
Q 3156 559 3463 722 
L 3463 178 
Q 3153 47 2828 -22 
Q 2503 -91 2169 -91 
Q 1331 -91 842 396 
Q 353 884 353 1716 
Q 353 2575 817 3079 
Q 1281 3584 2069 3584 
Q 2775 3584 3186 3129 
Q 3597 2675 3597 1894 
z
M 3022 2063 
Q 3016 2534 2758 2815 
Q 2500 3097 2075 3097 
Q 1594 3097 1305 2825 
Q 1016 2553 972 2059 
L 3022 2063 
z
" transform="scale(0.015625)"/>
       <path id="DejaVuSans-70" d="M 1159 525 
L 1159 -1331 
L 581 -1331 
L 581 3500 
L 1159 3500 
L 1159 2969 
Q 1341 3281 1617 3432 
Q 1894 3584 2278 3584 
Q 2916 3584 3314 3078 
Q 3713 2572 3713 1747 
Q 3713 922 3314 415 
Q 2916 -91 2278 -91 
Q 1894 -91 1617 61 
Q 1341 213 1159 525 
z
M 3116 1747 
Q 3116 2381 2855 2742 
Q 2594 3103 2138 3103 
Q 1681 3103 1420 2742 
Q 1159 2381 1159 1747 
Q 1159 1113 1420 752 
Q 1681 391 2138 391 
Q 2594 391 2855 752 
Q 3116 1113 3116 1747 
z
" transform="scale(0.015625)"/>
       <path id="DejaVuSans-73" d="M 2834 3397 
L 2834 2853 
Q 2591 2978 2328 3040 
Q 2066 3103 1784 3103 
Q 1356 3103 1142 2972 
Q 928 2841 928 2578 
Q 928 2378 1081 2264 
Q 1234 2150 1697 2047 
L 1894 2003 
Q 2506 1872 2764 1633 
Q 3022 1394 3022 966 
Q 3022 478 2636 193 
Q 2250 -91 1575 -91 
Q 1294 -91 989 -36 
Q 684 19 347 128 
L 347 722 
Q 666 556 975 473 
Q 1284 391 1588 391 
Q 1994 391 2212 530 
Q 2431 669 2431 922 
Q 2431 1156 2273 1281 
Q 2116 1406 1581 1522 
L 1381 1569 
Q 847 1681 609 1914 
Q 372 2147 372 2553 
Q 372 3047 722 3315 
Q 1072 3584 1716 3584 
Q 2034 3584 2315 3537 
Q 2597 3491 2834 3397 
z
" transform="scale(0.015625)"/>
      </defs>
      <use xlink:href="#DejaVuSans-53"/>
      <use xlink:href="#DejaVuSans-74" x="63.476562"/>
      <use xlink:href="#DejaVuSans-65" x="102.685547"/>
      <use xlink:href="#DejaVuSans-70" x="164.208984"/>
      <use xlink:href="#DejaVuSans-73" x="227.685547"/>
     </g>
    </g>
   </g>
   <g id="matplotlib.axis_2">
    <g id="ytick_1">
     <g id="line2d_17">
      <path d="M 108 476.187203 
L 777.6 476.187203 
" clip-path="url(#pf5e54e73a2)" style="fill: none; stroke: #b0b0b0; stroke-width: 0.8; stroke-linecap: square"/>
     </g>
     <g id="line2d_18">
      <defs>
       <path id="m8878186c44" d="M 0 0 
L -3.5 0 
" style="stroke: #000000; stroke-width: 0.8"/>
      </defs>
      <g>
       <use xlink:href="#m8878186c44" x="108" y="476.187203" style="stroke: #000000; stroke-width: 0.8"/>
      </g>
     </g>
     <g id="text_10">
      <!-- −0.3 -->
      <g transform="translate(28.151562 487.58486) scale(0.3 -0.3)">
       <defs>
        <path id="DejaVuSans-2212" d="M 678 2272 
L 4684 2272 
L 4684 1741 
L 678 1741 
L 678 2272 
z
" transform="scale(0.015625)"/>
        <path id="DejaVuSans-2e" d="M 684 794 
L 1344 794 
L 1344 0 
L 684 0 
L 684 794 
z
" transform="scale(0.015625)"/>
       </defs>
       <use xlink:href="#DejaVuSans-2212"/>
       <use xlink:href="#DejaVuSans-30" x="83.789062"/>
       <use xlink:href="#DejaVuSans-2e" x="147.412109"/>
       <use xlink:href="#DejaVuSans-33" x="179.199219"/>
      </g>
     </g>
    </g>
    <g id="ytick_2">
     <g id="line2d_19">
      <path d="M 108 381.324379 
L 777.6 381.324379 
" clip-path="url(#pf5e54e73a2)" style="fill: none; stroke: #b0b0b0; stroke-width: 0.8; stroke-linecap: square"/>
     </g>
     <g id="line2d_20">
      <g>
       <use xlink:href="#m8878186c44" x="108" y="381.324379" style="stroke: #000000; stroke-width: 0.8"/>
      </g>
     </g>
     <g id="text_11">
      <!-- −0.2 -->
      <g transform="translate(28.151562 392.722035) scale(0.3 -0.3)">
       <use xlink:href="#DejaVuSans-2212"/>
       <use xlink:href="#DejaVuSans-30" x="83.789062"/>
       <use xlink:href="#DejaVuSans-2e" x="147.412109"/>
       <use xlink:href="#DejaVuSans-32" x="179.199219"/>
      </g>
     </g>
    </g>
    <g id="ytick_3">
     <g id="line2d_21">
      <path d="M 108 286.461554 
L 777.6 286.461554 
" clip-path="url(#pf5e54e73a2)" style="fill: none; stroke: #b0b0b0; stroke-width: 0.8; stroke-linecap: square"/>
     </g>
     <g id="line2d_22">
      <g>
       <use xlink:href="#m8878186c44" x="108" y="286.461554" style="stroke: #000000; stroke-width: 0.8"/>
      </g>
     </g>
     <g id="text_12">
      <!-- −0.1 -->
      <g transform="translate(28.151562 297.85921) scale(0.3 -0.3)">
       <use xlink:href="#DejaVuSans-2212"/>
       <use xlink:href="#DejaVuSans-30" x="83.789062"/>
       <use xlink:href="#DejaVuSans-2e" x="147.412109"/>
       <use xlink:href="#DejaVuSans-31" x="179.199219"/>
      </g>
     </g>
    </g>
    <g id="ytick_4">
     <g id="line2d_23">
      <path d="M 108 191.598729 
L 777.6 191.598729 
" clip-path="url(#pf5e54e73a2)" style="fill: none; stroke: #b0b0b0; stroke-width: 0.8; stroke-linecap: square"/>
     </g>
     <g id="line2d_24">
      <g>
       <use xlink:href="#m8878186c44" x="108" y="191.598729" style="stroke: #000000; stroke-width: 0.8"/>
      </g>
     </g>
     <g id="text_13">
      <!-- 0.0 -->
      <g transform="translate(53.290625 202.996385) scale(0.3 -0.3)">
       <use xlink:href="#DejaVuSans-30"/>
       <use xlink:href="#DejaVuSans-2e" x="63.623047"/>
       <use xlink:href="#DejaVuSans-30" x="95.410156"/>
      </g>
     </g>
    </g>
    <g id="ytick_5">
     <g id="line2d_25">
      <path d="M 108 96.735904 
L 777.6 96.735904 
" clip-path="url(#pf5e54e73a2)" style="fill: none; stroke: #b0b0b0; stroke-width: 0.8; stroke-linecap: square"/>
     </g>
     <g id="line2d_26">
      <g>
       <use xlink:href="#m8878186c44" x="108" y="96.735904" style="stroke: #000000; stroke-width: 0.8"/>
      </g>
     </g>
     <g id="text_14">
      <!-- 0.1 -->
      <g transform="translate(53.290625 108.133561) scale(0.3 -0.3)">
       <use xlink:href="#DejaVuSans-30"/>
       <use xlink:href="#DejaVuSans-2e" x="63.623047"/>
       <use xlink:href="#DejaVuSans-31" x="95.410156"/>
      </g>
     </g>
    </g>
    <g id="text_15">
     <!-- Pearson -->
     <g transform="translate(15.832812 370.33) rotate(-90) scale(0.4 -0.4)">
      <defs>
       <path id="DejaVuSans-50" d="M 1259 4147 
L 1259 2394 
L 2053 2394 
Q 2494 2394 2734 2622 
Q 2975 2850 2975 3272 
Q 2975 3691 2734 3919 
Q 2494 4147 2053 4147 
L 1259 4147 
z
M 628 4666 
L 2053 4666 
Q 2838 4666 3239 4311 
Q 3641 3956 3641 3272 
Q 3641 2581 3239 2228 
Q 2838 1875 2053 1875 
L 1259 1875 
L 1259 0 
L 628 0 
L 628 4666 
z
" transform="scale(0.015625)"/>
       <path id="DejaVuSans-61" d="M 2194 1759 
Q 1497 1759 1228 1600 
Q 959 1441 959 1056 
Q 959 750 1161 570 
Q 1363 391 1709 391 
Q 2188 391 2477 730 
Q 2766 1069 2766 1631 
L 2766 1759 
L 2194 1759 
z
M 3341 1997 
L 3341 0 
L 2766 0 
L 2766 531 
Q 2569 213 2275 61 
Q 1981 -91 1556 -91 
Q 1019 -91 701 211 
Q 384 513 384 1019 
Q 384 1609 779 1909 
Q 1175 2209 1959 2209 
L 2766 2209 
L 2766 2266 
Q 2766 2663 2505 2880 
Q 2244 3097 1772 3097 
Q 1472 3097 1187 3025 
Q 903 2953 641 2809 
L 641 3341 
Q 956 3463 1253 3523 
Q 1550 3584 1831 3584 
Q 2591 3584 2966 3190 
Q 3341 2797 3341 1997 
z
" transform="scale(0.015625)"/>
       <path id="DejaVuSans-72" d="M 2631 2963 
Q 2534 3019 2420 3045 
Q 2306 3072 2169 3072 
Q 1681 3072 1420 2755 
Q 1159 2438 1159 1844 
L 1159 0 
L 581 0 
L 581 3500 
L 1159 3500 
L 1159 2956 
Q 1341 3275 1631 3429 
Q 1922 3584 2338 3584 
Q 2397 3584 2469 3576 
Q 2541 3569 2628 3553 
L 2631 2963 
z
" transform="scale(0.015625)"/>
       <path id="DejaVuSans-6f" d="M 1959 3097 
Q 1497 3097 1228 2736 
Q 959 2375 959 1747 
Q 959 1119 1226 758 
Q 1494 397 1959 397 
Q 2419 397 2687 759 
Q 2956 1122 2956 1747 
Q 2956 2369 2687 2733 
Q 2419 3097 1959 3097 
z
M 1959 3584 
Q 2709 3584 3137 3096 
Q 3566 2609 3566 1747 
Q 3566 888 3137 398 
Q 2709 -91 1959 -91 
Q 1206 -91 779 398 
Q 353 888 353 1747 
Q 353 2609 779 3096 
Q 1206 3584 1959 3584 
z
" transform="scale(0.015625)"/>
       <path id="DejaVuSans-6e" d="M 3513 2113 
L 3513 0 
L 2938 0 
L 2938 2094 
Q 2938 2591 2744 2837 
Q 2550 3084 2163 3084 
Q 1697 3084 1428 2787 
Q 1159 2491 1159 1978 
L 1159 0 
L 581 0 
L 581 3500 
L 1159 3500 
L 1159 2956 
Q 1366 3272 1645 3428 
Q 1925 3584 2291 3584 
Q 2894 3584 3203 3211 
Q 3513 2838 3513 2113 
z
" transform="scale(0.015625)"/>
      </defs>
      <use xlink:href="#DejaVuSans-50"/>
      <use xlink:href="#DejaVuSans-65" x="56.677734"/>
      <use xlink:href="#DejaVuSans-61" x="118.201172"/>
      <use xlink:href="#DejaVuSans-72" x="179.480469"/>
      <use xlink:href="#DejaVuSans-73" x="220.59375"/>
      <use xlink:href="#DejaVuSans-6f" x="272.693359"/>
      <use xlink:href="#DejaVuSans-6e" x="333.875"/>
     </g>
    </g>
   </g>
   <g id="line2d_27">
    <path d="M 138.436364 274.063887 
L 139.452603 272.595375 
L 140.468842 240.839634 
L 141.485081 220.103188 
L 142.50132 207.514699 
L 143.51756 204.167273 
L 144.533799 192.319111 
L 145.550038 174.13884 
L 146.566277 162.502323 
L 147.582516 159.994284 
L 148.598756 158.037907 
L 149.614995 156.486495 
L 150.631234 156.789726 
L 151.647473 159.009548 
L 152.663712 161.749837 
L 153.679951 165.5603 
L 154.696191 166.677518 
L 155.71243 180.630617 
L 156.728669 183.394279 
L 157.744908 189.302452 
L 158.761147 202.862218 
L 159.777387 208.789709 
L 161.809865 231.288198 
L 162.826104 239.423503 
L 163.842343 245.317224 
L 164.858582 257.356842 
L 165.874822 252.352313 
L 166.891061 260.265321 
L 167.9073 259.416478 
L 168.923539 266.235992 
L 169.939778 267.150449 
L 170.956018 275.499602 
L 171.972257 285.707424 
L 172.988496 288.907012 
L 175.020974 305.792281 
L 176.037214 309.088969 
L 177.053453 316.971885 
L 178.069692 323.909173 
L 180.10217 341.834722 
L 181.118409 347.453042 
L 183.150888 360.984428 
L 184.167127 362.479612 
L 185.183366 369.060077 
L 186.199605 360.769045 
L 187.215845 363.943788 
L 188.232084 364.360498 
L 189.248323 362.16941 
L 190.264562 364.042019 
L 191.280801 364.062766 
L 192.297041 361.634362 
L 193.31328 361.00867 
L 194.329519 363.18988 
L 195.345758 359.038141 
L 196.361997 369.313604 
L 197.378236 368.633725 
L 198.394476 375.143682 
L 199.410715 374.220129 
L 200.426954 378.759015 
L 201.443193 379.082486 
L 202.459432 377.966327 
L 203.475672 384.022612 
L 204.491911 383.643334 
L 205.50815 384.389057 
L 206.524389 390.23964 
L 207.540628 391.031124 
L 208.556868 392.093196 
L 209.573107 391.175659 
L 210.589346 391.225918 
L 212.621824 397.80086 
L 213.638063 399.778949 
L 214.654303 405.778229 
L 215.670542 407.931812 
L 216.686781 417.754448 
L 218.719259 425.743973 
L 219.735499 427.014945 
L 220.751738 428.915252 
L 221.767977 427.851542 
L 222.784216 428.265657 
L 223.800455 429.033734 
L 224.816694 429.166978 
L 225.832934 431.033453 
L 226.849173 431.004107 
L 227.865412 429.385988 
L 228.881651 430.674334 
L 229.89789 431.280489 
L 230.91413 431.29657 
L 231.930369 432.457735 
L 232.946608 433.057142 
L 233.962847 434.529149 
L 234.979086 434.375844 
L 235.995326 437.177747 
L 237.011565 442.046605 
L 238.027804 446.046708 
L 239.044043 448.927854 
L 240.060282 452.785763 
L 241.076521 455.201448 
L 242.092761 456.504966 
L 243.109 457.214968 
L 244.125239 457.269066 
L 245.141478 457.852902 
L 246.157717 459.19904 
L 247.173957 459.31341 
L 248.190196 460.333019 
L 249.206435 461.786106 
L 250.222674 463.038059 
L 251.238913 463.986338 
L 252.255153 465.241012 
L 253.271392 465.682228 
L 254.287631 466.422539 
L 255.30387 467.456167 
L 256.320109 467.170034 
L 258.352588 470.819507 
L 259.368827 470.545106 
L 260.385066 470.434419 
L 261.401305 471.414044 
L 262.417544 470.163774 
L 263.433784 468.444057 
L 264.450023 468.041114 
L 265.466262 469.622737 
L 266.482501 468.013078 
L 267.49874 465.71551 
L 268.51498 465.472555 
L 269.531219 466.046792 
L 270.547458 464.328245 
L 271.563697 463.518065 
L 272.579936 463.249097 
L 273.596175 461.845369 
L 274.612415 459.824981 
L 275.628654 457.394898 
L 276.644893 455.434573 
L 277.661132 456.806106 
L 279.693611 447.288225 
L 281.726089 442.113258 
L 282.742328 442.590982 
L 283.758567 442.594993 
L 284.774806 439.96455 
L 285.791046 432.807951 
L 286.807285 429.178662 
L 287.823524 427.982299 
L 288.839763 429.129258 
L 289.856002 428.910257 
L 290.872242 428.500987 
L 291.888481 427.642066 
L 292.90472 427.266497 
L 293.920959 429.167366 
L 295.953438 428.611277 
L 297.985916 433.573812 
L 299.002155 434.029663 
L 300.018394 434.213981 
L 301.034633 435.351154 
L 302.050873 436.927974 
L 303.067112 438.202509 
L 304.083351 438.799547 
L 305.09959 439.774542 
L 307.132069 443.473212 
L 308.148308 442.483099 
L 309.164547 446.065634 
L 310.180786 450.221276 
L 311.197025 453.156673 
L 312.213265 455.130843 
L 313.229504 454.367078 
L 314.245743 454.504972 
L 315.261982 457.787535 
L 316.278221 464.525843 
L 317.29446 467.894191 
L 318.3107 469.502566 
L 319.326939 469.115069 
L 320.343178 470.511049 
L 321.359417 471.188446 
L 322.375656 472.422231 
L 323.391896 474.794701 
L 324.408135 475.650204 
L 325.424374 475.670565 
L 326.440613 476.084893 
L 327.456852 475.768689 
L 328.473092 475.715278 
L 329.489331 476.094372 
L 330.50557 475.963796 
L 331.521809 476.221374 
L 332.538048 475.85006 
L 333.554287 476.021426 
L 334.570527 476.312257 
L 335.586766 478.421486 
L 336.603005 480.142865 
L 337.619244 480.73654 
L 338.635483 481.484081 
L 339.651723 482.567246 
L 340.667962 483.458253 
L 341.684201 484.018418 
L 342.70044 485.093338 
L 343.716679 485.442046 
L 344.732919 486.092942 
L 345.749158 487.141271 
L 346.765397 487.797238 
L 347.781636 487.92619 
L 348.797875 487.739929 
L 350.830354 486.896135 
L 351.846593 487.626957 
L 352.862832 487.826452 
L 353.879071 487.157286 
L 354.89531 487.565083 
L 355.91155 488.742415 
L 356.927789 488.849782 
L 357.944028 489.119954 
L 359.976506 490.137179 
L 360.992745 490.900056 
L 362.008985 490.883261 
L 363.025224 488.793225 
L 364.041463 487.411688 
L 366.073941 479.842661 
L 367.090181 479.292619 
L 368.10642 477.518742 
L 369.122659 476.814526 
L 371.155137 478.740231 
L 372.171377 478.201659 
L 373.187616 478.543404 
L 374.203855 479.684354 
L 375.220094 479.77211 
L 376.236333 478.931499 
L 377.252572 478.981689 
L 378.268812 478.83285 
L 379.285051 479.270166 
L 380.30129 480.19294 
L 381.317529 480.143914 
L 382.333768 479.459927 
L 383.350008 479.527466 
L 384.366247 479.962314 
L 385.382486 479.708989 
L 386.398725 478.778065 
L 387.414964 478.237846 
L 390.463682 477.790664 
L 391.479921 477.133583 
L 392.49616 477.291826 
L 393.512399 479.363352 
L 394.528639 479.505422 
L 396.561117 486.607339 
L 397.577356 486.394245 
L 398.593595 487.323872 
L 399.609835 487.069997 
L 401.642313 485.247915 
L 402.658552 484.847449 
L 404.691031 482.523808 
L 405.70727 482.752028 
L 406.723509 483.192452 
L 408.755987 482.526122 
L 409.772226 481.5489 
L 410.788466 480.863321 
L 412.820944 481.869964 
L 414.853422 481.968478 
L 415.869662 482.204108 
L 417.90214 483.899042 
L 418.918379 483.731974 
L 419.934618 484.187986 
L 420.950857 484.905238 
L 421.967097 484.749736 
L 423.999575 484.202922 
L 426.032053 485.700777 
L 427.048293 485.533043 
L 428.064532 485.719971 
L 429.080771 486.281366 
L 430.09701 486.667107 
L 431.113249 486.558901 
L 432.129489 486.627381 
L 433.145728 487.128719 
L 434.161967 487.992661 
L 435.178206 488.656755 
L 436.194445 488.381846 
L 437.210684 487.9448 
L 438.226924 487.784128 
L 439.243163 488.270935 
L 440.259402 489.585998 
L 441.275641 489.746567 
L 442.29188 489.669041 
L 443.30812 489.723142 
L 444.324359 490.289198 
L 446.356837 490.759566 
L 447.373076 490.49692 
L 448.389316 490.658608 
L 449.405555 490.961074 
L 450.421794 490.873537 
L 451.438033 490.507128 
L 452.454272 490.839706 
L 454.486751 491.060877 
L 455.50299 490.692673 
L 456.519229 489.775781 
L 457.535468 489.825813 
L 458.551707 489.996981 
L 459.567947 489.751554 
L 461.600425 489.971343 
L 463.632903 489.516867 
L 464.649143 489.193064 
L 465.665382 489.162274 
L 467.69786 489.345046 
L 468.714099 489.365639 
L 469.730338 489.165531 
L 470.746578 488.463671 
L 472.779056 488.845995 
L 473.795295 488.731716 
L 474.811534 487.954219 
L 475.827774 488.039237 
L 476.844013 487.833821 
L 477.860252 488.337143 
L 478.876491 488.074378 
L 479.89273 487.966393 
L 480.908969 487.333479 
L 483.957687 487.03148 
L 484.973926 487.171913 
L 487.006405 488.313153 
L 488.022644 488.035457 
L 489.038883 487.249269 
L 491.071361 486.387804 
L 492.087601 486.241675 
L 493.10384 486.753016 
L 494.120079 486.850472 
L 495.136318 486.661196 
L 497.168796 487.178851 
L 498.185036 487.146523 
L 499.201275 486.861055 
L 501.233753 487.08662 
L 502.249992 486.584158 
L 503.266232 485.902557 
L 504.282471 485.80833 
L 505.29871 486.600287 
L 506.314949 486.641293 
L 507.331188 486.821721 
L 508.347428 486.395467 
L 512.412384 485.568847 
L 513.428623 485.330666 
L 515.461102 485.736827 
L 516.477341 485.54174 
L 518.509819 484.743479 
L 519.526059 485.511952 
L 522.574776 487.344709 
L 523.591015 487.484801 
L 524.607255 487.119527 
L 525.623494 487.370617 
L 528.672211 487.048467 
L 529.68845 487.197706 
L 531.720929 487.981009 
L 532.737168 487.858206 
L 535.785886 488.07411 
L 536.802125 488.051468 
L 537.818364 488.568022 
L 538.834603 488.668901 
L 539.850842 488.092241 
L 540.867081 487.901246 
L 541.883321 488.590232 
L 542.89956 489.658139 
L 543.915799 490.536131 
L 544.932038 490.265288 
L 545.948277 489.746298 
L 546.964517 489.99465 
L 548.996995 490.877548 
L 550.013234 490.41049 
L 551.029473 490.461251 
L 552.045713 490.369862 
L 553.061952 489.690176 
L 554.078191 489.344994 
L 555.09443 490.090649 
L 556.110669 489.885214 
L 558.143148 489.199663 
L 560.175626 489.462035 
L 562.208104 488.857736 
L 563.224344 489.374811 
L 564.240583 489.762863 
L 565.256822 489.336642 
L 566.273061 489.219238 
L 567.2893 488.968366 
L 568.30554 487.784754 
L 569.321779 487.660168 
L 570.338018 488.349199 
L 571.354257 488.806344 
L 572.370496 488.583687 
L 573.386735 488.156284 
L 574.402975 487.393768 
L 575.419214 487.341419 
L 576.435453 487.732962 
L 577.451692 487.513462 
L 578.467931 487.118187 
L 579.484171 486.894341 
L 580.50041 487.506151 
L 581.516649 487.935284 
L 583.549127 489.439661 
L 584.565367 489.356157 
L 585.581606 488.907879 
L 586.597845 489.085481 
L 587.614084 489.559517 
L 588.630323 489.647719 
L 589.646562 489.387094 
L 590.662802 489.644421 
L 591.679041 490.160768 
L 592.69528 490.170566 
L 593.711519 490.013179 
L 594.727758 490.226935 
L 595.743998 490.952059 
L 596.760237 491.412599 
L 597.776476 491.539486 
L 598.792715 492.098786 
L 599.808954 492.276525 
L 600.825194 492.188083 
L 602.857672 491.75333 
L 603.873911 491.369579 
L 604.89015 491.303615 
L 605.906389 491.037651 
L 607.938868 491.172392 
L 608.955107 491.684812 
L 609.971346 491.75592 
L 612.003825 490.480528 
L 613.020064 489.41184 
L 614.036303 488.929984 
L 616.068781 489.36269 
L 617.08502 489.943717 
L 618.10126 490.343325 
L 619.117499 490.418857 
L 620.133738 490.321761 
L 622.166216 489.513581 
L 623.182456 489.590741 
L 624.198695 489.819609 
L 625.214934 489.665985 
L 626.231173 489.749403 
L 627.247412 489.119722 
L 628.263652 488.627296 
L 629.279891 488.611485 
L 630.29613 488.482882 
L 633.344847 489.025262 
L 636.393565 490.386524 
L 637.409804 490.330246 
L 638.426043 490.503199 
L 639.442283 490.36369 
L 641.474761 491.452553 
L 642.491 491.493945 
L 644.523479 492.48 
L 646.555957 491.434721 
L 647.572196 490.813623 
L 648.588435 490.682606 
L 650.620914 491.817772 
L 651.637153 492.111376 
L 653.669631 491.940974 
L 654.68587 491.590267 
L 655.70211 491.061312 
L 656.718349 490.665889 
L 657.734588 490.784545 
L 658.750827 491.489813 
L 659.767066 491.299038 
L 660.783306 490.691354 
L 661.799545 489.801214 
L 662.815784 489.668213 
L 663.832023 490.282848 
L 664.848262 490.067911 
L 665.864501 489.737016 
L 668.913219 489.123137 
L 670.945697 488.450615 
L 671.961937 487.905417 
L 672.978176 487.811684 
L 675.010654 487.133734 
L 676.026893 487.728506 
L 677.043132 487.97784 
L 678.059372 488.343593 
L 679.075611 488.437046 
L 680.09185 487.861445 
L 681.108089 487.76772 
L 682.124328 488.159439 
L 683.140568 488.185602 
L 684.156807 488.087105 
L 685.173046 488.215502 
L 687.205524 488.875808 
L 688.221764 488.917121 
L 689.238003 488.448681 
L 690.254242 488.363533 
L 691.270481 489.308989 
L 692.28672 490.484205 
L 693.302959 490.795471 
L 694.319199 490.434639 
L 695.335438 490.261213 
L 697.367916 490.349643 
L 698.384155 490.046776 
L 699.400395 490.066437 
L 700.416634 490.441062 
L 701.432873 490.418223 
L 702.449112 490.571401 
L 704.481591 491.430385 
L 706.514069 491.504113 
L 707.530308 491.941812 
L 708.546547 491.894995 
L 710.579026 491.604365 
L 711.595265 491.074526 
L 712.611504 490.411054 
L 714.643982 490.295971 
L 715.660222 490.33409 
L 717.6927 489.722466 
L 719.725178 490.294863 
L 720.741418 490.280873 
L 721.757657 489.879637 
L 724.806374 489.661098 
L 725.822613 490.037532 
L 726.838853 490.731665 
L 727.855092 490.84862 
L 728.871331 490.827301 
L 730.903809 490.317472 
L 731.920049 490.70661 
L 732.936288 491.352629 
L 734.968766 490.961729 
L 735.985005 490.976387 
L 737.001244 490.841578 
L 738.017484 490.857021 
L 739.033723 491.155444 
L 740.049962 491.071256 
L 741.066201 491.141843 
L 743.09868 490.247293 
L 744.114919 490.060251 
L 745.131158 490.502001 
L 747.163636 491.04172 
L 747.163636 491.04172 
" clip-path="url(#pf5e54e73a2)" style="fill: none; stroke: #1f77b4; stroke-width: 4; stroke-linecap: square"/>
   </g>
   <g id="line2d_28">
    <path d="M 138.436364 133.778421 
L 139.452603 163.718276 
L 140.468842 178.6717 
L 141.485081 188.022863 
L 142.50132 203.245751 
L 143.51756 186.010682 
L 144.533799 184.63751 
L 145.550038 184.548156 
L 146.566277 185.13692 
L 147.582516 183.103962 
L 148.598756 169.872797 
L 149.614995 184.832837 
L 150.631234 203.024909 
L 151.647473 215.346111 
L 152.663712 225.557759 
L 154.696191 241.147132 
L 156.728669 254.682395 
L 160.793626 276.030745 
L 161.809865 280.280221 
L 163.842343 287.285122 
L 164.858582 290.460609 
L 165.874822 293.134065 
L 166.891061 293.871286 
L 167.9073 295.734498 
L 168.923539 303.037355 
L 170.956018 313.727356 
L 171.972257 318.685129 
L 172.988496 321.951284 
L 174.004735 330.517794 
L 177.053453 349.067872 
L 178.069692 355.872599 
L 179.085931 366.964381 
L 180.10217 367.545405 
L 181.118409 365.890914 
L 183.150888 364.962331 
L 184.167127 365.091545 
L 185.183366 364.669488 
L 186.199605 364.452568 
L 187.215845 364.02622 
L 188.232084 364.107972 
L 189.248323 363.508042 
L 190.264562 362.12958 
L 191.280801 361.143652 
L 192.297041 360.574878 
L 195.345758 359.421427 
L 196.361997 359.337469 
L 197.378236 360.811126 
L 198.394476 361.085014 
L 199.410715 361.222881 
L 201.443193 361.132495 
L 202.459432 361.155648 
L 203.475672 361.359108 
L 205.50815 362.700671 
L 206.524389 363.268741 
L 207.540628 363.313339 
L 209.573107 363.004272 
L 210.589346 361.290905 
L 211.605585 358.680462 
L 212.621824 358.049983 
L 213.638063 357.885581 
L 214.654303 357.209498 
L 216.686781 355.597563 
L 217.70302 355.18841 
L 218.719259 354.16132 
L 219.735499 353.947795 
L 220.751738 352.189405 
L 221.767977 351.761634 
L 223.800455 350.589012 
L 225.832934 349.237169 
L 226.849173 348.705023 
L 228.881651 348.051835 
L 229.89789 347.9223 
L 230.91413 347.284251 
L 231.930369 347.343537 
L 232.946608 347.53102 
L 233.962847 348.167716 
L 234.979086 347.502586 
L 235.995326 347.011194 
L 237.011565 345.025105 
L 238.027804 333.761166 
L 239.044043 332.311613 
L 240.060282 333.769605 
L 241.076521 326.50092 
L 242.092761 330.548259 
L 243.109 332.561554 
L 244.125239 334.000619 
L 247.173957 339.354891 
L 248.190196 341.643622 
L 249.206435 343.48162 
L 250.222674 344.425856 
L 251.238913 347.222366 
L 252.255153 348.883397 
L 253.271392 349.916167 
L 254.287631 350.644225 
L 255.30387 352.158504 
L 256.320109 354.209422 
L 257.336348 355.529956 
L 258.352588 355.769574 
L 260.385066 356.970855 
L 261.401305 357.180251 
L 262.417544 354.105468 
L 263.433784 339.339953 
L 264.450023 327.913588 
L 265.466262 314.854132 
L 266.482501 310.186726 
L 267.49874 306.455814 
L 268.51498 314.510784 
L 269.531219 315.06878 
L 270.547458 312.662548 
L 271.563697 321.421418 
L 272.579936 318.088707 
L 273.596175 313.730886 
L 274.612415 306.293977 
L 275.628654 292.967027 
L 276.644893 282.7553 
L 277.661132 276.000267 
L 278.677371 262.232241 
L 279.693611 252.513754 
L 280.70985 254.113457 
L 281.726089 256.118466 
L 282.742328 253.191623 
L 283.758567 251.258223 
L 284.774806 252.916208 
L 285.791046 253.44471 
L 286.807285 252.050522 
L 287.823524 251.891596 
L 288.839763 252.806436 
L 289.856002 253.903696 
L 290.872242 254.314889 
L 291.888481 255.034677 
L 292.90472 258.039624 
L 293.920959 274.102821 
L 295.953438 299.256339 
L 296.969677 302.411176 
L 297.985916 306.661117 
L 299.002155 309.917899 
L 300.018394 309.677699 
L 301.034633 311.312062 
L 302.050873 311.561278 
L 303.067112 314.150144 
L 304.083351 318.770067 
L 305.09959 325.493151 
L 306.115829 338.986782 
L 307.132069 348.995142 
L 308.148308 355.483576 
L 309.164547 368.308386 
L 310.180786 378.564523 
L 311.197025 376.135639 
L 312.213265 374.605634 
L 314.245743 379.919667 
L 315.261982 379.523831 
L 316.278221 379.364062 
L 317.29446 380.90542 
L 318.3107 381.032831 
L 319.326939 381.613745 
L 320.343178 381.480282 
L 321.359417 382.023931 
L 322.375656 383.735206 
L 323.391896 386.209671 
L 324.408135 384.716784 
L 325.424374 385.045803 
L 326.440613 377.252971 
L 328.473092 370.612679 
L 329.489331 362.725957 
L 330.50557 362.282651 
L 331.521809 358.834974 
L 332.538048 356.150574 
L 334.570527 336.198632 
L 335.586766 330.975125 
L 336.603005 326.73034 
L 337.619244 323.112531 
L 338.635483 318.933696 
L 339.651723 313.833494 
L 340.667962 307.917772 
L 341.684201 305.033879 
L 346.765397 283.053776 
L 347.781636 278.055676 
L 348.797875 274.056976 
L 349.814114 264.309926 
L 350.830354 255.890495 
L 351.846593 251.442958 
L 352.862832 246.282367 
L 353.879071 240.510427 
L 354.89531 237.066441 
L 355.91155 231.389151 
L 356.927789 234.449618 
L 357.944028 235.882545 
L 358.960267 235.609133 
L 359.976506 237.079295 
L 360.992745 234.648412 
L 363.025224 232.083942 
L 364.041463 237.676752 
L 365.057702 242.259886 
L 366.073941 244.046671 
L 367.090181 243.668496 
L 368.10642 243.162589 
L 369.122659 241.536063 
L 370.138898 237.741498 
L 371.155137 238.959307 
L 372.171377 236.019283 
L 373.187616 231.957672 
L 379.285051 203.237753 
L 380.30129 203.570188 
L 381.317529 202.555928 
L 383.350008 192.593981 
L 384.366247 193.151321 
L 386.398725 183.379959 
L 387.414964 180.225433 
L 389.447443 171.11498 
L 390.463682 168.731252 
L 393.512399 155.350542 
L 394.528639 149.877603 
L 395.544878 145.881121 
L 397.577356 135.985205 
L 398.593595 131.465964 
L 399.609835 128.24082 
L 400.626074 127.956451 
L 401.642313 122.926707 
L 402.658552 120.896315 
L 403.674791 119.992467 
L 404.691031 120.194582 
L 405.70727 118.751916 
L 406.723509 124.349505 
L 407.739748 122.705599 
L 408.755987 120.480706 
L 409.772226 119.696399 
L 411.804705 116.326789 
L 412.820944 115.086168 
L 413.837183 113.64313 
L 414.853422 106.396186 
L 416.885901 103.192713 
L 422.983336 91.997509 
L 423.999575 91.022308 
L 425.015814 89.889513 
L 426.032053 89.28 
L 428.064532 89.578587 
L 429.080771 90.773168 
L 430.09701 93.307917 
L 431.113249 97.386721 
L 432.129489 100.936356 
L 433.145728 101.584126 
L 434.161967 101.717812 
L 435.178206 99.864696 
L 436.194445 99.560415 
L 437.210684 93.465927 
L 438.226924 94.189224 
L 440.259402 99.76975 
L 441.275641 103.917511 
L 442.29188 105.313535 
L 443.30812 105.815633 
L 444.324359 109.087684 
L 445.340598 112.861372 
L 446.356837 115.938732 
L 447.373076 116.119678 
L 448.389316 116.480932 
L 450.421794 116.887679 
L 451.438033 118.599235 
L 452.454272 123.792139 
L 455.50299 142.383891 
L 456.519229 148.539926 
L 458.551707 159.688551 
L 459.567947 164.026948 
L 460.584186 167.590212 
L 462.616664 170.937927 
L 463.632903 168.112893 
L 464.649143 167.818311 
L 465.665382 171.217714 
L 466.681621 178.653669 
L 467.69786 184.747388 
L 468.714099 191.584464 
L 469.730338 196.931226 
L 470.746578 200.93117 
L 471.762817 204.149051 
L 473.795295 216.668038 
L 476.844013 228.517272 
L 477.860252 235.751694 
L 478.876491 237.639688 
L 479.89273 240.246121 
L 480.908969 242.137333 
L 481.925209 240.671011 
L 483.957687 229.247165 
L 484.973926 230.053057 
L 485.990165 224.544226 
L 487.006405 216.497338 
L 489.038883 208.412202 
L 490.055122 203.247474 
L 492.087601 194.965416 
L 493.10384 191.491489 
L 494.120079 194.571898 
L 495.136318 196.321511 
L 496.152557 195.47968 
L 497.168796 191.82321 
L 498.185036 187.258771 
L 499.201275 184.87358 
L 500.217514 184.520567 
L 501.233753 182.962227 
L 502.249992 180.629914 
L 503.266232 177.966479 
L 505.29871 169.226776 
L 507.331188 158.511608 
L 508.347428 157.49688 
L 509.363667 158.861672 
L 510.379906 159.380341 
L 511.396145 160.904348 
L 512.412384 163.90579 
L 513.428623 170.380623 
L 514.444863 174.910589 
L 515.461102 169.153177 
L 516.477341 172.732002 
L 517.49358 173.347678 
L 519.526059 183.120263 
L 520.542298 180.35175 
L 521.558537 180.946706 
L 522.574776 182.612579 
L 523.591015 186.964226 
L 524.607255 189.703126 
L 525.623494 188.345596 
L 526.639733 189.38466 
L 527.655972 189.774188 
L 528.672211 192.545569 
L 529.68845 193.968909 
L 530.70469 192.396991 
L 531.720929 191.776912 
L 532.737168 192.278233 
L 533.753407 194.464502 
L 534.769646 199.299417 
L 535.785886 203.497586 
L 537.818364 215.41435 
L 538.834603 215.394641 
L 539.850842 216.423452 
L 541.883321 222.140627 
L 543.915799 222.609309 
L 544.932038 225.800534 
L 545.948277 228.51525 
L 546.964517 227.856941 
L 547.980756 233.397589 
L 548.996995 230.681684 
L 550.013234 227.229299 
L 551.029473 235.227422 
L 552.045713 239.0456 
L 553.061952 237.734562 
L 554.078191 231.189922 
L 555.09443 229.423058 
L 556.110669 230.193622 
L 557.126908 229.157337 
L 558.143148 224.545538 
L 560.175626 213.105919 
L 561.191865 209.859652 
L 562.208104 209.443353 
L 563.224344 209.402971 
L 564.240583 205.062389 
L 565.256822 201.685535 
L 566.273061 195.010573 
L 567.2893 184.813018 
L 568.30554 177.318985 
L 569.321779 177.870915 
L 570.338018 179.215865 
L 571.354257 174.145443 
L 572.370496 170.448354 
L 573.386735 169.709448 
L 574.402975 165.6731 
L 575.419214 159.800213 
L 576.435453 159.177335 
L 577.451692 158.77043 
L 578.467931 153.860979 
L 579.484171 151.458874 
L 580.50041 150.085667 
L 581.516649 145.890235 
L 582.532888 137.743669 
L 583.549127 134.145982 
L 584.565367 133.623737 
L 585.581606 125.849552 
L 587.614084 118.971738 
L 588.630323 119.477361 
L 589.646562 122.539824 
L 590.662802 125.03222 
L 591.679041 123.752357 
L 592.69528 121.62699 
L 593.711519 116.852447 
L 594.727758 115.876951 
L 595.743998 113.22503 
L 597.776476 120.90645 
L 598.792715 122.63934 
L 599.808954 120.631218 
L 600.825194 119.116652 
L 601.841433 122.267206 
L 603.873911 123.519303 
L 604.89015 126.707673 
L 605.906389 125.990219 
L 607.938868 127.190448 
L 608.955107 130.939333 
L 609.971346 133.166476 
L 612.003825 134.370052 
L 613.020064 138.176154 
L 614.036303 141.480379 
L 615.052542 145.3601 
L 616.068781 151.359719 
L 617.08502 153.724353 
L 618.10126 158.004294 
L 620.133738 160.502741 
L 621.149977 160.702476 
L 622.166216 162.122551 
L 623.182456 162.631154 
L 624.198695 164.22404 
L 625.214934 167.124528 
L 626.231173 169.310696 
L 627.247412 169.664514 
L 628.263652 172.137108 
L 629.279891 175.264052 
L 630.29613 173.85217 
L 631.312369 174.640455 
L 632.328608 175.019421 
L 633.344847 176.585569 
L 634.361087 178.688487 
L 635.377326 177.094519 
L 636.393565 177.265671 
L 637.409804 176.49118 
L 638.426043 177.648131 
L 639.442283 177.293878 
L 640.458522 176.35117 
L 641.474761 177.194827 
L 642.491 178.491207 
L 643.507239 181.157709 
L 644.523479 181.45209 
L 645.539718 182.205965 
L 646.555957 186.592703 
L 647.572196 189.248297 
L 648.588435 190.260758 
L 649.604674 193.384041 
L 650.620914 193.379499 
L 651.637153 195.51389 
L 652.653392 199.059486 
L 654.68587 204.565447 
L 655.70211 204.376159 
L 656.718349 206.356947 
L 657.734588 206.931551 
L 658.750827 206.977796 
L 659.767066 206.411879 
L 660.783306 206.838845 
L 661.799545 205.206701 
L 663.832023 202.417879 
L 664.848262 200.467028 
L 665.864501 201.075348 
L 666.880741 202.324968 
L 667.89698 201.994805 
L 668.913219 200.679927 
L 669.929458 202.479034 
L 670.945697 202.857357 
L 671.961937 203.707457 
L 672.978176 204.902779 
L 673.994415 202.514327 
L 675.010654 201.965483 
L 676.026893 200.626245 
L 677.043132 201.379685 
L 678.059372 202.512652 
L 679.075611 202.136936 
L 680.09185 201.524866 
L 681.108089 201.264691 
L 682.124328 199.000359 
L 684.156807 195.347282 
L 685.173046 194.871695 
L 688.221764 189.790688 
L 689.238003 190.481066 
L 690.254242 190.50357 
L 692.28672 193.981493 
L 693.302959 195.987131 
L 694.319199 197.083819 
L 695.335438 198.454054 
L 696.351677 199.509904 
L 697.367916 201.52748 
L 698.384155 203.29505 
L 699.400395 204.349698 
L 700.416634 204.004987 
L 701.432873 204.637193 
L 702.449112 203.939262 
L 703.465351 202.646506 
L 704.481591 203.97013 
L 705.49783 206.371936 
L 706.514069 207.949707 
L 707.530308 206.362167 
L 708.546547 206.219582 
L 710.579026 208.349274 
L 711.595265 209.260823 
L 712.611504 210.886811 
L 713.627743 211.98884 
L 714.643982 213.549427 
L 715.660222 214.683113 
L 716.676461 218.181575 
L 718.708939 221.685662 
L 719.725178 222.485637 
L 720.741418 223.572226 
L 722.773896 224.04534 
L 725.822613 227.807512 
L 726.838853 227.841188 
L 727.855092 227.705255 
L 728.871331 227.958683 
L 729.88757 228.080184 
L 731.920049 229.32553 
L 732.936288 229.337371 
L 733.952527 229.785809 
L 734.968766 229.633244 
L 737.001244 228.276248 
L 738.017484 227.823674 
L 739.033723 227.532327 
L 740.049962 226.99722 
L 741.066201 226.603517 
L 743.09868 225.319364 
L 745.131158 223.033618 
L 746.147397 221.606666 
L 747.163636 219.946668 
L 747.163636 219.946668 
" clip-path="url(#pf5e54e73a2)" style="fill: none; stroke: #ff7f0e; stroke-width: 4; stroke-linecap: square"/>
   </g>
   <g id="line2d_29"/>
   <g id="line2d_30"/>
   <g id="patch_3">
    <path d="M 108 512.64 
L 108 69.12 
" style="fill: none; stroke: #000000; stroke-width: 0.8; stroke-linejoin: miter; stroke-linecap: square"/>
   </g>
   <g id="patch_4">
    <path d="M 777.6 512.64 
L 777.6 69.12 
" style="fill: none; stroke: #000000; stroke-width: 0.8; stroke-linejoin: miter; stroke-linecap: square"/>
   </g>
   <g id="patch_5">
    <path d="M 108 512.64 
L 777.6 512.64 
" style="fill: none; stroke: #000000; stroke-width: 0.8; stroke-linejoin: miter; stroke-linecap: square"/>
   </g>
   <g id="patch_6">
    <path d="M 108 69.12 
L 777.6 69.12 
" style="fill: none; stroke: #000000; stroke-width: 0.8; stroke-linejoin: miter; stroke-linecap: square"/>
   </g>
   <g id="text_16">
    <!-- polyreactivity -->
    <g transform="translate(238.607813 56.641875) scale(0.6 -0.6)">
     <defs>
      <path id="DejaVuSans-6c" d="M 603 4863 
L 1178 4863 
L 1178 0 
L 603 0 
L 603 4863 
z
" transform="scale(0.015625)"/>
      <path id="DejaVuSans-79" d="M 2059 -325 
Q 1816 -950 1584 -1140 
Q 1353 -1331 966 -1331 
L 506 -1331 
L 506 -850 
L 844 -850 
Q 1081 -850 1212 -737 
Q 1344 -625 1503 -206 
L 1606 56 
L 191 3500 
L 800 3500 
L 1894 763 
L 2988 3500 
L 3597 3500 
L 2059 -325 
z
" transform="scale(0.015625)"/>
      <path id="DejaVuSans-63" d="M 3122 3366 
L 3122 2828 
Q 2878 2963 2633 3030 
Q 2388 3097 2138 3097 
Q 1578 3097 1268 2742 
Q 959 2388 959 1747 
Q 959 1106 1268 751 
Q 1578 397 2138 397 
Q 2388 397 2633 464 
Q 2878 531 3122 666 
L 3122 134 
Q 2881 22 2623 -34 
Q 2366 -91 2075 -91 
Q 1284 -91 818 406 
Q 353 903 353 1747 
Q 353 2603 823 3093 
Q 1294 3584 2113 3584 
Q 2378 3584 2631 3529 
Q 2884 3475 3122 3366 
z
" transform="scale(0.015625)"/>
      <path id="DejaVuSans-69" d="M 603 3500 
L 1178 3500 
L 1178 0 
L 603 0 
L 603 3500 
z
M 603 4863 
L 1178 4863 
L 1178 4134 
L 603 4134 
L 603 4863 
z
" transform="scale(0.015625)"/>
      <path id="DejaVuSans-76" d="M 191 3500 
L 800 3500 
L 1894 563 
L 2988 3500 
L 3597 3500 
L 2284 0 
L 1503 0 
L 191 3500 
z
" transform="scale(0.015625)"/>
     </defs>
     <use xlink:href="#DejaVuSans-70"/>
     <use xlink:href="#DejaVuSans-6f" x="63.476562"/>
     <use xlink:href="#DejaVuSans-6c" x="124.658203"/>
     <use xlink:href="#DejaVuSans-79" x="152.441406"/>
     <use xlink:href="#DejaVuSans-72" x="211.621094"/>
     <use xlink:href="#DejaVuSans-65" x="250.484375"/>
     <use xlink:href="#DejaVuSans-61" x="312.007812"/>
     <use xlink:href="#DejaVuSans-63" x="373.287109"/>
     <use xlink:href="#DejaVuSans-74" x="428.267578"/>
     <use xlink:href="#DejaVuSans-69" x="467.476562"/>
     <use xlink:href="#DejaVuSans-76" x="495.259766"/>
     <use xlink:href="#DejaVuSans-69" x="554.439453"/>
     <use xlink:href="#DejaVuSans-74" x="582.222656"/>
     <use xlink:href="#DejaVuSans-79" x="621.431641"/>
    </g>
   </g>
   <g id="legend_1">
    <g id="patch_7">
     <path d="M 483.93125 355.5925 
L 749.6 355.5925 
Q 757.6 355.5925 757.6 347.5925 
L 757.6 234.1675 
Q 757.6 226.1675 749.6 226.1675 
L 483.93125 226.1675 
Q 475.93125 226.1675 475.93125 234.1675 
L 475.93125 347.5925 
Q 475.93125 355.5925 483.93125 355.5925 
z
" style="fill: #ffffff; opacity: 0.8; stroke: #cccccc; stroke-linejoin: miter"/>
    </g>
    <g id="line2d_31">
     <path d="M 491.93125 258.56125 
L 531.93125 258.56125 
L 571.93125 258.56125 
" style="fill: none; stroke: #1f77b4; stroke-width: 4; stroke-linecap: square"/>
    </g>
    <g id="text_17">
     <!-- local -->
     <g transform="translate(603.93125 272.56125) scale(0.4 -0.4)">
      <use xlink:href="#DejaVuSans-6c"/>
      <use xlink:href="#DejaVuSans-6f" x="27.783203"/>
      <use xlink:href="#DejaVuSans-63" x="88.964844"/>
      <use xlink:href="#DejaVuSans-61" x="143.945312"/>
      <use xlink:href="#DejaVuSans-6c" x="205.224609"/>
     </g>
    </g>
    <g id="line2d_32">
     <path d="M 491.93125 317.27375 
L 531.93125 317.27375 
L 571.93125 317.27375 
" style="fill: none; stroke: #ff7f0e; stroke-width: 4; stroke-linecap: square"/>
    </g>
    <g id="text_18">
     <!-- fedavg -->
     <g transform="translate(603.93125 331.27375) scale(0.4 -0.4)">
      <defs>
       <path id="DejaVuSans-66" d="M 2375 4863 
L 2375 4384 
L 1825 4384 
Q 1516 4384 1395 4259 
Q 1275 4134 1275 3809 
L 1275 3500 
L 2222 3500 
L 2222 3053 
L 1275 3053 
L 1275 0 
L 697 0 
L 697 3053 
L 147 3053 
L 147 3500 
L 697 3500 
L 697 3744 
Q 697 4328 969 4595 
Q 1241 4863 1831 4863 
L 2375 4863 
z
" transform="scale(0.015625)"/>
       <path id="DejaVuSans-64" d="M 2906 2969 
L 2906 4863 
L 3481 4863 
L 3481 0 
L 2906 0 
L 2906 525 
Q 2725 213 2448 61 
Q 2172 -91 1784 -91 
Q 1150 -91 751 415 
Q 353 922 353 1747 
Q 353 2572 751 3078 
Q 1150 3584 1784 3584 
Q 2172 3584 2448 3432 
Q 2725 3281 2906 2969 
z
M 947 1747 
Q 947 1113 1208 752 
Q 1469 391 1925 391 
Q 2381 391 2643 752 
Q 2906 1113 2906 1747 
Q 2906 2381 2643 2742 
Q 2381 3103 1925 3103 
Q 1469 3103 1208 2742 
Q 947 2381 947 1747 
z
" transform="scale(0.015625)"/>
       <path id="DejaVuSans-67" d="M 2906 1791 
Q 2906 2416 2648 2759 
Q 2391 3103 1925 3103 
Q 1463 3103 1205 2759 
Q 947 2416 947 1791 
Q 947 1169 1205 825 
Q 1463 481 1925 481 
Q 2391 481 2648 825 
Q 2906 1169 2906 1791 
z
M 3481 434 
Q 3481 -459 3084 -895 
Q 2688 -1331 1869 -1331 
Q 1566 -1331 1297 -1286 
Q 1028 -1241 775 -1147 
L 775 -588 
Q 1028 -725 1275 -790 
Q 1522 -856 1778 -856 
Q 2344 -856 2625 -561 
Q 2906 -266 2906 331 
L 2906 616 
Q 2728 306 2450 153 
Q 2172 0 1784 0 
Q 1141 0 747 490 
Q 353 981 353 1791 
Q 353 2603 747 3093 
Q 1141 3584 1784 3584 
Q 2172 3584 2450 3431 
Q 2728 3278 2906 2969 
L 2906 3500 
L 3481 3500 
L 3481 434 
z
" transform="scale(0.015625)"/>
      </defs>
      <use xlink:href="#DejaVuSans-66"/>
      <use xlink:href="#DejaVuSans-65" x="35.205078"/>
      <use xlink:href="#DejaVuSans-64" x="96.728516"/>
      <use xlink:href="#DejaVuSans-61" x="160.205078"/>
      <use xlink:href="#DejaVuSans-76" x="221.484375"/>
      <use xlink:href="#DejaVuSans-67" x="280.664062"/>
     </g>
    </g>
   </g>
  </g>
 </g>
 <defs>
  <clipPath id="pf5e54e73a2">
   <rect x="108" y="69.12" width="669.6" height="443.52"/>
  </clipPath>
 </defs>
</svg>
