<?xml version="1.0" encoding="utf-8" standalone="no"?>
<!DOCTYPE svg PUBLIC "-//W3C//DTD SVG 1.1//EN"
  "http://www.w3.org/Graphics/SVG/1.1/DTD/svg11.dtd">
<svg xmlns:xlink="http://www.w3.org/1999/xlink" width="864pt" height="576pt" viewBox="0 0 864 576" xmlns="http://www.w3.org/2000/svg" version="1.1">
 <metadata>
  <rdf:RDF xmlns:dc="http://purl.org/dc/elements/1.1/" xmlns:cc="http://creativecommons.org/ns#" xmlns:rdf="http://www.w3.org/1999/02/22-rdf-syntax-ns#">
   <cc:Work>
    <dc:type rdf:resource="http://purl.org/dc/dcmitype/StillImage"/>
    <dc:date>2025-04-25T14:16:38.882155</dc:date>
    <dc:format>image/svg+xml</dc:format>
    <dc:creator>
     <cc:Agent>
      <dc:title>Matplotlib v3.8.2, https://matplotlib.org/</dc:title>
     </cc:Agent>
    </dc:creator>
   </cc:Work>
  </rdf:RDF>
 </metadata>
 <defs>
  <style type="text/css">*{stroke-linejoin: round; stroke-linecap: butt}</style>
 </defs>
 <g id="figure_1">
  <g id="patch_1">
   <path d="M 0 576 
L 864 576 
L 864 0 
L 0 0 
z
" style="fill: #ffffff"/>
  </g>
  <g id="axes_1">
   <g id="patch_2">
    <path d="M 108 512.64 
L 777.6 512.64 
L 777.6 69.12 
L 108 69.12 
z
" style="fill: #ffffff"/>
   </g>
   <g id="PolyCollection_1"/>
   <g id="PolyCollection_2"/>
   <g id="matplotlib.axis_1">
    <g id="xtick_1">
     <g id="line2d_1">
      <path d="M 137.420124 512.64 
L 137.420124 69.12 
" clip-path="url(#p8128ef09e2)" style="fill: none; stroke: #b0b0b0; stroke-width: 0.8; stroke-linecap: square"/>
     </g>
     <g id="line2d_2">
      <defs>
       <path id="m10c58c2d7e" d="M 0 0 
L 0 3.5 
" style="stroke: #000000; stroke-width: 0.8"/>
      </defs>
      <g>
       <use xlink:href="#m10c58c2d7e" x="137.420124" y="512.64" style="stroke: #000000; stroke-width: 0.8"/>
      </g>
     </g>
     <g id="text_1">
      <!-- 0 -->
      <g transform="translate(127.876374 542.435313) scale(0.3 -0.3)">
       <defs>
        <path id="DejaVuSans-30" d="M 2034 4250 
Q 1547 4250 1301 3770 
Q 1056 3291 1056 2328 
Q 1056 1369 1301 889 
Q 1547 409 2034 409 
Q 2525 409 2770 889 
Q 3016 1369 3016 2328 
Q 3016 3291 2770 3770 
Q 2525 4250 2034 4250 
z
M 2034 4750 
Q 2819 4750 3233 4129 
Q 3647 3509 3647 2328 
Q 3647 1150 3233 529 
Q 2819 -91 2034 -91 
Q 1250 -91 836 529 
Q 422 1150 422 2328 
Q 422 3509 836 4129 
Q 1250 4750 2034 4750 
z
" transform="scale(0.015625)"/>
       </defs>
       <use xlink:href="#DejaVuSans-30"/>
      </g>
     </g>
    </g>
    <g id="xtick_2">
     <g id="line2d_3">
      <path d="M 222.106723 512.64 
L 222.106723 69.12 
" clip-path="url(#p8128ef09e2)" style="fill: none; stroke: #b0b0b0; stroke-width: 0.8; stroke-linecap: square"/>
     </g>
     <g id="line2d_4">
      <g>
       <use xlink:href="#m10c58c2d7e" x="222.106723" y="512.64" style="stroke: #000000; stroke-width: 0.8"/>
      </g>
     </g>
     <g id="text_2">
      <!-- 250 -->
      <g transform="translate(193.475473 542.435313) scale(0.3 -0.3)">
       <defs>
        <path id="DejaVuSans-32" d="M 1228 531 
L 3431 531 
L 3431 0 
L 469 0 
L 469 531 
Q 828 903 1448 1529 
Q 2069 2156 2228 2338 
Q 2531 2678 2651 2914 
Q 2772 3150 2772 3378 
Q 2772 3750 2511 3984 
Q 2250 4219 1831 4219 
Q 1534 4219 1204 4116 
Q 875 4013 500 3803 
L 500 4441 
Q 881 4594 1212 4672 
Q 1544 4750 1819 4750 
Q 2544 4750 2975 4387 
Q 3406 4025 3406 3419 
Q 3406 3131 3298 2873 
Q 3191 2616 2906 2266 
Q 2828 2175 2409 1742 
Q 1991 1309 1228 531 
z
" transform="scale(0.015625)"/>
        <path id="DejaVuSans-35" d="M 691 4666 
L 3169 4666 
L 3169 4134 
L 1269 4134 
L 1269 2991 
Q 1406 3038 1543 3061 
Q 1681 3084 1819 3084 
Q 2600 3084 3056 2656 
Q 3513 2228 3513 1497 
Q 3513 744 3044 326 
Q 2575 -91 1722 -91 
Q 1428 -91 1123 -41 
Q 819 9 494 109 
L 494 744 
Q 775 591 1075 516 
Q 1375 441 1709 441 
Q 2250 441 2565 725 
Q 2881 1009 2881 1497 
Q 2881 1984 2565 2268 
Q 2250 2553 1709 2553 
Q 1456 2553 1204 2497 
Q 953 2441 691 2322 
L 691 4666 
z
" transform="scale(0.015625)"/>
       </defs>
       <use xlink:href="#DejaVuSans-32"/>
       <use xlink:href="#DejaVuSans-35" x="63.623047"/>
       <use xlink:href="#DejaVuSans-30" x="127.246094"/>
      </g>
     </g>
    </g>
    <g id="xtick_3">
     <g id="line2d_5">
      <path d="M 306.793322 512.64 
L 306.793322 69.12 
" clip-path="url(#p8128ef09e2)" style="fill: none; stroke: #b0b0b0; stroke-width: 0.8; stroke-linecap: square"/>
     </g>
     <g id="line2d_6">
      <g>
       <use xlink:href="#m10c58c2d7e" x="306.793322" y="512.64" style="stroke: #000000; stroke-width: 0.8"/>
      </g>
     </g>
     <g id="text_3">
      <!-- 500 -->
      <g transform="translate(278.162072 542.435313) scale(0.3 -0.3)">
       <use xlink:href="#DejaVuSans-35"/>
       <use xlink:href="#DejaVuSans-30" x="63.623047"/>
       <use xlink:href="#DejaVuSans-30" x="127.246094"/>
      </g>
     </g>
    </g>
    <g id="xtick_4">
     <g id="line2d_7">
      <path d="M 391.479921 512.64 
L 391.479921 69.12 
" clip-path="url(#p8128ef09e2)" style="fill: none; stroke: #b0b0b0; stroke-width: 0.8; stroke-linecap: square"/>
     </g>
     <g id="line2d_8">
      <g>
       <use xlink:href="#m10c58c2d7e" x="391.479921" y="512.64" style="stroke: #000000; stroke-width: 0.8"/>
      </g>
     </g>
     <g id="text_4">
      <!-- 750 -->
      <g transform="translate(362.848671 542.435313) scale(0.3 -0.3)">
       <defs>
        <path id="DejaVuSans-37" d="M 525 4666 
L 3525 4666 
L 3525 4397 
L 1831 0 
L 1172 0 
L 2766 4134 
L 525 4134 
L 525 4666 
z
" transform="scale(0.015625)"/>
       </defs>
       <use xlink:href="#DejaVuSans-37"/>
       <use xlink:href="#DejaVuSans-35" x="63.623047"/>
       <use xlink:href="#DejaVuSans-30" x="127.246094"/>
      </g>
     </g>
    </g>
    <g id="xtick_5">
     <g id="line2d_9">
      <path d="M 476.16652 512.64 
L 476.16652 69.12 
" clip-path="url(#p8128ef09e2)" style="fill: none; stroke: #b0b0b0; stroke-width: 0.8; stroke-linecap: square"/>
     </g>
     <g id="line2d_10">
      <g>
       <use xlink:href="#m10c58c2d7e" x="476.16652" y="512.64" style="stroke: #000000; stroke-width: 0.8"/>
      </g>
     </g>
     <g id="text_5">
      <!-- 1000 -->
      <g transform="translate(437.99152 542.435313) scale(0.3 -0.3)">
       <defs>
        <path id="DejaVuSans-31" d="M 794 531 
L 1825 531 
L 1825 4091 
L 703 3866 
L 703 4441 
L 1819 4666 
L 2450 4666 
L 2450 531 
L 3481 531 
L 3481 0 
L 794 0 
L 794 531 
z
" transform="scale(0.015625)"/>
       </defs>
       <use xlink:href="#DejaVuSans-31"/>
       <use xlink:href="#DejaVuSans-30" x="63.623047"/>
       <use xlink:href="#DejaVuSans-30" x="127.246094"/>
       <use xlink:href="#DejaVuSans-30" x="190.869141"/>
      </g>
     </g>
    </g>
    <g id="xtick_6">
     <g id="line2d_11">
      <path d="M 560.853119 512.64 
L 560.853119 69.12 
" clip-path="url(#p8128ef09e2)" style="fill: none; stroke: #b0b0b0; stroke-width: 0.8; stroke-linecap: square"/>
     </g>
     <g id="line2d_12">
      <g>
       <use xlink:href="#m10c58c2d7e" x="560.853119" y="512.64" style="stroke: #000000; stroke-width: 0.8"/>
      </g>
     </g>
     <g id="text_6">
      <!-- 1250 -->
      <g transform="translate(522.678119 542.435313) scale(0.3 -0.3)">
       <use xlink:href="#DejaVuSans-31"/>
       <use xlink:href="#DejaVuSans-32" x="63.623047"/>
       <use xlink:href="#DejaVuSans-35" x="127.246094"/>
       <use xlink:href="#DejaVuSans-30" x="190.869141"/>
      </g>
     </g>
    </g>
    <g id="xtick_7">
     <g id="line2d_13">
      <path d="M 645.539718 512.64 
L 645.539718 69.12 
" clip-path="url(#p8128ef09e2)" style="fill: none; stroke: #b0b0b0; stroke-width: 0.8; stroke-linecap: square"/>
     </g>
     <g id="line2d_14">
      <g>
       <use xlink:href="#m10c58c2d7e" x="645.539718" y="512.64" style="stroke: #000000; stroke-width: 0.8"/>
      </g>
     </g>
     <g id="text_7">
      <!-- 1500 -->
      <g transform="translate(607.364718 542.435313) scale(0.3 -0.3)">
       <use xlink:href="#DejaVuSans-31"/>
       <use xlink:href="#DejaVuSans-35" x="63.623047"/>
       <use xlink:href="#DejaVuSans-30" x="127.246094"/>
       <use xlink:href="#DejaVuSans-30" x="190.869141"/>
      </g>
     </g>
    </g>
    <g id="xtick_8">
     <g id="line2d_15">
      <path d="M 730.226317 512.64 
L 730.226317 69.12 
" clip-path="url(#p8128ef09e2)" style="fill: none; stroke: #b0b0b0; stroke-width: 0.8; stroke-linecap: square"/>
     </g>
     <g id="line2d_16">
      <g>
       <use xlink:href="#m10c58c2d7e" x="730.226317" y="512.64" style="stroke: #000000; stroke-width: 0.8"/>
      </g>
     </g>
     <g id="text_8">
      <!-- 1750 -->
      <g transform="translate(692.051317 542.435313) scale(0.3 -0.3)">
       <use xlink:href="#DejaVuSans-31"/>
       <use xlink:href="#DejaVuSans-37" x="63.623047"/>
       <use xlink:href="#DejaVuSans-35" x="127.246094"/>
       <use xlink:href="#DejaVuSans-30" x="190.869141"/>
      </g>
     </g>
    </g>
    <g id="text_9">
     <!-- Steps -->
     <g transform="translate(386.840625 583.068125) scale(0.4 -0.4)">
      <defs>
       <path id="DejaVuSans-53" d="M 3425 4513 
L 3425 3897 
Q 3066 4069 2747 4153 
Q 2428 4238 2131 4238 
Q 1616 4238 1336 4038 
Q 1056 3838 1056 3469 
Q 1056 3159 1242 3001 
Q 1428 2844 1947 2747 
L 2328 2669 
Q 3034 2534 3370 2195 
Q 3706 1856 3706 1288 
Q 3706 609 3251 259 
Q 2797 -91 1919 -91 
Q 1588 -91 1214 -16 
Q 841 59 441 206 
L 441 856 
Q 825 641 1194 531 
Q 1563 422 1919 422 
Q 2459 422 2753 634 
Q 3047 847 3047 1241 
Q 3047 1584 2836 1778 
Q 2625 1972 2144 2069 
L 1759 2144 
Q 1053 2284 737 2584 
Q 422 2884 422 3419 
Q 422 4038 858 4394 
Q 1294 4750 2059 4750 
Q 2388 4750 2728 4690 
Q 3069 4631 3425 4513 
z
" transform="scale(0.015625)"/>
       <path id="DejaVuSans-74" d="M 1172 4494 
L 1172 3500 
L 2356 3500 
L 2356 3053 
L 1172 3053 
L 1172 1153 
Q 1172 725 1289 603 
Q 1406 481 1766 481 
L 2356 481 
L 2356 0 
L 1766 0 
Q 1100 0 847 248 
Q 594 497 594 1153 
L 594 3053 
L 172 3053 
L 172 3500 
L 594 3500 
L 594 4494 
L 1172 4494 
z
" transform="scale(0.015625)"/>
       <path id="DejaVuSans-65" d="M 3597 1894 
L 3597 1613 
L 953 1613 
Q 991 1019 1311 708 
Q 1631 397 2203 397 
Q 2534 397 2845 478 
Q 3156 559 3463 722 
L 3463 178 
Q 3153 47 2828 -22 
Q 2503 -91 2169 -91 
Q 1331 -91 842 396 
Q 353 884 353 1716 
Q 353 2575 817 3079 
Q 1281 3584 2069 3584 
Q 2775 3584 3186 3129 
Q 3597 2675 3597 1894 
z
M 3022 2063 
Q 3016 2534 2758 2815 
Q 2500 3097 2075 3097 
Q 1594 3097 1305 2825 
Q 1016 2553 972 2059 
L 3022 2063 
z
" transform="scale(0.015625)"/>
       <path id="DejaVuSans-70" d="M 1159 525 
L 1159 -1331 
L 581 -1331 
L 581 3500 
L 1159 3500 
L 1159 2969 
Q 1341 3281 1617 3432 
Q 1894 3584 2278 3584 
Q 2916 3584 3314 3078 
Q 3713 2572 3713 1747 
Q 3713 922 3314 415 
Q 2916 -91 2278 -91 
Q 1894 -91 1617 61 
Q 1341 213 1159 525 
z
M 3116 1747 
Q 3116 2381 2855 2742 
Q 2594 3103 2138 3103 
Q 1681 3103 1420 2742 
Q 1159 2381 1159 1747 
Q 1159 1113 1420 752 
Q 1681 391 2138 391 
Q 2594 391 2855 752 
Q 3116 1113 3116 1747 
z
" transform="scale(0.015625)"/>
       <path id="DejaVuSans-73" d="M 2834 3397 
L 2834 2853 
Q 2591 2978 2328 3040 
Q 2066 3103 1784 3103 
Q 1356 3103 1142 2972 
Q 928 2841 928 2578 
Q 928 2378 1081 2264 
Q 1234 2150 1697 2047 
L 1894 2003 
Q 2506 1872 2764 1633 
Q 3022 1394 3022 966 
Q 3022 478 2636 193 
Q 2250 -91 1575 -91 
Q 1294 -91 989 -36 
Q 684 19 347 128 
L 347 722 
Q 666 556 975 473 
Q 1284 391 1588 391 
Q 1994 391 2212 530 
Q 2431 669 2431 922 
Q 2431 1156 2273 1281 
Q 2116 1406 1581 1522 
L 1381 1569 
Q 847 1681 609 1914 
Q 372 2147 372 2553 
Q 372 3047 722 3315 
Q 1072 3584 1716 3584 
Q 2034 3584 2315 3537 
Q 2597 3491 2834 3397 
z
" transform="scale(0.015625)"/>
      </defs>
      <use xlink:href="#DejaVuSans-53"/>
      <use xlink:href="#DejaVuSans-74" x="63.476562"/>
      <use xlink:href="#DejaVuSans-65" x="102.685547"/>
      <use xlink:href="#DejaVuSans-70" x="164.208984"/>
      <use xlink:href="#DejaVuSans-73" x="227.685547"/>
     </g>
    </g>
   </g>
   <g id="matplotlib.axis_2">
    <g id="ytick_1">
     <g id="line2d_17">
      <path d="M 108 461.120859 
L 777.6 461.120859 
" clip-path="url(#p8128ef09e2)" style="fill: none; stroke: #b0b0b0; stroke-width: 0.8; stroke-linecap: square"/>
     </g>
     <g id="line2d_18">
      <defs>
       <path id="m96a89bf5f8" d="M 0 0 
L -3.5 0 
" style="stroke: #000000; stroke-width: 0.8"/>
      </defs>
      <g>
       <use xlink:href="#m96a89bf5f8" x="108" y="461.120859" style="stroke: #000000; stroke-width: 0.8"/>
      </g>
     </g>
     <g id="text_10">
      <!-- −0.4 -->
      <g transform="translate(28.151562 472.518515) scale(0.3 -0.3)">
       <defs>
        <path id="DejaVuSans-2212" d="M 678 2272 
L 4684 2272 
L 4684 1741 
L 678 1741 
L 678 2272 
z
" transform="scale(0.015625)"/>
        <path id="DejaVuSans-2e" d="M 684 794 
L 1344 794 
L 1344 0 
L 684 0 
L 684 794 
z
" transform="scale(0.015625)"/>
        <path id="DejaVuSans-34" d="M 2419 4116 
L 825 1625 
L 2419 1625 
L 2419 4116 
z
M 2253 4666 
L 3047 4666 
L 3047 1625 
L 3713 1625 
L 3713 1100 
L 3047 1100 
L 3047 0 
L 2419 0 
L 2419 1100 
L 313 1100 
L 313 1709 
L 2253 4666 
z
" transform="scale(0.015625)"/>
       </defs>
       <use xlink:href="#DejaVuSans-2212"/>
       <use xlink:href="#DejaVuSans-30" x="83.789062"/>
       <use xlink:href="#DejaVuSans-2e" x="147.412109"/>
       <use xlink:href="#DejaVuSans-34" x="179.199219"/>
      </g>
     </g>
    </g>
    <g id="ytick_2">
     <g id="line2d_19">
      <path d="M 108 408.367427 
L 777.6 408.367427 
" clip-path="url(#p8128ef09e2)" style="fill: none; stroke: #b0b0b0; stroke-width: 0.8; stroke-linecap: square"/>
     </g>
     <g id="line2d_20">
      <g>
       <use xlink:href="#m96a89bf5f8" x="108" y="408.367427" style="stroke: #000000; stroke-width: 0.8"/>
      </g>
     </g>
     <g id="text_11">
      <!-- −0.3 -->
      <g transform="translate(28.151562 419.765083) scale(0.3 -0.3)">
       <defs>
        <path id="DejaVuSans-33" d="M 2597 2516 
Q 3050 2419 3304 2112 
Q 3559 1806 3559 1356 
Q 3559 666 3084 287 
Q 2609 -91 1734 -91 
Q 1441 -91 1130 -33 
Q 819 25 488 141 
L 488 750 
Q 750 597 1062 519 
Q 1375 441 1716 441 
Q 2309 441 2620 675 
Q 2931 909 2931 1356 
Q 2931 1769 2642 2001 
Q 2353 2234 1838 2234 
L 1294 2234 
L 1294 2753 
L 1863 2753 
Q 2328 2753 2575 2939 
Q 2822 3125 2822 3475 
Q 2822 3834 2567 4026 
Q 2313 4219 1838 4219 
Q 1578 4219 1281 4162 
Q 984 4106 628 3988 
L 628 4550 
Q 988 4650 1302 4700 
Q 1616 4750 1894 4750 
Q 2613 4750 3031 4423 
Q 3450 4097 3450 3541 
Q 3450 3153 3228 2886 
Q 3006 2619 2597 2516 
z
" transform="scale(0.015625)"/>
       </defs>
       <use xlink:href="#DejaVuSans-2212"/>
       <use xlink:href="#DejaVuSans-30" x="83.789062"/>
       <use xlink:href="#DejaVuSans-2e" x="147.412109"/>
       <use xlink:href="#DejaVuSans-33" x="179.199219"/>
      </g>
     </g>
    </g>
    <g id="ytick_3">
     <g id="line2d_21">
      <path d="M 108 355.613994 
L 777.6 355.613994 
" clip-path="url(#p8128ef09e2)" style="fill: none; stroke: #b0b0b0; stroke-width: 0.8; stroke-linecap: square"/>
     </g>
     <g id="line2d_22">
      <g>
       <use xlink:href="#m96a89bf5f8" x="108" y="355.613994" style="stroke: #000000; stroke-width: 0.8"/>
      </g>
     </g>
     <g id="text_12">
      <!-- −0.2 -->
      <g transform="translate(28.151562 367.011651) scale(0.3 -0.3)">
       <use xlink:href="#DejaVuSans-2212"/>
       <use xlink:href="#DejaVuSans-30" x="83.789062"/>
       <use xlink:href="#DejaVuSans-2e" x="147.412109"/>
       <use xlink:href="#DejaVuSans-32" x="179.199219"/>
      </g>
     </g>
    </g>
    <g id="ytick_4">
     <g id="line2d_23">
      <path d="M 108 302.860562 
L 777.6 302.860562 
" clip-path="url(#p8128ef09e2)" style="fill: none; stroke: #b0b0b0; stroke-width: 0.8; stroke-linecap: square"/>
     </g>
     <g id="line2d_24">
      <g>
       <use xlink:href="#m96a89bf5f8" x="108" y="302.860562" style="stroke: #000000; stroke-width: 0.8"/>
      </g>
     </g>
     <g id="text_13">
      <!-- −0.1 -->
      <g transform="translate(28.151562 314.258218) scale(0.3 -0.3)">
       <use xlink:href="#DejaVuSans-2212"/>
       <use xlink:href="#DejaVuSans-30" x="83.789062"/>
       <use xlink:href="#DejaVuSans-2e" x="147.412109"/>
       <use xlink:href="#DejaVuSans-31" x="179.199219"/>
      </g>
     </g>
    </g>
    <g id="ytick_5">
     <g id="line2d_25">
      <path d="M 108 250.10713 
L 777.6 250.10713 
" clip-path="url(#p8128ef09e2)" style="fill: none; stroke: #b0b0b0; stroke-width: 0.8; stroke-linecap: square"/>
     </g>
     <g id="line2d_26">
      <g>
       <use xlink:href="#m96a89bf5f8" x="108" y="250.10713" style="stroke: #000000; stroke-width: 0.8"/>
      </g>
     </g>
     <g id="text_14">
      <!-- 0.0 -->
      <g transform="translate(53.290625 261.504786) scale(0.3 -0.3)">
       <use xlink:href="#DejaVuSans-30"/>
       <use xlink:href="#DejaVuSans-2e" x="63.623047"/>
       <use xlink:href="#DejaVuSans-30" x="95.410156"/>
      </g>
     </g>
    </g>
    <g id="ytick_6">
     <g id="line2d_27">
      <path d="M 108 197.353697 
L 777.6 197.353697 
" clip-path="url(#p8128ef09e2)" style="fill: none; stroke: #b0b0b0; stroke-width: 0.8; stroke-linecap: square"/>
     </g>
     <g id="line2d_28">
      <g>
       <use xlink:href="#m96a89bf5f8" x="108" y="197.353697" style="stroke: #000000; stroke-width: 0.8"/>
      </g>
     </g>
     <g id="text_15">
      <!-- 0.1 -->
      <g transform="translate(53.290625 208.751354) scale(0.3 -0.3)">
       <use xlink:href="#DejaVuSans-30"/>
       <use xlink:href="#DejaVuSans-2e" x="63.623047"/>
       <use xlink:href="#DejaVuSans-31" x="95.410156"/>
      </g>
     </g>
    </g>
    <g id="ytick_7">
     <g id="line2d_29">
      <path d="M 108 144.600265 
L 777.6 144.600265 
" clip-path="url(#p8128ef09e2)" style="fill: none; stroke: #b0b0b0; stroke-width: 0.8; stroke-linecap: square"/>
     </g>
     <g id="line2d_30">
      <g>
       <use xlink:href="#m96a89bf5f8" x="108" y="144.600265" style="stroke: #000000; stroke-width: 0.8"/>
      </g>
     </g>
     <g id="text_16">
      <!-- 0.2 -->
      <g transform="translate(53.290625 155.997921) scale(0.3 -0.3)">
       <use xlink:href="#DejaVuSans-30"/>
       <use xlink:href="#DejaVuSans-2e" x="63.623047"/>
       <use xlink:href="#DejaVuSans-32" x="95.410156"/>
      </g>
     </g>
    </g>
    <g id="ytick_8">
     <g id="line2d_31">
      <path d="M 108 91.846833 
L 777.6 91.846833 
" clip-path="url(#p8128ef09e2)" style="fill: none; stroke: #b0b0b0; stroke-width: 0.8; stroke-linecap: square"/>
     </g>
     <g id="line2d_32">
      <g>
       <use xlink:href="#m96a89bf5f8" x="108" y="91.846833" style="stroke: #000000; stroke-width: 0.8"/>
      </g>
     </g>
     <g id="text_17">
      <!-- 0.3 -->
      <g transform="translate(53.290625 103.244489) scale(0.3 -0.3)">
       <use xlink:href="#DejaVuSans-30"/>
       <use xlink:href="#DejaVuSans-2e" x="63.623047"/>
       <use xlink:href="#DejaVuSans-33" x="95.410156"/>
      </g>
     </g>
    </g>
    <g id="text_18">
     <!-- Pearson -->
     <g transform="translate(15.832812 370.33) rotate(-90) scale(0.4 -0.4)">
      <defs>
       <path id="DejaVuSans-50" d="M 1259 4147 
L 1259 2394 
L 2053 2394 
Q 2494 2394 2734 2622 
Q 2975 2850 2975 3272 
Q 2975 3691 2734 3919 
Q 2494 4147 2053 4147 
L 1259 4147 
z
M 628 4666 
L 2053 4666 
Q 2838 4666 3239 4311 
Q 3641 3956 3641 3272 
Q 3641 2581 3239 2228 
Q 2838 1875 2053 1875 
L 1259 1875 
L 1259 0 
L 628 0 
L 628 4666 
z
" transform="scale(0.015625)"/>
       <path id="DejaVuSans-61" d="M 2194 1759 
Q 1497 1759 1228 1600 
Q 959 1441 959 1056 
Q 959 750 1161 570 
Q 1363 391 1709 391 
Q 2188 391 2477 730 
Q 2766 1069 2766 1631 
L 2766 1759 
L 2194 1759 
z
M 3341 1997 
L 3341 0 
L 2766 0 
L 2766 531 
Q 2569 213 2275 61 
Q 1981 -91 1556 -91 
Q 1019 -91 701 211 
Q 384 513 384 1019 
Q 384 1609 779 1909 
Q 1175 2209 1959 2209 
L 2766 2209 
L 2766 2266 
Q 2766 2663 2505 2880 
Q 2244 3097 1772 3097 
Q 1472 3097 1187 3025 
Q 903 2953 641 2809 
L 641 3341 
Q 956 3463 1253 3523 
Q 1550 3584 1831 3584 
Q 2591 3584 2966 3190 
Q 3341 2797 3341 1997 
z
" transform="scale(0.015625)"/>
       <path id="DejaVuSans-72" d="M 2631 2963 
Q 2534 3019 2420 3045 
Q 2306 3072 2169 3072 
Q 1681 3072 1420 2755 
Q 1159 2438 1159 1844 
L 1159 0 
L 581 0 
L 581 3500 
L 1159 3500 
L 1159 2956 
Q 1341 3275 1631 3429 
Q 1922 3584 2338 3584 
Q 2397 3584 2469 3576 
Q 2541 3569 2628 3553 
L 2631 2963 
z
" transform="scale(0.015625)"/>
       <path id="DejaVuSans-6f" d="M 1959 3097 
Q 1497 3097 1228 2736 
Q 959 2375 959 1747 
Q 959 1119 1226 758 
Q 1494 397 1959 397 
Q 2419 397 2687 759 
Q 2956 1122 2956 1747 
Q 2956 2369 2687 2733 
Q 2419 3097 1959 3097 
z
M 1959 3584 
Q 2709 3584 3137 3096 
Q 3566 2609 3566 1747 
Q 3566 888 3137 398 
Q 2709 -91 1959 -91 
Q 1206 -91 779 398 
Q 353 888 353 1747 
Q 353 2609 779 3096 
Q 1206 3584 1959 3584 
z
" transform="scale(0.015625)"/>
       <path id="DejaVuSans-6e" d="M 3513 2113 
L 3513 0 
L 2938 0 
L 2938 2094 
Q 2938 2591 2744 2837 
Q 2550 3084 2163 3084 
Q 1697 3084 1428 2787 
Q 1159 2491 1159 1978 
L 1159 0 
L 581 0 
L 581 3500 
L 1159 3500 
L 1159 2956 
Q 1366 3272 1645 3428 
Q 1925 3584 2291 3584 
Q 2894 3584 3203 3211 
Q 3513 2838 3513 2113 
z
" transform="scale(0.015625)"/>
      </defs>
      <use xlink:href="#DejaVuSans-50"/>
      <use xlink:href="#DejaVuSans-65" x="56.677734"/>
      <use xlink:href="#DejaVuSans-61" x="118.201172"/>
      <use xlink:href="#DejaVuSans-72" x="179.480469"/>
      <use xlink:href="#DejaVuSans-73" x="220.59375"/>
      <use xlink:href="#DejaVuSans-6f" x="272.693359"/>
      <use xlink:href="#DejaVuSans-6e" x="333.875"/>
     </g>
    </g>
   </g>
   <g id="line2d_33">
    <path d="M 138.436364 134.042159 
L 139.452603 206.417592 
L 140.468842 169.794475 
L 141.485081 162.503668 
L 142.50132 212.694929 
L 143.51756 255.973829 
L 144.533799 261.984161 
L 145.550038 242.386573 
L 146.566277 272.27842 
L 147.582516 287.438732 
L 148.598756 262.069672 
L 149.614995 258.594673 
L 150.631234 275.312919 
L 151.647473 289.080933 
L 152.663712 278.098762 
L 154.696191 302.215231 
L 155.71243 310.298719 
L 156.728669 294.692533 
L 157.744908 283.495594 
L 158.761147 288.103118 
L 159.777387 287.790714 
L 161.809865 264.984203 
L 162.826104 264.328803 
L 163.842343 255.710147 
L 164.858582 245.346455 
L 165.874822 254.734689 
L 166.891061 262.4911 
L 167.9073 254.046087 
L 168.923539 250.314669 
L 169.939778 243.799603 
L 170.956018 256.846298 
L 171.972257 267.439824 
L 172.988496 269.951818 
L 174.004735 265.3672 
L 175.020974 255.956587 
L 176.037214 253.857435 
L 177.053453 239.152383 
L 178.069692 229.4679 
L 179.085931 243.764883 
L 180.10217 251.483107 
L 181.118409 248.999424 
L 182.134649 247.995101 
L 183.150888 260.002929 
L 184.167127 252.891515 
L 185.183366 244.578012 
L 186.199605 241.341211 
L 187.215845 256.179169 
L 188.232084 268.707718 
L 189.248323 273.448293 
L 190.264562 280.841113 
L 191.280801 294.098565 
L 192.297041 311.218803 
L 193.31328 316.625339 
L 195.345758 349.178173 
L 196.361997 350.065331 
L 197.378236 347.736234 
L 198.394476 360.647615 
L 199.410715 376.363579 
L 200.426954 388.890643 
L 201.443193 386.616647 
L 202.459432 387.147462 
L 203.475672 386.768711 
L 204.491911 391.910113 
L 207.540628 436.658871 
L 208.556868 448.983414 
L 209.573107 449.97514 
L 210.589346 450.320478 
L 212.621824 453.921218 
L 213.638063 453.223679 
L 214.654303 461.633673 
L 215.670542 464.141115 
L 216.686781 469.180764 
L 217.70302 469.22886 
L 218.719259 471.335525 
L 219.735499 470.803661 
L 220.751738 470.45517 
L 221.767977 471.913624 
L 223.800455 472.763896 
L 224.816694 471.456151 
L 225.832934 470.389767 
L 226.849173 470.382296 
L 228.881651 474.448614 
L 229.89789 474.504925 
L 230.91413 476.511584 
L 231.930369 478.858035 
L 232.946608 479.774756 
L 233.962847 480.244517 
L 234.979086 480.077414 
L 235.995326 481.527524 
L 237.011565 482.497298 
L 238.027804 482.8109 
L 239.044043 480.934267 
L 240.060282 481.721351 
L 241.076521 482.245619 
L 242.092761 484.772444 
L 243.109 483.274917 
L 244.125239 484.093914 
L 245.141478 483.167233 
L 246.157717 481.063515 
L 247.173957 481.364086 
L 248.190196 482.880062 
L 249.206435 482.646115 
L 251.238913 483.471561 
L 252.255153 485.193469 
L 253.271392 484.076189 
L 254.287631 486.400023 
L 255.30387 487.777573 
L 256.320109 489.583646 
L 257.336348 488.369965 
L 258.352588 488.296155 
L 259.368827 490.233824 
L 260.385066 490.079419 
L 261.401305 490.130253 
L 262.417544 490.675058 
L 263.433784 490.081662 
L 264.450023 491.112461 
L 265.466262 492.48 
L 266.482501 492.264779 
L 267.49874 491.330051 
L 268.51498 489.662476 
L 269.531219 490.641249 
L 270.547458 490.537855 
L 272.579936 487.348953 
L 273.596175 486.466909 
L 276.644893 463.977564 
L 277.661132 463.234992 
L 278.677371 463.070166 
L 279.693611 463.65562 
L 282.742328 461.563388 
L 283.758567 461.455623 
L 284.774806 460.646594 
L 285.791046 460.024931 
L 286.807285 460.827293 
L 287.823524 460.603406 
L 290.872242 461.73738 
L 291.888481 461.937825 
L 292.90472 460.636817 
L 293.920959 460.060739 
L 296.969677 455.733362 
L 297.985916 455.976342 
L 301.034633 458.73791 
L 302.050873 458.932919 
L 303.067112 459.995397 
L 304.083351 462.060512 
L 305.09959 467.613429 
L 307.132069 482.842849 
L 309.164547 481.74028 
L 310.180786 480.65855 
L 311.197025 478.380231 
L 312.213265 473.690973 
L 313.229504 464.999359 
L 314.245743 455.320366 
L 317.29446 419.209633 
L 318.3107 419.829929 
L 319.326939 419.424707 
L 320.343178 418.061376 
L 321.359417 417.801087 
L 322.375656 416.25108 
L 323.391896 416.945743 
L 325.424374 418.876849 
L 326.440613 419.038966 
L 327.456852 421.041999 
L 328.473092 419.804473 
L 329.489331 421.135447 
L 330.50557 421.193717 
L 331.521809 421.585773 
L 332.538048 425.147778 
L 333.554287 422.97474 
L 334.570527 419.353746 
L 335.586766 414.906183 
L 336.603005 415.33872 
L 337.619244 413.880982 
L 338.635483 413.262155 
L 339.651723 411.451555 
L 340.667962 408.823306 
L 341.684201 406.561878 
L 342.70044 409.515965 
L 343.716679 417.148115 
L 345.749158 437.02813 
L 346.765397 447.25506 
L 347.781636 453.46987 
L 348.797875 448.830654 
L 350.830354 443.103128 
L 351.846593 439.093546 
L 352.862832 430.558086 
L 353.879071 428.001332 
L 354.89531 427.741562 
L 355.91155 426.964485 
L 356.927789 426.755782 
L 357.944028 424.972939 
L 358.960267 415.05411 
L 359.976506 402.021856 
L 360.992745 390.457899 
L 363.025224 364.320635 
L 364.041463 354.656637 
L 365.057702 354.36883 
L 366.073941 361.014563 
L 369.122659 364.388453 
L 370.138898 366.638919 
L 372.171377 374.559466 
L 373.187616 375.282786 
L 374.203855 375.855254 
L 375.220094 373.908776 
L 376.236333 374.382712 
L 378.268812 364.060463 
L 380.30129 363.738556 
L 381.317529 365.69943 
L 382.333768 367.145013 
L 383.350008 376.29837 
L 384.366247 377.491089 
L 385.382486 377.588065 
L 387.414964 375.749338 
L 388.431204 375.568172 
L 390.463682 397.826155 
L 392.49616 419.167906 
L 393.512399 431.383681 
L 394.528639 439.670707 
L 395.544878 445.979338 
L 396.561117 445.62954 
L 397.577356 443.77773 
L 398.593595 443.238474 
L 399.609835 441.778172 
L 400.626074 441.141726 
L 401.642313 439.149327 
L 402.658552 439.495759 
L 403.674791 441.381667 
L 404.691031 442.313161 
L 405.70727 443.907249 
L 406.723509 446.359808 
L 407.739748 455.712041 
L 408.755987 463.988285 
L 409.772226 464.486106 
L 410.788466 466.041886 
L 411.804705 466.93988 
L 412.820944 468.268076 
L 413.837183 466.335305 
L 414.853422 466.326903 
L 415.869662 464.141181 
L 416.885901 459.751902 
L 417.90214 457.363498 
L 419.934618 448.675896 
L 420.950857 443.54298 
L 421.967097 440.82001 
L 422.983336 440.636184 
L 423.999575 435.974181 
L 425.015814 429.891441 
L 426.032053 426.139158 
L 427.048293 425.633854 
L 428.064532 425.932078 
L 429.080771 427.014241 
L 430.09701 426.026607 
L 431.113249 422.016892 
L 432.129489 416.146945 
L 434.161967 405.309534 
L 435.178206 402.826516 
L 436.194445 401.413119 
L 437.210684 399.518616 
L 438.226924 397.137578 
L 439.243163 396.655624 
L 440.259402 395.15112 
L 442.29188 381.713127 
L 443.30812 381.05339 
L 444.324359 384.109233 
L 445.340598 384.982346 
L 446.356837 386.335972 
L 447.373076 391.047613 
L 451.438033 404.605538 
L 452.454272 404.941898 
L 453.470511 405.068267 
L 454.486751 409.883588 
L 455.50299 418.585929 
L 456.519229 421.486785 
L 457.535468 421.440914 
L 458.551707 420.504999 
L 459.567947 416.034907 
L 460.584186 414.770763 
L 461.600425 414.024745 
L 462.616664 415.759937 
L 463.632903 413.664932 
L 464.649143 405.080065 
L 469.730338 344.097259 
L 470.746578 333.116741 
L 471.762817 329.845864 
L 472.779056 328.540413 
L 473.795295 321.727126 
L 475.827774 299.908263 
L 476.844013 289.367639 
L 477.860252 283.416524 
L 478.876491 278.23528 
L 480.908969 269.083733 
L 482.941448 255.202573 
L 483.957687 244.977959 
L 484.973926 231.78513 
L 485.990165 220.857471 
L 487.006405 208.373249 
L 488.022644 204.286015 
L 489.038883 197.106627 
L 490.055122 196.925124 
L 491.071361 193.682479 
L 493.10384 197.542091 
L 494.120079 199.815218 
L 495.136318 200.559309 
L 496.152557 207.573688 
L 497.168796 208.915113 
L 498.185036 212.94114 
L 499.201275 216.011954 
L 500.217514 217.565712 
L 501.233753 220.771738 
L 502.249992 229.753271 
L 505.29871 246.194494 
L 506.314949 253.494306 
L 507.331188 256.10211 
L 508.347428 253.828228 
L 509.363667 248.483906 
L 510.379906 241.71924 
L 511.396145 240.926443 
L 512.412384 240.509575 
L 513.428623 244.004246 
L 514.444863 249.822824 
L 516.477341 262.767433 
L 517.49358 272.953331 
L 518.509819 275.109549 
L 519.526059 280.945214 
L 520.542298 276.858479 
L 521.558537 271.943271 
L 522.574776 264.218503 
L 523.591015 257.497208 
L 524.607255 251.724109 
L 525.623494 253.925232 
L 526.639733 252.824817 
L 527.655972 261.230296 
L 529.68845 272.601481 
L 530.70469 279.774083 
L 531.720929 290.038945 
L 532.737168 289.58227 
L 533.753407 286.23121 
L 534.769646 288.327428 
L 535.785886 292.405824 
L 536.802125 294.570186 
L 538.834603 307.871114 
L 539.850842 317.940022 
L 540.867081 332.353307 
L 541.883321 340.581669 
L 542.89956 351.229901 
L 543.915799 356.267509 
L 544.932038 359.900814 
L 545.948277 364.576529 
L 546.964517 367.908299 
L 547.980756 366.27807 
L 548.996995 367.05651 
L 550.013234 366.948148 
L 551.029473 373.376018 
L 556.110669 424.749524 
L 557.126908 433.386692 
L 558.143148 435.241129 
L 560.175626 443.474888 
L 561.191865 445.401796 
L 562.208104 442.072122 
L 563.224344 444.161036 
L 564.240583 449.888204 
L 565.256822 449.249116 
L 566.273061 446.626077 
L 567.2893 435.22579 
L 568.30554 427.261212 
L 571.354257 398.368984 
L 572.370496 393.470024 
L 573.386735 390.245763 
L 574.402975 388.912321 
L 575.419214 389.728918 
L 576.435453 388.21189 
L 577.451692 386.43219 
L 579.484171 363.794279 
L 580.50041 355.956153 
L 581.516649 345.040651 
L 583.549127 319.714961 
L 584.565367 304.664997 
L 585.581606 295.446066 
L 586.597845 291.204056 
L 587.614084 290.450894 
L 588.630323 289.007351 
L 589.646562 288.614393 
L 590.662802 288.063378 
L 591.679041 289.436546 
L 592.69528 291.172146 
L 593.711519 292.432122 
L 594.727758 292.379632 
L 595.743998 293.040997 
L 596.760237 296.350594 
L 597.776476 309.365885 
L 598.792715 318.564192 
L 600.825194 339.136375 
L 601.841433 345.399864 
L 602.857672 346.609813 
L 603.873911 348.556873 
L 604.89015 349.867915 
L 605.906389 347.22324 
L 606.922629 343.432664 
L 607.938868 347.192217 
L 608.955107 359.584273 
L 610.987585 377.187425 
L 613.020064 397.050559 
L 615.052542 418.571123 
L 616.068781 421.016837 
L 617.08502 415.245553 
L 618.10126 404.152762 
L 619.117499 395.805268 
L 620.133738 385.256417 
L 621.149977 376.991251 
L 622.166216 371.795806 
L 623.182456 368.4291 
L 624.198695 363.801912 
L 625.214934 361.242057 
L 627.247412 357.835008 
L 628.263652 354.444023 
L 629.279891 350.041015 
L 630.29613 346.826976 
L 631.312369 332.829938 
L 632.328608 329.469552 
L 633.344847 328.223592 
L 635.377326 319.101462 
L 636.393565 319.329973 
L 637.409804 322.99462 
L 638.426043 320.414696 
L 639.442283 319.239683 
L 640.458522 319.353587 
L 641.474761 310.761684 
L 642.491 299.450506 
L 643.507239 292.974196 
L 644.523479 284.769333 
L 645.539718 278.055721 
L 646.555957 278.590043 
L 647.572196 281.844314 
L 648.588435 289.881384 
L 649.604674 299.253651 
L 650.620914 309.726051 
L 651.637153 315.569652 
L 652.653392 313.888206 
L 653.669631 314.8651 
L 654.68587 314.426656 
L 655.70211 311.670576 
L 656.718349 307.557649 
L 657.734588 300.570239 
L 658.750827 294.614662 
L 659.767066 295.052408 
L 660.783306 291.520326 
L 661.799545 306.731248 
L 662.815784 307.122937 
L 663.832023 306.145174 
L 664.848262 304.137335 
L 665.864501 304.290674 
L 666.880741 297.408652 
L 667.89698 294.261766 
L 668.913219 289.018902 
L 669.929458 285.231821 
L 670.945697 280.66172 
L 671.961937 287.83357 
L 672.978176 300.002201 
L 673.994415 303.399912 
L 675.010654 309.566675 
L 676.026893 311.985117 
L 677.043132 313.875882 
L 678.059372 313.527997 
L 679.075611 317.055596 
L 680.09185 317.427629 
L 681.108089 313.727699 
L 682.124328 311.759071 
L 683.140568 316.939712 
L 684.156807 316.811447 
L 685.173046 317.878885 
L 686.189285 321.016163 
L 687.205524 324.719348 
L 688.221764 333.013657 
L 689.238003 335.709153 
L 690.254242 336.172286 
L 691.270481 343.212338 
L 692.28672 342.016968 
L 693.302959 341.335458 
L 694.319199 343.462562 
L 695.335438 347.082578 
L 696.351677 350.055769 
L 697.367916 358.329445 
L 698.384155 357.720003 
L 699.400395 359.567494 
L 700.416634 362.014535 
L 701.432873 363.898565 
L 702.449112 359.980284 
L 703.465351 353.265815 
L 704.481591 349.147038 
L 705.49783 350.527627 
L 706.514069 349.789455 
L 707.530308 347.044417 
L 708.546547 345.876053 
L 709.562786 343.213018 
L 710.579026 340.897894 
L 711.595265 341.914319 
L 712.611504 341.895413 
L 713.627743 340.749633 
L 714.643982 331.332887 
L 715.660222 330.601861 
L 716.676461 319.318377 
L 717.6927 317.808305 
L 718.708939 314.849656 
L 719.725178 319.580215 
L 720.741418 320.882119 
L 721.757657 321.311703 
L 722.773896 320.870427 
L 723.790135 326.349905 
L 724.806374 324.910668 
L 725.822613 315.927235 
L 726.838853 312.454688 
L 727.855092 308.454383 
L 728.871331 311.149567 
L 729.88757 312.851111 
L 730.903809 312.062074 
L 731.920049 314.579785 
L 732.936288 318.321315 
L 734.968766 330.967619 
L 735.985005 333.4065 
L 737.001244 335.036476 
L 738.017484 333.252638 
L 739.033723 333.480289 
L 740.049962 332.170749 
L 741.066201 330.363826 
L 743.09868 331.205815 
L 744.114919 332.460423 
L 745.131158 342.567128 
L 746.147397 338.712127 
L 747.163636 343.810845 
L 747.163636 343.810845 
" clip-path="url(#p8128ef09e2)" style="fill: none; stroke: #1f77b4; stroke-width: 4; stroke-linecap: square"/>
   </g>
   <g id="line2d_34">
    <path d="M 138.436364 98.36096 
L 139.452603 117.477855 
L 140.468842 144.665849 
L 141.485081 152.156886 
L 142.50132 157.9689 
L 143.51756 168.592339 
L 144.533799 154.936615 
L 145.550038 165.030478 
L 147.582516 169.951811 
L 148.598756 183.282631 
L 149.614995 184.717423 
L 150.631234 191.409143 
L 151.647473 193.116411 
L 152.663712 194.5281 
L 153.679951 197.55655 
L 155.71243 201.354668 
L 156.728669 203.151286 
L 157.744908 197.951684 
L 158.761147 200.810392 
L 159.777387 201.572667 
L 161.809865 203.867891 
L 162.826104 201.799959 
L 163.842343 203.19027 
L 164.858582 201.680676 
L 165.874822 201.073139 
L 166.891061 201.692905 
L 167.9073 202.895021 
L 168.923539 207.284438 
L 169.939778 210.808533 
L 170.956018 212.64378 
L 171.972257 214.709639 
L 172.988496 216.496281 
L 174.004735 216.996221 
L 175.020974 222.17311 
L 176.037214 222.634427 
L 178.069692 227.003667 
L 179.085931 224.889502 
L 180.10217 226.372572 
L 181.118409 220.676256 
L 182.134649 221.035157 
L 183.150888 221.532694 
L 185.183366 219.162043 
L 187.215845 221.153917 
L 188.232084 226.672632 
L 189.248323 226.522625 
L 190.264562 227.320597 
L 192.297041 228.167088 
L 193.31328 231.356643 
L 194.329519 231.782609 
L 195.345758 234.759562 
L 196.361997 236.955536 
L 197.378236 237.987676 
L 198.394476 238.333427 
L 199.410715 239.195786 
L 200.426954 239.578594 
L 201.443193 239.562957 
L 203.475672 240.948272 
L 204.491911 241.387925 
L 205.50815 242.10375 
L 206.524389 242.073448 
L 208.556868 241.584308 
L 209.573107 241.284858 
L 210.589346 241.910903 
L 211.605585 247.777226 
L 212.621824 249.376438 
L 213.638063 251.239497 
L 214.654303 253.763162 
L 215.670542 256.738555 
L 216.686781 256.979496 
L 217.70302 256.917123 
L 218.719259 257.046239 
L 219.735499 257.448026 
L 220.751738 259.828548 
L 222.784216 263.355167 
L 223.800455 264.630519 
L 224.816694 265.596836 
L 225.832934 266.344695 
L 226.849173 266.638622 
L 228.881651 266.848174 
L 229.89789 266.485124 
L 230.91413 265.80943 
L 231.930369 264.774347 
L 232.946608 263.218844 
L 233.962847 261.302894 
L 234.979086 258.894367 
L 235.995326 255.71604 
L 237.011565 252.08677 
L 238.027804 253.376749 
L 239.044043 258.786729 
L 240.060282 261.592253 
L 241.076521 262.379095 
L 243.109 265.615688 
L 245.141478 267.308554 
L 246.157717 268.508274 
L 249.206435 272.962149 
L 250.222674 274.520461 
L 251.238913 274.561605 
L 252.255153 275.013863 
L 253.271392 275.304469 
L 254.287631 276.325727 
L 256.320109 279.159147 
L 257.336348 280.717218 
L 258.352588 282.629376 
L 260.385066 287.145939 
L 261.401305 289.69203 
L 262.417544 292.854856 
L 265.466262 304.712526 
L 267.49874 315.915199 
L 268.51498 316.599176 
L 269.531219 313.613276 
L 270.547458 312.594092 
L 271.563697 313.228105 
L 272.579936 312.442918 
L 273.596175 311.846953 
L 274.612415 311.73333 
L 275.628654 311.921609 
L 276.644893 311.612989 
L 278.677371 311.81856 
L 279.693611 311.566692 
L 280.70985 311.440801 
L 281.726089 310.961122 
L 282.742328 311.222299 
L 283.758567 311.23981 
L 284.774806 311.839076 
L 285.791046 311.156451 
L 286.807285 310.813456 
L 288.839763 310.716224 
L 289.856002 310.140405 
L 290.872242 310.357099 
L 291.888481 310.052311 
L 293.920959 308.909196 
L 295.953438 308.635889 
L 296.969677 308.635347 
L 297.985916 308.210631 
L 299.002155 308.019369 
L 300.018394 307.202938 
L 301.034633 308.189681 
L 303.067112 308.755466 
L 304.083351 308.272869 
L 305.09959 308.658202 
L 307.132069 308.765135 
L 308.148308 308.742566 
L 310.180786 308.085762 
L 311.197025 308.108896 
L 312.213265 307.866535 
L 315.261982 304.556708 
L 316.278221 301.444127 
L 317.29446 297.049279 
L 318.3107 297.167017 
L 320.343178 297.583674 
L 321.359417 296.088726 
L 322.375656 294.37189 
L 323.391896 291.721326 
L 325.424374 291.038655 
L 326.440613 292.921459 
L 327.456852 292.921098 
L 328.473092 290.254179 
L 329.489331 289.10945 
L 330.50557 287.137836 
L 331.521809 283.744167 
L 333.554287 278.597417 
L 334.570527 276.877346 
L 335.586766 274.31328 
L 336.603005 271.332347 
L 337.619244 268.827908 
L 339.651723 263.292125 
L 340.667962 260.965398 
L 341.684201 258.273578 
L 342.70044 256.264936 
L 343.716679 254.008681 
L 344.732919 253.061378 
L 345.749158 253.104215 
L 346.765397 254.510898 
L 347.781636 257.142849 
L 350.830354 251.863768 
L 351.846593 251.304492 
L 352.862832 251.860459 
L 353.879071 253.176755 
L 354.89531 251.926579 
L 355.91155 248.326913 
L 356.927789 244.204165 
L 357.944028 241.953562 
L 358.960267 243.246544 
L 359.976506 243.165752 
L 360.992745 244.018305 
L 362.008985 245.364904 
L 363.025224 247.066157 
L 364.041463 245.19351 
L 365.057702 249.102563 
L 366.073941 251.637717 
L 367.090181 254.4978 
L 368.10642 252.481459 
L 369.122659 250.132163 
L 370.138898 249.177476 
L 371.155137 247.183947 
L 372.171377 246.957837 
L 373.187616 251.637002 
L 374.203855 252.406313 
L 377.252572 262.462937 
L 383.350008 281.076811 
L 385.382486 286.890675 
L 386.398725 292.219085 
L 387.414964 296.168335 
L 388.431204 299.597224 
L 391.479921 307.930754 
L 392.49616 310.545554 
L 393.512399 312.459032 
L 394.528639 317.851932 
L 395.544878 317.514944 
L 397.577356 319.309876 
L 401.642313 341.590777 
L 402.658552 345.465095 
L 403.674791 344.250957 
L 404.691031 347.524764 
L 405.70727 347.98539 
L 406.723509 340.846504 
L 408.755987 338.919202 
L 409.772226 338.023654 
L 411.804705 335.799057 
L 414.853422 333.134073 
L 415.869662 332.334268 
L 418.918379 328.676583 
L 419.934618 327.245358 
L 420.950857 326.337507 
L 421.967097 325.270208 
L 422.983336 324.020636 
L 423.999575 322.456255 
L 427.048293 315.827211 
L 428.064532 311.570505 
L 429.080771 306.332983 
L 430.09701 302.562726 
L 432.129489 293.135576 
L 435.178206 277.517868 
L 436.194445 270.599939 
L 437.210684 270.958182 
L 439.243163 258.979839 
L 447.373076 214.531365 
L 448.389316 209.559523 
L 449.405555 203.930337 
L 450.421794 199.192397 
L 452.454272 187.887933 
L 454.486751 177.89818 
L 457.535468 165.793104 
L 458.551707 163.890776 
L 459.567947 162.963755 
L 460.584186 160.694801 
L 461.600425 159.282958 
L 462.616664 158.280493 
L 463.632903 158.116959 
L 464.649143 158.308353 
L 465.665382 162.940344 
L 466.681621 164.447323 
L 467.69786 166.369314 
L 468.714099 168.74831 
L 472.779056 175.136094 
L 473.795295 176.459632 
L 476.844013 181.078494 
L 477.860252 182.237427 
L 478.876491 186.813614 
L 479.89273 193.667975 
L 480.908969 196.090414 
L 481.925209 197.669461 
L 482.941448 200.324787 
L 483.957687 202.59357 
L 484.973926 207.786565 
L 485.990165 210.59606 
L 487.006405 211.465562 
L 488.022644 210.089422 
L 489.038883 215.781516 
L 490.055122 223.071037 
L 491.071361 233.110995 
L 492.087601 242.00309 
L 493.10384 249.358385 
L 494.120079 248.815018 
L 496.152557 243.764613 
L 497.168796 242.936339 
L 498.185036 244.434952 
L 500.217514 250.832443 
L 501.233753 251.13674 
L 502.249992 250.519587 
L 503.266232 251.632197 
L 504.282471 249.852947 
L 505.29871 250.222767 
L 507.331188 245.285367 
L 508.347428 244.180103 
L 509.363667 239.390465 
L 510.379906 232.786534 
L 511.396145 227.359502 
L 512.412384 229.168748 
L 513.428623 228.810466 
L 514.444863 229.06762 
L 515.461102 226.023222 
L 516.477341 227.694176 
L 517.49358 231.866103 
L 518.509819 231.15432 
L 519.526059 222.492192 
L 520.542298 218.698345 
L 521.558537 213.970866 
L 522.574776 205.288357 
L 523.591015 198.783487 
L 524.607255 199.558556 
L 525.623494 201.500481 
L 526.639733 201.15641 
L 527.655972 211.125822 
L 528.672211 215.122663 
L 530.70469 208.107286 
L 531.720929 211.762544 
L 532.737168 212.228166 
L 533.753407 213.873305 
L 534.769646 219.647577 
L 535.785886 222.815609 
L 536.802125 227.11131 
L 537.818364 228.759334 
L 539.850842 229.203228 
L 540.867081 231.060998 
L 541.883321 234.500961 
L 542.89956 233.554643 
L 543.915799 234.789629 
L 544.932038 236.798487 
L 545.948277 240.53074 
L 546.964517 237.469934 
L 547.980756 237.910572 
L 548.996995 242.760743 
L 550.013234 249.984952 
L 551.029473 251.816727 
L 552.045713 251.402291 
L 553.061952 256.425464 
L 554.078191 255.614409 
L 555.09443 255.985184 
L 556.110669 257.838924 
L 557.126908 258.198481 
L 558.143148 248.330015 
L 559.159387 243.307334 
L 561.191865 244.513972 
L 562.208104 240.671815 
L 563.224344 240.924106 
L 564.240583 242.089747 
L 565.256822 237.731401 
L 566.273061 237.050084 
L 567.2893 235.43155 
L 568.30554 237.190442 
L 569.321779 241.570263 
L 570.338018 244.175171 
L 571.354257 245.244934 
L 572.370496 247.553125 
L 573.386735 248.372352 
L 574.402975 248.22841 
L 575.419214 247.118577 
L 576.435453 244.685639 
L 577.451692 246.790627 
L 578.467931 244.651538 
L 579.484171 244.844345 
L 580.50041 243.179782 
L 581.516649 240.952068 
L 582.532888 240.312671 
L 583.549127 239.276714 
L 584.565367 242.002111 
L 585.581606 242.717205 
L 586.597845 240.343905 
L 587.614084 239.248897 
L 588.630323 240.699671 
L 589.646562 239.772081 
L 591.679041 239.96155 
L 592.69528 240.24606 
L 593.711519 240.829527 
L 594.727758 237.700397 
L 595.743998 238.48575 
L 596.760237 235.679367 
L 597.776476 236.098831 
L 598.792715 234.582918 
L 599.808954 233.342935 
L 600.825194 233.426198 
L 602.857672 227.751141 
L 603.873911 224.166549 
L 604.89015 222.031082 
L 605.906389 220.204248 
L 607.938868 216.116039 
L 609.971346 212.195422 
L 610.987585 209.58042 
L 612.003825 206.518807 
L 613.020064 202.542242 
L 614.036303 199.950733 
L 615.052542 199.070672 
L 616.068781 196.763692 
L 617.08502 196.09226 
L 618.10126 194.825336 
L 619.117499 192.684965 
L 620.133738 190.941384 
L 621.149977 188.58728 
L 622.166216 187.367828 
L 625.214934 179.115804 
L 626.231173 177.0943 
L 627.247412 175.5465 
L 628.263652 174.289518 
L 629.279891 174.10309 
L 631.312369 169.992528 
L 633.344847 169.675887 
L 634.361087 169.945141 
L 635.377326 169.082993 
L 636.393565 167.388854 
L 637.409804 166.324124 
L 639.442283 164.617992 
L 640.458522 162.171885 
L 641.474761 162.133851 
L 642.491 160.922186 
L 643.507239 159.018096 
L 644.523479 155.4295 
L 645.539718 151.295944 
L 647.572196 146.829164 
L 649.604674 142.612251 
L 650.620914 140.949131 
L 651.637153 138.692824 
L 652.653392 135.347065 
L 654.68587 132.254248 
L 655.70211 130.820109 
L 657.734588 124.457407 
L 659.767066 117.465985 
L 660.783306 113.857866 
L 662.815784 108.787143 
L 663.832023 106.322173 
L 664.848262 104.577277 
L 665.864501 102.070147 
L 666.880741 100.925975 
L 667.89698 98.714037 
L 668.913219 95.9633 
L 669.929458 92.596963 
L 670.945697 93.643698 
L 671.961937 92.430351 
L 672.978176 91.475522 
L 673.994415 90.189143 
L 675.010654 89.625268 
L 676.026893 89.28 
L 677.043132 89.355101 
L 679.075611 90.643051 
L 680.09185 92.650708 
L 681.108089 93.148451 
L 682.124328 94.322613 
L 683.140568 95.291341 
L 684.156807 96.919559 
L 685.173046 98.101399 
L 686.189285 98.442668 
L 687.205524 99.867396 
L 688.221764 102.241033 
L 690.254242 105.356929 
L 691.270481 106.437549 
L 692.28672 106.758231 
L 694.319199 109.578721 
L 695.335438 110.364349 
L 696.351677 111.398471 
L 697.367916 111.615524 
L 698.384155 112.630397 
L 700.416634 116.383674 
L 701.432873 115.46552 
L 702.449112 115.319604 
L 703.465351 116.205541 
L 704.481591 117.65821 
L 707.530308 120.094261 
L 709.562786 121.236475 
L 710.579026 120.448963 
L 711.595265 121.3372 
L 713.627743 122.437186 
L 715.660222 120.984495 
L 716.676461 121.36198 
L 717.6927 121.901475 
L 718.708939 121.705312 
L 720.741418 121.598316 
L 721.757657 121.306896 
L 722.773896 121.249467 
L 723.790135 121.363817 
L 727.855092 120.588984 
L 728.871331 120.089631 
L 729.88757 118.739997 
L 730.903809 118.249224 
L 732.936288 117.896965 
L 734.968766 117.253794 
L 737.001244 117.094714 
L 738.017484 116.892796 
L 740.049962 116.112578 
L 741.066201 115.622009 
L 743.09868 114.172114 
L 744.114919 113.719002 
L 745.131158 113.516906 
L 746.147397 113.46243 
L 747.163636 113.233195 
L 747.163636 113.233195 
" clip-path="url(#p8128ef09e2)" style="fill: none; stroke: #ff7f0e; stroke-width: 4; stroke-linecap: square"/>
   </g>
   <g id="line2d_35"/>
   <g id="line2d_36"/>
   <g id="patch_3">
    <path d="M 108 512.64 
L 108 69.12 
" style="fill: none; stroke: #000000; stroke-width: 0.8; stroke-linejoin: miter; stroke-linecap: square"/>
   </g>
   <g id="patch_4">
    <path d="M 777.6 512.64 
L 777.6 69.12 
" style="fill: none; stroke: #000000; stroke-width: 0.8; stroke-linejoin: miter; stroke-linecap: square"/>
   </g>
   <g id="patch_5">
    <path d="M 108 512.64 
L 777.6 512.64 
" style="fill: none; stroke: #000000; stroke-width: 0.8; stroke-linejoin: miter; stroke-linecap: square"/>
   </g>
   <g id="patch_6">
    <path d="M 108 69.12 
L 777.6 69.12 
" style="fill: none; stroke: #000000; stroke-width: 0.8; stroke-linejoin: miter; stroke-linecap: square"/>
   </g>
   <g id="text_19">
    <!-- tm -->
    <g transform="translate(401.817187 56.641875) scale(0.6 -0.6)">
     <defs>
      <path id="DejaVuSans-6d" d="M 3328 2828 
Q 3544 3216 3844 3400 
Q 4144 3584 4550 3584 
Q 5097 3584 5394 3201 
Q 5691 2819 5691 2113 
L 5691 0 
L 5113 0 
L 5113 2094 
Q 5113 2597 4934 2840 
Q 4756 3084 4391 3084 
Q 3944 3084 3684 2787 
Q 3425 2491 3425 1978 
L 3425 0 
L 2847 0 
L 2847 2094 
Q 2847 2600 2669 2842 
Q 2491 3084 2119 3084 
Q 1678 3084 1418 2786 
Q 1159 2488 1159 1978 
L 1159 0 
L 581 0 
L 581 3500 
L 1159 3500 
L 1159 2956 
Q 1356 3278 1631 3431 
Q 1906 3584 2284 3584 
Q 2666 3584 2933 3390 
Q 3200 3197 3328 2828 
z
" transform="scale(0.015625)"/>
     </defs>
     <use xlink:href="#DejaVuSans-74"/>
     <use xlink:href="#DejaVuSans-6d" x="39.208984"/>
    </g>
   </g>
   <g id="legend_1">
    <g id="patch_7">
     <path d="M 136 218.545 
L 401.66875 218.545 
Q 409.66875 218.545 409.66875 210.545 
L 409.66875 97.12 
Q 409.66875 89.12 401.66875 89.12 
L 136 89.12 
Q 128 89.12 128 97.12 
L 128 210.545 
Q 128 218.545 136 218.545 
z
" style="fill: #ffffff; opacity: 0.8; stroke: #cccccc; stroke-linejoin: miter"/>
    </g>
    <g id="line2d_37">
     <path d="M 144 121.51375 
L 184 121.51375 
L 224 121.51375 
" style="fill: none; stroke: #1f77b4; stroke-width: 4; stroke-linecap: square"/>
    </g>
    <g id="text_20">
     <!-- local -->
     <g transform="translate(256 135.51375) scale(0.4 -0.4)">
      <defs>
       <path id="DejaVuSans-6c" d="M 603 4863 
L 1178 4863 
L 1178 0 
L 603 0 
L 603 4863 
z
" transform="scale(0.015625)"/>
       <path id="DejaVuSans-63" d="M 3122 3366 
L 3122 2828 
Q 2878 2963 2633 3030 
Q 2388 3097 2138 3097 
Q 1578 3097 1268 2742 
Q 959 2388 959 1747 
Q 959 1106 1268 751 
Q 1578 397 2138 397 
Q 2388 397 2633 464 
Q 2878 531 3122 666 
L 3122 134 
Q 2881 22 2623 -34 
Q 2366 -91 2075 -91 
Q 1284 -91 818 406 
Q 353 903 353 1747 
Q 353 2603 823 3093 
Q 1294 3584 2113 3584 
Q 2378 3584 2631 3529 
Q 2884 3475 3122 3366 
z
" transform="scale(0.015625)"/>
      </defs>
      <use xlink:href="#DejaVuSans-6c"/>
      <use xlink:href="#DejaVuSans-6f" x="27.783203"/>
      <use xlink:href="#DejaVuSans-63" x="88.964844"/>
      <use xlink:href="#DejaVuSans-61" x="143.945312"/>
      <use xlink:href="#DejaVuSans-6c" x="205.224609"/>
     </g>
    </g>
    <g id="line2d_38">
     <path d="M 144 180.22625 
L 184 180.22625 
L 224 180.22625 
" style="fill: none; stroke: #ff7f0e; stroke-width: 4; stroke-linecap: square"/>
    </g>
    <g id="text_21">
     <!-- fedavg -->
     <g transform="translate(256 194.22625) scale(0.4 -0.4)">
      <defs>
       <path id="DejaVuSans-66" d="M 2375 4863 
L 2375 4384 
L 1825 4384 
Q 1516 4384 1395 4259 
Q 1275 4134 1275 3809 
L 1275 3500 
L 2222 3500 
L 2222 3053 
L 1275 3053 
L 1275 0 
L 697 0 
L 697 3053 
L 147 3053 
L 147 3500 
L 697 3500 
L 697 3744 
Q 697 4328 969 4595 
Q 1241 4863 1831 4863 
L 2375 4863 
z
" transform="scale(0.015625)"/>
       <path id="DejaVuSans-64" d="M 2906 2969 
L 2906 4863 
L 3481 4863 
L 3481 0 
L 2906 0 
L 2906 525 
Q 2725 213 2448 61 
Q 2172 -91 1784 -91 
Q 1150 -91 751 415 
Q 353 922 353 1747 
Q 353 2572 751 3078 
Q 1150 3584 1784 3584 
Q 2172 3584 2448 3432 
Q 2725 3281 2906 2969 
z
M 947 1747 
Q 947 1113 1208 752 
Q 1469 391 1925 391 
Q 2381 391 2643 752 
Q 2906 1113 2906 1747 
Q 2906 2381 2643 2742 
Q 2381 3103 1925 3103 
Q 1469 3103 1208 2742 
Q 947 2381 947 1747 
z
" transform="scale(0.015625)"/>
       <path id="DejaVuSans-76" d="M 191 3500 
L 800 3500 
L 1894 563 
L 2988 3500 
L 3597 3500 
L 2284 0 
L 1503 0 
L 191 3500 
z
" transform="scale(0.015625)"/>
       <path id="DejaVuSans-67" d="M 2906 1791 
Q 2906 2416 2648 2759 
Q 2391 3103 1925 3103 
Q 1463 3103 1205 2759 
Q 947 2416 947 1791 
Q 947 1169 1205 825 
Q 1463 481 1925 481 
Q 2391 481 2648 825 
Q 2906 1169 2906 1791 
z
M 3481 434 
Q 3481 -459 3084 -895 
Q 2688 -1331 1869 -1331 
Q 1566 -1331 1297 -1286 
Q 1028 -1241 775 -1147 
L 775 -588 
Q 1028 -725 1275 -790 
Q 1522 -856 1778 -856 
Q 2344 -856 2625 -561 
Q 2906 -266 2906 331 
L 2906 616 
Q 2728 306 2450 153 
Q 2172 0 1784 0 
Q 1141 0 747 490 
Q 353 981 353 1791 
Q 353 2603 747 3093 
Q 1141 3584 1784 3584 
Q 2172 3584 2450 3431 
Q 2728 3278 2906 2969 
L 2906 3500 
L 3481 3500 
L 3481 434 
z
" transform="scale(0.015625)"/>
      </defs>
      <use xlink:href="#DejaVuSans-66"/>
      <use xlink:href="#DejaVuSans-65" x="35.205078"/>
      <use xlink:href="#DejaVuSans-64" x="96.728516"/>
      <use xlink:href="#DejaVuSans-61" x="160.205078"/>
      <use xlink:href="#DejaVuSans-76" x="221.484375"/>
      <use xlink:href="#DejaVuSans-67" x="280.664062"/>
     </g>
    </g>
   </g>
  </g>
 </g>
 <defs>
  <clipPath id="p8128ef09e2">
   <rect x="108" y="69.12" width="669.6" height="443.52"/>
  </clipPath>
 </defs>
</svg>
