<svg class="main-svg" xmlns="http://www.w3.org/2000/svg" xmlns:xlink="http://www.w3.org/1999/xlink" width="800" height="600" style="" viewBox="0 0 800 600"><rect x="0" y="0" width="800" height="600" style="fill: rgb(255, 255, 255); fill-opacity: 1;"/><defs id="defs-ffb1d0"><g class="clips"><clipPath id="clipffb1d0xyplot" class="plotclip"><rect width="138.95555555555558" height="178.50000000000003"/></clipPath><clipPath id="clipffb1d0x2y2plot" class="plotclip"><rect width="138.95555555555558" height="178.50000000000003"/></clipPath><clipPath id="clipffb1d0x3y3plot" class="plotclip"><rect width="138.95555555555555" height="178.50000000000003"/></clipPath><clipPath id="clipffb1d0x4y4plot" class="plotclip"><rect width="138.95555555555558" height="178.5"/></clipPath><clipPath class="axesclip" id="clipffb1d0x"><rect x="80" y="0" width="138.95555555555558" height="600"/></clipPath><clipPath class="axesclip" id="clipffb1d0y"><rect x="0" y="100" width="800" height="178.50000000000003"/></clipPath><clipPath class="axesclip" id="clipffb1d0xy"><rect x="80" y="100" width="138.95555555555558" height="178.50000000000003"/></clipPath><clipPath class="axesclip" id="clipffb1d0y2"><rect x="0" y="100" width="800" height="178.50000000000003"/></clipPath><clipPath class="axesclip" id="clipffb1d0xy2"><rect x="80" y="100" width="138.95555555555558" height="178.50000000000003"/></clipPath><clipPath class="axesclip" id="clipffb1d0y3"><rect x="0" y="100" width="800" height="178.50000000000003"/></clipPath><clipPath class="axesclip" id="clipffb1d0xy3"><rect x="80" y="100" width="138.95555555555558" height="178.50000000000003"/></clipPath><clipPath class="axesclip" id="clipffb1d0y4"><rect x="0" y="341.5" width="800" height="178.5"/></clipPath><clipPath class="axesclip" id="clipffb1d0xy4"><rect x="80" y="341.5" width="138.95555555555558" height="178.5"/></clipPath><clipPath class="axesclip" id="clipffb1d0x2"><rect x="251.02222222222224" y="0" width="138.95555555555558" height="600"/></clipPath><clipPath class="axesclip" id="clipffb1d0x2y"><rect x="251.02222222222224" y="100" width="138.95555555555558" height="178.50000000000003"/></clipPath><clipPath class="axesclip" id="clipffb1d0x2y2"><rect x="251.02222222222224" y="100" width="138.95555555555558" height="178.50000000000003"/></clipPath><clipPath class="axesclip" id="clipffb1d0x2y3"><rect x="251.02222222222224" y="100" width="138.95555555555558" height="178.50000000000003"/></clipPath><clipPath class="axesclip" id="clipffb1d0x2y4"><rect x="251.02222222222224" y="341.5" width="138.95555555555558" height="178.5"/></clipPath><clipPath class="axesclip" id="clipffb1d0x3"><rect x="422.0444444444445" y="0" width="138.95555555555555" height="600"/></clipPath><clipPath class="axesclip" id="clipffb1d0x3y"><rect x="422.0444444444445" y="100" width="138.95555555555555" height="178.50000000000003"/></clipPath><clipPath class="axesclip" id="clipffb1d0x3y2"><rect x="422.0444444444445" y="100" width="138.95555555555555" height="178.50000000000003"/></clipPath><clipPath class="axesclip" id="clipffb1d0x3y3"><rect x="422.0444444444445" y="100" width="138.95555555555555" height="178.50000000000003"/></clipPath><clipPath class="axesclip" id="clipffb1d0x3y4"><rect x="422.0444444444445" y="341.5" width="138.95555555555555" height="178.5"/></clipPath><clipPath class="axesclip" id="clipffb1d0x4"><rect x="80" y="0" width="138.95555555555558" height="600"/></clipPath><clipPath class="axesclip" id="clipffb1d0x4y"><rect x="80" y="100" width="138.95555555555558" height="178.50000000000003"/></clipPath><clipPath class="axesclip" id="clipffb1d0x4y2"><rect x="80" y="100" width="138.95555555555558" height="178.50000000000003"/></clipPath><clipPath class="axesclip" id="clipffb1d0x4y3"><rect x="80" y="100" width="138.95555555555558" height="178.50000000000003"/></clipPath><clipPath class="axesclip" id="clipffb1d0x4y4"><rect x="80" y="341.5" width="138.95555555555558" height="178.5"/></clipPath></g><g class="gradients"/><g class="patterns"/></defs><g class="bglayer"><rect class="bg" x="80" y="100" width="138.95555555555558" height="178.50000000000003" style="fill: rgb(229, 236, 246); fill-opacity: 1; stroke-width: 0;"/><rect class="bg" x="251.02222222222224" y="100" width="138.95555555555558" height="178.50000000000003" style="fill: rgb(229, 236, 246); fill-opacity: 1; stroke-width: 0;"/><rect class="bg" x="422.0444444444445" y="100" width="138.95555555555555" height="178.50000000000003" style="fill: rgb(229, 236, 246); fill-opacity: 1; stroke-width: 0;"/><rect class="bg" x="80" y="341.5" width="138.95555555555558" height="178.5" style="fill: rgb(229, 236, 246); fill-opacity: 1; stroke-width: 0;"/></g><g class="layer-below"><g class="imagelayer"/><g class="shapelayer"/></g><g class="cartesianlayer"><g class="subplot xy"><g class="layer-subplot"><g class="shapelayer"/><g class="imagelayer"/></g><g class="gridlayer"><g class="x"><path class="xgrid crisp" transform="translate(134.71,0)" d="M0,100v178.50000000000003" style="stroke: rgb(255, 255, 255); stroke-opacity: 1; stroke-width: 1px;"/><path class="xgrid crisp" transform="translate(189.41,0)" d="M0,100v178.50000000000003" style="stroke: rgb(255, 255, 255); stroke-opacity: 1; stroke-width: 1px;"/></g><g class="y"><path class="ygrid crisp" transform="translate(0,229.55)" d="M80,0h138.95555555555558" style="stroke: rgb(255, 255, 255); stroke-opacity: 1; stroke-width: 1px;"/><path class="ygrid crisp" transform="translate(0,180.61)" d="M80,0h138.95555555555558" style="stroke: rgb(255, 255, 255); stroke-opacity: 1; stroke-width: 1px;"/><path class="ygrid crisp" transform="translate(0,131.66)" d="M80,0h138.95555555555558" style="stroke: rgb(255, 255, 255); stroke-opacity: 1; stroke-width: 1px;"/></g></g><g class="zerolinelayer"><path class="xzl zl crisp" transform="translate(80,0)" d="M0,100v178.50000000000003" style="stroke: rgb(255, 255, 255); stroke-opacity: 1; stroke-width: 2px;"/><path class="yzl zl crisp" transform="translate(0,278.5)" d="M80,0h138.95555555555558" style="stroke: rgb(255, 255, 255); stroke-opacity: 1; stroke-width: 2px;"/></g><path class="xlines-below"/><path class="ylines-below"/><g class="overlines-below"/><g class="xaxislayer-below"/><g class="yaxislayer-below"/><g class="overaxes-below"/><g class="plot" transform="translate(80,100)" clip-path="url(#clipffb1d0xyplot)"><g class="scatterlayer mlayer"><g class="trace scatter trace814422" style="stroke-miterlimit: 2;"><g class="fills"><g><path class="js-fill" d="M138.96,178.5L0,178.5L0,8.93L1.09,168.1L1.63,169.18L3.27,170.91L3.81,170.83L5.99,171.26L6.54,171.67L9.26,172.05L9.81,171.97L13.62,172.14L14.17,172.21L20.16,172.91L20.71,172.86L26.16,171.26L26.7,171.06L33.79,168.92L34.33,168.8L41.41,167.54L41.96,167.38L52.31,164.54L52.86,164.35L95.91,149.91L96.45,149.82L99.18,149.98L99.72,150.19L102.99,152.3L103.54,152.86L106.26,156.52L106.81,157.51L113.34,167.94L113.89,168.41L122.06,174.82L122.61,175.14L128.6,177.71L129.15,177.84L136.23,178.45L136.78,178.45L138.96,178.26" style="fill: rgb(99, 110, 250); fill-opacity: 0.5; stroke-width: 0;"/></g></g><g class="errorbars"/><g class="lines"><path class="js-line" d="M0,8.93L1.09,168.1L1.63,169.18L3.27,170.91L3.81,170.83L5.99,171.26L6.54,171.67L9.26,172.05L9.81,171.97L13.62,172.14L14.17,172.21L20.16,172.91L20.71,172.86L26.16,171.26L26.7,171.06L33.79,168.92L34.33,168.8L41.41,167.54L41.96,167.38L52.31,164.54L52.86,164.35L95.91,149.91L96.45,149.82L99.18,149.98L99.72,150.19L102.99,152.3L103.54,152.86L106.26,156.52L106.81,157.51L113.34,167.94L113.89,168.41L122.06,174.82L122.61,175.14L128.6,177.71L129.15,177.84L136.23,178.45L136.78,178.45L138.96,178.26" style="vector-effect: non-scaling-stroke; fill: none; stroke: rgb(99, 110, 250); stroke-opacity: 1; stroke-width: 2px; opacity: 1;"/></g><g class="points"/><g class="text"/></g></g></g><g class="overplot"/><path class="xlines-above crisp" d="M0,0" style="fill: none;"/><path class="ylines-above crisp" d="M0,0" style="fill: none;"/><g class="overlines-above"/><g class="xaxislayer-above"><g class="xtick"><text text-anchor="middle" x="0" y="291.5" transform="translate(80,0)" style="font-family: 'Open Sans', verdana, arial, sans-serif; font-size: 12px; fill: rgb(42, 63, 95); fill-opacity: 1; white-space: pre; opacity: 1;">0</text></g><g class="xtick"><text text-anchor="middle" x="0" y="291.5" style="font-family: 'Open Sans', verdana, arial, sans-serif; font-size: 12px; fill: rgb(42, 63, 95); fill-opacity: 1; white-space: pre; opacity: 1;" transform="translate(134.71,0)">100</text></g><g class="xtick"><text text-anchor="middle" x="0" y="291.5" style="font-family: 'Open Sans', verdana, arial, sans-serif; font-size: 12px; fill: rgb(42, 63, 95); fill-opacity: 1; white-space: pre; opacity: 1;" transform="translate(189.41,0)">200</text></g></g><g class="yaxislayer-above"><g class="ytick"><text text-anchor="end" x="79" y="4.199999999999999" transform="translate(0,278.5)" style="font-family: 'Open Sans', verdana, arial, sans-serif; font-size: 12px; fill: rgb(42, 63, 95); fill-opacity: 1; white-space: pre; opacity: 1;">0</text></g><g class="ytick"><text text-anchor="end" x="79" y="4.199999999999999" style="font-family: 'Open Sans', verdana, arial, sans-serif; font-size: 12px; fill: rgb(42, 63, 95); fill-opacity: 1; white-space: pre; opacity: 1;" transform="translate(0,229.55)">2M</text></g><g class="ytick"><text text-anchor="end" x="79" y="4.199999999999999" style="font-family: 'Open Sans', verdana, arial, sans-serif; font-size: 12px; fill: rgb(42, 63, 95); fill-opacity: 1; white-space: pre; opacity: 1;" transform="translate(0,180.61)">4M</text></g><g class="ytick"><text text-anchor="end" x="79" y="4.199999999999999" style="font-family: 'Open Sans', verdana, arial, sans-serif; font-size: 12px; fill: rgb(42, 63, 95); fill-opacity: 1; white-space: pre; opacity: 1;" transform="translate(0,131.66)">6M</text></g></g><g class="overaxes-above"/></g><g class="subplot x2y2"><g class="layer-subplot"><g class="shapelayer"/><g class="imagelayer"/></g><g class="gridlayer"><g class="x2"><path class="x2grid crisp" transform="translate(305.7322222222222,0)" d="M0,100v178.50000000000003" style="stroke: rgb(255, 255, 255); stroke-opacity: 1; stroke-width: 1px;"/><path class="x2grid crisp" transform="translate(360.4322222222222,0)" d="M0,100v178.50000000000003" style="stroke: rgb(255, 255, 255); stroke-opacity: 1; stroke-width: 1px;"/></g><g class="y2"><path class="y2grid crisp" transform="translate(0,242.85)" d="M251.02222222222224,0h138.95555555555558" style="stroke: rgb(255, 255, 255); stroke-opacity: 1; stroke-width: 1px;"/><path class="y2grid crisp" transform="translate(0,207.19)" d="M251.02222222222224,0h138.95555555555558" style="stroke: rgb(255, 255, 255); stroke-opacity: 1; stroke-width: 1px;"/><path class="y2grid crisp" transform="translate(0,171.54000000000002)" d="M251.02222222222224,0h138.95555555555558" style="stroke: rgb(255, 255, 255); stroke-opacity: 1; stroke-width: 1px;"/><path class="y2grid crisp" transform="translate(0,135.89)" d="M251.02222222222224,0h138.95555555555558" style="stroke: rgb(255, 255, 255); stroke-opacity: 1; stroke-width: 1px;"/></g></g><g class="zerolinelayer"><path class="x2zl zl crisp" transform="translate(251.02222222222224,0)" d="M0,100v178.50000000000003" style="stroke: rgb(255, 255, 255); stroke-opacity: 1; stroke-width: 2px;"/><path class="y2zl zl crisp" transform="translate(0,278.5)" d="M251.02222222222224,0h138.95555555555558" style="stroke: rgb(255, 255, 255); stroke-opacity: 1; stroke-width: 2px;"/></g><path class="xlines-below"/><path class="ylines-below"/><g class="overlines-below"/><g class="xaxislayer-below"/><g class="yaxislayer-below"/><g class="overaxes-below"/><g class="plot" transform="translate(251.02222222222224,100)" clip-path="url(#clipffb1d0x2y2plot)"><g class="scatterlayer mlayer"><g class="trace scatter traceec1db0" style="stroke-miterlimit: 2;"><g class="fills"><g><path class="js-fill" d="M138.96,178.5L0,178.5L0,8.93L1.09,162.11L1.63,164.79L4.9,170.94L5.45,171.23L8.17,172.89L8.72,173.05L11.44,173.07L11.99,172.95L14.17,172.56L14.71,171.96L15.8,172.58L16.35,172.25L17.98,172.08L18.53,171.41L19.62,171.73L20.16,171.43L22.89,170.62L23.43,170.43L31.06,166.23L31.61,165.84L35.42,164.05L35.96,163.73L46.32,158.16L46.86,157.91L55.04,153.53L55.58,152.48L56.67,152.62L57.22,152.24L62.67,148.73L63.21,148.58L80.65,142.87L81.19,142.81L88.28,141.32L88.82,141.35L94.82,141.1L95.36,141.21L101.36,143.54L101.9,143.86L107.35,145.58L107.89,145.94L112.8,149.73L113.34,150.37L122.06,162.47L122.61,162.84L126.42,166.09L126.97,166.44L132.42,167.52L132.96,167.51L135.69,167.61L136.23,167.03L137.32,165.72L137.87,166.39L138.41,167.78L138.96,159.73" style="fill: rgb(239, 85, 59); fill-opacity: 0.5; stroke-width: 0;"/></g></g><g class="errorbars"/><g class="lines"><path class="js-line" d="M0,8.93L1.09,162.11L1.63,164.79L4.9,170.94L5.45,171.23L8.17,172.89L8.72,173.05L11.44,173.07L11.99,172.95L14.17,172.56L14.71,171.96L15.8,172.58L16.35,172.25L17.98,172.08L18.53,171.41L19.62,171.73L20.16,171.43L22.89,170.62L23.43,170.43L31.06,166.23L31.61,165.84L35.42,164.05L35.96,163.73L46.32,158.16L46.86,157.91L55.04,153.53L55.58,152.48L56.67,152.62L57.22,152.24L62.67,148.73L63.21,148.58L80.65,142.87L81.19,142.81L88.28,141.32L88.82,141.35L94.82,141.1L95.36,141.21L101.36,143.54L101.9,143.86L107.35,145.58L107.89,145.94L112.8,149.73L113.34,150.37L122.06,162.47L122.61,162.84L126.42,166.09L126.97,166.44L132.42,167.52L132.96,167.51L135.69,167.61L136.23,167.03L137.32,165.72L137.87,166.39L138.41,167.78L138.96,159.73" style="vector-effect: non-scaling-stroke; fill: none; stroke: rgb(239, 85, 59); stroke-opacity: 1; stroke-width: 2px; opacity: 1;"/></g><g class="points"/><g class="text"/></g></g></g><g class="overplot"/><path class="xlines-above crisp" d="M0,0" style="fill: none;"/><path class="ylines-above crisp" d="M0,0" style="fill: none;"/><g class="overlines-above"/><g class="xaxislayer-above"><g class="x2tick"><text text-anchor="middle" x="0" y="291.5" transform="translate(251.02222222222224,0)" style="font-family: 'Open Sans', verdana, arial, sans-serif; font-size: 12px; fill: rgb(42, 63, 95); fill-opacity: 1; white-space: pre; opacity: 1;">0</text></g><g class="x2tick"><text text-anchor="middle" x="0" y="291.5" style="font-family: 'Open Sans', verdana, arial, sans-serif; font-size: 12px; fill: rgb(42, 63, 95); fill-opacity: 1; white-space: pre; opacity: 1;" transform="translate(305.7322222222222,0)">100</text></g><g class="x2tick"><text text-anchor="middle" x="0" y="291.5" style="font-family: 'Open Sans', verdana, arial, sans-serif; font-size: 12px; fill: rgb(42, 63, 95); fill-opacity: 1; white-space: pre; opacity: 1;" transform="translate(360.4322222222222,0)">200</text></g></g><g class="yaxislayer-above"><g class="y2tick"><text text-anchor="end" x="250.02222222222224" y="4.199999999999999" transform="translate(0,278.5)" style="font-family: 'Open Sans', verdana, arial, sans-serif; font-size: 12px; fill: rgb(42, 63, 95); fill-opacity: 1; white-space: pre; opacity: 1;">0</text></g><g class="y2tick"><text text-anchor="end" x="250.02222222222224" y="4.199999999999999" style="font-family: 'Open Sans', verdana, arial, sans-serif; font-size: 12px; fill: rgb(42, 63, 95); fill-opacity: 1; white-space: pre; opacity: 1;" transform="translate(0,242.85)">2M</text></g><g class="y2tick"><text text-anchor="end" x="250.02222222222224" y="4.199999999999999" style="font-family: 'Open Sans', verdana, arial, sans-serif; font-size: 12px; fill: rgb(42, 63, 95); fill-opacity: 1; white-space: pre; opacity: 1;" transform="translate(0,207.19)">4M</text></g><g class="y2tick"><text text-anchor="end" x="250.02222222222224" y="4.199999999999999" style="font-family: 'Open Sans', verdana, arial, sans-serif; font-size: 12px; fill: rgb(42, 63, 95); fill-opacity: 1; white-space: pre; opacity: 1;" transform="translate(0,171.54000000000002)">6M</text></g><g class="y2tick"><text text-anchor="end" x="250.02222222222224" y="4.199999999999999" style="font-family: 'Open Sans', verdana, arial, sans-serif; font-size: 12px; fill: rgb(42, 63, 95); fill-opacity: 1; white-space: pre; opacity: 1;" transform="translate(0,135.89)">8M</text></g><g class="y2tick"><text text-anchor="end" x="250.02222222222224" y="4.199999999999999" style="font-family: 'Open Sans', verdana, arial, sans-serif; font-size: 12px; fill: rgb(42, 63, 95); fill-opacity: 1; white-space: pre; opacity: 1;" transform="translate(0,100.23)">10M</text></g></g><g class="overaxes-above"/></g><g class="subplot x3y3"><g class="layer-subplot"><g class="shapelayer"/><g class="imagelayer"/></g><g class="gridlayer"><g class="x3"><path class="x3grid crisp" transform="translate(476.75444444444446,0)" d="M0,100v178.50000000000003" style="stroke: rgb(255, 255, 255); stroke-opacity: 1; stroke-width: 1px;"/><path class="x3grid crisp" transform="translate(531.4544444444444,0)" d="M0,100v178.50000000000003" style="stroke: rgb(255, 255, 255); stroke-opacity: 1; stroke-width: 1px;"/></g><g class="y3"><path class="y3grid crisp" transform="translate(0,210.29000000000002)" d="M422.0444444444445,0h138.95555555555555" style="stroke: rgb(255, 255, 255); stroke-opacity: 1; stroke-width: 1px;"/><path class="y3grid crisp" transform="translate(0,142.07999999999998)" d="M422.0444444444445,0h138.95555555555555" style="stroke: rgb(255, 255, 255); stroke-opacity: 1; stroke-width: 1px;"/></g></g><g class="zerolinelayer"><path class="x3zl zl crisp" transform="translate(422.0444444444445,0)" d="M0,100v178.50000000000003" style="stroke: rgb(255, 255, 255); stroke-opacity: 1; stroke-width: 2px;"/><path class="y3zl zl crisp" transform="translate(0,278.5)" d="M422.0444444444445,0h138.95555555555555" style="stroke: rgb(255, 255, 255); stroke-opacity: 1; stroke-width: 2px;"/></g><path class="xlines-below"/><path class="ylines-below"/><g class="overlines-below"/><g class="xaxislayer-below"/><g class="yaxislayer-below"/><g class="overaxes-below"/><g class="plot" transform="translate(422.0444444444445,100)" clip-path="url(#clipffb1d0x3y3plot)"><g class="scatterlayer mlayer"><g class="trace scatter trace2af36f" style="stroke-miterlimit: 2;"><g class="fills"><g><path class="js-fill" d="M138.96,178.5L0,178.5L0,8.93L1.09,131.99L1.63,133.58L4.36,151.14L4.9,153.91L6.54,158.97L7.08,159.5L8.72,163.08L9.26,163.6L10.9,165.4L11.44,166.09L13.62,167.38L14.17,167.36L19.62,166.69L20.16,166.53L27.25,163.33L27.79,163.05L35.96,157.91L36.51,157.44L45.77,148.85L46.32,148.28L56.67,139.43L57.22,139.16L64.3,135.89L64.85,135.84L73.02,134.85L73.56,134.77L78.47,134.72L79.01,134.78L96.45,137.48L97,137.84L103.54,141.54L104.08,142.09L113.34,149.66L113.89,150.14L116.07,152.59L116.61,153.2L123.7,160.87L124.24,161.65L129.69,169.39L130.24,170.53L132.96,175.33L133.51,175.9L136.78,178.01L137.32,178.1L138.96,178.16" style="fill: rgb(0, 204, 150); fill-opacity: 0.5; stroke-width: 0;"/></g></g><g class="errorbars"/><g class="lines"><path class="js-line" d="M0,8.93L1.09,131.99L1.63,133.58L4.36,151.14L4.9,153.91L6.54,158.97L7.08,159.5L8.72,163.08L9.26,163.6L10.9,165.4L11.44,166.09L13.62,167.38L14.17,167.36L19.62,166.69L20.16,166.53L27.25,163.33L27.79,163.05L35.96,157.91L36.51,157.44L45.77,148.85L46.32,148.28L56.67,139.43L57.22,139.16L64.3,135.89L64.85,135.84L73.02,134.85L73.56,134.77L78.47,134.72L79.01,134.78L96.45,137.48L97,137.84L103.54,141.54L104.08,142.09L113.34,149.66L113.89,150.14L116.07,152.59L116.61,153.2L123.7,160.87L124.24,161.65L129.69,169.39L130.24,170.53L132.96,175.33L133.51,175.9L136.78,178.01L137.32,178.1L138.96,178.16" style="vector-effect: non-scaling-stroke; fill: none; stroke: rgb(0, 204, 150); stroke-opacity: 1; stroke-width: 2px; opacity: 1;"/></g><g class="points"/><g class="text"/></g></g></g><g class="overplot"/><path class="xlines-above crisp" d="M0,0" style="fill: none;"/><path class="ylines-above crisp" d="M0,0" style="fill: none;"/><g class="overlines-above"/><g class="xaxislayer-above"><g class="x3tick"><text text-anchor="middle" x="0" y="291.5" transform="translate(422.0444444444445,0)" style="font-family: 'Open Sans', verdana, arial, sans-serif; font-size: 12px; fill: rgb(42, 63, 95); fill-opacity: 1; white-space: pre; opacity: 1;">0</text></g><g class="x3tick"><text text-anchor="middle" x="0" y="291.5" style="font-family: 'Open Sans', verdana, arial, sans-serif; font-size: 12px; fill: rgb(42, 63, 95); fill-opacity: 1; white-space: pre; opacity: 1;" transform="translate(476.75444444444446,0)">100</text></g><g class="x3tick"><text text-anchor="middle" x="0" y="291.5" style="font-family: 'Open Sans', verdana, arial, sans-serif; font-size: 12px; fill: rgb(42, 63, 95); fill-opacity: 1; white-space: pre; opacity: 1;" transform="translate(531.4544444444444,0)">200</text></g></g><g class="yaxislayer-above"><g class="y3tick"><text text-anchor="end" x="421.0444444444445" y="4.199999999999999" transform="translate(0,278.5)" style="font-family: 'Open Sans', verdana, arial, sans-serif; font-size: 12px; fill: rgb(42, 63, 95); fill-opacity: 1; white-space: pre; opacity: 1;">0</text></g><g class="y3tick"><text text-anchor="end" x="421.0444444444445" y="4.199999999999999" style="font-family: 'Open Sans', verdana, arial, sans-serif; font-size: 12px; fill: rgb(42, 63, 95); fill-opacity: 1; white-space: pre; opacity: 1;" transform="translate(0,210.29000000000002)">5M</text></g><g class="y3tick"><text text-anchor="end" x="421.0444444444445" y="4.199999999999999" style="font-family: 'Open Sans', verdana, arial, sans-serif; font-size: 12px; fill: rgb(42, 63, 95); fill-opacity: 1; white-space: pre; opacity: 1;" transform="translate(0,142.07999999999998)">10M</text></g></g><g class="overaxes-above"/></g><g class="subplot x4y4"><g class="layer-subplot"><g class="shapelayer"/><g class="imagelayer"/></g><g class="gridlayer"><g class="x4"><path class="x4grid crisp" transform="translate(134.71,0)" d="M0,341.5v178.5" style="stroke: rgb(255, 255, 255); stroke-opacity: 1; stroke-width: 1px;"/><path class="x4grid crisp" transform="translate(189.41,0)" d="M0,341.5v178.5" style="stroke: rgb(255, 255, 255); stroke-opacity: 1; stroke-width: 1px;"/></g><g class="y4"><path class="y4grid crisp" transform="translate(0,461.27)" d="M80,0h138.95555555555558" style="stroke: rgb(255, 255, 255); stroke-opacity: 1; stroke-width: 1px;"/><path class="y4grid crisp" transform="translate(0,402.53)" d="M80,0h138.95555555555558" style="stroke: rgb(255, 255, 255); stroke-opacity: 1; stroke-width: 1px;"/><path class="y4grid crisp" transform="translate(0,343.8)" d="M80,0h138.95555555555558" style="stroke: rgb(255, 255, 255); stroke-opacity: 1; stroke-width: 1px;"/></g></g><g class="zerolinelayer"><path class="x4zl zl crisp" transform="translate(80,0)" d="M0,341.5v178.5" style="stroke: rgb(255, 255, 255); stroke-opacity: 1; stroke-width: 2px;"/><path class="y4zl zl crisp" transform="translate(0,520)" d="M80,0h138.95555555555558" style="stroke: rgb(255, 255, 255); stroke-opacity: 1; stroke-width: 2px;"/></g><path class="xlines-below"/><path class="ylines-below"/><g class="overlines-below"/><g class="xaxislayer-below"/><g class="yaxislayer-below"/><g class="overaxes-below"/><g class="plot" transform="translate(80,341.5)" clip-path="url(#clipffb1d0x4y4plot)"><g class="scatterlayer mlayer"><g class="trace scatter tracecb8beb" style="stroke-miterlimit: 2;"><g class="fills"><g><path class="js-fill" d="M138.96,178.5L0,178.5L0,8.92L1.09,150.58L1.63,152.41L4.36,162.1L4.9,163.62L7.63,167.62L8.17,168.1L11.99,170.06L12.53,170.24L19.62,169.85L20.16,169.68L24.52,168.16L25.07,167.86L35.42,162.7L35.96,162.39L62.12,146.56L62.67,146.36L80.65,142.5L81.19,142.48L95.91,141.61L96.45,141.78L100.81,143.71L101.36,143.98L106.81,147.75L107.35,148.21L119.88,161.78L120.43,162.24L131.87,172.85L132.42,173.19L136.23,174.39L136.78,174.13L137.87,174.27L138.41,174.85L138.96,172.11" style="fill: rgb(171, 99, 250); fill-opacity: 0.5; stroke-width: 0;"/></g></g><g class="errorbars"/><g class="lines"><path class="js-line" d="M0,8.92L1.09,150.58L1.63,152.41L4.36,162.1L4.9,163.62L7.63,167.62L8.17,168.1L11.99,170.06L12.53,170.24L19.62,169.85L20.16,169.68L24.52,168.16L25.07,167.86L35.42,162.7L35.96,162.39L62.12,146.56L62.67,146.36L80.65,142.5L81.19,142.48L95.91,141.61L96.45,141.78L100.81,143.71L101.36,143.98L106.81,147.75L107.35,148.21L119.88,161.78L120.43,162.24L131.87,172.85L132.42,173.19L136.23,174.39L136.78,174.13L137.87,174.27L138.41,174.85L138.96,172.11" style="vector-effect: non-scaling-stroke; fill: none; stroke: rgb(171, 99, 250); stroke-opacity: 1; stroke-width: 2px; opacity: 1;"/></g><g class="points"/><g class="text"/></g></g></g><g class="overplot"/><path class="xlines-above crisp" d="M0,0" style="fill: none;"/><path class="ylines-above crisp" d="M0,0" style="fill: none;"/><g class="overlines-above"/><g class="xaxislayer-above"><g class="x4tick"><text text-anchor="middle" x="0" y="533" transform="translate(80,0)" style="font-family: 'Open Sans', verdana, arial, sans-serif; font-size: 12px; fill: rgb(42, 63, 95); fill-opacity: 1; white-space: pre; opacity: 1;">0</text></g><g class="x4tick"><text text-anchor="middle" x="0" y="533" style="font-family: 'Open Sans', verdana, arial, sans-serif; font-size: 12px; fill: rgb(42, 63, 95); fill-opacity: 1; white-space: pre; opacity: 1;" transform="translate(134.71,0)">100</text></g><g class="x4tick"><text text-anchor="middle" x="0" y="533" style="font-family: 'Open Sans', verdana, arial, sans-serif; font-size: 12px; fill: rgb(42, 63, 95); fill-opacity: 1; white-space: pre; opacity: 1;" transform="translate(189.41,0)">200</text></g></g><g class="yaxislayer-above"><g class="y4tick"><text text-anchor="end" x="79" y="4.199999999999999" transform="translate(0,520)" style="font-family: 'Open Sans', verdana, arial, sans-serif; font-size: 12px; fill: rgb(42, 63, 95); fill-opacity: 1; white-space: pre; opacity: 1;">0</text></g><g class="y4tick"><text text-anchor="end" x="79" y="4.199999999999999" style="font-family: 'Open Sans', verdana, arial, sans-serif; font-size: 12px; fill: rgb(42, 63, 95); fill-opacity: 1; white-space: pre; opacity: 1;" transform="translate(0,461.27)">10M</text></g><g class="y4tick"><text text-anchor="end" x="79" y="4.199999999999999" style="font-family: 'Open Sans', verdana, arial, sans-serif; font-size: 12px; fill: rgb(42, 63, 95); fill-opacity: 1; white-space: pre; opacity: 1;" transform="translate(0,402.53)">20M</text></g><g class="y4tick"><text text-anchor="end" x="79" y="4.199999999999999" style="font-family: 'Open Sans', verdana, arial, sans-serif; font-size: 12px; fill: rgb(42, 63, 95); fill-opacity: 1; white-space: pre; opacity: 1;" transform="translate(0,343.8)">30M</text></g></g><g class="overaxes-above"/></g></g><g class="polarlayer"/><g class="smithlayer"/><g class="ternarylayer"/><g class="geolayer"/><g class="funnelarealayer"/><g class="pielayer"/><g class="iciclelayer"/><g class="treemaplayer"/><g class="sunburstlayer"/><g class="glimages"/><defs id="topdefs-ffb1d0"><g class="clips"/><clipPath id="legendffb1d0"><rect width="217" height="86" x="0" y="0"/></clipPath></defs><g class="layer-above"><g class="imagelayer"/><g class="shapelayer"/></g><g class="infolayer"><g class="legend" pointer-events="all" transform="translate(570.62,100)"><rect class="bg" shape-rendering="crispEdges" style="stroke: rgb(68, 68, 68); stroke-opacity: 1; fill: rgb(255, 255, 255); fill-opacity: 1; stroke-width: 0px;" width="217" height="86" x="0" y="0"/><g class="scrollbox" transform="" clip-path="url(#legendffb1d0)"><g class="groups"><g class="traces" transform="translate(0,14.5)" style="opacity: 1;"><text class="legendtext" text-anchor="start" x="40" y="4.680000000000001" style="font-family: 'Open Sans', verdana, arial, sans-serif; font-size: 12px; fill: rgb(42, 63, 95); fill-opacity: 1; white-space: pre;">site-4 (1345 of 1345 images)</text><g class="layers"><g class="legendfill"><path class="js-fill" d="M5,-2h30v6h-30z" style="stroke-width: 0; fill: rgb(99, 110, 250); fill-opacity: 0.5;"/></g><g class="legendlines"><path class="js-line" d="M5,-2h30" style="fill: none; stroke: rgb(99, 110, 250); stroke-opacity: 1; stroke-width: 2px;"/></g><g class="legendsymbols"><g class="legendpoints"/></g></g><rect class="legendtoggle" x="0" y="-9.5" width="211.453125" height="19" style="fill: rgb(0, 0, 0); fill-opacity: 0;"/></g><g class="traces" transform="translate(0,33.5)" style="opacity: 1;"><text class="legendtext" text-anchor="start" x="40" y="4.680000000000001" style="font-family: 'Open Sans', verdana, arial, sans-serif; font-size: 12px; fill: rgb(42, 63, 95); fill-opacity: 1; white-space: pre;">site-1 (3616 of 3616 images)</text><g class="layers"><g class="legendfill"><path class="js-fill" d="M5,-2h30v6h-30z" style="stroke-width: 0; fill: rgb(239, 85, 59); fill-opacity: 0.5;"/></g><g class="legendlines"><path class="js-line" d="M5,-2h30" style="fill: none; stroke: rgb(239, 85, 59); stroke-opacity: 1; stroke-width: 2px;"/></g><g class="legendsymbols"><g class="legendpoints"/></g></g><rect class="legendtoggle" x="0" y="-9.5" width="211.453125" height="19" style="fill: rgb(0, 0, 0); fill-opacity: 0;"/></g><g class="traces" transform="translate(0,52.5)" style="opacity: 1;"><text class="legendtext" text-anchor="start" x="40" y="4.680000000000001" style="font-family: 'Open Sans', verdana, arial, sans-serif; font-size: 12px; fill: rgb(42, 63, 95); fill-opacity: 1; white-space: pre;">site-2 (6012 of 6012 images)</text><g class="layers"><g class="legendfill"><path class="js-fill" d="M5,-2h30v6h-30z" style="stroke-width: 0; fill: rgb(0, 204, 150); fill-opacity: 0.5;"/></g><g class="legendlines"><path class="js-line" d="M5,-2h30" style="fill: none; stroke: rgb(0, 204, 150); stroke-opacity: 1; stroke-width: 2px;"/></g><g class="legendsymbols"><g class="legendpoints"/></g></g><rect class="legendtoggle" x="0" y="-9.5" width="211.453125" height="19" style="fill: rgb(0, 0, 0); fill-opacity: 0;"/></g><g class="traces" transform="translate(0,71.5)" style="opacity: 1;"><text class="legendtext" text-anchor="start" x="40" y="4.680000000000001" style="font-family: 'Open Sans', verdana, arial, sans-serif; font-size: 12px; fill: rgb(42, 63, 95); fill-opacity: 1; white-space: pre;">Global (10973 of 10973 images)</text><g class="layers"><g class="legendfill"><path class="js-fill" d="M5,-2h30v6h-30z" style="stroke-width: 0; fill: rgb(171, 99, 250); fill-opacity: 0.5;"/></g><g class="legendlines"><path class="js-line" d="M5,-2h30" style="fill: none; stroke: rgb(171, 99, 250); stroke-opacity: 1; stroke-width: 2px;"/></g><g class="legendsymbols"><g class="legendpoints"/></g></g><rect class="legendtoggle" x="0" y="-9.5" width="211.453125" height="19" style="fill: rgb(0, 0, 0); fill-opacity: 0;"/></g></g></g><rect class="scrollbar" rx="20" ry="3" width="0" height="0" style="fill: rgb(128, 139, 164); fill-opacity: 1;" x="0" y="0"/></g><g class="g-gtitle"><text class="gtitle" x="40" y="50" text-anchor="start" dy="0em" style="font-family: 'Open Sans', verdana, arial, sans-serif; font-size: 17px; fill: rgb(42, 63, 95); opacity: 1; font-weight: normal; white-space: pre;">Histograms for 3 of 3 clients</text></g><g class="g-xtitle"><text class="xtitle" x="149.4777777777778" y="319.3" text-anchor="middle" style="font-family: 'Open Sans', verdana, arial, sans-serif; font-size: 14px; fill: rgb(42, 63, 95); opacity: 1; font-weight: normal; white-space: pre;">Image Intensity</text></g><g class="g-x2title"/><g class="g-x3title"/><g class="g-x4title"/><g class="g-ytitle"><text class="ytitle" transform="rotate(-90,37.528125,189.25)" x="37.528125" y="189.25" text-anchor="middle" style="font-family: 'Open Sans', verdana, arial, sans-serif; font-size: 14px; fill: rgb(42, 63, 95); opacity: 1; font-weight: normal; white-space: pre;">Count</text></g><g class="g-y2title"/><g class="g-y3title"/><g class="g-y4title"/></g></svg>