<?xml version="1.0" encoding="utf-8" standalone="no"?>
<!DOCTYPE svg PUBLIC "-//W3C//DTD SVG 1.1//EN"
  "http://www.w3.org/Graphics/SVG/1.1/DTD/svg11.dtd">
<svg xmlns:xlink="http://www.w3.org/1999/xlink" width="1152pt" height="864pt" viewBox="0 0 1152 864" xmlns="http://www.w3.org/2000/svg" version="1.1">
 <metadata>
  <rdf:RDF xmlns:dc="http://purl.org/dc/elements/1.1/" xmlns:cc="http://creativecommons.org/ns#" xmlns:rdf="http://www.w3.org/1999/02/22-rdf-syntax-ns#">
   <cc:Work>
    <dc:type rdf:resource="http://purl.org/dc/dcmitype/StillImage"/>
    <dc:date>2025-04-25T14:41:05.182559</dc:date>
    <dc:format>image/svg+xml</dc:format>
    <dc:creator>
     <cc:Agent>
      <dc:title>Matplotlib v3.8.2, https://matplotlib.org/</dc:title>
     </cc:Agent>
    </dc:creator>
   </cc:Work>
  </rdf:RDF>
 </metadata>
 <defs>
  <style type="text/css">*{stroke-linejoin: round; stroke-linecap: butt}</style>
 </defs>
 <g id="figure_1">
  <g id="patch_1">
   <path d="M 0 864 
L 1152 864 
L 1152 0 
L 0 0 
z
" style="fill: #ffffff"/>
  </g>
  <g id="axes_1">
   <g id="patch_2">
    <path d="M 144 768.96 
L 1036.8 768.96 
L 1036.8 103.68 
L 144 103.68 
z
" style="fill: #ffffff"/>
   </g>
   <g id="PolyCollection_1"/>
   <g id="PolyCollection_2"/>
   <g id="PolyCollection_3"/>
   <g id="matplotlib.axis_1">
    <g id="xtick_1">
     <g id="line2d_1">
      <path d="M 183.226833 768.96 
L 183.226833 103.68 
" clip-path="url(#pe51a095136)" style="fill: none; stroke: #b0b0b0; stroke-width: 0.8; stroke-linecap: square"/>
     </g>
     <g id="line2d_2">
      <defs>
       <path id="ma6c249c941" d="M 0 0 
L 0 3.5 
" style="stroke: #000000; stroke-width: 0.8"/>
      </defs>
      <g>
       <use xlink:href="#ma6c249c941" x="183.226833" y="768.96" style="stroke: #000000; stroke-width: 0.8"/>
      </g>
     </g>
     <g id="text_1">
      <!-- 0 -->
      <g transform="translate(173.683083 798.755312) scale(0.3 -0.3)">
       <defs>
        <path id="DejaVuSans-30" d="M 2034 4250 
Q 1547 4250 1301 3770 
Q 1056 3291 1056 2328 
Q 1056 1369 1301 889 
Q 1547 409 2034 409 
Q 2525 409 2770 889 
Q 3016 1369 3016 2328 
Q 3016 3291 2770 3770 
Q 2525 4250 2034 4250 
z
M 2034 4750 
Q 2819 4750 3233 4129 
Q 3647 3509 3647 2328 
Q 3647 1150 3233 529 
Q 2819 -91 2034 -91 
Q 1250 -91 836 529 
Q 422 1150 422 2328 
Q 422 3509 836 4129 
Q 1250 4750 2034 4750 
z
" transform="scale(0.015625)"/>
       </defs>
       <use xlink:href="#DejaVuSans-30"/>
      </g>
     </g>
    </g>
    <g id="xtick_2">
     <g id="line2d_3">
      <path d="M 333.780786 768.96 
L 333.780786 103.68 
" clip-path="url(#pe51a095136)" style="fill: none; stroke: #b0b0b0; stroke-width: 0.8; stroke-linecap: square"/>
     </g>
     <g id="line2d_4">
      <g>
       <use xlink:href="#ma6c249c941" x="333.780786" y="768.96" style="stroke: #000000; stroke-width: 0.8"/>
      </g>
     </g>
     <g id="text_2">
      <!-- 1000 -->
      <g transform="translate(295.605786 798.755312) scale(0.3 -0.3)">
       <defs>
        <path id="DejaVuSans-31" d="M 794 531 
L 1825 531 
L 1825 4091 
L 703 3866 
L 703 4441 
L 1819 4666 
L 2450 4666 
L 2450 531 
L 3481 531 
L 3481 0 
L 794 0 
L 794 531 
z
" transform="scale(0.015625)"/>
       </defs>
       <use xlink:href="#DejaVuSans-31"/>
       <use xlink:href="#DejaVuSans-30" x="63.623047"/>
       <use xlink:href="#DejaVuSans-30" x="127.246094"/>
       <use xlink:href="#DejaVuSans-30" x="190.869141"/>
      </g>
     </g>
    </g>
    <g id="xtick_3">
     <g id="line2d_5">
      <path d="M 484.33474 768.96 
L 484.33474 103.68 
" clip-path="url(#pe51a095136)" style="fill: none; stroke: #b0b0b0; stroke-width: 0.8; stroke-linecap: square"/>
     </g>
     <g id="line2d_6">
      <g>
       <use xlink:href="#ma6c249c941" x="484.33474" y="768.96" style="stroke: #000000; stroke-width: 0.8"/>
      </g>
     </g>
     <g id="text_3">
      <!-- 2000 -->
      <g transform="translate(446.15974 798.755312) scale(0.3 -0.3)">
       <defs>
        <path id="DejaVuSans-32" d="M 1228 531 
L 3431 531 
L 3431 0 
L 469 0 
L 469 531 
Q 828 903 1448 1529 
Q 2069 2156 2228 2338 
Q 2531 2678 2651 2914 
Q 2772 3150 2772 3378 
Q 2772 3750 2511 3984 
Q 2250 4219 1831 4219 
Q 1534 4219 1204 4116 
Q 875 4013 500 3803 
L 500 4441 
Q 881 4594 1212 4672 
Q 1544 4750 1819 4750 
Q 2544 4750 2975 4387 
Q 3406 4025 3406 3419 
Q 3406 3131 3298 2873 
Q 3191 2616 2906 2266 
Q 2828 2175 2409 1742 
Q 1991 1309 1228 531 
z
" transform="scale(0.015625)"/>
       </defs>
       <use xlink:href="#DejaVuSans-32"/>
       <use xlink:href="#DejaVuSans-30" x="63.623047"/>
       <use xlink:href="#DejaVuSans-30" x="127.246094"/>
       <use xlink:href="#DejaVuSans-30" x="190.869141"/>
      </g>
     </g>
    </g>
    <g id="xtick_4">
     <g id="line2d_7">
      <path d="M 634.888693 768.96 
L 634.888693 103.68 
" clip-path="url(#pe51a095136)" style="fill: none; stroke: #b0b0b0; stroke-width: 0.8; stroke-linecap: square"/>
     </g>
     <g id="line2d_8">
      <g>
       <use xlink:href="#ma6c249c941" x="634.888693" y="768.96" style="stroke: #000000; stroke-width: 0.8"/>
      </g>
     </g>
     <g id="text_4">
      <!-- 3000 -->
      <g transform="translate(596.713693 798.755312) scale(0.3 -0.3)">
       <defs>
        <path id="DejaVuSans-33" d="M 2597 2516 
Q 3050 2419 3304 2112 
Q 3559 1806 3559 1356 
Q 3559 666 3084 287 
Q 2609 -91 1734 -91 
Q 1441 -91 1130 -33 
Q 819 25 488 141 
L 488 750 
Q 750 597 1062 519 
Q 1375 441 1716 441 
Q 2309 441 2620 675 
Q 2931 909 2931 1356 
Q 2931 1769 2642 2001 
Q 2353 2234 1838 2234 
L 1294 2234 
L 1294 2753 
L 1863 2753 
Q 2328 2753 2575 2939 
Q 2822 3125 2822 3475 
Q 2822 3834 2567 4026 
Q 2313 4219 1838 4219 
Q 1578 4219 1281 4162 
Q 984 4106 628 3988 
L 628 4550 
Q 988 4650 1302 4700 
Q 1616 4750 1894 4750 
Q 2613 4750 3031 4423 
Q 3450 4097 3450 3541 
Q 3450 3153 3228 2886 
Q 3006 2619 2597 2516 
z
" transform="scale(0.015625)"/>
       </defs>
       <use xlink:href="#DejaVuSans-33"/>
       <use xlink:href="#DejaVuSans-30" x="63.623047"/>
       <use xlink:href="#DejaVuSans-30" x="127.246094"/>
       <use xlink:href="#DejaVuSans-30" x="190.869141"/>
      </g>
     </g>
    </g>
    <g id="xtick_5">
     <g id="line2d_9">
      <path d="M 785.442647 768.96 
L 785.442647 103.68 
" clip-path="url(#pe51a095136)" style="fill: none; stroke: #b0b0b0; stroke-width: 0.8; stroke-linecap: square"/>
     </g>
     <g id="line2d_10">
      <g>
       <use xlink:href="#ma6c249c941" x="785.442647" y="768.96" style="stroke: #000000; stroke-width: 0.8"/>
      </g>
     </g>
     <g id="text_5">
      <!-- 4000 -->
      <g transform="translate(747.267647 798.755312) scale(0.3 -0.3)">
       <defs>
        <path id="DejaVuSans-34" d="M 2419 4116 
L 825 1625 
L 2419 1625 
L 2419 4116 
z
M 2253 4666 
L 3047 4666 
L 3047 1625 
L 3713 1625 
L 3713 1100 
L 3047 1100 
L 3047 0 
L 2419 0 
L 2419 1100 
L 313 1100 
L 313 1709 
L 2253 4666 
z
" transform="scale(0.015625)"/>
       </defs>
       <use xlink:href="#DejaVuSans-34"/>
       <use xlink:href="#DejaVuSans-30" x="63.623047"/>
       <use xlink:href="#DejaVuSans-30" x="127.246094"/>
       <use xlink:href="#DejaVuSans-30" x="190.869141"/>
      </g>
     </g>
    </g>
    <g id="xtick_6">
     <g id="line2d_11">
      <path d="M 935.9966 768.96 
L 935.9966 103.68 
" clip-path="url(#pe51a095136)" style="fill: none; stroke: #b0b0b0; stroke-width: 0.8; stroke-linecap: square"/>
     </g>
     <g id="line2d_12">
      <g>
       <use xlink:href="#ma6c249c941" x="935.9966" y="768.96" style="stroke: #000000; stroke-width: 0.8"/>
      </g>
     </g>
     <g id="text_6">
      <!-- 5000 -->
      <g transform="translate(897.8216 798.755312) scale(0.3 -0.3)">
       <defs>
        <path id="DejaVuSans-35" d="M 691 4666 
L 3169 4666 
L 3169 4134 
L 1269 4134 
L 1269 2991 
Q 1406 3038 1543 3061 
Q 1681 3084 1819 3084 
Q 2600 3084 3056 2656 
Q 3513 2228 3513 1497 
Q 3513 744 3044 326 
Q 2575 -91 1722 -91 
Q 1428 -91 1123 -41 
Q 819 9 494 109 
L 494 744 
Q 775 591 1075 516 
Q 1375 441 1709 441 
Q 2250 441 2565 725 
Q 2881 1009 2881 1497 
Q 2881 1984 2565 2268 
Q 2250 2553 1709 2553 
Q 1456 2553 1204 2497 
Q 953 2441 691 2322 
L 691 4666 
z
" transform="scale(0.015625)"/>
       </defs>
       <use xlink:href="#DejaVuSans-35"/>
       <use xlink:href="#DejaVuSans-30" x="63.623047"/>
       <use xlink:href="#DejaVuSans-30" x="127.246094"/>
       <use xlink:href="#DejaVuSans-30" x="190.869141"/>
      </g>
     </g>
    </g>
    <g id="text_7">
     <!-- Steps -->
     <g transform="translate(534.440625 839.388125) scale(0.4 -0.4)">
      <defs>
       <path id="DejaVuSans-53" d="M 3425 4513 
L 3425 3897 
Q 3066 4069 2747 4153 
Q 2428 4238 2131 4238 
Q 1616 4238 1336 4038 
Q 1056 3838 1056 3469 
Q 1056 3159 1242 3001 
Q 1428 2844 1947 2747 
L 2328 2669 
Q 3034 2534 3370 2195 
Q 3706 1856 3706 1288 
Q 3706 609 3251 259 
Q 2797 -91 1919 -91 
Q 1588 -91 1214 -16 
Q 841 59 441 206 
L 441 856 
Q 825 641 1194 531 
Q 1563 422 1919 422 
Q 2459 422 2753 634 
Q 3047 847 3047 1241 
Q 3047 1584 2836 1778 
Q 2625 1972 2144 2069 
L 1759 2144 
Q 1053 2284 737 2584 
Q 422 2884 422 3419 
Q 422 4038 858 4394 
Q 1294 4750 2059 4750 
Q 2388 4750 2728 4690 
Q 3069 4631 3425 4513 
z
" transform="scale(0.015625)"/>
       <path id="DejaVuSans-74" d="M 1172 4494 
L 1172 3500 
L 2356 3500 
L 2356 3053 
L 1172 3053 
L 1172 1153 
Q 1172 725 1289 603 
Q 1406 481 1766 481 
L 2356 481 
L 2356 0 
L 1766 0 
Q 1100 0 847 248 
Q 594 497 594 1153 
L 594 3053 
L 172 3053 
L 172 3500 
L 594 3500 
L 594 4494 
L 1172 4494 
z
" transform="scale(0.015625)"/>
       <path id="DejaVuSans-65" d="M 3597 1894 
L 3597 1613 
L 953 1613 
Q 991 1019 1311 708 
Q 1631 397 2203 397 
Q 2534 397 2845 478 
Q 3156 559 3463 722 
L 3463 178 
Q 3153 47 2828 -22 
Q 2503 -91 2169 -91 
Q 1331 -91 842 396 
Q 353 884 353 1716 
Q 353 2575 817 3079 
Q 1281 3584 2069 3584 
Q 2775 3584 3186 3129 
Q 3597 2675 3597 1894 
z
M 3022 2063 
Q 3016 2534 2758 2815 
Q 2500 3097 2075 3097 
Q 1594 3097 1305 2825 
Q 1016 2553 972 2059 
L 3022 2063 
z
" transform="scale(0.015625)"/>
       <path id="DejaVuSans-70" d="M 1159 525 
L 1159 -1331 
L 581 -1331 
L 581 3500 
L 1159 3500 
L 1159 2969 
Q 1341 3281 1617 3432 
Q 1894 3584 2278 3584 
Q 2916 3584 3314 3078 
Q 3713 2572 3713 1747 
Q 3713 922 3314 415 
Q 2916 -91 2278 -91 
Q 1894 -91 1617 61 
Q 1341 213 1159 525 
z
M 3116 1747 
Q 3116 2381 2855 2742 
Q 2594 3103 2138 3103 
Q 1681 3103 1420 2742 
Q 1159 2381 1159 1747 
Q 1159 1113 1420 752 
Q 1681 391 2138 391 
Q 2594 391 2855 752 
Q 3116 1113 3116 1747 
z
" transform="scale(0.015625)"/>
       <path id="DejaVuSans-73" d="M 2834 3397 
L 2834 2853 
Q 2591 2978 2328 3040 
Q 2066 3103 1784 3103 
Q 1356 3103 1142 2972 
Q 928 2841 928 2578 
Q 928 2378 1081 2264 
Q 1234 2150 1697 2047 
L 1894 2003 
Q 2506 1872 2764 1633 
Q 3022 1394 3022 966 
Q 3022 478 2636 193 
Q 2250 -91 1575 -91 
Q 1294 -91 989 -36 
Q 684 19 347 128 
L 347 722 
Q 666 556 975 473 
Q 1284 391 1588 391 
Q 1994 391 2212 530 
Q 2431 669 2431 922 
Q 2431 1156 2273 1281 
Q 2116 1406 1581 1522 
L 1381 1569 
Q 847 1681 609 1914 
Q 372 2147 372 2553 
Q 372 3047 722 3315 
Q 1072 3584 1716 3584 
Q 2034 3584 2315 3537 
Q 2597 3491 2834 3397 
z
" transform="scale(0.015625)"/>
      </defs>
      <use xlink:href="#DejaVuSans-53"/>
      <use xlink:href="#DejaVuSans-74" x="63.476562"/>
      <use xlink:href="#DejaVuSans-65" x="102.685547"/>
      <use xlink:href="#DejaVuSans-70" x="164.208984"/>
      <use xlink:href="#DejaVuSans-73" x="227.685547"/>
     </g>
    </g>
   </g>
   <g id="matplotlib.axis_2">
    <g id="ytick_1">
     <g id="line2d_13">
      <path d="M 144 666.564852 
L 1036.8 666.564852 
" clip-path="url(#pe51a095136)" style="fill: none; stroke: #b0b0b0; stroke-width: 0.8; stroke-linecap: square"/>
     </g>
     <g id="line2d_14">
      <defs>
       <path id="md905d4d3eb" d="M 0 0 
L -3.5 0 
" style="stroke: #000000; stroke-width: 0.8"/>
      </defs>
      <g>
       <use xlink:href="#md905d4d3eb" x="144" y="666.564852" style="stroke: #000000; stroke-width: 0.8"/>
      </g>
     </g>
     <g id="text_8">
      <!-- −0.4 -->
      <g transform="translate(64.151562 677.962508) scale(0.3 -0.3)">
       <defs>
        <path id="DejaVuSans-2212" d="M 678 2272 
L 4684 2272 
L 4684 1741 
L 678 1741 
L 678 2272 
z
" transform="scale(0.015625)"/>
        <path id="DejaVuSans-2e" d="M 684 794 
L 1344 794 
L 1344 0 
L 684 0 
L 684 794 
z
" transform="scale(0.015625)"/>
       </defs>
       <use xlink:href="#DejaVuSans-2212"/>
       <use xlink:href="#DejaVuSans-30" x="83.789062"/>
       <use xlink:href="#DejaVuSans-2e" x="147.412109"/>
       <use xlink:href="#DejaVuSans-34" x="179.199219"/>
      </g>
     </g>
    </g>
    <g id="ytick_2">
     <g id="line2d_15">
      <path d="M 144 558.409458 
L 1036.8 558.409458 
" clip-path="url(#pe51a095136)" style="fill: none; stroke: #b0b0b0; stroke-width: 0.8; stroke-linecap: square"/>
     </g>
     <g id="line2d_16">
      <g>
       <use xlink:href="#md905d4d3eb" x="144" y="558.409458" style="stroke: #000000; stroke-width: 0.8"/>
      </g>
     </g>
     <g id="text_9">
      <!-- −0.2 -->
      <g transform="translate(64.151562 569.807114) scale(0.3 -0.3)">
       <use xlink:href="#DejaVuSans-2212"/>
       <use xlink:href="#DejaVuSans-30" x="83.789062"/>
       <use xlink:href="#DejaVuSans-2e" x="147.412109"/>
       <use xlink:href="#DejaVuSans-32" x="179.199219"/>
      </g>
     </g>
    </g>
    <g id="ytick_3">
     <g id="line2d_17">
      <path d="M 144 450.254063 
L 1036.8 450.254063 
" clip-path="url(#pe51a095136)" style="fill: none; stroke: #b0b0b0; stroke-width: 0.8; stroke-linecap: square"/>
     </g>
     <g id="line2d_18">
      <g>
       <use xlink:href="#md905d4d3eb" x="144" y="450.254063" style="stroke: #000000; stroke-width: 0.8"/>
      </g>
     </g>
     <g id="text_10">
      <!-- 0.0 -->
      <g transform="translate(89.290625 461.65172) scale(0.3 -0.3)">
       <use xlink:href="#DejaVuSans-30"/>
       <use xlink:href="#DejaVuSans-2e" x="63.623047"/>
       <use xlink:href="#DejaVuSans-30" x="95.410156"/>
      </g>
     </g>
    </g>
    <g id="ytick_4">
     <g id="line2d_19">
      <path d="M 144 342.098669 
L 1036.8 342.098669 
" clip-path="url(#pe51a095136)" style="fill: none; stroke: #b0b0b0; stroke-width: 0.8; stroke-linecap: square"/>
     </g>
     <g id="line2d_20">
      <g>
       <use xlink:href="#md905d4d3eb" x="144" y="342.098669" style="stroke: #000000; stroke-width: 0.8"/>
      </g>
     </g>
     <g id="text_11">
      <!-- 0.2 -->
      <g transform="translate(89.290625 353.496326) scale(0.3 -0.3)">
       <use xlink:href="#DejaVuSans-30"/>
       <use xlink:href="#DejaVuSans-2e" x="63.623047"/>
       <use xlink:href="#DejaVuSans-32" x="95.410156"/>
      </g>
     </g>
    </g>
    <g id="ytick_5">
     <g id="line2d_21">
      <path d="M 144 233.943275 
L 1036.8 233.943275 
" clip-path="url(#pe51a095136)" style="fill: none; stroke: #b0b0b0; stroke-width: 0.8; stroke-linecap: square"/>
     </g>
     <g id="line2d_22">
      <g>
       <use xlink:href="#md905d4d3eb" x="144" y="233.943275" style="stroke: #000000; stroke-width: 0.8"/>
      </g>
     </g>
     <g id="text_12">
      <!-- 0.4 -->
      <g transform="translate(89.290625 245.340931) scale(0.3 -0.3)">
       <use xlink:href="#DejaVuSans-30"/>
       <use xlink:href="#DejaVuSans-2e" x="63.623047"/>
       <use xlink:href="#DejaVuSans-34" x="95.410156"/>
      </g>
     </g>
    </g>
    <g id="ytick_6">
     <g id="line2d_23">
      <path d="M 144 125.787881 
L 1036.8 125.787881 
" clip-path="url(#pe51a095136)" style="fill: none; stroke: #b0b0b0; stroke-width: 0.8; stroke-linecap: square"/>
     </g>
     <g id="line2d_24">
      <g>
       <use xlink:href="#md905d4d3eb" x="144" y="125.787881" style="stroke: #000000; stroke-width: 0.8"/>
      </g>
     </g>
     <g id="text_13">
      <!-- 0.6 -->
      <g transform="translate(89.290625 137.185537) scale(0.3 -0.3)">
       <defs>
        <path id="DejaVuSans-36" d="M 2113 2584 
Q 1688 2584 1439 2293 
Q 1191 2003 1191 1497 
Q 1191 994 1439 701 
Q 1688 409 2113 409 
Q 2538 409 2786 701 
Q 3034 994 3034 1497 
Q 3034 2003 2786 2293 
Q 2538 2584 2113 2584 
z
M 3366 4563 
L 3366 3988 
Q 3128 4100 2886 4159 
Q 2644 4219 2406 4219 
Q 1781 4219 1451 3797 
Q 1122 3375 1075 2522 
Q 1259 2794 1537 2939 
Q 1816 3084 2150 3084 
Q 2853 3084 3261 2657 
Q 3669 2231 3669 1497 
Q 3669 778 3244 343 
Q 2819 -91 2113 -91 
Q 1303 -91 875 529 
Q 447 1150 447 2328 
Q 447 3434 972 4092 
Q 1497 4750 2381 4750 
Q 2619 4750 2861 4703 
Q 3103 4656 3366 4563 
z
" transform="scale(0.015625)"/>
       </defs>
       <use xlink:href="#DejaVuSans-30"/>
       <use xlink:href="#DejaVuSans-2e" x="63.623047"/>
       <use xlink:href="#DejaVuSans-36" x="95.410156"/>
      </g>
     </g>
    </g>
    <g id="text_14">
     <!-- Pearson expression -->
     <g transform="translate(51.832812 630.00125) rotate(-90) scale(0.4 -0.4)">
      <defs>
       <path id="DejaVuSans-50" d="M 1259 4147 
L 1259 2394 
L 2053 2394 
Q 2494 2394 2734 2622 
Q 2975 2850 2975 3272 
Q 2975 3691 2734 3919 
Q 2494 4147 2053 4147 
L 1259 4147 
z
M 628 4666 
L 2053 4666 
Q 2838 4666 3239 4311 
Q 3641 3956 3641 3272 
Q 3641 2581 3239 2228 
Q 2838 1875 2053 1875 
L 1259 1875 
L 1259 0 
L 628 0 
L 628 4666 
z
" transform="scale(0.015625)"/>
       <path id="DejaVuSans-61" d="M 2194 1759 
Q 1497 1759 1228 1600 
Q 959 1441 959 1056 
Q 959 750 1161 570 
Q 1363 391 1709 391 
Q 2188 391 2477 730 
Q 2766 1069 2766 1631 
L 2766 1759 
L 2194 1759 
z
M 3341 1997 
L 3341 0 
L 2766 0 
L 2766 531 
Q 2569 213 2275 61 
Q 1981 -91 1556 -91 
Q 1019 -91 701 211 
Q 384 513 384 1019 
Q 384 1609 779 1909 
Q 1175 2209 1959 2209 
L 2766 2209 
L 2766 2266 
Q 2766 2663 2505 2880 
Q 2244 3097 1772 3097 
Q 1472 3097 1187 3025 
Q 903 2953 641 2809 
L 641 3341 
Q 956 3463 1253 3523 
Q 1550 3584 1831 3584 
Q 2591 3584 2966 3190 
Q 3341 2797 3341 1997 
z
" transform="scale(0.015625)"/>
       <path id="DejaVuSans-72" d="M 2631 2963 
Q 2534 3019 2420 3045 
Q 2306 3072 2169 3072 
Q 1681 3072 1420 2755 
Q 1159 2438 1159 1844 
L 1159 0 
L 581 0 
L 581 3500 
L 1159 3500 
L 1159 2956 
Q 1341 3275 1631 3429 
Q 1922 3584 2338 3584 
Q 2397 3584 2469 3576 
Q 2541 3569 2628 3553 
L 2631 2963 
z
" transform="scale(0.015625)"/>
       <path id="DejaVuSans-6f" d="M 1959 3097 
Q 1497 3097 1228 2736 
Q 959 2375 959 1747 
Q 959 1119 1226 758 
Q 1494 397 1959 397 
Q 2419 397 2687 759 
Q 2956 1122 2956 1747 
Q 2956 2369 2687 2733 
Q 2419 3097 1959 3097 
z
M 1959 3584 
Q 2709 3584 3137 3096 
Q 3566 2609 3566 1747 
Q 3566 888 3137 398 
Q 2709 -91 1959 -91 
Q 1206 -91 779 398 
Q 353 888 353 1747 
Q 353 2609 779 3096 
Q 1206 3584 1959 3584 
z
" transform="scale(0.015625)"/>
       <path id="DejaVuSans-6e" d="M 3513 2113 
L 3513 0 
L 2938 0 
L 2938 2094 
Q 2938 2591 2744 2837 
Q 2550 3084 2163 3084 
Q 1697 3084 1428 2787 
Q 1159 2491 1159 1978 
L 1159 0 
L 581 0 
L 581 3500 
L 1159 3500 
L 1159 2956 
Q 1366 3272 1645 3428 
Q 1925 3584 2291 3584 
Q 2894 3584 3203 3211 
Q 3513 2838 3513 2113 
z
" transform="scale(0.015625)"/>
       <path id="DejaVuSans-20" transform="scale(0.015625)"/>
       <path id="DejaVuSans-78" d="M 3513 3500 
L 2247 1797 
L 3578 0 
L 2900 0 
L 1881 1375 
L 863 0 
L 184 0 
L 1544 1831 
L 300 3500 
L 978 3500 
L 1906 2253 
L 2834 3500 
L 3513 3500 
z
" transform="scale(0.015625)"/>
       <path id="DejaVuSans-69" d="M 603 3500 
L 1178 3500 
L 1178 0 
L 603 0 
L 603 3500 
z
M 603 4863 
L 1178 4863 
L 1178 4134 
L 603 4134 
L 603 4863 
z
" transform="scale(0.015625)"/>
      </defs>
      <use xlink:href="#DejaVuSans-50"/>
      <use xlink:href="#DejaVuSans-65" x="56.677734"/>
      <use xlink:href="#DejaVuSans-61" x="118.201172"/>
      <use xlink:href="#DejaVuSans-72" x="179.480469"/>
      <use xlink:href="#DejaVuSans-73" x="220.59375"/>
      <use xlink:href="#DejaVuSans-6f" x="272.693359"/>
      <use xlink:href="#DejaVuSans-6e" x="333.875"/>
      <use xlink:href="#DejaVuSans-20" x="397.253906"/>
      <use xlink:href="#DejaVuSans-65" x="429.041016"/>
      <use xlink:href="#DejaVuSans-78" x="488.814453"/>
      <use xlink:href="#DejaVuSans-70" x="547.994141"/>
      <use xlink:href="#DejaVuSans-72" x="611.470703"/>
      <use xlink:href="#DejaVuSans-65" x="650.333984"/>
      <use xlink:href="#DejaVuSans-73" x="711.857422"/>
      <use xlink:href="#DejaVuSans-73" x="763.957031"/>
      <use xlink:href="#DejaVuSans-69" x="816.056641"/>
      <use xlink:href="#DejaVuSans-6f" x="843.839844"/>
      <use xlink:href="#DejaVuSans-6e" x="905.021484"/>
     </g>
    </g>
   </g>
   <g id="line2d_25">
    <path d="M 184.581818 321.03664 
L 185.936804 364.568716 
L 187.291789 402.587092 
L 188.646775 462.051671 
L 190.001761 416.663096 
L 191.356746 422.293485 
L 194.066717 380.992633 
L 195.421703 414.482008 
L 196.776688 435.919812 
L 198.131674 422.515338 
L 199.48666 406.139642 
L 200.841645 402.874203 
L 202.196631 404.975518 
L 203.551616 414.853738 
L 204.906602 430.887811 
L 206.261587 442.75821 
L 207.616573 453.153466 
L 208.971559 457.58211 
L 210.326544 461.187003 
L 211.68153 471.681015 
L 213.036515 480.687964 
L 215.746487 501.699962 
L 218.456458 520.41881 
L 221.166429 535.398585 
L 222.521414 542.17058 
L 223.8764 548.301144 
L 225.231386 562.279895 
L 226.586371 573.407365 
L 227.941357 582.210968 
L 229.296342 585.341365 
L 230.651328 602.121448 
L 232.006314 611.742516 
L 233.361299 627.132872 
L 234.716285 644.100294 
L 236.07127 646.105238 
L 237.426256 650.073771 
L 238.781241 665.377635 
L 240.136227 682.901513 
L 241.491213 695.535597 
L 242.846198 705.932335 
L 244.201184 712.189809 
L 245.556169 714.423481 
L 248.266141 721.487784 
L 250.976112 734.803157 
L 252.331097 736.5949 
L 253.686083 738.72 
L 255.041068 738.702489 
L 256.396054 738.271597 
L 257.75104 737.689431 
L 259.106025 736.822828 
L 260.461011 736.286296 
L 261.815996 735.295632 
L 264.525968 732.316672 
L 269.94591 725.879652 
L 274.010867 720.10169 
L 278.075823 713.599207 
L 283.495766 704.743506 
L 286.205737 700.634208 
L 290.270694 695.028302 
L 295.690636 688.030482 
L 299.755593 683.689448 
L 301.110578 682.56504 
L 302.465564 681.874708 
L 303.820549 681.566308 
L 305.175535 681.591645 
L 309.240492 680.315951 
L 310.595477 680.049106 
L 316.01542 679.850374 
L 322.790348 679.898357 
L 325.500319 679.948309 
L 328.21029 680.010889 
L 364.794901 680.006634 
L 996.218182 680.006634 
L 996.218182 680.006634 
" clip-path="url(#pe51a095136)" style="fill: none; stroke: #1f77b4; stroke-width: 4; stroke-linecap: square"/>
   </g>
   <g id="line2d_26">
    <path d="M 184.581818 485.859012 
L 185.936804 604.282456 
L 187.291789 595.908086 
L 188.646775 566.492089 
L 190.001761 508.654917 
L 192.711732 424.774151 
L 194.066717 394.818492 
L 195.421703 386.076776 
L 196.776688 378.798446 
L 198.131674 364.910435 
L 199.48666 356.536093 
L 200.841645 356.070307 
L 202.196631 357.821012 
L 203.551616 358.239804 
L 204.906602 360.694771 
L 206.261587 353.452825 
L 210.326544 333.899728 
L 213.036515 323.823841 
L 217.101472 312.850079 
L 219.811443 306.160842 
L 222.521414 299.807694 
L 223.8764 296.599622 
L 225.231386 287.096604 
L 226.586371 269.60899 
L 227.941357 256.99902 
L 229.296342 247.680228 
L 230.651328 245.10952 
L 232.006314 243.519212 
L 234.716285 244.362804 
L 237.426256 236.53646 
L 238.781241 235.519507 
L 240.136227 233.132956 
L 241.491213 227.935602 
L 242.846198 221.660541 
L 244.201184 216.011837 
L 245.556169 209.163876 
L 248.266141 206.357214 
L 252.331097 203.851372 
L 253.686083 202.86785 
L 256.396054 200.08953 
L 259.106025 198.063189 
L 261.815996 196.189417 
L 264.525968 195.47073 
L 267.235939 195.129578 
L 271.300895 194.600111 
L 274.010867 194.375415 
L 276.720838 194.277964 
L 279.430809 194.219841 
L 286.205737 194.517439 
L 295.690636 194.812807 
L 299.755593 194.98616 
L 322.790348 195.280956 
L 343.115131 195.288579 
L 996.218182 195.288579 
L 996.218182 195.288579 
" clip-path="url(#pe51a095136)" style="fill: none; stroke: #ff7f0e; stroke-width: 4; stroke-linecap: square"/>
   </g>
   <g id="line2d_27">
    <path d="M 184.581818 372.183903 
L 185.936804 524.568923 
L 187.291789 419.205333 
L 190.001761 450.526328 
L 191.356746 472.959462 
L 192.711732 482.451618 
L 194.066717 485.768564 
L 195.421703 486.07761 
L 196.776688 483.482908 
L 199.48666 471.863225 
L 200.841645 466.834908 
L 202.196631 462.291549 
L 203.551616 458.193918 
L 204.906602 454.517576 
L 206.261587 451.232091 
L 208.971559 445.577003 
L 210.326544 443.122055 
L 211.68153 440.902155 
L 214.391501 437.086738 
L 217.101472 433.899242 
L 219.811443 431.132176 
L 223.8764 427.220586 
L 225.231386 427.647501 
L 226.586371 417.713473 
L 227.941357 423.177567 
L 229.296342 419.257177 
L 230.651328 414.285157 
L 232.006314 406.654163 
L 233.361299 400.370056 
L 234.716285 394.950547 
L 236.07127 390.109729 
L 237.426256 386.078054 
L 241.491213 377.998724 
L 244.201184 372.416187 
L 246.911155 366.295121 
L 249.621126 359.434609 
L 252.331097 351.690695 
L 253.686083 347.251831 
L 256.396054 337.218694 
L 260.461011 320.936946 
L 261.815996 317.523722 
L 265.880953 344.411137 
L 267.235939 352.108861 
L 268.590924 358.303762 
L 269.94591 362.672191 
L 271.300895 364.611354 
L 272.655881 364.654432 
L 274.010867 363.986115 
L 275.365852 362.973812 
L 278.075823 361.264706 
L 279.430809 359.908581 
L 280.785795 357.823607 
L 282.14078 355.061836 
L 283.495766 351.741756 
L 288.915708 337.366514 
L 291.625679 330.801802 
L 292.980665 327.814905 
L 294.33565 325.367373 
L 295.690636 323.572511 
L 297.045621 321.48696 
L 298.400607 321.758837 
L 299.755593 323.023586 
L 301.110578 327.028762 
L 302.465564 334.231843 
L 303.820549 318.271969 
L 305.175535 303.82014 
L 306.530521 301.418097 
L 307.885506 295.204357 
L 309.240492 282.818398 
L 311.950463 265.966484 
L 313.305448 260.826749 
L 314.660434 264.30928 
L 316.01542 270.961317 
L 317.370405 280.856773 
L 318.725391 277.903711 
L 321.435362 303.930987 
L 324.145333 336.458188 
L 325.500319 341.471668 
L 326.855304 344.718159 
L 328.21029 342.862895 
L 329.565275 341.603418 
L 330.920261 340.951422 
L 332.275247 339.580737 
L 333.630232 338.045275 
L 334.985218 355.992752 
L 336.340203 369.318257 
L 337.695189 371.522805 
L 339.050175 372.898462 
L 340.40516 373.164304 
L 341.760146 381.25359 
L 343.115131 380.178387 
L 344.470117 392.365999 
L 345.825102 391.673508 
L 347.180088 379.200902 
L 348.535074 371.561535 
L 349.890059 378.673321 
L 351.245045 377.681597 
L 352.60003 379.792047 
L 353.955016 381.549364 
L 355.310002 375.249171 
L 356.664987 364.632666 
L 358.019973 355.836594 
L 359.374958 354.079996 
L 360.729944 349.278833 
L 362.084929 338.81559 
L 364.794901 302.570434 
L 366.149886 295.690474 
L 367.504872 290.638654 
L 368.859857 290.81491 
L 370.214843 290.442637 
L 371.569829 289.470462 
L 372.924814 289.302586 
L 374.2798 289.332442 
L 375.634785 269.736779 
L 376.989771 254.52455 
L 378.344756 250.97116 
L 381.054728 241.423681 
L 382.409713 226.261209 
L 383.764699 215.052931 
L 385.119684 201.34952 
L 386.47467 198.704854 
L 389.184641 194.623068 
L 390.539627 185.556884 
L 391.894612 182.819434 
L 393.249598 178.878414 
L 395.959569 169.711238 
L 397.314555 166.649038 
L 398.66954 158.610412 
L 400.024526 156.51275 
L 401.379511 141.389353 
L 402.734497 133.92 
L 404.089482 140.914151 
L 405.444468 145.468357 
L 406.799454 153.914123 
L 408.154439 172.936502 
L 409.509425 189.252292 
L 410.86441 203.680342 
L 412.219396 211.031001 
L 416.284353 235.449445 
L 417.639338 243.862805 
L 420.349309 263.083616 
L 423.059281 280.701638 
L 425.769252 308.632666 
L 440.674093 465.491789 
L 443.384064 492.101245 
L 444.73905 495.93301 
L 446.094036 503.364147 
L 447.449021 507.30885 
L 448.804007 501.183458 
L 450.158992 498.090744 
L 451.513978 497.131682 
L 452.868963 503.291081 
L 454.223949 508.716906 
L 455.578935 513.492556 
L 458.288906 523.700564 
L 460.998877 531.558525 
L 463.708848 541.213634 
L 465.063834 541.237406 
L 467.773805 539.791437 
L 471.838762 538.16746 
L 474.548733 536.834427 
L 475.903718 535.891139 
L 478.613689 533.291913 
L 479.968675 533.215977 
L 481.323661 533.738227 
L 482.678646 534.606923 
L 485.388617 535.987823 
L 489.453574 538.876387 
L 493.518531 540.761753 
L 494.873516 541.755876 
L 498.938473 545.765503 
L 500.293459 546.836696 
L 504.358416 549.219279 
L 507.068387 551.370756 
L 508.423372 552.624372 
L 511.133343 555.459916 
L 512.488329 557.259279 
L 515.1983 561.452323 
L 517.908271 566.133148 
L 523.328214 576.601601 
L 524.683199 578.967557 
L 526.038185 580.949681 
L 527.39317 582.467164 
L 528.748156 583.680585 
L 531.458127 585.548868 
L 532.813113 586.28204 
L 534.168098 586.690124 
L 535.523084 586.962218 
L 539.588041 586.687411 
L 540.943026 586.56693 
L 543.652997 586.64262 
L 545.007983 586.44853 
L 547.717954 585.535847 
L 549.07294 584.849452 
L 551.782911 583.059806 
L 557.202853 578.033764 
L 558.557839 576.870481 
L 559.912824 575.484098 
L 562.622796 572.348887 
L 563.977781 570.496154 
L 566.687752 566.287642 
L 569.397723 562.469003 
L 572.107695 559.247329 
L 573.46268 557.931598 
L 574.817666 556.787984 
L 577.527637 553.766422 
L 578.882623 552.044389 
L 580.237608 549.792671 
L 581.592594 546.723052 
L 582.947579 544.729873 
L 584.302565 543.429163 
L 585.65755 542.615108 
L 587.012536 542.071564 
L 588.367522 541.976178 
L 589.722507 542.196712 
L 592.432478 543.085161 
L 593.787464 543.393261 
L 595.14245 543.471701 
L 596.497435 543.246875 
L 597.852421 543.424677 
L 599.207406 537.734891 
L 600.562392 541.152748 
L 601.917377 540.346559 
L 603.272363 534.192513 
L 604.627349 536.27715 
L 607.33732 544.308113 
L 610.047291 550.960467 
L 614.112248 557.915429 
L 616.822219 560.457099 
L 618.177204 558.017929 
L 619.53219 557.807459 
L 620.887176 559.560327 
L 624.952132 569.671 
L 626.307118 570.866113 
L 627.662104 573.465935 
L 629.017089 574.554017 
L 630.372075 574.239931 
L 631.72706 573.765955 
L 633.082046 573.778443 
L 634.437031 574.386768 
L 635.792017 572.182178 
L 637.147003 562.634683 
L 638.501988 551.227504 
L 639.856974 549.14183 
L 641.211959 538.686391 
L 642.566945 534.691055 
L 643.92193 538.039251 
L 645.276916 538.28877 
L 646.631902 524.080171 
L 647.986887 515.672558 
L 649.341873 509.283109 
L 650.696858 503.747886 
L 652.051844 501.59334 
L 653.40683 493.786972 
L 654.761815 490.775157 
L 656.116801 476.458445 
L 658.826772 467.030956 
L 660.181757 460.232248 
L 661.536743 448.980971 
L 662.891729 436.614214 
L 669.666657 368.852922 
L 673.731613 332.619767 
L 675.086599 319.719743 
L 676.441584 309.29817 
L 677.79657 306.416711 
L 679.151556 304.784677 
L 680.506541 299.445763 
L 681.861527 293.501384 
L 683.216512 285.189887 
L 684.571498 275.657578 
L 685.926484 260.700424 
L 687.281469 258.726552 
L 688.636455 250.735548 
L 691.346426 231.907107 
L 692.701411 220.280103 
L 694.056397 213.707415 
L 695.411383 201.592529 
L 696.766368 202.801105 
L 698.121354 194.344631 
L 699.476339 189.609523 
L 700.831325 185.696999 
L 702.186311 189.050962 
L 703.541296 193.452372 
L 704.896282 201.119792 
L 706.251267 207.42879 
L 707.606253 210.604847 
L 708.961238 215.946926 
L 710.316224 220.370757 
L 711.67121 220.717944 
L 713.026195 224.00289 
L 714.381181 226.21919 
L 717.091152 228.817106 
L 719.801123 229.964098 
L 722.511094 232.364568 
L 723.86608 233.443625 
L 725.221065 233.96551 
L 726.576051 234.863151 
L 727.931037 236.190175 
L 729.286022 237.337245 
L 730.641008 237.791724 
L 731.995993 238.938485 
L 733.350979 239.485639 
L 734.705964 240.279472 
L 736.06095 242.152235 
L 737.415936 242.57632 
L 741.480892 246.937449 
L 744.190864 238.991765 
L 745.545849 231.796865 
L 746.900835 226.397393 
L 748.25582 224.02772 
L 749.610806 219.642759 
L 750.965791 216.280494 
L 752.320777 217.351579 
L 753.675763 215.636601 
L 755.030748 214.8543 
L 756.385734 215.528091 
L 757.740719 216.484465 
L 759.095705 218.813306 
L 764.515647 230.064454 
L 767.225618 235.515277 
L 768.580604 237.361082 
L 774.000546 245.86294 
L 775.355532 248.974384 
L 776.710518 252.443945 
L 778.065503 258.907209 
L 779.420489 270.906833 
L 780.775474 287.457721 
L 782.13046 301.244462 
L 783.485445 317.4302 
L 784.840431 330.655761 
L 787.550402 362.216729 
L 788.905388 374.045338 
L 791.615359 403.482494 
L 794.32533 426.54559 
L 797.035301 455.33361 
L 798.390287 471.458794 
L 801.100258 500.310987 
L 803.810229 527.563652 
L 806.5202 556.792677 
L 810.585157 600.669782 
L 814.650114 645.672835 
L 817.360085 671.351947 
L 818.715071 682.2211 
L 820.070056 685.601708 
L 821.425042 685.764762 
L 822.780027 686.728654 
L 824.135013 686.625309 
L 825.489998 688.897854 
L 826.844984 688.158377 
L 828.19997 686.637555 
L 829.554955 688.814999 
L 830.909941 689.957817 
L 832.264926 689.839341 
L 833.619912 690.247809 
L 834.974898 689.625603 
L 836.329883 689.452499 
L 837.684869 683.82852 
L 839.039854 677.253392 
L 840.39484 667.211123 
L 841.749825 656.041422 
L 844.459797 631.126566 
L 848.524753 587.206014 
L 851.234725 556.7768 
L 852.58971 542.869097 
L 853.944696 525.70768 
L 855.299681 510.715465 
L 856.654667 497.235344 
L 859.364638 466.004553 
L 862.074609 435.931173 
L 870.204523 344.547854 
L 871.559508 327.606293 
L 874.269479 298.041629 
L 875.624465 286.72803 
L 876.979451 272.78924 
L 879.689422 248.658521 
L 881.044407 242.019959 
L 883.754379 232.362817 
L 885.109364 229.058174 
L 886.46435 226.735696 
L 887.819335 225.873682 
L 889.174321 223.617715 
L 890.529306 223.288505 
L 891.884292 221.93638 
L 893.239278 220.226334 
L 894.594263 220.49126 
L 895.949249 220.339909 
L 897.304234 219.424845 
L 898.65922 224.53447 
L 900.014205 225.523558 
L 901.369191 224.650469 
L 902.724177 228.140332 
L 905.434148 239.360305 
L 906.789133 245.325374 
L 909.499105 262.650585 
L 912.209076 276.858474 
L 914.919047 283.990934 
L 916.274032 289.271265 
L 917.629018 293.675487 
L 918.984004 296.574572 
L 920.338989 302.449603 
L 921.693975 307.290963 
L 923.04896 311.31227 
L 925.758932 321.035177 
L 928.468903 326.57322 
L 931.178874 333.739666 
L 932.533859 337.803955 
L 933.888845 339.549185 
L 935.243831 344.707545 
L 936.598816 346.198661 
L 937.953802 347.353018 
L 939.308787 341.772268 
L 940.663773 340.981043 
L 942.018759 340.862157 
L 943.373744 339.230855 
L 944.72873 334.008461 
L 946.083715 330.380848 
L 947.438701 328.064432 
L 948.793686 321.804298 
L 951.503658 317.60019 
L 952.858643 313.414184 
L 954.213629 312.952801 
L 955.568614 313.037259 
L 958.278586 303.077459 
L 959.633571 301.771408 
L 962.343542 294.019941 
L 963.698528 291.055983 
L 965.053513 288.388531 
L 966.408499 283.217168 
L 967.763485 281.868284 
L 969.11847 279.227479 
L 970.473456 276.862524 
L 971.828441 274.265883 
L 973.183427 268.652417 
L 974.538413 266.714939 
L 975.893398 261.643447 
L 977.248384 258.350012 
L 978.603369 254.109223 
L 979.958355 252.370655 
L 981.31334 248.683469 
L 982.668326 246.371684 
L 984.023312 241.35265 
L 985.378297 238.718744 
L 986.733283 233.764074 
L 988.088268 227.838766 
L 989.443254 222.603322 
L 990.798239 215.576443 
L 992.153225 209.439198 
L 993.508211 205.332312 
L 996.218182 195.59367 
L 996.218182 195.59367 
" clip-path="url(#pe51a095136)" style="fill: none; stroke: #2ca02c; stroke-width: 4; stroke-linecap: square"/>
   </g>
   <g id="line2d_28"/>
   <g id="line2d_29"/>
   <g id="line2d_30"/>
   <g id="patch_3">
    <path d="M 144 768.96 
L 144 103.68 
" style="fill: none; stroke: #000000; stroke-width: 0.8; stroke-linejoin: miter; stroke-linecap: square"/>
   </g>
   <g id="patch_4">
    <path d="M 1036.8 768.96 
L 1036.8 103.68 
" style="fill: none; stroke: #000000; stroke-width: 0.8; stroke-linejoin: miter; stroke-linecap: square"/>
   </g>
   <g id="patch_5">
    <path d="M 144 768.96 
L 1036.8 768.96 
" style="fill: none; stroke: #000000; stroke-width: 0.8; stroke-linejoin: miter; stroke-linecap: square"/>
   </g>
   <g id="patch_6">
    <path d="M 144 103.68 
L 1036.8 103.68 
" style="fill: none; stroke: #000000; stroke-width: 0.8; stroke-linejoin: miter; stroke-linecap: square"/>
   </g>
   <g id="text_15">
    <!-- client6 -->
    <g transform="translate(488.915625 91.201875) scale(0.6 -0.6)">
     <defs>
      <path id="DejaVuSans-63" d="M 3122 3366 
L 3122 2828 
Q 2878 2963 2633 3030 
Q 2388 3097 2138 3097 
Q 1578 3097 1268 2742 
Q 959 2388 959 1747 
Q 959 1106 1268 751 
Q 1578 397 2138 397 
Q 2388 397 2633 464 
Q 2878 531 3122 666 
L 3122 134 
Q 2881 22 2623 -34 
Q 2366 -91 2075 -91 
Q 1284 -91 818 406 
Q 353 903 353 1747 
Q 353 2603 823 3093 
Q 1294 3584 2113 3584 
Q 2378 3584 2631 3529 
Q 2884 3475 3122 3366 
z
" transform="scale(0.015625)"/>
      <path id="DejaVuSans-6c" d="M 603 4863 
L 1178 4863 
L 1178 0 
L 603 0 
L 603 4863 
z
" transform="scale(0.015625)"/>
     </defs>
     <use xlink:href="#DejaVuSans-63"/>
     <use xlink:href="#DejaVuSans-6c" x="54.980469"/>
     <use xlink:href="#DejaVuSans-69" x="82.763672"/>
     <use xlink:href="#DejaVuSans-65" x="110.546875"/>
     <use xlink:href="#DejaVuSans-6e" x="172.070312"/>
     <use xlink:href="#DejaVuSans-74" x="235.449219"/>
     <use xlink:href="#DejaVuSans-36" x="274.658203"/>
    </g>
   </g>
   <g id="legend_1">
    <g id="patch_7">
     <path d="M 352.5625 530.945 
L 1008.8 530.945 
Q 1016.8 530.945 1016.8 522.945 
L 1016.8 349.695 
Q 1016.8 341.695 1008.8 341.695 
L 352.5625 341.695 
Q 344.5625 341.695 344.5625 349.695 
L 344.5625 522.945 
Q 344.5625 530.945 352.5625 530.945 
z
" style="fill: #ffffff; opacity: 0.8; stroke: #cccccc; stroke-linejoin: miter"/>
    </g>
    <g id="line2d_31">
     <path d="M 360.5625 374.08875 
L 400.5625 374.08875 
L 440.5625 374.08875 
" style="fill: none; stroke: #1f77b4; stroke-width: 4; stroke-linecap: square"/>
    </g>
    <g id="text_16">
     <!-- fedavg_private_regressors -->
     <g transform="translate(472.5625 388.08875) scale(0.4 -0.4)">
      <defs>
       <path id="DejaVuSans-66" d="M 2375 4863 
L 2375 4384 
L 1825 4384 
Q 1516 4384 1395 4259 
Q 1275 4134 1275 3809 
L 1275 3500 
L 2222 3500 
L 2222 3053 
L 1275 3053 
L 1275 0 
L 697 0 
L 697 3053 
L 147 3053 
L 147 3500 
L 697 3500 
L 697 3744 
Q 697 4328 969 4595 
Q 1241 4863 1831 4863 
L 2375 4863 
z
" transform="scale(0.015625)"/>
       <path id="DejaVuSans-64" d="M 2906 2969 
L 2906 4863 
L 3481 4863 
L 3481 0 
L 2906 0 
L 2906 525 
Q 2725 213 2448 61 
Q 2172 -91 1784 -91 
Q 1150 -91 751 415 
Q 353 922 353 1747 
Q 353 2572 751 3078 
Q 1150 3584 1784 3584 
Q 2172 3584 2448 3432 
Q 2725 3281 2906 2969 
z
M 947 1747 
Q 947 1113 1208 752 
Q 1469 391 1925 391 
Q 2381 391 2643 752 
Q 2906 1113 2906 1747 
Q 2906 2381 2643 2742 
Q 2381 3103 1925 3103 
Q 1469 3103 1208 2742 
Q 947 2381 947 1747 
z
" transform="scale(0.015625)"/>
       <path id="DejaVuSans-76" d="M 191 3500 
L 800 3500 
L 1894 563 
L 2988 3500 
L 3597 3500 
L 2284 0 
L 1503 0 
L 191 3500 
z
" transform="scale(0.015625)"/>
       <path id="DejaVuSans-67" d="M 2906 1791 
Q 2906 2416 2648 2759 
Q 2391 3103 1925 3103 
Q 1463 3103 1205 2759 
Q 947 2416 947 1791 
Q 947 1169 1205 825 
Q 1463 481 1925 481 
Q 2391 481 2648 825 
Q 2906 1169 2906 1791 
z
M 3481 434 
Q 3481 -459 3084 -895 
Q 2688 -1331 1869 -1331 
Q 1566 -1331 1297 -1286 
Q 1028 -1241 775 -1147 
L 775 -588 
Q 1028 -725 1275 -790 
Q 1522 -856 1778 -856 
Q 2344 -856 2625 -561 
Q 2906 -266 2906 331 
L 2906 616 
Q 2728 306 2450 153 
Q 2172 0 1784 0 
Q 1141 0 747 490 
Q 353 981 353 1791 
Q 353 2603 747 3093 
Q 1141 3584 1784 3584 
Q 2172 3584 2450 3431 
Q 2728 3278 2906 2969 
L 2906 3500 
L 3481 3500 
L 3481 434 
z
" transform="scale(0.015625)"/>
       <path id="DejaVuSans-5f" d="M 3263 -1063 
L 3263 -1509 
L -63 -1509 
L -63 -1063 
L 3263 -1063 
z
" transform="scale(0.015625)"/>
      </defs>
      <use xlink:href="#DejaVuSans-66"/>
      <use xlink:href="#DejaVuSans-65" x="35.205078"/>
      <use xlink:href="#DejaVuSans-64" x="96.728516"/>
      <use xlink:href="#DejaVuSans-61" x="160.205078"/>
      <use xlink:href="#DejaVuSans-76" x="221.484375"/>
      <use xlink:href="#DejaVuSans-67" x="280.664062"/>
      <use xlink:href="#DejaVuSans-5f" x="344.140625"/>
      <use xlink:href="#DejaVuSans-70" x="394.140625"/>
      <use xlink:href="#DejaVuSans-72" x="457.617188"/>
      <use xlink:href="#DejaVuSans-69" x="498.730469"/>
      <use xlink:href="#DejaVuSans-76" x="526.513672"/>
      <use xlink:href="#DejaVuSans-61" x="585.693359"/>
      <use xlink:href="#DejaVuSans-74" x="646.972656"/>
      <use xlink:href="#DejaVuSans-65" x="686.181641"/>
      <use xlink:href="#DejaVuSans-5f" x="747.705078"/>
      <use xlink:href="#DejaVuSans-72" x="797.705078"/>
      <use xlink:href="#DejaVuSans-65" x="836.568359"/>
      <use xlink:href="#DejaVuSans-67" x="898.091797"/>
      <use xlink:href="#DejaVuSans-72" x="961.568359"/>
      <use xlink:href="#DejaVuSans-65" x="1000.431641"/>
      <use xlink:href="#DejaVuSans-73" x="1061.955078"/>
      <use xlink:href="#DejaVuSans-73" x="1114.054688"/>
      <use xlink:href="#DejaVuSans-6f" x="1166.154297"/>
      <use xlink:href="#DejaVuSans-72" x="1227.335938"/>
      <use xlink:href="#DejaVuSans-73" x="1268.449219"/>
     </g>
    </g>
    <g id="line2d_32">
     <path d="M 360.5625 433.91375 
L 400.5625 433.91375 
L 440.5625 433.91375 
" style="fill: none; stroke: #ff7f0e; stroke-width: 4; stroke-linecap: square"/>
    </g>
    <g id="text_17">
     <!-- fedavg -->
     <g transform="translate(472.5625 447.91375) scale(0.4 -0.4)">
      <use xlink:href="#DejaVuSans-66"/>
      <use xlink:href="#DejaVuSans-65" x="35.205078"/>
      <use xlink:href="#DejaVuSans-64" x="96.728516"/>
      <use xlink:href="#DejaVuSans-61" x="160.205078"/>
      <use xlink:href="#DejaVuSans-76" x="221.484375"/>
      <use xlink:href="#DejaVuSans-67" x="280.664062"/>
     </g>
    </g>
    <g id="line2d_33">
     <path d="M 360.5625 492.62625 
L 400.5625 492.62625 
L 440.5625 492.62625 
" style="fill: none; stroke: #2ca02c; stroke-width: 4; stroke-linecap: square"/>
    </g>
    <g id="text_18">
     <!-- local -->
     <g transform="translate(472.5625 506.62625) scale(0.4 -0.4)">
      <use xlink:href="#DejaVuSans-6c"/>
      <use xlink:href="#DejaVuSans-6f" x="27.783203"/>
      <use xlink:href="#DejaVuSans-63" x="88.964844"/>
      <use xlink:href="#DejaVuSans-61" x="143.945312"/>
      <use xlink:href="#DejaVuSans-6c" x="205.224609"/>
     </g>
    </g>
   </g>
  </g>
 </g>
 <defs>
  <clipPath id="pe51a095136">
   <rect x="144" y="103.68" width="892.8" height="665.28"/>
  </clipPath>
 </defs>
</svg>
