<?xml version="1.0" encoding="utf-8" standalone="no"?>
<!DOCTYPE svg PUBLIC "-//W3C//DTD SVG 1.1//EN"
  "http://www.w3.org/Graphics/SVG/1.1/DTD/svg11.dtd">
<svg xmlns:xlink="http://www.w3.org/1999/xlink" width="1152pt" height="864pt" viewBox="0 0 1152 864" xmlns="http://www.w3.org/2000/svg" version="1.1">
 <metadata>
  <rdf:RDF xmlns:dc="http://purl.org/dc/elements/1.1/" xmlns:cc="http://creativecommons.org/ns#" xmlns:rdf="http://www.w3.org/1999/02/22-rdf-syntax-ns#">
   <cc:Work>
    <dc:type rdf:resource="http://purl.org/dc/dcmitype/StillImage"/>
    <dc:date>2025-04-25T14:41:04.149559</dc:date>
    <dc:format>image/svg+xml</dc:format>
    <dc:creator>
     <cc:Agent>
      <dc:title>Matplotlib v3.8.2, https://matplotlib.org/</dc:title>
     </cc:Agent>
    </dc:creator>
   </cc:Work>
  </rdf:RDF>
 </metadata>
 <defs>
  <style type="text/css">*{stroke-linejoin: round; stroke-linecap: butt}</style>
 </defs>
 <g id="figure_1">
  <g id="patch_1">
   <path d="M 0 864 
L 1152 864 
L 1152 0 
L 0 0 
z
" style="fill: #ffffff"/>
  </g>
  <g id="axes_1">
   <g id="patch_2">
    <path d="M 144 768.96 
L 1036.8 768.96 
L 1036.8 103.68 
L 144 103.68 
z
" style="fill: #ffffff"/>
   </g>
   <g id="PolyCollection_1"/>
   <g id="PolyCollection_2"/>
   <g id="PolyCollection_3"/>
   <g id="matplotlib.axis_1">
    <g id="xtick_1">
     <g id="line2d_1">
      <path d="M 183.226833 768.96 
L 183.226833 103.68 
" clip-path="url(#p1fb4691dc4)" style="fill: none; stroke: #b0b0b0; stroke-width: 0.8; stroke-linecap: square"/>
     </g>
     <g id="line2d_2">
      <defs>
       <path id="md7da862a90" d="M 0 0 
L 0 3.5 
" style="stroke: #000000; stroke-width: 0.8"/>
      </defs>
      <g>
       <use xlink:href="#md7da862a90" x="183.226833" y="768.96" style="stroke: #000000; stroke-width: 0.8"/>
      </g>
     </g>
     <g id="text_1">
      <!-- 0 -->
      <g transform="translate(173.683083 798.755312) scale(0.3 -0.3)">
       <defs>
        <path id="DejaVuSans-30" d="M 2034 4250 
Q 1547 4250 1301 3770 
Q 1056 3291 1056 2328 
Q 1056 1369 1301 889 
Q 1547 409 2034 409 
Q 2525 409 2770 889 
Q 3016 1369 3016 2328 
Q 3016 3291 2770 3770 
Q 2525 4250 2034 4250 
z
M 2034 4750 
Q 2819 4750 3233 4129 
Q 3647 3509 3647 2328 
Q 3647 1150 3233 529 
Q 2819 -91 2034 -91 
Q 1250 -91 836 529 
Q 422 1150 422 2328 
Q 422 3509 836 4129 
Q 1250 4750 2034 4750 
z
" transform="scale(0.015625)"/>
       </defs>
       <use xlink:href="#DejaVuSans-30"/>
      </g>
     </g>
    </g>
    <g id="xtick_2">
     <g id="line2d_3">
      <path d="M 356.942933 768.96 
L 356.942933 103.68 
" clip-path="url(#p1fb4691dc4)" style="fill: none; stroke: #b0b0b0; stroke-width: 0.8; stroke-linecap: square"/>
     </g>
     <g id="line2d_4">
      <g>
       <use xlink:href="#md7da862a90" x="356.942933" y="768.96" style="stroke: #000000; stroke-width: 0.8"/>
      </g>
     </g>
     <g id="text_2">
      <!-- 5000 -->
      <g transform="translate(318.767933 798.755312) scale(0.3 -0.3)">
       <defs>
        <path id="DejaVuSans-35" d="M 691 4666 
L 3169 4666 
L 3169 4134 
L 1269 4134 
L 1269 2991 
Q 1406 3038 1543 3061 
Q 1681 3084 1819 3084 
Q 2600 3084 3056 2656 
Q 3513 2228 3513 1497 
Q 3513 744 3044 326 
Q 2575 -91 1722 -91 
Q 1428 -91 1123 -41 
Q 819 9 494 109 
L 494 744 
Q 775 591 1075 516 
Q 1375 441 1709 441 
Q 2250 441 2565 725 
Q 2881 1009 2881 1497 
Q 2881 1984 2565 2268 
Q 2250 2553 1709 2553 
Q 1456 2553 1204 2497 
Q 953 2441 691 2322 
L 691 4666 
z
" transform="scale(0.015625)"/>
       </defs>
       <use xlink:href="#DejaVuSans-35"/>
       <use xlink:href="#DejaVuSans-30" x="63.623047"/>
       <use xlink:href="#DejaVuSans-30" x="127.246094"/>
       <use xlink:href="#DejaVuSans-30" x="190.869141"/>
      </g>
     </g>
    </g>
    <g id="xtick_3">
     <g id="line2d_5">
      <path d="M 530.659033 768.96 
L 530.659033 103.68 
" clip-path="url(#p1fb4691dc4)" style="fill: none; stroke: #b0b0b0; stroke-width: 0.8; stroke-linecap: square"/>
     </g>
     <g id="line2d_6">
      <g>
       <use xlink:href="#md7da862a90" x="530.659033" y="768.96" style="stroke: #000000; stroke-width: 0.8"/>
      </g>
     </g>
     <g id="text_3">
      <!-- 10000 -->
      <g transform="translate(482.940283 798.755312) scale(0.3 -0.3)">
       <defs>
        <path id="DejaVuSans-31" d="M 794 531 
L 1825 531 
L 1825 4091 
L 703 3866 
L 703 4441 
L 1819 4666 
L 2450 4666 
L 2450 531 
L 3481 531 
L 3481 0 
L 794 0 
L 794 531 
z
" transform="scale(0.015625)"/>
       </defs>
       <use xlink:href="#DejaVuSans-31"/>
       <use xlink:href="#DejaVuSans-30" x="63.623047"/>
       <use xlink:href="#DejaVuSans-30" x="127.246094"/>
       <use xlink:href="#DejaVuSans-30" x="190.869141"/>
       <use xlink:href="#DejaVuSans-30" x="254.492188"/>
      </g>
     </g>
    </g>
    <g id="xtick_4">
     <g id="line2d_7">
      <path d="M 704.375133 768.96 
L 704.375133 103.68 
" clip-path="url(#p1fb4691dc4)" style="fill: none; stroke: #b0b0b0; stroke-width: 0.8; stroke-linecap: square"/>
     </g>
     <g id="line2d_8">
      <g>
       <use xlink:href="#md7da862a90" x="704.375133" y="768.96" style="stroke: #000000; stroke-width: 0.8"/>
      </g>
     </g>
     <g id="text_4">
      <!-- 15000 -->
      <g transform="translate(656.656383 798.755312) scale(0.3 -0.3)">
       <use xlink:href="#DejaVuSans-31"/>
       <use xlink:href="#DejaVuSans-35" x="63.623047"/>
       <use xlink:href="#DejaVuSans-30" x="127.246094"/>
       <use xlink:href="#DejaVuSans-30" x="190.869141"/>
       <use xlink:href="#DejaVuSans-30" x="254.492188"/>
      </g>
     </g>
    </g>
    <g id="xtick_5">
     <g id="line2d_9">
      <path d="M 878.091234 768.96 
L 878.091234 103.68 
" clip-path="url(#p1fb4691dc4)" style="fill: none; stroke: #b0b0b0; stroke-width: 0.8; stroke-linecap: square"/>
     </g>
     <g id="line2d_10">
      <g>
       <use xlink:href="#md7da862a90" x="878.091234" y="768.96" style="stroke: #000000; stroke-width: 0.8"/>
      </g>
     </g>
     <g id="text_5">
      <!-- 20000 -->
      <g transform="translate(830.372484 798.755312) scale(0.3 -0.3)">
       <defs>
        <path id="DejaVuSans-32" d="M 1228 531 
L 3431 531 
L 3431 0 
L 469 0 
L 469 531 
Q 828 903 1448 1529 
Q 2069 2156 2228 2338 
Q 2531 2678 2651 2914 
Q 2772 3150 2772 3378 
Q 2772 3750 2511 3984 
Q 2250 4219 1831 4219 
Q 1534 4219 1204 4116 
Q 875 4013 500 3803 
L 500 4441 
Q 881 4594 1212 4672 
Q 1544 4750 1819 4750 
Q 2544 4750 2975 4387 
Q 3406 4025 3406 3419 
Q 3406 3131 3298 2873 
Q 3191 2616 2906 2266 
Q 2828 2175 2409 1742 
Q 1991 1309 1228 531 
z
" transform="scale(0.015625)"/>
       </defs>
       <use xlink:href="#DejaVuSans-32"/>
       <use xlink:href="#DejaVuSans-30" x="63.623047"/>
       <use xlink:href="#DejaVuSans-30" x="127.246094"/>
       <use xlink:href="#DejaVuSans-30" x="190.869141"/>
       <use xlink:href="#DejaVuSans-30" x="254.492188"/>
      </g>
     </g>
    </g>
    <g id="text_6">
     <!-- Steps -->
     <g transform="translate(534.440625 839.388125) scale(0.4 -0.4)">
      <defs>
       <path id="DejaVuSans-53" d="M 3425 4513 
L 3425 3897 
Q 3066 4069 2747 4153 
Q 2428 4238 2131 4238 
Q 1616 4238 1336 4038 
Q 1056 3838 1056 3469 
Q 1056 3159 1242 3001 
Q 1428 2844 1947 2747 
L 2328 2669 
Q 3034 2534 3370 2195 
Q 3706 1856 3706 1288 
Q 3706 609 3251 259 
Q 2797 -91 1919 -91 
Q 1588 -91 1214 -16 
Q 841 59 441 206 
L 441 856 
Q 825 641 1194 531 
Q 1563 422 1919 422 
Q 2459 422 2753 634 
Q 3047 847 3047 1241 
Q 3047 1584 2836 1778 
Q 2625 1972 2144 2069 
L 1759 2144 
Q 1053 2284 737 2584 
Q 422 2884 422 3419 
Q 422 4038 858 4394 
Q 1294 4750 2059 4750 
Q 2388 4750 2728 4690 
Q 3069 4631 3425 4513 
z
" transform="scale(0.015625)"/>
       <path id="DejaVuSans-74" d="M 1172 4494 
L 1172 3500 
L 2356 3500 
L 2356 3053 
L 1172 3053 
L 1172 1153 
Q 1172 725 1289 603 
Q 1406 481 1766 481 
L 2356 481 
L 2356 0 
L 1766 0 
Q 1100 0 847 248 
Q 594 497 594 1153 
L 594 3053 
L 172 3053 
L 172 3500 
L 594 3500 
L 594 4494 
L 1172 4494 
z
" transform="scale(0.015625)"/>
       <path id="DejaVuSans-65" d="M 3597 1894 
L 3597 1613 
L 953 1613 
Q 991 1019 1311 708 
Q 1631 397 2203 397 
Q 2534 397 2845 478 
Q 3156 559 3463 722 
L 3463 178 
Q 3153 47 2828 -22 
Q 2503 -91 2169 -91 
Q 1331 -91 842 396 
Q 353 884 353 1716 
Q 353 2575 817 3079 
Q 1281 3584 2069 3584 
Q 2775 3584 3186 3129 
Q 3597 2675 3597 1894 
z
M 3022 2063 
Q 3016 2534 2758 2815 
Q 2500 3097 2075 3097 
Q 1594 3097 1305 2825 
Q 1016 2553 972 2059 
L 3022 2063 
z
" transform="scale(0.015625)"/>
       <path id="DejaVuSans-70" d="M 1159 525 
L 1159 -1331 
L 581 -1331 
L 581 3500 
L 1159 3500 
L 1159 2969 
Q 1341 3281 1617 3432 
Q 1894 3584 2278 3584 
Q 2916 3584 3314 3078 
Q 3713 2572 3713 1747 
Q 3713 922 3314 415 
Q 2916 -91 2278 -91 
Q 1894 -91 1617 61 
Q 1341 213 1159 525 
z
M 3116 1747 
Q 3116 2381 2855 2742 
Q 2594 3103 2138 3103 
Q 1681 3103 1420 2742 
Q 1159 2381 1159 1747 
Q 1159 1113 1420 752 
Q 1681 391 2138 391 
Q 2594 391 2855 752 
Q 3116 1113 3116 1747 
z
" transform="scale(0.015625)"/>
       <path id="DejaVuSans-73" d="M 2834 3397 
L 2834 2853 
Q 2591 2978 2328 3040 
Q 2066 3103 1784 3103 
Q 1356 3103 1142 2972 
Q 928 2841 928 2578 
Q 928 2378 1081 2264 
Q 1234 2150 1697 2047 
L 1894 2003 
Q 2506 1872 2764 1633 
Q 3022 1394 3022 966 
Q 3022 478 2636 193 
Q 2250 -91 1575 -91 
Q 1294 -91 989 -36 
Q 684 19 347 128 
L 347 722 
Q 666 556 975 473 
Q 1284 391 1588 391 
Q 1994 391 2212 530 
Q 2431 669 2431 922 
Q 2431 1156 2273 1281 
Q 2116 1406 1581 1522 
L 1381 1569 
Q 847 1681 609 1914 
Q 372 2147 372 2553 
Q 372 3047 722 3315 
Q 1072 3584 1716 3584 
Q 2034 3584 2315 3537 
Q 2597 3491 2834 3397 
z
" transform="scale(0.015625)"/>
      </defs>
      <use xlink:href="#DejaVuSans-53"/>
      <use xlink:href="#DejaVuSans-74" x="63.476562"/>
      <use xlink:href="#DejaVuSans-65" x="102.685547"/>
      <use xlink:href="#DejaVuSans-70" x="164.208984"/>
      <use xlink:href="#DejaVuSans-73" x="227.685547"/>
     </g>
    </g>
   </g>
   <g id="matplotlib.axis_2">
    <g id="ytick_1">
     <g id="line2d_11">
      <path d="M 144 723.786204 
L 1036.8 723.786204 
" clip-path="url(#p1fb4691dc4)" style="fill: none; stroke: #b0b0b0; stroke-width: 0.8; stroke-linecap: square"/>
     </g>
     <g id="line2d_12">
      <defs>
       <path id="m4392c5037a" d="M 0 0 
L -3.5 0 
" style="stroke: #000000; stroke-width: 0.8"/>
      </defs>
      <g>
       <use xlink:href="#m4392c5037a" x="144" y="723.786204" style="stroke: #000000; stroke-width: 0.8"/>
      </g>
     </g>
     <g id="text_7">
      <!-- −0.6 -->
      <g transform="translate(64.151562 735.18386) scale(0.3 -0.3)">
       <defs>
        <path id="DejaVuSans-2212" d="M 678 2272 
L 4684 2272 
L 4684 1741 
L 678 1741 
L 678 2272 
z
" transform="scale(0.015625)"/>
        <path id="DejaVuSans-2e" d="M 684 794 
L 1344 794 
L 1344 0 
L 684 0 
L 684 794 
z
" transform="scale(0.015625)"/>
        <path id="DejaVuSans-36" d="M 2113 2584 
Q 1688 2584 1439 2293 
Q 1191 2003 1191 1497 
Q 1191 994 1439 701 
Q 1688 409 2113 409 
Q 2538 409 2786 701 
Q 3034 994 3034 1497 
Q 3034 2003 2786 2293 
Q 2538 2584 2113 2584 
z
M 3366 4563 
L 3366 3988 
Q 3128 4100 2886 4159 
Q 2644 4219 2406 4219 
Q 1781 4219 1451 3797 
Q 1122 3375 1075 2522 
Q 1259 2794 1537 2939 
Q 1816 3084 2150 3084 
Q 2853 3084 3261 2657 
Q 3669 2231 3669 1497 
Q 3669 778 3244 343 
Q 2819 -91 2113 -91 
Q 1303 -91 875 529 
Q 447 1150 447 2328 
Q 447 3434 972 4092 
Q 1497 4750 2381 4750 
Q 2619 4750 2861 4703 
Q 3103 4656 3366 4563 
z
" transform="scale(0.015625)"/>
       </defs>
       <use xlink:href="#DejaVuSans-2212"/>
       <use xlink:href="#DejaVuSans-30" x="83.789062"/>
       <use xlink:href="#DejaVuSans-2e" x="147.412109"/>
       <use xlink:href="#DejaVuSans-36" x="179.199219"/>
      </g>
     </g>
    </g>
    <g id="ytick_2">
     <g id="line2d_13">
      <path d="M 144 613.689642 
L 1036.8 613.689642 
" clip-path="url(#p1fb4691dc4)" style="fill: none; stroke: #b0b0b0; stroke-width: 0.8; stroke-linecap: square"/>
     </g>
     <g id="line2d_14">
      <g>
       <use xlink:href="#m4392c5037a" x="144" y="613.689642" style="stroke: #000000; stroke-width: 0.8"/>
      </g>
     </g>
     <g id="text_8">
      <!-- −0.4 -->
      <g transform="translate(64.151562 625.087298) scale(0.3 -0.3)">
       <defs>
        <path id="DejaVuSans-34" d="M 2419 4116 
L 825 1625 
L 2419 1625 
L 2419 4116 
z
M 2253 4666 
L 3047 4666 
L 3047 1625 
L 3713 1625 
L 3713 1100 
L 3047 1100 
L 3047 0 
L 2419 0 
L 2419 1100 
L 313 1100 
L 313 1709 
L 2253 4666 
z
" transform="scale(0.015625)"/>
       </defs>
       <use xlink:href="#DejaVuSans-2212"/>
       <use xlink:href="#DejaVuSans-30" x="83.789062"/>
       <use xlink:href="#DejaVuSans-2e" x="147.412109"/>
       <use xlink:href="#DejaVuSans-34" x="179.199219"/>
      </g>
     </g>
    </g>
    <g id="ytick_3">
     <g id="line2d_15">
      <path d="M 144 503.593079 
L 1036.8 503.593079 
" clip-path="url(#p1fb4691dc4)" style="fill: none; stroke: #b0b0b0; stroke-width: 0.8; stroke-linecap: square"/>
     </g>
     <g id="line2d_16">
      <g>
       <use xlink:href="#m4392c5037a" x="144" y="503.593079" style="stroke: #000000; stroke-width: 0.8"/>
      </g>
     </g>
     <g id="text_9">
      <!-- −0.2 -->
      <g transform="translate(64.151562 514.990735) scale(0.3 -0.3)">
       <use xlink:href="#DejaVuSans-2212"/>
       <use xlink:href="#DejaVuSans-30" x="83.789062"/>
       <use xlink:href="#DejaVuSans-2e" x="147.412109"/>
       <use xlink:href="#DejaVuSans-32" x="179.199219"/>
      </g>
     </g>
    </g>
    <g id="ytick_4">
     <g id="line2d_17">
      <path d="M 144 393.496516 
L 1036.8 393.496516 
" clip-path="url(#p1fb4691dc4)" style="fill: none; stroke: #b0b0b0; stroke-width: 0.8; stroke-linecap: square"/>
     </g>
     <g id="line2d_18">
      <g>
       <use xlink:href="#m4392c5037a" x="144" y="393.496516" style="stroke: #000000; stroke-width: 0.8"/>
      </g>
     </g>
     <g id="text_10">
      <!-- 0.0 -->
      <g transform="translate(89.290625 404.894173) scale(0.3 -0.3)">
       <use xlink:href="#DejaVuSans-30"/>
       <use xlink:href="#DejaVuSans-2e" x="63.623047"/>
       <use xlink:href="#DejaVuSans-30" x="95.410156"/>
      </g>
     </g>
    </g>
    <g id="ytick_5">
     <g id="line2d_19">
      <path d="M 144 283.399954 
L 1036.8 283.399954 
" clip-path="url(#p1fb4691dc4)" style="fill: none; stroke: #b0b0b0; stroke-width: 0.8; stroke-linecap: square"/>
     </g>
     <g id="line2d_20">
      <g>
       <use xlink:href="#m4392c5037a" x="144" y="283.399954" style="stroke: #000000; stroke-width: 0.8"/>
      </g>
     </g>
     <g id="text_11">
      <!-- 0.2 -->
      <g transform="translate(89.290625 294.79761) scale(0.3 -0.3)">
       <use xlink:href="#DejaVuSans-30"/>
       <use xlink:href="#DejaVuSans-2e" x="63.623047"/>
       <use xlink:href="#DejaVuSans-32" x="95.410156"/>
      </g>
     </g>
    </g>
    <g id="ytick_6">
     <g id="line2d_21">
      <path d="M 144 173.303391 
L 1036.8 173.303391 
" clip-path="url(#p1fb4691dc4)" style="fill: none; stroke: #b0b0b0; stroke-width: 0.8; stroke-linecap: square"/>
     </g>
     <g id="line2d_22">
      <g>
       <use xlink:href="#m4392c5037a" x="144" y="173.303391" style="stroke: #000000; stroke-width: 0.8"/>
      </g>
     </g>
     <g id="text_12">
      <!-- 0.4 -->
      <g transform="translate(89.290625 184.701047) scale(0.3 -0.3)">
       <use xlink:href="#DejaVuSans-30"/>
       <use xlink:href="#DejaVuSans-2e" x="63.623047"/>
       <use xlink:href="#DejaVuSans-34" x="95.410156"/>
      </g>
     </g>
    </g>
    <g id="text_13">
     <!-- Pearson expression -->
     <g transform="translate(51.832812 630.00125) rotate(-90) scale(0.4 -0.4)">
      <defs>
       <path id="DejaVuSans-50" d="M 1259 4147 
L 1259 2394 
L 2053 2394 
Q 2494 2394 2734 2622 
Q 2975 2850 2975 3272 
Q 2975 3691 2734 3919 
Q 2494 4147 2053 4147 
L 1259 4147 
z
M 628 4666 
L 2053 4666 
Q 2838 4666 3239 4311 
Q 3641 3956 3641 3272 
Q 3641 2581 3239 2228 
Q 2838 1875 2053 1875 
L 1259 1875 
L 1259 0 
L 628 0 
L 628 4666 
z
" transform="scale(0.015625)"/>
       <path id="DejaVuSans-61" d="M 2194 1759 
Q 1497 1759 1228 1600 
Q 959 1441 959 1056 
Q 959 750 1161 570 
Q 1363 391 1709 391 
Q 2188 391 2477 730 
Q 2766 1069 2766 1631 
L 2766 1759 
L 2194 1759 
z
M 3341 1997 
L 3341 0 
L 2766 0 
L 2766 531 
Q 2569 213 2275 61 
Q 1981 -91 1556 -91 
Q 1019 -91 701 211 
Q 384 513 384 1019 
Q 384 1609 779 1909 
Q 1175 2209 1959 2209 
L 2766 2209 
L 2766 2266 
Q 2766 2663 2505 2880 
Q 2244 3097 1772 3097 
Q 1472 3097 1187 3025 
Q 903 2953 641 2809 
L 641 3341 
Q 956 3463 1253 3523 
Q 1550 3584 1831 3584 
Q 2591 3584 2966 3190 
Q 3341 2797 3341 1997 
z
" transform="scale(0.015625)"/>
       <path id="DejaVuSans-72" d="M 2631 2963 
Q 2534 3019 2420 3045 
Q 2306 3072 2169 3072 
Q 1681 3072 1420 2755 
Q 1159 2438 1159 1844 
L 1159 0 
L 581 0 
L 581 3500 
L 1159 3500 
L 1159 2956 
Q 1341 3275 1631 3429 
Q 1922 3584 2338 3584 
Q 2397 3584 2469 3576 
Q 2541 3569 2628 3553 
L 2631 2963 
z
" transform="scale(0.015625)"/>
       <path id="DejaVuSans-6f" d="M 1959 3097 
Q 1497 3097 1228 2736 
Q 959 2375 959 1747 
Q 959 1119 1226 758 
Q 1494 397 1959 397 
Q 2419 397 2687 759 
Q 2956 1122 2956 1747 
Q 2956 2369 2687 2733 
Q 2419 3097 1959 3097 
z
M 1959 3584 
Q 2709 3584 3137 3096 
Q 3566 2609 3566 1747 
Q 3566 888 3137 398 
Q 2709 -91 1959 -91 
Q 1206 -91 779 398 
Q 353 888 353 1747 
Q 353 2609 779 3096 
Q 1206 3584 1959 3584 
z
" transform="scale(0.015625)"/>
       <path id="DejaVuSans-6e" d="M 3513 2113 
L 3513 0 
L 2938 0 
L 2938 2094 
Q 2938 2591 2744 2837 
Q 2550 3084 2163 3084 
Q 1697 3084 1428 2787 
Q 1159 2491 1159 1978 
L 1159 0 
L 581 0 
L 581 3500 
L 1159 3500 
L 1159 2956 
Q 1366 3272 1645 3428 
Q 1925 3584 2291 3584 
Q 2894 3584 3203 3211 
Q 3513 2838 3513 2113 
z
" transform="scale(0.015625)"/>
       <path id="DejaVuSans-20" transform="scale(0.015625)"/>
       <path id="DejaVuSans-78" d="M 3513 3500 
L 2247 1797 
L 3578 0 
L 2900 0 
L 1881 1375 
L 863 0 
L 184 0 
L 1544 1831 
L 300 3500 
L 978 3500 
L 1906 2253 
L 2834 3500 
L 3513 3500 
z
" transform="scale(0.015625)"/>
       <path id="DejaVuSans-69" d="M 603 3500 
L 1178 3500 
L 1178 0 
L 603 0 
L 603 3500 
z
M 603 4863 
L 1178 4863 
L 1178 4134 
L 603 4134 
L 603 4863 
z
" transform="scale(0.015625)"/>
      </defs>
      <use xlink:href="#DejaVuSans-50"/>
      <use xlink:href="#DejaVuSans-65" x="56.677734"/>
      <use xlink:href="#DejaVuSans-61" x="118.201172"/>
      <use xlink:href="#DejaVuSans-72" x="179.480469"/>
      <use xlink:href="#DejaVuSans-73" x="220.59375"/>
      <use xlink:href="#DejaVuSans-6f" x="272.693359"/>
      <use xlink:href="#DejaVuSans-6e" x="333.875"/>
      <use xlink:href="#DejaVuSans-20" x="397.253906"/>
      <use xlink:href="#DejaVuSans-65" x="429.041016"/>
      <use xlink:href="#DejaVuSans-78" x="488.814453"/>
      <use xlink:href="#DejaVuSans-70" x="547.994141"/>
      <use xlink:href="#DejaVuSans-72" x="611.470703"/>
      <use xlink:href="#DejaVuSans-65" x="650.333984"/>
      <use xlink:href="#DejaVuSans-73" x="711.857422"/>
      <use xlink:href="#DejaVuSans-73" x="763.957031"/>
      <use xlink:href="#DejaVuSans-69" x="816.056641"/>
      <use xlink:href="#DejaVuSans-6f" x="843.839844"/>
      <use xlink:href="#DejaVuSans-6e" x="905.021484"/>
     </g>
    </g>
   </g>
   <g id="line2d_23">
    <path d="M 184.581818 738.72 
L 185.936804 480.540019 
L 187.291789 393.596689 
L 188.646775 355.846324 
L 190.001761 303.970231 
L 191.356746 260.383292 
L 192.711732 289.719075 
L 194.066717 321.473534 
L 195.421703 326.28843 
L 196.776688 308.164149 
L 198.131674 341.416027 
L 199.48666 332.310194 
L 200.841645 357.454528 
L 202.196631 366.457749 
L 203.551616 354.08539 
L 204.906602 355.73773 
L 206.261587 372.926228 
L 207.616573 377.551127 
L 210.326544 350.179252 
L 211.68153 337.233954 
L 213.036515 353.369487 
L 215.746487 377.918022 
L 218.456458 369.097083 
L 219.811443 380.62546 
L 222.521414 361.73529 
L 223.8764 352.757265 
L 225.231386 351.105294 
L 226.586371 365.544747 
L 227.941357 361.274349 
L 229.296342 375.57831 
L 230.651328 375.615084 
L 232.006314 396.670367 
L 233.361299 401.55237 
L 234.716285 405.709157 
L 236.07127 416.570073 
L 237.426256 434.624278 
L 238.781241 434.81953 
L 240.136227 448.729116 
L 241.491213 449.734933 
L 242.846198 456.273856 
L 244.201184 473.040423 
L 245.556169 483.036565 
L 246.911155 484.34919 
L 248.266141 492.050412 
L 252.331097 551.307495 
L 253.686083 551.164471 
L 256.396054 553.828229 
L 259.106025 582.117237 
L 260.461011 582.340168 
L 264.525968 640.799011 
L 265.880953 640.680517 
L 267.235939 641.682597 
L 268.590924 661.484101 
L 269.94591 661.948406 
L 271.300895 681.54695 
L 272.655881 681.927559 
L 274.010867 684.371985 
L 275.365852 684.940927 
L 276.720838 684.767223 
L 278.075823 684.72563 
L 279.430809 684.912629 
L 280.785795 686.111586 
L 282.14078 685.982338 
L 283.495766 686.176213 
L 284.850751 686.233169 
L 286.205737 686.405536 
L 295.690636 685.886672 
L 302.465564 685.56014 
L 310.595477 685.487098 
L 409.509425 685.475312 
L 996.218182 685.475312 
L 996.218182 685.475312 
" clip-path="url(#p1fb4691dc4)" style="fill: none; stroke: #1f77b4; stroke-width: 4; stroke-linecap: square"/>
   </g>
   <g id="line2d_24">
    <path d="M 184.581818 287.297545 
L 185.936804 304.620476 
L 187.291789 360.444034 
L 188.646775 287.198079 
L 190.001761 257.020595 
L 191.356746 237.244993 
L 192.711732 296.001062 
L 194.066717 337.653186 
L 195.421703 321.285843 
L 196.776688 310.29887 
L 198.131674 317.646493 
L 199.48666 326.52021 
L 202.196631 316.067123 
L 206.261587 295.703018 
L 207.616573 288.650409 
L 210.326544 276.400026 
L 213.036515 265.640475 
L 214.391501 262.26919 
L 215.746487 259.454077 
L 218.456458 252.417542 
L 222.521414 242.34138 
L 223.8764 239.373095 
L 225.231386 234.543132 
L 226.586371 228.450625 
L 227.941357 217.38925 
L 229.296342 219.858846 
L 232.006314 220.09394 
L 234.716285 186.651061 
L 236.07127 184.89408 
L 237.426256 182.458315 
L 238.781241 173.905769 
L 240.136227 164.2909 
L 242.846198 156.392402 
L 244.201184 153.679115 
L 245.556169 151.400896 
L 246.911155 149.897101 
L 249.621126 147.624608 
L 252.331097 145.736811 
L 253.686083 145.127996 
L 255.041068 143.34603 
L 256.396054 141.34388 
L 259.106025 139.114178 
L 261.815996 137.483769 
L 263.170982 137.048231 
L 264.525968 136.413779 
L 267.235939 135.978856 
L 274.010867 134.941123 
L 276.720838 134.744063 
L 278.075823 134.594566 
L 284.850751 134.365404 
L 287.560722 134.243964 
L 303.820549 133.983914 
L 322.790348 133.947162 
L 343.115131 133.954922 
L 996.218182 133.954922 
L 996.218182 133.954922 
" clip-path="url(#p1fb4691dc4)" style="fill: none; stroke: #ff7f0e; stroke-width: 4; stroke-linecap: square"/>
   </g>
   <g id="line2d_25">
    <path d="M 184.581818 620.712845 
L 187.291789 384.487811 
L 188.646775 370.132726 
L 190.001761 345.126463 
L 191.356746 327.740634 
L 192.711732 301.678457 
L 194.066717 278.014207 
L 195.421703 266.579398 
L 196.776688 305.179045 
L 198.131674 337.795765 
L 199.48666 366.120014 
L 202.196631 409.815059 
L 203.551616 421.212812 
L 204.906602 437.068375 
L 206.261587 434.966261 
L 207.616573 422.360378 
L 210.326544 394.100605 
L 211.68153 383.342255 
L 213.036515 371.561393 
L 214.391501 380.068628 
L 217.101472 400.807645 
L 219.811443 379.433496 
L 221.166429 372.01205 
L 223.8764 389.37403 
L 225.231386 375.007084 
L 226.586371 366.329708 
L 227.941357 366.117245 
L 229.296342 378.770879 
L 230.651328 374.631622 
L 232.006314 382.841884 
L 233.361299 391.943549 
L 234.716285 395.829007 
L 236.07127 397.464448 
L 238.781241 367.757292 
L 240.136227 349.795995 
L 241.491213 337.110108 
L 242.846198 322.044243 
L 244.201184 308.779389 
L 245.556169 299.624945 
L 246.911155 301.674769 
L 248.266141 313.529429 
L 249.621126 326.535437 
L 252.331097 359.31736 
L 253.686083 368.937465 
L 255.041068 365.572739 
L 256.396054 362.570877 
L 257.75104 357.720298 
L 259.106025 369.236307 
L 260.461011 381.998601 
L 261.815996 387.736653 
L 263.170982 378.79992 
L 264.525968 372.457452 
L 265.880953 379.593011 
L 267.235939 392.393622 
L 268.590924 401.115919 
L 269.94591 387.048698 
L 271.300895 392.682334 
L 274.010867 379.233442 
L 276.720838 391.079095 
L 278.075823 396.175511 
L 279.430809 399.911119 
L 280.785795 402.737003 
L 282.14078 400.73134 
L 283.495766 402.687205 
L 284.850751 403.972236 
L 286.205737 399.108192 
L 287.560722 396.855151 
L 288.915708 397.526716 
L 290.270694 389.501029 
L 291.625679 373.504389 
L 292.980665 361.410569 
L 294.33565 355.248898 
L 295.690636 345.930155 
L 297.045621 335.309898 
L 298.400607 336.138034 
L 299.755593 331.898417 
L 301.110578 325.537977 
L 302.465564 329.452095 
L 303.820549 326.045477 
L 305.175535 320.676659 
L 306.530521 320.760902 
L 307.885506 316.736446 
L 309.240492 319.027958 
L 313.305448 352.370723 
L 314.660434 361.711335 
L 316.01542 363.956551 
L 317.370405 366.992885 
L 318.725391 368.362956 
L 320.080376 368.332409 
L 321.435362 371.093686 
L 322.790348 376.040639 
L 324.145333 372.407085 
L 325.500319 377.648153 
L 326.855304 379.217568 
L 328.21029 376.046678 
L 329.565275 367.82086 
L 330.920261 368.900961 
L 332.275247 372.501259 
L 333.630232 375.019639 
L 334.985218 376.607055 
L 336.340203 383.760189 
L 337.695189 387.423959 
L 339.050175 380.888239 
L 340.40516 382.462008 
L 341.760146 386.489325 
L 343.115131 384.334608 
L 345.825102 395.410398 
L 347.180088 395.326311 
L 348.535074 393.760104 
L 349.890059 392.52359 
L 351.245045 384.904008 
L 352.60003 375.179391 
L 353.955016 367.971579 
L 356.664987 365.626549 
L 358.019973 364.191796 
L 359.374958 367.228081 
L 363.439915 371.826373 
L 364.794901 378.985674 
L 366.149886 379.283935 
L 367.504872 381.59841 
L 368.859857 384.408381 
L 370.214843 383.994043 
L 371.569829 382.992745 
L 372.924814 386.142113 
L 374.2798 386.096729 
L 375.634785 390.045228 
L 376.989771 385.91019 
L 378.344756 385.547246 
L 379.699742 385.028381 
L 381.054728 385.312217 
L 382.409713 382.255731 
L 383.764699 381.984261 
L 385.119684 381.138075 
L 386.47467 378.275618 
L 387.829655 373.619363 
L 390.539627 370.478465 
L 391.894612 369.488656 
L 393.249598 370.814071 
L 394.604583 369.133226 
L 395.959569 366.738278 
L 397.314555 365.094608 
L 398.66954 360.762937 
L 400.024526 357.080417 
L 401.379511 356.996012 
L 402.734497 359.234331 
L 404.089482 357.792126 
L 405.444468 354.71506 
L 406.799454 353.637121 
L 408.154439 346.765838 
L 409.509425 349.497471 
L 410.86441 350.614194 
L 413.574382 357.142262 
L 414.929367 358.586818 
L 417.639338 362.838712 
L 418.994324 365.97173 
L 420.349309 367.899961 
L 421.704295 370.669191 
L 423.059281 375.013096 
L 425.769252 374.962889 
L 427.124237 375.789014 
L 428.479223 380.034598 
L 429.834209 385.436344 
L 431.189194 384.050712 
L 432.54418 385.520486 
L 433.899165 385.882582 
L 435.254151 387.235681 
L 436.609136 387.40692 
L 437.964122 385.728371 
L 439.319108 387.66094 
L 440.674093 388.644148 
L 442.029079 389.1755 
L 443.384064 388.406643 
L 444.73905 389.999873 
L 446.094036 392.587533 
L 447.449021 394.825322 
L 448.804007 404.380603 
L 450.158992 402.351328 
L 451.513978 401.822206 
L 452.868963 397.338884 
L 454.223949 395.233722 
L 455.578935 395.711946 
L 456.93392 394.795864 
L 458.288906 398.813378 
L 459.643891 397.191593 
L 460.998877 399.84279 
L 462.353862 397.106588 
L 463.708848 395.458084 
L 465.063834 394.489145 
L 466.418819 394.576591 
L 467.773805 394.429281 
L 470.483776 389.515501 
L 471.838762 390.385021 
L 473.193747 389.060245 
L 474.548733 390.253452 
L 475.903718 395.049125 
L 477.258704 396.487081 
L 478.613689 397.392626 
L 479.968675 397.512601 
L 481.323661 393.643581 
L 482.678646 395.162953 
L 484.033632 394.7706 
L 485.388617 396.919567 
L 486.743603 397.456703 
L 489.453574 397.368403 
L 490.80856 398.80425 
L 492.163545 401.725718 
L 493.518531 408.594807 
L 494.873516 409.45187 
L 496.228502 410.896003 
L 497.583488 416.263426 
L 498.938473 415.036303 
L 500.293459 416.735927 
L 501.648444 414.484124 
L 503.00343 415.353819 
L 504.358416 413.50384 
L 505.713401 414.352972 
L 507.068387 412.793336 
L 508.423372 410.599617 
L 509.778358 409.136645 
L 511.133343 412.639713 
L 512.488329 413.598276 
L 513.843315 415.203173 
L 515.1983 416.229319 
L 516.553286 413.784085 
L 517.908271 410.111816 
L 519.263257 411.799719 
L 520.618243 408.130952 
L 521.973228 411.800753 
L 523.328214 412.190678 
L 524.683199 411.961454 
L 526.038185 409.395931 
L 527.39317 408.843433 
L 528.748156 409.741204 
L 530.103142 407.756081 
L 531.458127 407.724744 
L 532.813113 407.473199 
L 534.168098 405.088708 
L 535.523084 405.087295 
L 536.87807 403.032618 
L 538.233055 394.971178 
L 540.943026 393.149413 
L 542.298012 394.286498 
L 543.652997 388.562087 
L 545.007983 392.003866 
L 546.362969 392.192755 
L 547.717954 394.184231 
L 549.07294 393.835611 
L 550.427925 397.67166 
L 551.782911 394.390045 
L 553.137896 394.867134 
L 554.492882 392.619086 
L 555.847868 389.793682 
L 557.202853 387.919667 
L 558.557839 389.78348 
L 559.912824 387.736018 
L 561.26781 391.504681 
L 562.622796 393.677323 
L 563.977781 388.789795 
L 565.332767 387.186458 
L 566.687752 383.95103 
L 568.042738 384.198185 
L 569.397723 382.701891 
L 570.752709 382.938212 
L 572.107695 383.858938 
L 573.46268 383.035025 
L 574.817666 383.17529 
L 576.172651 382.418217 
L 577.527637 381.863108 
L 578.882623 384.637095 
L 580.237608 385.62223 
L 581.592594 385.62223 
L 584.302565 388.93427 
L 585.65755 386.683429 
L 587.012536 385.099383 
L 588.367522 384.313919 
L 589.722507 385.188514 
L 591.077493 386.850594 
L 592.432478 389.215074 
L 593.787464 386.435805 
L 595.14245 386.243742 
L 596.497435 395.836435 
L 597.852421 397.002406 
L 599.207406 396.416675 
L 600.562392 393.693723 
L 601.917377 392.619156 
L 603.272363 389.844316 
L 604.627349 392.29835 
L 605.982334 392.323231 
L 607.33732 395.079883 
L 608.692305 394.482955 
L 610.047291 394.131014 
L 611.402277 394.584273 
L 612.757262 393.969739 
L 614.112248 392.540873 
L 615.467233 390.092608 
L 616.822219 390.622611 
L 619.53219 390.622611 
L 620.887176 387.683997 
L 622.242161 387.052441 
L 623.597147 384.941909 
L 624.952132 386.118512 
L 626.307118 386.292585 
L 627.662104 382.170773 
L 629.017089 381.831901 
L 630.372075 383.666666 
L 631.72706 376.556716 
L 633.082046 383.569851 
L 634.437031 384.51177 
L 635.792017 387.800722 
L 637.147003 376.729324 
L 638.501988 375.163425 
L 639.856974 373.846062 
L 641.211959 379.977321 
L 642.566945 382.48702 
L 643.92193 382.48702 
L 645.276916 383.01093 
L 647.986887 388.296713 
L 649.341873 388.466064 
L 650.696858 392.800888 
L 652.051844 391.773554 
L 653.40683 396.752564 
L 654.761815 398.323913 
L 656.116801 401.000162 
L 658.826772 400.279788 
L 660.181757 403.933915 
L 661.536743 406.087182 
L 662.891729 407.50923 
L 664.246714 405.69363 
L 665.6017 408.731014 
L 666.956685 407.823558 
L 668.311671 414.741567 
L 669.666657 414.9649 
L 671.021642 414.9649 
L 672.376628 419.510764 
L 673.731613 409.463253 
L 675.086599 414.74528 
L 676.441584 414.263796 
L 677.79657 417.847626 
L 679.151556 419.012615 
L 680.506541 420.34011 
L 681.861527 418.522285 
L 683.216512 416.403518 
L 684.571498 416.403518 
L 685.926484 419.760595 
L 687.281469 408.425384 
L 688.636455 405.011376 
L 689.99144 408.330094 
L 691.346426 404.016547 
L 692.701411 405.143551 
L 694.056397 397.31236 
L 695.411383 397.153367 
L 698.121354 397.270105 
L 699.476339 398.752547 
L 700.831325 395.665954 
L 702.186311 395.638495 
L 703.541296 396.161559 
L 704.896282 397.647144 
L 706.251267 396.606362 
L 707.606253 396.872183 
L 708.961238 391.685581 
L 710.316224 387.466177 
L 711.67121 380.585429 
L 713.026195 375.072063 
L 714.381181 375.724699 
L 715.736166 373.470434 
L 717.091152 372.917194 
L 718.446138 364.11231 
L 719.801123 360.749317 
L 721.156109 358.644098 
L 722.511094 355.961583 
L 723.86608 356.855161 
L 725.221065 360.203471 
L 726.576051 356.516182 
L 727.931037 364.961957 
L 729.286022 366.208092 
L 730.641008 361.943877 
L 731.995993 358.174328 
L 733.350979 358.257292 
L 734.705964 358.974407 
L 736.06095 357.134989 
L 737.415936 356.948425 
L 738.770921 357.278479 
L 740.125907 353.662992 
L 741.480892 355.907775 
L 742.835878 355.822261 
L 744.190864 354.888571 
L 745.545849 359.556359 
L 746.900835 361.82704 
L 748.25582 366.622132 
L 749.610806 368.948912 
L 750.965791 373.322758 
L 752.320777 379.311586 
L 753.675763 383.83073 
L 755.030748 386.244543 
L 756.385734 384.39756 
L 757.740719 385.748564 
L 759.095705 391.346093 
L 760.450691 396.337913 
L 761.805676 398.995995 
L 763.160662 401.984358 
L 764.515647 401.053565 
L 765.870633 399.177417 
L 767.225618 400.406003 
L 768.580604 399.400779 
L 769.93559 399.523101 
L 771.290575 402.184385 
L 772.645561 404.154126 
L 774.000546 402.500312 
L 776.710518 404.913595 
L 778.065503 405.389343 
L 779.420489 408.46895 
L 780.775474 412.086657 
L 782.13046 408.584734 
L 783.485445 409.22472 
L 784.840431 409.33124 
L 786.195417 404.427623 
L 787.550402 406.223312 
L 788.905388 403.673831 
L 790.260373 404.213408 
L 791.615359 401.115497 
L 792.970345 401.376851 
L 794.32533 401.147054 
L 795.680316 398.529426 
L 797.035301 399.33864 
L 798.390287 399.420596 
L 799.745272 396.845539 
L 801.100258 393.059939 
L 802.455244 393.559754 
L 805.165215 392.473847 
L 806.5202 393.379599 
L 807.875186 393.89596 
L 809.230171 397.852681 
L 810.585157 395.650773 
L 811.940143 392.621693 
L 813.295128 393.629365 
L 814.650114 397.206719 
L 816.005099 397.267853 
L 817.360085 397.830833 
L 818.715071 395.544613 
L 820.070056 393.535769 
L 821.425042 392.368009 
L 822.780027 395.177296 
L 824.135013 398.883874 
L 825.489998 400.342107 
L 826.844984 401.002132 
L 828.19997 400.909332 
L 829.554955 390.936046 
L 832.264926 392.481764 
L 834.974898 392.401472 
L 836.329883 393.807624 
L 837.684869 393.733448 
L 839.039854 393.461065 
L 840.39484 396.630551 
L 841.749825 399.427549 
L 843.104811 400.723685 
L 844.459797 403.384122 
L 845.814782 407.059894 
L 847.169768 405.406322 
L 848.524753 406.365431 
L 849.879739 403.432846 
L 851.234725 404.70286 
L 852.58971 404.394202 
L 853.944696 405.56835 
L 855.299681 404.156784 
L 856.654667 404.314081 
L 858.009652 402.147666 
L 859.364638 404.424757 
L 860.719624 404.998562 
L 862.074609 405.409026 
L 863.429595 404.022769 
L 864.78458 398.341113 
L 866.139566 395.174072 
L 867.494552 393.756212 
L 868.849537 391.31611 
L 870.204523 398.603323 
L 871.559508 398.603323 
L 872.914494 399.71251 
L 874.269479 399.908158 
L 875.624465 399.467051 
L 878.334436 399.922481 
L 879.689422 399.898598 
L 881.044407 398.683775 
L 882.399393 399.602815 
L 883.754379 396.803673 
L 885.109364 395.923355 
L 886.46435 396.32915 
L 887.819335 397.881477 
L 889.174321 398.009232 
L 890.529306 400.547979 
L 891.884292 399.878232 
L 893.239278 400.022373 
L 894.594263 400.038514 
L 895.949249 397.945443 
L 897.304234 398.142051 
L 898.65922 399.265441 
L 900.014205 398.536085 
L 901.369191 399.616829 
L 902.724177 399.525622 
L 905.434148 405.582598 
L 906.789133 403.783839 
L 908.144119 403.687164 
L 909.499105 403.931395 
L 910.85409 403.706303 
L 912.209076 403.911726 
L 913.564061 403.412144 
L 914.919047 403.47404 
L 916.274032 402.953357 
L 917.629018 400.314745 
L 918.984004 400.7449 
L 920.338989 400.43461 
L 921.693975 397.32578 
L 923.04896 398.1101 
L 924.403946 397.702192 
L 925.758932 396.271561 
L 927.113917 391.369872 
L 928.468903 390.542485 
L 929.823888 388.714703 
L 931.178874 386.680919 
L 932.533859 387.782706 
L 933.888845 389.76957 
L 935.243831 386.752628 
L 936.598816 389.468089 
L 937.953802 390.351839 
L 939.308787 391.626744 
L 940.663773 391.097544 
L 942.018759 388.67087 
L 943.373744 388.66444 
L 944.72873 384.620957 
L 946.083715 384.042118 
L 947.438701 387.322298 
L 948.793686 387.838623 
L 951.503658 387.767018 
L 952.858643 387.181041 
L 954.213629 380.849442 
L 955.568614 381.949937 
L 956.9236 382.48947 
L 958.278586 382.202859 
L 959.633571 380.871762 
L 960.988557 379.062276 
L 962.343542 382.827933 
L 963.698528 376.994994 
L 965.053513 377.940134 
L 966.408499 377.779729 
L 967.763485 377.988373 
L 969.11847 379.284692 
L 970.473456 378.89948 
L 971.828441 381.631465 
L 973.183427 378.302211 
L 974.538413 376.991405 
L 975.893398 382.797768 
L 977.248384 380.95671 
L 978.603369 377.266377 
L 979.958355 376.664633 
L 981.31334 373.903529 
L 982.668326 375.475765 
L 984.023312 374.856 
L 985.378297 374.642815 
L 986.733283 373.429923 
L 988.088268 375.183298 
L 989.443254 375.374829 
L 990.798239 374.833138 
L 992.153225 376.092909 
L 993.508211 375.249148 
L 994.863196 385.660876 
L 996.218182 383.771997 
L 996.218182 383.771997 
" clip-path="url(#p1fb4691dc4)" style="fill: none; stroke: #2ca02c; stroke-width: 4; stroke-linecap: square"/>
   </g>
   <g id="line2d_26"/>
   <g id="line2d_27"/>
   <g id="line2d_28"/>
   <g id="patch_3">
    <path d="M 144 768.96 
L 144 103.68 
" style="fill: none; stroke: #000000; stroke-width: 0.8; stroke-linejoin: miter; stroke-linecap: square"/>
   </g>
   <g id="patch_4">
    <path d="M 1036.8 768.96 
L 1036.8 103.68 
" style="fill: none; stroke: #000000; stroke-width: 0.8; stroke-linejoin: miter; stroke-linecap: square"/>
   </g>
   <g id="patch_5">
    <path d="M 144 768.96 
L 1036.8 768.96 
" style="fill: none; stroke: #000000; stroke-width: 0.8; stroke-linejoin: miter; stroke-linecap: square"/>
   </g>
   <g id="patch_6">
    <path d="M 144 103.68 
L 1036.8 103.68 
" style="fill: none; stroke: #000000; stroke-width: 0.8; stroke-linejoin: miter; stroke-linecap: square"/>
   </g>
   <g id="text_14">
    <!-- client3 -->
    <g transform="translate(488.915625 91.201875) scale(0.6 -0.6)">
     <defs>
      <path id="DejaVuSans-63" d="M 3122 3366 
L 3122 2828 
Q 2878 2963 2633 3030 
Q 2388 3097 2138 3097 
Q 1578 3097 1268 2742 
Q 959 2388 959 1747 
Q 959 1106 1268 751 
Q 1578 397 2138 397 
Q 2388 397 2633 464 
Q 2878 531 3122 666 
L 3122 134 
Q 2881 22 2623 -34 
Q 2366 -91 2075 -91 
Q 1284 -91 818 406 
Q 353 903 353 1747 
Q 353 2603 823 3093 
Q 1294 3584 2113 3584 
Q 2378 3584 2631 3529 
Q 2884 3475 3122 3366 
z
" transform="scale(0.015625)"/>
      <path id="DejaVuSans-6c" d="M 603 4863 
L 1178 4863 
L 1178 0 
L 603 0 
L 603 4863 
z
" transform="scale(0.015625)"/>
      <path id="DejaVuSans-33" d="M 2597 2516 
Q 3050 2419 3304 2112 
Q 3559 1806 3559 1356 
Q 3559 666 3084 287 
Q 2609 -91 1734 -91 
Q 1441 -91 1130 -33 
Q 819 25 488 141 
L 488 750 
Q 750 597 1062 519 
Q 1375 441 1716 441 
Q 2309 441 2620 675 
Q 2931 909 2931 1356 
Q 2931 1769 2642 2001 
Q 2353 2234 1838 2234 
L 1294 2234 
L 1294 2753 
L 1863 2753 
Q 2328 2753 2575 2939 
Q 2822 3125 2822 3475 
Q 2822 3834 2567 4026 
Q 2313 4219 1838 4219 
Q 1578 4219 1281 4162 
Q 984 4106 628 3988 
L 628 4550 
Q 988 4650 1302 4700 
Q 1616 4750 1894 4750 
Q 2613 4750 3031 4423 
Q 3450 4097 3450 3541 
Q 3450 3153 3228 2886 
Q 3006 2619 2597 2516 
z
" transform="scale(0.015625)"/>
     </defs>
     <use xlink:href="#DejaVuSans-63"/>
     <use xlink:href="#DejaVuSans-6c" x="54.980469"/>
     <use xlink:href="#DejaVuSans-69" x="82.763672"/>
     <use xlink:href="#DejaVuSans-65" x="110.546875"/>
     <use xlink:href="#DejaVuSans-6e" x="172.070312"/>
     <use xlink:href="#DejaVuSans-74" x="235.449219"/>
     <use xlink:href="#DejaVuSans-33" x="274.658203"/>
    </g>
   </g>
   <g id="legend_1">
    <g id="patch_7">
     <path d="M 172 748.96 
L 828.2375 748.96 
Q 836.2375 748.96 836.2375 740.96 
L 836.2375 567.71 
Q 836.2375 559.71 828.2375 559.71 
L 172 559.71 
Q 164 559.71 164 567.71 
L 164 740.96 
Q 164 748.96 172 748.96 
z
" style="fill: #ffffff; opacity: 0.8; stroke: #cccccc; stroke-linejoin: miter"/>
    </g>
    <g id="line2d_29">
     <path d="M 180 592.10375 
L 220 592.10375 
L 260 592.10375 
" style="fill: none; stroke: #1f77b4; stroke-width: 4; stroke-linecap: square"/>
    </g>
    <g id="text_15">
     <!-- fedavg_private_regressors -->
     <g transform="translate(292 606.10375) scale(0.4 -0.4)">
      <defs>
       <path id="DejaVuSans-66" d="M 2375 4863 
L 2375 4384 
L 1825 4384 
Q 1516 4384 1395 4259 
Q 1275 4134 1275 3809 
L 1275 3500 
L 2222 3500 
L 2222 3053 
L 1275 3053 
L 1275 0 
L 697 0 
L 697 3053 
L 147 3053 
L 147 3500 
L 697 3500 
L 697 3744 
Q 697 4328 969 4595 
Q 1241 4863 1831 4863 
L 2375 4863 
z
" transform="scale(0.015625)"/>
       <path id="DejaVuSans-64" d="M 2906 2969 
L 2906 4863 
L 3481 4863 
L 3481 0 
L 2906 0 
L 2906 525 
Q 2725 213 2448 61 
Q 2172 -91 1784 -91 
Q 1150 -91 751 415 
Q 353 922 353 1747 
Q 353 2572 751 3078 
Q 1150 3584 1784 3584 
Q 2172 3584 2448 3432 
Q 2725 3281 2906 2969 
z
M 947 1747 
Q 947 1113 1208 752 
Q 1469 391 1925 391 
Q 2381 391 2643 752 
Q 2906 1113 2906 1747 
Q 2906 2381 2643 2742 
Q 2381 3103 1925 3103 
Q 1469 3103 1208 2742 
Q 947 2381 947 1747 
z
" transform="scale(0.015625)"/>
       <path id="DejaVuSans-76" d="M 191 3500 
L 800 3500 
L 1894 563 
L 2988 3500 
L 3597 3500 
L 2284 0 
L 1503 0 
L 191 3500 
z
" transform="scale(0.015625)"/>
       <path id="DejaVuSans-67" d="M 2906 1791 
Q 2906 2416 2648 2759 
Q 2391 3103 1925 3103 
Q 1463 3103 1205 2759 
Q 947 2416 947 1791 
Q 947 1169 1205 825 
Q 1463 481 1925 481 
Q 2391 481 2648 825 
Q 2906 1169 2906 1791 
z
M 3481 434 
Q 3481 -459 3084 -895 
Q 2688 -1331 1869 -1331 
Q 1566 -1331 1297 -1286 
Q 1028 -1241 775 -1147 
L 775 -588 
Q 1028 -725 1275 -790 
Q 1522 -856 1778 -856 
Q 2344 -856 2625 -561 
Q 2906 -266 2906 331 
L 2906 616 
Q 2728 306 2450 153 
Q 2172 0 1784 0 
Q 1141 0 747 490 
Q 353 981 353 1791 
Q 353 2603 747 3093 
Q 1141 3584 1784 3584 
Q 2172 3584 2450 3431 
Q 2728 3278 2906 2969 
L 2906 3500 
L 3481 3500 
L 3481 434 
z
" transform="scale(0.015625)"/>
       <path id="DejaVuSans-5f" d="M 3263 -1063 
L 3263 -1509 
L -63 -1509 
L -63 -1063 
L 3263 -1063 
z
" transform="scale(0.015625)"/>
      </defs>
      <use xlink:href="#DejaVuSans-66"/>
      <use xlink:href="#DejaVuSans-65" x="35.205078"/>
      <use xlink:href="#DejaVuSans-64" x="96.728516"/>
      <use xlink:href="#DejaVuSans-61" x="160.205078"/>
      <use xlink:href="#DejaVuSans-76" x="221.484375"/>
      <use xlink:href="#DejaVuSans-67" x="280.664062"/>
      <use xlink:href="#DejaVuSans-5f" x="344.140625"/>
      <use xlink:href="#DejaVuSans-70" x="394.140625"/>
      <use xlink:href="#DejaVuSans-72" x="457.617188"/>
      <use xlink:href="#DejaVuSans-69" x="498.730469"/>
      <use xlink:href="#DejaVuSans-76" x="526.513672"/>
      <use xlink:href="#DejaVuSans-61" x="585.693359"/>
      <use xlink:href="#DejaVuSans-74" x="646.972656"/>
      <use xlink:href="#DejaVuSans-65" x="686.181641"/>
      <use xlink:href="#DejaVuSans-5f" x="747.705078"/>
      <use xlink:href="#DejaVuSans-72" x="797.705078"/>
      <use xlink:href="#DejaVuSans-65" x="836.568359"/>
      <use xlink:href="#DejaVuSans-67" x="898.091797"/>
      <use xlink:href="#DejaVuSans-72" x="961.568359"/>
      <use xlink:href="#DejaVuSans-65" x="1000.431641"/>
      <use xlink:href="#DejaVuSans-73" x="1061.955078"/>
      <use xlink:href="#DejaVuSans-73" x="1114.054688"/>
      <use xlink:href="#DejaVuSans-6f" x="1166.154297"/>
      <use xlink:href="#DejaVuSans-72" x="1227.335938"/>
      <use xlink:href="#DejaVuSans-73" x="1268.449219"/>
     </g>
    </g>
    <g id="line2d_30">
     <path d="M 180 651.92875 
L 220 651.92875 
L 260 651.92875 
" style="fill: none; stroke: #ff7f0e; stroke-width: 4; stroke-linecap: square"/>
    </g>
    <g id="text_16">
     <!-- fedavg -->
     <g transform="translate(292 665.92875) scale(0.4 -0.4)">
      <use xlink:href="#DejaVuSans-66"/>
      <use xlink:href="#DejaVuSans-65" x="35.205078"/>
      <use xlink:href="#DejaVuSans-64" x="96.728516"/>
      <use xlink:href="#DejaVuSans-61" x="160.205078"/>
      <use xlink:href="#DejaVuSans-76" x="221.484375"/>
      <use xlink:href="#DejaVuSans-67" x="280.664062"/>
     </g>
    </g>
    <g id="line2d_31">
     <path d="M 180 710.64125 
L 220 710.64125 
L 260 710.64125 
" style="fill: none; stroke: #2ca02c; stroke-width: 4; stroke-linecap: square"/>
    </g>
    <g id="text_17">
     <!-- local -->
     <g transform="translate(292 724.64125) scale(0.4 -0.4)">
      <use xlink:href="#DejaVuSans-6c"/>
      <use xlink:href="#DejaVuSans-6f" x="27.783203"/>
      <use xlink:href="#DejaVuSans-63" x="88.964844"/>
      <use xlink:href="#DejaVuSans-61" x="143.945312"/>
      <use xlink:href="#DejaVuSans-6c" x="205.224609"/>
     </g>
    </g>
   </g>
  </g>
 </g>
 <defs>
  <clipPath id="p1fb4691dc4">
   <rect x="144" y="103.68" width="892.8" height="665.28"/>
  </clipPath>
 </defs>
</svg>
