<?xml version="1.0" encoding="utf-8" standalone="no"?>
<!DOCTYPE svg PUBLIC "-//W3C//DTD SVG 1.1//EN"
  "http://www.w3.org/Graphics/SVG/1.1/DTD/svg11.dtd">
<svg xmlns:xlink="http://www.w3.org/1999/xlink" width="1152pt" height="864pt" viewBox="0 0 1152 864" xmlns="http://www.w3.org/2000/svg" version="1.1">
 <metadata>
  <rdf:RDF xmlns:dc="http://purl.org/dc/elements/1.1/" xmlns:cc="http://creativecommons.org/ns#" xmlns:rdf="http://www.w3.org/1999/02/22-rdf-syntax-ns#">
   <cc:Work>
    <dc:type rdf:resource="http://purl.org/dc/dcmitype/StillImage"/>
    <dc:date>2025-04-25T14:41:04.415143</dc:date>
    <dc:format>image/svg+xml</dc:format>
    <dc:creator>
     <cc:Agent>
      <dc:title>Matplotlib v3.8.2, https://matplotlib.org/</dc:title>
     </cc:Agent>
    </dc:creator>
   </cc:Work>
  </rdf:RDF>
 </metadata>
 <defs>
  <style type="text/css">*{stroke-linejoin: round; stroke-linecap: butt}</style>
 </defs>
 <g id="figure_1">
  <g id="patch_1">
   <path d="M 0 864 
L 1152 864 
L 1152 0 
L 0 0 
z
" style="fill: #ffffff"/>
  </g>
  <g id="axes_1">
   <g id="patch_2">
    <path d="M 144 768.96 
L 1036.8 768.96 
L 1036.8 103.68 
L 144 103.68 
z
" style="fill: #ffffff"/>
   </g>
   <g id="PolyCollection_1"/>
   <g id="PolyCollection_2"/>
   <g id="PolyCollection_3"/>
   <g id="matplotlib.axis_1">
    <g id="xtick_1">
     <g id="line2d_1">
      <path d="M 183.226833 768.96 
L 183.226833 103.68 
" clip-path="url(#pfe0d1bcb99)" style="fill: none; stroke: #b0b0b0; stroke-width: 0.8; stroke-linecap: square"/>
     </g>
     <g id="line2d_2">
      <defs>
       <path id="mf3eda988e8" d="M 0 0 
L 0 3.5 
" style="stroke: #000000; stroke-width: 0.8"/>
      </defs>
      <g>
       <use xlink:href="#mf3eda988e8" x="183.226833" y="768.96" style="stroke: #000000; stroke-width: 0.8"/>
      </g>
     </g>
     <g id="text_1">
      <!-- 0 -->
      <g transform="translate(173.683083 798.755312) scale(0.3 -0.3)">
       <defs>
        <path id="DejaVuSans-30" d="M 2034 4250 
Q 1547 4250 1301 3770 
Q 1056 3291 1056 2328 
Q 1056 1369 1301 889 
Q 1547 409 2034 409 
Q 2525 409 2770 889 
Q 3016 1369 3016 2328 
Q 3016 3291 2770 3770 
Q 2525 4250 2034 4250 
z
M 2034 4750 
Q 2819 4750 3233 4129 
Q 3647 3509 3647 2328 
Q 3647 1150 3233 529 
Q 2819 -91 2034 -91 
Q 1250 -91 836 529 
Q 422 1150 422 2328 
Q 422 3509 836 4129 
Q 1250 4750 2034 4750 
z
" transform="scale(0.015625)"/>
       </defs>
       <use xlink:href="#DejaVuSans-30"/>
      </g>
     </g>
    </g>
    <g id="xtick_2">
     <g id="line2d_3">
      <path d="M 283.596135 768.96 
L 283.596135 103.68 
" clip-path="url(#pfe0d1bcb99)" style="fill: none; stroke: #b0b0b0; stroke-width: 0.8; stroke-linecap: square"/>
     </g>
     <g id="line2d_4">
      <g>
       <use xlink:href="#mf3eda988e8" x="283.596135" y="768.96" style="stroke: #000000; stroke-width: 0.8"/>
      </g>
     </g>
     <g id="text_2">
      <!-- 2000 -->
      <g transform="translate(245.421135 798.755312) scale(0.3 -0.3)">
       <defs>
        <path id="DejaVuSans-32" d="M 1228 531 
L 3431 531 
L 3431 0 
L 469 0 
L 469 531 
Q 828 903 1448 1529 
Q 2069 2156 2228 2338 
Q 2531 2678 2651 2914 
Q 2772 3150 2772 3378 
Q 2772 3750 2511 3984 
Q 2250 4219 1831 4219 
Q 1534 4219 1204 4116 
Q 875 4013 500 3803 
L 500 4441 
Q 881 4594 1212 4672 
Q 1544 4750 1819 4750 
Q 2544 4750 2975 4387 
Q 3406 4025 3406 3419 
Q 3406 3131 3298 2873 
Q 3191 2616 2906 2266 
Q 2828 2175 2409 1742 
Q 1991 1309 1228 531 
z
" transform="scale(0.015625)"/>
       </defs>
       <use xlink:href="#DejaVuSans-32"/>
       <use xlink:href="#DejaVuSans-30" x="63.623047"/>
       <use xlink:href="#DejaVuSans-30" x="127.246094"/>
       <use xlink:href="#DejaVuSans-30" x="190.869141"/>
      </g>
     </g>
    </g>
    <g id="xtick_3">
     <g id="line2d_5">
      <path d="M 383.965437 768.96 
L 383.965437 103.68 
" clip-path="url(#pfe0d1bcb99)" style="fill: none; stroke: #b0b0b0; stroke-width: 0.8; stroke-linecap: square"/>
     </g>
     <g id="line2d_6">
      <g>
       <use xlink:href="#mf3eda988e8" x="383.965437" y="768.96" style="stroke: #000000; stroke-width: 0.8"/>
      </g>
     </g>
     <g id="text_3">
      <!-- 4000 -->
      <g transform="translate(345.790437 798.755312) scale(0.3 -0.3)">
       <defs>
        <path id="DejaVuSans-34" d="M 2419 4116 
L 825 1625 
L 2419 1625 
L 2419 4116 
z
M 2253 4666 
L 3047 4666 
L 3047 1625 
L 3713 1625 
L 3713 1100 
L 3047 1100 
L 3047 0 
L 2419 0 
L 2419 1100 
L 313 1100 
L 313 1709 
L 2253 4666 
z
" transform="scale(0.015625)"/>
       </defs>
       <use xlink:href="#DejaVuSans-34"/>
       <use xlink:href="#DejaVuSans-30" x="63.623047"/>
       <use xlink:href="#DejaVuSans-30" x="127.246094"/>
       <use xlink:href="#DejaVuSans-30" x="190.869141"/>
      </g>
     </g>
    </g>
    <g id="xtick_4">
     <g id="line2d_7">
      <path d="M 484.33474 768.96 
L 484.33474 103.68 
" clip-path="url(#pfe0d1bcb99)" style="fill: none; stroke: #b0b0b0; stroke-width: 0.8; stroke-linecap: square"/>
     </g>
     <g id="line2d_8">
      <g>
       <use xlink:href="#mf3eda988e8" x="484.33474" y="768.96" style="stroke: #000000; stroke-width: 0.8"/>
      </g>
     </g>
     <g id="text_4">
      <!-- 6000 -->
      <g transform="translate(446.15974 798.755312) scale(0.3 -0.3)">
       <defs>
        <path id="DejaVuSans-36" d="M 2113 2584 
Q 1688 2584 1439 2293 
Q 1191 2003 1191 1497 
Q 1191 994 1439 701 
Q 1688 409 2113 409 
Q 2538 409 2786 701 
Q 3034 994 3034 1497 
Q 3034 2003 2786 2293 
Q 2538 2584 2113 2584 
z
M 3366 4563 
L 3366 3988 
Q 3128 4100 2886 4159 
Q 2644 4219 2406 4219 
Q 1781 4219 1451 3797 
Q 1122 3375 1075 2522 
Q 1259 2794 1537 2939 
Q 1816 3084 2150 3084 
Q 2853 3084 3261 2657 
Q 3669 2231 3669 1497 
Q 3669 778 3244 343 
Q 2819 -91 2113 -91 
Q 1303 -91 875 529 
Q 447 1150 447 2328 
Q 447 3434 972 4092 
Q 1497 4750 2381 4750 
Q 2619 4750 2861 4703 
Q 3103 4656 3366 4563 
z
" transform="scale(0.015625)"/>
       </defs>
       <use xlink:href="#DejaVuSans-36"/>
       <use xlink:href="#DejaVuSans-30" x="63.623047"/>
       <use xlink:href="#DejaVuSans-30" x="127.246094"/>
       <use xlink:href="#DejaVuSans-30" x="190.869141"/>
      </g>
     </g>
    </g>
    <g id="xtick_5">
     <g id="line2d_9">
      <path d="M 584.704042 768.96 
L 584.704042 103.68 
" clip-path="url(#pfe0d1bcb99)" style="fill: none; stroke: #b0b0b0; stroke-width: 0.8; stroke-linecap: square"/>
     </g>
     <g id="line2d_10">
      <g>
       <use xlink:href="#mf3eda988e8" x="584.704042" y="768.96" style="stroke: #000000; stroke-width: 0.8"/>
      </g>
     </g>
     <g id="text_5">
      <!-- 8000 -->
      <g transform="translate(546.529042 798.755312) scale(0.3 -0.3)">
       <defs>
        <path id="DejaVuSans-38" d="M 2034 2216 
Q 1584 2216 1326 1975 
Q 1069 1734 1069 1313 
Q 1069 891 1326 650 
Q 1584 409 2034 409 
Q 2484 409 2743 651 
Q 3003 894 3003 1313 
Q 3003 1734 2745 1975 
Q 2488 2216 2034 2216 
z
M 1403 2484 
Q 997 2584 770 2862 
Q 544 3141 544 3541 
Q 544 4100 942 4425 
Q 1341 4750 2034 4750 
Q 2731 4750 3128 4425 
Q 3525 4100 3525 3541 
Q 3525 3141 3298 2862 
Q 3072 2584 2669 2484 
Q 3125 2378 3379 2068 
Q 3634 1759 3634 1313 
Q 3634 634 3220 271 
Q 2806 -91 2034 -91 
Q 1263 -91 848 271 
Q 434 634 434 1313 
Q 434 1759 690 2068 
Q 947 2378 1403 2484 
z
M 1172 3481 
Q 1172 3119 1398 2916 
Q 1625 2713 2034 2713 
Q 2441 2713 2670 2916 
Q 2900 3119 2900 3481 
Q 2900 3844 2670 4047 
Q 2441 4250 2034 4250 
Q 1625 4250 1398 4047 
Q 1172 3844 1172 3481 
z
" transform="scale(0.015625)"/>
       </defs>
       <use xlink:href="#DejaVuSans-38"/>
       <use xlink:href="#DejaVuSans-30" x="63.623047"/>
       <use xlink:href="#DejaVuSans-30" x="127.246094"/>
       <use xlink:href="#DejaVuSans-30" x="190.869141"/>
      </g>
     </g>
    </g>
    <g id="xtick_6">
     <g id="line2d_11">
      <path d="M 685.073344 768.96 
L 685.073344 103.68 
" clip-path="url(#pfe0d1bcb99)" style="fill: none; stroke: #b0b0b0; stroke-width: 0.8; stroke-linecap: square"/>
     </g>
     <g id="line2d_12">
      <g>
       <use xlink:href="#mf3eda988e8" x="685.073344" y="768.96" style="stroke: #000000; stroke-width: 0.8"/>
      </g>
     </g>
     <g id="text_6">
      <!-- 10000 -->
      <g transform="translate(637.354594 798.755312) scale(0.3 -0.3)">
       <defs>
        <path id="DejaVuSans-31" d="M 794 531 
L 1825 531 
L 1825 4091 
L 703 3866 
L 703 4441 
L 1819 4666 
L 2450 4666 
L 2450 531 
L 3481 531 
L 3481 0 
L 794 0 
L 794 531 
z
" transform="scale(0.015625)"/>
       </defs>
       <use xlink:href="#DejaVuSans-31"/>
       <use xlink:href="#DejaVuSans-30" x="63.623047"/>
       <use xlink:href="#DejaVuSans-30" x="127.246094"/>
       <use xlink:href="#DejaVuSans-30" x="190.869141"/>
       <use xlink:href="#DejaVuSans-30" x="254.492188"/>
      </g>
     </g>
    </g>
    <g id="xtick_7">
     <g id="line2d_13">
      <path d="M 785.442647 768.96 
L 785.442647 103.68 
" clip-path="url(#pfe0d1bcb99)" style="fill: none; stroke: #b0b0b0; stroke-width: 0.8; stroke-linecap: square"/>
     </g>
     <g id="line2d_14">
      <g>
       <use xlink:href="#mf3eda988e8" x="785.442647" y="768.96" style="stroke: #000000; stroke-width: 0.8"/>
      </g>
     </g>
     <g id="text_7">
      <!-- 12000 -->
      <g transform="translate(737.723897 798.755312) scale(0.3 -0.3)">
       <use xlink:href="#DejaVuSans-31"/>
       <use xlink:href="#DejaVuSans-32" x="63.623047"/>
       <use xlink:href="#DejaVuSans-30" x="127.246094"/>
       <use xlink:href="#DejaVuSans-30" x="190.869141"/>
       <use xlink:href="#DejaVuSans-30" x="254.492188"/>
      </g>
     </g>
    </g>
    <g id="xtick_8">
     <g id="line2d_15">
      <path d="M 885.811949 768.96 
L 885.811949 103.68 
" clip-path="url(#pfe0d1bcb99)" style="fill: none; stroke: #b0b0b0; stroke-width: 0.8; stroke-linecap: square"/>
     </g>
     <g id="line2d_16">
      <g>
       <use xlink:href="#mf3eda988e8" x="885.811949" y="768.96" style="stroke: #000000; stroke-width: 0.8"/>
      </g>
     </g>
     <g id="text_8">
      <!-- 14000 -->
      <g transform="translate(838.093199 798.755312) scale(0.3 -0.3)">
       <use xlink:href="#DejaVuSans-31"/>
       <use xlink:href="#DejaVuSans-34" x="63.623047"/>
       <use xlink:href="#DejaVuSans-30" x="127.246094"/>
       <use xlink:href="#DejaVuSans-30" x="190.869141"/>
       <use xlink:href="#DejaVuSans-30" x="254.492188"/>
      </g>
     </g>
    </g>
    <g id="xtick_9">
     <g id="line2d_17">
      <path d="M 986.181252 768.96 
L 986.181252 103.68 
" clip-path="url(#pfe0d1bcb99)" style="fill: none; stroke: #b0b0b0; stroke-width: 0.8; stroke-linecap: square"/>
     </g>
     <g id="line2d_18">
      <g>
       <use xlink:href="#mf3eda988e8" x="986.181252" y="768.96" style="stroke: #000000; stroke-width: 0.8"/>
      </g>
     </g>
     <g id="text_9">
      <!-- 16000 -->
      <g transform="translate(938.462502 798.755312) scale(0.3 -0.3)">
       <use xlink:href="#DejaVuSans-31"/>
       <use xlink:href="#DejaVuSans-36" x="63.623047"/>
       <use xlink:href="#DejaVuSans-30" x="127.246094"/>
       <use xlink:href="#DejaVuSans-30" x="190.869141"/>
       <use xlink:href="#DejaVuSans-30" x="254.492188"/>
      </g>
     </g>
    </g>
    <g id="text_10">
     <!-- Steps -->
     <g transform="translate(534.440625 839.388125) scale(0.4 -0.4)">
      <defs>
       <path id="DejaVuSans-53" d="M 3425 4513 
L 3425 3897 
Q 3066 4069 2747 4153 
Q 2428 4238 2131 4238 
Q 1616 4238 1336 4038 
Q 1056 3838 1056 3469 
Q 1056 3159 1242 3001 
Q 1428 2844 1947 2747 
L 2328 2669 
Q 3034 2534 3370 2195 
Q 3706 1856 3706 1288 
Q 3706 609 3251 259 
Q 2797 -91 1919 -91 
Q 1588 -91 1214 -16 
Q 841 59 441 206 
L 441 856 
Q 825 641 1194 531 
Q 1563 422 1919 422 
Q 2459 422 2753 634 
Q 3047 847 3047 1241 
Q 3047 1584 2836 1778 
Q 2625 1972 2144 2069 
L 1759 2144 
Q 1053 2284 737 2584 
Q 422 2884 422 3419 
Q 422 4038 858 4394 
Q 1294 4750 2059 4750 
Q 2388 4750 2728 4690 
Q 3069 4631 3425 4513 
z
" transform="scale(0.015625)"/>
       <path id="DejaVuSans-74" d="M 1172 4494 
L 1172 3500 
L 2356 3500 
L 2356 3053 
L 1172 3053 
L 1172 1153 
Q 1172 725 1289 603 
Q 1406 481 1766 481 
L 2356 481 
L 2356 0 
L 1766 0 
Q 1100 0 847 248 
Q 594 497 594 1153 
L 594 3053 
L 172 3053 
L 172 3500 
L 594 3500 
L 594 4494 
L 1172 4494 
z
" transform="scale(0.015625)"/>
       <path id="DejaVuSans-65" d="M 3597 1894 
L 3597 1613 
L 953 1613 
Q 991 1019 1311 708 
Q 1631 397 2203 397 
Q 2534 397 2845 478 
Q 3156 559 3463 722 
L 3463 178 
Q 3153 47 2828 -22 
Q 2503 -91 2169 -91 
Q 1331 -91 842 396 
Q 353 884 353 1716 
Q 353 2575 817 3079 
Q 1281 3584 2069 3584 
Q 2775 3584 3186 3129 
Q 3597 2675 3597 1894 
z
M 3022 2063 
Q 3016 2534 2758 2815 
Q 2500 3097 2075 3097 
Q 1594 3097 1305 2825 
Q 1016 2553 972 2059 
L 3022 2063 
z
" transform="scale(0.015625)"/>
       <path id="DejaVuSans-70" d="M 1159 525 
L 1159 -1331 
L 581 -1331 
L 581 3500 
L 1159 3500 
L 1159 2969 
Q 1341 3281 1617 3432 
Q 1894 3584 2278 3584 
Q 2916 3584 3314 3078 
Q 3713 2572 3713 1747 
Q 3713 922 3314 415 
Q 2916 -91 2278 -91 
Q 1894 -91 1617 61 
Q 1341 213 1159 525 
z
M 3116 1747 
Q 3116 2381 2855 2742 
Q 2594 3103 2138 3103 
Q 1681 3103 1420 2742 
Q 1159 2381 1159 1747 
Q 1159 1113 1420 752 
Q 1681 391 2138 391 
Q 2594 391 2855 752 
Q 3116 1113 3116 1747 
z
" transform="scale(0.015625)"/>
       <path id="DejaVuSans-73" d="M 2834 3397 
L 2834 2853 
Q 2591 2978 2328 3040 
Q 2066 3103 1784 3103 
Q 1356 3103 1142 2972 
Q 928 2841 928 2578 
Q 928 2378 1081 2264 
Q 1234 2150 1697 2047 
L 1894 2003 
Q 2506 1872 2764 1633 
Q 3022 1394 3022 966 
Q 3022 478 2636 193 
Q 2250 -91 1575 -91 
Q 1294 -91 989 -36 
Q 684 19 347 128 
L 347 722 
Q 666 556 975 473 
Q 1284 391 1588 391 
Q 1994 391 2212 530 
Q 2431 669 2431 922 
Q 2431 1156 2273 1281 
Q 2116 1406 1581 1522 
L 1381 1569 
Q 847 1681 609 1914 
Q 372 2147 372 2553 
Q 372 3047 722 3315 
Q 1072 3584 1716 3584 
Q 2034 3584 2315 3537 
Q 2597 3491 2834 3397 
z
" transform="scale(0.015625)"/>
      </defs>
      <use xlink:href="#DejaVuSans-53"/>
      <use xlink:href="#DejaVuSans-74" x="63.476562"/>
      <use xlink:href="#DejaVuSans-65" x="102.685547"/>
      <use xlink:href="#DejaVuSans-70" x="164.208984"/>
      <use xlink:href="#DejaVuSans-73" x="227.685547"/>
     </g>
    </g>
   </g>
   <g id="matplotlib.axis_2">
    <g id="ytick_1">
     <g id="line2d_19">
      <path d="M 144 718.472554 
L 1036.8 718.472554 
" clip-path="url(#pfe0d1bcb99)" style="fill: none; stroke: #b0b0b0; stroke-width: 0.8; stroke-linecap: square"/>
     </g>
     <g id="line2d_20">
      <defs>
       <path id="m24a7eff672" d="M 0 0 
L -3.5 0 
" style="stroke: #000000; stroke-width: 0.8"/>
      </defs>
      <g>
       <use xlink:href="#m24a7eff672" x="144" y="718.472554" style="stroke: #000000; stroke-width: 0.8"/>
      </g>
     </g>
     <g id="text_11">
      <!-- −0.3 -->
      <g transform="translate(64.151562 729.870211) scale(0.3 -0.3)">
       <defs>
        <path id="DejaVuSans-2212" d="M 678 2272 
L 4684 2272 
L 4684 1741 
L 678 1741 
L 678 2272 
z
" transform="scale(0.015625)"/>
        <path id="DejaVuSans-2e" d="M 684 794 
L 1344 794 
L 1344 0 
L 684 0 
L 684 794 
z
" transform="scale(0.015625)"/>
        <path id="DejaVuSans-33" d="M 2597 2516 
Q 3050 2419 3304 2112 
Q 3559 1806 3559 1356 
Q 3559 666 3084 287 
Q 2609 -91 1734 -91 
Q 1441 -91 1130 -33 
Q 819 25 488 141 
L 488 750 
Q 750 597 1062 519 
Q 1375 441 1716 441 
Q 2309 441 2620 675 
Q 2931 909 2931 1356 
Q 2931 1769 2642 2001 
Q 2353 2234 1838 2234 
L 1294 2234 
L 1294 2753 
L 1863 2753 
Q 2328 2753 2575 2939 
Q 2822 3125 2822 3475 
Q 2822 3834 2567 4026 
Q 2313 4219 1838 4219 
Q 1578 4219 1281 4162 
Q 984 4106 628 3988 
L 628 4550 
Q 988 4650 1302 4700 
Q 1616 4750 1894 4750 
Q 2613 4750 3031 4423 
Q 3450 4097 3450 3541 
Q 3450 3153 3228 2886 
Q 3006 2619 2597 2516 
z
" transform="scale(0.015625)"/>
       </defs>
       <use xlink:href="#DejaVuSans-2212"/>
       <use xlink:href="#DejaVuSans-30" x="83.789062"/>
       <use xlink:href="#DejaVuSans-2e" x="147.412109"/>
       <use xlink:href="#DejaVuSans-33" x="179.199219"/>
      </g>
     </g>
    </g>
    <g id="ytick_2">
     <g id="line2d_21">
      <path d="M 144 642.708497 
L 1036.8 642.708497 
" clip-path="url(#pfe0d1bcb99)" style="fill: none; stroke: #b0b0b0; stroke-width: 0.8; stroke-linecap: square"/>
     </g>
     <g id="line2d_22">
      <g>
       <use xlink:href="#m24a7eff672" x="144" y="642.708497" style="stroke: #000000; stroke-width: 0.8"/>
      </g>
     </g>
     <g id="text_12">
      <!-- −0.2 -->
      <g transform="translate(64.151562 654.106153) scale(0.3 -0.3)">
       <use xlink:href="#DejaVuSans-2212"/>
       <use xlink:href="#DejaVuSans-30" x="83.789062"/>
       <use xlink:href="#DejaVuSans-2e" x="147.412109"/>
       <use xlink:href="#DejaVuSans-32" x="179.199219"/>
      </g>
     </g>
    </g>
    <g id="ytick_3">
     <g id="line2d_23">
      <path d="M 144 566.94444 
L 1036.8 566.94444 
" clip-path="url(#pfe0d1bcb99)" style="fill: none; stroke: #b0b0b0; stroke-width: 0.8; stroke-linecap: square"/>
     </g>
     <g id="line2d_24">
      <g>
       <use xlink:href="#m24a7eff672" x="144" y="566.94444" style="stroke: #000000; stroke-width: 0.8"/>
      </g>
     </g>
     <g id="text_13">
      <!-- −0.1 -->
      <g transform="translate(64.151562 578.342096) scale(0.3 -0.3)">
       <use xlink:href="#DejaVuSans-2212"/>
       <use xlink:href="#DejaVuSans-30" x="83.789062"/>
       <use xlink:href="#DejaVuSans-2e" x="147.412109"/>
       <use xlink:href="#DejaVuSans-31" x="179.199219"/>
      </g>
     </g>
    </g>
    <g id="ytick_4">
     <g id="line2d_25">
      <path d="M 144 491.180383 
L 1036.8 491.180383 
" clip-path="url(#pfe0d1bcb99)" style="fill: none; stroke: #b0b0b0; stroke-width: 0.8; stroke-linecap: square"/>
     </g>
     <g id="line2d_26">
      <g>
       <use xlink:href="#m24a7eff672" x="144" y="491.180383" style="stroke: #000000; stroke-width: 0.8"/>
      </g>
     </g>
     <g id="text_14">
      <!-- 0.0 -->
      <g transform="translate(89.290625 502.578039) scale(0.3 -0.3)">
       <use xlink:href="#DejaVuSans-30"/>
       <use xlink:href="#DejaVuSans-2e" x="63.623047"/>
       <use xlink:href="#DejaVuSans-30" x="95.410156"/>
      </g>
     </g>
    </g>
    <g id="ytick_5">
     <g id="line2d_27">
      <path d="M 144 415.416325 
L 1036.8 415.416325 
" clip-path="url(#pfe0d1bcb99)" style="fill: none; stroke: #b0b0b0; stroke-width: 0.8; stroke-linecap: square"/>
     </g>
     <g id="line2d_28">
      <g>
       <use xlink:href="#m24a7eff672" x="144" y="415.416325" style="stroke: #000000; stroke-width: 0.8"/>
      </g>
     </g>
     <g id="text_15">
      <!-- 0.1 -->
      <g transform="translate(89.290625 426.813982) scale(0.3 -0.3)">
       <use xlink:href="#DejaVuSans-30"/>
       <use xlink:href="#DejaVuSans-2e" x="63.623047"/>
       <use xlink:href="#DejaVuSans-31" x="95.410156"/>
      </g>
     </g>
    </g>
    <g id="ytick_6">
     <g id="line2d_29">
      <path d="M 144 339.652268 
L 1036.8 339.652268 
" clip-path="url(#pfe0d1bcb99)" style="fill: none; stroke: #b0b0b0; stroke-width: 0.8; stroke-linecap: square"/>
     </g>
     <g id="line2d_30">
      <g>
       <use xlink:href="#m24a7eff672" x="144" y="339.652268" style="stroke: #000000; stroke-width: 0.8"/>
      </g>
     </g>
     <g id="text_16">
      <!-- 0.2 -->
      <g transform="translate(89.290625 351.049924) scale(0.3 -0.3)">
       <use xlink:href="#DejaVuSans-30"/>
       <use xlink:href="#DejaVuSans-2e" x="63.623047"/>
       <use xlink:href="#DejaVuSans-32" x="95.410156"/>
      </g>
     </g>
    </g>
    <g id="ytick_7">
     <g id="line2d_31">
      <path d="M 144 263.888211 
L 1036.8 263.888211 
" clip-path="url(#pfe0d1bcb99)" style="fill: none; stroke: #b0b0b0; stroke-width: 0.8; stroke-linecap: square"/>
     </g>
     <g id="line2d_32">
      <g>
       <use xlink:href="#m24a7eff672" x="144" y="263.888211" style="stroke: #000000; stroke-width: 0.8"/>
      </g>
     </g>
     <g id="text_17">
      <!-- 0.3 -->
      <g transform="translate(89.290625 275.285867) scale(0.3 -0.3)">
       <use xlink:href="#DejaVuSans-30"/>
       <use xlink:href="#DejaVuSans-2e" x="63.623047"/>
       <use xlink:href="#DejaVuSans-33" x="95.410156"/>
      </g>
     </g>
    </g>
    <g id="ytick_8">
     <g id="line2d_33">
      <path d="M 144 188.124154 
L 1036.8 188.124154 
" clip-path="url(#pfe0d1bcb99)" style="fill: none; stroke: #b0b0b0; stroke-width: 0.8; stroke-linecap: square"/>
     </g>
     <g id="line2d_34">
      <g>
       <use xlink:href="#m24a7eff672" x="144" y="188.124154" style="stroke: #000000; stroke-width: 0.8"/>
      </g>
     </g>
     <g id="text_18">
      <!-- 0.4 -->
      <g transform="translate(89.290625 199.52181) scale(0.3 -0.3)">
       <use xlink:href="#DejaVuSans-30"/>
       <use xlink:href="#DejaVuSans-2e" x="63.623047"/>
       <use xlink:href="#DejaVuSans-34" x="95.410156"/>
      </g>
     </g>
    </g>
    <g id="ytick_9">
     <g id="line2d_35">
      <path d="M 144 112.360096 
L 1036.8 112.360096 
" clip-path="url(#pfe0d1bcb99)" style="fill: none; stroke: #b0b0b0; stroke-width: 0.8; stroke-linecap: square"/>
     </g>
     <g id="line2d_36">
      <g>
       <use xlink:href="#m24a7eff672" x="144" y="112.360096" style="stroke: #000000; stroke-width: 0.8"/>
      </g>
     </g>
     <g id="text_19">
      <!-- 0.5 -->
      <g transform="translate(89.290625 123.757753) scale(0.3 -0.3)">
       <defs>
        <path id="DejaVuSans-35" d="M 691 4666 
L 3169 4666 
L 3169 4134 
L 1269 4134 
L 1269 2991 
Q 1406 3038 1543 3061 
Q 1681 3084 1819 3084 
Q 2600 3084 3056 2656 
Q 3513 2228 3513 1497 
Q 3513 744 3044 326 
Q 2575 -91 1722 -91 
Q 1428 -91 1123 -41 
Q 819 9 494 109 
L 494 744 
Q 775 591 1075 516 
Q 1375 441 1709 441 
Q 2250 441 2565 725 
Q 2881 1009 2881 1497 
Q 2881 1984 2565 2268 
Q 2250 2553 1709 2553 
Q 1456 2553 1204 2497 
Q 953 2441 691 2322 
L 691 4666 
z
" transform="scale(0.015625)"/>
       </defs>
       <use xlink:href="#DejaVuSans-30"/>
       <use xlink:href="#DejaVuSans-2e" x="63.623047"/>
       <use xlink:href="#DejaVuSans-35" x="95.410156"/>
      </g>
     </g>
    </g>
    <g id="text_20">
     <!-- Pearson expression -->
     <g transform="translate(51.832812 630.00125) rotate(-90) scale(0.4 -0.4)">
      <defs>
       <path id="DejaVuSans-50" d="M 1259 4147 
L 1259 2394 
L 2053 2394 
Q 2494 2394 2734 2622 
Q 2975 2850 2975 3272 
Q 2975 3691 2734 3919 
Q 2494 4147 2053 4147 
L 1259 4147 
z
M 628 4666 
L 2053 4666 
Q 2838 4666 3239 4311 
Q 3641 3956 3641 3272 
Q 3641 2581 3239 2228 
Q 2838 1875 2053 1875 
L 1259 1875 
L 1259 0 
L 628 0 
L 628 4666 
z
" transform="scale(0.015625)"/>
       <path id="DejaVuSans-61" d="M 2194 1759 
Q 1497 1759 1228 1600 
Q 959 1441 959 1056 
Q 959 750 1161 570 
Q 1363 391 1709 391 
Q 2188 391 2477 730 
Q 2766 1069 2766 1631 
L 2766 1759 
L 2194 1759 
z
M 3341 1997 
L 3341 0 
L 2766 0 
L 2766 531 
Q 2569 213 2275 61 
Q 1981 -91 1556 -91 
Q 1019 -91 701 211 
Q 384 513 384 1019 
Q 384 1609 779 1909 
Q 1175 2209 1959 2209 
L 2766 2209 
L 2766 2266 
Q 2766 2663 2505 2880 
Q 2244 3097 1772 3097 
Q 1472 3097 1187 3025 
Q 903 2953 641 2809 
L 641 3341 
Q 956 3463 1253 3523 
Q 1550 3584 1831 3584 
Q 2591 3584 2966 3190 
Q 3341 2797 3341 1997 
z
" transform="scale(0.015625)"/>
       <path id="DejaVuSans-72" d="M 2631 2963 
Q 2534 3019 2420 3045 
Q 2306 3072 2169 3072 
Q 1681 3072 1420 2755 
Q 1159 2438 1159 1844 
L 1159 0 
L 581 0 
L 581 3500 
L 1159 3500 
L 1159 2956 
Q 1341 3275 1631 3429 
Q 1922 3584 2338 3584 
Q 2397 3584 2469 3576 
Q 2541 3569 2628 3553 
L 2631 2963 
z
" transform="scale(0.015625)"/>
       <path id="DejaVuSans-6f" d="M 1959 3097 
Q 1497 3097 1228 2736 
Q 959 2375 959 1747 
Q 959 1119 1226 758 
Q 1494 397 1959 397 
Q 2419 397 2687 759 
Q 2956 1122 2956 1747 
Q 2956 2369 2687 2733 
Q 2419 3097 1959 3097 
z
M 1959 3584 
Q 2709 3584 3137 3096 
Q 3566 2609 3566 1747 
Q 3566 888 3137 398 
Q 2709 -91 1959 -91 
Q 1206 -91 779 398 
Q 353 888 353 1747 
Q 353 2609 779 3096 
Q 1206 3584 1959 3584 
z
" transform="scale(0.015625)"/>
       <path id="DejaVuSans-6e" d="M 3513 2113 
L 3513 0 
L 2938 0 
L 2938 2094 
Q 2938 2591 2744 2837 
Q 2550 3084 2163 3084 
Q 1697 3084 1428 2787 
Q 1159 2491 1159 1978 
L 1159 0 
L 581 0 
L 581 3500 
L 1159 3500 
L 1159 2956 
Q 1366 3272 1645 3428 
Q 1925 3584 2291 3584 
Q 2894 3584 3203 3211 
Q 3513 2838 3513 2113 
z
" transform="scale(0.015625)"/>
       <path id="DejaVuSans-20" transform="scale(0.015625)"/>
       <path id="DejaVuSans-78" d="M 3513 3500 
L 2247 1797 
L 3578 0 
L 2900 0 
L 1881 1375 
L 863 0 
L 184 0 
L 1544 1831 
L 300 3500 
L 978 3500 
L 1906 2253 
L 2834 3500 
L 3513 3500 
z
" transform="scale(0.015625)"/>
       <path id="DejaVuSans-69" d="M 603 3500 
L 1178 3500 
L 1178 0 
L 603 0 
L 603 3500 
z
M 603 4863 
L 1178 4863 
L 1178 4134 
L 603 4134 
L 603 4863 
z
" transform="scale(0.015625)"/>
      </defs>
      <use xlink:href="#DejaVuSans-50"/>
      <use xlink:href="#DejaVuSans-65" x="56.677734"/>
      <use xlink:href="#DejaVuSans-61" x="118.201172"/>
      <use xlink:href="#DejaVuSans-72" x="179.480469"/>
      <use xlink:href="#DejaVuSans-73" x="220.59375"/>
      <use xlink:href="#DejaVuSans-6f" x="272.693359"/>
      <use xlink:href="#DejaVuSans-6e" x="333.875"/>
      <use xlink:href="#DejaVuSans-20" x="397.253906"/>
      <use xlink:href="#DejaVuSans-65" x="429.041016"/>
      <use xlink:href="#DejaVuSans-78" x="488.814453"/>
      <use xlink:href="#DejaVuSans-70" x="547.994141"/>
      <use xlink:href="#DejaVuSans-72" x="611.470703"/>
      <use xlink:href="#DejaVuSans-65" x="650.333984"/>
      <use xlink:href="#DejaVuSans-73" x="711.857422"/>
      <use xlink:href="#DejaVuSans-73" x="763.957031"/>
      <use xlink:href="#DejaVuSans-69" x="816.056641"/>
      <use xlink:href="#DejaVuSans-6f" x="843.839844"/>
      <use xlink:href="#DejaVuSans-6e" x="905.021484"/>
     </g>
    </g>
   </g>
   <g id="line2d_37">
    <path d="M 184.581818 323.877778 
L 185.936804 444.665163 
L 187.291789 326.857047 
L 188.646775 245.802697 
L 190.001761 370.000389 
L 191.356746 455.152228 
L 192.711732 407.228042 
L 194.066717 378.41164 
L 195.421703 421.54862 
L 196.776688 422.62462 
L 199.48666 378.399436 
L 200.841645 366.470317 
L 202.196631 357.17219 
L 203.551616 387.862324 
L 204.906602 413.42011 
L 206.261587 441.193432 
L 208.971559 488.776649 
L 210.326544 506.647238 
L 211.68153 522.53606 
L 213.036515 534.44651 
L 215.746487 497.705446 
L 217.101472 482.206912 
L 218.456458 468.936941 
L 219.811443 458.263632 
L 221.166429 449.809088 
L 222.521414 444.653204 
L 223.8764 442.38718 
L 225.231386 442.73834 
L 226.586371 434.846255 
L 227.941357 441.703264 
L 229.296342 451.1255 
L 232.006314 408.502979 
L 233.361299 411.384478 
L 234.716285 411.99607 
L 236.07127 392.967844 
L 237.426256 384.995639 
L 238.781241 384.532362 
L 240.136227 386.150072 
L 241.491213 385.766162 
L 242.846198 384.879163 
L 246.911155 322.226454 
L 250.976112 256.142398 
L 252.331097 235.339381 
L 253.686083 216.394582 
L 255.041068 220.01238 
L 256.396054 224.431612 
L 257.75104 227.938326 
L 259.106025 230.546854 
L 260.461011 231.792085 
L 261.815996 231.678022 
L 263.170982 228.994462 
L 264.525968 223.764767 
L 267.235939 216.632548 
L 268.590924 214.298271 
L 269.94591 212.35214 
L 271.300895 211.724277 
L 272.655881 211.840304 
L 274.010867 212.529787 
L 278.075823 215.779325 
L 279.430809 218.084869 
L 280.785795 219.288224 
L 283.495766 220.382538 
L 286.205737 222.041597 
L 302.465564 226.596267 
L 305.175535 227.114701 
L 309.240492 227.335221 
L 329.565275 227.55814 
L 996.218182 227.55814 
L 996.218182 227.55814 
" clip-path="url(#pfe0d1bcb99)" style="fill: none; stroke: #1f77b4; stroke-width: 4; stroke-linecap: square"/>
   </g>
   <g id="line2d_38">
    <path d="M 184.581818 157.893812 
L 185.936804 289.136341 
L 187.291789 253.223215 
L 188.646775 226.59099 
L 190.001761 300.742636 
L 191.356746 309.262442 
L 192.711732 276.944357 
L 194.066717 338.051075 
L 195.421703 322.908501 
L 196.776688 340.839388 
L 198.131674 365.151688 
L 199.48666 354.594235 
L 208.971559 298.770799 
L 210.326544 291.767388 
L 213.036515 280.609644 
L 215.746487 273.111217 
L 218.456458 265.177221 
L 222.521414 254.118628 
L 223.8764 250.319406 
L 225.231386 249.756992 
L 226.586371 240.246847 
L 227.941357 238.903182 
L 229.296342 238.571128 
L 230.651328 223.301964 
L 232.006314 216.101153 
L 233.361299 217.876692 
L 234.716285 196.77787 
L 236.07127 194.612053 
L 237.426256 182.331873 
L 238.781241 166.517114 
L 240.136227 162.975485 
L 241.491213 159.10523 
L 244.201184 152.837956 
L 245.556169 150.710104 
L 246.911155 149.230271 
L 249.621126 146.997255 
L 250.976112 146.205928 
L 252.331097 144.973977 
L 253.686083 143.946552 
L 255.041068 141.922622 
L 256.396054 140.232227 
L 257.75104 138.951239 
L 261.815996 135.880992 
L 263.170982 135.509387 
L 265.880953 135.09642 
L 267.235939 135.073516 
L 268.590924 134.842749 
L 276.720838 134.412343 
L 288.915708 134.323736 
L 307.885506 133.966049 
L 325.500319 133.978147 
L 337.695189 133.968064 
L 996.218182 133.968064 
L 996.218182 133.968064 
" clip-path="url(#pfe0d1bcb99)" style="fill: none; stroke: #ff7f0e; stroke-width: 4; stroke-linecap: square"/>
   </g>
   <g id="line2d_39">
    <path d="M 184.581818 192.441317 
L 185.936804 455.141054 
L 187.291789 534.8437 
L 188.646775 604.84724 
L 190.001761 524.849574 
L 191.356746 558.687884 
L 192.711732 504.803561 
L 194.066717 482.899885 
L 198.131674 431.018744 
L 200.841645 400.563257 
L 203.551616 371.874933 
L 206.261587 350.17048 
L 207.616573 339.574769 
L 208.971559 331.332178 
L 210.326544 325.099834 
L 211.68153 319.524931 
L 213.036515 314.420498 
L 214.391501 311.003189 
L 215.746487 307.052845 
L 217.101472 305.753407 
L 218.456458 305.407492 
L 219.811443 303.190665 
L 222.521414 292.403019 
L 223.8764 286.914239 
L 225.231386 284.653157 
L 229.296342 224.239527 
L 230.651328 221.845775 
L 232.006314 201.610167 
L 233.361299 199.308137 
L 236.07127 184.471565 
L 237.426256 178.371491 
L 238.781241 173.036988 
L 240.136227 168.337579 
L 241.491213 164.261605 
L 242.846198 161.141673 
L 246.911155 153.262897 
L 248.266141 151.349852 
L 249.621126 148.919382 
L 250.976112 170.647336 
L 252.331097 187.845665 
L 256.396054 254.18564 
L 260.461011 312.678379 
L 267.235939 429.948833 
L 268.590924 453.634889 
L 269.94591 473.172709 
L 271.300895 472.728937 
L 279.430809 623.952322 
L 280.785795 645.695307 
L 282.14078 649.421523 
L 283.495766 661.234678 
L 284.850751 684.159365 
L 286.205737 686.8451 
L 287.560722 710.592352 
L 288.915708 728.422327 
L 290.270694 738.72 
L 291.625679 719.808578 
L 292.980665 703.974853 
L 294.33565 682.075314 
L 297.045621 634.282314 
L 298.400607 614.536141 
L 302.465564 541.546034 
L 306.530521 467.217327 
L 307.885506 470.916378 
L 309.240492 472.174608 
L 310.595477 476.892056 
L 311.950463 501.656227 
L 313.305448 500.018018 
L 316.01542 498.706997 
L 317.370405 497.0813 
L 318.725391 495.206403 
L 320.080376 495.956495 
L 321.435362 490.678291 
L 322.790348 488.902165 
L 324.145333 478.241675 
L 325.500319 456.456204 
L 326.855304 454.315433 
L 328.21029 431.21145 
L 329.565275 413.913975 
L 330.920261 428.898838 
L 333.630232 468.481669 
L 336.340203 510.902949 
L 337.695189 533.735914 
L 339.050175 528.594279 
L 340.40516 527.910396 
L 344.470117 600.603883 
L 345.825102 604.983871 
L 347.180088 607.048951 
L 348.535074 581.955701 
L 349.890059 580.542723 
L 351.245045 578.794788 
L 352.60003 578.179755 
L 355.310002 530.981886 
L 358.019973 483.536487 
L 359.374958 469.794445 
L 360.729944 453.562354 
L 362.084929 459.663333 
L 363.439915 481.732173 
L 364.794901 501.271536 
L 366.149886 512.662161 
L 367.504872 520.820388 
L 370.214843 540.113461 
L 371.569829 522.794875 
L 372.924814 510.872345 
L 374.2798 490.983143 
L 375.634785 477.485907 
L 378.344756 454.274683 
L 381.054728 479.300125 
L 385.119684 445.70407 
L 386.47467 453.22656 
L 389.184641 472.920351 
L 390.539627 458.99271 
L 393.249598 440.288922 
L 395.959569 468.825431 
L 398.66954 500.207998 
L 400.024526 510.734103 
L 401.379511 505.481291 
L 402.734497 490.415755 
L 404.089482 466.041348 
L 405.444468 456.846995 
L 406.799454 456.179138 
L 408.154439 457.963514 
L 410.86441 488.270025 
L 412.219396 489.288677 
L 413.574382 490.605313 
L 414.929367 510.769181 
L 416.284353 498.367154 
L 417.639338 487.197703 
L 418.994324 472.829816 
L 420.349309 469.895382 
L 421.704295 474.031242 
L 423.059281 461.93477 
L 425.769252 441.909759 
L 431.189194 408.86915 
L 433.899165 384.914984 
L 436.609136 360.107609 
L 437.964122 346.547588 
L 439.319108 331.575275 
L 440.674093 334.723535 
L 442.029079 354.881211 
L 443.384064 370.823708 
L 444.73905 395.436611 
L 447.449021 420.447728 
L 448.804007 411.407332 
L 450.158992 410.204426 
L 451.513978 408.716563 
L 452.868963 423.510101 
L 454.223949 410.286616 
L 455.578935 408.538774 
L 456.93392 433.070733 
L 458.288906 434.260601 
L 459.643891 437.61469 
L 460.998877 428.553021 
L 462.353862 412.704134 
L 463.708848 412.466289 
L 465.063834 409.416435 
L 466.418819 406.800325 
L 467.773805 403.745504 
L 474.548733 390.865564 
L 475.903718 387.961644 
L 477.258704 385.47873 
L 479.968675 381.306595 
L 484.033632 311.213867 
L 485.388617 310.764386 
L 488.098589 263.350438 
L 489.453574 262.171153 
L 490.80856 240.924555 
L 493.518531 193.240176 
L 494.873516 191.703179 
L 496.228502 168.389777 
L 497.583488 147.764167 
L 498.938473 145.884208 
L 501.648444 182.970136 
L 503.00343 192.91819 
L 504.358416 196.025241 
L 505.713401 199.695311 
L 507.068387 199.341593 
L 508.423372 209.675534 
L 509.778358 224.829132 
L 511.133343 242.502426 
L 512.488329 252.512782 
L 513.843315 258.425375 
L 515.1983 268.978201 
L 516.553286 281.284402 
L 517.908271 296.373372 
L 520.618243 308.122383 
L 524.683199 322.600356 
L 526.038185 303.76423 
L 528.748156 312.623622 
L 530.103142 318.106613 
L 531.458127 320.062946 
L 534.168098 334.277332 
L 535.523084 342.380624 
L 538.233055 368.484876 
L 539.588041 378.666891 
L 542.298012 345.719606 
L 543.652997 338.325875 
L 545.007983 337.732431 
L 546.362969 337.631769 
L 547.717954 340.912006 
L 549.07294 334.107876 
L 550.427925 326.285042 
L 551.782911 313.076995 
L 553.137896 306.578091 
L 554.492882 310.794866 
L 555.847868 307.608948 
L 557.202853 306.969992 
L 558.557839 296.839958 
L 559.912824 309.722678 
L 561.26781 307.94567 
L 562.622796 308.451665 
L 563.977781 308.169359 
L 565.332767 308.646457 
L 566.687752 318.51343 
L 569.397723 349.7059 
L 570.752709 363.709871 
L 572.107695 380.342039 
L 573.46268 395.281355 
L 574.817666 406.665617 
L 576.172651 404.76508 
L 577.527637 403.247513 
L 578.882623 405.423686 
L 580.237608 409.483447 
L 581.592594 411.874025 
L 584.302565 415.775243 
L 587.012536 424.573483 
L 588.367522 431.495188 
L 589.722507 436.806576 
L 592.432478 442.335582 
L 593.787464 447.048085 
L 595.14245 442.966404 
L 596.497435 447.890132 
L 597.852421 443.226161 
L 599.207406 444.869758 
L 600.562392 432.874826 
L 601.917377 435.48612 
L 604.627349 437.039945 
L 605.982334 438.454057 
L 607.33732 431.194829 
L 608.692305 417.053328 
L 610.047291 406.170372 
L 612.757262 395.428572 
L 614.112248 389.459393 
L 615.467233 386.369547 
L 616.822219 400.342037 
L 618.177204 402.975286 
L 619.53219 398.247422 
L 620.887176 397.674508 
L 622.242161 404.85555 
L 624.952132 426.543049 
L 627.662104 439.460313 
L 629.017089 441.171475 
L 631.72706 450.794081 
L 634.437031 472.775136 
L 635.792017 481.921531 
L 638.501988 479.600832 
L 639.856974 476.894763 
L 641.211959 491.977264 
L 642.566945 504.451422 
L 643.92193 511.831343 
L 645.276916 527.424824 
L 646.631902 535.878808 
L 647.986887 540.052435 
L 649.341873 538.967873 
L 650.696858 534.739923 
L 652.051844 525.471685 
L 653.40683 532.232545 
L 654.761815 534.896036 
L 656.116801 536.729304 
L 657.471786 530.907259 
L 658.826772 536.911745 
L 660.181757 544.634253 
L 661.536743 549.569472 
L 662.891729 551.035752 
L 665.6017 559.413125 
L 666.956685 565.005733 
L 668.311671 571.902055 
L 669.666657 580.173681 
L 671.021642 583.042925 
L 672.376628 584.898259 
L 675.086599 575.547891 
L 676.441584 571.636606 
L 677.79657 569.868187 
L 679.151556 573.400228 
L 680.506541 581.042103 
L 681.861527 569.45591 
L 683.216512 563.096354 
L 684.571498 553.96797 
L 685.926484 540.171069 
L 687.281469 534.951459 
L 688.636455 540.033581 
L 691.346426 557.609694 
L 692.701411 569.181215 
L 694.056397 565.447291 
L 695.411383 563.348597 
L 696.766368 562.008132 
L 698.121354 563.314733 
L 699.476339 558.400821 
L 700.831325 554.143048 
L 702.186311 555.013934 
L 703.541296 551.844671 
L 704.896282 541.97653 
L 706.251267 535.792306 
L 707.606253 536.411988 
L 708.961238 527.010613 
L 710.316224 515.037418 
L 711.67121 515.821729 
L 713.026195 515.603132 
L 715.736166 521.702371 
L 718.446138 531.407969 
L 719.801123 536.996261 
L 721.156109 535.230962 
L 722.511094 534.774637 
L 723.86608 533.179787 
L 725.221065 544.029175 
L 726.576051 550.802924 
L 727.931037 552.145474 
L 729.286022 552.833642 
L 730.641008 547.405632 
L 731.995993 537.550211 
L 733.350979 535.659512 
L 734.705964 536.058362 
L 736.06095 535.426147 
L 738.770921 548.237551 
L 740.125907 555.818716 
L 741.480892 559.369738 
L 742.835878 561.569949 
L 745.545849 585.192771 
L 746.900835 575.640538 
L 748.25582 555.771815 
L 749.610806 544.219553 
L 750.965791 538.604107 
L 752.320777 525.286141 
L 753.675763 519.156186 
L 755.030748 515.775026 
L 756.385734 510.605944 
L 757.740719 507.137214 
L 759.095705 507.720927 
L 760.450691 503.852031 
L 761.805676 505.319403 
L 763.160662 507.656813 
L 764.515647 509.241013 
L 765.870633 506.845777 
L 767.225618 508.795733 
L 768.580604 510.336441 
L 769.93559 505.411617 
L 771.290575 510.716108 
L 772.645561 518.941303 
L 774.000546 511.278037 
L 775.355532 501.847146 
L 776.710518 498.511726 
L 778.065503 493.008349 
L 779.420489 490.979695 
L 780.775474 494.092656 
L 782.13046 490.234339 
L 783.485445 489.587287 
L 784.840431 489.742119 
L 786.195417 471.238365 
L 787.550402 469.064554 
L 788.905388 474.305106 
L 790.260373 478.041489 
L 792.970345 500.093336 
L 794.32533 506.168405 
L 797.035301 527.855186 
L 798.390287 534.019802 
L 799.745272 538.235238 
L 801.100258 527.797353 
L 802.455244 515.814479 
L 805.165215 488.888324 
L 807.875186 461.360253 
L 810.585157 435.560606 
L 811.940143 423.514785 
L 813.295128 413.391116 
L 814.650114 408.350814 
L 816.005099 398.135969 
L 817.360085 385.121143 
L 818.715071 367.704971 
L 820.070056 347.410705 
L 821.425042 321.684138 
L 822.780027 307.321337 
L 824.135013 287.035709 
L 825.489998 268.596311 
L 826.844984 270.285447 
L 828.19997 274.013537 
L 829.554955 280.758531 
L 830.909941 293.665926 
L 832.264926 302.173829 
L 833.619912 300.831453 
L 834.974898 297.221995 
L 836.329883 281.751937 
L 837.684869 270.397954 
L 839.039854 260.706498 
L 840.39484 249.256645 
L 841.749825 258.855947 
L 843.104811 270.212204 
L 844.459797 275.972939 
L 845.814782 285.025964 
L 847.169768 290.460722 
L 848.524753 299.961179 
L 849.879739 307.151823 
L 851.234725 315.742715 
L 853.944696 343.65065 
L 855.299681 352.902973 
L 856.654667 373.55155 
L 858.009652 389.498632 
L 859.364638 404.047128 
L 863.429595 458.947158 
L 864.78458 478.543053 
L 866.139566 486.14727 
L 867.494552 495.07764 
L 868.849537 503.118682 
L 870.204523 504.791197 
L 871.559508 499.435386 
L 872.914494 490.706319 
L 874.269479 486.752576 
L 875.624465 484.47386 
L 876.979451 490.379046 
L 878.334436 489.73145 
L 879.689422 492.284422 
L 881.044407 493.153559 
L 882.399393 491.56061 
L 883.754379 493.125652 
L 885.109364 500.283303 
L 886.46435 509.64412 
L 887.819335 528.979114 
L 889.174321 540.63018 
L 890.529306 549.748006 
L 891.884292 555.792915 
L 893.239278 558.957508 
L 894.594263 560.494097 
L 895.949249 559.980684 
L 897.304234 546.457004 
L 898.65922 541.199649 
L 900.014205 541.611032 
L 902.724177 530.624096 
L 904.079162 521.98672 
L 905.434148 510.896839 
L 906.789133 508.390261 
L 908.144119 506.759892 
L 909.499105 502.211377 
L 910.85409 502.285241 
L 912.209076 500.938609 
L 913.564061 504.158142 
L 916.274032 509.539199 
L 917.629018 508.213158 
L 918.984004 510.544607 
L 920.338989 507.1112 
L 921.693975 511.932225 
L 923.04896 515.768149 
L 924.403946 517.430703 
L 925.758932 516.589215 
L 927.113917 510.447186 
L 929.823888 493.794801 
L 931.178874 495.232108 
L 932.533859 492.962282 
L 933.888845 489.662801 
L 935.243831 490.561078 
L 936.598816 492.429493 
L 937.953802 497.609177 
L 939.308787 506.389763 
L 940.663773 506.302068 
L 942.018759 509.389494 
L 943.373744 509.576034 
L 944.72873 508.32864 
L 946.083715 509.066005 
L 947.438701 512.910115 
L 948.793686 510.327641 
L 950.148672 512.621704 
L 951.503658 512.407858 
L 952.858643 513.312998 
L 954.213629 510.494031 
L 955.568614 516.307345 
L 956.9236 516.231093 
L 958.278586 516.640456 
L 959.633571 516.312436 
L 960.988557 519.75222 
L 962.343542 519.882274 
L 963.698528 522.612232 
L 965.053513 524.720479 
L 966.408499 524.100545 
L 967.763485 526.271501 
L 969.11847 522.066588 
L 970.473456 519.778011 
L 971.828441 513.406206 
L 973.183427 511.084893 
L 974.538413 512.721738 
L 975.893398 509.399189 
L 977.248384 516.799691 
L 978.603369 523.106464 
L 979.958355 516.242956 
L 982.668326 519.309586 
L 984.023312 520.419218 
L 985.378297 522.176059 
L 986.733283 527.811739 
L 988.088268 527.659996 
L 989.443254 529.76485 
L 990.798239 526.695813 
L 992.153225 524.459775 
L 993.508211 526.274728 
L 994.863196 524.221322 
L 996.218182 522.853018 
L 996.218182 522.853018 
" clip-path="url(#pfe0d1bcb99)" style="fill: none; stroke: #2ca02c; stroke-width: 4; stroke-linecap: square"/>
   </g>
   <g id="line2d_40"/>
   <g id="line2d_41"/>
   <g id="line2d_42"/>
   <g id="patch_3">
    <path d="M 144 768.96 
L 144 103.68 
" style="fill: none; stroke: #000000; stroke-width: 0.8; stroke-linejoin: miter; stroke-linecap: square"/>
   </g>
   <g id="patch_4">
    <path d="M 1036.8 768.96 
L 1036.8 103.68 
" style="fill: none; stroke: #000000; stroke-width: 0.8; stroke-linejoin: miter; stroke-linecap: square"/>
   </g>
   <g id="patch_5">
    <path d="M 144 768.96 
L 1036.8 768.96 
" style="fill: none; stroke: #000000; stroke-width: 0.8; stroke-linejoin: miter; stroke-linecap: square"/>
   </g>
   <g id="patch_6">
    <path d="M 144 103.68 
L 1036.8 103.68 
" style="fill: none; stroke: #000000; stroke-width: 0.8; stroke-linejoin: miter; stroke-linecap: square"/>
   </g>
   <g id="text_21">
    <!-- client4 -->
    <g transform="translate(488.915625 91.201875) scale(0.6 -0.6)">
     <defs>
      <path id="DejaVuSans-63" d="M 3122 3366 
L 3122 2828 
Q 2878 2963 2633 3030 
Q 2388 3097 2138 3097 
Q 1578 3097 1268 2742 
Q 959 2388 959 1747 
Q 959 1106 1268 751 
Q 1578 397 2138 397 
Q 2388 397 2633 464 
Q 2878 531 3122 666 
L 3122 134 
Q 2881 22 2623 -34 
Q 2366 -91 2075 -91 
Q 1284 -91 818 406 
Q 353 903 353 1747 
Q 353 2603 823 3093 
Q 1294 3584 2113 3584 
Q 2378 3584 2631 3529 
Q 2884 3475 3122 3366 
z
" transform="scale(0.015625)"/>
      <path id="DejaVuSans-6c" d="M 603 4863 
L 1178 4863 
L 1178 0 
L 603 0 
L 603 4863 
z
" transform="scale(0.015625)"/>
     </defs>
     <use xlink:href="#DejaVuSans-63"/>
     <use xlink:href="#DejaVuSans-6c" x="54.980469"/>
     <use xlink:href="#DejaVuSans-69" x="82.763672"/>
     <use xlink:href="#DejaVuSans-65" x="110.546875"/>
     <use xlink:href="#DejaVuSans-6e" x="172.070312"/>
     <use xlink:href="#DejaVuSans-74" x="235.449219"/>
     <use xlink:href="#DejaVuSans-34" x="274.658203"/>
    </g>
   </g>
   <g id="legend_1">
    <g id="patch_7">
     <path d="M 352.5625 748.96 
L 1008.8 748.96 
Q 1016.8 748.96 1016.8 740.96 
L 1016.8 567.71 
Q 1016.8 559.71 1008.8 559.71 
L 352.5625 559.71 
Q 344.5625 559.71 344.5625 567.71 
L 344.5625 740.96 
Q 344.5625 748.96 352.5625 748.96 
z
" style="fill: #ffffff; opacity: 0.8; stroke: #cccccc; stroke-linejoin: miter"/>
    </g>
    <g id="line2d_43">
     <path d="M 360.5625 592.10375 
L 400.5625 592.10375 
L 440.5625 592.10375 
" style="fill: none; stroke: #1f77b4; stroke-width: 4; stroke-linecap: square"/>
    </g>
    <g id="text_22">
     <!-- fedavg_private_regressors -->
     <g transform="translate(472.5625 606.10375) scale(0.4 -0.4)">
      <defs>
       <path id="DejaVuSans-66" d="M 2375 4863 
L 2375 4384 
L 1825 4384 
Q 1516 4384 1395 4259 
Q 1275 4134 1275 3809 
L 1275 3500 
L 2222 3500 
L 2222 3053 
L 1275 3053 
L 1275 0 
L 697 0 
L 697 3053 
L 147 3053 
L 147 3500 
L 697 3500 
L 697 3744 
Q 697 4328 969 4595 
Q 1241 4863 1831 4863 
L 2375 4863 
z
" transform="scale(0.015625)"/>
       <path id="DejaVuSans-64" d="M 2906 2969 
L 2906 4863 
L 3481 4863 
L 3481 0 
L 2906 0 
L 2906 525 
Q 2725 213 2448 61 
Q 2172 -91 1784 -91 
Q 1150 -91 751 415 
Q 353 922 353 1747 
Q 353 2572 751 3078 
Q 1150 3584 1784 3584 
Q 2172 3584 2448 3432 
Q 2725 3281 2906 2969 
z
M 947 1747 
Q 947 1113 1208 752 
Q 1469 391 1925 391 
Q 2381 391 2643 752 
Q 2906 1113 2906 1747 
Q 2906 2381 2643 2742 
Q 2381 3103 1925 3103 
Q 1469 3103 1208 2742 
Q 947 2381 947 1747 
z
" transform="scale(0.015625)"/>
       <path id="DejaVuSans-76" d="M 191 3500 
L 800 3500 
L 1894 563 
L 2988 3500 
L 3597 3500 
L 2284 0 
L 1503 0 
L 191 3500 
z
" transform="scale(0.015625)"/>
       <path id="DejaVuSans-67" d="M 2906 1791 
Q 2906 2416 2648 2759 
Q 2391 3103 1925 3103 
Q 1463 3103 1205 2759 
Q 947 2416 947 1791 
Q 947 1169 1205 825 
Q 1463 481 1925 481 
Q 2391 481 2648 825 
Q 2906 1169 2906 1791 
z
M 3481 434 
Q 3481 -459 3084 -895 
Q 2688 -1331 1869 -1331 
Q 1566 -1331 1297 -1286 
Q 1028 -1241 775 -1147 
L 775 -588 
Q 1028 -725 1275 -790 
Q 1522 -856 1778 -856 
Q 2344 -856 2625 -561 
Q 2906 -266 2906 331 
L 2906 616 
Q 2728 306 2450 153 
Q 2172 0 1784 0 
Q 1141 0 747 490 
Q 353 981 353 1791 
Q 353 2603 747 3093 
Q 1141 3584 1784 3584 
Q 2172 3584 2450 3431 
Q 2728 3278 2906 2969 
L 2906 3500 
L 3481 3500 
L 3481 434 
z
" transform="scale(0.015625)"/>
       <path id="DejaVuSans-5f" d="M 3263 -1063 
L 3263 -1509 
L -63 -1509 
L -63 -1063 
L 3263 -1063 
z
" transform="scale(0.015625)"/>
      </defs>
      <use xlink:href="#DejaVuSans-66"/>
      <use xlink:href="#DejaVuSans-65" x="35.205078"/>
      <use xlink:href="#DejaVuSans-64" x="96.728516"/>
      <use xlink:href="#DejaVuSans-61" x="160.205078"/>
      <use xlink:href="#DejaVuSans-76" x="221.484375"/>
      <use xlink:href="#DejaVuSans-67" x="280.664062"/>
      <use xlink:href="#DejaVuSans-5f" x="344.140625"/>
      <use xlink:href="#DejaVuSans-70" x="394.140625"/>
      <use xlink:href="#DejaVuSans-72" x="457.617188"/>
      <use xlink:href="#DejaVuSans-69" x="498.730469"/>
      <use xlink:href="#DejaVuSans-76" x="526.513672"/>
      <use xlink:href="#DejaVuSans-61" x="585.693359"/>
      <use xlink:href="#DejaVuSans-74" x="646.972656"/>
      <use xlink:href="#DejaVuSans-65" x="686.181641"/>
      <use xlink:href="#DejaVuSans-5f" x="747.705078"/>
      <use xlink:href="#DejaVuSans-72" x="797.705078"/>
      <use xlink:href="#DejaVuSans-65" x="836.568359"/>
      <use xlink:href="#DejaVuSans-67" x="898.091797"/>
      <use xlink:href="#DejaVuSans-72" x="961.568359"/>
      <use xlink:href="#DejaVuSans-65" x="1000.431641"/>
      <use xlink:href="#DejaVuSans-73" x="1061.955078"/>
      <use xlink:href="#DejaVuSans-73" x="1114.054688"/>
      <use xlink:href="#DejaVuSans-6f" x="1166.154297"/>
      <use xlink:href="#DejaVuSans-72" x="1227.335938"/>
      <use xlink:href="#DejaVuSans-73" x="1268.449219"/>
     </g>
    </g>
    <g id="line2d_44">
     <path d="M 360.5625 651.92875 
L 400.5625 651.92875 
L 440.5625 651.92875 
" style="fill: none; stroke: #ff7f0e; stroke-width: 4; stroke-linecap: square"/>
    </g>
    <g id="text_23">
     <!-- fedavg -->
     <g transform="translate(472.5625 665.92875) scale(0.4 -0.4)">
      <use xlink:href="#DejaVuSans-66"/>
      <use xlink:href="#DejaVuSans-65" x="35.205078"/>
      <use xlink:href="#DejaVuSans-64" x="96.728516"/>
      <use xlink:href="#DejaVuSans-61" x="160.205078"/>
      <use xlink:href="#DejaVuSans-76" x="221.484375"/>
      <use xlink:href="#DejaVuSans-67" x="280.664062"/>
     </g>
    </g>
    <g id="line2d_45">
     <path d="M 360.5625 710.64125 
L 400.5625 710.64125 
L 440.5625 710.64125 
" style="fill: none; stroke: #2ca02c; stroke-width: 4; stroke-linecap: square"/>
    </g>
    <g id="text_24">
     <!-- local -->
     <g transform="translate(472.5625 724.64125) scale(0.4 -0.4)">
      <use xlink:href="#DejaVuSans-6c"/>
      <use xlink:href="#DejaVuSans-6f" x="27.783203"/>
      <use xlink:href="#DejaVuSans-63" x="88.964844"/>
      <use xlink:href="#DejaVuSans-61" x="143.945312"/>
      <use xlink:href="#DejaVuSans-6c" x="205.224609"/>
     </g>
    </g>
   </g>
  </g>
 </g>
 <defs>
  <clipPath id="pfe0d1bcb99">
   <rect x="144" y="103.68" width="892.8" height="665.28"/>
  </clipPath>
 </defs>
</svg>
