<?xml version="1.0" encoding="utf-8" standalone="no"?>
<!DOCTYPE svg PUBLIC "-//W3C//DTD SVG 1.1//EN"
  "http://www.w3.org/Graphics/SVG/1.1/DTD/svg11.dtd">
<svg xmlns:xlink="http://www.w3.org/1999/xlink" width="864pt" height="576pt" viewBox="0 0 864 576" xmlns="http://www.w3.org/2000/svg" version="1.1">
 <metadata>
  <rdf:RDF xmlns:dc="http://purl.org/dc/elements/1.1/" xmlns:cc="http://creativecommons.org/ns#" xmlns:rdf="http://www.w3.org/1999/02/22-rdf-syntax-ns#">
   <cc:Work>
    <dc:type rdf:resource="http://purl.org/dc/dcmitype/StillImage"/>
    <dc:date>2025-04-25T14:18:10.689020</dc:date>
    <dc:format>image/svg+xml</dc:format>
    <dc:creator>
     <cc:Agent>
      <dc:title>Matplotlib v3.8.2, https://matplotlib.org/</dc:title>
     </cc:Agent>
    </dc:creator>
   </cc:Work>
  </rdf:RDF>
 </metadata>
 <defs>
  <style type="text/css">*{stroke-linejoin: round; stroke-linecap: butt}</style>
 </defs>
 <g id="figure_1">
  <g id="patch_1">
   <path d="M 0 576 
L 864 576 
L 864 0 
L 0 0 
z
" style="fill: #ffffff"/>
  </g>
  <g id="axes_1">
   <g id="patch_2">
    <path d="M 108 512.64 
L 777.6 512.64 
L 777.6 69.12 
L 108 69.12 
z
" style="fill: #ffffff"/>
   </g>
   <g id="PolyCollection_1"/>
   <g id="PolyCollection_2"/>
   <g id="PolyCollection_3"/>
   <g id="matplotlib.axis_1">
    <g id="xtick_1">
     <g id="line2d_1">
      <path d="M 137.420124 512.64 
L 137.420124 69.12 
" clip-path="url(#pf47c7469c9)" style="fill: none; stroke: #b0b0b0; stroke-width: 0.8; stroke-linecap: square"/>
     </g>
     <g id="line2d_2">
      <defs>
       <path id="m4c5c5732a9" d="M 0 0 
L 0 3.5 
" style="stroke: #000000; stroke-width: 0.8"/>
      </defs>
      <g>
       <use xlink:href="#m4c5c5732a9" x="137.420124" y="512.64" style="stroke: #000000; stroke-width: 0.8"/>
      </g>
     </g>
     <g id="text_1">
      <!-- 0 -->
      <g transform="translate(127.876374 542.435313) scale(0.3 -0.3)">
       <defs>
        <path id="DejaVuSans-30" d="M 2034 4250 
Q 1547 4250 1301 3770 
Q 1056 3291 1056 2328 
Q 1056 1369 1301 889 
Q 1547 409 2034 409 
Q 2525 409 2770 889 
Q 3016 1369 3016 2328 
Q 3016 3291 2770 3770 
Q 2525 4250 2034 4250 
z
M 2034 4750 
Q 2819 4750 3233 4129 
Q 3647 3509 3647 2328 
Q 3647 1150 3233 529 
Q 2819 -91 2034 -91 
Q 1250 -91 836 529 
Q 422 1150 422 2328 
Q 422 3509 836 4129 
Q 1250 4750 2034 4750 
z
" transform="scale(0.015625)"/>
       </defs>
       <use xlink:href="#DejaVuSans-30"/>
      </g>
     </g>
    </g>
    <g id="xtick_2">
     <g id="line2d_3">
      <path d="M 267.7072 512.64 
L 267.7072 69.12 
" clip-path="url(#pf47c7469c9)" style="fill: none; stroke: #b0b0b0; stroke-width: 0.8; stroke-linecap: square"/>
     </g>
     <g id="line2d_4">
      <g>
       <use xlink:href="#m4c5c5732a9" x="267.7072" y="512.64" style="stroke: #000000; stroke-width: 0.8"/>
      </g>
     </g>
     <g id="text_2">
      <!-- 5000 -->
      <g transform="translate(229.5322 542.435313) scale(0.3 -0.3)">
       <defs>
        <path id="DejaVuSans-35" d="M 691 4666 
L 3169 4666 
L 3169 4134 
L 1269 4134 
L 1269 2991 
Q 1406 3038 1543 3061 
Q 1681 3084 1819 3084 
Q 2600 3084 3056 2656 
Q 3513 2228 3513 1497 
Q 3513 744 3044 326 
Q 2575 -91 1722 -91 
Q 1428 -91 1123 -41 
Q 819 9 494 109 
L 494 744 
Q 775 591 1075 516 
Q 1375 441 1709 441 
Q 2250 441 2565 725 
Q 2881 1009 2881 1497 
Q 2881 1984 2565 2268 
Q 2250 2553 1709 2553 
Q 1456 2553 1204 2497 
Q 953 2441 691 2322 
L 691 4666 
z
" transform="scale(0.015625)"/>
       </defs>
       <use xlink:href="#DejaVuSans-35"/>
       <use xlink:href="#DejaVuSans-30" x="63.623047"/>
       <use xlink:href="#DejaVuSans-30" x="127.246094"/>
       <use xlink:href="#DejaVuSans-30" x="190.869141"/>
      </g>
     </g>
    </g>
    <g id="xtick_3">
     <g id="line2d_5">
      <path d="M 397.994275 512.64 
L 397.994275 69.12 
" clip-path="url(#pf47c7469c9)" style="fill: none; stroke: #b0b0b0; stroke-width: 0.8; stroke-linecap: square"/>
     </g>
     <g id="line2d_6">
      <g>
       <use xlink:href="#m4c5c5732a9" x="397.994275" y="512.64" style="stroke: #000000; stroke-width: 0.8"/>
      </g>
     </g>
     <g id="text_3">
      <!-- 10000 -->
      <g transform="translate(350.275525 542.435313) scale(0.3 -0.3)">
       <defs>
        <path id="DejaVuSans-31" d="M 794 531 
L 1825 531 
L 1825 4091 
L 703 3866 
L 703 4441 
L 1819 4666 
L 2450 4666 
L 2450 531 
L 3481 531 
L 3481 0 
L 794 0 
L 794 531 
z
" transform="scale(0.015625)"/>
       </defs>
       <use xlink:href="#DejaVuSans-31"/>
       <use xlink:href="#DejaVuSans-30" x="63.623047"/>
       <use xlink:href="#DejaVuSans-30" x="127.246094"/>
       <use xlink:href="#DejaVuSans-30" x="190.869141"/>
       <use xlink:href="#DejaVuSans-30" x="254.492188"/>
      </g>
     </g>
    </g>
    <g id="xtick_4">
     <g id="line2d_7">
      <path d="M 528.28135 512.64 
L 528.28135 69.12 
" clip-path="url(#pf47c7469c9)" style="fill: none; stroke: #b0b0b0; stroke-width: 0.8; stroke-linecap: square"/>
     </g>
     <g id="line2d_8">
      <g>
       <use xlink:href="#m4c5c5732a9" x="528.28135" y="512.64" style="stroke: #000000; stroke-width: 0.8"/>
      </g>
     </g>
     <g id="text_4">
      <!-- 15000 -->
      <g transform="translate(480.5626 542.435313) scale(0.3 -0.3)">
       <use xlink:href="#DejaVuSans-31"/>
       <use xlink:href="#DejaVuSans-35" x="63.623047"/>
       <use xlink:href="#DejaVuSans-30" x="127.246094"/>
       <use xlink:href="#DejaVuSans-30" x="190.869141"/>
       <use xlink:href="#DejaVuSans-30" x="254.492188"/>
      </g>
     </g>
    </g>
    <g id="xtick_5">
     <g id="line2d_9">
      <path d="M 658.568425 512.64 
L 658.568425 69.12 
" clip-path="url(#pf47c7469c9)" style="fill: none; stroke: #b0b0b0; stroke-width: 0.8; stroke-linecap: square"/>
     </g>
     <g id="line2d_10">
      <g>
       <use xlink:href="#m4c5c5732a9" x="658.568425" y="512.64" style="stroke: #000000; stroke-width: 0.8"/>
      </g>
     </g>
     <g id="text_5">
      <!-- 20000 -->
      <g transform="translate(610.849675 542.435313) scale(0.3 -0.3)">
       <defs>
        <path id="DejaVuSans-32" d="M 1228 531 
L 3431 531 
L 3431 0 
L 469 0 
L 469 531 
Q 828 903 1448 1529 
Q 2069 2156 2228 2338 
Q 2531 2678 2651 2914 
Q 2772 3150 2772 3378 
Q 2772 3750 2511 3984 
Q 2250 4219 1831 4219 
Q 1534 4219 1204 4116 
Q 875 4013 500 3803 
L 500 4441 
Q 881 4594 1212 4672 
Q 1544 4750 1819 4750 
Q 2544 4750 2975 4387 
Q 3406 4025 3406 3419 
Q 3406 3131 3298 2873 
Q 3191 2616 2906 2266 
Q 2828 2175 2409 1742 
Q 1991 1309 1228 531 
z
" transform="scale(0.015625)"/>
       </defs>
       <use xlink:href="#DejaVuSans-32"/>
       <use xlink:href="#DejaVuSans-30" x="63.623047"/>
       <use xlink:href="#DejaVuSans-30" x="127.246094"/>
       <use xlink:href="#DejaVuSans-30" x="190.869141"/>
       <use xlink:href="#DejaVuSans-30" x="254.492188"/>
      </g>
     </g>
    </g>
    <g id="text_6">
     <!-- Steps -->
     <g transform="translate(386.840625 583.068125) scale(0.4 -0.4)">
      <defs>
       <path id="DejaVuSans-53" d="M 3425 4513 
L 3425 3897 
Q 3066 4069 2747 4153 
Q 2428 4238 2131 4238 
Q 1616 4238 1336 4038 
Q 1056 3838 1056 3469 
Q 1056 3159 1242 3001 
Q 1428 2844 1947 2747 
L 2328 2669 
Q 3034 2534 3370 2195 
Q 3706 1856 3706 1288 
Q 3706 609 3251 259 
Q 2797 -91 1919 -91 
Q 1588 -91 1214 -16 
Q 841 59 441 206 
L 441 856 
Q 825 641 1194 531 
Q 1563 422 1919 422 
Q 2459 422 2753 634 
Q 3047 847 3047 1241 
Q 3047 1584 2836 1778 
Q 2625 1972 2144 2069 
L 1759 2144 
Q 1053 2284 737 2584 
Q 422 2884 422 3419 
Q 422 4038 858 4394 
Q 1294 4750 2059 4750 
Q 2388 4750 2728 4690 
Q 3069 4631 3425 4513 
z
" transform="scale(0.015625)"/>
       <path id="DejaVuSans-74" d="M 1172 4494 
L 1172 3500 
L 2356 3500 
L 2356 3053 
L 1172 3053 
L 1172 1153 
Q 1172 725 1289 603 
Q 1406 481 1766 481 
L 2356 481 
L 2356 0 
L 1766 0 
Q 1100 0 847 248 
Q 594 497 594 1153 
L 594 3053 
L 172 3053 
L 172 3500 
L 594 3500 
L 594 4494 
L 1172 4494 
z
" transform="scale(0.015625)"/>
       <path id="DejaVuSans-65" d="M 3597 1894 
L 3597 1613 
L 953 1613 
Q 991 1019 1311 708 
Q 1631 397 2203 397 
Q 2534 397 2845 478 
Q 3156 559 3463 722 
L 3463 178 
Q 3153 47 2828 -22 
Q 2503 -91 2169 -91 
Q 1331 -91 842 396 
Q 353 884 353 1716 
Q 353 2575 817 3079 
Q 1281 3584 2069 3584 
Q 2775 3584 3186 3129 
Q 3597 2675 3597 1894 
z
M 3022 2063 
Q 3016 2534 2758 2815 
Q 2500 3097 2075 3097 
Q 1594 3097 1305 2825 
Q 1016 2553 972 2059 
L 3022 2063 
z
" transform="scale(0.015625)"/>
       <path id="DejaVuSans-70" d="M 1159 525 
L 1159 -1331 
L 581 -1331 
L 581 3500 
L 1159 3500 
L 1159 2969 
Q 1341 3281 1617 3432 
Q 1894 3584 2278 3584 
Q 2916 3584 3314 3078 
Q 3713 2572 3713 1747 
Q 3713 922 3314 415 
Q 2916 -91 2278 -91 
Q 1894 -91 1617 61 
Q 1341 213 1159 525 
z
M 3116 1747 
Q 3116 2381 2855 2742 
Q 2594 3103 2138 3103 
Q 1681 3103 1420 2742 
Q 1159 2381 1159 1747 
Q 1159 1113 1420 752 
Q 1681 391 2138 391 
Q 2594 391 2855 752 
Q 3116 1113 3116 1747 
z
" transform="scale(0.015625)"/>
       <path id="DejaVuSans-73" d="M 2834 3397 
L 2834 2853 
Q 2591 2978 2328 3040 
Q 2066 3103 1784 3103 
Q 1356 3103 1142 2972 
Q 928 2841 928 2578 
Q 928 2378 1081 2264 
Q 1234 2150 1697 2047 
L 1894 2003 
Q 2506 1872 2764 1633 
Q 3022 1394 3022 966 
Q 3022 478 2636 193 
Q 2250 -91 1575 -91 
Q 1294 -91 989 -36 
Q 684 19 347 128 
L 347 722 
Q 666 556 975 473 
Q 1284 391 1588 391 
Q 1994 391 2212 530 
Q 2431 669 2431 922 
Q 2431 1156 2273 1281 
Q 2116 1406 1581 1522 
L 1381 1569 
Q 847 1681 609 1914 
Q 372 2147 372 2553 
Q 372 3047 722 3315 
Q 1072 3584 1716 3584 
Q 2034 3584 2315 3537 
Q 2597 3491 2834 3397 
z
" transform="scale(0.015625)"/>
      </defs>
      <use xlink:href="#DejaVuSans-53"/>
      <use xlink:href="#DejaVuSans-74" x="63.476562"/>
      <use xlink:href="#DejaVuSans-65" x="102.685547"/>
      <use xlink:href="#DejaVuSans-70" x="164.208984"/>
      <use xlink:href="#DejaVuSans-73" x="227.685547"/>
     </g>
    </g>
   </g>
   <g id="matplotlib.axis_2">
    <g id="ytick_1">
     <g id="line2d_11">
      <path d="M 108 482.524136 
L 777.6 482.524136 
" clip-path="url(#pf47c7469c9)" style="fill: none; stroke: #b0b0b0; stroke-width: 0.8; stroke-linecap: square"/>
     </g>
     <g id="line2d_12">
      <defs>
       <path id="m52b18b8fd8" d="M 0 0 
L -3.5 0 
" style="stroke: #000000; stroke-width: 0.8"/>
      </defs>
      <g>
       <use xlink:href="#m52b18b8fd8" x="108" y="482.524136" style="stroke: #000000; stroke-width: 0.8"/>
      </g>
     </g>
     <g id="text_7">
      <!-- −0.6 -->
      <g transform="translate(28.151562 493.921792) scale(0.3 -0.3)">
       <defs>
        <path id="DejaVuSans-2212" d="M 678 2272 
L 4684 2272 
L 4684 1741 
L 678 1741 
L 678 2272 
z
" transform="scale(0.015625)"/>
        <path id="DejaVuSans-2e" d="M 684 794 
L 1344 794 
L 1344 0 
L 684 0 
L 684 794 
z
" transform="scale(0.015625)"/>
        <path id="DejaVuSans-36" d="M 2113 2584 
Q 1688 2584 1439 2293 
Q 1191 2003 1191 1497 
Q 1191 994 1439 701 
Q 1688 409 2113 409 
Q 2538 409 2786 701 
Q 3034 994 3034 1497 
Q 3034 2003 2786 2293 
Q 2538 2584 2113 2584 
z
M 3366 4563 
L 3366 3988 
Q 3128 4100 2886 4159 
Q 2644 4219 2406 4219 
Q 1781 4219 1451 3797 
Q 1122 3375 1075 2522 
Q 1259 2794 1537 2939 
Q 1816 3084 2150 3084 
Q 2853 3084 3261 2657 
Q 3669 2231 3669 1497 
Q 3669 778 3244 343 
Q 2819 -91 2113 -91 
Q 1303 -91 875 529 
Q 447 1150 447 2328 
Q 447 3434 972 4092 
Q 1497 4750 2381 4750 
Q 2619 4750 2861 4703 
Q 3103 4656 3366 4563 
z
" transform="scale(0.015625)"/>
       </defs>
       <use xlink:href="#DejaVuSans-2212"/>
       <use xlink:href="#DejaVuSans-30" x="83.789062"/>
       <use xlink:href="#DejaVuSans-2e" x="147.412109"/>
       <use xlink:href="#DejaVuSans-36" x="179.199219"/>
      </g>
     </g>
    </g>
    <g id="ytick_2">
     <g id="line2d_13">
      <path d="M 108 409.126428 
L 777.6 409.126428 
" clip-path="url(#pf47c7469c9)" style="fill: none; stroke: #b0b0b0; stroke-width: 0.8; stroke-linecap: square"/>
     </g>
     <g id="line2d_14">
      <g>
       <use xlink:href="#m52b18b8fd8" x="108" y="409.126428" style="stroke: #000000; stroke-width: 0.8"/>
      </g>
     </g>
     <g id="text_8">
      <!-- −0.4 -->
      <g transform="translate(28.151562 420.524084) scale(0.3 -0.3)">
       <defs>
        <path id="DejaVuSans-34" d="M 2419 4116 
L 825 1625 
L 2419 1625 
L 2419 4116 
z
M 2253 4666 
L 3047 4666 
L 3047 1625 
L 3713 1625 
L 3713 1100 
L 3047 1100 
L 3047 0 
L 2419 0 
L 2419 1100 
L 313 1100 
L 313 1709 
L 2253 4666 
z
" transform="scale(0.015625)"/>
       </defs>
       <use xlink:href="#DejaVuSans-2212"/>
       <use xlink:href="#DejaVuSans-30" x="83.789062"/>
       <use xlink:href="#DejaVuSans-2e" x="147.412109"/>
       <use xlink:href="#DejaVuSans-34" x="179.199219"/>
      </g>
     </g>
    </g>
    <g id="ytick_3">
     <g id="line2d_15">
      <path d="M 108 335.728719 
L 777.6 335.728719 
" clip-path="url(#pf47c7469c9)" style="fill: none; stroke: #b0b0b0; stroke-width: 0.8; stroke-linecap: square"/>
     </g>
     <g id="line2d_16">
      <g>
       <use xlink:href="#m52b18b8fd8" x="108" y="335.728719" style="stroke: #000000; stroke-width: 0.8"/>
      </g>
     </g>
     <g id="text_9">
      <!-- −0.2 -->
      <g transform="translate(28.151562 347.126376) scale(0.3 -0.3)">
       <use xlink:href="#DejaVuSans-2212"/>
       <use xlink:href="#DejaVuSans-30" x="83.789062"/>
       <use xlink:href="#DejaVuSans-2e" x="147.412109"/>
       <use xlink:href="#DejaVuSans-32" x="179.199219"/>
      </g>
     </g>
    </g>
    <g id="ytick_4">
     <g id="line2d_17">
      <path d="M 108 262.331011 
L 777.6 262.331011 
" clip-path="url(#pf47c7469c9)" style="fill: none; stroke: #b0b0b0; stroke-width: 0.8; stroke-linecap: square"/>
     </g>
     <g id="line2d_18">
      <g>
       <use xlink:href="#m52b18b8fd8" x="108" y="262.331011" style="stroke: #000000; stroke-width: 0.8"/>
      </g>
     </g>
     <g id="text_10">
      <!-- 0.0 -->
      <g transform="translate(53.290625 273.728667) scale(0.3 -0.3)">
       <use xlink:href="#DejaVuSans-30"/>
       <use xlink:href="#DejaVuSans-2e" x="63.623047"/>
       <use xlink:href="#DejaVuSans-30" x="95.410156"/>
      </g>
     </g>
    </g>
    <g id="ytick_5">
     <g id="line2d_19">
      <path d="M 108 188.933302 
L 777.6 188.933302 
" clip-path="url(#pf47c7469c9)" style="fill: none; stroke: #b0b0b0; stroke-width: 0.8; stroke-linecap: square"/>
     </g>
     <g id="line2d_20">
      <g>
       <use xlink:href="#m52b18b8fd8" x="108" y="188.933302" style="stroke: #000000; stroke-width: 0.8"/>
      </g>
     </g>
     <g id="text_11">
      <!-- 0.2 -->
      <g transform="translate(53.290625 200.330959) scale(0.3 -0.3)">
       <use xlink:href="#DejaVuSans-30"/>
       <use xlink:href="#DejaVuSans-2e" x="63.623047"/>
       <use xlink:href="#DejaVuSans-32" x="95.410156"/>
      </g>
     </g>
    </g>
    <g id="ytick_6">
     <g id="line2d_21">
      <path d="M 108 115.535594 
L 777.6 115.535594 
" clip-path="url(#pf47c7469c9)" style="fill: none; stroke: #b0b0b0; stroke-width: 0.8; stroke-linecap: square"/>
     </g>
     <g id="line2d_22">
      <g>
       <use xlink:href="#m52b18b8fd8" x="108" y="115.535594" style="stroke: #000000; stroke-width: 0.8"/>
      </g>
     </g>
     <g id="text_12">
      <!-- 0.4 -->
      <g transform="translate(53.290625 126.93325) scale(0.3 -0.3)">
       <use xlink:href="#DejaVuSans-30"/>
       <use xlink:href="#DejaVuSans-2e" x="63.623047"/>
       <use xlink:href="#DejaVuSans-34" x="95.410156"/>
      </g>
     </g>
    </g>
    <g id="text_13">
     <!-- Pearson expression -->
     <g transform="translate(15.832812 484.56125) rotate(-90) scale(0.4 -0.4)">
      <defs>
       <path id="DejaVuSans-50" d="M 1259 4147 
L 1259 2394 
L 2053 2394 
Q 2494 2394 2734 2622 
Q 2975 2850 2975 3272 
Q 2975 3691 2734 3919 
Q 2494 4147 2053 4147 
L 1259 4147 
z
M 628 4666 
L 2053 4666 
Q 2838 4666 3239 4311 
Q 3641 3956 3641 3272 
Q 3641 2581 3239 2228 
Q 2838 1875 2053 1875 
L 1259 1875 
L 1259 0 
L 628 0 
L 628 4666 
z
" transform="scale(0.015625)"/>
       <path id="DejaVuSans-61" d="M 2194 1759 
Q 1497 1759 1228 1600 
Q 959 1441 959 1056 
Q 959 750 1161 570 
Q 1363 391 1709 391 
Q 2188 391 2477 730 
Q 2766 1069 2766 1631 
L 2766 1759 
L 2194 1759 
z
M 3341 1997 
L 3341 0 
L 2766 0 
L 2766 531 
Q 2569 213 2275 61 
Q 1981 -91 1556 -91 
Q 1019 -91 701 211 
Q 384 513 384 1019 
Q 384 1609 779 1909 
Q 1175 2209 1959 2209 
L 2766 2209 
L 2766 2266 
Q 2766 2663 2505 2880 
Q 2244 3097 1772 3097 
Q 1472 3097 1187 3025 
Q 903 2953 641 2809 
L 641 3341 
Q 956 3463 1253 3523 
Q 1550 3584 1831 3584 
Q 2591 3584 2966 3190 
Q 3341 2797 3341 1997 
z
" transform="scale(0.015625)"/>
       <path id="DejaVuSans-72" d="M 2631 2963 
Q 2534 3019 2420 3045 
Q 2306 3072 2169 3072 
Q 1681 3072 1420 2755 
Q 1159 2438 1159 1844 
L 1159 0 
L 581 0 
L 581 3500 
L 1159 3500 
L 1159 2956 
Q 1341 3275 1631 3429 
Q 1922 3584 2338 3584 
Q 2397 3584 2469 3576 
Q 2541 3569 2628 3553 
L 2631 2963 
z
" transform="scale(0.015625)"/>
       <path id="DejaVuSans-6f" d="M 1959 3097 
Q 1497 3097 1228 2736 
Q 959 2375 959 1747 
Q 959 1119 1226 758 
Q 1494 397 1959 397 
Q 2419 397 2687 759 
Q 2956 1122 2956 1747 
Q 2956 2369 2687 2733 
Q 2419 3097 1959 3097 
z
M 1959 3584 
Q 2709 3584 3137 3096 
Q 3566 2609 3566 1747 
Q 3566 888 3137 398 
Q 2709 -91 1959 -91 
Q 1206 -91 779 398 
Q 353 888 353 1747 
Q 353 2609 779 3096 
Q 1206 3584 1959 3584 
z
" transform="scale(0.015625)"/>
       <path id="DejaVuSans-6e" d="M 3513 2113 
L 3513 0 
L 2938 0 
L 2938 2094 
Q 2938 2591 2744 2837 
Q 2550 3084 2163 3084 
Q 1697 3084 1428 2787 
Q 1159 2491 1159 1978 
L 1159 0 
L 581 0 
L 581 3500 
L 1159 3500 
L 1159 2956 
Q 1366 3272 1645 3428 
Q 1925 3584 2291 3584 
Q 2894 3584 3203 3211 
Q 3513 2838 3513 2113 
z
" transform="scale(0.015625)"/>
       <path id="DejaVuSans-20" transform="scale(0.015625)"/>
       <path id="DejaVuSans-78" d="M 3513 3500 
L 2247 1797 
L 3578 0 
L 2900 0 
L 1881 1375 
L 863 0 
L 184 0 
L 1544 1831 
L 300 3500 
L 978 3500 
L 1906 2253 
L 2834 3500 
L 3513 3500 
z
" transform="scale(0.015625)"/>
       <path id="DejaVuSans-69" d="M 603 3500 
L 1178 3500 
L 1178 0 
L 603 0 
L 603 3500 
z
M 603 4863 
L 1178 4863 
L 1178 4134 
L 603 4134 
L 603 4863 
z
" transform="scale(0.015625)"/>
      </defs>
      <use xlink:href="#DejaVuSans-50"/>
      <use xlink:href="#DejaVuSans-65" x="56.677734"/>
      <use xlink:href="#DejaVuSans-61" x="118.201172"/>
      <use xlink:href="#DejaVuSans-72" x="179.480469"/>
      <use xlink:href="#DejaVuSans-73" x="220.59375"/>
      <use xlink:href="#DejaVuSans-6f" x="272.693359"/>
      <use xlink:href="#DejaVuSans-6e" x="333.875"/>
      <use xlink:href="#DejaVuSans-20" x="397.253906"/>
      <use xlink:href="#DejaVuSans-65" x="429.041016"/>
      <use xlink:href="#DejaVuSans-78" x="488.814453"/>
      <use xlink:href="#DejaVuSans-70" x="547.994141"/>
      <use xlink:href="#DejaVuSans-72" x="611.470703"/>
      <use xlink:href="#DejaVuSans-65" x="650.333984"/>
      <use xlink:href="#DejaVuSans-73" x="711.857422"/>
      <use xlink:href="#DejaVuSans-73" x="763.957031"/>
      <use xlink:href="#DejaVuSans-69" x="816.056641"/>
      <use xlink:href="#DejaVuSans-6f" x="843.839844"/>
      <use xlink:href="#DejaVuSans-6e" x="905.021484"/>
     </g>
    </g>
   </g>
   <g id="line2d_23">
    <path d="M 138.436364 492.48 
L 139.452603 320.360013 
L 140.468842 262.397793 
L 141.485081 237.230883 
L 142.50132 202.646821 
L 143.51756 173.588861 
L 145.550038 214.31569 
L 146.566277 217.52562 
L 147.582516 205.442766 
L 148.598756 227.610685 
L 149.614995 221.54013 
L 150.631234 238.303018 
L 151.647473 244.305166 
L 152.663712 236.056927 
L 153.679951 237.158487 
L 154.696191 248.617485 
L 155.71243 251.700751 
L 157.744908 233.452835 
L 158.761147 224.822636 
L 159.777387 235.579658 
L 161.809865 251.945348 
L 163.842343 246.064722 
L 164.858582 253.750306 
L 167.9073 235.17151 
L 168.923539 234.070196 
L 169.939778 243.696498 
L 170.956018 240.849566 
L 171.972257 250.38554 
L 172.988496 250.410056 
L 174.004735 264.446911 
L 175.020974 267.70158 
L 176.037214 270.472771 
L 177.053453 277.713382 
L 178.069692 289.749518 
L 179.085931 289.879687 
L 180.10217 299.152744 
L 181.118409 299.823289 
L 182.134649 304.182571 
L 183.150888 315.360282 
L 184.167127 322.024377 
L 185.183366 322.89946 
L 186.199605 328.033608 
L 189.248323 367.53833 
L 190.264562 367.442981 
L 192.297041 369.218819 
L 194.329519 388.078158 
L 195.345758 388.226779 
L 198.394476 427.199341 
L 199.410715 427.120344 
L 200.426954 427.788398 
L 201.443193 440.9894 
L 202.459432 441.298937 
L 203.475672 454.364633 
L 204.491911 454.618373 
L 205.50815 456.24799 
L 206.524389 456.627285 
L 208.556868 456.483753 
L 209.573107 456.608419 
L 210.589346 457.407724 
L 211.605585 457.321558 
L 214.654303 457.603691 
L 232.946608 456.991398 
L 340.667962 456.983541 
L 747.163636 456.983541 
L 747.163636 456.983541 
" clip-path="url(#pf47c7469c9)" style="fill: none; stroke: #1f77b4; stroke-width: 4; stroke-linecap: square"/>
   </g>
   <g id="line2d_24">
    <path d="M 138.436364 191.531696 
L 139.452603 203.080318 
L 140.468842 240.296023 
L 141.485081 191.465386 
L 142.50132 171.347064 
L 143.51756 158.163329 
L 144.533799 197.334042 
L 145.550038 225.102124 
L 146.566277 214.190562 
L 147.582516 206.865914 
L 148.598756 211.764329 
L 149.614995 217.68014 
L 151.647473 210.711416 
L 154.696191 197.135345 
L 156.728669 188.242081 
L 158.761147 180.667253 
L 159.777387 177.09365 
L 160.793626 174.846127 
L 161.809865 172.969385 
L 164.858582 166.010208 
L 167.9073 159.582063 
L 168.923539 156.362088 
L 169.939778 152.300417 
L 170.956018 144.926167 
L 171.972257 146.572564 
L 174.004735 146.729293 
L 176.037214 124.434041 
L 177.053453 123.26272 
L 178.069692 121.638876 
L 179.085931 115.93718 
L 180.10217 109.527266 
L 182.134649 104.261602 
L 183.150888 102.452743 
L 184.167127 100.933931 
L 185.183366 99.931401 
L 188.232084 97.784771 
L 189.248323 97.157874 
L 190.264562 96.751997 
L 192.297041 94.229253 
L 194.329519 92.742786 
L 196.361997 91.655846 
L 197.378236 91.365487 
L 198.394476 90.94252 
L 200.426954 90.652571 
L 206.524389 89.913363 
L 210.589346 89.669384 
L 225.832934 89.339333 
L 241.076521 89.293035 
L 264.450023 89.303281 
L 747.163636 89.303281 
L 747.163636 89.303281 
" clip-path="url(#pf47c7469c9)" style="fill: none; stroke: #ff7f0e; stroke-width: 4; stroke-linecap: square"/>
   </g>
   <g id="line2d_25">
    <path d="M 138.436364 413.808563 
L 140.468842 256.325208 
L 141.485081 246.755151 
L 142.50132 230.084309 
L 143.51756 218.493756 
L 145.550038 185.342805 
L 146.566277 177.719599 
L 147.582516 203.452696 
L 148.598756 225.197177 
L 149.614995 244.08001 
L 151.647473 273.210039 
L 152.663712 280.808541 
L 153.679951 291.378917 
L 154.696191 289.977507 
L 155.71243 281.573585 
L 157.744908 262.733736 
L 159.777387 247.707595 
L 160.793626 253.379085 
L 162.826104 267.205097 
L 164.858582 252.955664 
L 165.874822 248.008033 
L 167.9073 259.582686 
L 168.923539 250.004722 
L 169.939778 244.219805 
L 170.956018 244.078163 
L 171.972257 252.513919 
L 172.988496 249.754415 
L 175.020974 261.295699 
L 176.037214 263.886005 
L 177.053453 264.976299 
L 179.085931 245.171528 
L 180.10217 233.19733 
L 181.118409 224.740072 
L 182.134649 214.696162 
L 183.150888 205.852926 
L 184.167127 199.749963 
L 185.183366 201.116513 
L 187.215845 217.690292 
L 189.248323 239.544907 
L 190.264562 245.95831 
L 192.297041 241.713918 
L 193.31328 238.480198 
L 195.345758 254.665734 
L 196.361997 258.491102 
L 197.378236 252.53328 
L 198.394476 248.304968 
L 199.410715 253.062007 
L 200.426954 261.595748 
L 201.443193 267.410613 
L 202.459432 258.032465 
L 203.475672 261.788223 
L 205.50815 252.822294 
L 207.540628 260.719397 
L 208.556868 264.117007 
L 209.573107 266.607413 
L 210.589346 268.491336 
L 211.605585 267.154227 
L 212.621824 268.458137 
L 213.638063 269.314824 
L 214.654303 266.072128 
L 215.670542 264.5701 
L 216.686781 265.01781 
L 217.70302 259.667353 
L 218.719259 249.002926 
L 219.735499 240.94038 
L 220.751738 236.832598 
L 221.767977 230.620104 
L 222.784216 223.539932 
L 223.800455 224.092023 
L 224.816694 221.265611 
L 225.832934 217.025318 
L 226.849173 219.63473 
L 227.865412 217.363651 
L 228.881651 213.78444 
L 229.89789 213.840601 
L 230.91413 211.157631 
L 231.930369 212.685306 
L 234.979086 234.913815 
L 235.995326 241.14089 
L 237.011565 242.637701 
L 238.027804 244.661923 
L 239.044043 245.575304 
L 240.060282 245.554939 
L 241.076521 247.395791 
L 242.092761 250.693759 
L 243.109 248.27139 
L 244.125239 251.765435 
L 245.141478 252.811712 
L 246.157717 250.697786 
L 247.173957 245.213906 
L 248.190196 245.933974 
L 249.206435 248.334173 
L 250.222674 250.013093 
L 251.238913 251.07137 
L 252.255153 255.840126 
L 253.271392 258.282639 
L 254.287631 253.925493 
L 255.30387 254.974672 
L 256.320109 257.65955 
L 257.336348 256.223072 
L 259.368827 263.606932 
L 260.385066 263.550874 
L 261.401305 262.506736 
L 262.417544 261.682394 
L 263.433784 256.602672 
L 264.450023 250.119594 
L 265.466262 245.314386 
L 267.49874 243.751032 
L 268.51498 242.794531 
L 269.531219 244.818721 
L 272.579936 247.884249 
L 273.596175 252.657116 
L 274.612415 252.855956 
L 275.628654 254.39894 
L 276.644893 256.272254 
L 277.661132 255.996029 
L 278.677371 255.328497 
L 279.693611 257.428075 
L 280.70985 257.397819 
L 281.726089 260.030152 
L 282.742328 257.27346 
L 284.774806 256.685587 
L 285.791046 256.874811 
L 286.807285 254.837154 
L 287.823524 254.656174 
L 288.839763 254.09205 
L 289.856002 252.183745 
L 290.872242 249.079575 
L 292.90472 246.985643 
L 293.920959 246.32577 
L 294.937198 247.209381 
L 295.953438 246.088818 
L 296.969677 244.492186 
L 297.985916 243.396406 
L 299.002155 240.508625 
L 300.018394 238.053611 
L 301.034633 237.997341 
L 302.050873 239.489554 
L 303.067112 238.528084 
L 304.083351 236.476706 
L 305.09959 235.758081 
L 306.115829 231.177225 
L 307.132069 232.998314 
L 308.148308 233.742796 
L 310.180786 238.094841 
L 311.197025 239.057879 
L 313.229504 241.892475 
L 314.245743 243.981153 
L 315.261982 245.266641 
L 316.278221 247.112794 
L 317.29446 250.00873 
L 319.326939 249.975259 
L 320.343178 250.526009 
L 321.359417 253.356399 
L 322.375656 256.957563 
L 323.391896 256.033808 
L 324.408135 257.013657 
L 325.424374 257.255054 
L 326.440613 258.15712 
L 327.456852 258.27128 
L 328.473092 257.152247 
L 329.489331 258.440626 
L 330.50557 259.096099 
L 331.521809 259.450333 
L 332.538048 258.937762 
L 333.554287 259.999915 
L 334.570527 261.725022 
L 335.586766 263.216881 
L 336.603005 269.587068 
L 337.619244 268.234219 
L 338.635483 267.881471 
L 339.651723 264.892589 
L 340.667962 263.489148 
L 341.684201 263.807964 
L 342.70044 263.197243 
L 343.716679 265.875586 
L 344.732919 264.794395 
L 345.749158 266.56186 
L 346.765397 264.737725 
L 347.781636 263.638722 
L 348.797875 262.992763 
L 349.814114 263.051061 
L 350.830354 262.952854 
L 352.862832 259.677001 
L 353.879071 260.256681 
L 354.89531 259.373497 
L 355.91155 260.168968 
L 356.927789 263.366083 
L 357.944028 264.324721 
L 358.960267 264.928417 
L 359.976506 265.008401 
L 360.992745 262.429054 
L 362.008985 263.441969 
L 363.025224 263.1804 
L 364.041463 264.613044 
L 365.057702 264.971136 
L 367.090181 264.912269 
L 368.10642 265.8695 
L 369.122659 267.817145 
L 370.138898 272.396538 
L 371.155137 272.967913 
L 372.171377 273.930669 
L 373.187616 277.50895 
L 374.203855 276.690868 
L 375.220094 277.823952 
L 376.236333 276.32275 
L 377.252572 276.902546 
L 378.268812 275.669227 
L 379.285051 276.235315 
L 380.30129 275.195557 
L 381.317529 273.733078 
L 382.333768 272.757764 
L 383.350008 275.093142 
L 384.366247 275.732184 
L 385.382486 276.802115 
L 386.398725 277.486213 
L 387.414964 275.856057 
L 388.431204 273.407877 
L 389.447443 274.533146 
L 390.463682 272.087301 
L 391.479921 274.533835 
L 392.49616 274.793785 
L 393.512399 274.640969 
L 394.528639 272.93062 
L 395.544878 272.562289 
L 396.561117 273.160803 
L 397.577356 271.837387 
L 398.593595 271.816496 
L 399.609835 271.648799 
L 400.626074 270.059139 
L 401.642313 270.058196 
L 402.658552 268.688412 
L 403.674791 263.314118 
L 405.70727 262.099608 
L 406.723509 262.857666 
L 407.739748 259.041391 
L 408.755987 261.33591 
L 409.772226 261.461836 
L 410.788466 262.789488 
L 411.804705 262.557074 
L 412.820944 265.11444 
L 413.837183 262.926697 
L 414.853422 263.244756 
L 415.869662 261.746057 
L 416.885901 259.862455 
L 417.90214 258.613112 
L 418.918379 259.855653 
L 419.934618 258.490678 
L 420.950857 261.003121 
L 421.967097 262.451549 
L 422.983336 259.193196 
L 423.999575 258.124305 
L 425.015814 255.967354 
L 426.032053 256.132123 
L 427.048293 255.134594 
L 428.064532 255.292141 
L 429.080771 255.905959 
L 430.09701 255.356683 
L 431.113249 255.450193 
L 432.129489 254.945478 
L 433.145728 254.575406 
L 434.161967 256.42473 
L 435.178206 257.081487 
L 436.194445 257.081487 
L 438.226924 259.289514 
L 439.243163 257.788953 
L 440.259402 256.732922 
L 441.275641 256.209279 
L 442.29188 256.792343 
L 443.30812 257.900396 
L 444.324359 259.476716 
L 445.340598 257.62387 
L 446.356837 257.495828 
L 447.373076 263.890957 
L 448.389316 264.668271 
L 449.405555 264.277783 
L 450.421794 262.462482 
L 451.438033 261.746104 
L 452.454272 259.896211 
L 453.470511 261.532234 
L 454.486751 261.548821 
L 455.50299 263.386588 
L 456.519229 262.988637 
L 457.535468 262.75401 
L 458.551707 263.056182 
L 459.567947 262.646493 
L 460.584186 261.693915 
L 461.600425 260.061738 
L 462.616664 260.415074 
L 464.649143 260.415074 
L 465.665382 258.455998 
L 466.681621 258.03496 
L 467.69786 256.627939 
L 468.714099 257.412341 
L 469.730338 257.52839 
L 470.746578 254.780515 
L 471.762817 254.554601 
L 472.779056 255.777777 
L 473.795295 251.03781 
L 474.811534 255.713234 
L 475.827774 256.34118 
L 476.844013 258.533815 
L 477.860252 251.152883 
L 478.876491 250.10895 
L 479.89273 249.230708 
L 480.908969 253.318214 
L 481.925209 254.991347 
L 482.941448 254.991347 
L 483.957687 255.34062 
L 485.990165 258.864475 
L 487.006405 258.977376 
L 488.022644 261.867259 
L 489.038883 261.18237 
L 490.055122 264.501709 
L 491.071361 265.549275 
L 492.087601 267.333441 
L 494.120079 266.853192 
L 495.136318 269.289277 
L 496.152557 270.724788 
L 497.168796 271.67282 
L 498.185036 270.46242 
L 499.201275 272.487342 
L 500.217514 271.882372 
L 501.233753 276.494378 
L 502.249992 276.643267 
L 503.266232 276.643267 
L 504.282471 279.673843 
L 505.29871 272.975502 
L 506.314949 276.496854 
L 507.331188 276.175864 
L 508.347428 278.565084 
L 510.379906 280.22674 
L 511.396145 279.014857 
L 512.412384 277.602345 
L 513.428623 277.602345 
L 514.444863 279.840397 
L 515.461102 272.283589 
L 516.477341 270.007584 
L 517.49358 272.220063 
L 518.509819 269.344365 
L 519.526059 270.095701 
L 520.542298 264.874907 
L 521.558537 264.768911 
L 523.591015 264.846736 
L 524.607255 265.835031 
L 525.623494 263.777303 
L 526.639733 263.758997 
L 527.655972 264.107706 
L 528.672211 265.098096 
L 529.68845 264.404242 
L 530.70469 264.581455 
L 531.720929 261.123721 
L 532.737168 258.310784 
L 533.753407 253.723619 
L 534.769646 250.048042 
L 535.785886 250.483133 
L 536.802125 248.980289 
L 537.818364 248.611463 
L 538.834603 242.74154 
L 539.850842 240.499544 
L 540.867081 239.096066 
L 541.883321 237.307722 
L 542.89956 237.90344 
L 543.915799 240.135648 
L 544.932038 237.677455 
L 545.948277 243.307971 
L 546.964517 244.138728 
L 548.996995 238.782885 
L 550.013234 238.838194 
L 551.029473 239.316272 
L 552.045713 238.089993 
L 553.061952 237.965617 
L 554.078191 238.185652 
L 555.09443 235.775328 
L 556.110669 237.27185 
L 557.126908 237.214841 
L 558.143148 236.59238 
L 559.159387 239.704239 
L 560.175626 241.218026 
L 561.191865 244.414754 
L 562.208104 245.965942 
L 563.224344 248.881838 
L 564.240583 252.87439 
L 565.256822 255.887154 
L 566.273061 257.496362 
L 567.2893 256.26504 
L 568.30554 257.165709 
L 570.338018 264.225275 
L 572.370496 267.989572 
L 573.386735 267.369043 
L 574.402975 266.118278 
L 575.419214 266.937335 
L 576.435453 266.267186 
L 577.451692 266.348734 
L 578.467931 268.122923 
L 579.484171 269.436084 
L 580.50041 268.333542 
L 582.532888 269.942397 
L 583.549127 270.259562 
L 584.565367 272.312634 
L 585.581606 274.724438 
L 586.597845 272.389823 
L 587.614084 272.81648 
L 588.630323 272.887493 
L 589.646562 269.618416 
L 590.662802 270.815542 
L 591.679041 269.115888 
L 592.69528 269.475605 
L 593.711519 267.410332 
L 594.727758 267.584567 
L 595.743998 267.431369 
L 596.760237 265.686284 
L 597.776476 266.22576 
L 598.792715 266.280397 
L 599.808954 264.563692 
L 600.825194 262.039959 
L 601.841433 262.37317 
L 603.873911 261.649231 
L 604.89015 262.253066 
L 605.906389 262.597307 
L 606.922629 265.235121 
L 607.938868 263.767182 
L 608.955107 261.747795 
L 609.971346 262.419577 
L 610.987585 264.804479 
L 612.003825 264.845235 
L 613.020064 265.220555 
L 615.052542 262.357179 
L 616.068781 261.578673 
L 617.08502 263.451531 
L 618.10126 265.922583 
L 619.117499 266.894738 
L 620.133738 267.334755 
L 621.149977 267.272888 
L 622.166216 260.624031 
L 624.198695 261.654509 
L 626.231173 261.600981 
L 627.247412 262.538416 
L 628.263652 262.488965 
L 629.279891 262.307377 
L 631.312369 266.285033 
L 632.328608 267.149123 
L 633.344847 268.922748 
L 634.361087 271.373263 
L 635.377326 270.270881 
L 636.393565 270.910288 
L 637.409804 268.95523 
L 638.426043 269.801906 
L 639.442283 269.596135 
L 640.458522 270.3789 
L 641.474761 269.437856 
L 642.491 269.54272 
L 643.507239 268.098444 
L 644.523479 269.616505 
L 646.555957 270.272684 
L 647.572196 269.348513 
L 648.588435 265.560742 
L 649.604674 263.449381 
L 650.620914 262.504141 
L 651.637153 260.877407 
L 652.653392 265.735549 
L 653.669631 265.735549 
L 654.68587 266.475007 
L 655.70211 266.605439 
L 656.718349 266.311367 
L 658.750827 266.614987 
L 659.767066 266.599065 
L 660.783306 265.789183 
L 661.799545 266.401876 
L 662.815784 264.535782 
L 663.832023 263.948903 
L 664.848262 264.219433 
L 665.864501 265.254318 
L 666.880741 265.339488 
L 667.89698 267.031986 
L 668.913219 266.585488 
L 670.945697 266.692343 
L 671.961937 265.296962 
L 672.978176 265.428034 
L 673.994415 266.176961 
L 675.010654 265.690723 
L 676.026893 266.411219 
L 677.043132 266.350415 
L 679.075611 270.388398 
L 680.09185 269.189226 
L 681.108089 269.124776 
L 682.124328 269.287597 
L 683.140568 269.137535 
L 684.156807 269.274484 
L 685.173046 268.941429 
L 686.189285 268.982694 
L 687.205524 268.635571 
L 688.221764 266.876497 
L 689.238003 267.163266 
L 690.254242 266.956407 
L 691.270481 264.883853 
L 692.28672 265.406733 
L 693.302959 265.134795 
L 694.319199 264.18104 
L 695.335438 260.913248 
L 696.351677 260.361657 
L 698.384155 257.78728 
L 699.400395 258.521804 
L 700.416634 259.84638 
L 701.432873 257.835086 
L 702.449112 259.645392 
L 703.465351 260.23456 
L 704.481591 261.084496 
L 705.49783 260.731696 
L 706.514069 259.113914 
L 707.530308 259.109627 
L 708.546547 256.413971 
L 709.562786 256.028079 
L 710.579026 258.214865 
L 711.595265 258.559082 
L 713.627743 258.511346 
L 714.643982 258.120694 
L 715.660222 253.899628 
L 716.676461 254.633292 
L 717.6927 254.99298 
L 718.708939 254.801906 
L 719.725178 253.914508 
L 720.741418 252.708184 
L 721.757657 255.218622 
L 722.773896 251.329996 
L 723.790135 251.96009 
L 724.806374 251.853153 
L 725.822613 251.992249 
L 726.838853 252.856461 
L 727.855092 252.599654 
L 728.871331 254.420977 
L 729.88757 252.201474 
L 730.903809 251.327603 
L 731.920049 255.198512 
L 732.936288 253.97114 
L 733.952527 251.510918 
L 734.968766 251.109756 
L 735.985005 249.269019 
L 737.001244 250.317177 
L 738.017484 249.904 
L 739.033723 249.761876 
L 740.049962 248.953282 
L 741.066201 250.122199 
L 742.08244 250.249886 
L 743.09868 249.888759 
L 744.114919 250.728606 
L 745.131158 250.166099 
L 746.147397 257.107251 
L 747.163636 255.847998 
L 747.163636 255.847998 
" clip-path="url(#pf47c7469c9)" style="fill: none; stroke: #2ca02c; stroke-width: 4; stroke-linecap: square"/>
   </g>
   <g id="line2d_26"/>
   <g id="line2d_27"/>
   <g id="line2d_28"/>
   <g id="patch_3">
    <path d="M 108 512.64 
L 108 69.12 
" style="fill: none; stroke: #000000; stroke-width: 0.8; stroke-linejoin: miter; stroke-linecap: square"/>
   </g>
   <g id="patch_4">
    <path d="M 777.6 512.64 
L 777.6 69.12 
" style="fill: none; stroke: #000000; stroke-width: 0.8; stroke-linejoin: miter; stroke-linecap: square"/>
   </g>
   <g id="patch_5">
    <path d="M 108 512.64 
L 777.6 512.64 
" style="fill: none; stroke: #000000; stroke-width: 0.8; stroke-linejoin: miter; stroke-linecap: square"/>
   </g>
   <g id="patch_6">
    <path d="M 108 69.12 
L 777.6 69.12 
" style="fill: none; stroke: #000000; stroke-width: 0.8; stroke-linejoin: miter; stroke-linecap: square"/>
   </g>
   <g id="text_14">
    <!-- client3 -->
    <g transform="translate(341.315625 56.641875) scale(0.6 -0.6)">
     <defs>
      <path id="DejaVuSans-63" d="M 3122 3366 
L 3122 2828 
Q 2878 2963 2633 3030 
Q 2388 3097 2138 3097 
Q 1578 3097 1268 2742 
Q 959 2388 959 1747 
Q 959 1106 1268 751 
Q 1578 397 2138 397 
Q 2388 397 2633 464 
Q 2878 531 3122 666 
L 3122 134 
Q 2881 22 2623 -34 
Q 2366 -91 2075 -91 
Q 1284 -91 818 406 
Q 353 903 353 1747 
Q 353 2603 823 3093 
Q 1294 3584 2113 3584 
Q 2378 3584 2631 3529 
Q 2884 3475 3122 3366 
z
" transform="scale(0.015625)"/>
      <path id="DejaVuSans-6c" d="M 603 4863 
L 1178 4863 
L 1178 0 
L 603 0 
L 603 4863 
z
" transform="scale(0.015625)"/>
      <path id="DejaVuSans-33" d="M 2597 2516 
Q 3050 2419 3304 2112 
Q 3559 1806 3559 1356 
Q 3559 666 3084 287 
Q 2609 -91 1734 -91 
Q 1441 -91 1130 -33 
Q 819 25 488 141 
L 488 750 
Q 750 597 1062 519 
Q 1375 441 1716 441 
Q 2309 441 2620 675 
Q 2931 909 2931 1356 
Q 2931 1769 2642 2001 
Q 2353 2234 1838 2234 
L 1294 2234 
L 1294 2753 
L 1863 2753 
Q 2328 2753 2575 2939 
Q 2822 3125 2822 3475 
Q 2822 3834 2567 4026 
Q 2313 4219 1838 4219 
Q 1578 4219 1281 4162 
Q 984 4106 628 3988 
L 628 4550 
Q 988 4650 1302 4700 
Q 1616 4750 1894 4750 
Q 2613 4750 3031 4423 
Q 3450 4097 3450 3541 
Q 3450 3153 3228 2886 
Q 3006 2619 2597 2516 
z
" transform="scale(0.015625)"/>
     </defs>
     <use xlink:href="#DejaVuSans-63"/>
     <use xlink:href="#DejaVuSans-6c" x="54.980469"/>
     <use xlink:href="#DejaVuSans-69" x="82.763672"/>
     <use xlink:href="#DejaVuSans-65" x="110.546875"/>
     <use xlink:href="#DejaVuSans-6e" x="172.070312"/>
     <use xlink:href="#DejaVuSans-74" x="235.449219"/>
     <use xlink:href="#DejaVuSans-33" x="274.658203"/>
    </g>
   </g>
   <g id="legend_1">
    <g id="patch_7">
     <path d="M 136 492.64 
L 792.2375 492.64 
Q 800.2375 492.64 800.2375 484.64 
L 800.2375 311.39 
Q 800.2375 303.39 792.2375 303.39 
L 136 303.39 
Q 128 303.39 128 311.39 
L 128 484.64 
Q 128 492.64 136 492.64 
z
" style="fill: #ffffff; opacity: 0.8; stroke: #cccccc; stroke-linejoin: miter"/>
    </g>
    <g id="line2d_29">
     <path d="M 144 335.78375 
L 184 335.78375 
L 224 335.78375 
" style="fill: none; stroke: #1f77b4; stroke-width: 4; stroke-linecap: square"/>
    </g>
    <g id="text_15">
     <!-- fedavg_private_regressors -->
     <g transform="translate(256 349.78375) scale(0.4 -0.4)">
      <defs>
       <path id="DejaVuSans-66" d="M 2375 4863 
L 2375 4384 
L 1825 4384 
Q 1516 4384 1395 4259 
Q 1275 4134 1275 3809 
L 1275 3500 
L 2222 3500 
L 2222 3053 
L 1275 3053 
L 1275 0 
L 697 0 
L 697 3053 
L 147 3053 
L 147 3500 
L 697 3500 
L 697 3744 
Q 697 4328 969 4595 
Q 1241 4863 1831 4863 
L 2375 4863 
z
" transform="scale(0.015625)"/>
       <path id="DejaVuSans-64" d="M 2906 2969 
L 2906 4863 
L 3481 4863 
L 3481 0 
L 2906 0 
L 2906 525 
Q 2725 213 2448 61 
Q 2172 -91 1784 -91 
Q 1150 -91 751 415 
Q 353 922 353 1747 
Q 353 2572 751 3078 
Q 1150 3584 1784 3584 
Q 2172 3584 2448 3432 
Q 2725 3281 2906 2969 
z
M 947 1747 
Q 947 1113 1208 752 
Q 1469 391 1925 391 
Q 2381 391 2643 752 
Q 2906 1113 2906 1747 
Q 2906 2381 2643 2742 
Q 2381 3103 1925 3103 
Q 1469 3103 1208 2742 
Q 947 2381 947 1747 
z
" transform="scale(0.015625)"/>
       <path id="DejaVuSans-76" d="M 191 3500 
L 800 3500 
L 1894 563 
L 2988 3500 
L 3597 3500 
L 2284 0 
L 1503 0 
L 191 3500 
z
" transform="scale(0.015625)"/>
       <path id="DejaVuSans-67" d="M 2906 1791 
Q 2906 2416 2648 2759 
Q 2391 3103 1925 3103 
Q 1463 3103 1205 2759 
Q 947 2416 947 1791 
Q 947 1169 1205 825 
Q 1463 481 1925 481 
Q 2391 481 2648 825 
Q 2906 1169 2906 1791 
z
M 3481 434 
Q 3481 -459 3084 -895 
Q 2688 -1331 1869 -1331 
Q 1566 -1331 1297 -1286 
Q 1028 -1241 775 -1147 
L 775 -588 
Q 1028 -725 1275 -790 
Q 1522 -856 1778 -856 
Q 2344 -856 2625 -561 
Q 2906 -266 2906 331 
L 2906 616 
Q 2728 306 2450 153 
Q 2172 0 1784 0 
Q 1141 0 747 490 
Q 353 981 353 1791 
Q 353 2603 747 3093 
Q 1141 3584 1784 3584 
Q 2172 3584 2450 3431 
Q 2728 3278 2906 2969 
L 2906 3500 
L 3481 3500 
L 3481 434 
z
" transform="scale(0.015625)"/>
       <path id="DejaVuSans-5f" d="M 3263 -1063 
L 3263 -1509 
L -63 -1509 
L -63 -1063 
L 3263 -1063 
z
" transform="scale(0.015625)"/>
      </defs>
      <use xlink:href="#DejaVuSans-66"/>
      <use xlink:href="#DejaVuSans-65" x="35.205078"/>
      <use xlink:href="#DejaVuSans-64" x="96.728516"/>
      <use xlink:href="#DejaVuSans-61" x="160.205078"/>
      <use xlink:href="#DejaVuSans-76" x="221.484375"/>
      <use xlink:href="#DejaVuSans-67" x="280.664062"/>
      <use xlink:href="#DejaVuSans-5f" x="344.140625"/>
      <use xlink:href="#DejaVuSans-70" x="394.140625"/>
      <use xlink:href="#DejaVuSans-72" x="457.617188"/>
      <use xlink:href="#DejaVuSans-69" x="498.730469"/>
      <use xlink:href="#DejaVuSans-76" x="526.513672"/>
      <use xlink:href="#DejaVuSans-61" x="585.693359"/>
      <use xlink:href="#DejaVuSans-74" x="646.972656"/>
      <use xlink:href="#DejaVuSans-65" x="686.181641"/>
      <use xlink:href="#DejaVuSans-5f" x="747.705078"/>
      <use xlink:href="#DejaVuSans-72" x="797.705078"/>
      <use xlink:href="#DejaVuSans-65" x="836.568359"/>
      <use xlink:href="#DejaVuSans-67" x="898.091797"/>
      <use xlink:href="#DejaVuSans-72" x="961.568359"/>
      <use xlink:href="#DejaVuSans-65" x="1000.431641"/>
      <use xlink:href="#DejaVuSans-73" x="1061.955078"/>
      <use xlink:href="#DejaVuSans-73" x="1114.054688"/>
      <use xlink:href="#DejaVuSans-6f" x="1166.154297"/>
      <use xlink:href="#DejaVuSans-72" x="1227.335938"/>
      <use xlink:href="#DejaVuSans-73" x="1268.449219"/>
     </g>
    </g>
    <g id="line2d_30">
     <path d="M 144 395.60875 
L 184 395.60875 
L 224 395.60875 
" style="fill: none; stroke: #ff7f0e; stroke-width: 4; stroke-linecap: square"/>
    </g>
    <g id="text_16">
     <!-- fedavg -->
     <g transform="translate(256 409.60875) scale(0.4 -0.4)">
      <use xlink:href="#DejaVuSans-66"/>
      <use xlink:href="#DejaVuSans-65" x="35.205078"/>
      <use xlink:href="#DejaVuSans-64" x="96.728516"/>
      <use xlink:href="#DejaVuSans-61" x="160.205078"/>
      <use xlink:href="#DejaVuSans-76" x="221.484375"/>
      <use xlink:href="#DejaVuSans-67" x="280.664062"/>
     </g>
    </g>
    <g id="line2d_31">
     <path d="M 144 454.32125 
L 184 454.32125 
L 224 454.32125 
" style="fill: none; stroke: #2ca02c; stroke-width: 4; stroke-linecap: square"/>
    </g>
    <g id="text_17">
     <!-- local -->
     <g transform="translate(256 468.32125) scale(0.4 -0.4)">
      <use xlink:href="#DejaVuSans-6c"/>
      <use xlink:href="#DejaVuSans-6f" x="27.783203"/>
      <use xlink:href="#DejaVuSans-63" x="88.964844"/>
      <use xlink:href="#DejaVuSans-61" x="143.945312"/>
      <use xlink:href="#DejaVuSans-6c" x="205.224609"/>
     </g>
    </g>
   </g>
  </g>
 </g>
 <defs>
  <clipPath id="pf47c7469c9">
   <rect x="108" y="69.12" width="669.6" height="443.52"/>
  </clipPath>
 </defs>
</svg>
