<?xml version="1.0" encoding="utf-8" standalone="no"?>
<!DOCTYPE svg PUBLIC "-//W3C//DTD SVG 1.1//EN"
  "http://www.w3.org/Graphics/SVG/1.1/DTD/svg11.dtd">
<svg xmlns:xlink="http://www.w3.org/1999/xlink" width="864pt" height="576pt" viewBox="0 0 864 576" xmlns="http://www.w3.org/2000/svg" version="1.1">
 <metadata>
  <rdf:RDF xmlns:dc="http://purl.org/dc/elements/1.1/" xmlns:cc="http://creativecommons.org/ns#" xmlns:rdf="http://www.w3.org/1999/02/22-rdf-syntax-ns#">
   <cc:Work>
    <dc:type rdf:resource="http://purl.org/dc/dcmitype/StillImage"/>
    <dc:date>2025-04-25T14:18:11.784325</dc:date>
    <dc:format>image/svg+xml</dc:format>
    <dc:creator>
     <cc:Agent>
      <dc:title>Matplotlib v3.8.2, https://matplotlib.org/</dc:title>
     </cc:Agent>
    </dc:creator>
   </cc:Work>
  </rdf:RDF>
 </metadata>
 <defs>
  <style type="text/css">*{stroke-linejoin: round; stroke-linecap: butt}</style>
 </defs>
 <g id="figure_1">
  <g id="patch_1">
   <path d="M 0 576 
L 864 576 
L 864 0 
L 0 0 
z
" style="fill: #ffffff"/>
  </g>
  <g id="axes_1">
   <g id="patch_2">
    <path d="M 108 512.64 
L 777.6 512.64 
L 777.6 69.12 
L 108 69.12 
z
" style="fill: #ffffff"/>
   </g>
   <g id="PolyCollection_1"/>
   <g id="PolyCollection_2"/>
   <g id="PolyCollection_3"/>
   <g id="matplotlib.axis_1">
    <g id="xtick_1">
     <g id="line2d_1">
      <path d="M 137.420124 512.64 
L 137.420124 69.12 
" clip-path="url(#pa7fc9f2ff6)" style="fill: none; stroke: #b0b0b0; stroke-width: 0.8; stroke-linecap: square"/>
     </g>
     <g id="line2d_2">
      <defs>
       <path id="mc84773bc0d" d="M 0 0 
L 0 3.5 
" style="stroke: #000000; stroke-width: 0.8"/>
      </defs>
      <g>
       <use xlink:href="#mc84773bc0d" x="137.420124" y="512.64" style="stroke: #000000; stroke-width: 0.8"/>
      </g>
     </g>
     <g id="text_1">
      <!-- 0 -->
      <g transform="translate(127.876374 542.435313) scale(0.3 -0.3)">
       <defs>
        <path id="DejaVuSans-30" d="M 2034 4250 
Q 1547 4250 1301 3770 
Q 1056 3291 1056 2328 
Q 1056 1369 1301 889 
Q 1547 409 2034 409 
Q 2525 409 2770 889 
Q 3016 1369 3016 2328 
Q 3016 3291 2770 3770 
Q 2525 4250 2034 4250 
z
M 2034 4750 
Q 2819 4750 3233 4129 
Q 3647 3509 3647 2328 
Q 3647 1150 3233 529 
Q 2819 -91 2034 -91 
Q 1250 -91 836 529 
Q 422 1150 422 2328 
Q 422 3509 836 4129 
Q 1250 4750 2034 4750 
z
" transform="scale(0.015625)"/>
       </defs>
       <use xlink:href="#DejaVuSans-30"/>
      </g>
     </g>
    </g>
    <g id="xtick_2">
     <g id="line2d_3">
      <path d="M 256.977676 512.64 
L 256.977676 69.12 
" clip-path="url(#pa7fc9f2ff6)" style="fill: none; stroke: #b0b0b0; stroke-width: 0.8; stroke-linecap: square"/>
     </g>
     <g id="line2d_4">
      <g>
       <use xlink:href="#mc84773bc0d" x="256.977676" y="512.64" style="stroke: #000000; stroke-width: 0.8"/>
      </g>
     </g>
     <g id="text_2">
      <!-- 10000 -->
      <g transform="translate(209.258926 542.435313) scale(0.3 -0.3)">
       <defs>
        <path id="DejaVuSans-31" d="M 794 531 
L 1825 531 
L 1825 4091 
L 703 3866 
L 703 4441 
L 1819 4666 
L 2450 4666 
L 2450 531 
L 3481 531 
L 3481 0 
L 794 0 
L 794 531 
z
" transform="scale(0.015625)"/>
       </defs>
       <use xlink:href="#DejaVuSans-31"/>
       <use xlink:href="#DejaVuSans-30" x="63.623047"/>
       <use xlink:href="#DejaVuSans-30" x="127.246094"/>
       <use xlink:href="#DejaVuSans-30" x="190.869141"/>
       <use xlink:href="#DejaVuSans-30" x="254.492188"/>
      </g>
     </g>
    </g>
    <g id="xtick_3">
     <g id="line2d_5">
      <path d="M 376.535227 512.64 
L 376.535227 69.12 
" clip-path="url(#pa7fc9f2ff6)" style="fill: none; stroke: #b0b0b0; stroke-width: 0.8; stroke-linecap: square"/>
     </g>
     <g id="line2d_6">
      <g>
       <use xlink:href="#mc84773bc0d" x="376.535227" y="512.64" style="stroke: #000000; stroke-width: 0.8"/>
      </g>
     </g>
     <g id="text_3">
      <!-- 20000 -->
      <g transform="translate(328.816477 542.435313) scale(0.3 -0.3)">
       <defs>
        <path id="DejaVuSans-32" d="M 1228 531 
L 3431 531 
L 3431 0 
L 469 0 
L 469 531 
Q 828 903 1448 1529 
Q 2069 2156 2228 2338 
Q 2531 2678 2651 2914 
Q 2772 3150 2772 3378 
Q 2772 3750 2511 3984 
Q 2250 4219 1831 4219 
Q 1534 4219 1204 4116 
Q 875 4013 500 3803 
L 500 4441 
Q 881 4594 1212 4672 
Q 1544 4750 1819 4750 
Q 2544 4750 2975 4387 
Q 3406 4025 3406 3419 
Q 3406 3131 3298 2873 
Q 3191 2616 2906 2266 
Q 2828 2175 2409 1742 
Q 1991 1309 1228 531 
z
" transform="scale(0.015625)"/>
       </defs>
       <use xlink:href="#DejaVuSans-32"/>
       <use xlink:href="#DejaVuSans-30" x="63.623047"/>
       <use xlink:href="#DejaVuSans-30" x="127.246094"/>
       <use xlink:href="#DejaVuSans-30" x="190.869141"/>
       <use xlink:href="#DejaVuSans-30" x="254.492188"/>
      </g>
     </g>
    </g>
    <g id="xtick_4">
     <g id="line2d_7">
      <path d="M 496.092779 512.64 
L 496.092779 69.12 
" clip-path="url(#pa7fc9f2ff6)" style="fill: none; stroke: #b0b0b0; stroke-width: 0.8; stroke-linecap: square"/>
     </g>
     <g id="line2d_8">
      <g>
       <use xlink:href="#mc84773bc0d" x="496.092779" y="512.64" style="stroke: #000000; stroke-width: 0.8"/>
      </g>
     </g>
     <g id="text_4">
      <!-- 30000 -->
      <g transform="translate(448.374029 542.435313) scale(0.3 -0.3)">
       <defs>
        <path id="DejaVuSans-33" d="M 2597 2516 
Q 3050 2419 3304 2112 
Q 3559 1806 3559 1356 
Q 3559 666 3084 287 
Q 2609 -91 1734 -91 
Q 1441 -91 1130 -33 
Q 819 25 488 141 
L 488 750 
Q 750 597 1062 519 
Q 1375 441 1716 441 
Q 2309 441 2620 675 
Q 2931 909 2931 1356 
Q 2931 1769 2642 2001 
Q 2353 2234 1838 2234 
L 1294 2234 
L 1294 2753 
L 1863 2753 
Q 2328 2753 2575 2939 
Q 2822 3125 2822 3475 
Q 2822 3834 2567 4026 
Q 2313 4219 1838 4219 
Q 1578 4219 1281 4162 
Q 984 4106 628 3988 
L 628 4550 
Q 988 4650 1302 4700 
Q 1616 4750 1894 4750 
Q 2613 4750 3031 4423 
Q 3450 4097 3450 3541 
Q 3450 3153 3228 2886 
Q 3006 2619 2597 2516 
z
" transform="scale(0.015625)"/>
       </defs>
       <use xlink:href="#DejaVuSans-33"/>
       <use xlink:href="#DejaVuSans-30" x="63.623047"/>
       <use xlink:href="#DejaVuSans-30" x="127.246094"/>
       <use xlink:href="#DejaVuSans-30" x="190.869141"/>
       <use xlink:href="#DejaVuSans-30" x="254.492188"/>
      </g>
     </g>
    </g>
    <g id="xtick_5">
     <g id="line2d_9">
      <path d="M 615.65033 512.64 
L 615.65033 69.12 
" clip-path="url(#pa7fc9f2ff6)" style="fill: none; stroke: #b0b0b0; stroke-width: 0.8; stroke-linecap: square"/>
     </g>
     <g id="line2d_10">
      <g>
       <use xlink:href="#mc84773bc0d" x="615.65033" y="512.64" style="stroke: #000000; stroke-width: 0.8"/>
      </g>
     </g>
     <g id="text_5">
      <!-- 40000 -->
      <g transform="translate(567.93158 542.435313) scale(0.3 -0.3)">
       <defs>
        <path id="DejaVuSans-34" d="M 2419 4116 
L 825 1625 
L 2419 1625 
L 2419 4116 
z
M 2253 4666 
L 3047 4666 
L 3047 1625 
L 3713 1625 
L 3713 1100 
L 3047 1100 
L 3047 0 
L 2419 0 
L 2419 1100 
L 313 1100 
L 313 1709 
L 2253 4666 
z
" transform="scale(0.015625)"/>
       </defs>
       <use xlink:href="#DejaVuSans-34"/>
       <use xlink:href="#DejaVuSans-30" x="63.623047"/>
       <use xlink:href="#DejaVuSans-30" x="127.246094"/>
       <use xlink:href="#DejaVuSans-30" x="190.869141"/>
       <use xlink:href="#DejaVuSans-30" x="254.492188"/>
      </g>
     </g>
    </g>
    <g id="xtick_6">
     <g id="line2d_11">
      <path d="M 735.207881 512.64 
L 735.207881 69.12 
" clip-path="url(#pa7fc9f2ff6)" style="fill: none; stroke: #b0b0b0; stroke-width: 0.8; stroke-linecap: square"/>
     </g>
     <g id="line2d_12">
      <g>
       <use xlink:href="#mc84773bc0d" x="735.207881" y="512.64" style="stroke: #000000; stroke-width: 0.8"/>
      </g>
     </g>
     <g id="text_6">
      <!-- 50000 -->
      <g transform="translate(687.489131 542.435313) scale(0.3 -0.3)">
       <defs>
        <path id="DejaVuSans-35" d="M 691 4666 
L 3169 4666 
L 3169 4134 
L 1269 4134 
L 1269 2991 
Q 1406 3038 1543 3061 
Q 1681 3084 1819 3084 
Q 2600 3084 3056 2656 
Q 3513 2228 3513 1497 
Q 3513 744 3044 326 
Q 2575 -91 1722 -91 
Q 1428 -91 1123 -41 
Q 819 9 494 109 
L 494 744 
Q 775 591 1075 516 
Q 1375 441 1709 441 
Q 2250 441 2565 725 
Q 2881 1009 2881 1497 
Q 2881 1984 2565 2268 
Q 2250 2553 1709 2553 
Q 1456 2553 1204 2497 
Q 953 2441 691 2322 
L 691 4666 
z
" transform="scale(0.015625)"/>
       </defs>
       <use xlink:href="#DejaVuSans-35"/>
       <use xlink:href="#DejaVuSans-30" x="63.623047"/>
       <use xlink:href="#DejaVuSans-30" x="127.246094"/>
       <use xlink:href="#DejaVuSans-30" x="190.869141"/>
       <use xlink:href="#DejaVuSans-30" x="254.492188"/>
      </g>
     </g>
    </g>
    <g id="text_7">
     <!-- Steps -->
     <g transform="translate(386.840625 583.068125) scale(0.4 -0.4)">
      <defs>
       <path id="DejaVuSans-53" d="M 3425 4513 
L 3425 3897 
Q 3066 4069 2747 4153 
Q 2428 4238 2131 4238 
Q 1616 4238 1336 4038 
Q 1056 3838 1056 3469 
Q 1056 3159 1242 3001 
Q 1428 2844 1947 2747 
L 2328 2669 
Q 3034 2534 3370 2195 
Q 3706 1856 3706 1288 
Q 3706 609 3251 259 
Q 2797 -91 1919 -91 
Q 1588 -91 1214 -16 
Q 841 59 441 206 
L 441 856 
Q 825 641 1194 531 
Q 1563 422 1919 422 
Q 2459 422 2753 634 
Q 3047 847 3047 1241 
Q 3047 1584 2836 1778 
Q 2625 1972 2144 2069 
L 1759 2144 
Q 1053 2284 737 2584 
Q 422 2884 422 3419 
Q 422 4038 858 4394 
Q 1294 4750 2059 4750 
Q 2388 4750 2728 4690 
Q 3069 4631 3425 4513 
z
" transform="scale(0.015625)"/>
       <path id="DejaVuSans-74" d="M 1172 4494 
L 1172 3500 
L 2356 3500 
L 2356 3053 
L 1172 3053 
L 1172 1153 
Q 1172 725 1289 603 
Q 1406 481 1766 481 
L 2356 481 
L 2356 0 
L 1766 0 
Q 1100 0 847 248 
Q 594 497 594 1153 
L 594 3053 
L 172 3053 
L 172 3500 
L 594 3500 
L 594 4494 
L 1172 4494 
z
" transform="scale(0.015625)"/>
       <path id="DejaVuSans-65" d="M 3597 1894 
L 3597 1613 
L 953 1613 
Q 991 1019 1311 708 
Q 1631 397 2203 397 
Q 2534 397 2845 478 
Q 3156 559 3463 722 
L 3463 178 
Q 3153 47 2828 -22 
Q 2503 -91 2169 -91 
Q 1331 -91 842 396 
Q 353 884 353 1716 
Q 353 2575 817 3079 
Q 1281 3584 2069 3584 
Q 2775 3584 3186 3129 
Q 3597 2675 3597 1894 
z
M 3022 2063 
Q 3016 2534 2758 2815 
Q 2500 3097 2075 3097 
Q 1594 3097 1305 2825 
Q 1016 2553 972 2059 
L 3022 2063 
z
" transform="scale(0.015625)"/>
       <path id="DejaVuSans-70" d="M 1159 525 
L 1159 -1331 
L 581 -1331 
L 581 3500 
L 1159 3500 
L 1159 2969 
Q 1341 3281 1617 3432 
Q 1894 3584 2278 3584 
Q 2916 3584 3314 3078 
Q 3713 2572 3713 1747 
Q 3713 922 3314 415 
Q 2916 -91 2278 -91 
Q 1894 -91 1617 61 
Q 1341 213 1159 525 
z
M 3116 1747 
Q 3116 2381 2855 2742 
Q 2594 3103 2138 3103 
Q 1681 3103 1420 2742 
Q 1159 2381 1159 1747 
Q 1159 1113 1420 752 
Q 1681 391 2138 391 
Q 2594 391 2855 752 
Q 3116 1113 3116 1747 
z
" transform="scale(0.015625)"/>
       <path id="DejaVuSans-73" d="M 2834 3397 
L 2834 2853 
Q 2591 2978 2328 3040 
Q 2066 3103 1784 3103 
Q 1356 3103 1142 2972 
Q 928 2841 928 2578 
Q 928 2378 1081 2264 
Q 1234 2150 1697 2047 
L 1894 2003 
Q 2506 1872 2764 1633 
Q 3022 1394 3022 966 
Q 3022 478 2636 193 
Q 2250 -91 1575 -91 
Q 1294 -91 989 -36 
Q 684 19 347 128 
L 347 722 
Q 666 556 975 473 
Q 1284 391 1588 391 
Q 1994 391 2212 530 
Q 2431 669 2431 922 
Q 2431 1156 2273 1281 
Q 2116 1406 1581 1522 
L 1381 1569 
Q 847 1681 609 1914 
Q 372 2147 372 2553 
Q 372 3047 722 3315 
Q 1072 3584 1716 3584 
Q 2034 3584 2315 3537 
Q 2597 3491 2834 3397 
z
" transform="scale(0.015625)"/>
      </defs>
      <use xlink:href="#DejaVuSans-53"/>
      <use xlink:href="#DejaVuSans-74" x="63.476562"/>
      <use xlink:href="#DejaVuSans-65" x="102.685547"/>
      <use xlink:href="#DejaVuSans-70" x="164.208984"/>
      <use xlink:href="#DejaVuSans-73" x="227.685547"/>
     </g>
    </g>
   </g>
   <g id="matplotlib.axis_2">
    <g id="ytick_1">
     <g id="line2d_13">
      <path d="M 108 481.593691 
L 777.6 481.593691 
" clip-path="url(#pa7fc9f2ff6)" style="fill: none; stroke: #b0b0b0; stroke-width: 0.8; stroke-linecap: square"/>
     </g>
     <g id="line2d_14">
      <defs>
       <path id="m6fe4e507e0" d="M 0 0 
L -3.5 0 
" style="stroke: #000000; stroke-width: 0.8"/>
      </defs>
      <g>
       <use xlink:href="#m6fe4e507e0" x="108" y="481.593691" style="stroke: #000000; stroke-width: 0.8"/>
      </g>
     </g>
     <g id="text_8">
      <!-- −0.3 -->
      <g transform="translate(28.151562 492.991348) scale(0.3 -0.3)">
       <defs>
        <path id="DejaVuSans-2212" d="M 678 2272 
L 4684 2272 
L 4684 1741 
L 678 1741 
L 678 2272 
z
" transform="scale(0.015625)"/>
        <path id="DejaVuSans-2e" d="M 684 794 
L 1344 794 
L 1344 0 
L 684 0 
L 684 794 
z
" transform="scale(0.015625)"/>
       </defs>
       <use xlink:href="#DejaVuSans-2212"/>
       <use xlink:href="#DejaVuSans-30" x="83.789062"/>
       <use xlink:href="#DejaVuSans-2e" x="147.412109"/>
       <use xlink:href="#DejaVuSans-33" x="179.199219"/>
      </g>
     </g>
    </g>
    <g id="ytick_2">
     <g id="line2d_15">
      <path d="M 108 431.197986 
L 777.6 431.197986 
" clip-path="url(#pa7fc9f2ff6)" style="fill: none; stroke: #b0b0b0; stroke-width: 0.8; stroke-linecap: square"/>
     </g>
     <g id="line2d_16">
      <g>
       <use xlink:href="#m6fe4e507e0" x="108" y="431.197986" style="stroke: #000000; stroke-width: 0.8"/>
      </g>
     </g>
     <g id="text_9">
      <!-- −0.2 -->
      <g transform="translate(28.151562 442.595642) scale(0.3 -0.3)">
       <use xlink:href="#DejaVuSans-2212"/>
       <use xlink:href="#DejaVuSans-30" x="83.789062"/>
       <use xlink:href="#DejaVuSans-2e" x="147.412109"/>
       <use xlink:href="#DejaVuSans-32" x="179.199219"/>
      </g>
     </g>
    </g>
    <g id="ytick_3">
     <g id="line2d_17">
      <path d="M 108 380.80228 
L 777.6 380.80228 
" clip-path="url(#pa7fc9f2ff6)" style="fill: none; stroke: #b0b0b0; stroke-width: 0.8; stroke-linecap: square"/>
     </g>
     <g id="line2d_18">
      <g>
       <use xlink:href="#m6fe4e507e0" x="108" y="380.80228" style="stroke: #000000; stroke-width: 0.8"/>
      </g>
     </g>
     <g id="text_10">
      <!-- −0.1 -->
      <g transform="translate(28.151562 392.199936) scale(0.3 -0.3)">
       <use xlink:href="#DejaVuSans-2212"/>
       <use xlink:href="#DejaVuSans-30" x="83.789062"/>
       <use xlink:href="#DejaVuSans-2e" x="147.412109"/>
       <use xlink:href="#DejaVuSans-31" x="179.199219"/>
      </g>
     </g>
    </g>
    <g id="ytick_4">
     <g id="line2d_19">
      <path d="M 108 330.406574 
L 777.6 330.406574 
" clip-path="url(#pa7fc9f2ff6)" style="fill: none; stroke: #b0b0b0; stroke-width: 0.8; stroke-linecap: square"/>
     </g>
     <g id="line2d_20">
      <g>
       <use xlink:href="#m6fe4e507e0" x="108" y="330.406574" style="stroke: #000000; stroke-width: 0.8"/>
      </g>
     </g>
     <g id="text_11">
      <!-- 0.0 -->
      <g transform="translate(53.290625 341.80423) scale(0.3 -0.3)">
       <use xlink:href="#DejaVuSans-30"/>
       <use xlink:href="#DejaVuSans-2e" x="63.623047"/>
       <use xlink:href="#DejaVuSans-30" x="95.410156"/>
      </g>
     </g>
    </g>
    <g id="ytick_5">
     <g id="line2d_21">
      <path d="M 108 280.010868 
L 777.6 280.010868 
" clip-path="url(#pa7fc9f2ff6)" style="fill: none; stroke: #b0b0b0; stroke-width: 0.8; stroke-linecap: square"/>
     </g>
     <g id="line2d_22">
      <g>
       <use xlink:href="#m6fe4e507e0" x="108" y="280.010868" style="stroke: #000000; stroke-width: 0.8"/>
      </g>
     </g>
     <g id="text_12">
      <!-- 0.1 -->
      <g transform="translate(53.290625 291.408524) scale(0.3 -0.3)">
       <use xlink:href="#DejaVuSans-30"/>
       <use xlink:href="#DejaVuSans-2e" x="63.623047"/>
       <use xlink:href="#DejaVuSans-31" x="95.410156"/>
      </g>
     </g>
    </g>
    <g id="ytick_6">
     <g id="line2d_23">
      <path d="M 108 229.615162 
L 777.6 229.615162 
" clip-path="url(#pa7fc9f2ff6)" style="fill: none; stroke: #b0b0b0; stroke-width: 0.8; stroke-linecap: square"/>
     </g>
     <g id="line2d_24">
      <g>
       <use xlink:href="#m6fe4e507e0" x="108" y="229.615162" style="stroke: #000000; stroke-width: 0.8"/>
      </g>
     </g>
     <g id="text_13">
      <!-- 0.2 -->
      <g transform="translate(53.290625 241.012818) scale(0.3 -0.3)">
       <use xlink:href="#DejaVuSans-30"/>
       <use xlink:href="#DejaVuSans-2e" x="63.623047"/>
       <use xlink:href="#DejaVuSans-32" x="95.410156"/>
      </g>
     </g>
    </g>
    <g id="ytick_7">
     <g id="line2d_25">
      <path d="M 108 179.219456 
L 777.6 179.219456 
" clip-path="url(#pa7fc9f2ff6)" style="fill: none; stroke: #b0b0b0; stroke-width: 0.8; stroke-linecap: square"/>
     </g>
     <g id="line2d_26">
      <g>
       <use xlink:href="#m6fe4e507e0" x="108" y="179.219456" style="stroke: #000000; stroke-width: 0.8"/>
      </g>
     </g>
     <g id="text_14">
      <!-- 0.3 -->
      <g transform="translate(53.290625 190.617112) scale(0.3 -0.3)">
       <use xlink:href="#DejaVuSans-30"/>
       <use xlink:href="#DejaVuSans-2e" x="63.623047"/>
       <use xlink:href="#DejaVuSans-33" x="95.410156"/>
      </g>
     </g>
    </g>
    <g id="ytick_8">
     <g id="line2d_27">
      <path d="M 108 128.82375 
L 777.6 128.82375 
" clip-path="url(#pa7fc9f2ff6)" style="fill: none; stroke: #b0b0b0; stroke-width: 0.8; stroke-linecap: square"/>
     </g>
     <g id="line2d_28">
      <g>
       <use xlink:href="#m6fe4e507e0" x="108" y="128.82375" style="stroke: #000000; stroke-width: 0.8"/>
      </g>
     </g>
     <g id="text_15">
      <!-- 0.4 -->
      <g transform="translate(53.290625 140.221406) scale(0.3 -0.3)">
       <use xlink:href="#DejaVuSans-30"/>
       <use xlink:href="#DejaVuSans-2e" x="63.623047"/>
       <use xlink:href="#DejaVuSans-34" x="95.410156"/>
      </g>
     </g>
    </g>
    <g id="ytick_9">
     <g id="line2d_29">
      <path d="M 108 78.428044 
L 777.6 78.428044 
" clip-path="url(#pa7fc9f2ff6)" style="fill: none; stroke: #b0b0b0; stroke-width: 0.8; stroke-linecap: square"/>
     </g>
     <g id="line2d_30">
      <g>
       <use xlink:href="#m6fe4e507e0" x="108" y="78.428044" style="stroke: #000000; stroke-width: 0.8"/>
      </g>
     </g>
     <g id="text_16">
      <!-- 0.5 -->
      <g transform="translate(53.290625 89.8257) scale(0.3 -0.3)">
       <use xlink:href="#DejaVuSans-30"/>
       <use xlink:href="#DejaVuSans-2e" x="63.623047"/>
       <use xlink:href="#DejaVuSans-35" x="95.410156"/>
      </g>
     </g>
    </g>
    <g id="text_17">
     <!-- Pearson expression -->
     <g transform="translate(15.832812 484.56125) rotate(-90) scale(0.4 -0.4)">
      <defs>
       <path id="DejaVuSans-50" d="M 1259 4147 
L 1259 2394 
L 2053 2394 
Q 2494 2394 2734 2622 
Q 2975 2850 2975 3272 
Q 2975 3691 2734 3919 
Q 2494 4147 2053 4147 
L 1259 4147 
z
M 628 4666 
L 2053 4666 
Q 2838 4666 3239 4311 
Q 3641 3956 3641 3272 
Q 3641 2581 3239 2228 
Q 2838 1875 2053 1875 
L 1259 1875 
L 1259 0 
L 628 0 
L 628 4666 
z
" transform="scale(0.015625)"/>
       <path id="DejaVuSans-61" d="M 2194 1759 
Q 1497 1759 1228 1600 
Q 959 1441 959 1056 
Q 959 750 1161 570 
Q 1363 391 1709 391 
Q 2188 391 2477 730 
Q 2766 1069 2766 1631 
L 2766 1759 
L 2194 1759 
z
M 3341 1997 
L 3341 0 
L 2766 0 
L 2766 531 
Q 2569 213 2275 61 
Q 1981 -91 1556 -91 
Q 1019 -91 701 211 
Q 384 513 384 1019 
Q 384 1609 779 1909 
Q 1175 2209 1959 2209 
L 2766 2209 
L 2766 2266 
Q 2766 2663 2505 2880 
Q 2244 3097 1772 3097 
Q 1472 3097 1187 3025 
Q 903 2953 641 2809 
L 641 3341 
Q 956 3463 1253 3523 
Q 1550 3584 1831 3584 
Q 2591 3584 2966 3190 
Q 3341 2797 3341 1997 
z
" transform="scale(0.015625)"/>
       <path id="DejaVuSans-72" d="M 2631 2963 
Q 2534 3019 2420 3045 
Q 2306 3072 2169 3072 
Q 1681 3072 1420 2755 
Q 1159 2438 1159 1844 
L 1159 0 
L 581 0 
L 581 3500 
L 1159 3500 
L 1159 2956 
Q 1341 3275 1631 3429 
Q 1922 3584 2338 3584 
Q 2397 3584 2469 3576 
Q 2541 3569 2628 3553 
L 2631 2963 
z
" transform="scale(0.015625)"/>
       <path id="DejaVuSans-6f" d="M 1959 3097 
Q 1497 3097 1228 2736 
Q 959 2375 959 1747 
Q 959 1119 1226 758 
Q 1494 397 1959 397 
Q 2419 397 2687 759 
Q 2956 1122 2956 1747 
Q 2956 2369 2687 2733 
Q 2419 3097 1959 3097 
z
M 1959 3584 
Q 2709 3584 3137 3096 
Q 3566 2609 3566 1747 
Q 3566 888 3137 398 
Q 2709 -91 1959 -91 
Q 1206 -91 779 398 
Q 353 888 353 1747 
Q 353 2609 779 3096 
Q 1206 3584 1959 3584 
z
" transform="scale(0.015625)"/>
       <path id="DejaVuSans-6e" d="M 3513 2113 
L 3513 0 
L 2938 0 
L 2938 2094 
Q 2938 2591 2744 2837 
Q 2550 3084 2163 3084 
Q 1697 3084 1428 2787 
Q 1159 2491 1159 1978 
L 1159 0 
L 581 0 
L 581 3500 
L 1159 3500 
L 1159 2956 
Q 1366 3272 1645 3428 
Q 1925 3584 2291 3584 
Q 2894 3584 3203 3211 
Q 3513 2838 3513 2113 
z
" transform="scale(0.015625)"/>
       <path id="DejaVuSans-20" transform="scale(0.015625)"/>
       <path id="DejaVuSans-78" d="M 3513 3500 
L 2247 1797 
L 3578 0 
L 2900 0 
L 1881 1375 
L 863 0 
L 184 0 
L 1544 1831 
L 300 3500 
L 978 3500 
L 1906 2253 
L 2834 3500 
L 3513 3500 
z
" transform="scale(0.015625)"/>
       <path id="DejaVuSans-69" d="M 603 3500 
L 1178 3500 
L 1178 0 
L 603 0 
L 603 3500 
z
M 603 4863 
L 1178 4863 
L 1178 4134 
L 603 4134 
L 603 4863 
z
" transform="scale(0.015625)"/>
      </defs>
      <use xlink:href="#DejaVuSans-50"/>
      <use xlink:href="#DejaVuSans-65" x="56.677734"/>
      <use xlink:href="#DejaVuSans-61" x="118.201172"/>
      <use xlink:href="#DejaVuSans-72" x="179.480469"/>
      <use xlink:href="#DejaVuSans-73" x="220.59375"/>
      <use xlink:href="#DejaVuSans-6f" x="272.693359"/>
      <use xlink:href="#DejaVuSans-6e" x="333.875"/>
      <use xlink:href="#DejaVuSans-20" x="397.253906"/>
      <use xlink:href="#DejaVuSans-65" x="429.041016"/>
      <use xlink:href="#DejaVuSans-78" x="488.814453"/>
      <use xlink:href="#DejaVuSans-70" x="547.994141"/>
      <use xlink:href="#DejaVuSans-72" x="611.470703"/>
      <use xlink:href="#DejaVuSans-65" x="650.333984"/>
      <use xlink:href="#DejaVuSans-73" x="711.857422"/>
      <use xlink:href="#DejaVuSans-73" x="763.957031"/>
      <use xlink:href="#DejaVuSans-69" x="816.056641"/>
      <use xlink:href="#DejaVuSans-6f" x="843.839844"/>
      <use xlink:href="#DejaVuSans-6e" x="905.021484"/>
     </g>
    </g>
   </g>
   <g id="line2d_31">
    <path d="M 138.436364 492.48 
L 139.452603 259.012147 
L 140.468842 179.248862 
L 141.485081 290.408358 
L 142.50132 279.136734 
L 143.51756 248.602619 
L 144.533799 224.414495 
L 146.566277 187.656138 
L 147.582516 237.215417 
L 149.614995 219.88067 
L 150.631234 209.232668 
L 151.647473 199.81124 
L 152.663712 197.789303 
L 153.679951 193.126454 
L 155.71243 181.371638 
L 158.761147 167.46902 
L 159.777387 164.810827 
L 160.793626 178.818057 
L 161.809865 178.687618 
L 162.826104 176.883732 
L 163.842343 175.484126 
L 164.858582 174.481226 
L 165.874822 172.574348 
L 166.891061 169.958847 
L 167.9073 166.120013 
L 168.923539 152.885166 
L 170.956018 160.270539 
L 171.972257 143.18943 
L 172.988496 139.150152 
L 174.004735 139.261679 
L 176.037214 140.692433 
L 177.053453 141.820243 
L 178.069692 121.717026 
L 179.085931 119.698905 
L 180.10217 118.723213 
L 181.118409 118.985796 
L 182.134649 119.396324 
L 183.150888 116.736175 
L 184.167127 115.619308 
L 185.183366 115.545273 
L 186.199605 115.835177 
L 188.232084 115.504006 
L 189.248323 116.463473 
L 190.264562 115.842724 
L 191.280801 102.606912 
L 192.297041 99.74742 
L 193.31328 98.289797 
L 194.329519 96.602057 
L 195.345758 94.65447 
L 196.361997 93.617457 
L 197.378236 93.385347 
L 198.394476 94.550936 
L 199.410715 94.377967 
L 200.426954 92.709744 
L 201.443193 91.499842 
L 203.475672 90.043438 
L 205.50815 89.367926 
L 206.524389 89.28 
L 208.556868 89.982004 
L 209.573107 90.158163 
L 212.621824 90.186651 
L 217.70302 90.229771 
L 227.865412 90.36137 
L 234.979086 90.40987 
L 260.385066 90.424888 
L 747.163636 90.424888 
L 747.163636 90.424888 
" clip-path="url(#pa7fc9f2ff6)" style="fill: none; stroke: #1f77b4; stroke-width: 4; stroke-linecap: square"/>
   </g>
   <g id="line2d_32">
    <path d="M 138.436364 222.842542 
L 139.452603 223.297628 
L 140.468842 175.874218 
L 141.485081 150.619684 
L 142.50132 137.688041 
L 143.51756 162.268173 
L 144.533799 156.886315 
L 145.550038 165.026712 
L 146.566277 163.864059 
L 147.582516 157.629254 
L 148.598756 187.71747 
L 149.614995 189.48543 
L 150.631234 188.633171 
L 151.647473 194.438984 
L 153.679951 183.066524 
L 154.696191 187.846787 
L 155.71243 204.177432 
L 156.728669 199.416553 
L 157.744908 196.27943 
L 158.761147 192.762132 
L 159.777387 192.045509 
L 161.809865 185.2742 
L 165.874822 173.014519 
L 166.891061 170.120587 
L 167.9073 168.571896 
L 169.939778 160.351513 
L 170.956018 160.966985 
L 171.972257 161.740036 
L 172.988496 162.021886 
L 174.004735 155.606497 
L 175.020974 154.73185 
L 176.037214 150.588346 
L 177.053453 148.542836 
L 178.069692 148.258069 
L 179.085931 135.101599 
L 180.10217 131.272596 
L 181.118409 128.471354 
L 182.134649 122.613573 
L 183.150888 122.012083 
L 184.167127 121.965918 
L 185.183366 116.283931 
L 186.199605 103.35303 
L 187.215845 102.677758 
L 188.232084 101.237375 
L 189.248323 100.27622 
L 190.264562 97.495722 
L 193.31328 95.884992 
L 195.345758 95.279309 
L 197.378236 95.646638 
L 198.394476 94.627295 
L 202.459432 93.777274 
L 205.50815 93.561589 
L 206.524389 93.399864 
L 211.605585 93.224894 
L 217.70302 93.015464 
L 232.946608 92.790908 
L 243.109 92.800801 
L 259.368827 92.800938 
L 747.163636 92.800938 
L 747.163636 92.800938 
" clip-path="url(#pa7fc9f2ff6)" style="fill: none; stroke: #ff7f0e; stroke-width: 4; stroke-linecap: square"/>
   </g>
   <g id="line2d_33">
    <path d="M 138.436364 422.677589 
L 139.452603 257.310506 
L 140.468842 242.326535 
L 141.485081 284.467758 
L 142.50132 254.438128 
L 144.533799 351.218947 
L 145.550038 355.81298 
L 146.566277 359.150606 
L 147.582516 364.304232 
L 149.614995 371.06278 
L 150.631234 373.318687 
L 152.663712 374.464159 
L 153.679951 374.075228 
L 154.696191 374.478127 
L 155.71243 374.574352 
L 159.777387 370.831709 
L 161.809865 368.390482 
L 163.842343 368.045029 
L 164.858582 367.321653 
L 165.874822 365.540237 
L 166.891061 362.844469 
L 167.9073 361.484887 
L 168.923539 358.27319 
L 169.939778 365.59836 
L 170.956018 369.367858 
L 171.972257 365.004846 
L 172.988496 368.97393 
L 174.004735 357.705058 
L 175.020974 342.489934 
L 176.037214 337.355011 
L 177.053453 334.609721 
L 179.085931 320.22718 
L 180.10217 315.432836 
L 181.118409 309.532566 
L 183.150888 303.518342 
L 184.167127 302.895426 
L 185.183366 299.301481 
L 186.199605 302.186292 
L 187.215845 307.585236 
L 188.232084 303.200164 
L 189.248323 298.008545 
L 190.264562 297.81466 
L 191.280801 290.718288 
L 192.297041 286.099606 
L 193.31328 280.635052 
L 194.329519 280.258286 
L 195.345758 281.693498 
L 196.361997 280.394306 
L 198.394476 281.25913 
L 199.410715 284.550012 
L 200.426954 283.183062 
L 201.443193 285.024032 
L 202.459432 284.981162 
L 203.475672 286.891513 
L 204.491911 287.575355 
L 205.50815 292.577059 
L 206.524389 295.494428 
L 207.540628 294.613129 
L 208.556868 293.581775 
L 210.589346 298.653106 
L 211.605585 304.051709 
L 212.621824 305.01198 
L 213.638063 305.072866 
L 214.654303 303.47615 
L 215.670542 305.667978 
L 216.686781 305.227736 
L 217.70302 300.453329 
L 219.735499 307.598949 
L 220.751738 307.238447 
L 221.767977 313.629735 
L 222.784216 317.833867 
L 223.800455 323.045741 
L 225.832934 321.654863 
L 226.849173 322.263758 
L 227.865412 325.044466 
L 228.881651 324.312874 
L 230.91413 316.75188 
L 231.930369 315.02997 
L 232.946608 314.969498 
L 233.962847 313.06332 
L 234.979086 315.858649 
L 235.995326 314.886191 
L 237.011565 312.991842 
L 238.027804 313.879616 
L 239.044043 319.88501 
L 240.060282 320.574873 
L 241.076521 316.48252 
L 242.092761 313.006077 
L 243.109 314.334029 
L 244.125239 315.047504 
L 245.141478 314.126363 
L 246.157717 312.411855 
L 247.173957 307.715479 
L 248.190196 309.109455 
L 249.206435 310.022193 
L 250.222674 310.257585 
L 251.238913 310.209067 
L 252.255153 310.915426 
L 253.271392 309.555381 
L 254.287631 308.834056 
L 255.30387 310.748453 
L 256.320109 309.016928 
L 257.336348 309.668974 
L 258.352588 307.861685 
L 259.368827 307.654544 
L 260.385066 310.349373 
L 261.401305 315.203873 
L 262.417544 315.908788 
L 263.433784 314.379568 
L 265.466262 318.368426 
L 266.482501 318.967402 
L 267.49874 321.497425 
L 268.51498 322.280857 
L 269.531219 324.459463 
L 270.547458 324.650062 
L 271.563697 330.229967 
L 272.579936 330.691477 
L 273.596175 330.089944 
L 274.612415 330.785888 
L 275.628654 332.296737 
L 276.644893 334.483517 
L 277.661132 329.646197 
L 278.677371 326.871035 
L 279.693611 326.522745 
L 280.70985 326.919128 
L 281.726089 326.603231 
L 282.742328 325.851185 
L 283.758567 328.601752 
L 284.774806 326.455793 
L 285.791046 324.018144 
L 286.807285 324.73914 
L 287.823524 324.932721 
L 288.839763 323.888521 
L 289.856002 325.658744 
L 290.872242 324.70183 
L 291.888481 325.692999 
L 292.90472 324.954272 
L 293.920959 328.73555 
L 294.937198 326.37278 
L 295.953438 327.238589 
L 296.969677 327.238589 
L 297.985916 327.699867 
L 299.002155 327.475407 
L 300.018394 325.417439 
L 301.034633 326.630129 
L 302.050873 324.223435 
L 303.067112 326.330667 
L 304.083351 325.748725 
L 305.09959 325.400388 
L 306.115829 327.218791 
L 307.132069 326.962452 
L 308.148308 332.61409 
L 309.164547 332.247931 
L 310.180786 329.606218 
L 311.197025 329.30423 
L 312.213265 329.30423 
L 313.229504 331.915979 
L 314.245743 331.201798 
L 315.261982 332.296406 
L 316.278221 328.992823 
L 317.29446 326.907223 
L 318.3107 327.280397 
L 319.326939 332.411541 
L 320.343178 333.21619 
L 321.359417 333.447086 
L 322.375656 334.660139 
L 323.391896 334.706719 
L 324.408135 334.104772 
L 325.424374 337.326696 
L 326.440613 334.504292 
L 327.456852 334.545541 
L 328.473092 333.353687 
L 330.50557 333.922465 
L 331.521809 334.018136 
L 332.538048 337.535281 
L 333.554287 339.428275 
L 334.570527 339.428275 
L 335.586766 338.963228 
L 336.603005 333.784626 
L 337.619244 327.716193 
L 338.635483 327.716193 
L 339.651723 327.875826 
L 340.667962 329.855714 
L 341.684201 330.198343 
L 342.70044 330.198343 
L 343.716679 328.310824 
L 344.732919 328.562973 
L 345.749158 329.904673 
L 346.765397 332.965078 
L 347.781636 334.825123 
L 348.797875 334.825123 
L 349.814114 330.439458 
L 350.830354 322.369563 
L 352.862832 319.575055 
L 353.879071 319.575055 
L 354.89531 320.425899 
L 355.91155 320.425899 
L 356.927789 320.107248 
L 357.944028 319.259288 
L 358.960267 318.263212 
L 359.976506 318.050255 
L 360.992745 312.005773 
L 364.041463 297.430031 
L 365.057702 297.430031 
L 366.073941 296.474891 
L 367.090181 299.854818 
L 368.10642 310.856426 
L 369.122659 310.856426 
L 370.138898 311.138333 
L 371.155137 316.017115 
L 372.171377 318.881227 
L 373.187616 320.014159 
L 374.203855 319.336489 
L 375.220094 314.394746 
L 376.236333 318.000759 
L 377.252572 317.803899 
L 378.268812 316.828229 
L 379.285051 318.445017 
L 380.30129 312.976936 
L 381.317529 315.484501 
L 382.333768 313.755465 
L 384.366247 313.755465 
L 385.382486 312.304649 
L 386.398725 312.304649 
L 387.414964 311.555174 
L 388.431204 314.492584 
L 389.447443 315.07936 
L 390.463682 314.039969 
L 391.479921 317.370512 
L 392.49616 317.82132 
L 393.512399 318.519769 
L 394.528639 318.638138 
L 395.544878 318.638138 
L 396.561117 319.995529 
L 397.577356 319.995529 
L 398.593595 310.414979 
L 399.609835 305.993352 
L 400.626074 303.843534 
L 401.642313 300.104568 
L 402.658552 303.083592 
L 403.674791 301.360239 
L 404.691031 302.108304 
L 405.70727 304.968384 
L 406.723509 300.416396 
L 407.739748 304.0248 
L 408.755987 306.816441 
L 409.772226 304.463799 
L 410.788466 316.255921 
L 411.804705 319.228317 
L 412.820944 317.717668 
L 413.837183 312.460681 
L 414.853422 311.316459 
L 415.869662 308.431193 
L 416.885901 308.431193 
L 417.90214 311.67363 
L 418.918379 308.433253 
L 419.934618 308.433253 
L 420.950857 308.694379 
L 421.967097 311.472929 
L 422.983336 321.615579 
L 423.999575 320.97598 
L 426.032053 320.97598 
L 427.048293 326.008702 
L 428.064532 327.692862 
L 429.080771 339.049154 
L 430.09701 352.998732 
L 431.113249 356.803343 
L 432.129489 359.919703 
L 433.145728 354.435033 
L 434.161967 354.435033 
L 435.178206 344.283568 
L 436.194445 331.700628 
L 437.210684 335.166444 
L 438.226924 336.318334 
L 439.243163 335.377804 
L 440.259402 335.377804 
L 441.275641 330.079054 
L 442.29188 330.839558 
L 443.30812 322.605952 
L 444.324359 328.799018 
L 445.340598 341.033302 
L 446.356837 346.484641 
L 447.373076 346.484641 
L 448.389316 343.435331 
L 449.405555 344.114 
L 451.438033 344.114 
L 452.454272 339.536516 
L 453.470511 333.494321 
L 454.486751 333.494321 
L 455.50299 335.669148 
L 456.519229 332.299622 
L 458.551707 323.559792 
L 459.567947 320.534573 
L 460.584186 312.081806 
L 461.600425 312.871813 
L 462.616664 315.762341 
L 463.632903 323.116825 
L 464.649143 323.116825 
L 465.665382 331.391951 
L 466.681621 343.21656 
L 467.69786 328.933568 
L 468.714099 323.837935 
L 471.762817 323.837935 
L 472.779056 327.416192 
L 473.795295 339.106249 
L 474.811534 340.520687 
L 475.827774 328.329334 
L 477.860252 328.329334 
L 478.876491 329.397505 
L 479.89273 327.430183 
L 480.908969 327.828727 
L 481.925209 327.828727 
L 482.941448 332.32451 
L 484.973926 332.261829 
L 485.990165 328.590978 
L 487.006405 318.876747 
L 488.022644 315.566613 
L 489.038883 320.519754 
L 490.055122 320.519754 
L 491.071361 325.47942 
L 492.087601 325.388029 
L 493.10384 306.711233 
L 494.120079 284.771885 
L 495.136318 297.311079 
L 496.152557 299.460632 
L 497.168796 299.460632 
L 498.185036 334.325964 
L 502.249992 334.325964 
L 503.266232 326.999989 
L 504.282471 326.999989 
L 505.29871 324.83329 
L 506.314949 326.282503 
L 510.379906 326.282503 
L 511.396145 325.161287 
L 512.412384 325.161287 
L 513.428623 312.048894 
L 516.477341 312.048894 
L 517.49358 334.22208 
L 519.526059 334.22208 
L 520.542298 332.766487 
L 521.558537 327.430783 
L 522.574776 327.430783 
L 523.591015 348.719132 
L 524.607255 348.719132 
L 525.623494 303.5921 
L 526.639733 278.583667 
L 527.655972 284.002856 
L 528.672211 248.01537 
L 530.70469 248.01537 
L 531.720929 255.769993 
L 536.802125 255.769993 
L 537.818364 264.579906 
L 538.834603 264.579906 
L 539.850842 255.108023 
L 542.89956 255.108023 
L 543.915799 257.824709 
L 544.932038 257.824709 
L 545.948277 267.973782 
L 546.964517 267.973782 
L 547.980756 261.470016 
L 548.996995 285.185518 
L 550.013234 285.185518 
L 551.029473 282.170157 
L 552.045713 285.90981 
L 553.061952 285.90981 
L 554.078191 287.281506 
L 555.09443 281.233562 
L 557.126908 307.918429 
L 558.143148 309.820945 
L 560.175626 309.820945 
L 561.191865 298.479842 
L 562.208104 298.098053 
L 563.224344 303.717979 
L 564.240583 306.974591 
L 565.256822 308.16758 
L 566.273061 308.16758 
L 567.2893 312.475958 
L 568.30554 311.41647 
L 569.321779 313.314081 
L 570.338018 320.752272 
L 573.386735 320.752272 
L 574.402975 318.699656 
L 575.419214 318.699656 
L 576.435453 316.523463 
L 578.467931 316.523463 
L 579.484171 304.339918 
L 580.50041 304.339918 
L 581.516649 310.071956 
L 582.532888 309.280728 
L 583.549127 310.747906 
L 584.565367 311.560359 
L 585.581606 318.815261 
L 586.597845 318.815261 
L 587.614084 319.180745 
L 588.630323 317.817212 
L 590.662802 317.817212 
L 591.679041 334.541289 
L 592.69528 334.541289 
L 593.711519 332.234384 
L 594.727758 332.828139 
L 595.743998 353.581293 
L 596.760237 339.676536 
L 597.776476 337.057597 
L 598.792715 334.814064 
L 599.808954 334.525977 
L 600.825194 339.171088 
L 601.841433 339.171088 
L 602.857672 342.482597 
L 603.873911 342.482597 
L 604.89015 347.225772 
L 606.922629 347.225772 
L 607.938868 346.251803 
L 608.955107 347.478305 
L 610.987585 347.478305 
L 612.003825 345.749285 
L 613.020064 345.749285 
L 614.036303 347.198889 
L 615.052542 345.930925 
L 616.068781 349.611419 
L 617.08502 347.637829 
L 618.10126 343.254051 
L 619.117499 335.682339 
L 621.149977 335.682339 
L 622.166216 331.830386 
L 623.182456 330.406906 
L 624.198695 330.406906 
L 625.214934 328.951389 
L 626.231173 305.350914 
L 627.247412 315.236473 
L 628.263652 315.236473 
L 629.279891 317.091135 
L 630.29613 317.091135 
L 631.312369 315.502706 
L 632.328608 315.884876 
L 633.344847 310.155393 
L 634.361087 310.155393 
L 635.377326 309.715052 
L 636.393565 319.31681 
L 637.409804 319.31681 
L 638.426043 317.930686 
L 639.442283 312.691012 
L 641.474761 312.691012 
L 642.491 314.896833 
L 643.507239 314.896833 
L 644.523479 315.550233 
L 645.539718 314.286472 
L 646.555957 314.032887 
L 647.572196 313.206066 
L 648.588435 314.930299 
L 649.604674 321.992136 
L 650.620914 321.992136 
L 651.637153 324.538804 
L 652.653392 324.538804 
L 653.669631 320.281237 
L 654.68587 321.121936 
L 655.70211 321.121936 
L 656.718349 327.551933 
L 657.734588 327.551933 
L 659.767066 326.533239 
L 660.783306 326.533239 
L 661.799545 324.859206 
L 662.815784 325.256744 
L 663.832023 326.586061 
L 664.848262 326.586061 
L 665.864501 325.29845 
L 666.880741 316.240478 
L 668.913219 317.858121 
L 669.929458 323.71226 
L 671.961937 323.71226 
L 672.978176 322.424877 
L 673.994415 323.575853 
L 675.010654 331.634794 
L 676.026893 331.634794 
L 677.043132 333.355205 
L 678.059372 333.355205 
L 679.075611 337.54493 
L 681.108089 337.54493 
L 682.124328 336.044208 
L 683.140568 333.063949 
L 684.156807 339.777114 
L 685.173046 340.633792 
L 687.205524 340.633792 
L 688.221764 339.997971 
L 689.238003 340.419202 
L 691.270481 340.419202 
L 692.28672 343.984041 
L 693.302959 343.984041 
L 694.319199 344.144727 
L 695.335438 343.652466 
L 696.351677 338.438815 
L 697.367916 338.438815 
L 699.400395 341.035183 
L 700.416634 335.928301 
L 703.465351 335.928301 
L 704.481591 335.719834 
L 705.49783 323.616612 
L 706.514069 323.142682 
L 707.530308 324.554015 
L 708.546547 323.380246 
L 711.595265 323.380246 
L 712.611504 323.725076 
L 713.627743 325.771448 
L 714.643982 324.784312 
L 717.6927 324.784312 
L 718.708939 323.836795 
L 719.725178 323.71635 
L 724.806374 323.71635 
L 725.822613 321.501241 
L 726.838853 327.367731 
L 731.920049 327.367731 
L 732.936288 331.699064 
L 734.968766 331.699064 
L 735.985005 330.082217 
L 737.001244 331.791725 
L 738.017484 330.981133 
L 739.033723 340.352643 
L 741.066201 340.352643 
L 742.08244 341.041135 
L 743.09868 343.814685 
L 744.114919 343.814685 
L 745.131158 342.655304 
L 746.147397 342.655304 
L 747.163636 347.503067 
L 747.163636 347.503067 
" clip-path="url(#pa7fc9f2ff6)" style="fill: none; stroke: #2ca02c; stroke-width: 4; stroke-linecap: square"/>
   </g>
   <g id="line2d_34"/>
   <g id="line2d_35"/>
   <g id="line2d_36"/>
   <g id="patch_3">
    <path d="M 108 512.64 
L 108 69.12 
" style="fill: none; stroke: #000000; stroke-width: 0.8; stroke-linejoin: miter; stroke-linecap: square"/>
   </g>
   <g id="patch_4">
    <path d="M 777.6 512.64 
L 777.6 69.12 
" style="fill: none; stroke: #000000; stroke-width: 0.8; stroke-linejoin: miter; stroke-linecap: square"/>
   </g>
   <g id="patch_5">
    <path d="M 108 512.64 
L 777.6 512.64 
" style="fill: none; stroke: #000000; stroke-width: 0.8; stroke-linejoin: miter; stroke-linecap: square"/>
   </g>
   <g id="patch_6">
    <path d="M 108 69.12 
L 777.6 69.12 
" style="fill: none; stroke: #000000; stroke-width: 0.8; stroke-linejoin: miter; stroke-linecap: square"/>
   </g>
   <g id="text_18">
    <!-- client2 -->
    <g transform="translate(341.315625 56.641875) scale(0.6 -0.6)">
     <defs>
      <path id="DejaVuSans-63" d="M 3122 3366 
L 3122 2828 
Q 2878 2963 2633 3030 
Q 2388 3097 2138 3097 
Q 1578 3097 1268 2742 
Q 959 2388 959 1747 
Q 959 1106 1268 751 
Q 1578 397 2138 397 
Q 2388 397 2633 464 
Q 2878 531 3122 666 
L 3122 134 
Q 2881 22 2623 -34 
Q 2366 -91 2075 -91 
Q 1284 -91 818 406 
Q 353 903 353 1747 
Q 353 2603 823 3093 
Q 1294 3584 2113 3584 
Q 2378 3584 2631 3529 
Q 2884 3475 3122 3366 
z
" transform="scale(0.015625)"/>
      <path id="DejaVuSans-6c" d="M 603 4863 
L 1178 4863 
L 1178 0 
L 603 0 
L 603 4863 
z
" transform="scale(0.015625)"/>
     </defs>
     <use xlink:href="#DejaVuSans-63"/>
     <use xlink:href="#DejaVuSans-6c" x="54.980469"/>
     <use xlink:href="#DejaVuSans-69" x="82.763672"/>
     <use xlink:href="#DejaVuSans-65" x="110.546875"/>
     <use xlink:href="#DejaVuSans-6e" x="172.070312"/>
     <use xlink:href="#DejaVuSans-74" x="235.449219"/>
     <use xlink:href="#DejaVuSans-32" x="274.658203"/>
    </g>
   </g>
   <g id="legend_1">
    <g id="patch_7">
     <path d="M 136 492.64 
L 792.2375 492.64 
Q 800.2375 492.64 800.2375 484.64 
L 800.2375 311.39 
Q 800.2375 303.39 792.2375 303.39 
L 136 303.39 
Q 128 303.39 128 311.39 
L 128 484.64 
Q 128 492.64 136 492.64 
z
" style="fill: #ffffff; opacity: 0.8; stroke: #cccccc; stroke-linejoin: miter"/>
    </g>
    <g id="line2d_37">
     <path d="M 144 335.78375 
L 184 335.78375 
L 224 335.78375 
" style="fill: none; stroke: #1f77b4; stroke-width: 4; stroke-linecap: square"/>
    </g>
    <g id="text_19">
     <!-- fedavg_private_regressors -->
     <g transform="translate(256 349.78375) scale(0.4 -0.4)">
      <defs>
       <path id="DejaVuSans-66" d="M 2375 4863 
L 2375 4384 
L 1825 4384 
Q 1516 4384 1395 4259 
Q 1275 4134 1275 3809 
L 1275 3500 
L 2222 3500 
L 2222 3053 
L 1275 3053 
L 1275 0 
L 697 0 
L 697 3053 
L 147 3053 
L 147 3500 
L 697 3500 
L 697 3744 
Q 697 4328 969 4595 
Q 1241 4863 1831 4863 
L 2375 4863 
z
" transform="scale(0.015625)"/>
       <path id="DejaVuSans-64" d="M 2906 2969 
L 2906 4863 
L 3481 4863 
L 3481 0 
L 2906 0 
L 2906 525 
Q 2725 213 2448 61 
Q 2172 -91 1784 -91 
Q 1150 -91 751 415 
Q 353 922 353 1747 
Q 353 2572 751 3078 
Q 1150 3584 1784 3584 
Q 2172 3584 2448 3432 
Q 2725 3281 2906 2969 
z
M 947 1747 
Q 947 1113 1208 752 
Q 1469 391 1925 391 
Q 2381 391 2643 752 
Q 2906 1113 2906 1747 
Q 2906 2381 2643 2742 
Q 2381 3103 1925 3103 
Q 1469 3103 1208 2742 
Q 947 2381 947 1747 
z
" transform="scale(0.015625)"/>
       <path id="DejaVuSans-76" d="M 191 3500 
L 800 3500 
L 1894 563 
L 2988 3500 
L 3597 3500 
L 2284 0 
L 1503 0 
L 191 3500 
z
" transform="scale(0.015625)"/>
       <path id="DejaVuSans-67" d="M 2906 1791 
Q 2906 2416 2648 2759 
Q 2391 3103 1925 3103 
Q 1463 3103 1205 2759 
Q 947 2416 947 1791 
Q 947 1169 1205 825 
Q 1463 481 1925 481 
Q 2391 481 2648 825 
Q 2906 1169 2906 1791 
z
M 3481 434 
Q 3481 -459 3084 -895 
Q 2688 -1331 1869 -1331 
Q 1566 -1331 1297 -1286 
Q 1028 -1241 775 -1147 
L 775 -588 
Q 1028 -725 1275 -790 
Q 1522 -856 1778 -856 
Q 2344 -856 2625 -561 
Q 2906 -266 2906 331 
L 2906 616 
Q 2728 306 2450 153 
Q 2172 0 1784 0 
Q 1141 0 747 490 
Q 353 981 353 1791 
Q 353 2603 747 3093 
Q 1141 3584 1784 3584 
Q 2172 3584 2450 3431 
Q 2728 3278 2906 2969 
L 2906 3500 
L 3481 3500 
L 3481 434 
z
" transform="scale(0.015625)"/>
       <path id="DejaVuSans-5f" d="M 3263 -1063 
L 3263 -1509 
L -63 -1509 
L -63 -1063 
L 3263 -1063 
z
" transform="scale(0.015625)"/>
      </defs>
      <use xlink:href="#DejaVuSans-66"/>
      <use xlink:href="#DejaVuSans-65" x="35.205078"/>
      <use xlink:href="#DejaVuSans-64" x="96.728516"/>
      <use xlink:href="#DejaVuSans-61" x="160.205078"/>
      <use xlink:href="#DejaVuSans-76" x="221.484375"/>
      <use xlink:href="#DejaVuSans-67" x="280.664062"/>
      <use xlink:href="#DejaVuSans-5f" x="344.140625"/>
      <use xlink:href="#DejaVuSans-70" x="394.140625"/>
      <use xlink:href="#DejaVuSans-72" x="457.617188"/>
      <use xlink:href="#DejaVuSans-69" x="498.730469"/>
      <use xlink:href="#DejaVuSans-76" x="526.513672"/>
      <use xlink:href="#DejaVuSans-61" x="585.693359"/>
      <use xlink:href="#DejaVuSans-74" x="646.972656"/>
      <use xlink:href="#DejaVuSans-65" x="686.181641"/>
      <use xlink:href="#DejaVuSans-5f" x="747.705078"/>
      <use xlink:href="#DejaVuSans-72" x="797.705078"/>
      <use xlink:href="#DejaVuSans-65" x="836.568359"/>
      <use xlink:href="#DejaVuSans-67" x="898.091797"/>
      <use xlink:href="#DejaVuSans-72" x="961.568359"/>
      <use xlink:href="#DejaVuSans-65" x="1000.431641"/>
      <use xlink:href="#DejaVuSans-73" x="1061.955078"/>
      <use xlink:href="#DejaVuSans-73" x="1114.054688"/>
      <use xlink:href="#DejaVuSans-6f" x="1166.154297"/>
      <use xlink:href="#DejaVuSans-72" x="1227.335938"/>
      <use xlink:href="#DejaVuSans-73" x="1268.449219"/>
     </g>
    </g>
    <g id="line2d_38">
     <path d="M 144 395.60875 
L 184 395.60875 
L 224 395.60875 
" style="fill: none; stroke: #ff7f0e; stroke-width: 4; stroke-linecap: square"/>
    </g>
    <g id="text_20">
     <!-- fedavg -->
     <g transform="translate(256 409.60875) scale(0.4 -0.4)">
      <use xlink:href="#DejaVuSans-66"/>
      <use xlink:href="#DejaVuSans-65" x="35.205078"/>
      <use xlink:href="#DejaVuSans-64" x="96.728516"/>
      <use xlink:href="#DejaVuSans-61" x="160.205078"/>
      <use xlink:href="#DejaVuSans-76" x="221.484375"/>
      <use xlink:href="#DejaVuSans-67" x="280.664062"/>
     </g>
    </g>
    <g id="line2d_39">
     <path d="M 144 454.32125 
L 184 454.32125 
L 224 454.32125 
" style="fill: none; stroke: #2ca02c; stroke-width: 4; stroke-linecap: square"/>
    </g>
    <g id="text_21">
     <!-- local -->
     <g transform="translate(256 468.32125) scale(0.4 -0.4)">
      <use xlink:href="#DejaVuSans-6c"/>
      <use xlink:href="#DejaVuSans-6f" x="27.783203"/>
      <use xlink:href="#DejaVuSans-63" x="88.964844"/>
      <use xlink:href="#DejaVuSans-61" x="143.945312"/>
      <use xlink:href="#DejaVuSans-6c" x="205.224609"/>
     </g>
    </g>
   </g>
  </g>
 </g>
 <defs>
  <clipPath id="pa7fc9f2ff6">
   <rect x="108" y="69.12" width="669.6" height="443.52"/>
  </clipPath>
 </defs>
</svg>
