<?xml version="1.0" encoding="utf-8" standalone="no"?>
<!DOCTYPE svg PUBLIC "-//W3C//DTD SVG 1.1//EN"
  "http://www.w3.org/Graphics/SVG/1.1/DTD/svg11.dtd">
<svg xmlns:xlink="http://www.w3.org/1999/xlink" width="1152pt" height="864pt" viewBox="0 0 1152 864" xmlns="http://www.w3.org/2000/svg" version="1.1">
 <metadata>
  <rdf:RDF xmlns:dc="http://purl.org/dc/elements/1.1/" xmlns:cc="http://creativecommons.org/ns#" xmlns:rdf="http://www.w3.org/1999/02/22-rdf-syntax-ns#">
   <cc:Work>
    <dc:type rdf:resource="http://purl.org/dc/dcmitype/StillImage"/>
    <dc:date>2025-04-25T14:41:04.924956</dc:date>
    <dc:format>image/svg+xml</dc:format>
    <dc:creator>
     <cc:Agent>
      <dc:title>Matplotlib v3.8.2, https://matplotlib.org/</dc:title>
     </cc:Agent>
    </dc:creator>
   </cc:Work>
  </rdf:RDF>
 </metadata>
 <defs>
  <style type="text/css">*{stroke-linejoin: round; stroke-linecap: butt}</style>
 </defs>
 <g id="figure_1">
  <g id="patch_1">
   <path d="M 0 864 
L 1152 864 
L 1152 0 
L 0 0 
z
" style="fill: #ffffff"/>
  </g>
  <g id="axes_1">
   <g id="patch_2">
    <path d="M 144 768.96 
L 1036.8 768.96 
L 1036.8 103.68 
L 144 103.68 
z
" style="fill: #ffffff"/>
   </g>
   <g id="PolyCollection_1"/>
   <g id="PolyCollection_2"/>
   <g id="PolyCollection_3"/>
   <g id="matplotlib.axis_1">
    <g id="xtick_1">
     <g id="line2d_1">
      <path d="M 183.226833 768.96 
L 183.226833 103.68 
" clip-path="url(#p6d2da72acd)" style="fill: none; stroke: #b0b0b0; stroke-width: 0.8; stroke-linecap: square"/>
     </g>
     <g id="line2d_2">
      <defs>
       <path id="mee37a7da6f" d="M 0 0 
L 0 3.5 
" style="stroke: #000000; stroke-width: 0.8"/>
      </defs>
      <g>
       <use xlink:href="#mee37a7da6f" x="183.226833" y="768.96" style="stroke: #000000; stroke-width: 0.8"/>
      </g>
     </g>
     <g id="text_1">
      <!-- 0 -->
      <g transform="translate(173.683083 798.755312) scale(0.3 -0.3)">
       <defs>
        <path id="DejaVuSans-30" d="M 2034 4250 
Q 1547 4250 1301 3770 
Q 1056 3291 1056 2328 
Q 1056 1369 1301 889 
Q 1547 409 2034 409 
Q 2525 409 2770 889 
Q 3016 1369 3016 2328 
Q 3016 3291 2770 3770 
Q 2525 4250 2034 4250 
z
M 2034 4750 
Q 2819 4750 3233 4129 
Q 3647 3509 3647 2328 
Q 3647 1150 3233 529 
Q 2819 -91 2034 -91 
Q 1250 -91 836 529 
Q 422 1150 422 2328 
Q 422 3509 836 4129 
Q 1250 4750 2034 4750 
z
" transform="scale(0.015625)"/>
       </defs>
       <use xlink:href="#DejaVuSans-30"/>
      </g>
     </g>
    </g>
    <g id="xtick_2">
     <g id="line2d_3">
      <path d="M 352.60003 768.96 
L 352.60003 103.68 
" clip-path="url(#p6d2da72acd)" style="fill: none; stroke: #b0b0b0; stroke-width: 0.8; stroke-linecap: square"/>
     </g>
     <g id="line2d_4">
      <g>
       <use xlink:href="#mee37a7da6f" x="352.60003" y="768.96" style="stroke: #000000; stroke-width: 0.8"/>
      </g>
     </g>
     <g id="text_2">
      <!-- 2000 -->
      <g transform="translate(314.42503 798.755312) scale(0.3 -0.3)">
       <defs>
        <path id="DejaVuSans-32" d="M 1228 531 
L 3431 531 
L 3431 0 
L 469 0 
L 469 531 
Q 828 903 1448 1529 
Q 2069 2156 2228 2338 
Q 2531 2678 2651 2914 
Q 2772 3150 2772 3378 
Q 2772 3750 2511 3984 
Q 2250 4219 1831 4219 
Q 1534 4219 1204 4116 
Q 875 4013 500 3803 
L 500 4441 
Q 881 4594 1212 4672 
Q 1544 4750 1819 4750 
Q 2544 4750 2975 4387 
Q 3406 4025 3406 3419 
Q 3406 3131 3298 2873 
Q 3191 2616 2906 2266 
Q 2828 2175 2409 1742 
Q 1991 1309 1228 531 
z
" transform="scale(0.015625)"/>
       </defs>
       <use xlink:href="#DejaVuSans-32"/>
       <use xlink:href="#DejaVuSans-30" x="63.623047"/>
       <use xlink:href="#DejaVuSans-30" x="127.246094"/>
       <use xlink:href="#DejaVuSans-30" x="190.869141"/>
      </g>
     </g>
    </g>
    <g id="xtick_3">
     <g id="line2d_5">
      <path d="M 521.973228 768.96 
L 521.973228 103.68 
" clip-path="url(#p6d2da72acd)" style="fill: none; stroke: #b0b0b0; stroke-width: 0.8; stroke-linecap: square"/>
     </g>
     <g id="line2d_6">
      <g>
       <use xlink:href="#mee37a7da6f" x="521.973228" y="768.96" style="stroke: #000000; stroke-width: 0.8"/>
      </g>
     </g>
     <g id="text_3">
      <!-- 4000 -->
      <g transform="translate(483.798228 798.755312) scale(0.3 -0.3)">
       <defs>
        <path id="DejaVuSans-34" d="M 2419 4116 
L 825 1625 
L 2419 1625 
L 2419 4116 
z
M 2253 4666 
L 3047 4666 
L 3047 1625 
L 3713 1625 
L 3713 1100 
L 3047 1100 
L 3047 0 
L 2419 0 
L 2419 1100 
L 313 1100 
L 313 1709 
L 2253 4666 
z
" transform="scale(0.015625)"/>
       </defs>
       <use xlink:href="#DejaVuSans-34"/>
       <use xlink:href="#DejaVuSans-30" x="63.623047"/>
       <use xlink:href="#DejaVuSans-30" x="127.246094"/>
       <use xlink:href="#DejaVuSans-30" x="190.869141"/>
      </g>
     </g>
    </g>
    <g id="xtick_4">
     <g id="line2d_7">
      <path d="M 691.346426 768.96 
L 691.346426 103.68 
" clip-path="url(#p6d2da72acd)" style="fill: none; stroke: #b0b0b0; stroke-width: 0.8; stroke-linecap: square"/>
     </g>
     <g id="line2d_8">
      <g>
       <use xlink:href="#mee37a7da6f" x="691.346426" y="768.96" style="stroke: #000000; stroke-width: 0.8"/>
      </g>
     </g>
     <g id="text_4">
      <!-- 6000 -->
      <g transform="translate(653.171426 798.755312) scale(0.3 -0.3)">
       <defs>
        <path id="DejaVuSans-36" d="M 2113 2584 
Q 1688 2584 1439 2293 
Q 1191 2003 1191 1497 
Q 1191 994 1439 701 
Q 1688 409 2113 409 
Q 2538 409 2786 701 
Q 3034 994 3034 1497 
Q 3034 2003 2786 2293 
Q 2538 2584 2113 2584 
z
M 3366 4563 
L 3366 3988 
Q 3128 4100 2886 4159 
Q 2644 4219 2406 4219 
Q 1781 4219 1451 3797 
Q 1122 3375 1075 2522 
Q 1259 2794 1537 2939 
Q 1816 3084 2150 3084 
Q 2853 3084 3261 2657 
Q 3669 2231 3669 1497 
Q 3669 778 3244 343 
Q 2819 -91 2113 -91 
Q 1303 -91 875 529 
Q 447 1150 447 2328 
Q 447 3434 972 4092 
Q 1497 4750 2381 4750 
Q 2619 4750 2861 4703 
Q 3103 4656 3366 4563 
z
" transform="scale(0.015625)"/>
       </defs>
       <use xlink:href="#DejaVuSans-36"/>
       <use xlink:href="#DejaVuSans-30" x="63.623047"/>
       <use xlink:href="#DejaVuSans-30" x="127.246094"/>
       <use xlink:href="#DejaVuSans-30" x="190.869141"/>
      </g>
     </g>
    </g>
    <g id="xtick_5">
     <g id="line2d_9">
      <path d="M 860.719624 768.96 
L 860.719624 103.68 
" clip-path="url(#p6d2da72acd)" style="fill: none; stroke: #b0b0b0; stroke-width: 0.8; stroke-linecap: square"/>
     </g>
     <g id="line2d_10">
      <g>
       <use xlink:href="#mee37a7da6f" x="860.719624" y="768.96" style="stroke: #000000; stroke-width: 0.8"/>
      </g>
     </g>
     <g id="text_5">
      <!-- 8000 -->
      <g transform="translate(822.544624 798.755312) scale(0.3 -0.3)">
       <defs>
        <path id="DejaVuSans-38" d="M 2034 2216 
Q 1584 2216 1326 1975 
Q 1069 1734 1069 1313 
Q 1069 891 1326 650 
Q 1584 409 2034 409 
Q 2484 409 2743 651 
Q 3003 894 3003 1313 
Q 3003 1734 2745 1975 
Q 2488 2216 2034 2216 
z
M 1403 2484 
Q 997 2584 770 2862 
Q 544 3141 544 3541 
Q 544 4100 942 4425 
Q 1341 4750 2034 4750 
Q 2731 4750 3128 4425 
Q 3525 4100 3525 3541 
Q 3525 3141 3298 2862 
Q 3072 2584 2669 2484 
Q 3125 2378 3379 2068 
Q 3634 1759 3634 1313 
Q 3634 634 3220 271 
Q 2806 -91 2034 -91 
Q 1263 -91 848 271 
Q 434 634 434 1313 
Q 434 1759 690 2068 
Q 947 2378 1403 2484 
z
M 1172 3481 
Q 1172 3119 1398 2916 
Q 1625 2713 2034 2713 
Q 2441 2713 2670 2916 
Q 2900 3119 2900 3481 
Q 2900 3844 2670 4047 
Q 2441 4250 2034 4250 
Q 1625 4250 1398 4047 
Q 1172 3844 1172 3481 
z
" transform="scale(0.015625)"/>
       </defs>
       <use xlink:href="#DejaVuSans-38"/>
       <use xlink:href="#DejaVuSans-30" x="63.623047"/>
       <use xlink:href="#DejaVuSans-30" x="127.246094"/>
       <use xlink:href="#DejaVuSans-30" x="190.869141"/>
      </g>
     </g>
    </g>
    <g id="xtick_6">
     <g id="line2d_11">
      <path d="M 1030.092821 768.96 
L 1030.092821 103.68 
" clip-path="url(#p6d2da72acd)" style="fill: none; stroke: #b0b0b0; stroke-width: 0.8; stroke-linecap: square"/>
     </g>
     <g id="line2d_12">
      <g>
       <use xlink:href="#mee37a7da6f" x="1030.092821" y="768.96" style="stroke: #000000; stroke-width: 0.8"/>
      </g>
     </g>
     <g id="text_6">
      <!-- 10000 -->
      <g transform="translate(982.374071 798.755312) scale(0.3 -0.3)">
       <defs>
        <path id="DejaVuSans-31" d="M 794 531 
L 1825 531 
L 1825 4091 
L 703 3866 
L 703 4441 
L 1819 4666 
L 2450 4666 
L 2450 531 
L 3481 531 
L 3481 0 
L 794 0 
L 794 531 
z
" transform="scale(0.015625)"/>
       </defs>
       <use xlink:href="#DejaVuSans-31"/>
       <use xlink:href="#DejaVuSans-30" x="63.623047"/>
       <use xlink:href="#DejaVuSans-30" x="127.246094"/>
       <use xlink:href="#DejaVuSans-30" x="190.869141"/>
       <use xlink:href="#DejaVuSans-30" x="254.492188"/>
      </g>
     </g>
    </g>
    <g id="text_7">
     <!-- Steps -->
     <g transform="translate(534.440625 839.388125) scale(0.4 -0.4)">
      <defs>
       <path id="DejaVuSans-53" d="M 3425 4513 
L 3425 3897 
Q 3066 4069 2747 4153 
Q 2428 4238 2131 4238 
Q 1616 4238 1336 4038 
Q 1056 3838 1056 3469 
Q 1056 3159 1242 3001 
Q 1428 2844 1947 2747 
L 2328 2669 
Q 3034 2534 3370 2195 
Q 3706 1856 3706 1288 
Q 3706 609 3251 259 
Q 2797 -91 1919 -91 
Q 1588 -91 1214 -16 
Q 841 59 441 206 
L 441 856 
Q 825 641 1194 531 
Q 1563 422 1919 422 
Q 2459 422 2753 634 
Q 3047 847 3047 1241 
Q 3047 1584 2836 1778 
Q 2625 1972 2144 2069 
L 1759 2144 
Q 1053 2284 737 2584 
Q 422 2884 422 3419 
Q 422 4038 858 4394 
Q 1294 4750 2059 4750 
Q 2388 4750 2728 4690 
Q 3069 4631 3425 4513 
z
" transform="scale(0.015625)"/>
       <path id="DejaVuSans-74" d="M 1172 4494 
L 1172 3500 
L 2356 3500 
L 2356 3053 
L 1172 3053 
L 1172 1153 
Q 1172 725 1289 603 
Q 1406 481 1766 481 
L 2356 481 
L 2356 0 
L 1766 0 
Q 1100 0 847 248 
Q 594 497 594 1153 
L 594 3053 
L 172 3053 
L 172 3500 
L 594 3500 
L 594 4494 
L 1172 4494 
z
" transform="scale(0.015625)"/>
       <path id="DejaVuSans-65" d="M 3597 1894 
L 3597 1613 
L 953 1613 
Q 991 1019 1311 708 
Q 1631 397 2203 397 
Q 2534 397 2845 478 
Q 3156 559 3463 722 
L 3463 178 
Q 3153 47 2828 -22 
Q 2503 -91 2169 -91 
Q 1331 -91 842 396 
Q 353 884 353 1716 
Q 353 2575 817 3079 
Q 1281 3584 2069 3584 
Q 2775 3584 3186 3129 
Q 3597 2675 3597 1894 
z
M 3022 2063 
Q 3016 2534 2758 2815 
Q 2500 3097 2075 3097 
Q 1594 3097 1305 2825 
Q 1016 2553 972 2059 
L 3022 2063 
z
" transform="scale(0.015625)"/>
       <path id="DejaVuSans-70" d="M 1159 525 
L 1159 -1331 
L 581 -1331 
L 581 3500 
L 1159 3500 
L 1159 2969 
Q 1341 3281 1617 3432 
Q 1894 3584 2278 3584 
Q 2916 3584 3314 3078 
Q 3713 2572 3713 1747 
Q 3713 922 3314 415 
Q 2916 -91 2278 -91 
Q 1894 -91 1617 61 
Q 1341 213 1159 525 
z
M 3116 1747 
Q 3116 2381 2855 2742 
Q 2594 3103 2138 3103 
Q 1681 3103 1420 2742 
Q 1159 2381 1159 1747 
Q 1159 1113 1420 752 
Q 1681 391 2138 391 
Q 2594 391 2855 752 
Q 3116 1113 3116 1747 
z
" transform="scale(0.015625)"/>
       <path id="DejaVuSans-73" d="M 2834 3397 
L 2834 2853 
Q 2591 2978 2328 3040 
Q 2066 3103 1784 3103 
Q 1356 3103 1142 2972 
Q 928 2841 928 2578 
Q 928 2378 1081 2264 
Q 1234 2150 1697 2047 
L 1894 2003 
Q 2506 1872 2764 1633 
Q 3022 1394 3022 966 
Q 3022 478 2636 193 
Q 2250 -91 1575 -91 
Q 1294 -91 989 -36 
Q 684 19 347 128 
L 347 722 
Q 666 556 975 473 
Q 1284 391 1588 391 
Q 1994 391 2212 530 
Q 2431 669 2431 922 
Q 2431 1156 2273 1281 
Q 2116 1406 1581 1522 
L 1381 1569 
Q 847 1681 609 1914 
Q 372 2147 372 2553 
Q 372 3047 722 3315 
Q 1072 3584 1716 3584 
Q 2034 3584 2315 3537 
Q 2597 3491 2834 3397 
z
" transform="scale(0.015625)"/>
      </defs>
      <use xlink:href="#DejaVuSans-53"/>
      <use xlink:href="#DejaVuSans-74" x="63.476562"/>
      <use xlink:href="#DejaVuSans-65" x="102.685547"/>
      <use xlink:href="#DejaVuSans-70" x="164.208984"/>
      <use xlink:href="#DejaVuSans-73" x="227.685547"/>
     </g>
    </g>
   </g>
   <g id="matplotlib.axis_2">
    <g id="ytick_1">
     <g id="line2d_13">
      <path d="M 144 654.909341 
L 1036.8 654.909341 
" clip-path="url(#p6d2da72acd)" style="fill: none; stroke: #b0b0b0; stroke-width: 0.8; stroke-linecap: square"/>
     </g>
     <g id="line2d_14">
      <defs>
       <path id="m81f78394f9" d="M 0 0 
L -3.5 0 
" style="stroke: #000000; stroke-width: 0.8"/>
      </defs>
      <g>
       <use xlink:href="#m81f78394f9" x="144" y="654.909341" style="stroke: #000000; stroke-width: 0.8"/>
      </g>
     </g>
     <g id="text_8">
      <!-- −0.2 -->
      <g transform="translate(64.151562 666.306997) scale(0.3 -0.3)">
       <defs>
        <path id="DejaVuSans-2212" d="M 678 2272 
L 4684 2272 
L 4684 1741 
L 678 1741 
L 678 2272 
z
" transform="scale(0.015625)"/>
        <path id="DejaVuSans-2e" d="M 684 794 
L 1344 794 
L 1344 0 
L 684 0 
L 684 794 
z
" transform="scale(0.015625)"/>
       </defs>
       <use xlink:href="#DejaVuSans-2212"/>
       <use xlink:href="#DejaVuSans-30" x="83.789062"/>
       <use xlink:href="#DejaVuSans-2e" x="147.412109"/>
       <use xlink:href="#DejaVuSans-32" x="179.199219"/>
      </g>
     </g>
    </g>
    <g id="ytick_2">
     <g id="line2d_15">
      <path d="M 144 523.256767 
L 1036.8 523.256767 
" clip-path="url(#p6d2da72acd)" style="fill: none; stroke: #b0b0b0; stroke-width: 0.8; stroke-linecap: square"/>
     </g>
     <g id="line2d_16">
      <g>
       <use xlink:href="#m81f78394f9" x="144" y="523.256767" style="stroke: #000000; stroke-width: 0.8"/>
      </g>
     </g>
     <g id="text_9">
      <!-- 0.0 -->
      <g transform="translate(89.290625 534.654423) scale(0.3 -0.3)">
       <use xlink:href="#DejaVuSans-30"/>
       <use xlink:href="#DejaVuSans-2e" x="63.623047"/>
       <use xlink:href="#DejaVuSans-30" x="95.410156"/>
      </g>
     </g>
    </g>
    <g id="ytick_3">
     <g id="line2d_17">
      <path d="M 144 391.604194 
L 1036.8 391.604194 
" clip-path="url(#p6d2da72acd)" style="fill: none; stroke: #b0b0b0; stroke-width: 0.8; stroke-linecap: square"/>
     </g>
     <g id="line2d_18">
      <g>
       <use xlink:href="#m81f78394f9" x="144" y="391.604194" style="stroke: #000000; stroke-width: 0.8"/>
      </g>
     </g>
     <g id="text_10">
      <!-- 0.2 -->
      <g transform="translate(89.290625 403.00185) scale(0.3 -0.3)">
       <use xlink:href="#DejaVuSans-30"/>
       <use xlink:href="#DejaVuSans-2e" x="63.623047"/>
       <use xlink:href="#DejaVuSans-32" x="95.410156"/>
      </g>
     </g>
    </g>
    <g id="ytick_4">
     <g id="line2d_19">
      <path d="M 144 259.95162 
L 1036.8 259.95162 
" clip-path="url(#p6d2da72acd)" style="fill: none; stroke: #b0b0b0; stroke-width: 0.8; stroke-linecap: square"/>
     </g>
     <g id="line2d_20">
      <g>
       <use xlink:href="#m81f78394f9" x="144" y="259.95162" style="stroke: #000000; stroke-width: 0.8"/>
      </g>
     </g>
     <g id="text_11">
      <!-- 0.4 -->
      <g transform="translate(89.290625 271.349277) scale(0.3 -0.3)">
       <use xlink:href="#DejaVuSans-30"/>
       <use xlink:href="#DejaVuSans-2e" x="63.623047"/>
       <use xlink:href="#DejaVuSans-34" x="95.410156"/>
      </g>
     </g>
    </g>
    <g id="ytick_5">
     <g id="line2d_21">
      <path d="M 144 128.299047 
L 1036.8 128.299047 
" clip-path="url(#p6d2da72acd)" style="fill: none; stroke: #b0b0b0; stroke-width: 0.8; stroke-linecap: square"/>
     </g>
     <g id="line2d_22">
      <g>
       <use xlink:href="#m81f78394f9" x="144" y="128.299047" style="stroke: #000000; stroke-width: 0.8"/>
      </g>
     </g>
     <g id="text_12">
      <!-- 0.6 -->
      <g transform="translate(89.290625 139.696703) scale(0.3 -0.3)">
       <use xlink:href="#DejaVuSans-30"/>
       <use xlink:href="#DejaVuSans-2e" x="63.623047"/>
       <use xlink:href="#DejaVuSans-36" x="95.410156"/>
      </g>
     </g>
    </g>
    <g id="text_13">
     <!-- Pearson expression -->
     <g transform="translate(51.832812 630.00125) rotate(-90) scale(0.4 -0.4)">
      <defs>
       <path id="DejaVuSans-50" d="M 1259 4147 
L 1259 2394 
L 2053 2394 
Q 2494 2394 2734 2622 
Q 2975 2850 2975 3272 
Q 2975 3691 2734 3919 
Q 2494 4147 2053 4147 
L 1259 4147 
z
M 628 4666 
L 2053 4666 
Q 2838 4666 3239 4311 
Q 3641 3956 3641 3272 
Q 3641 2581 3239 2228 
Q 2838 1875 2053 1875 
L 1259 1875 
L 1259 0 
L 628 0 
L 628 4666 
z
" transform="scale(0.015625)"/>
       <path id="DejaVuSans-61" d="M 2194 1759 
Q 1497 1759 1228 1600 
Q 959 1441 959 1056 
Q 959 750 1161 570 
Q 1363 391 1709 391 
Q 2188 391 2477 730 
Q 2766 1069 2766 1631 
L 2766 1759 
L 2194 1759 
z
M 3341 1997 
L 3341 0 
L 2766 0 
L 2766 531 
Q 2569 213 2275 61 
Q 1981 -91 1556 -91 
Q 1019 -91 701 211 
Q 384 513 384 1019 
Q 384 1609 779 1909 
Q 1175 2209 1959 2209 
L 2766 2209 
L 2766 2266 
Q 2766 2663 2505 2880 
Q 2244 3097 1772 3097 
Q 1472 3097 1187 3025 
Q 903 2953 641 2809 
L 641 3341 
Q 956 3463 1253 3523 
Q 1550 3584 1831 3584 
Q 2591 3584 2966 3190 
Q 3341 2797 3341 1997 
z
" transform="scale(0.015625)"/>
       <path id="DejaVuSans-72" d="M 2631 2963 
Q 2534 3019 2420 3045 
Q 2306 3072 2169 3072 
Q 1681 3072 1420 2755 
Q 1159 2438 1159 1844 
L 1159 0 
L 581 0 
L 581 3500 
L 1159 3500 
L 1159 2956 
Q 1341 3275 1631 3429 
Q 1922 3584 2338 3584 
Q 2397 3584 2469 3576 
Q 2541 3569 2628 3553 
L 2631 2963 
z
" transform="scale(0.015625)"/>
       <path id="DejaVuSans-6f" d="M 1959 3097 
Q 1497 3097 1228 2736 
Q 959 2375 959 1747 
Q 959 1119 1226 758 
Q 1494 397 1959 397 
Q 2419 397 2687 759 
Q 2956 1122 2956 1747 
Q 2956 2369 2687 2733 
Q 2419 3097 1959 3097 
z
M 1959 3584 
Q 2709 3584 3137 3096 
Q 3566 2609 3566 1747 
Q 3566 888 3137 398 
Q 2709 -91 1959 -91 
Q 1206 -91 779 398 
Q 353 888 353 1747 
Q 353 2609 779 3096 
Q 1206 3584 1959 3584 
z
" transform="scale(0.015625)"/>
       <path id="DejaVuSans-6e" d="M 3513 2113 
L 3513 0 
L 2938 0 
L 2938 2094 
Q 2938 2591 2744 2837 
Q 2550 3084 2163 3084 
Q 1697 3084 1428 2787 
Q 1159 2491 1159 1978 
L 1159 0 
L 581 0 
L 581 3500 
L 1159 3500 
L 1159 2956 
Q 1366 3272 1645 3428 
Q 1925 3584 2291 3584 
Q 2894 3584 3203 3211 
Q 3513 2838 3513 2113 
z
" transform="scale(0.015625)"/>
       <path id="DejaVuSans-20" transform="scale(0.015625)"/>
       <path id="DejaVuSans-78" d="M 3513 3500 
L 2247 1797 
L 3578 0 
L 2900 0 
L 1881 1375 
L 863 0 
L 184 0 
L 1544 1831 
L 300 3500 
L 978 3500 
L 1906 2253 
L 2834 3500 
L 3513 3500 
z
" transform="scale(0.015625)"/>
       <path id="DejaVuSans-69" d="M 603 3500 
L 1178 3500 
L 1178 0 
L 603 0 
L 603 3500 
z
M 603 4863 
L 1178 4863 
L 1178 4134 
L 603 4134 
L 603 4863 
z
" transform="scale(0.015625)"/>
      </defs>
      <use xlink:href="#DejaVuSans-50"/>
      <use xlink:href="#DejaVuSans-65" x="56.677734"/>
      <use xlink:href="#DejaVuSans-61" x="118.201172"/>
      <use xlink:href="#DejaVuSans-72" x="179.480469"/>
      <use xlink:href="#DejaVuSans-73" x="220.59375"/>
      <use xlink:href="#DejaVuSans-6f" x="272.693359"/>
      <use xlink:href="#DejaVuSans-6e" x="333.875"/>
      <use xlink:href="#DejaVuSans-20" x="397.253906"/>
      <use xlink:href="#DejaVuSans-65" x="429.041016"/>
      <use xlink:href="#DejaVuSans-78" x="488.814453"/>
      <use xlink:href="#DejaVuSans-70" x="547.994141"/>
      <use xlink:href="#DejaVuSans-72" x="611.470703"/>
      <use xlink:href="#DejaVuSans-65" x="650.333984"/>
      <use xlink:href="#DejaVuSans-73" x="711.857422"/>
      <use xlink:href="#DejaVuSans-73" x="763.957031"/>
      <use xlink:href="#DejaVuSans-69" x="816.056641"/>
      <use xlink:href="#DejaVuSans-6f" x="843.839844"/>
      <use xlink:href="#DejaVuSans-6e" x="905.021484"/>
     </g>
    </g>
   </g>
   <g id="line2d_23">
    <path d="M 184.581818 287.038233 
L 185.936804 309.064694 
L 187.291789 517.408143 
L 188.646775 516.282683 
L 190.001761 469.969562 
L 191.356746 444.3263 
L 192.711732 430.051045 
L 194.066717 457.907808 
L 195.421703 431.010788 
L 196.776688 414.008219 
L 198.131674 449.473311 
L 199.48666 463.387083 
L 200.841645 442.02475 
L 202.196631 422.605057 
L 203.551616 416.428379 
L 204.906602 426.799476 
L 206.261587 417.318952 
L 207.616573 408.69322 
L 208.971559 408.475886 
L 211.68153 446.121494 
L 213.036515 463.017889 
L 214.391501 448.832073 
L 217.101472 423.866501 
L 218.456458 412.754242 
L 221.166429 393.206771 
L 223.8764 375.857292 
L 225.231386 370.700009 
L 226.586371 364.074241 
L 227.941357 337.368908 
L 229.296342 324.721331 
L 230.651328 319.661941 
L 232.006314 313.537151 
L 233.361299 306.514931 
L 234.716285 289.20602 
L 236.07127 286.480836 
L 237.426256 282.254509 
L 238.781241 260.162072 
L 240.136227 244.325824 
L 241.491213 242.790081 
L 242.846198 241.771928 
L 244.201184 235.446975 
L 245.556169 220.708321 
L 248.266141 212.459026 
L 249.621126 203.645062 
L 252.331097 159.40932 
L 253.686083 136.824326 
L 260.461011 137.469834 
L 261.815996 137.531996 
L 264.525968 138.039572 
L 272.655881 139.512152 
L 278.075823 140.307294 
L 283.495766 140.198943 
L 295.690636 140.028519 
L 302.465564 139.866124 
L 313.305448 139.728237 
L 329.565275 139.693851 
L 996.218182 139.693851 
L 996.218182 139.693851 
" clip-path="url(#p6d2da72acd)" style="fill: none; stroke: #1f77b4; stroke-width: 4; stroke-linecap: square"/>
   </g>
   <g id="line2d_24">
    <path d="M 184.581818 537.988934 
L 185.936804 634.654205 
L 187.291789 544.65717 
L 188.646775 550.38497 
L 190.001761 484.205599 
L 191.356746 439.143886 
L 192.711732 403.934335 
L 194.066717 426.636322 
L 196.776688 405.227914 
L 198.131674 389.702397 
L 199.48666 376.962156 
L 202.196631 369.732017 
L 203.551616 369.024006 
L 204.906602 365.219148 
L 206.261587 358.857428 
L 210.326544 341.674095 
L 213.036515 333.076741 
L 218.456458 321.213681 
L 222.521414 312.865324 
L 223.8764 310.023591 
L 225.231386 299.488237 
L 226.586371 282.466098 
L 227.941357 277.702867 
L 229.296342 266.135609 
L 230.651328 266.14597 
L 232.006314 266.333387 
L 233.361299 267.139046 
L 234.716285 254.847762 
L 236.07127 250.990371 
L 237.426256 248.064689 
L 240.136227 246.72097 
L 241.491213 242.810709 
L 242.846198 239.267077 
L 244.201184 234.421645 
L 245.556169 231.275067 
L 248.266141 228.497403 
L 252.331097 225.676815 
L 253.686083 224.600944 
L 255.041068 222.901223 
L 257.75104 220.143725 
L 260.461011 217.819717 
L 261.815996 216.757436 
L 264.525968 215.767602 
L 269.94591 214.693099 
L 274.010867 214.139292 
L 282.14078 213.422001 
L 288.915708 213.208061 
L 307.885506 212.89729 
L 333.630232 212.899042 
L 996.218182 212.899042 
L 996.218182 212.899042 
" clip-path="url(#p6d2da72acd)" style="fill: none; stroke: #ff7f0e; stroke-width: 4; stroke-linecap: square"/>
   </g>
   <g id="line2d_25">
    <path d="M 184.581818 278.493972 
L 185.936804 409.922501 
L 187.291789 418.514411 
L 188.646775 469.065695 
L 190.001761 497.943332 
L 191.356746 506.730914 
L 192.711732 509.318797 
L 194.066717 509.9534 
L 195.421703 508.007516 
L 196.776688 505.051672 
L 198.131674 502.563277 
L 199.48666 488.478355 
L 202.196631 451.057039 
L 203.551616 433.803889 
L 206.261587 403.250411 
L 207.616573 389.659007 
L 208.971559 377.441776 
L 210.326544 366.58054 
L 211.68153 357.386619 
L 213.036515 349.127932 
L 214.391501 341.628308 
L 215.746487 357.184193 
L 218.456458 396.208228 
L 219.811443 410.411565 
L 221.166429 417.931382 
L 222.521414 424.655927 
L 223.8764 425.780968 
L 225.231386 424.015275 
L 226.586371 412.619612 
L 227.941357 404.236662 
L 229.296342 390.466514 
L 230.651328 378.676707 
L 232.006314 369.875921 
L 233.361299 363.940029 
L 234.716285 361.747111 
L 236.07127 365.485816 
L 237.426256 370.251927 
L 238.781241 367.449765 
L 240.136227 369.407768 
L 241.491213 372.931448 
L 242.846198 389.958157 
L 245.556169 438.743968 
L 248.266141 489.107682 
L 249.621126 507.427094 
L 250.976112 514.741929 
L 252.331097 521.422556 
L 255.041068 537.708616 
L 256.396054 528.246361 
L 259.106025 501.857817 
L 260.461011 492.1405 
L 261.815996 487.110703 
L 263.170982 483.313863 
L 264.525968 486.137326 
L 265.880953 497.565116 
L 268.590924 523.143042 
L 269.94591 534.929592 
L 271.300895 545.547171 
L 272.655881 557.385497 
L 274.010867 572.195291 
L 275.365852 569.199107 
L 278.075823 575.829538 
L 279.430809 578.192842 
L 280.785795 579.037135 
L 282.14078 582.17494 
L 283.495766 571.313596 
L 286.205737 533.840115 
L 287.560722 514.917866 
L 288.915708 498.557959 
L 290.270694 489.999043 
L 291.625679 493.348006 
L 292.980665 498.933701 
L 294.33565 496.530187 
L 295.690636 505.589968 
L 297.045621 505.606319 
L 298.400607 513.947962 
L 301.110578 527.552022 
L 302.465564 534.354283 
L 303.820549 540.068671 
L 305.175535 542.744363 
L 306.530521 546.215921 
L 307.885506 548.653439 
L 310.595477 555.581893 
L 311.950463 558.33549 
L 313.305448 559.091713 
L 314.660434 554.53093 
L 316.01542 563.749783 
L 317.370405 559.975476 
L 318.725391 549.14257 
L 320.080376 556.75869 
L 321.435362 556.035478 
L 322.790348 561.154053 
L 324.145333 566.880194 
L 326.855304 576.699149 
L 328.21029 580.443506 
L 329.565275 582.555269 
L 330.920261 582.684882 
L 332.275247 582.234012 
L 333.630232 591.954879 
L 334.985218 608.585068 
L 336.340203 603.766337 
L 337.695189 606.902573 
L 339.050175 602.362081 
L 340.40516 592.375403 
L 341.760146 584.136799 
L 343.115131 570.79426 
L 348.535074 593.378726 
L 352.60003 547.555807 
L 355.310002 560.163035 
L 356.664987 567.169196 
L 358.019973 575.558406 
L 359.374958 590.539618 
L 360.729944 574.969767 
L 362.084929 568.715799 
L 364.794901 543.668146 
L 366.149886 533.171995 
L 370.214843 505.806501 
L 372.924814 488.93309 
L 375.634785 446.727443 
L 376.989771 435.442803 
L 378.344756 426.186761 
L 379.699742 433.013397 
L 381.054728 447.667436 
L 382.409713 460.62648 
L 383.764699 479.051136 
L 385.119684 478.64984 
L 386.47467 479.560656 
L 389.184641 438.640679 
L 391.894612 439.962382 
L 393.249598 440.37022 
L 400.024526 336.383515 
L 401.379511 336.272619 
L 404.089482 337.253635 
L 409.509425 339.406853 
L 414.929367 341.334632 
L 416.284353 341.879006 
L 417.639338 342.25041 
L 418.994324 341.388042 
L 420.349309 322.960326 
L 427.124237 222.458478 
L 433.899165 222.58308 
L 437.964122 222.955566 
L 443.384064 223.731918 
L 451.513978 225.318263 
L 462.353862 227.563638 
L 473.193747 228.616854 
L 475.903718 228.455873 
L 478.613689 228.115193 
L 479.968675 227.759947 
L 481.323661 227.953855 
L 482.678646 227.267316 
L 484.033632 231.580327 
L 489.453574 306.971212 
L 498.938473 446.662301 
L 500.293459 446.80821 
L 501.648444 447.296281 
L 503.00343 448.064754 
L 504.358416 449.478806 
L 507.068387 487.115873 
L 508.423372 506.521058 
L 511.133343 541.330756 
L 512.488329 561.001893 
L 513.843315 577.702563 
L 515.1983 590.965608 
L 516.553286 599.059152 
L 517.908271 619.599284 
L 519.263257 617.533346 
L 520.618243 619.575622 
L 521.973228 619.190453 
L 523.328214 627.128727 
L 524.683199 643.817468 
L 526.038185 626.15491 
L 527.39317 625.520092 
L 528.748156 603.604813 
L 530.103142 584.57449 
L 534.168098 519.099489 
L 535.523084 506.622222 
L 536.87807 501.598263 
L 538.233055 497.186495 
L 539.588041 490.734204 
L 540.943026 506.507453 
L 542.298012 520.38432 
L 543.652997 536.258378 
L 545.007983 547.473838 
L 546.362969 543.138418 
L 547.717954 534.82428 
L 550.427925 502.409839 
L 551.782911 491.305317 
L 553.137896 478.227153 
L 554.492882 472.165097 
L 555.847868 475.667161 
L 557.202853 488.235379 
L 558.557839 488.080038 
L 559.912824 498.823647 
L 561.26781 496.909827 
L 562.622796 497.519559 
L 563.977781 499.062442 
L 565.332767 489.93017 
L 566.687752 499.089671 
L 568.042738 486.165071 
L 569.397723 492.687492 
L 570.752709 499.915335 
L 572.107695 509.924765 
L 573.46268 514.420717 
L 574.817666 517.575968 
L 576.172651 510.326565 
L 580.237608 461.976399 
L 581.592594 455.132038 
L 582.947579 445.881675 
L 584.302565 440.105432 
L 585.65755 439.270741 
L 587.012536 436.901339 
L 588.367522 438.145925 
L 589.722507 444.993285 
L 591.077493 460.083828 
L 592.432478 470.981285 
L 593.787464 486.65191 
L 595.14245 495.477791 
L 596.497435 500.484331 
L 597.852421 501.423334 
L 599.207406 497.829929 
L 600.562392 505.377422 
L 601.917377 518.793324 
L 603.272363 536.515703 
L 604.627349 547.111973 
L 605.982334 551.753432 
L 607.33732 561.94104 
L 610.047291 578.087947 
L 611.402277 583.348225 
L 612.757262 595.346462 
L 615.467233 635.260446 
L 618.177204 680.150252 
L 620.887176 726.466293 
L 622.242161 733.160296 
L 623.597147 738.72 
L 624.952132 734.921407 
L 626.307118 719.831632 
L 627.662104 708.8874 
L 629.017089 694.845628 
L 630.372075 685.550643 
L 631.72706 679.498174 
L 633.082046 665.478646 
L 638.501988 570.879342 
L 642.566945 521.983593 
L 645.276916 478.422071 
L 646.631902 459.47203 
L 647.986887 436.556688 
L 652.051844 390.479962 
L 654.761815 341.942156 
L 658.826772 267.265151 
L 661.536743 218.038655 
L 662.891729 198.782844 
L 664.246714 184.853575 
L 665.6017 174.630023 
L 666.956685 175.363339 
L 668.311671 172.400118 
L 669.666657 172.026572 
L 671.021642 169.386137 
L 672.376628 156.780842 
L 673.731613 151.969574 
L 675.086599 152.078653 
L 676.441584 152.456487 
L 677.79657 159.823787 
L 679.151556 181.124695 
L 681.861527 221.553749 
L 685.926484 297.902323 
L 688.636455 344.319374 
L 692.701411 419.094553 
L 694.056397 437.067937 
L 695.411383 441.326759 
L 696.766368 443.584926 
L 698.121354 443.592224 
L 699.476339 443.105872 
L 700.831325 443.854274 
L 702.186311 445.403687 
L 703.541296 446.12142 
L 704.896282 446.97763 
L 706.251267 448.445455 
L 707.606253 449.535111 
L 708.961238 449.953007 
L 710.316224 450.772206 
L 713.026195 449.865906 
L 715.736166 447.66252 
L 717.091152 448.061138 
L 718.446138 440.995339 
L 721.156109 398.042874 
L 723.86608 352.961094 
L 725.221065 327.873064 
L 726.576051 307.367465 
L 727.931037 293.174303 
L 729.286022 280.71733 
L 731.995993 260.956531 
L 733.350979 251.856025 
L 734.705964 255.743898 
L 736.06095 276.138685 
L 740.125907 322.660618 
L 741.480892 330.463017 
L 742.835878 331.807879 
L 744.190864 352.224707 
L 745.545849 368.369085 
L 746.900835 391.13495 
L 748.25582 402.77936 
L 749.610806 412.683101 
L 750.965791 416.42054 
L 752.320777 427.210619 
L 753.675763 443.823413 
L 755.030748 466.32878 
L 756.385734 482.832585 
L 760.450691 540.973275 
L 761.805676 559.832542 
L 765.870633 625.513 
L 767.225618 641.894811 
L 768.580604 645.87352 
L 769.93559 644.545816 
L 771.290575 630.269349 
L 774.000546 605.112153 
L 775.355532 585.599379 
L 776.710518 564.197269 
L 778.065503 548.661533 
L 780.775474 523.758036 
L 782.13046 516.620213 
L 783.485445 514.948621 
L 784.840431 494.141608 
L 786.195417 477.208465 
L 787.550402 453.910058 
L 788.905388 441.817171 
L 790.260373 431.377203 
L 791.615359 427.506996 
L 792.970345 416.629329 
L 794.32533 401.470178 
L 795.680316 378.821096 
L 797.035301 361.702044 
L 802.455244 281.200579 
L 806.5202 209.638517 
L 807.875186 189.150677 
L 809.230171 176.004663 
L 810.585157 165.648127 
L 811.940143 164.379093 
L 817.360085 152.230848 
L 818.715071 149.740589 
L 820.070056 146.54021 
L 821.425042 143.038851 
L 824.135013 140.483483 
L 826.844984 140.410025 
L 828.19997 139.41606 
L 829.554955 138.076449 
L 830.909941 137.317175 
L 832.264926 135.770846 
L 833.619912 135.449908 
L 834.974898 133.92 
L 836.329883 134.001623 
L 837.684869 135.849761 
L 839.039854 139.156098 
L 840.39484 139.272309 
L 841.749825 140.95709 
L 843.104811 140.955462 
L 844.459797 142.623253 
L 845.814782 145.891305 
L 847.169768 146.398113 
L 848.524753 146.592139 
L 851.234725 146.691784 
L 853.944696 147.309875 
L 855.299681 147.385279 
L 858.009652 147.975776 
L 859.364638 150.535005 
L 860.719624 152.563979 
L 862.074609 156.248688 
L 863.429595 162.658694 
L 864.78458 173.568793 
L 866.139566 181.919589 
L 867.494552 191.12362 
L 868.849537 202.604133 
L 871.559508 235.954041 
L 874.269479 276.057184 
L 875.624465 293.055893 
L 876.979451 305.054456 
L 879.689422 320.976886 
L 881.044407 327.964924 
L 882.399393 341.489748 
L 883.754379 351.725322 
L 885.109364 360.91594 
L 886.46435 368.708 
L 889.174321 391.456296 
L 890.529306 404.591151 
L 891.884292 412.6134 
L 893.239278 418.325286 
L 895.949249 439.02283 
L 897.304234 453.089196 
L 898.65922 463.96223 
L 900.014205 471.106603 
L 901.369191 479.791569 
L 904.079162 493.454941 
L 905.434148 490.26765 
L 906.789133 494.755076 
L 908.144119 496.97455 
L 909.499105 498.68719 
L 910.85409 495.489981 
L 912.209076 486.72247 
L 913.564061 482.83927 
L 914.919047 477.937042 
L 916.274032 472.066125 
L 917.629018 467.88537 
L 918.984004 467.407199 
L 920.338989 466.005974 
L 921.693975 465.095789 
L 923.04896 458.12398 
L 924.403946 455.137292 
L 925.758932 452.713473 
L 927.113917 453.351143 
L 928.468903 453.151682 
L 929.823888 454.232371 
L 931.178874 450.92091 
L 932.533859 454.447686 
L 933.888845 457.497481 
L 935.243831 462.371928 
L 936.598816 460.357944 
L 937.953802 461.827172 
L 939.308787 461.470456 
L 940.663773 463.142005 
L 942.018759 459.356556 
L 943.373744 460.691815 
L 944.72873 458.895309 
L 946.083715 460.223501 
L 947.438701 454.551801 
L 948.793686 451.94686 
L 950.148672 446.636884 
L 951.503658 442.274512 
L 952.858643 445.032093 
L 955.568614 436.041437 
L 956.9236 437.548081 
L 958.278586 442.054728 
L 959.633571 442.701814 
L 960.988557 445.40602 
L 962.343542 455.298405 
L 963.698528 457.691796 
L 967.763485 479.672727 
L 969.11847 489.727483 
L 970.473456 495.309825 
L 971.828441 505.428166 
L 973.183427 512.526008 
L 974.538413 518.270768 
L 975.893398 517.948864 
L 977.248384 529.475675 
L 978.603369 525.775129 
L 979.958355 529.885271 
L 981.31334 531.988466 
L 982.668326 541.168851 
L 984.023312 542.1691 
L 985.378297 545.19493 
L 986.733283 550.260679 
L 988.088268 559.551803 
L 989.443254 567.902223 
L 990.798239 573.590166 
L 992.153225 577.857568 
L 993.508211 586.791075 
L 994.863196 589.859083 
L 996.218182 593.282029 
L 996.218182 593.282029 
" clip-path="url(#p6d2da72acd)" style="fill: none; stroke: #2ca02c; stroke-width: 4; stroke-linecap: square"/>
   </g>
   <g id="line2d_26"/>
   <g id="line2d_27"/>
   <g id="line2d_28"/>
   <g id="patch_3">
    <path d="M 144 768.96 
L 144 103.68 
" style="fill: none; stroke: #000000; stroke-width: 0.8; stroke-linejoin: miter; stroke-linecap: square"/>
   </g>
   <g id="patch_4">
    <path d="M 1036.8 768.96 
L 1036.8 103.68 
" style="fill: none; stroke: #000000; stroke-width: 0.8; stroke-linejoin: miter; stroke-linecap: square"/>
   </g>
   <g id="patch_5">
    <path d="M 144 768.96 
L 1036.8 768.96 
" style="fill: none; stroke: #000000; stroke-width: 0.8; stroke-linejoin: miter; stroke-linecap: square"/>
   </g>
   <g id="patch_6">
    <path d="M 144 103.68 
L 1036.8 103.68 
" style="fill: none; stroke: #000000; stroke-width: 0.8; stroke-linejoin: miter; stroke-linecap: square"/>
   </g>
   <g id="text_14">
    <!-- client1 -->
    <g transform="translate(488.915625 91.201875) scale(0.6 -0.6)">
     <defs>
      <path id="DejaVuSans-63" d="M 3122 3366 
L 3122 2828 
Q 2878 2963 2633 3030 
Q 2388 3097 2138 3097 
Q 1578 3097 1268 2742 
Q 959 2388 959 1747 
Q 959 1106 1268 751 
Q 1578 397 2138 397 
Q 2388 397 2633 464 
Q 2878 531 3122 666 
L 3122 134 
Q 2881 22 2623 -34 
Q 2366 -91 2075 -91 
Q 1284 -91 818 406 
Q 353 903 353 1747 
Q 353 2603 823 3093 
Q 1294 3584 2113 3584 
Q 2378 3584 2631 3529 
Q 2884 3475 3122 3366 
z
" transform="scale(0.015625)"/>
      <path id="DejaVuSans-6c" d="M 603 4863 
L 1178 4863 
L 1178 0 
L 603 0 
L 603 4863 
z
" transform="scale(0.015625)"/>
     </defs>
     <use xlink:href="#DejaVuSans-63"/>
     <use xlink:href="#DejaVuSans-6c" x="54.980469"/>
     <use xlink:href="#DejaVuSans-69" x="82.763672"/>
     <use xlink:href="#DejaVuSans-65" x="110.546875"/>
     <use xlink:href="#DejaVuSans-6e" x="172.070312"/>
     <use xlink:href="#DejaVuSans-74" x="235.449219"/>
     <use xlink:href="#DejaVuSans-31" x="274.658203"/>
    </g>
   </g>
   <g id="legend_1">
    <g id="patch_7">
     <path d="M 352.5625 748.96 
L 1008.8 748.96 
Q 1016.8 748.96 1016.8 740.96 
L 1016.8 567.71 
Q 1016.8 559.71 1008.8 559.71 
L 352.5625 559.71 
Q 344.5625 559.71 344.5625 567.71 
L 344.5625 740.96 
Q 344.5625 748.96 352.5625 748.96 
z
" style="fill: #ffffff; opacity: 0.8; stroke: #cccccc; stroke-linejoin: miter"/>
    </g>
    <g id="line2d_29">
     <path d="M 360.5625 592.10375 
L 400.5625 592.10375 
L 440.5625 592.10375 
" style="fill: none; stroke: #1f77b4; stroke-width: 4; stroke-linecap: square"/>
    </g>
    <g id="text_15">
     <!-- fedavg_private_regressors -->
     <g transform="translate(472.5625 606.10375) scale(0.4 -0.4)">
      <defs>
       <path id="DejaVuSans-66" d="M 2375 4863 
L 2375 4384 
L 1825 4384 
Q 1516 4384 1395 4259 
Q 1275 4134 1275 3809 
L 1275 3500 
L 2222 3500 
L 2222 3053 
L 1275 3053 
L 1275 0 
L 697 0 
L 697 3053 
L 147 3053 
L 147 3500 
L 697 3500 
L 697 3744 
Q 697 4328 969 4595 
Q 1241 4863 1831 4863 
L 2375 4863 
z
" transform="scale(0.015625)"/>
       <path id="DejaVuSans-64" d="M 2906 2969 
L 2906 4863 
L 3481 4863 
L 3481 0 
L 2906 0 
L 2906 525 
Q 2725 213 2448 61 
Q 2172 -91 1784 -91 
Q 1150 -91 751 415 
Q 353 922 353 1747 
Q 353 2572 751 3078 
Q 1150 3584 1784 3584 
Q 2172 3584 2448 3432 
Q 2725 3281 2906 2969 
z
M 947 1747 
Q 947 1113 1208 752 
Q 1469 391 1925 391 
Q 2381 391 2643 752 
Q 2906 1113 2906 1747 
Q 2906 2381 2643 2742 
Q 2381 3103 1925 3103 
Q 1469 3103 1208 2742 
Q 947 2381 947 1747 
z
" transform="scale(0.015625)"/>
       <path id="DejaVuSans-76" d="M 191 3500 
L 800 3500 
L 1894 563 
L 2988 3500 
L 3597 3500 
L 2284 0 
L 1503 0 
L 191 3500 
z
" transform="scale(0.015625)"/>
       <path id="DejaVuSans-67" d="M 2906 1791 
Q 2906 2416 2648 2759 
Q 2391 3103 1925 3103 
Q 1463 3103 1205 2759 
Q 947 2416 947 1791 
Q 947 1169 1205 825 
Q 1463 481 1925 481 
Q 2391 481 2648 825 
Q 2906 1169 2906 1791 
z
M 3481 434 
Q 3481 -459 3084 -895 
Q 2688 -1331 1869 -1331 
Q 1566 -1331 1297 -1286 
Q 1028 -1241 775 -1147 
L 775 -588 
Q 1028 -725 1275 -790 
Q 1522 -856 1778 -856 
Q 2344 -856 2625 -561 
Q 2906 -266 2906 331 
L 2906 616 
Q 2728 306 2450 153 
Q 2172 0 1784 0 
Q 1141 0 747 490 
Q 353 981 353 1791 
Q 353 2603 747 3093 
Q 1141 3584 1784 3584 
Q 2172 3584 2450 3431 
Q 2728 3278 2906 2969 
L 2906 3500 
L 3481 3500 
L 3481 434 
z
" transform="scale(0.015625)"/>
       <path id="DejaVuSans-5f" d="M 3263 -1063 
L 3263 -1509 
L -63 -1509 
L -63 -1063 
L 3263 -1063 
z
" transform="scale(0.015625)"/>
      </defs>
      <use xlink:href="#DejaVuSans-66"/>
      <use xlink:href="#DejaVuSans-65" x="35.205078"/>
      <use xlink:href="#DejaVuSans-64" x="96.728516"/>
      <use xlink:href="#DejaVuSans-61" x="160.205078"/>
      <use xlink:href="#DejaVuSans-76" x="221.484375"/>
      <use xlink:href="#DejaVuSans-67" x="280.664062"/>
      <use xlink:href="#DejaVuSans-5f" x="344.140625"/>
      <use xlink:href="#DejaVuSans-70" x="394.140625"/>
      <use xlink:href="#DejaVuSans-72" x="457.617188"/>
      <use xlink:href="#DejaVuSans-69" x="498.730469"/>
      <use xlink:href="#DejaVuSans-76" x="526.513672"/>
      <use xlink:href="#DejaVuSans-61" x="585.693359"/>
      <use xlink:href="#DejaVuSans-74" x="646.972656"/>
      <use xlink:href="#DejaVuSans-65" x="686.181641"/>
      <use xlink:href="#DejaVuSans-5f" x="747.705078"/>
      <use xlink:href="#DejaVuSans-72" x="797.705078"/>
      <use xlink:href="#DejaVuSans-65" x="836.568359"/>
      <use xlink:href="#DejaVuSans-67" x="898.091797"/>
      <use xlink:href="#DejaVuSans-72" x="961.568359"/>
      <use xlink:href="#DejaVuSans-65" x="1000.431641"/>
      <use xlink:href="#DejaVuSans-73" x="1061.955078"/>
      <use xlink:href="#DejaVuSans-73" x="1114.054688"/>
      <use xlink:href="#DejaVuSans-6f" x="1166.154297"/>
      <use xlink:href="#DejaVuSans-72" x="1227.335938"/>
      <use xlink:href="#DejaVuSans-73" x="1268.449219"/>
     </g>
    </g>
    <g id="line2d_30">
     <path d="M 360.5625 651.92875 
L 400.5625 651.92875 
L 440.5625 651.92875 
" style="fill: none; stroke: #ff7f0e; stroke-width: 4; stroke-linecap: square"/>
    </g>
    <g id="text_16">
     <!-- fedavg -->
     <g transform="translate(472.5625 665.92875) scale(0.4 -0.4)">
      <use xlink:href="#DejaVuSans-66"/>
      <use xlink:href="#DejaVuSans-65" x="35.205078"/>
      <use xlink:href="#DejaVuSans-64" x="96.728516"/>
      <use xlink:href="#DejaVuSans-61" x="160.205078"/>
      <use xlink:href="#DejaVuSans-76" x="221.484375"/>
      <use xlink:href="#DejaVuSans-67" x="280.664062"/>
     </g>
    </g>
    <g id="line2d_31">
     <path d="M 360.5625 710.64125 
L 400.5625 710.64125 
L 440.5625 710.64125 
" style="fill: none; stroke: #2ca02c; stroke-width: 4; stroke-linecap: square"/>
    </g>
    <g id="text_17">
     <!-- local -->
     <g transform="translate(472.5625 724.64125) scale(0.4 -0.4)">
      <use xlink:href="#DejaVuSans-6c"/>
      <use xlink:href="#DejaVuSans-6f" x="27.783203"/>
      <use xlink:href="#DejaVuSans-63" x="88.964844"/>
      <use xlink:href="#DejaVuSans-61" x="143.945312"/>
      <use xlink:href="#DejaVuSans-6c" x="205.224609"/>
     </g>
    </g>
   </g>
  </g>
 </g>
 <defs>
  <clipPath id="p6d2da72acd">
   <rect x="144" y="103.68" width="892.8" height="665.28"/>
  </clipPath>
 </defs>
</svg>
