<?xml version="1.0" encoding="utf-8" standalone="no"?>
<!DOCTYPE svg PUBLIC "-//W3C//DTD SVG 1.1//EN"
  "http://www.w3.org/Graphics/SVG/1.1/DTD/svg11.dtd">
<svg xmlns:xlink="http://www.w3.org/1999/xlink" width="864pt" height="576pt" viewBox="0 0 864 576" xmlns="http://www.w3.org/2000/svg" version="1.1">
 <metadata>
  <rdf:RDF xmlns:dc="http://purl.org/dc/elements/1.1/" xmlns:cc="http://creativecommons.org/ns#" xmlns:rdf="http://www.w3.org/1999/02/22-rdf-syntax-ns#">
   <cc:Work>
    <dc:type rdf:resource="http://purl.org/dc/dcmitype/StillImage"/>
    <dc:date>2025-04-25T14:18:10.908954</dc:date>
    <dc:format>image/svg+xml</dc:format>
    <dc:creator>
     <cc:Agent>
      <dc:title>Matplotlib v3.8.2, https://matplotlib.org/</dc:title>
     </cc:Agent>
    </dc:creator>
   </cc:Work>
  </rdf:RDF>
 </metadata>
 <defs>
  <style type="text/css">*{stroke-linejoin: round; stroke-linecap: butt}</style>
 </defs>
 <g id="figure_1">
  <g id="patch_1">
   <path d="M 0 576 
L 864 576 
L 864 0 
L 0 0 
z
" style="fill: #ffffff"/>
  </g>
  <g id="axes_1">
   <g id="patch_2">
    <path d="M 108 512.64 
L 777.6 512.64 
L 777.6 69.12 
L 108 69.12 
z
" style="fill: #ffffff"/>
   </g>
   <g id="PolyCollection_1"/>
   <g id="PolyCollection_2"/>
   <g id="PolyCollection_3"/>
   <g id="matplotlib.axis_1">
    <g id="xtick_1">
     <g id="line2d_1">
      <path d="M 137.420124 512.64 
L 137.420124 69.12 
" clip-path="url(#p5bedb8cc05)" style="fill: none; stroke: #b0b0b0; stroke-width: 0.8; stroke-linecap: square"/>
     </g>
     <g id="line2d_2">
      <defs>
       <path id="m21df26fd02" d="M 0 0 
L 0 3.5 
" style="stroke: #000000; stroke-width: 0.8"/>
      </defs>
      <g>
       <use xlink:href="#m21df26fd02" x="137.420124" y="512.64" style="stroke: #000000; stroke-width: 0.8"/>
      </g>
     </g>
     <g id="text_1">
      <!-- 0 -->
      <g transform="translate(127.876374 542.435313) scale(0.3 -0.3)">
       <defs>
        <path id="DejaVuSans-30" d="M 2034 4250 
Q 1547 4250 1301 3770 
Q 1056 3291 1056 2328 
Q 1056 1369 1301 889 
Q 1547 409 2034 409 
Q 2525 409 2770 889 
Q 3016 1369 3016 2328 
Q 3016 3291 2770 3770 
Q 2525 4250 2034 4250 
z
M 2034 4750 
Q 2819 4750 3233 4129 
Q 3647 3509 3647 2328 
Q 3647 1150 3233 529 
Q 2819 -91 2034 -91 
Q 1250 -91 836 529 
Q 422 1150 422 2328 
Q 422 3509 836 4129 
Q 1250 4750 2034 4750 
z
" transform="scale(0.015625)"/>
       </defs>
       <use xlink:href="#DejaVuSans-30"/>
      </g>
     </g>
    </g>
    <g id="xtick_2">
     <g id="line2d_3">
      <path d="M 212.697101 512.64 
L 212.697101 69.12 
" clip-path="url(#p5bedb8cc05)" style="fill: none; stroke: #b0b0b0; stroke-width: 0.8; stroke-linecap: square"/>
     </g>
     <g id="line2d_4">
      <g>
       <use xlink:href="#m21df26fd02" x="212.697101" y="512.64" style="stroke: #000000; stroke-width: 0.8"/>
      </g>
     </g>
     <g id="text_2">
      <!-- 2000 -->
      <g transform="translate(174.522101 542.435313) scale(0.3 -0.3)">
       <defs>
        <path id="DejaVuSans-32" d="M 1228 531 
L 3431 531 
L 3431 0 
L 469 0 
L 469 531 
Q 828 903 1448 1529 
Q 2069 2156 2228 2338 
Q 2531 2678 2651 2914 
Q 2772 3150 2772 3378 
Q 2772 3750 2511 3984 
Q 2250 4219 1831 4219 
Q 1534 4219 1204 4116 
Q 875 4013 500 3803 
L 500 4441 
Q 881 4594 1212 4672 
Q 1544 4750 1819 4750 
Q 2544 4750 2975 4387 
Q 3406 4025 3406 3419 
Q 3406 3131 3298 2873 
Q 3191 2616 2906 2266 
Q 2828 2175 2409 1742 
Q 1991 1309 1228 531 
z
" transform="scale(0.015625)"/>
       </defs>
       <use xlink:href="#DejaVuSans-32"/>
       <use xlink:href="#DejaVuSans-30" x="63.623047"/>
       <use xlink:href="#DejaVuSans-30" x="127.246094"/>
       <use xlink:href="#DejaVuSans-30" x="190.869141"/>
      </g>
     </g>
    </g>
    <g id="xtick_3">
     <g id="line2d_5">
      <path d="M 287.974078 512.64 
L 287.974078 69.12 
" clip-path="url(#p5bedb8cc05)" style="fill: none; stroke: #b0b0b0; stroke-width: 0.8; stroke-linecap: square"/>
     </g>
     <g id="line2d_6">
      <g>
       <use xlink:href="#m21df26fd02" x="287.974078" y="512.64" style="stroke: #000000; stroke-width: 0.8"/>
      </g>
     </g>
     <g id="text_3">
      <!-- 4000 -->
      <g transform="translate(249.799078 542.435313) scale(0.3 -0.3)">
       <defs>
        <path id="DejaVuSans-34" d="M 2419 4116 
L 825 1625 
L 2419 1625 
L 2419 4116 
z
M 2253 4666 
L 3047 4666 
L 3047 1625 
L 3713 1625 
L 3713 1100 
L 3047 1100 
L 3047 0 
L 2419 0 
L 2419 1100 
L 313 1100 
L 313 1709 
L 2253 4666 
z
" transform="scale(0.015625)"/>
       </defs>
       <use xlink:href="#DejaVuSans-34"/>
       <use xlink:href="#DejaVuSans-30" x="63.623047"/>
       <use xlink:href="#DejaVuSans-30" x="127.246094"/>
       <use xlink:href="#DejaVuSans-30" x="190.869141"/>
      </g>
     </g>
    </g>
    <g id="xtick_4">
     <g id="line2d_7">
      <path d="M 363.251055 512.64 
L 363.251055 69.12 
" clip-path="url(#p5bedb8cc05)" style="fill: none; stroke: #b0b0b0; stroke-width: 0.8; stroke-linecap: square"/>
     </g>
     <g id="line2d_8">
      <g>
       <use xlink:href="#m21df26fd02" x="363.251055" y="512.64" style="stroke: #000000; stroke-width: 0.8"/>
      </g>
     </g>
     <g id="text_4">
      <!-- 6000 -->
      <g transform="translate(325.076055 542.435313) scale(0.3 -0.3)">
       <defs>
        <path id="DejaVuSans-36" d="M 2113 2584 
Q 1688 2584 1439 2293 
Q 1191 2003 1191 1497 
Q 1191 994 1439 701 
Q 1688 409 2113 409 
Q 2538 409 2786 701 
Q 3034 994 3034 1497 
Q 3034 2003 2786 2293 
Q 2538 2584 2113 2584 
z
M 3366 4563 
L 3366 3988 
Q 3128 4100 2886 4159 
Q 2644 4219 2406 4219 
Q 1781 4219 1451 3797 
Q 1122 3375 1075 2522 
Q 1259 2794 1537 2939 
Q 1816 3084 2150 3084 
Q 2853 3084 3261 2657 
Q 3669 2231 3669 1497 
Q 3669 778 3244 343 
Q 2819 -91 2113 -91 
Q 1303 -91 875 529 
Q 447 1150 447 2328 
Q 447 3434 972 4092 
Q 1497 4750 2381 4750 
Q 2619 4750 2861 4703 
Q 3103 4656 3366 4563 
z
" transform="scale(0.015625)"/>
       </defs>
       <use xlink:href="#DejaVuSans-36"/>
       <use xlink:href="#DejaVuSans-30" x="63.623047"/>
       <use xlink:href="#DejaVuSans-30" x="127.246094"/>
       <use xlink:href="#DejaVuSans-30" x="190.869141"/>
      </g>
     </g>
    </g>
    <g id="xtick_5">
     <g id="line2d_9">
      <path d="M 438.528032 512.64 
L 438.528032 69.12 
" clip-path="url(#p5bedb8cc05)" style="fill: none; stroke: #b0b0b0; stroke-width: 0.8; stroke-linecap: square"/>
     </g>
     <g id="line2d_10">
      <g>
       <use xlink:href="#m21df26fd02" x="438.528032" y="512.64" style="stroke: #000000; stroke-width: 0.8"/>
      </g>
     </g>
     <g id="text_5">
      <!-- 8000 -->
      <g transform="translate(400.353032 542.435313) scale(0.3 -0.3)">
       <defs>
        <path id="DejaVuSans-38" d="M 2034 2216 
Q 1584 2216 1326 1975 
Q 1069 1734 1069 1313 
Q 1069 891 1326 650 
Q 1584 409 2034 409 
Q 2484 409 2743 651 
Q 3003 894 3003 1313 
Q 3003 1734 2745 1975 
Q 2488 2216 2034 2216 
z
M 1403 2484 
Q 997 2584 770 2862 
Q 544 3141 544 3541 
Q 544 4100 942 4425 
Q 1341 4750 2034 4750 
Q 2731 4750 3128 4425 
Q 3525 4100 3525 3541 
Q 3525 3141 3298 2862 
Q 3072 2584 2669 2484 
Q 3125 2378 3379 2068 
Q 3634 1759 3634 1313 
Q 3634 634 3220 271 
Q 2806 -91 2034 -91 
Q 1263 -91 848 271 
Q 434 634 434 1313 
Q 434 1759 690 2068 
Q 947 2378 1403 2484 
z
M 1172 3481 
Q 1172 3119 1398 2916 
Q 1625 2713 2034 2713 
Q 2441 2713 2670 2916 
Q 2900 3119 2900 3481 
Q 2900 3844 2670 4047 
Q 2441 4250 2034 4250 
Q 1625 4250 1398 4047 
Q 1172 3844 1172 3481 
z
" transform="scale(0.015625)"/>
       </defs>
       <use xlink:href="#DejaVuSans-38"/>
       <use xlink:href="#DejaVuSans-30" x="63.623047"/>
       <use xlink:href="#DejaVuSans-30" x="127.246094"/>
       <use xlink:href="#DejaVuSans-30" x="190.869141"/>
      </g>
     </g>
    </g>
    <g id="xtick_6">
     <g id="line2d_11">
      <path d="M 513.805008 512.64 
L 513.805008 69.12 
" clip-path="url(#p5bedb8cc05)" style="fill: none; stroke: #b0b0b0; stroke-width: 0.8; stroke-linecap: square"/>
     </g>
     <g id="line2d_12">
      <g>
       <use xlink:href="#m21df26fd02" x="513.805008" y="512.64" style="stroke: #000000; stroke-width: 0.8"/>
      </g>
     </g>
     <g id="text_6">
      <!-- 10000 -->
      <g transform="translate(466.086258 542.435313) scale(0.3 -0.3)">
       <defs>
        <path id="DejaVuSans-31" d="M 794 531 
L 1825 531 
L 1825 4091 
L 703 3866 
L 703 4441 
L 1819 4666 
L 2450 4666 
L 2450 531 
L 3481 531 
L 3481 0 
L 794 0 
L 794 531 
z
" transform="scale(0.015625)"/>
       </defs>
       <use xlink:href="#DejaVuSans-31"/>
       <use xlink:href="#DejaVuSans-30" x="63.623047"/>
       <use xlink:href="#DejaVuSans-30" x="127.246094"/>
       <use xlink:href="#DejaVuSans-30" x="190.869141"/>
       <use xlink:href="#DejaVuSans-30" x="254.492188"/>
      </g>
     </g>
    </g>
    <g id="xtick_7">
     <g id="line2d_13">
      <path d="M 589.081985 512.64 
L 589.081985 69.12 
" clip-path="url(#p5bedb8cc05)" style="fill: none; stroke: #b0b0b0; stroke-width: 0.8; stroke-linecap: square"/>
     </g>
     <g id="line2d_14">
      <g>
       <use xlink:href="#m21df26fd02" x="589.081985" y="512.64" style="stroke: #000000; stroke-width: 0.8"/>
      </g>
     </g>
     <g id="text_7">
      <!-- 12000 -->
      <g transform="translate(541.363235 542.435313) scale(0.3 -0.3)">
       <use xlink:href="#DejaVuSans-31"/>
       <use xlink:href="#DejaVuSans-32" x="63.623047"/>
       <use xlink:href="#DejaVuSans-30" x="127.246094"/>
       <use xlink:href="#DejaVuSans-30" x="190.869141"/>
       <use xlink:href="#DejaVuSans-30" x="254.492188"/>
      </g>
     </g>
    </g>
    <g id="xtick_8">
     <g id="line2d_15">
      <path d="M 664.358962 512.64 
L 664.358962 69.12 
" clip-path="url(#p5bedb8cc05)" style="fill: none; stroke: #b0b0b0; stroke-width: 0.8; stroke-linecap: square"/>
     </g>
     <g id="line2d_16">
      <g>
       <use xlink:href="#m21df26fd02" x="664.358962" y="512.64" style="stroke: #000000; stroke-width: 0.8"/>
      </g>
     </g>
     <g id="text_8">
      <!-- 14000 -->
      <g transform="translate(616.640212 542.435313) scale(0.3 -0.3)">
       <use xlink:href="#DejaVuSans-31"/>
       <use xlink:href="#DejaVuSans-34" x="63.623047"/>
       <use xlink:href="#DejaVuSans-30" x="127.246094"/>
       <use xlink:href="#DejaVuSans-30" x="190.869141"/>
       <use xlink:href="#DejaVuSans-30" x="254.492188"/>
      </g>
     </g>
    </g>
    <g id="xtick_9">
     <g id="line2d_17">
      <path d="M 739.635939 512.64 
L 739.635939 69.12 
" clip-path="url(#p5bedb8cc05)" style="fill: none; stroke: #b0b0b0; stroke-width: 0.8; stroke-linecap: square"/>
     </g>
     <g id="line2d_18">
      <g>
       <use xlink:href="#m21df26fd02" x="739.635939" y="512.64" style="stroke: #000000; stroke-width: 0.8"/>
      </g>
     </g>
     <g id="text_9">
      <!-- 16000 -->
      <g transform="translate(691.917189 542.435313) scale(0.3 -0.3)">
       <use xlink:href="#DejaVuSans-31"/>
       <use xlink:href="#DejaVuSans-36" x="63.623047"/>
       <use xlink:href="#DejaVuSans-30" x="127.246094"/>
       <use xlink:href="#DejaVuSans-30" x="190.869141"/>
       <use xlink:href="#DejaVuSans-30" x="254.492188"/>
      </g>
     </g>
    </g>
    <g id="text_10">
     <!-- Steps -->
     <g transform="translate(386.840625 583.068125) scale(0.4 -0.4)">
      <defs>
       <path id="DejaVuSans-53" d="M 3425 4513 
L 3425 3897 
Q 3066 4069 2747 4153 
Q 2428 4238 2131 4238 
Q 1616 4238 1336 4038 
Q 1056 3838 1056 3469 
Q 1056 3159 1242 3001 
Q 1428 2844 1947 2747 
L 2328 2669 
Q 3034 2534 3370 2195 
Q 3706 1856 3706 1288 
Q 3706 609 3251 259 
Q 2797 -91 1919 -91 
Q 1588 -91 1214 -16 
Q 841 59 441 206 
L 441 856 
Q 825 641 1194 531 
Q 1563 422 1919 422 
Q 2459 422 2753 634 
Q 3047 847 3047 1241 
Q 3047 1584 2836 1778 
Q 2625 1972 2144 2069 
L 1759 2144 
Q 1053 2284 737 2584 
Q 422 2884 422 3419 
Q 422 4038 858 4394 
Q 1294 4750 2059 4750 
Q 2388 4750 2728 4690 
Q 3069 4631 3425 4513 
z
" transform="scale(0.015625)"/>
       <path id="DejaVuSans-74" d="M 1172 4494 
L 1172 3500 
L 2356 3500 
L 2356 3053 
L 1172 3053 
L 1172 1153 
Q 1172 725 1289 603 
Q 1406 481 1766 481 
L 2356 481 
L 2356 0 
L 1766 0 
Q 1100 0 847 248 
Q 594 497 594 1153 
L 594 3053 
L 172 3053 
L 172 3500 
L 594 3500 
L 594 4494 
L 1172 4494 
z
" transform="scale(0.015625)"/>
       <path id="DejaVuSans-65" d="M 3597 1894 
L 3597 1613 
L 953 1613 
Q 991 1019 1311 708 
Q 1631 397 2203 397 
Q 2534 397 2845 478 
Q 3156 559 3463 722 
L 3463 178 
Q 3153 47 2828 -22 
Q 2503 -91 2169 -91 
Q 1331 -91 842 396 
Q 353 884 353 1716 
Q 353 2575 817 3079 
Q 1281 3584 2069 3584 
Q 2775 3584 3186 3129 
Q 3597 2675 3597 1894 
z
M 3022 2063 
Q 3016 2534 2758 2815 
Q 2500 3097 2075 3097 
Q 1594 3097 1305 2825 
Q 1016 2553 972 2059 
L 3022 2063 
z
" transform="scale(0.015625)"/>
       <path id="DejaVuSans-70" d="M 1159 525 
L 1159 -1331 
L 581 -1331 
L 581 3500 
L 1159 3500 
L 1159 2969 
Q 1341 3281 1617 3432 
Q 1894 3584 2278 3584 
Q 2916 3584 3314 3078 
Q 3713 2572 3713 1747 
Q 3713 922 3314 415 
Q 2916 -91 2278 -91 
Q 1894 -91 1617 61 
Q 1341 213 1159 525 
z
M 3116 1747 
Q 3116 2381 2855 2742 
Q 2594 3103 2138 3103 
Q 1681 3103 1420 2742 
Q 1159 2381 1159 1747 
Q 1159 1113 1420 752 
Q 1681 391 2138 391 
Q 2594 391 2855 752 
Q 3116 1113 3116 1747 
z
" transform="scale(0.015625)"/>
       <path id="DejaVuSans-73" d="M 2834 3397 
L 2834 2853 
Q 2591 2978 2328 3040 
Q 2066 3103 1784 3103 
Q 1356 3103 1142 2972 
Q 928 2841 928 2578 
Q 928 2378 1081 2264 
Q 1234 2150 1697 2047 
L 1894 2003 
Q 2506 1872 2764 1633 
Q 3022 1394 3022 966 
Q 3022 478 2636 193 
Q 2250 -91 1575 -91 
Q 1294 -91 989 -36 
Q 684 19 347 128 
L 347 722 
Q 666 556 975 473 
Q 1284 391 1588 391 
Q 1994 391 2212 530 
Q 2431 669 2431 922 
Q 2431 1156 2273 1281 
Q 2116 1406 1581 1522 
L 1381 1569 
Q 847 1681 609 1914 
Q 372 2147 372 2553 
Q 372 3047 722 3315 
Q 1072 3584 1716 3584 
Q 2034 3584 2315 3537 
Q 2597 3491 2834 3397 
z
" transform="scale(0.015625)"/>
      </defs>
      <use xlink:href="#DejaVuSans-53"/>
      <use xlink:href="#DejaVuSans-74" x="63.476562"/>
      <use xlink:href="#DejaVuSans-65" x="102.685547"/>
      <use xlink:href="#DejaVuSans-70" x="164.208984"/>
      <use xlink:href="#DejaVuSans-73" x="227.685547"/>
     </g>
    </g>
   </g>
   <g id="matplotlib.axis_2">
    <g id="ytick_1">
     <g id="line2d_19">
      <path d="M 108 478.981703 
L 777.6 478.981703 
" clip-path="url(#p5bedb8cc05)" style="fill: none; stroke: #b0b0b0; stroke-width: 0.8; stroke-linecap: square"/>
     </g>
     <g id="line2d_20">
      <defs>
       <path id="mf2bba71b15" d="M 0 0 
L -3.5 0 
" style="stroke: #000000; stroke-width: 0.8"/>
      </defs>
      <g>
       <use xlink:href="#mf2bba71b15" x="108" y="478.981703" style="stroke: #000000; stroke-width: 0.8"/>
      </g>
     </g>
     <g id="text_11">
      <!-- −0.3 -->
      <g transform="translate(28.151562 490.379359) scale(0.3 -0.3)">
       <defs>
        <path id="DejaVuSans-2212" d="M 678 2272 
L 4684 2272 
L 4684 1741 
L 678 1741 
L 678 2272 
z
" transform="scale(0.015625)"/>
        <path id="DejaVuSans-2e" d="M 684 794 
L 1344 794 
L 1344 0 
L 684 0 
L 684 794 
z
" transform="scale(0.015625)"/>
        <path id="DejaVuSans-33" d="M 2597 2516 
Q 3050 2419 3304 2112 
Q 3559 1806 3559 1356 
Q 3559 666 3084 287 
Q 2609 -91 1734 -91 
Q 1441 -91 1130 -33 
Q 819 25 488 141 
L 488 750 
Q 750 597 1062 519 
Q 1375 441 1716 441 
Q 2309 441 2620 675 
Q 2931 909 2931 1356 
Q 2931 1769 2642 2001 
Q 2353 2234 1838 2234 
L 1294 2234 
L 1294 2753 
L 1863 2753 
Q 2328 2753 2575 2939 
Q 2822 3125 2822 3475 
Q 2822 3834 2567 4026 
Q 2313 4219 1838 4219 
Q 1578 4219 1281 4162 
Q 984 4106 628 3988 
L 628 4550 
Q 988 4650 1302 4700 
Q 1616 4750 1894 4750 
Q 2613 4750 3031 4423 
Q 3450 4097 3450 3541 
Q 3450 3153 3228 2886 
Q 3006 2619 2597 2516 
z
" transform="scale(0.015625)"/>
       </defs>
       <use xlink:href="#DejaVuSans-2212"/>
       <use xlink:href="#DejaVuSans-30" x="83.789062"/>
       <use xlink:href="#DejaVuSans-2e" x="147.412109"/>
       <use xlink:href="#DejaVuSans-33" x="179.199219"/>
      </g>
     </g>
    </g>
    <g id="ytick_2">
     <g id="line2d_21">
      <path d="M 108 428.472331 
L 777.6 428.472331 
" clip-path="url(#p5bedb8cc05)" style="fill: none; stroke: #b0b0b0; stroke-width: 0.8; stroke-linecap: square"/>
     </g>
     <g id="line2d_22">
      <g>
       <use xlink:href="#mf2bba71b15" x="108" y="428.472331" style="stroke: #000000; stroke-width: 0.8"/>
      </g>
     </g>
     <g id="text_12">
      <!-- −0.2 -->
      <g transform="translate(28.151562 439.869988) scale(0.3 -0.3)">
       <use xlink:href="#DejaVuSans-2212"/>
       <use xlink:href="#DejaVuSans-30" x="83.789062"/>
       <use xlink:href="#DejaVuSans-2e" x="147.412109"/>
       <use xlink:href="#DejaVuSans-32" x="179.199219"/>
      </g>
     </g>
    </g>
    <g id="ytick_3">
     <g id="line2d_23">
      <path d="M 108 377.96296 
L 777.6 377.96296 
" clip-path="url(#p5bedb8cc05)" style="fill: none; stroke: #b0b0b0; stroke-width: 0.8; stroke-linecap: square"/>
     </g>
     <g id="line2d_24">
      <g>
       <use xlink:href="#mf2bba71b15" x="108" y="377.96296" style="stroke: #000000; stroke-width: 0.8"/>
      </g>
     </g>
     <g id="text_13">
      <!-- −0.1 -->
      <g transform="translate(28.151562 389.360616) scale(0.3 -0.3)">
       <use xlink:href="#DejaVuSans-2212"/>
       <use xlink:href="#DejaVuSans-30" x="83.789062"/>
       <use xlink:href="#DejaVuSans-2e" x="147.412109"/>
       <use xlink:href="#DejaVuSans-31" x="179.199219"/>
      </g>
     </g>
    </g>
    <g id="ytick_4">
     <g id="line2d_25">
      <path d="M 108 327.453588 
L 777.6 327.453588 
" clip-path="url(#p5bedb8cc05)" style="fill: none; stroke: #b0b0b0; stroke-width: 0.8; stroke-linecap: square"/>
     </g>
     <g id="line2d_26">
      <g>
       <use xlink:href="#mf2bba71b15" x="108" y="327.453588" style="stroke: #000000; stroke-width: 0.8"/>
      </g>
     </g>
     <g id="text_14">
      <!-- 0.0 -->
      <g transform="translate(53.290625 338.851245) scale(0.3 -0.3)">
       <use xlink:href="#DejaVuSans-30"/>
       <use xlink:href="#DejaVuSans-2e" x="63.623047"/>
       <use xlink:href="#DejaVuSans-30" x="95.410156"/>
      </g>
     </g>
    </g>
    <g id="ytick_5">
     <g id="line2d_27">
      <path d="M 108 276.944217 
L 777.6 276.944217 
" clip-path="url(#p5bedb8cc05)" style="fill: none; stroke: #b0b0b0; stroke-width: 0.8; stroke-linecap: square"/>
     </g>
     <g id="line2d_28">
      <g>
       <use xlink:href="#mf2bba71b15" x="108" y="276.944217" style="stroke: #000000; stroke-width: 0.8"/>
      </g>
     </g>
     <g id="text_15">
      <!-- 0.1 -->
      <g transform="translate(53.290625 288.341873) scale(0.3 -0.3)">
       <use xlink:href="#DejaVuSans-30"/>
       <use xlink:href="#DejaVuSans-2e" x="63.623047"/>
       <use xlink:href="#DejaVuSans-31" x="95.410156"/>
      </g>
     </g>
    </g>
    <g id="ytick_6">
     <g id="line2d_29">
      <path d="M 108 226.434845 
L 777.6 226.434845 
" clip-path="url(#p5bedb8cc05)" style="fill: none; stroke: #b0b0b0; stroke-width: 0.8; stroke-linecap: square"/>
     </g>
     <g id="line2d_30">
      <g>
       <use xlink:href="#mf2bba71b15" x="108" y="226.434845" style="stroke: #000000; stroke-width: 0.8"/>
      </g>
     </g>
     <g id="text_16">
      <!-- 0.2 -->
      <g transform="translate(53.290625 237.832502) scale(0.3 -0.3)">
       <use xlink:href="#DejaVuSans-30"/>
       <use xlink:href="#DejaVuSans-2e" x="63.623047"/>
       <use xlink:href="#DejaVuSans-32" x="95.410156"/>
      </g>
     </g>
    </g>
    <g id="ytick_7">
     <g id="line2d_31">
      <path d="M 108 175.925474 
L 777.6 175.925474 
" clip-path="url(#p5bedb8cc05)" style="fill: none; stroke: #b0b0b0; stroke-width: 0.8; stroke-linecap: square"/>
     </g>
     <g id="line2d_32">
      <g>
       <use xlink:href="#mf2bba71b15" x="108" y="175.925474" style="stroke: #000000; stroke-width: 0.8"/>
      </g>
     </g>
     <g id="text_17">
      <!-- 0.3 -->
      <g transform="translate(53.290625 187.32313) scale(0.3 -0.3)">
       <use xlink:href="#DejaVuSans-30"/>
       <use xlink:href="#DejaVuSans-2e" x="63.623047"/>
       <use xlink:href="#DejaVuSans-33" x="95.410156"/>
      </g>
     </g>
    </g>
    <g id="ytick_8">
     <g id="line2d_33">
      <path d="M 108 125.416102 
L 777.6 125.416102 
" clip-path="url(#p5bedb8cc05)" style="fill: none; stroke: #b0b0b0; stroke-width: 0.8; stroke-linecap: square"/>
     </g>
     <g id="line2d_34">
      <g>
       <use xlink:href="#mf2bba71b15" x="108" y="125.416102" style="stroke: #000000; stroke-width: 0.8"/>
      </g>
     </g>
     <g id="text_18">
      <!-- 0.4 -->
      <g transform="translate(53.290625 136.813759) scale(0.3 -0.3)">
       <use xlink:href="#DejaVuSans-30"/>
       <use xlink:href="#DejaVuSans-2e" x="63.623047"/>
       <use xlink:href="#DejaVuSans-34" x="95.410156"/>
      </g>
     </g>
    </g>
    <g id="ytick_9">
     <g id="line2d_35">
      <path d="M 108 74.906731 
L 777.6 74.906731 
" clip-path="url(#p5bedb8cc05)" style="fill: none; stroke: #b0b0b0; stroke-width: 0.8; stroke-linecap: square"/>
     </g>
     <g id="line2d_36">
      <g>
       <use xlink:href="#mf2bba71b15" x="108" y="74.906731" style="stroke: #000000; stroke-width: 0.8"/>
      </g>
     </g>
     <g id="text_19">
      <!-- 0.5 -->
      <g transform="translate(53.290625 86.304387) scale(0.3 -0.3)">
       <defs>
        <path id="DejaVuSans-35" d="M 691 4666 
L 3169 4666 
L 3169 4134 
L 1269 4134 
L 1269 2991 
Q 1406 3038 1543 3061 
Q 1681 3084 1819 3084 
Q 2600 3084 3056 2656 
Q 3513 2228 3513 1497 
Q 3513 744 3044 326 
Q 2575 -91 1722 -91 
Q 1428 -91 1123 -41 
Q 819 9 494 109 
L 494 744 
Q 775 591 1075 516 
Q 1375 441 1709 441 
Q 2250 441 2565 725 
Q 2881 1009 2881 1497 
Q 2881 1984 2565 2268 
Q 2250 2553 1709 2553 
Q 1456 2553 1204 2497 
Q 953 2441 691 2322 
L 691 4666 
z
" transform="scale(0.015625)"/>
       </defs>
       <use xlink:href="#DejaVuSans-30"/>
       <use xlink:href="#DejaVuSans-2e" x="63.623047"/>
       <use xlink:href="#DejaVuSans-35" x="95.410156"/>
      </g>
     </g>
    </g>
    <g id="text_20">
     <!-- Pearson expression -->
     <g transform="translate(15.832812 484.56125) rotate(-90) scale(0.4 -0.4)">
      <defs>
       <path id="DejaVuSans-50" d="M 1259 4147 
L 1259 2394 
L 2053 2394 
Q 2494 2394 2734 2622 
Q 2975 2850 2975 3272 
Q 2975 3691 2734 3919 
Q 2494 4147 2053 4147 
L 1259 4147 
z
M 628 4666 
L 2053 4666 
Q 2838 4666 3239 4311 
Q 3641 3956 3641 3272 
Q 3641 2581 3239 2228 
Q 2838 1875 2053 1875 
L 1259 1875 
L 1259 0 
L 628 0 
L 628 4666 
z
" transform="scale(0.015625)"/>
       <path id="DejaVuSans-61" d="M 2194 1759 
Q 1497 1759 1228 1600 
Q 959 1441 959 1056 
Q 959 750 1161 570 
Q 1363 391 1709 391 
Q 2188 391 2477 730 
Q 2766 1069 2766 1631 
L 2766 1759 
L 2194 1759 
z
M 3341 1997 
L 3341 0 
L 2766 0 
L 2766 531 
Q 2569 213 2275 61 
Q 1981 -91 1556 -91 
Q 1019 -91 701 211 
Q 384 513 384 1019 
Q 384 1609 779 1909 
Q 1175 2209 1959 2209 
L 2766 2209 
L 2766 2266 
Q 2766 2663 2505 2880 
Q 2244 3097 1772 3097 
Q 1472 3097 1187 3025 
Q 903 2953 641 2809 
L 641 3341 
Q 956 3463 1253 3523 
Q 1550 3584 1831 3584 
Q 2591 3584 2966 3190 
Q 3341 2797 3341 1997 
z
" transform="scale(0.015625)"/>
       <path id="DejaVuSans-72" d="M 2631 2963 
Q 2534 3019 2420 3045 
Q 2306 3072 2169 3072 
Q 1681 3072 1420 2755 
Q 1159 2438 1159 1844 
L 1159 0 
L 581 0 
L 581 3500 
L 1159 3500 
L 1159 2956 
Q 1341 3275 1631 3429 
Q 1922 3584 2338 3584 
Q 2397 3584 2469 3576 
Q 2541 3569 2628 3553 
L 2631 2963 
z
" transform="scale(0.015625)"/>
       <path id="DejaVuSans-6f" d="M 1959 3097 
Q 1497 3097 1228 2736 
Q 959 2375 959 1747 
Q 959 1119 1226 758 
Q 1494 397 1959 397 
Q 2419 397 2687 759 
Q 2956 1122 2956 1747 
Q 2956 2369 2687 2733 
Q 2419 3097 1959 3097 
z
M 1959 3584 
Q 2709 3584 3137 3096 
Q 3566 2609 3566 1747 
Q 3566 888 3137 398 
Q 2709 -91 1959 -91 
Q 1206 -91 779 398 
Q 353 888 353 1747 
Q 353 2609 779 3096 
Q 1206 3584 1959 3584 
z
" transform="scale(0.015625)"/>
       <path id="DejaVuSans-6e" d="M 3513 2113 
L 3513 0 
L 2938 0 
L 2938 2094 
Q 2938 2591 2744 2837 
Q 2550 3084 2163 3084 
Q 1697 3084 1428 2787 
Q 1159 2491 1159 1978 
L 1159 0 
L 581 0 
L 581 3500 
L 1159 3500 
L 1159 2956 
Q 1366 3272 1645 3428 
Q 1925 3584 2291 3584 
Q 2894 3584 3203 3211 
Q 3513 2838 3513 2113 
z
" transform="scale(0.015625)"/>
       <path id="DejaVuSans-20" transform="scale(0.015625)"/>
       <path id="DejaVuSans-78" d="M 3513 3500 
L 2247 1797 
L 3578 0 
L 2900 0 
L 1881 1375 
L 863 0 
L 184 0 
L 1544 1831 
L 300 3500 
L 978 3500 
L 1906 2253 
L 2834 3500 
L 3513 3500 
z
" transform="scale(0.015625)"/>
       <path id="DejaVuSans-69" d="M 603 3500 
L 1178 3500 
L 1178 0 
L 603 0 
L 603 3500 
z
M 603 4863 
L 1178 4863 
L 1178 4134 
L 603 4134 
L 603 4863 
z
" transform="scale(0.015625)"/>
      </defs>
      <use xlink:href="#DejaVuSans-50"/>
      <use xlink:href="#DejaVuSans-65" x="56.677734"/>
      <use xlink:href="#DejaVuSans-61" x="118.201172"/>
      <use xlink:href="#DejaVuSans-72" x="179.480469"/>
      <use xlink:href="#DejaVuSans-73" x="220.59375"/>
      <use xlink:href="#DejaVuSans-6f" x="272.693359"/>
      <use xlink:href="#DejaVuSans-6e" x="333.875"/>
      <use xlink:href="#DejaVuSans-20" x="397.253906"/>
      <use xlink:href="#DejaVuSans-65" x="429.041016"/>
      <use xlink:href="#DejaVuSans-78" x="488.814453"/>
      <use xlink:href="#DejaVuSans-70" x="547.994141"/>
      <use xlink:href="#DejaVuSans-72" x="611.470703"/>
      <use xlink:href="#DejaVuSans-65" x="650.333984"/>
      <use xlink:href="#DejaVuSans-73" x="711.857422"/>
      <use xlink:href="#DejaVuSans-73" x="763.957031"/>
      <use xlink:href="#DejaVuSans-69" x="816.056641"/>
      <use xlink:href="#DejaVuSans-6f" x="843.839844"/>
      <use xlink:href="#DejaVuSans-6e" x="905.021484"/>
     </g>
    </g>
   </g>
   <g id="line2d_37">
    <path d="M 138.436364 215.918518 
L 139.452603 296.443442 
L 140.468842 217.904698 
L 141.485081 163.868465 
L 142.50132 246.666926 
L 143.51756 303.434818 
L 144.533799 271.485361 
L 145.550038 252.274427 
L 146.566277 281.032413 
L 147.582516 281.749746 
L 149.614995 252.266291 
L 150.631234 244.313545 
L 151.647473 238.114793 
L 152.663712 258.574883 
L 156.728669 325.851099 
L 157.744908 337.764825 
L 158.761147 348.357374 
L 159.777387 356.297673 
L 161.809865 331.803631 
L 162.826104 321.471275 
L 163.842343 312.624627 
L 164.858582 305.509088 
L 165.874822 299.872725 
L 166.891061 296.435469 
L 167.9073 294.924787 
L 168.923539 295.158894 
L 169.939778 289.897503 
L 170.956018 294.468843 
L 171.972257 300.750333 
L 174.004735 272.33532 
L 175.020974 274.256319 
L 176.037214 274.664047 
L 177.053453 261.978563 
L 178.069692 256.66376 
L 179.085931 256.354908 
L 180.10217 257.433381 
L 181.118409 257.177442 
L 182.134649 256.586109 
L 185.183366 214.817636 
L 189.248323 156.89292 
L 190.264562 144.263055 
L 191.280801 146.67492 
L 192.297041 149.621075 
L 193.31328 151.958884 
L 194.329519 153.697903 
L 195.345758 154.528057 
L 196.361997 154.452015 
L 197.378236 152.662974 
L 198.394476 149.176511 
L 200.426954 144.421699 
L 201.443193 142.865514 
L 202.459432 141.568093 
L 203.475672 141.149518 
L 204.491911 141.226869 
L 205.50815 141.686525 
L 208.556868 143.852883 
L 209.573107 145.389913 
L 210.589346 146.192149 
L 212.621824 146.921692 
L 214.654303 148.027731 
L 226.849173 151.064178 
L 229.89789 151.476248 
L 232.946608 151.570933 
L 248.190196 151.705427 
L 747.163636 151.705427 
L 747.163636 151.705427 
" clip-path="url(#p5bedb8cc05)" style="fill: none; stroke: #1f77b4; stroke-width: 4; stroke-linecap: square"/>
   </g>
   <g id="line2d_38">
    <path d="M 138.436364 105.262542 
L 139.452603 192.757561 
L 140.468842 168.815477 
L 141.485081 151.06066 
L 142.50132 200.495091 
L 143.51756 206.174961 
L 144.533799 184.629572 
L 145.550038 225.367383 
L 146.566277 215.272334 
L 147.582516 227.226259 
L 148.598756 243.434458 
L 149.614995 236.396156 
L 156.728669 199.180532 
L 157.744908 194.511592 
L 159.777387 187.073096 
L 162.826104 179.409689 
L 164.858582 174.375309 
L 166.891061 169.412419 
L 167.9073 166.879604 
L 168.923539 166.504661 
L 169.939778 160.164565 
L 170.956018 159.268788 
L 171.972257 159.047419 
L 172.988496 148.867976 
L 174.004735 144.067436 
L 175.020974 145.251128 
L 176.037214 131.185246 
L 177.053453 129.741368 
L 178.069692 121.554582 
L 179.085931 111.011409 
L 182.134649 104.004707 
L 183.150888 101.891971 
L 184.167127 100.473403 
L 185.183366 99.486848 
L 187.215845 97.99817 
L 188.232084 97.470619 
L 190.264562 95.964368 
L 191.280801 94.615082 
L 192.297041 93.488151 
L 194.329519 91.923495 
L 196.361997 90.587328 
L 197.378236 90.339591 
L 201.443193 89.895166 
L 207.540628 89.608228 
L 218.719259 89.504948 
L 229.89789 89.320017 
L 242.092761 89.304923 
L 258.352588 89.312043 
L 747.163636 89.312043 
L 747.163636 89.312043 
" clip-path="url(#p5bedb8cc05)" style="fill: none; stroke: #ff7f0e; stroke-width: 4; stroke-linecap: square"/>
   </g>
   <g id="line2d_39">
    <path d="M 138.436364 128.294211 
L 139.452603 303.427369 
L 140.468842 356.562467 
L 141.485081 403.231494 
L 142.50132 349.899716 
L 143.51756 372.458589 
L 144.533799 336.535707 
L 145.550038 321.933257 
L 148.598756 287.345829 
L 151.647473 257.165516 
L 152.663712 247.916622 
L 154.696191 233.446986 
L 155.71243 226.383179 
L 156.728669 220.888118 
L 158.761147 213.016621 
L 159.777387 209.613665 
L 160.793626 207.33546 
L 161.809865 204.701897 
L 162.826104 203.835605 
L 163.842343 203.604995 
L 164.858582 202.12711 
L 167.9073 191.276159 
L 168.923539 189.768771 
L 171.972257 149.493018 
L 172.988496 147.897183 
L 174.004735 134.406778 
L 175.020974 132.872091 
L 177.053453 122.981043 
L 178.069692 118.914328 
L 179.085931 115.357992 
L 180.10217 112.225053 
L 181.118409 109.507737 
L 182.134649 107.427782 
L 185.183366 102.175265 
L 186.199605 100.899901 
L 187.215845 99.279588 
L 188.232084 113.764891 
L 189.248323 125.230444 
L 192.297041 169.457094 
L 195.345758 208.452252 
L 201.443193 302.42326 
L 202.459432 315.448472 
L 203.475672 315.152624 
L 209.573107 415.968215 
L 210.589346 430.463538 
L 211.605585 432.947682 
L 212.621824 440.823119 
L 213.638063 456.106244 
L 214.654303 457.896734 
L 215.670542 473.728235 
L 216.686781 485.614885 
L 217.70302 492.48 
L 218.719259 479.872386 
L 219.735499 469.316569 
L 221.767977 438.652368 
L 222.784216 422.854876 
L 223.800455 409.690761 
L 226.849173 361.030689 
L 229.89789 311.478218 
L 230.91413 313.944252 
L 231.930369 314.783072 
L 232.946608 317.928037 
L 233.962847 334.437485 
L 234.979086 333.345345 
L 237.011565 332.471332 
L 238.027804 331.387534 
L 239.044043 330.137602 
L 240.060282 330.637663 
L 241.076521 327.118861 
L 242.092761 325.934776 
L 243.109 318.827783 
L 244.125239 304.304136 
L 245.141478 302.876955 
L 246.157717 287.4743 
L 247.173957 275.94265 
L 248.190196 285.932558 
L 251.238913 325.994647 
L 253.271392 355.823943 
L 254.287631 352.396186 
L 255.30387 351.940264 
L 258.352588 400.402589 
L 259.368827 403.32258 
L 260.385066 404.699301 
L 261.401305 387.970468 
L 262.417544 387.028482 
L 263.433784 385.863192 
L 264.450023 385.45317 
L 266.482501 353.987924 
L 268.51498 322.357658 
L 269.531219 313.196297 
L 270.547458 302.374903 
L 271.563697 306.442222 
L 272.579936 321.154782 
L 273.596175 334.181024 
L 274.612415 341.774774 
L 275.628654 347.213592 
L 277.661132 360.075641 
L 278.677371 348.529917 
L 279.693611 340.581563 
L 280.70985 327.322095 
L 281.726089 318.323938 
L 283.758567 302.849789 
L 285.791046 319.533416 
L 288.839763 297.136047 
L 289.856002 302.15104 
L 291.888481 315.280234 
L 292.90472 305.99514 
L 294.937198 293.525948 
L 296.969677 312.550287 
L 299.002155 333.471999 
L 300.018394 340.489402 
L 301.034633 336.987527 
L 302.050873 326.943837 
L 303.067112 310.694232 
L 304.083351 304.564664 
L 305.09959 304.119426 
L 306.115829 305.309009 
L 308.148308 325.51335 
L 309.164547 326.192451 
L 310.180786 327.070209 
L 311.197025 340.512787 
L 314.245743 315.219877 
L 315.261982 313.263588 
L 316.278221 316.020828 
L 317.29446 307.956514 
L 319.326939 294.606506 
L 323.391896 272.579433 
L 325.424374 256.609989 
L 327.456852 240.071739 
L 329.489331 221.050183 
L 330.50557 223.149023 
L 331.521809 236.587474 
L 332.538048 247.215805 
L 333.554287 263.624407 
L 335.586766 280.298485 
L 336.603005 274.271555 
L 337.619244 273.469617 
L 338.635483 272.477709 
L 339.651723 282.340068 
L 340.667962 273.524411 
L 341.684201 272.359182 
L 342.70044 288.713822 
L 343.716679 289.507067 
L 344.732919 291.743127 
L 345.749158 285.702014 
L 346.765397 275.136089 
L 347.781636 274.977526 
L 348.797875 272.94429 
L 349.814114 271.200216 
L 350.830354 269.16367 
L 358.960267 255.573746 
L 359.976506 254.204397 
L 363.025224 207.475912 
L 364.041463 207.176258 
L 366.073941 175.566959 
L 367.090181 174.780769 
L 368.10642 160.61637 
L 370.138898 128.826784 
L 371.155137 127.802119 
L 372.171377 112.259851 
L 373.187616 98.509444 
L 374.203855 97.256139 
L 376.236333 121.980091 
L 377.252572 128.612126 
L 378.268812 130.683494 
L 379.285051 133.130207 
L 380.30129 132.894395 
L 381.317529 139.783689 
L 382.333768 149.886088 
L 383.350008 161.668284 
L 384.366247 168.341855 
L 385.382486 172.283583 
L 386.398725 179.3188 
L 387.414964 187.522935 
L 388.431204 197.582248 
L 390.463682 205.414922 
L 393.512399 215.066904 
L 394.528639 202.509487 
L 396.561117 208.415748 
L 397.577356 212.071076 
L 398.593595 213.375298 
L 400.626074 222.851555 
L 401.642313 228.25375 
L 403.674791 245.656584 
L 404.691031 252.444594 
L 406.723509 230.479737 
L 407.739748 225.550584 
L 408.755987 225.154954 
L 409.772226 225.087846 
L 410.788466 227.27467 
L 411.804705 222.738584 
L 412.820944 217.523361 
L 413.837183 208.717997 
L 414.853422 204.385394 
L 415.869662 207.196577 
L 416.885901 205.072632 
L 417.90214 204.646662 
L 418.918379 197.893305 
L 419.934618 206.481785 
L 420.950857 205.297113 
L 421.967097 205.634443 
L 422.983336 205.446239 
L 423.999575 205.764305 
L 425.015814 212.342287 
L 427.048293 233.137267 
L 428.064532 242.473248 
L 430.09701 263.520903 
L 431.113249 271.110412 
L 432.129489 269.843386 
L 433.145728 268.831675 
L 434.161967 270.282458 
L 435.178206 272.988965 
L 436.194445 274.582683 
L 438.226924 277.183495 
L 440.259402 283.048989 
L 441.275641 287.663459 
L 442.29188 291.204384 
L 444.324359 294.890388 
L 445.340598 298.032057 
L 446.356837 295.310936 
L 447.373076 298.593421 
L 448.389316 295.484108 
L 449.405555 296.579839 
L 450.421794 288.583217 
L 451.438033 290.32408 
L 453.470511 291.359964 
L 454.486751 292.302704 
L 455.50299 287.46322 
L 456.519229 278.035552 
L 457.535468 270.780248 
L 459.567947 263.619048 
L 460.584186 259.639595 
L 461.600425 257.579698 
L 462.616664 266.894691 
L 463.632903 268.650191 
L 464.649143 265.498281 
L 465.665382 265.116339 
L 466.681621 269.9037 
L 468.714099 284.362033 
L 470.746578 292.973542 
L 471.762817 294.114317 
L 473.795295 300.529388 
L 475.827774 315.183424 
L 476.844013 321.281021 
L 478.876491 319.733888 
L 479.89273 317.929842 
L 480.908969 327.984843 
L 481.925209 336.300948 
L 482.941448 341.220896 
L 483.957687 351.616549 
L 484.973926 357.252539 
L 485.990165 360.034957 
L 487.006405 359.311916 
L 488.022644 356.493282 
L 489.038883 350.314457 
L 490.055122 354.821697 
L 491.071361 356.597357 
L 492.087601 357.819536 
L 493.10384 353.938172 
L 494.120079 357.941164 
L 495.136318 363.089502 
L 496.152557 366.379648 
L 497.168796 367.357168 
L 499.201275 372.942084 
L 500.217514 376.670489 
L 501.233753 381.268037 
L 502.249992 386.782454 
L 503.266232 388.695283 
L 504.282471 389.932173 
L 506.314949 383.698594 
L 507.331188 381.091071 
L 508.347428 379.912124 
L 509.363667 382.266819 
L 510.379906 387.361402 
L 511.396145 379.637274 
L 512.412384 375.397569 
L 513.428623 369.31198 
L 514.444863 360.114046 
L 515.461102 356.634306 
L 516.477341 360.022387 
L 518.509819 371.739796 
L 519.526059 379.454144 
L 520.542298 376.964861 
L 521.558537 375.565731 
L 522.574776 374.672088 
L 523.591015 375.543155 
L 524.607255 372.267214 
L 525.623494 369.428699 
L 526.639733 370.009289 
L 527.655972 367.896448 
L 528.672211 361.317686 
L 529.68845 357.194871 
L 530.70469 357.607992 
L 531.720929 351.340409 
L 532.737168 343.358279 
L 533.753407 343.881153 
L 534.769646 343.735421 
L 536.802125 347.801581 
L 538.834603 354.271979 
L 539.850842 357.997507 
L 540.867081 356.820641 
L 541.883321 356.516425 
L 542.89956 355.453191 
L 543.915799 362.686117 
L 544.932038 367.201949 
L 545.948277 368.096983 
L 546.964517 368.555761 
L 547.980756 364.937088 
L 548.996995 358.366807 
L 550.013234 357.106341 
L 551.029473 357.372241 
L 552.045713 356.950765 
L 554.078191 365.491701 
L 555.09443 370.545811 
L 556.110669 372.913159 
L 557.126908 374.379966 
L 559.159387 390.128514 
L 560.175626 383.760359 
L 561.191865 370.514543 
L 562.208104 362.813036 
L 563.224344 359.069405 
L 564.240583 350.190761 
L 565.256822 346.104124 
L 566.273061 343.850017 
L 567.2893 340.403963 
L 568.30554 338.091476 
L 569.321779 338.480618 
L 570.338018 335.901354 
L 571.354257 336.879602 
L 572.370496 338.437875 
L 573.386735 339.494009 
L 574.402975 337.897184 
L 575.419214 339.197155 
L 576.435453 340.224294 
L 577.451692 336.941078 
L 578.467931 340.477405 
L 579.484171 345.960869 
L 580.50041 340.852025 
L 581.516649 334.564764 
L 582.532888 332.341151 
L 583.549127 328.672233 
L 584.565367 327.319796 
L 585.581606 329.395104 
L 586.597845 326.822893 
L 587.614084 326.391525 
L 588.630323 326.494746 
L 589.646562 314.15891 
L 590.662802 312.709703 
L 591.679041 316.203404 
L 592.69528 318.694326 
L 594.727758 333.395558 
L 595.743998 337.445603 
L 597.776476 351.903457 
L 598.792715 356.013201 
L 599.808954 358.823492 
L 600.825194 351.864902 
L 602.857672 335.154556 
L 606.922629 298.617796 
L 608.955107 282.34319 
L 609.971346 275.594077 
L 610.987585 272.233876 
L 612.003825 265.423979 
L 613.020064 256.747429 
L 614.036303 245.136647 
L 615.052542 231.607136 
L 616.068781 214.456092 
L 617.08502 204.880892 
L 619.117499 179.064207 
L 620.133738 180.190298 
L 621.149977 182.675691 
L 622.166216 187.172354 
L 623.182456 195.777284 
L 624.198695 201.449219 
L 625.214934 200.554302 
L 626.231173 198.147997 
L 627.247412 187.834624 
L 628.263652 180.265303 
L 629.279891 173.804332 
L 630.29613 166.171097 
L 631.312369 172.570631 
L 632.328608 180.141469 
L 633.344847 183.981959 
L 634.361087 190.017309 
L 635.377326 193.640482 
L 636.393565 199.97412 
L 637.409804 204.767882 
L 638.426043 210.495143 
L 640.458522 229.100433 
L 641.474761 235.268649 
L 642.491 249.034367 
L 645.539718 281.250976 
L 646.555957 292.862672 
L 648.588435 319.028702 
L 649.604674 324.09818 
L 651.637153 335.412455 
L 652.653392 336.527465 
L 653.669631 332.956924 
L 654.68587 327.137546 
L 655.70211 324.501717 
L 656.718349 322.982573 
L 657.734588 326.919364 
L 658.750827 326.487633 
L 659.767066 328.189615 
L 660.783306 328.769039 
L 661.799545 327.707074 
L 662.815784 328.750435 
L 663.832023 333.522202 
L 664.848262 339.762747 
L 665.864501 352.652742 
L 666.880741 360.42012 
L 667.89698 366.498671 
L 668.913219 370.52861 
L 669.929458 372.638339 
L 670.945697 373.662731 
L 671.961937 373.320456 
L 672.978176 364.304669 
L 673.994415 360.799766 
L 675.010654 361.074021 
L 677.043132 353.749397 
L 678.059372 347.991147 
L 679.075611 340.597892 
L 680.09185 338.926841 
L 681.108089 337.839928 
L 682.124328 334.807584 
L 683.140568 334.856828 
L 684.156807 333.959073 
L 685.173046 336.105428 
L 687.205524 339.692799 
L 688.221764 338.808772 
L 689.238003 340.363071 
L 690.254242 338.074133 
L 691.270481 341.28815 
L 692.28672 343.845432 
L 693.302959 344.953802 
L 694.319199 344.39281 
L 695.335438 340.298124 
L 697.367916 329.196534 
L 698.384155 330.154738 
L 699.400395 328.641522 
L 700.416634 326.441867 
L 701.432873 327.040718 
L 702.449112 328.286329 
L 703.465351 331.739451 
L 704.481591 337.593175 
L 705.49783 337.534712 
L 706.514069 339.592996 
L 707.530308 339.717356 
L 708.546547 338.88576 
L 709.562786 339.377337 
L 710.579026 341.940077 
L 711.595265 340.218427 
L 712.611504 341.747802 
L 713.627743 341.605239 
L 714.643982 342.208666 
L 715.660222 340.329354 
L 716.676461 344.204897 
L 717.6927 344.154062 
L 718.708939 344.42697 
L 719.725178 344.208291 
L 720.741418 346.50148 
L 721.757657 346.588182 
L 722.773896 348.408154 
L 723.790135 349.813653 
L 724.806374 349.400364 
L 725.822613 350.847667 
L 726.838853 348.044392 
L 727.855092 346.518674 
L 728.871331 342.270804 
L 729.88757 340.723262 
L 730.903809 341.814492 
L 731.920049 339.599459 
L 732.936288 344.533127 
L 733.952527 348.737643 
L 734.968766 344.161971 
L 737.001244 346.206391 
L 738.017484 346.946146 
L 739.033723 348.117372 
L 740.049962 351.874493 
L 741.066201 351.77333 
L 742.08244 353.176567 
L 743.09868 351.130542 
L 744.114919 349.63985 
L 745.131158 350.849819 
L 746.147397 349.480881 
L 747.163636 348.568679 
L 747.163636 348.568679 
" clip-path="url(#p5bedb8cc05)" style="fill: none; stroke: #2ca02c; stroke-width: 4; stroke-linecap: square"/>
   </g>
   <g id="line2d_40"/>
   <g id="line2d_41"/>
   <g id="line2d_42"/>
   <g id="patch_3">
    <path d="M 108 512.64 
L 108 69.12 
" style="fill: none; stroke: #000000; stroke-width: 0.8; stroke-linejoin: miter; stroke-linecap: square"/>
   </g>
   <g id="patch_4">
    <path d="M 777.6 512.64 
L 777.6 69.12 
" style="fill: none; stroke: #000000; stroke-width: 0.8; stroke-linejoin: miter; stroke-linecap: square"/>
   </g>
   <g id="patch_5">
    <path d="M 108 512.64 
L 777.6 512.64 
" style="fill: none; stroke: #000000; stroke-width: 0.8; stroke-linejoin: miter; stroke-linecap: square"/>
   </g>
   <g id="patch_6">
    <path d="M 108 69.12 
L 777.6 69.12 
" style="fill: none; stroke: #000000; stroke-width: 0.8; stroke-linejoin: miter; stroke-linecap: square"/>
   </g>
   <g id="text_21">
    <!-- client4 -->
    <g transform="translate(341.315625 56.641875) scale(0.6 -0.6)">
     <defs>
      <path id="DejaVuSans-63" d="M 3122 3366 
L 3122 2828 
Q 2878 2963 2633 3030 
Q 2388 3097 2138 3097 
Q 1578 3097 1268 2742 
Q 959 2388 959 1747 
Q 959 1106 1268 751 
Q 1578 397 2138 397 
Q 2388 397 2633 464 
Q 2878 531 3122 666 
L 3122 134 
Q 2881 22 2623 -34 
Q 2366 -91 2075 -91 
Q 1284 -91 818 406 
Q 353 903 353 1747 
Q 353 2603 823 3093 
Q 1294 3584 2113 3584 
Q 2378 3584 2631 3529 
Q 2884 3475 3122 3366 
z
" transform="scale(0.015625)"/>
      <path id="DejaVuSans-6c" d="M 603 4863 
L 1178 4863 
L 1178 0 
L 603 0 
L 603 4863 
z
" transform="scale(0.015625)"/>
     </defs>
     <use xlink:href="#DejaVuSans-63"/>
     <use xlink:href="#DejaVuSans-6c" x="54.980469"/>
     <use xlink:href="#DejaVuSans-69" x="82.763672"/>
     <use xlink:href="#DejaVuSans-65" x="110.546875"/>
     <use xlink:href="#DejaVuSans-6e" x="172.070312"/>
     <use xlink:href="#DejaVuSans-74" x="235.449219"/>
     <use xlink:href="#DejaVuSans-34" x="274.658203"/>
    </g>
   </g>
   <g id="legend_1">
    <g id="patch_7">
     <path d="M 136 492.64 
L 792.2375 492.64 
Q 800.2375 492.64 800.2375 484.64 
L 800.2375 311.39 
Q 800.2375 303.39 792.2375 303.39 
L 136 303.39 
Q 128 303.39 128 311.39 
L 128 484.64 
Q 128 492.64 136 492.64 
z
" style="fill: #ffffff; opacity: 0.8; stroke: #cccccc; stroke-linejoin: miter"/>
    </g>
    <g id="line2d_43">
     <path d="M 144 335.78375 
L 184 335.78375 
L 224 335.78375 
" style="fill: none; stroke: #1f77b4; stroke-width: 4; stroke-linecap: square"/>
    </g>
    <g id="text_22">
     <!-- fedavg_private_regressors -->
     <g transform="translate(256 349.78375) scale(0.4 -0.4)">
      <defs>
       <path id="DejaVuSans-66" d="M 2375 4863 
L 2375 4384 
L 1825 4384 
Q 1516 4384 1395 4259 
Q 1275 4134 1275 3809 
L 1275 3500 
L 2222 3500 
L 2222 3053 
L 1275 3053 
L 1275 0 
L 697 0 
L 697 3053 
L 147 3053 
L 147 3500 
L 697 3500 
L 697 3744 
Q 697 4328 969 4595 
Q 1241 4863 1831 4863 
L 2375 4863 
z
" transform="scale(0.015625)"/>
       <path id="DejaVuSans-64" d="M 2906 2969 
L 2906 4863 
L 3481 4863 
L 3481 0 
L 2906 0 
L 2906 525 
Q 2725 213 2448 61 
Q 2172 -91 1784 -91 
Q 1150 -91 751 415 
Q 353 922 353 1747 
Q 353 2572 751 3078 
Q 1150 3584 1784 3584 
Q 2172 3584 2448 3432 
Q 2725 3281 2906 2969 
z
M 947 1747 
Q 947 1113 1208 752 
Q 1469 391 1925 391 
Q 2381 391 2643 752 
Q 2906 1113 2906 1747 
Q 2906 2381 2643 2742 
Q 2381 3103 1925 3103 
Q 1469 3103 1208 2742 
Q 947 2381 947 1747 
z
" transform="scale(0.015625)"/>
       <path id="DejaVuSans-76" d="M 191 3500 
L 800 3500 
L 1894 563 
L 2988 3500 
L 3597 3500 
L 2284 0 
L 1503 0 
L 191 3500 
z
" transform="scale(0.015625)"/>
       <path id="DejaVuSans-67" d="M 2906 1791 
Q 2906 2416 2648 2759 
Q 2391 3103 1925 3103 
Q 1463 3103 1205 2759 
Q 947 2416 947 1791 
Q 947 1169 1205 825 
Q 1463 481 1925 481 
Q 2391 481 2648 825 
Q 2906 1169 2906 1791 
z
M 3481 434 
Q 3481 -459 3084 -895 
Q 2688 -1331 1869 -1331 
Q 1566 -1331 1297 -1286 
Q 1028 -1241 775 -1147 
L 775 -588 
Q 1028 -725 1275 -790 
Q 1522 -856 1778 -856 
Q 2344 -856 2625 -561 
Q 2906 -266 2906 331 
L 2906 616 
Q 2728 306 2450 153 
Q 2172 0 1784 0 
Q 1141 0 747 490 
Q 353 981 353 1791 
Q 353 2603 747 3093 
Q 1141 3584 1784 3584 
Q 2172 3584 2450 3431 
Q 2728 3278 2906 2969 
L 2906 3500 
L 3481 3500 
L 3481 434 
z
" transform="scale(0.015625)"/>
       <path id="DejaVuSans-5f" d="M 3263 -1063 
L 3263 -1509 
L -63 -1509 
L -63 -1063 
L 3263 -1063 
z
" transform="scale(0.015625)"/>
      </defs>
      <use xlink:href="#DejaVuSans-66"/>
      <use xlink:href="#DejaVuSans-65" x="35.205078"/>
      <use xlink:href="#DejaVuSans-64" x="96.728516"/>
      <use xlink:href="#DejaVuSans-61" x="160.205078"/>
      <use xlink:href="#DejaVuSans-76" x="221.484375"/>
      <use xlink:href="#DejaVuSans-67" x="280.664062"/>
      <use xlink:href="#DejaVuSans-5f" x="344.140625"/>
      <use xlink:href="#DejaVuSans-70" x="394.140625"/>
      <use xlink:href="#DejaVuSans-72" x="457.617188"/>
      <use xlink:href="#DejaVuSans-69" x="498.730469"/>
      <use xlink:href="#DejaVuSans-76" x="526.513672"/>
      <use xlink:href="#DejaVuSans-61" x="585.693359"/>
      <use xlink:href="#DejaVuSans-74" x="646.972656"/>
      <use xlink:href="#DejaVuSans-65" x="686.181641"/>
      <use xlink:href="#DejaVuSans-5f" x="747.705078"/>
      <use xlink:href="#DejaVuSans-72" x="797.705078"/>
      <use xlink:href="#DejaVuSans-65" x="836.568359"/>
      <use xlink:href="#DejaVuSans-67" x="898.091797"/>
      <use xlink:href="#DejaVuSans-72" x="961.568359"/>
      <use xlink:href="#DejaVuSans-65" x="1000.431641"/>
      <use xlink:href="#DejaVuSans-73" x="1061.955078"/>
      <use xlink:href="#DejaVuSans-73" x="1114.054688"/>
      <use xlink:href="#DejaVuSans-6f" x="1166.154297"/>
      <use xlink:href="#DejaVuSans-72" x="1227.335938"/>
      <use xlink:href="#DejaVuSans-73" x="1268.449219"/>
     </g>
    </g>
    <g id="line2d_44">
     <path d="M 144 395.60875 
L 184 395.60875 
L 224 395.60875 
" style="fill: none; stroke: #ff7f0e; stroke-width: 4; stroke-linecap: square"/>
    </g>
    <g id="text_23">
     <!-- fedavg -->
     <g transform="translate(256 409.60875) scale(0.4 -0.4)">
      <use xlink:href="#DejaVuSans-66"/>
      <use xlink:href="#DejaVuSans-65" x="35.205078"/>
      <use xlink:href="#DejaVuSans-64" x="96.728516"/>
      <use xlink:href="#DejaVuSans-61" x="160.205078"/>
      <use xlink:href="#DejaVuSans-76" x="221.484375"/>
      <use xlink:href="#DejaVuSans-67" x="280.664062"/>
     </g>
    </g>
    <g id="line2d_45">
     <path d="M 144 454.32125 
L 184 454.32125 
L 224 454.32125 
" style="fill: none; stroke: #2ca02c; stroke-width: 4; stroke-linecap: square"/>
    </g>
    <g id="text_24">
     <!-- local -->
     <g transform="translate(256 468.32125) scale(0.4 -0.4)">
      <use xlink:href="#DejaVuSans-6c"/>
      <use xlink:href="#DejaVuSans-6f" x="27.783203"/>
      <use xlink:href="#DejaVuSans-63" x="88.964844"/>
      <use xlink:href="#DejaVuSans-61" x="143.945312"/>
      <use xlink:href="#DejaVuSans-6c" x="205.224609"/>
     </g>
    </g>
   </g>
  </g>
 </g>
 <defs>
  <clipPath id="p5bedb8cc05">
   <rect x="108" y="69.12" width="669.6" height="443.52"/>
  </clipPath>
 </defs>
</svg>
