<?xml version="1.0" encoding="utf-8" standalone="no"?>
<!DOCTYPE svg PUBLIC "-//W3C//DTD SVG 1.1//EN"
  "http://www.w3.org/Graphics/SVG/1.1/DTD/svg11.dtd">
<svg xmlns:xlink="http://www.w3.org/1999/xlink" width="864pt" height="576pt" viewBox="0 0 864 576" xmlns="http://www.w3.org/2000/svg" version="1.1">
 <metadata>
  <rdf:RDF xmlns:dc="http://purl.org/dc/elements/1.1/" xmlns:cc="http://creativecommons.org/ns#" xmlns:rdf="http://www.w3.org/1999/02/22-rdf-syntax-ns#">
   <cc:Work>
    <dc:type rdf:resource="http://purl.org/dc/dcmitype/StillImage"/>
    <dc:date>2025-04-25T14:18:11.356799</dc:date>
    <dc:format>image/svg+xml</dc:format>
    <dc:creator>
     <cc:Agent>
      <dc:title>Matplotlib v3.8.2, https://matplotlib.org/</dc:title>
     </cc:Agent>
    </dc:creator>
   </cc:Work>
  </rdf:RDF>
 </metadata>
 <defs>
  <style type="text/css">*{stroke-linejoin: round; stroke-linecap: butt}</style>
 </defs>
 <g id="figure_1">
  <g id="patch_1">
   <path d="M 0 576 
L 864 576 
L 864 0 
L 0 0 
z
" style="fill: #ffffff"/>
  </g>
  <g id="axes_1">
   <g id="patch_2">
    <path d="M 108 512.64 
L 777.6 512.64 
L 777.6 69.12 
L 108 69.12 
z
" style="fill: #ffffff"/>
   </g>
   <g id="PolyCollection_1"/>
   <g id="PolyCollection_2"/>
   <g id="PolyCollection_3"/>
   <g id="matplotlib.axis_1">
    <g id="xtick_1">
     <g id="line2d_1">
      <path d="M 137.420124 512.64 
L 137.420124 69.12 
" clip-path="url(#p898b88b3cb)" style="fill: none; stroke: #b0b0b0; stroke-width: 0.8; stroke-linecap: square"/>
     </g>
     <g id="line2d_2">
      <defs>
       <path id="m1925aec681" d="M 0 0 
L 0 3.5 
" style="stroke: #000000; stroke-width: 0.8"/>
      </defs>
      <g>
       <use xlink:href="#m1925aec681" x="137.420124" y="512.64" style="stroke: #000000; stroke-width: 0.8"/>
      </g>
     </g>
     <g id="text_1">
      <!-- 0 -->
      <g transform="translate(127.876374 542.435313) scale(0.3 -0.3)">
       <defs>
        <path id="DejaVuSans-30" d="M 2034 4250 
Q 1547 4250 1301 3770 
Q 1056 3291 1056 2328 
Q 1056 1369 1301 889 
Q 1547 409 2034 409 
Q 2525 409 2770 889 
Q 3016 1369 3016 2328 
Q 3016 3291 2770 3770 
Q 2525 4250 2034 4250 
z
M 2034 4750 
Q 2819 4750 3233 4129 
Q 3647 3509 3647 2328 
Q 3647 1150 3233 529 
Q 2819 -91 2034 -91 
Q 1250 -91 836 529 
Q 422 1150 422 2328 
Q 422 3509 836 4129 
Q 1250 4750 2034 4750 
z
" transform="scale(0.015625)"/>
       </defs>
       <use xlink:href="#DejaVuSans-30"/>
      </g>
     </g>
    </g>
    <g id="xtick_2">
     <g id="line2d_3">
      <path d="M 264.450023 512.64 
L 264.450023 69.12 
" clip-path="url(#p898b88b3cb)" style="fill: none; stroke: #b0b0b0; stroke-width: 0.8; stroke-linecap: square"/>
     </g>
     <g id="line2d_4">
      <g>
       <use xlink:href="#m1925aec681" x="264.450023" y="512.64" style="stroke: #000000; stroke-width: 0.8"/>
      </g>
     </g>
     <g id="text_2">
      <!-- 2000 -->
      <g transform="translate(226.275023 542.435313) scale(0.3 -0.3)">
       <defs>
        <path id="DejaVuSans-32" d="M 1228 531 
L 3431 531 
L 3431 0 
L 469 0 
L 469 531 
Q 828 903 1448 1529 
Q 2069 2156 2228 2338 
Q 2531 2678 2651 2914 
Q 2772 3150 2772 3378 
Q 2772 3750 2511 3984 
Q 2250 4219 1831 4219 
Q 1534 4219 1204 4116 
Q 875 4013 500 3803 
L 500 4441 
Q 881 4594 1212 4672 
Q 1544 4750 1819 4750 
Q 2544 4750 2975 4387 
Q 3406 4025 3406 3419 
Q 3406 3131 3298 2873 
Q 3191 2616 2906 2266 
Q 2828 2175 2409 1742 
Q 1991 1309 1228 531 
z
" transform="scale(0.015625)"/>
       </defs>
       <use xlink:href="#DejaVuSans-32"/>
       <use xlink:href="#DejaVuSans-30" x="63.623047"/>
       <use xlink:href="#DejaVuSans-30" x="127.246094"/>
       <use xlink:href="#DejaVuSans-30" x="190.869141"/>
      </g>
     </g>
    </g>
    <g id="xtick_3">
     <g id="line2d_5">
      <path d="M 391.479921 512.64 
L 391.479921 69.12 
" clip-path="url(#p898b88b3cb)" style="fill: none; stroke: #b0b0b0; stroke-width: 0.8; stroke-linecap: square"/>
     </g>
     <g id="line2d_6">
      <g>
       <use xlink:href="#m1925aec681" x="391.479921" y="512.64" style="stroke: #000000; stroke-width: 0.8"/>
      </g>
     </g>
     <g id="text_3">
      <!-- 4000 -->
      <g transform="translate(353.304921 542.435313) scale(0.3 -0.3)">
       <defs>
        <path id="DejaVuSans-34" d="M 2419 4116 
L 825 1625 
L 2419 1625 
L 2419 4116 
z
M 2253 4666 
L 3047 4666 
L 3047 1625 
L 3713 1625 
L 3713 1100 
L 3047 1100 
L 3047 0 
L 2419 0 
L 2419 1100 
L 313 1100 
L 313 1709 
L 2253 4666 
z
" transform="scale(0.015625)"/>
       </defs>
       <use xlink:href="#DejaVuSans-34"/>
       <use xlink:href="#DejaVuSans-30" x="63.623047"/>
       <use xlink:href="#DejaVuSans-30" x="127.246094"/>
       <use xlink:href="#DejaVuSans-30" x="190.869141"/>
      </g>
     </g>
    </g>
    <g id="xtick_4">
     <g id="line2d_7">
      <path d="M 518.509819 512.64 
L 518.509819 69.12 
" clip-path="url(#p898b88b3cb)" style="fill: none; stroke: #b0b0b0; stroke-width: 0.8; stroke-linecap: square"/>
     </g>
     <g id="line2d_8">
      <g>
       <use xlink:href="#m1925aec681" x="518.509819" y="512.64" style="stroke: #000000; stroke-width: 0.8"/>
      </g>
     </g>
     <g id="text_4">
      <!-- 6000 -->
      <g transform="translate(480.334819 542.435313) scale(0.3 -0.3)">
       <defs>
        <path id="DejaVuSans-36" d="M 2113 2584 
Q 1688 2584 1439 2293 
Q 1191 2003 1191 1497 
Q 1191 994 1439 701 
Q 1688 409 2113 409 
Q 2538 409 2786 701 
Q 3034 994 3034 1497 
Q 3034 2003 2786 2293 
Q 2538 2584 2113 2584 
z
M 3366 4563 
L 3366 3988 
Q 3128 4100 2886 4159 
Q 2644 4219 2406 4219 
Q 1781 4219 1451 3797 
Q 1122 3375 1075 2522 
Q 1259 2794 1537 2939 
Q 1816 3084 2150 3084 
Q 2853 3084 3261 2657 
Q 3669 2231 3669 1497 
Q 3669 778 3244 343 
Q 2819 -91 2113 -91 
Q 1303 -91 875 529 
Q 447 1150 447 2328 
Q 447 3434 972 4092 
Q 1497 4750 2381 4750 
Q 2619 4750 2861 4703 
Q 3103 4656 3366 4563 
z
" transform="scale(0.015625)"/>
       </defs>
       <use xlink:href="#DejaVuSans-36"/>
       <use xlink:href="#DejaVuSans-30" x="63.623047"/>
       <use xlink:href="#DejaVuSans-30" x="127.246094"/>
       <use xlink:href="#DejaVuSans-30" x="190.869141"/>
      </g>
     </g>
    </g>
    <g id="xtick_5">
     <g id="line2d_9">
      <path d="M 645.539718 512.64 
L 645.539718 69.12 
" clip-path="url(#p898b88b3cb)" style="fill: none; stroke: #b0b0b0; stroke-width: 0.8; stroke-linecap: square"/>
     </g>
     <g id="line2d_10">
      <g>
       <use xlink:href="#m1925aec681" x="645.539718" y="512.64" style="stroke: #000000; stroke-width: 0.8"/>
      </g>
     </g>
     <g id="text_5">
      <!-- 8000 -->
      <g transform="translate(607.364718 542.435313) scale(0.3 -0.3)">
       <defs>
        <path id="DejaVuSans-38" d="M 2034 2216 
Q 1584 2216 1326 1975 
Q 1069 1734 1069 1313 
Q 1069 891 1326 650 
Q 1584 409 2034 409 
Q 2484 409 2743 651 
Q 3003 894 3003 1313 
Q 3003 1734 2745 1975 
Q 2488 2216 2034 2216 
z
M 1403 2484 
Q 997 2584 770 2862 
Q 544 3141 544 3541 
Q 544 4100 942 4425 
Q 1341 4750 2034 4750 
Q 2731 4750 3128 4425 
Q 3525 4100 3525 3541 
Q 3525 3141 3298 2862 
Q 3072 2584 2669 2484 
Q 3125 2378 3379 2068 
Q 3634 1759 3634 1313 
Q 3634 634 3220 271 
Q 2806 -91 2034 -91 
Q 1263 -91 848 271 
Q 434 634 434 1313 
Q 434 1759 690 2068 
Q 947 2378 1403 2484 
z
M 1172 3481 
Q 1172 3119 1398 2916 
Q 1625 2713 2034 2713 
Q 2441 2713 2670 2916 
Q 2900 3119 2900 3481 
Q 2900 3844 2670 4047 
Q 2441 4250 2034 4250 
Q 1625 4250 1398 4047 
Q 1172 3844 1172 3481 
z
" transform="scale(0.015625)"/>
       </defs>
       <use xlink:href="#DejaVuSans-38"/>
       <use xlink:href="#DejaVuSans-30" x="63.623047"/>
       <use xlink:href="#DejaVuSans-30" x="127.246094"/>
       <use xlink:href="#DejaVuSans-30" x="190.869141"/>
      </g>
     </g>
    </g>
    <g id="xtick_6">
     <g id="line2d_11">
      <path d="M 772.569616 512.64 
L 772.569616 69.12 
" clip-path="url(#p898b88b3cb)" style="fill: none; stroke: #b0b0b0; stroke-width: 0.8; stroke-linecap: square"/>
     </g>
     <g id="line2d_12">
      <g>
       <use xlink:href="#m1925aec681" x="772.569616" y="512.64" style="stroke: #000000; stroke-width: 0.8"/>
      </g>
     </g>
     <g id="text_6">
      <!-- 10000 -->
      <g transform="translate(724.850866 542.435313) scale(0.3 -0.3)">
       <defs>
        <path id="DejaVuSans-31" d="M 794 531 
L 1825 531 
L 1825 4091 
L 703 3866 
L 703 4441 
L 1819 4666 
L 2450 4666 
L 2450 531 
L 3481 531 
L 3481 0 
L 794 0 
L 794 531 
z
" transform="scale(0.015625)"/>
       </defs>
       <use xlink:href="#DejaVuSans-31"/>
       <use xlink:href="#DejaVuSans-30" x="63.623047"/>
       <use xlink:href="#DejaVuSans-30" x="127.246094"/>
       <use xlink:href="#DejaVuSans-30" x="190.869141"/>
       <use xlink:href="#DejaVuSans-30" x="254.492188"/>
      </g>
     </g>
    </g>
    <g id="text_7">
     <!-- Steps -->
     <g transform="translate(386.840625 583.068125) scale(0.4 -0.4)">
      <defs>
       <path id="DejaVuSans-53" d="M 3425 4513 
L 3425 3897 
Q 3066 4069 2747 4153 
Q 2428 4238 2131 4238 
Q 1616 4238 1336 4038 
Q 1056 3838 1056 3469 
Q 1056 3159 1242 3001 
Q 1428 2844 1947 2747 
L 2328 2669 
Q 3034 2534 3370 2195 
Q 3706 1856 3706 1288 
Q 3706 609 3251 259 
Q 2797 -91 1919 -91 
Q 1588 -91 1214 -16 
Q 841 59 441 206 
L 441 856 
Q 825 641 1194 531 
Q 1563 422 1919 422 
Q 2459 422 2753 634 
Q 3047 847 3047 1241 
Q 3047 1584 2836 1778 
Q 2625 1972 2144 2069 
L 1759 2144 
Q 1053 2284 737 2584 
Q 422 2884 422 3419 
Q 422 4038 858 4394 
Q 1294 4750 2059 4750 
Q 2388 4750 2728 4690 
Q 3069 4631 3425 4513 
z
" transform="scale(0.015625)"/>
       <path id="DejaVuSans-74" d="M 1172 4494 
L 1172 3500 
L 2356 3500 
L 2356 3053 
L 1172 3053 
L 1172 1153 
Q 1172 725 1289 603 
Q 1406 481 1766 481 
L 2356 481 
L 2356 0 
L 1766 0 
Q 1100 0 847 248 
Q 594 497 594 1153 
L 594 3053 
L 172 3053 
L 172 3500 
L 594 3500 
L 594 4494 
L 1172 4494 
z
" transform="scale(0.015625)"/>
       <path id="DejaVuSans-65" d="M 3597 1894 
L 3597 1613 
L 953 1613 
Q 991 1019 1311 708 
Q 1631 397 2203 397 
Q 2534 397 2845 478 
Q 3156 559 3463 722 
L 3463 178 
Q 3153 47 2828 -22 
Q 2503 -91 2169 -91 
Q 1331 -91 842 396 
Q 353 884 353 1716 
Q 353 2575 817 3079 
Q 1281 3584 2069 3584 
Q 2775 3584 3186 3129 
Q 3597 2675 3597 1894 
z
M 3022 2063 
Q 3016 2534 2758 2815 
Q 2500 3097 2075 3097 
Q 1594 3097 1305 2825 
Q 1016 2553 972 2059 
L 3022 2063 
z
" transform="scale(0.015625)"/>
       <path id="DejaVuSans-70" d="M 1159 525 
L 1159 -1331 
L 581 -1331 
L 581 3500 
L 1159 3500 
L 1159 2969 
Q 1341 3281 1617 3432 
Q 1894 3584 2278 3584 
Q 2916 3584 3314 3078 
Q 3713 2572 3713 1747 
Q 3713 922 3314 415 
Q 2916 -91 2278 -91 
Q 1894 -91 1617 61 
Q 1341 213 1159 525 
z
M 3116 1747 
Q 3116 2381 2855 2742 
Q 2594 3103 2138 3103 
Q 1681 3103 1420 2742 
Q 1159 2381 1159 1747 
Q 1159 1113 1420 752 
Q 1681 391 2138 391 
Q 2594 391 2855 752 
Q 3116 1113 3116 1747 
z
" transform="scale(0.015625)"/>
       <path id="DejaVuSans-73" d="M 2834 3397 
L 2834 2853 
Q 2591 2978 2328 3040 
Q 2066 3103 1784 3103 
Q 1356 3103 1142 2972 
Q 928 2841 928 2578 
Q 928 2378 1081 2264 
Q 1234 2150 1697 2047 
L 1894 2003 
Q 2506 1872 2764 1633 
Q 3022 1394 3022 966 
Q 3022 478 2636 193 
Q 2250 -91 1575 -91 
Q 1294 -91 989 -36 
Q 684 19 347 128 
L 347 722 
Q 666 556 975 473 
Q 1284 391 1588 391 
Q 1994 391 2212 530 
Q 2431 669 2431 922 
Q 2431 1156 2273 1281 
Q 2116 1406 1581 1522 
L 1381 1569 
Q 847 1681 609 1914 
Q 372 2147 372 2553 
Q 372 3047 722 3315 
Q 1072 3584 1716 3584 
Q 2034 3584 2315 3537 
Q 2597 3491 2834 3397 
z
" transform="scale(0.015625)"/>
      </defs>
      <use xlink:href="#DejaVuSans-53"/>
      <use xlink:href="#DejaVuSans-74" x="63.476562"/>
      <use xlink:href="#DejaVuSans-65" x="102.685547"/>
      <use xlink:href="#DejaVuSans-70" x="164.208984"/>
      <use xlink:href="#DejaVuSans-73" x="227.685547"/>
     </g>
    </g>
   </g>
   <g id="matplotlib.axis_2">
    <g id="ytick_1">
     <g id="line2d_13">
      <path d="M 108 436.606227 
L 777.6 436.606227 
" clip-path="url(#p898b88b3cb)" style="fill: none; stroke: #b0b0b0; stroke-width: 0.8; stroke-linecap: square"/>
     </g>
     <g id="line2d_14">
      <defs>
       <path id="ma7403231a7" d="M 0 0 
L -3.5 0 
" style="stroke: #000000; stroke-width: 0.8"/>
      </defs>
      <g>
       <use xlink:href="#ma7403231a7" x="108" y="436.606227" style="stroke: #000000; stroke-width: 0.8"/>
      </g>
     </g>
     <g id="text_8">
      <!-- −0.2 -->
      <g transform="translate(28.151562 448.003883) scale(0.3 -0.3)">
       <defs>
        <path id="DejaVuSans-2212" d="M 678 2272 
L 4684 2272 
L 4684 1741 
L 678 1741 
L 678 2272 
z
" transform="scale(0.015625)"/>
        <path id="DejaVuSans-2e" d="M 684 794 
L 1344 794 
L 1344 0 
L 684 0 
L 684 794 
z
" transform="scale(0.015625)"/>
       </defs>
       <use xlink:href="#DejaVuSans-2212"/>
       <use xlink:href="#DejaVuSans-30" x="83.789062"/>
       <use xlink:href="#DejaVuSans-2e" x="147.412109"/>
       <use xlink:href="#DejaVuSans-32" x="179.199219"/>
      </g>
     </g>
    </g>
    <g id="ytick_2">
     <g id="line2d_15">
      <path d="M 108 348.837845 
L 777.6 348.837845 
" clip-path="url(#p898b88b3cb)" style="fill: none; stroke: #b0b0b0; stroke-width: 0.8; stroke-linecap: square"/>
     </g>
     <g id="line2d_16">
      <g>
       <use xlink:href="#ma7403231a7" x="108" y="348.837845" style="stroke: #000000; stroke-width: 0.8"/>
      </g>
     </g>
     <g id="text_9">
      <!-- 0.0 -->
      <g transform="translate(53.290625 360.235501) scale(0.3 -0.3)">
       <use xlink:href="#DejaVuSans-30"/>
       <use xlink:href="#DejaVuSans-2e" x="63.623047"/>
       <use xlink:href="#DejaVuSans-30" x="95.410156"/>
      </g>
     </g>
    </g>
    <g id="ytick_3">
     <g id="line2d_17">
      <path d="M 108 261.069463 
L 777.6 261.069463 
" clip-path="url(#p898b88b3cb)" style="fill: none; stroke: #b0b0b0; stroke-width: 0.8; stroke-linecap: square"/>
     </g>
     <g id="line2d_18">
      <g>
       <use xlink:href="#ma7403231a7" x="108" y="261.069463" style="stroke: #000000; stroke-width: 0.8"/>
      </g>
     </g>
     <g id="text_10">
      <!-- 0.2 -->
      <g transform="translate(53.290625 272.467119) scale(0.3 -0.3)">
       <use xlink:href="#DejaVuSans-30"/>
       <use xlink:href="#DejaVuSans-2e" x="63.623047"/>
       <use xlink:href="#DejaVuSans-32" x="95.410156"/>
      </g>
     </g>
    </g>
    <g id="ytick_4">
     <g id="line2d_19">
      <path d="M 108 173.30108 
L 777.6 173.30108 
" clip-path="url(#p898b88b3cb)" style="fill: none; stroke: #b0b0b0; stroke-width: 0.8; stroke-linecap: square"/>
     </g>
     <g id="line2d_20">
      <g>
       <use xlink:href="#ma7403231a7" x="108" y="173.30108" style="stroke: #000000; stroke-width: 0.8"/>
      </g>
     </g>
     <g id="text_11">
      <!-- 0.4 -->
      <g transform="translate(53.290625 184.698736) scale(0.3 -0.3)">
       <use xlink:href="#DejaVuSans-30"/>
       <use xlink:href="#DejaVuSans-2e" x="63.623047"/>
       <use xlink:href="#DejaVuSans-34" x="95.410156"/>
      </g>
     </g>
    </g>
    <g id="ytick_5">
     <g id="line2d_21">
      <path d="M 108 85.532698 
L 777.6 85.532698 
" clip-path="url(#p898b88b3cb)" style="fill: none; stroke: #b0b0b0; stroke-width: 0.8; stroke-linecap: square"/>
     </g>
     <g id="line2d_22">
      <g>
       <use xlink:href="#ma7403231a7" x="108" y="85.532698" style="stroke: #000000; stroke-width: 0.8"/>
      </g>
     </g>
     <g id="text_12">
      <!-- 0.6 -->
      <g transform="translate(53.290625 96.930354) scale(0.3 -0.3)">
       <use xlink:href="#DejaVuSans-30"/>
       <use xlink:href="#DejaVuSans-2e" x="63.623047"/>
       <use xlink:href="#DejaVuSans-36" x="95.410156"/>
      </g>
     </g>
    </g>
    <g id="text_13">
     <!-- Pearson expression -->
     <g transform="translate(15.832812 484.56125) rotate(-90) scale(0.4 -0.4)">
      <defs>
       <path id="DejaVuSans-50" d="M 1259 4147 
L 1259 2394 
L 2053 2394 
Q 2494 2394 2734 2622 
Q 2975 2850 2975 3272 
Q 2975 3691 2734 3919 
Q 2494 4147 2053 4147 
L 1259 4147 
z
M 628 4666 
L 2053 4666 
Q 2838 4666 3239 4311 
Q 3641 3956 3641 3272 
Q 3641 2581 3239 2228 
Q 2838 1875 2053 1875 
L 1259 1875 
L 1259 0 
L 628 0 
L 628 4666 
z
" transform="scale(0.015625)"/>
       <path id="DejaVuSans-61" d="M 2194 1759 
Q 1497 1759 1228 1600 
Q 959 1441 959 1056 
Q 959 750 1161 570 
Q 1363 391 1709 391 
Q 2188 391 2477 730 
Q 2766 1069 2766 1631 
L 2766 1759 
L 2194 1759 
z
M 3341 1997 
L 3341 0 
L 2766 0 
L 2766 531 
Q 2569 213 2275 61 
Q 1981 -91 1556 -91 
Q 1019 -91 701 211 
Q 384 513 384 1019 
Q 384 1609 779 1909 
Q 1175 2209 1959 2209 
L 2766 2209 
L 2766 2266 
Q 2766 2663 2505 2880 
Q 2244 3097 1772 3097 
Q 1472 3097 1187 3025 
Q 903 2953 641 2809 
L 641 3341 
Q 956 3463 1253 3523 
Q 1550 3584 1831 3584 
Q 2591 3584 2966 3190 
Q 3341 2797 3341 1997 
z
" transform="scale(0.015625)"/>
       <path id="DejaVuSans-72" d="M 2631 2963 
Q 2534 3019 2420 3045 
Q 2306 3072 2169 3072 
Q 1681 3072 1420 2755 
Q 1159 2438 1159 1844 
L 1159 0 
L 581 0 
L 581 3500 
L 1159 3500 
L 1159 2956 
Q 1341 3275 1631 3429 
Q 1922 3584 2338 3584 
Q 2397 3584 2469 3576 
Q 2541 3569 2628 3553 
L 2631 2963 
z
" transform="scale(0.015625)"/>
       <path id="DejaVuSans-6f" d="M 1959 3097 
Q 1497 3097 1228 2736 
Q 959 2375 959 1747 
Q 959 1119 1226 758 
Q 1494 397 1959 397 
Q 2419 397 2687 759 
Q 2956 1122 2956 1747 
Q 2956 2369 2687 2733 
Q 2419 3097 1959 3097 
z
M 1959 3584 
Q 2709 3584 3137 3096 
Q 3566 2609 3566 1747 
Q 3566 888 3137 398 
Q 2709 -91 1959 -91 
Q 1206 -91 779 398 
Q 353 888 353 1747 
Q 353 2609 779 3096 
Q 1206 3584 1959 3584 
z
" transform="scale(0.015625)"/>
       <path id="DejaVuSans-6e" d="M 3513 2113 
L 3513 0 
L 2938 0 
L 2938 2094 
Q 2938 2591 2744 2837 
Q 2550 3084 2163 3084 
Q 1697 3084 1428 2787 
Q 1159 2491 1159 1978 
L 1159 0 
L 581 0 
L 581 3500 
L 1159 3500 
L 1159 2956 
Q 1366 3272 1645 3428 
Q 1925 3584 2291 3584 
Q 2894 3584 3203 3211 
Q 3513 2838 3513 2113 
z
" transform="scale(0.015625)"/>
       <path id="DejaVuSans-20" transform="scale(0.015625)"/>
       <path id="DejaVuSans-78" d="M 3513 3500 
L 2247 1797 
L 3578 0 
L 2900 0 
L 1881 1375 
L 863 0 
L 184 0 
L 1544 1831 
L 300 3500 
L 978 3500 
L 1906 2253 
L 2834 3500 
L 3513 3500 
z
" transform="scale(0.015625)"/>
       <path id="DejaVuSans-69" d="M 603 3500 
L 1178 3500 
L 1178 0 
L 603 0 
L 603 3500 
z
M 603 4863 
L 1178 4863 
L 1178 4134 
L 603 4134 
L 603 4863 
z
" transform="scale(0.015625)"/>
      </defs>
      <use xlink:href="#DejaVuSans-50"/>
      <use xlink:href="#DejaVuSans-65" x="56.677734"/>
      <use xlink:href="#DejaVuSans-61" x="118.201172"/>
      <use xlink:href="#DejaVuSans-72" x="179.480469"/>
      <use xlink:href="#DejaVuSans-73" x="220.59375"/>
      <use xlink:href="#DejaVuSans-6f" x="272.693359"/>
      <use xlink:href="#DejaVuSans-6e" x="333.875"/>
      <use xlink:href="#DejaVuSans-20" x="397.253906"/>
      <use xlink:href="#DejaVuSans-65" x="429.041016"/>
      <use xlink:href="#DejaVuSans-78" x="488.814453"/>
      <use xlink:href="#DejaVuSans-70" x="547.994141"/>
      <use xlink:href="#DejaVuSans-72" x="611.470703"/>
      <use xlink:href="#DejaVuSans-65" x="650.333984"/>
      <use xlink:href="#DejaVuSans-73" x="711.857422"/>
      <use xlink:href="#DejaVuSans-73" x="763.957031"/>
      <use xlink:href="#DejaVuSans-69" x="816.056641"/>
      <use xlink:href="#DejaVuSans-6f" x="843.839844"/>
      <use xlink:href="#DejaVuSans-6e" x="905.021484"/>
     </g>
    </g>
   </g>
   <g id="line2d_23">
    <path d="M 138.436364 191.358822 
L 139.452603 206.043129 
L 140.468842 344.938762 
L 141.485081 344.188455 
L 142.50132 313.313041 
L 143.51756 296.217534 
L 144.533799 286.700696 
L 145.550038 305.271872 
L 146.566277 287.340525 
L 147.582516 276.005479 
L 148.598756 299.648874 
L 149.614995 308.924722 
L 151.647473 281.736705 
L 152.663712 277.61892 
L 153.679951 284.532984 
L 155.71243 272.462147 
L 156.728669 272.317257 
L 158.761147 297.414329 
L 159.777387 308.678593 
L 161.809865 290.596978 
L 163.842343 275.169495 
L 165.874822 262.137847 
L 167.9073 250.571528 
L 168.923539 247.133339 
L 169.939778 242.716161 
L 170.956018 224.912605 
L 171.972257 216.480887 
L 172.988496 213.107961 
L 174.004735 209.024767 
L 175.020974 204.343288 
L 176.037214 192.804013 
L 177.053453 190.987224 
L 178.069692 188.169673 
L 179.085931 173.441381 
L 180.10217 162.883882 
L 181.118409 161.860054 
L 182.134649 161.181286 
L 183.150888 156.96465 
L 184.167127 147.138881 
L 186.199605 141.639351 
L 187.215845 135.763375 
L 190.264562 91.216217 
L 195.345758 91.646556 
L 197.378236 91.8254 
L 201.443193 92.544107 
L 208.556868 93.538196 
L 213.638063 93.459049 
L 223.800455 93.293811 
L 233.962847 93.151001 
L 312.213265 93.129234 
L 747.163636 93.129234 
L 747.163636 93.129234 
" clip-path="url(#p898b88b3cb)" style="fill: none; stroke: #1f77b4; stroke-width: 4; stroke-linecap: square"/>
   </g>
   <g id="line2d_24">
    <path d="M 138.436364 358.659289 
L 139.452603 423.102804 
L 140.468842 363.10478 
L 141.485081 366.923313 
L 142.50132 322.803733 
L 143.51756 292.762591 
L 144.533799 269.289557 
L 145.550038 284.424214 
L 147.582516 270.151942 
L 148.598756 259.801598 
L 149.614995 251.308104 
L 151.647473 246.488011 
L 152.663712 246.016004 
L 153.679951 243.479432 
L 155.71243 235.386323 
L 157.744908 227.78273 
L 159.777387 222.051161 
L 164.858582 212.325514 
L 165.874822 210.583017 
L 167.9073 206.682394 
L 168.923539 199.658825 
L 169.939778 188.310732 
L 170.956018 185.135245 
L 171.972257 177.423739 
L 172.988496 177.430647 
L 174.004735 177.555591 
L 175.020974 178.092697 
L 176.037214 169.898508 
L 177.053453 167.326914 
L 178.069692 165.37646 
L 180.10217 164.480647 
L 182.134649 159.511384 
L 183.150888 156.281097 
L 184.167127 154.183378 
L 186.199605 152.331602 
L 189.248323 150.45121 
L 190.264562 149.733963 
L 191.280801 148.600815 
L 193.31328 146.762484 
L 196.361997 144.504957 
L 198.394476 143.845068 
L 203.475672 142.983454 
L 206.524389 142.67408 
L 209.573107 142.386453 
L 213.638063 142.213894 
L 228.881651 141.947719 
L 243.109 141.932575 
L 261.401305 141.932694 
L 747.163636 141.932694 
L 747.163636 141.932694 
" clip-path="url(#p898b88b3cb)" style="fill: none; stroke: #ff7f0e; stroke-width: 4; stroke-linecap: square"/>
   </g>
   <g id="line2d_25">
    <path d="M 138.436364 185.662648 
L 139.452603 273.281667 
L 140.468842 279.009607 
L 141.485081 312.710463 
L 142.50132 331.962222 
L 143.51756 337.820609 
L 144.533799 339.545865 
L 145.550038 339.968933 
L 146.566277 338.671677 
L 147.582516 336.701115 
L 148.598756 335.042184 
L 149.614995 325.652237 
L 151.647473 300.704692 
L 153.679951 278.654209 
L 155.71243 259.772672 
L 156.728669 251.627851 
L 157.744908 244.387027 
L 159.777387 232.751955 
L 160.793626 227.752205 
L 161.809865 238.122795 
L 163.842343 264.138819 
L 164.858582 273.60771 
L 166.891061 283.103951 
L 167.9073 283.853979 
L 168.923539 282.67685 
L 169.939778 275.079742 
L 170.956018 269.491108 
L 171.972257 260.311009 
L 172.988496 252.451138 
L 174.004735 246.583947 
L 175.020974 242.626686 
L 176.037214 241.164741 
L 177.053453 243.65721 
L 178.069692 246.834618 
L 179.085931 244.96651 
L 180.10217 246.271845 
L 181.118409 248.620965 
L 182.134649 259.972105 
L 184.167127 292.495978 
L 186.199605 326.071788 
L 187.215845 338.284729 
L 190.264562 353.007532 
L 191.280801 358.47241 
L 192.297041 352.164241 
L 194.329519 334.571878 
L 195.345758 328.093666 
L 196.361997 324.740468 
L 197.378236 322.209242 
L 198.394476 324.091551 
L 199.410715 331.710078 
L 201.443193 348.762028 
L 204.491911 371.590331 
L 205.50815 381.463528 
L 206.524389 379.466071 
L 208.556868 383.886359 
L 209.573107 385.461895 
L 210.589346 386.024757 
L 211.605585 388.116627 
L 212.621824 380.875731 
L 214.654303 355.89341 
L 215.670542 343.278578 
L 216.686781 332.371972 
L 217.70302 326.666029 
L 218.719259 328.898671 
L 219.735499 332.622468 
L 220.751738 331.020125 
L 221.767977 337.059979 
L 222.784216 337.070879 
L 223.800455 342.631975 
L 226.849173 356.236189 
L 227.865412 360.045781 
L 228.881651 361.829575 
L 229.89789 364.143947 
L 230.91413 365.76896 
L 232.946608 370.387929 
L 233.962847 372.22366 
L 234.979086 372.727809 
L 235.995326 369.687287 
L 237.011565 375.833189 
L 238.027804 373.316984 
L 239.044043 366.095047 
L 240.060282 371.17246 
L 241.076521 370.690318 
L 242.092761 374.102702 
L 243.109 377.920129 
L 245.141478 384.466099 
L 246.157717 386.962338 
L 247.173957 388.370179 
L 248.190196 388.456588 
L 249.206435 388.156008 
L 250.222674 394.636586 
L 251.238913 405.723379 
L 252.255153 402.510892 
L 253.271392 404.601715 
L 254.287631 401.574721 
L 255.30387 394.916935 
L 256.320109 389.424533 
L 257.336348 380.529507 
L 261.401305 395.585817 
L 264.450023 365.037205 
L 266.482501 373.442023 
L 267.49874 378.112797 
L 268.51498 383.705604 
L 269.531219 393.693079 
L 270.547458 383.313178 
L 271.563697 379.143866 
L 273.596175 362.445431 
L 275.628654 349.204512 
L 277.661132 337.204334 
L 279.693611 325.955393 
L 281.726089 297.818295 
L 282.742328 290.295202 
L 283.758567 284.124508 
L 284.774806 288.675598 
L 285.791046 298.444957 
L 286.807285 307.08432 
L 287.823524 319.367424 
L 288.839763 319.099893 
L 289.856002 319.707104 
L 291.888481 292.42712 
L 293.920959 293.308255 
L 294.937198 293.580147 
L 300.018394 224.255677 
L 301.034633 224.181746 
L 304.083351 225.209746 
L 308.148308 226.583845 
L 313.229504 228.16694 
L 314.245743 227.592028 
L 316.278221 201.821123 
L 320.343178 148.305652 
L 326.440613 148.453477 
L 330.50557 148.882196 
L 334.570527 149.4799 
L 342.70044 150.920801 
L 346.765397 151.709092 
L 354.89531 152.411236 
L 357.944028 152.208655 
L 359.976506 151.839965 
L 360.992745 151.969237 
L 362.008985 151.511544 
L 363.025224 154.386885 
L 367.090181 204.647475 
L 374.203855 297.774867 
L 375.220094 297.87214 
L 376.236333 298.197521 
L 377.252572 298.709836 
L 378.268812 299.652537 
L 385.382486 385.135042 
L 386.398725 393.977072 
L 387.414964 399.372768 
L 388.431204 413.066189 
L 389.447443 411.688898 
L 390.463682 413.050415 
L 391.479921 412.793635 
L 392.49616 418.085818 
L 393.512399 429.211645 
L 394.528639 417.436606 
L 395.544878 417.013395 
L 396.561117 402.403209 
L 397.577356 389.716327 
L 400.626074 346.066326 
L 401.642313 337.748148 
L 402.658552 334.398842 
L 403.674791 331.457663 
L 404.691031 327.156136 
L 405.70727 337.671636 
L 406.723509 346.92288 
L 407.739748 357.505585 
L 408.755987 364.982559 
L 409.772226 362.092279 
L 410.788466 356.54952 
L 412.820944 334.939893 
L 413.837183 327.536878 
L 414.853422 318.818102 
L 415.869662 314.776731 
L 416.885901 317.111441 
L 417.90214 325.490253 
L 418.918379 325.386692 
L 419.934618 332.549098 
L 420.950857 331.273218 
L 421.967097 331.679706 
L 422.983336 332.708295 
L 423.999575 326.620113 
L 425.015814 332.726447 
L 426.032053 324.110047 
L 428.064532 333.27689 
L 429.080771 339.949843 
L 430.09701 342.947145 
L 431.113249 345.050645 
L 432.129489 340.21771 
L 435.178206 307.984266 
L 436.194445 303.421359 
L 437.210684 297.25445 
L 438.226924 293.403621 
L 439.243163 292.847161 
L 440.259402 291.267559 
L 441.275641 292.097283 
L 442.29188 296.66219 
L 443.30812 306.722552 
L 444.324359 313.987524 
L 445.340598 324.434607 
L 446.356837 330.318527 
L 447.373076 333.656221 
L 448.389316 334.282223 
L 449.405555 331.886619 
L 450.421794 336.918281 
L 451.438033 345.862216 
L 452.454272 357.677136 
L 453.470511 364.741316 
L 454.486751 367.835621 
L 455.50299 374.62736 
L 457.535468 385.391965 
L 458.551707 388.898816 
L 459.567947 396.897641 
L 461.600425 423.506964 
L 464.649143 468.875046 
L 465.665382 484.310862 
L 466.681621 488.773531 
L 467.69786 492.48 
L 468.714099 489.947605 
L 469.730338 479.887755 
L 470.746578 472.5916 
L 471.762817 463.230419 
L 472.779056 457.033762 
L 473.795295 452.998783 
L 474.811534 443.65243 
L 478.876491 380.586228 
L 481.925209 347.989062 
L 483.957687 318.948047 
L 484.973926 306.314686 
L 485.990165 291.037792 
L 489.038883 260.319975 
L 491.071361 227.961438 
L 495.136318 161.604913 
L 496.152557 145.359104 
L 497.168796 132.521896 
L 498.185036 123.235717 
L 499.201275 116.420015 
L 500.217514 116.908892 
L 501.233753 114.933412 
L 502.249992 114.684382 
L 503.266232 112.924091 
L 504.282471 104.520561 
L 505.29871 101.313049 
L 506.314949 101.385768 
L 507.331188 101.637658 
L 508.347428 106.549191 
L 511.396145 147.702499 
L 514.444863 198.601549 
L 516.477341 229.54625 
L 519.526059 279.396369 
L 520.542298 291.378625 
L 521.558537 294.21784 
L 522.574776 295.723284 
L 523.591015 295.728149 
L 524.607255 295.403915 
L 525.623494 295.902849 
L 526.639733 296.935792 
L 528.672211 297.985086 
L 529.68845 298.963637 
L 530.70469 299.690074 
L 531.720929 299.968672 
L 532.737168 300.514804 
L 534.769646 299.910604 
L 536.802125 298.44168 
L 537.818364 298.707426 
L 538.834603 293.996892 
L 544.932038 204.911643 
L 545.948277 195.449535 
L 546.964517 187.144887 
L 548.996995 173.971021 
L 550.013234 167.904017 
L 551.029473 170.495932 
L 552.045713 184.092457 
L 555.09443 215.107079 
L 556.110669 220.308678 
L 557.126908 221.205253 
L 558.143148 234.816471 
L 559.159387 245.57939 
L 560.175626 260.756634 
L 561.191865 268.519573 
L 562.208104 275.122067 
L 563.224344 277.613693 
L 564.240583 284.807079 
L 565.256822 295.882275 
L 566.273061 310.885853 
L 567.2893 321.88839 
L 573.386735 401.851112 
L 574.402975 417.008667 
L 575.419214 427.929874 
L 576.435453 430.582347 
L 577.451692 429.697211 
L 578.467931 420.179566 
L 580.50041 403.408102 
L 583.549127 365.774356 
L 585.581606 349.172024 
L 586.597845 344.413475 
L 587.614084 343.299081 
L 588.630323 329.427738 
L 589.646562 318.138977 
L 590.662802 302.606705 
L 591.679041 294.54478 
L 592.69528 287.584802 
L 593.711519 285.004664 
L 594.727758 277.752886 
L 595.743998 267.646785 
L 596.760237 252.547397 
L 597.776476 241.134696 
L 601.841433 187.467052 
L 605.906389 126.100451 
L 606.922629 117.336442 
L 607.938868 110.432085 
L 608.955107 109.586062 
L 613.020064 101.487232 
L 614.036303 99.82706 
L 616.068781 95.359234 
L 618.10126 93.655656 
L 620.133738 93.606683 
L 621.149977 92.94404 
L 622.166216 92.050966 
L 623.182456 91.544783 
L 624.198695 90.513897 
L 625.214934 90.299939 
L 626.231173 89.28 
L 627.247412 89.334415 
L 628.263652 90.566508 
L 629.279891 92.770732 
L 630.29613 92.848206 
L 631.312369 93.971393 
L 632.328608 93.970308 
L 633.344847 95.082169 
L 634.361087 97.26087 
L 635.377326 97.598742 
L 637.409804 97.777735 
L 638.426043 97.794523 
L 640.458522 98.206583 
L 641.474761 98.256853 
L 643.507239 98.650517 
L 644.523479 100.35667 
L 645.539718 101.709319 
L 646.555957 104.165792 
L 647.572196 108.439129 
L 648.588435 115.712529 
L 650.620914 127.415747 
L 651.637153 135.069422 
L 653.669631 157.302694 
L 655.70211 184.038123 
L 656.718349 195.370595 
L 657.734588 203.369637 
L 659.767066 213.984591 
L 660.783306 218.643283 
L 661.799545 227.659832 
L 663.832023 240.610626 
L 664.848262 245.805333 
L 666.880741 260.970864 
L 667.89698 269.727434 
L 668.913219 275.0756 
L 669.929458 278.883524 
L 671.961937 292.681887 
L 672.978176 302.059464 
L 673.994415 309.308153 
L 675.010654 314.071069 
L 676.026893 319.861046 
L 678.059372 328.969961 
L 679.075611 326.8451 
L 680.09185 329.836717 
L 681.108089 331.316366 
L 682.124328 332.458127 
L 683.140568 330.326654 
L 684.156807 324.481647 
L 685.173046 321.892847 
L 686.189285 318.624695 
L 687.205524 314.71075 
L 688.221764 311.92358 
L 689.238003 311.604799 
L 690.254242 310.67065 
L 691.270481 310.063859 
L 692.28672 305.415986 
L 693.302959 303.424862 
L 694.319199 301.808982 
L 695.335438 302.234095 
L 696.351677 302.101121 
L 697.367916 302.82158 
L 698.384155 300.61394 
L 699.400395 302.965124 
L 700.416634 304.99832 
L 701.432873 308.247952 
L 702.449112 306.905296 
L 703.465351 307.884782 
L 704.481591 307.64697 
L 705.49783 308.761337 
L 706.514069 306.237704 
L 707.530308 307.127877 
L 708.546547 305.930206 
L 709.562786 306.815667 
L 710.579026 303.034534 
L 711.595265 301.297907 
L 712.611504 297.757922 
L 713.627743 294.849675 
L 714.643982 296.688062 
L 716.676461 290.694291 
L 717.6927 291.698721 
L 718.708939 294.703152 
L 719.725178 295.134543 
L 720.741418 296.937347 
L 721.757657 303.53227 
L 722.773896 305.127864 
L 725.822613 319.781818 
L 726.838853 326.484989 
L 727.855092 330.20655 
L 728.871331 336.952111 
L 729.88757 341.684006 
L 730.903809 345.513845 
L 731.920049 345.299242 
L 732.936288 352.983784 
L 733.952527 350.516753 
L 734.968766 353.256847 
L 735.985005 354.658977 
L 737.001244 360.779234 
L 738.017484 361.446067 
L 739.033723 363.463287 
L 740.049962 366.840452 
L 742.08244 378.601482 
L 743.09868 382.393444 
L 744.114919 385.238379 
L 745.131158 391.19405 
L 747.163636 395.521353 
L 747.163636 395.521353 
" clip-path="url(#p898b88b3cb)" style="fill: none; stroke: #2ca02c; stroke-width: 4; stroke-linecap: square"/>
   </g>
   <g id="line2d_26"/>
   <g id="line2d_27"/>
   <g id="line2d_28"/>
   <g id="patch_3">
    <path d="M 108 512.64 
L 108 69.12 
" style="fill: none; stroke: #000000; stroke-width: 0.8; stroke-linejoin: miter; stroke-linecap: square"/>
   </g>
   <g id="patch_4">
    <path d="M 777.6 512.64 
L 777.6 69.12 
" style="fill: none; stroke: #000000; stroke-width: 0.8; stroke-linejoin: miter; stroke-linecap: square"/>
   </g>
   <g id="patch_5">
    <path d="M 108 512.64 
L 777.6 512.64 
" style="fill: none; stroke: #000000; stroke-width: 0.8; stroke-linejoin: miter; stroke-linecap: square"/>
   </g>
   <g id="patch_6">
    <path d="M 108 69.12 
L 777.6 69.12 
" style="fill: none; stroke: #000000; stroke-width: 0.8; stroke-linejoin: miter; stroke-linecap: square"/>
   </g>
   <g id="text_14">
    <!-- client1 -->
    <g transform="translate(341.315625 56.641875) scale(0.6 -0.6)">
     <defs>
      <path id="DejaVuSans-63" d="M 3122 3366 
L 3122 2828 
Q 2878 2963 2633 3030 
Q 2388 3097 2138 3097 
Q 1578 3097 1268 2742 
Q 959 2388 959 1747 
Q 959 1106 1268 751 
Q 1578 397 2138 397 
Q 2388 397 2633 464 
Q 2878 531 3122 666 
L 3122 134 
Q 2881 22 2623 -34 
Q 2366 -91 2075 -91 
Q 1284 -91 818 406 
Q 353 903 353 1747 
Q 353 2603 823 3093 
Q 1294 3584 2113 3584 
Q 2378 3584 2631 3529 
Q 2884 3475 3122 3366 
z
" transform="scale(0.015625)"/>
      <path id="DejaVuSans-6c" d="M 603 4863 
L 1178 4863 
L 1178 0 
L 603 0 
L 603 4863 
z
" transform="scale(0.015625)"/>
     </defs>
     <use xlink:href="#DejaVuSans-63"/>
     <use xlink:href="#DejaVuSans-6c" x="54.980469"/>
     <use xlink:href="#DejaVuSans-69" x="82.763672"/>
     <use xlink:href="#DejaVuSans-65" x="110.546875"/>
     <use xlink:href="#DejaVuSans-6e" x="172.070312"/>
     <use xlink:href="#DejaVuSans-74" x="235.449219"/>
     <use xlink:href="#DejaVuSans-31" x="274.658203"/>
    </g>
   </g>
   <g id="legend_1">
    <g id="patch_7">
     <path d="M 136 492.64 
L 792.2375 492.64 
Q 800.2375 492.64 800.2375 484.64 
L 800.2375 311.39 
Q 800.2375 303.39 792.2375 303.39 
L 136 303.39 
Q 128 303.39 128 311.39 
L 128 484.64 
Q 128 492.64 136 492.64 
z
" style="fill: #ffffff; opacity: 0.8; stroke: #cccccc; stroke-linejoin: miter"/>
    </g>
    <g id="line2d_29">
     <path d="M 144 335.78375 
L 184 335.78375 
L 224 335.78375 
" style="fill: none; stroke: #1f77b4; stroke-width: 4; stroke-linecap: square"/>
    </g>
    <g id="text_15">
     <!-- fedavg_private_regressors -->
     <g transform="translate(256 349.78375) scale(0.4 -0.4)">
      <defs>
       <path id="DejaVuSans-66" d="M 2375 4863 
L 2375 4384 
L 1825 4384 
Q 1516 4384 1395 4259 
Q 1275 4134 1275 3809 
L 1275 3500 
L 2222 3500 
L 2222 3053 
L 1275 3053 
L 1275 0 
L 697 0 
L 697 3053 
L 147 3053 
L 147 3500 
L 697 3500 
L 697 3744 
Q 697 4328 969 4595 
Q 1241 4863 1831 4863 
L 2375 4863 
z
" transform="scale(0.015625)"/>
       <path id="DejaVuSans-64" d="M 2906 2969 
L 2906 4863 
L 3481 4863 
L 3481 0 
L 2906 0 
L 2906 525 
Q 2725 213 2448 61 
Q 2172 -91 1784 -91 
Q 1150 -91 751 415 
Q 353 922 353 1747 
Q 353 2572 751 3078 
Q 1150 3584 1784 3584 
Q 2172 3584 2448 3432 
Q 2725 3281 2906 2969 
z
M 947 1747 
Q 947 1113 1208 752 
Q 1469 391 1925 391 
Q 2381 391 2643 752 
Q 2906 1113 2906 1747 
Q 2906 2381 2643 2742 
Q 2381 3103 1925 3103 
Q 1469 3103 1208 2742 
Q 947 2381 947 1747 
z
" transform="scale(0.015625)"/>
       <path id="DejaVuSans-76" d="M 191 3500 
L 800 3500 
L 1894 563 
L 2988 3500 
L 3597 3500 
L 2284 0 
L 1503 0 
L 191 3500 
z
" transform="scale(0.015625)"/>
       <path id="DejaVuSans-67" d="M 2906 1791 
Q 2906 2416 2648 2759 
Q 2391 3103 1925 3103 
Q 1463 3103 1205 2759 
Q 947 2416 947 1791 
Q 947 1169 1205 825 
Q 1463 481 1925 481 
Q 2391 481 2648 825 
Q 2906 1169 2906 1791 
z
M 3481 434 
Q 3481 -459 3084 -895 
Q 2688 -1331 1869 -1331 
Q 1566 -1331 1297 -1286 
Q 1028 -1241 775 -1147 
L 775 -588 
Q 1028 -725 1275 -790 
Q 1522 -856 1778 -856 
Q 2344 -856 2625 -561 
Q 2906 -266 2906 331 
L 2906 616 
Q 2728 306 2450 153 
Q 2172 0 1784 0 
Q 1141 0 747 490 
Q 353 981 353 1791 
Q 353 2603 747 3093 
Q 1141 3584 1784 3584 
Q 2172 3584 2450 3431 
Q 2728 3278 2906 2969 
L 2906 3500 
L 3481 3500 
L 3481 434 
z
" transform="scale(0.015625)"/>
       <path id="DejaVuSans-5f" d="M 3263 -1063 
L 3263 -1509 
L -63 -1509 
L -63 -1063 
L 3263 -1063 
z
" transform="scale(0.015625)"/>
      </defs>
      <use xlink:href="#DejaVuSans-66"/>
      <use xlink:href="#DejaVuSans-65" x="35.205078"/>
      <use xlink:href="#DejaVuSans-64" x="96.728516"/>
      <use xlink:href="#DejaVuSans-61" x="160.205078"/>
      <use xlink:href="#DejaVuSans-76" x="221.484375"/>
      <use xlink:href="#DejaVuSans-67" x="280.664062"/>
      <use xlink:href="#DejaVuSans-5f" x="344.140625"/>
      <use xlink:href="#DejaVuSans-70" x="394.140625"/>
      <use xlink:href="#DejaVuSans-72" x="457.617188"/>
      <use xlink:href="#DejaVuSans-69" x="498.730469"/>
      <use xlink:href="#DejaVuSans-76" x="526.513672"/>
      <use xlink:href="#DejaVuSans-61" x="585.693359"/>
      <use xlink:href="#DejaVuSans-74" x="646.972656"/>
      <use xlink:href="#DejaVuSans-65" x="686.181641"/>
      <use xlink:href="#DejaVuSans-5f" x="747.705078"/>
      <use xlink:href="#DejaVuSans-72" x="797.705078"/>
      <use xlink:href="#DejaVuSans-65" x="836.568359"/>
      <use xlink:href="#DejaVuSans-67" x="898.091797"/>
      <use xlink:href="#DejaVuSans-72" x="961.568359"/>
      <use xlink:href="#DejaVuSans-65" x="1000.431641"/>
      <use xlink:href="#DejaVuSans-73" x="1061.955078"/>
      <use xlink:href="#DejaVuSans-73" x="1114.054688"/>
      <use xlink:href="#DejaVuSans-6f" x="1166.154297"/>
      <use xlink:href="#DejaVuSans-72" x="1227.335938"/>
      <use xlink:href="#DejaVuSans-73" x="1268.449219"/>
     </g>
    </g>
    <g id="line2d_30">
     <path d="M 144 395.60875 
L 184 395.60875 
L 224 395.60875 
" style="fill: none; stroke: #ff7f0e; stroke-width: 4; stroke-linecap: square"/>
    </g>
    <g id="text_16">
     <!-- fedavg -->
     <g transform="translate(256 409.60875) scale(0.4 -0.4)">
      <use xlink:href="#DejaVuSans-66"/>
      <use xlink:href="#DejaVuSans-65" x="35.205078"/>
      <use xlink:href="#DejaVuSans-64" x="96.728516"/>
      <use xlink:href="#DejaVuSans-61" x="160.205078"/>
      <use xlink:href="#DejaVuSans-76" x="221.484375"/>
      <use xlink:href="#DejaVuSans-67" x="280.664062"/>
     </g>
    </g>
    <g id="line2d_31">
     <path d="M 144 454.32125 
L 184 454.32125 
L 224 454.32125 
" style="fill: none; stroke: #2ca02c; stroke-width: 4; stroke-linecap: square"/>
    </g>
    <g id="text_17">
     <!-- local -->
     <g transform="translate(256 468.32125) scale(0.4 -0.4)">
      <use xlink:href="#DejaVuSans-6c"/>
      <use xlink:href="#DejaVuSans-6f" x="27.783203"/>
      <use xlink:href="#DejaVuSans-63" x="88.964844"/>
      <use xlink:href="#DejaVuSans-61" x="143.945312"/>
      <use xlink:href="#DejaVuSans-6c" x="205.224609"/>
     </g>
    </g>
   </g>
  </g>
 </g>
 <defs>
  <clipPath id="p898b88b3cb">
   <rect x="108" y="69.12" width="669.6" height="443.52"/>
  </clipPath>
 </defs>
</svg>
