<?xml version="1.0" encoding="utf-8" standalone="no"?>
<!DOCTYPE svg PUBLIC "-//W3C//DTD SVG 1.1//EN"
  "http://www.w3.org/Graphics/SVG/1.1/DTD/svg11.dtd">
<svg xmlns:xlink="http://www.w3.org/1999/xlink" width="1152pt" height="864pt" viewBox="0 0 1152 864" xmlns="http://www.w3.org/2000/svg" version="1.1">
 <metadata>
  <rdf:RDF xmlns:dc="http://purl.org/dc/elements/1.1/" xmlns:cc="http://creativecommons.org/ns#" xmlns:rdf="http://www.w3.org/1999/02/22-rdf-syntax-ns#">
   <cc:Work>
    <dc:type rdf:resource="http://purl.org/dc/dcmitype/StillImage"/>
    <dc:date>2025-04-25T14:41:05.444124</dc:date>
    <dc:format>image/svg+xml</dc:format>
    <dc:creator>
     <cc:Agent>
      <dc:title>Matplotlib v3.8.2, https://matplotlib.org/</dc:title>
     </cc:Agent>
    </dc:creator>
   </cc:Work>
  </rdf:RDF>
 </metadata>
 <defs>
  <style type="text/css">*{stroke-linejoin: round; stroke-linecap: butt}</style>
 </defs>
 <g id="figure_1">
  <g id="patch_1">
   <path d="M 0 864 
L 1152 864 
L 1152 0 
L 0 0 
z
" style="fill: #ffffff"/>
  </g>
  <g id="axes_1">
   <g id="patch_2">
    <path d="M 144 768.96 
L 1036.8 768.96 
L 1036.8 103.68 
L 144 103.68 
z
" style="fill: #ffffff"/>
   </g>
   <g id="PolyCollection_1"/>
   <g id="PolyCollection_2"/>
   <g id="PolyCollection_3"/>
   <g id="matplotlib.axis_1">
    <g id="xtick_1">
     <g id="line2d_1">
      <path d="M 183.226833 768.96 
L 183.226833 103.68 
" clip-path="url(#p2d93df354e)" style="fill: none; stroke: #b0b0b0; stroke-width: 0.8; stroke-linecap: square"/>
     </g>
     <g id="line2d_2">
      <defs>
       <path id="m2f17fd0fe0" d="M 0 0 
L 0 3.5 
" style="stroke: #000000; stroke-width: 0.8"/>
      </defs>
      <g>
       <use xlink:href="#m2f17fd0fe0" x="183.226833" y="768.96" style="stroke: #000000; stroke-width: 0.8"/>
      </g>
     </g>
     <g id="text_1">
      <!-- 0 -->
      <g transform="translate(173.683083 798.755312) scale(0.3 -0.3)">
       <defs>
        <path id="DejaVuSans-30" d="M 2034 4250 
Q 1547 4250 1301 3770 
Q 1056 3291 1056 2328 
Q 1056 1369 1301 889 
Q 1547 409 2034 409 
Q 2525 409 2770 889 
Q 3016 1369 3016 2328 
Q 3016 3291 2770 3770 
Q 2525 4250 2034 4250 
z
M 2034 4750 
Q 2819 4750 3233 4129 
Q 3647 3509 3647 2328 
Q 3647 1150 3233 529 
Q 2819 -91 2034 -91 
Q 1250 -91 836 529 
Q 422 1150 422 2328 
Q 422 3509 836 4129 
Q 1250 4750 2034 4750 
z
" transform="scale(0.015625)"/>
       </defs>
       <use xlink:href="#DejaVuSans-30"/>
      </g>
     </g>
    </g>
    <g id="xtick_2">
     <g id="line2d_3">
      <path d="M 342.636901 768.96 
L 342.636901 103.68 
" clip-path="url(#p2d93df354e)" style="fill: none; stroke: #b0b0b0; stroke-width: 0.8; stroke-linecap: square"/>
     </g>
     <g id="line2d_4">
      <g>
       <use xlink:href="#m2f17fd0fe0" x="342.636901" y="768.96" style="stroke: #000000; stroke-width: 0.8"/>
      </g>
     </g>
     <g id="text_2">
      <!-- 10000 -->
      <g transform="translate(294.918151 798.755312) scale(0.3 -0.3)">
       <defs>
        <path id="DejaVuSans-31" d="M 794 531 
L 1825 531 
L 1825 4091 
L 703 3866 
L 703 4441 
L 1819 4666 
L 2450 4666 
L 2450 531 
L 3481 531 
L 3481 0 
L 794 0 
L 794 531 
z
" transform="scale(0.015625)"/>
       </defs>
       <use xlink:href="#DejaVuSans-31"/>
       <use xlink:href="#DejaVuSans-30" x="63.623047"/>
       <use xlink:href="#DejaVuSans-30" x="127.246094"/>
       <use xlink:href="#DejaVuSans-30" x="190.869141"/>
       <use xlink:href="#DejaVuSans-30" x="254.492188"/>
      </g>
     </g>
    </g>
    <g id="xtick_3">
     <g id="line2d_5">
      <path d="M 502.04697 768.96 
L 502.04697 103.68 
" clip-path="url(#p2d93df354e)" style="fill: none; stroke: #b0b0b0; stroke-width: 0.8; stroke-linecap: square"/>
     </g>
     <g id="line2d_6">
      <g>
       <use xlink:href="#m2f17fd0fe0" x="502.04697" y="768.96" style="stroke: #000000; stroke-width: 0.8"/>
      </g>
     </g>
     <g id="text_3">
      <!-- 20000 -->
      <g transform="translate(454.32822 798.755312) scale(0.3 -0.3)">
       <defs>
        <path id="DejaVuSans-32" d="M 1228 531 
L 3431 531 
L 3431 0 
L 469 0 
L 469 531 
Q 828 903 1448 1529 
Q 2069 2156 2228 2338 
Q 2531 2678 2651 2914 
Q 2772 3150 2772 3378 
Q 2772 3750 2511 3984 
Q 2250 4219 1831 4219 
Q 1534 4219 1204 4116 
Q 875 4013 500 3803 
L 500 4441 
Q 881 4594 1212 4672 
Q 1544 4750 1819 4750 
Q 2544 4750 2975 4387 
Q 3406 4025 3406 3419 
Q 3406 3131 3298 2873 
Q 3191 2616 2906 2266 
Q 2828 2175 2409 1742 
Q 1991 1309 1228 531 
z
" transform="scale(0.015625)"/>
       </defs>
       <use xlink:href="#DejaVuSans-32"/>
       <use xlink:href="#DejaVuSans-30" x="63.623047"/>
       <use xlink:href="#DejaVuSans-30" x="127.246094"/>
       <use xlink:href="#DejaVuSans-30" x="190.869141"/>
       <use xlink:href="#DejaVuSans-30" x="254.492188"/>
      </g>
     </g>
    </g>
    <g id="xtick_4">
     <g id="line2d_7">
      <path d="M 661.457038 768.96 
L 661.457038 103.68 
" clip-path="url(#p2d93df354e)" style="fill: none; stroke: #b0b0b0; stroke-width: 0.8; stroke-linecap: square"/>
     </g>
     <g id="line2d_8">
      <g>
       <use xlink:href="#m2f17fd0fe0" x="661.457038" y="768.96" style="stroke: #000000; stroke-width: 0.8"/>
      </g>
     </g>
     <g id="text_4">
      <!-- 30000 -->
      <g transform="translate(613.738288 798.755312) scale(0.3 -0.3)">
       <defs>
        <path id="DejaVuSans-33" d="M 2597 2516 
Q 3050 2419 3304 2112 
Q 3559 1806 3559 1356 
Q 3559 666 3084 287 
Q 2609 -91 1734 -91 
Q 1441 -91 1130 -33 
Q 819 25 488 141 
L 488 750 
Q 750 597 1062 519 
Q 1375 441 1716 441 
Q 2309 441 2620 675 
Q 2931 909 2931 1356 
Q 2931 1769 2642 2001 
Q 2353 2234 1838 2234 
L 1294 2234 
L 1294 2753 
L 1863 2753 
Q 2328 2753 2575 2939 
Q 2822 3125 2822 3475 
Q 2822 3834 2567 4026 
Q 2313 4219 1838 4219 
Q 1578 4219 1281 4162 
Q 984 4106 628 3988 
L 628 4550 
Q 988 4650 1302 4700 
Q 1616 4750 1894 4750 
Q 2613 4750 3031 4423 
Q 3450 4097 3450 3541 
Q 3450 3153 3228 2886 
Q 3006 2619 2597 2516 
z
" transform="scale(0.015625)"/>
       </defs>
       <use xlink:href="#DejaVuSans-33"/>
       <use xlink:href="#DejaVuSans-30" x="63.623047"/>
       <use xlink:href="#DejaVuSans-30" x="127.246094"/>
       <use xlink:href="#DejaVuSans-30" x="190.869141"/>
       <use xlink:href="#DejaVuSans-30" x="254.492188"/>
      </g>
     </g>
    </g>
    <g id="xtick_5">
     <g id="line2d_9">
      <path d="M 820.867106 768.96 
L 820.867106 103.68 
" clip-path="url(#p2d93df354e)" style="fill: none; stroke: #b0b0b0; stroke-width: 0.8; stroke-linecap: square"/>
     </g>
     <g id="line2d_10">
      <g>
       <use xlink:href="#m2f17fd0fe0" x="820.867106" y="768.96" style="stroke: #000000; stroke-width: 0.8"/>
      </g>
     </g>
     <g id="text_5">
      <!-- 40000 -->
      <g transform="translate(773.148356 798.755312) scale(0.3 -0.3)">
       <defs>
        <path id="DejaVuSans-34" d="M 2419 4116 
L 825 1625 
L 2419 1625 
L 2419 4116 
z
M 2253 4666 
L 3047 4666 
L 3047 1625 
L 3713 1625 
L 3713 1100 
L 3047 1100 
L 3047 0 
L 2419 0 
L 2419 1100 
L 313 1100 
L 313 1709 
L 2253 4666 
z
" transform="scale(0.015625)"/>
       </defs>
       <use xlink:href="#DejaVuSans-34"/>
       <use xlink:href="#DejaVuSans-30" x="63.623047"/>
       <use xlink:href="#DejaVuSans-30" x="127.246094"/>
       <use xlink:href="#DejaVuSans-30" x="190.869141"/>
       <use xlink:href="#DejaVuSans-30" x="254.492188"/>
      </g>
     </g>
    </g>
    <g id="xtick_6">
     <g id="line2d_11">
      <path d="M 980.277175 768.96 
L 980.277175 103.68 
" clip-path="url(#p2d93df354e)" style="fill: none; stroke: #b0b0b0; stroke-width: 0.8; stroke-linecap: square"/>
     </g>
     <g id="line2d_12">
      <g>
       <use xlink:href="#m2f17fd0fe0" x="980.277175" y="768.96" style="stroke: #000000; stroke-width: 0.8"/>
      </g>
     </g>
     <g id="text_6">
      <!-- 50000 -->
      <g transform="translate(932.558425 798.755312) scale(0.3 -0.3)">
       <defs>
        <path id="DejaVuSans-35" d="M 691 4666 
L 3169 4666 
L 3169 4134 
L 1269 4134 
L 1269 2991 
Q 1406 3038 1543 3061 
Q 1681 3084 1819 3084 
Q 2600 3084 3056 2656 
Q 3513 2228 3513 1497 
Q 3513 744 3044 326 
Q 2575 -91 1722 -91 
Q 1428 -91 1123 -41 
Q 819 9 494 109 
L 494 744 
Q 775 591 1075 516 
Q 1375 441 1709 441 
Q 2250 441 2565 725 
Q 2881 1009 2881 1497 
Q 2881 1984 2565 2268 
Q 2250 2553 1709 2553 
Q 1456 2553 1204 2497 
Q 953 2441 691 2322 
L 691 4666 
z
" transform="scale(0.015625)"/>
       </defs>
       <use xlink:href="#DejaVuSans-35"/>
       <use xlink:href="#DejaVuSans-30" x="63.623047"/>
       <use xlink:href="#DejaVuSans-30" x="127.246094"/>
       <use xlink:href="#DejaVuSans-30" x="190.869141"/>
       <use xlink:href="#DejaVuSans-30" x="254.492188"/>
      </g>
     </g>
    </g>
    <g id="text_7">
     <!-- Steps -->
     <g transform="translate(534.440625 839.388125) scale(0.4 -0.4)">
      <defs>
       <path id="DejaVuSans-53" d="M 3425 4513 
L 3425 3897 
Q 3066 4069 2747 4153 
Q 2428 4238 2131 4238 
Q 1616 4238 1336 4038 
Q 1056 3838 1056 3469 
Q 1056 3159 1242 3001 
Q 1428 2844 1947 2747 
L 2328 2669 
Q 3034 2534 3370 2195 
Q 3706 1856 3706 1288 
Q 3706 609 3251 259 
Q 2797 -91 1919 -91 
Q 1588 -91 1214 -16 
Q 841 59 441 206 
L 441 856 
Q 825 641 1194 531 
Q 1563 422 1919 422 
Q 2459 422 2753 634 
Q 3047 847 3047 1241 
Q 3047 1584 2836 1778 
Q 2625 1972 2144 2069 
L 1759 2144 
Q 1053 2284 737 2584 
Q 422 2884 422 3419 
Q 422 4038 858 4394 
Q 1294 4750 2059 4750 
Q 2388 4750 2728 4690 
Q 3069 4631 3425 4513 
z
" transform="scale(0.015625)"/>
       <path id="DejaVuSans-74" d="M 1172 4494 
L 1172 3500 
L 2356 3500 
L 2356 3053 
L 1172 3053 
L 1172 1153 
Q 1172 725 1289 603 
Q 1406 481 1766 481 
L 2356 481 
L 2356 0 
L 1766 0 
Q 1100 0 847 248 
Q 594 497 594 1153 
L 594 3053 
L 172 3053 
L 172 3500 
L 594 3500 
L 594 4494 
L 1172 4494 
z
" transform="scale(0.015625)"/>
       <path id="DejaVuSans-65" d="M 3597 1894 
L 3597 1613 
L 953 1613 
Q 991 1019 1311 708 
Q 1631 397 2203 397 
Q 2534 397 2845 478 
Q 3156 559 3463 722 
L 3463 178 
Q 3153 47 2828 -22 
Q 2503 -91 2169 -91 
Q 1331 -91 842 396 
Q 353 884 353 1716 
Q 353 2575 817 3079 
Q 1281 3584 2069 3584 
Q 2775 3584 3186 3129 
Q 3597 2675 3597 1894 
z
M 3022 2063 
Q 3016 2534 2758 2815 
Q 2500 3097 2075 3097 
Q 1594 3097 1305 2825 
Q 1016 2553 972 2059 
L 3022 2063 
z
" transform="scale(0.015625)"/>
       <path id="DejaVuSans-70" d="M 1159 525 
L 1159 -1331 
L 581 -1331 
L 581 3500 
L 1159 3500 
L 1159 2969 
Q 1341 3281 1617 3432 
Q 1894 3584 2278 3584 
Q 2916 3584 3314 3078 
Q 3713 2572 3713 1747 
Q 3713 922 3314 415 
Q 2916 -91 2278 -91 
Q 1894 -91 1617 61 
Q 1341 213 1159 525 
z
M 3116 1747 
Q 3116 2381 2855 2742 
Q 2594 3103 2138 3103 
Q 1681 3103 1420 2742 
Q 1159 2381 1159 1747 
Q 1159 1113 1420 752 
Q 1681 391 2138 391 
Q 2594 391 2855 752 
Q 3116 1113 3116 1747 
z
" transform="scale(0.015625)"/>
       <path id="DejaVuSans-73" d="M 2834 3397 
L 2834 2853 
Q 2591 2978 2328 3040 
Q 2066 3103 1784 3103 
Q 1356 3103 1142 2972 
Q 928 2841 928 2578 
Q 928 2378 1081 2264 
Q 1234 2150 1697 2047 
L 1894 2003 
Q 2506 1872 2764 1633 
Q 3022 1394 3022 966 
Q 3022 478 2636 193 
Q 2250 -91 1575 -91 
Q 1294 -91 989 -36 
Q 684 19 347 128 
L 347 722 
Q 666 556 975 473 
Q 1284 391 1588 391 
Q 1994 391 2212 530 
Q 2431 669 2431 922 
Q 2431 1156 2273 1281 
Q 2116 1406 1581 1522 
L 1381 1569 
Q 847 1681 609 1914 
Q 372 2147 372 2553 
Q 372 3047 722 3315 
Q 1072 3584 1716 3584 
Q 2034 3584 2315 3537 
Q 2597 3491 2834 3397 
z
" transform="scale(0.015625)"/>
      </defs>
      <use xlink:href="#DejaVuSans-53"/>
      <use xlink:href="#DejaVuSans-74" x="63.476562"/>
      <use xlink:href="#DejaVuSans-65" x="102.685547"/>
      <use xlink:href="#DejaVuSans-70" x="164.208984"/>
      <use xlink:href="#DejaVuSans-73" x="227.685547"/>
     </g>
    </g>
   </g>
   <g id="matplotlib.axis_2">
    <g id="ytick_1">
     <g id="line2d_13">
      <path d="M 144 722.390537 
L 1036.8 722.390537 
" clip-path="url(#p2d93df354e)" style="fill: none; stroke: #b0b0b0; stroke-width: 0.8; stroke-linecap: square"/>
     </g>
     <g id="line2d_14">
      <defs>
       <path id="m864b9b4a63" d="M 0 0 
L -3.5 0 
" style="stroke: #000000; stroke-width: 0.8"/>
      </defs>
      <g>
       <use xlink:href="#m864b9b4a63" x="144" y="722.390537" style="stroke: #000000; stroke-width: 0.8"/>
      </g>
     </g>
     <g id="text_8">
      <!-- −0.3 -->
      <g transform="translate(64.151562 733.788193) scale(0.3 -0.3)">
       <defs>
        <path id="DejaVuSans-2212" d="M 678 2272 
L 4684 2272 
L 4684 1741 
L 678 1741 
L 678 2272 
z
" transform="scale(0.015625)"/>
        <path id="DejaVuSans-2e" d="M 684 794 
L 1344 794 
L 1344 0 
L 684 0 
L 684 794 
z
" transform="scale(0.015625)"/>
       </defs>
       <use xlink:href="#DejaVuSans-2212"/>
       <use xlink:href="#DejaVuSans-30" x="83.789062"/>
       <use xlink:href="#DejaVuSans-2e" x="147.412109"/>
       <use xlink:href="#DejaVuSans-33" x="179.199219"/>
      </g>
     </g>
    </g>
    <g id="ytick_2">
     <g id="line2d_15">
      <path d="M 144 646.796978 
L 1036.8 646.796978 
" clip-path="url(#p2d93df354e)" style="fill: none; stroke: #b0b0b0; stroke-width: 0.8; stroke-linecap: square"/>
     </g>
     <g id="line2d_16">
      <g>
       <use xlink:href="#m864b9b4a63" x="144" y="646.796978" style="stroke: #000000; stroke-width: 0.8"/>
      </g>
     </g>
     <g id="text_9">
      <!-- −0.2 -->
      <g transform="translate(64.151562 658.194635) scale(0.3 -0.3)">
       <use xlink:href="#DejaVuSans-2212"/>
       <use xlink:href="#DejaVuSans-30" x="83.789062"/>
       <use xlink:href="#DejaVuSans-2e" x="147.412109"/>
       <use xlink:href="#DejaVuSans-32" x="179.199219"/>
      </g>
     </g>
    </g>
    <g id="ytick_3">
     <g id="line2d_17">
      <path d="M 144 571.203419 
L 1036.8 571.203419 
" clip-path="url(#p2d93df354e)" style="fill: none; stroke: #b0b0b0; stroke-width: 0.8; stroke-linecap: square"/>
     </g>
     <g id="line2d_18">
      <g>
       <use xlink:href="#m864b9b4a63" x="144" y="571.203419" style="stroke: #000000; stroke-width: 0.8"/>
      </g>
     </g>
     <g id="text_10">
      <!-- −0.1 -->
      <g transform="translate(64.151562 582.601076) scale(0.3 -0.3)">
       <use xlink:href="#DejaVuSans-2212"/>
       <use xlink:href="#DejaVuSans-30" x="83.789062"/>
       <use xlink:href="#DejaVuSans-2e" x="147.412109"/>
       <use xlink:href="#DejaVuSans-31" x="179.199219"/>
      </g>
     </g>
    </g>
    <g id="ytick_4">
     <g id="line2d_19">
      <path d="M 144 495.609861 
L 1036.8 495.609861 
" clip-path="url(#p2d93df354e)" style="fill: none; stroke: #b0b0b0; stroke-width: 0.8; stroke-linecap: square"/>
     </g>
     <g id="line2d_20">
      <g>
       <use xlink:href="#m864b9b4a63" x="144" y="495.609861" style="stroke: #000000; stroke-width: 0.8"/>
      </g>
     </g>
     <g id="text_11">
      <!-- 0.0 -->
      <g transform="translate(89.290625 507.007517) scale(0.3 -0.3)">
       <use xlink:href="#DejaVuSans-30"/>
       <use xlink:href="#DejaVuSans-2e" x="63.623047"/>
       <use xlink:href="#DejaVuSans-30" x="95.410156"/>
      </g>
     </g>
    </g>
    <g id="ytick_5">
     <g id="line2d_21">
      <path d="M 144 420.016302 
L 1036.8 420.016302 
" clip-path="url(#p2d93df354e)" style="fill: none; stroke: #b0b0b0; stroke-width: 0.8; stroke-linecap: square"/>
     </g>
     <g id="line2d_22">
      <g>
       <use xlink:href="#m864b9b4a63" x="144" y="420.016302" style="stroke: #000000; stroke-width: 0.8"/>
      </g>
     </g>
     <g id="text_12">
      <!-- 0.1 -->
      <g transform="translate(89.290625 431.413958) scale(0.3 -0.3)">
       <use xlink:href="#DejaVuSans-30"/>
       <use xlink:href="#DejaVuSans-2e" x="63.623047"/>
       <use xlink:href="#DejaVuSans-31" x="95.410156"/>
      </g>
     </g>
    </g>
    <g id="ytick_6">
     <g id="line2d_23">
      <path d="M 144 344.422743 
L 1036.8 344.422743 
" clip-path="url(#p2d93df354e)" style="fill: none; stroke: #b0b0b0; stroke-width: 0.8; stroke-linecap: square"/>
     </g>
     <g id="line2d_24">
      <g>
       <use xlink:href="#m864b9b4a63" x="144" y="344.422743" style="stroke: #000000; stroke-width: 0.8"/>
      </g>
     </g>
     <g id="text_13">
      <!-- 0.2 -->
      <g transform="translate(89.290625 355.820399) scale(0.3 -0.3)">
       <use xlink:href="#DejaVuSans-30"/>
       <use xlink:href="#DejaVuSans-2e" x="63.623047"/>
       <use xlink:href="#DejaVuSans-32" x="95.410156"/>
      </g>
     </g>
    </g>
    <g id="ytick_7">
     <g id="line2d_25">
      <path d="M 144 268.829184 
L 1036.8 268.829184 
" clip-path="url(#p2d93df354e)" style="fill: none; stroke: #b0b0b0; stroke-width: 0.8; stroke-linecap: square"/>
     </g>
     <g id="line2d_26">
      <g>
       <use xlink:href="#m864b9b4a63" x="144" y="268.829184" style="stroke: #000000; stroke-width: 0.8"/>
      </g>
     </g>
     <g id="text_14">
      <!-- 0.3 -->
      <g transform="translate(89.290625 280.22684) scale(0.3 -0.3)">
       <use xlink:href="#DejaVuSans-30"/>
       <use xlink:href="#DejaVuSans-2e" x="63.623047"/>
       <use xlink:href="#DejaVuSans-33" x="95.410156"/>
      </g>
     </g>
    </g>
    <g id="ytick_8">
     <g id="line2d_27">
      <path d="M 144 193.235625 
L 1036.8 193.235625 
" clip-path="url(#p2d93df354e)" style="fill: none; stroke: #b0b0b0; stroke-width: 0.8; stroke-linecap: square"/>
     </g>
     <g id="line2d_28">
      <g>
       <use xlink:href="#m864b9b4a63" x="144" y="193.235625" style="stroke: #000000; stroke-width: 0.8"/>
      </g>
     </g>
     <g id="text_15">
      <!-- 0.4 -->
      <g transform="translate(89.290625 204.633281) scale(0.3 -0.3)">
       <use xlink:href="#DejaVuSans-30"/>
       <use xlink:href="#DejaVuSans-2e" x="63.623047"/>
       <use xlink:href="#DejaVuSans-34" x="95.410156"/>
      </g>
     </g>
    </g>
    <g id="ytick_9">
     <g id="line2d_29">
      <path d="M 144 117.642066 
L 1036.8 117.642066 
" clip-path="url(#p2d93df354e)" style="fill: none; stroke: #b0b0b0; stroke-width: 0.8; stroke-linecap: square"/>
     </g>
     <g id="line2d_30">
      <g>
       <use xlink:href="#m864b9b4a63" x="144" y="117.642066" style="stroke: #000000; stroke-width: 0.8"/>
      </g>
     </g>
     <g id="text_16">
      <!-- 0.5 -->
      <g transform="translate(89.290625 129.039722) scale(0.3 -0.3)">
       <use xlink:href="#DejaVuSans-30"/>
       <use xlink:href="#DejaVuSans-2e" x="63.623047"/>
       <use xlink:href="#DejaVuSans-35" x="95.410156"/>
      </g>
     </g>
    </g>
    <g id="text_17">
     <!-- Pearson expression -->
     <g transform="translate(51.832812 630.00125) rotate(-90) scale(0.4 -0.4)">
      <defs>
       <path id="DejaVuSans-50" d="M 1259 4147 
L 1259 2394 
L 2053 2394 
Q 2494 2394 2734 2622 
Q 2975 2850 2975 3272 
Q 2975 3691 2734 3919 
Q 2494 4147 2053 4147 
L 1259 4147 
z
M 628 4666 
L 2053 4666 
Q 2838 4666 3239 4311 
Q 3641 3956 3641 3272 
Q 3641 2581 3239 2228 
Q 2838 1875 2053 1875 
L 1259 1875 
L 1259 0 
L 628 0 
L 628 4666 
z
" transform="scale(0.015625)"/>
       <path id="DejaVuSans-61" d="M 2194 1759 
Q 1497 1759 1228 1600 
Q 959 1441 959 1056 
Q 959 750 1161 570 
Q 1363 391 1709 391 
Q 2188 391 2477 730 
Q 2766 1069 2766 1631 
L 2766 1759 
L 2194 1759 
z
M 3341 1997 
L 3341 0 
L 2766 0 
L 2766 531 
Q 2569 213 2275 61 
Q 1981 -91 1556 -91 
Q 1019 -91 701 211 
Q 384 513 384 1019 
Q 384 1609 779 1909 
Q 1175 2209 1959 2209 
L 2766 2209 
L 2766 2266 
Q 2766 2663 2505 2880 
Q 2244 3097 1772 3097 
Q 1472 3097 1187 3025 
Q 903 2953 641 2809 
L 641 3341 
Q 956 3463 1253 3523 
Q 1550 3584 1831 3584 
Q 2591 3584 2966 3190 
Q 3341 2797 3341 1997 
z
" transform="scale(0.015625)"/>
       <path id="DejaVuSans-72" d="M 2631 2963 
Q 2534 3019 2420 3045 
Q 2306 3072 2169 3072 
Q 1681 3072 1420 2755 
Q 1159 2438 1159 1844 
L 1159 0 
L 581 0 
L 581 3500 
L 1159 3500 
L 1159 2956 
Q 1341 3275 1631 3429 
Q 1922 3584 2338 3584 
Q 2397 3584 2469 3576 
Q 2541 3569 2628 3553 
L 2631 2963 
z
" transform="scale(0.015625)"/>
       <path id="DejaVuSans-6f" d="M 1959 3097 
Q 1497 3097 1228 2736 
Q 959 2375 959 1747 
Q 959 1119 1226 758 
Q 1494 397 1959 397 
Q 2419 397 2687 759 
Q 2956 1122 2956 1747 
Q 2956 2369 2687 2733 
Q 2419 3097 1959 3097 
z
M 1959 3584 
Q 2709 3584 3137 3096 
Q 3566 2609 3566 1747 
Q 3566 888 3137 398 
Q 2709 -91 1959 -91 
Q 1206 -91 779 398 
Q 353 888 353 1747 
Q 353 2609 779 3096 
Q 1206 3584 1959 3584 
z
" transform="scale(0.015625)"/>
       <path id="DejaVuSans-6e" d="M 3513 2113 
L 3513 0 
L 2938 0 
L 2938 2094 
Q 2938 2591 2744 2837 
Q 2550 3084 2163 3084 
Q 1697 3084 1428 2787 
Q 1159 2491 1159 1978 
L 1159 0 
L 581 0 
L 581 3500 
L 1159 3500 
L 1159 2956 
Q 1366 3272 1645 3428 
Q 1925 3584 2291 3584 
Q 2894 3584 3203 3211 
Q 3513 2838 3513 2113 
z
" transform="scale(0.015625)"/>
       <path id="DejaVuSans-20" transform="scale(0.015625)"/>
       <path id="DejaVuSans-78" d="M 3513 3500 
L 2247 1797 
L 3578 0 
L 2900 0 
L 1881 1375 
L 863 0 
L 184 0 
L 1544 1831 
L 300 3500 
L 978 3500 
L 1906 2253 
L 2834 3500 
L 3513 3500 
z
" transform="scale(0.015625)"/>
       <path id="DejaVuSans-69" d="M 603 3500 
L 1178 3500 
L 1178 0 
L 603 0 
L 603 3500 
z
M 603 4863 
L 1178 4863 
L 1178 4134 
L 603 4134 
L 603 4863 
z
" transform="scale(0.015625)"/>
      </defs>
      <use xlink:href="#DejaVuSans-50"/>
      <use xlink:href="#DejaVuSans-65" x="56.677734"/>
      <use xlink:href="#DejaVuSans-61" x="118.201172"/>
      <use xlink:href="#DejaVuSans-72" x="179.480469"/>
      <use xlink:href="#DejaVuSans-73" x="220.59375"/>
      <use xlink:href="#DejaVuSans-6f" x="272.693359"/>
      <use xlink:href="#DejaVuSans-6e" x="333.875"/>
      <use xlink:href="#DejaVuSans-20" x="397.253906"/>
      <use xlink:href="#DejaVuSans-65" x="429.041016"/>
      <use xlink:href="#DejaVuSans-78" x="488.814453"/>
      <use xlink:href="#DejaVuSans-70" x="547.994141"/>
      <use xlink:href="#DejaVuSans-72" x="611.470703"/>
      <use xlink:href="#DejaVuSans-65" x="650.333984"/>
      <use xlink:href="#DejaVuSans-73" x="711.857422"/>
      <use xlink:href="#DejaVuSans-73" x="763.957031"/>
      <use xlink:href="#DejaVuSans-69" x="816.056641"/>
      <use xlink:href="#DejaVuSans-6f" x="843.839844"/>
      <use xlink:href="#DejaVuSans-6e" x="905.021484"/>
     </g>
    </g>
   </g>
   <g id="line2d_31">
    <path d="M 184.581818 738.72 
L 185.936804 388.51822 
L 187.291789 268.873293 
L 188.646775 435.612537 
L 190.001761 418.705101 
L 191.356746 372.903929 
L 192.711732 336.621743 
L 195.421703 281.484207 
L 196.776688 355.823126 
L 198.131674 343.356808 
L 199.48666 329.821005 
L 200.841645 313.849002 
L 202.196631 299.716859 
L 203.551616 296.683954 
L 204.906602 289.689682 
L 207.616573 272.057458 
L 208.971559 265.287369 
L 210.326544 259.145034 
L 211.68153 251.20353 
L 213.036515 247.21624 
L 214.391501 268.227085 
L 215.746487 268.031427 
L 217.101472 265.325598 
L 218.456458 263.226188 
L 219.811443 261.721839 
L 221.166429 258.861523 
L 222.521414 254.938271 
L 223.8764 249.180019 
L 225.231386 229.327749 
L 227.941357 240.405809 
L 229.296342 214.784146 
L 230.651328 208.725228 
L 232.006314 208.892518 
L 234.716285 211.03865 
L 236.07127 212.730364 
L 237.426256 182.575539 
L 238.781241 179.548357 
L 240.136227 178.084819 
L 241.491213 178.478694 
L 242.846198 179.094486 
L 244.201184 175.104263 
L 245.556169 173.428962 
L 246.911155 173.317909 
L 248.266141 173.752765 
L 250.976112 173.256009 
L 252.331097 174.695209 
L 253.686083 173.764086 
L 255.041068 153.910368 
L 256.396054 149.62113 
L 257.75104 147.434695 
L 259.106025 144.903085 
L 260.461011 141.981706 
L 261.815996 140.426185 
L 263.170982 140.07802 
L 264.525968 141.826405 
L 265.880953 141.566951 
L 267.235939 139.064615 
L 268.590924 137.249762 
L 271.300895 135.065157 
L 272.655881 134.621006 
L 274.010867 134.051889 
L 275.365852 133.92 
L 278.075823 134.973006 
L 279.430809 135.237245 
L 282.14078 135.246209 
L 290.270694 135.344657 
L 301.110578 135.486554 
L 316.01542 135.629518 
L 353.955016 135.637332 
L 996.218182 135.637332 
L 996.218182 135.637332 
" clip-path="url(#p2d93df354e)" style="fill: none; stroke: #1f77b4; stroke-width: 4; stroke-linecap: square"/>
   </g>
   <g id="line2d_32">
    <path d="M 184.581818 334.263813 
L 185.936804 334.946441 
L 187.291789 263.811327 
L 188.646775 225.929526 
L 190.001761 206.532062 
L 191.356746 243.402259 
L 192.711732 235.329472 
L 194.066717 247.540068 
L 195.421703 245.796088 
L 196.776688 236.44388 
L 198.131674 281.576205 
L 199.48666 284.228145 
L 200.841645 282.949756 
L 202.196631 291.658477 
L 204.906602 274.599786 
L 206.261587 281.770181 
L 207.616573 306.266148 
L 208.971559 299.124829 
L 210.326544 294.419146 
L 211.68153 289.143197 
L 213.036515 288.068263 
L 214.391501 282.759017 
L 217.101472 273.210818 
L 222.521414 255.18088 
L 223.8764 252.857844 
L 226.586371 240.527269 
L 227.941357 241.450477 
L 229.296342 242.610053 
L 230.651328 243.03283 
L 232.006314 233.409746 
L 233.361299 232.097774 
L 234.716285 225.882518 
L 236.07127 222.814254 
L 237.426256 222.387103 
L 238.781241 202.652398 
L 240.136227 196.908893 
L 241.491213 192.707031 
L 242.846198 183.92036 
L 244.201184 183.018124 
L 245.556169 182.948877 
L 246.911155 174.425896 
L 248.266141 155.029545 
L 249.621126 154.016638 
L 250.976112 151.856062 
L 252.331097 150.41433 
L 253.686083 146.243584 
L 256.396054 144.507594 
L 257.75104 143.827488 
L 260.461011 142.918964 
L 261.815996 143.270502 
L 263.170982 143.469957 
L 264.525968 141.940942 
L 268.590924 140.921727 
L 269.94591 140.665911 
L 272.655881 140.617539 
L 275.365852 140.099796 
L 280.785795 139.926185 
L 286.205737 139.642994 
L 301.110578 139.275667 
L 316.01542 139.153452 
L 363.439915 139.201408 
L 996.218182 139.201408 
L 996.218182 139.201408 
" clip-path="url(#p2d93df354e)" style="fill: none; stroke: #ff7f0e; stroke-width: 4; stroke-linecap: square"/>
   </g>
   <g id="line2d_33">
    <path d="M 184.581818 634.016384 
L 185.936804 385.96576 
L 187.291789 363.489803 
L 188.646775 426.701637 
L 190.001761 381.657192 
L 192.711732 526.828421 
L 194.066717 533.71947 
L 195.421703 538.72591 
L 196.776688 546.456347 
L 199.48666 556.594169 
L 200.841645 559.978031 
L 203.551616 561.696238 
L 204.906602 561.112843 
L 206.261587 561.717191 
L 207.616573 561.861527 
L 213.036515 556.247564 
L 214.391501 554.313336 
L 215.746487 552.585723 
L 218.456458 552.067544 
L 219.811443 550.982479 
L 221.166429 548.310356 
L 222.521414 544.266704 
L 223.8764 542.22733 
L 225.231386 537.409785 
L 226.586371 548.39754 
L 227.941357 554.051787 
L 229.296342 547.507268 
L 230.651328 553.460895 
L 232.006314 536.557586 
L 233.361299 513.734901 
L 234.716285 506.032517 
L 236.07127 501.914581 
L 237.426256 490.513967 
L 238.781241 480.340769 
L 240.136227 473.149253 
L 241.491213 464.298849 
L 244.201184 455.277513 
L 245.556169 454.343139 
L 246.911155 448.952222 
L 248.266141 453.279437 
L 249.621126 461.377853 
L 250.976112 454.800246 
L 252.331097 447.012817 
L 253.686083 446.72199 
L 255.041068 436.077433 
L 256.396054 429.149409 
L 257.75104 420.952579 
L 259.106025 420.387428 
L 260.461011 422.540247 
L 261.815996 420.591458 
L 264.525968 421.888695 
L 265.880953 426.825018 
L 267.235939 424.774594 
L 268.590924 427.536047 
L 269.94591 427.471743 
L 271.300895 430.33727 
L 272.655881 431.363033 
L 274.010867 438.865588 
L 275.365852 443.241642 
L 276.720838 441.919694 
L 278.075823 440.372663 
L 279.430809 444.357455 
L 280.785795 447.979659 
L 282.14078 456.077563 
L 283.495766 457.51797 
L 284.850751 457.609299 
L 286.205737 455.214225 
L 287.560722 458.501967 
L 288.915708 457.841604 
L 290.270694 450.679993 
L 292.980665 461.398423 
L 294.33565 460.85767 
L 295.690636 470.444602 
L 297.045621 476.7508 
L 298.400607 484.568611 
L 301.110578 482.482295 
L 302.465564 483.395636 
L 303.820549 487.5667 
L 305.175535 486.469311 
L 307.885506 475.12782 
L 309.240492 472.544955 
L 310.595477 472.454248 
L 311.950463 469.594981 
L 313.305448 473.787973 
L 314.660434 472.329286 
L 316.01542 469.487764 
L 317.370405 470.819424 
L 318.725391 479.827516 
L 320.080376 480.86231 
L 321.435362 474.723781 
L 322.790348 469.509116 
L 324.145333 471.501043 
L 325.500319 472.571256 
L 326.855304 471.189544 
L 328.21029 468.617782 
L 329.565275 461.573219 
L 330.920261 463.664183 
L 332.275247 465.03329 
L 333.630232 465.386377 
L 334.985218 465.3136 
L 336.340203 466.373139 
L 337.695189 464.333072 
L 339.050175 463.251084 
L 340.40516 466.12268 
L 341.760146 463.525392 
L 343.115131 464.503461 
L 344.470117 461.792527 
L 345.825102 461.481816 
L 347.180088 465.524059 
L 348.535074 472.80581 
L 349.890059 473.863183 
L 351.245045 471.569352 
L 352.60003 474.738789 
L 353.955016 477.552639 
L 355.310002 478.451104 
L 356.664987 482.246137 
L 358.019973 483.421286 
L 359.374958 486.689195 
L 360.729944 486.975093 
L 362.084929 495.344951 
L 363.439915 496.037216 
L 364.794901 495.134915 
L 366.149886 496.178832 
L 367.504872 498.445105 
L 368.859857 501.725276 
L 370.214843 494.469296 
L 371.569829 490.306552 
L 372.924814 489.784118 
L 374.2798 490.378693 
L 375.634785 489.904847 
L 376.989771 488.776778 
L 378.344756 492.902628 
L 379.699742 489.683689 
L 381.054728 486.027216 
L 382.409713 487.10871 
L 383.764699 487.399081 
L 385.119684 485.832782 
L 386.47467 488.488115 
L 387.829655 487.052746 
L 389.184641 488.539499 
L 390.539627 487.431408 
L 391.894612 493.103325 
L 393.249598 489.55917 
L 394.604583 490.857884 
L 395.959569 490.857884 
L 397.314555 491.549801 
L 398.66954 491.213111 
L 400.024526 488.126159 
L 401.379511 489.945194 
L 402.734497 486.335152 
L 404.089482 489.496 
L 405.444468 488.623088 
L 406.799454 488.100581 
L 408.154439 490.828186 
L 409.509425 490.443678 
L 410.86441 498.921135 
L 412.219396 498.371896 
L 413.574382 494.409327 
L 414.929367 493.956346 
L 416.284353 493.956346 
L 417.639338 497.873968 
L 418.994324 496.802697 
L 420.349309 498.44461 
L 421.704295 493.489235 
L 423.059281 490.360834 
L 424.414266 490.920596 
L 425.769252 498.617312 
L 427.124237 499.824284 
L 428.479223 500.170629 
L 429.834209 501.990209 
L 431.189194 502.060078 
L 432.54418 501.157159 
L 433.899165 505.990044 
L 435.254151 501.756438 
L 436.609136 501.818312 
L 437.964122 500.030531 
L 440.674093 500.883698 
L 442.029079 501.027204 
L 443.384064 506.302922 
L 444.73905 509.142413 
L 446.094036 509.142413 
L 447.449021 508.444842 
L 448.804007 500.676939 
L 450.158992 491.57429 
L 451.513978 491.57429 
L 452.868963 491.813739 
L 454.223949 494.783571 
L 455.578935 495.297515 
L 456.93392 495.297515 
L 458.288906 492.466236 
L 459.643891 492.844459 
L 460.998877 494.857009 
L 462.353862 499.447617 
L 463.708848 502.237684 
L 465.063834 502.237684 
L 466.418819 495.659187 
L 467.773805 483.554345 
L 470.483776 479.362583 
L 471.838762 479.362583 
L 473.193747 480.638848 
L 474.548733 480.638848 
L 475.903718 480.160872 
L 477.258704 478.888932 
L 478.613689 477.394818 
L 479.968675 477.075382 
L 481.323661 468.00866 
L 484.033632 453.349383 
L 485.388617 446.145047 
L 486.743603 446.145047 
L 488.098589 444.712337 
L 489.453574 449.782227 
L 490.80856 466.28464 
L 492.163545 466.28464 
L 493.518531 466.7075 
L 494.873516 474.025673 
L 496.228502 478.32184 
L 497.583488 480.021238 
L 498.938473 479.004734 
L 500.293459 471.592119 
L 501.648444 477.001138 
L 503.00343 476.705849 
L 504.358416 475.242343 
L 505.713401 477.667525 
L 507.068387 469.465405 
L 508.423372 473.226751 
L 509.778358 470.633197 
L 512.488329 470.633197 
L 513.843315 468.456973 
L 515.1983 468.456973 
L 516.553286 467.332761 
L 517.908271 471.738876 
L 519.263257 472.61904 
L 520.618243 471.059954 
L 521.973228 476.055768 
L 523.328214 476.731979 
L 524.683199 477.779653 
L 526.038185 477.957207 
L 527.39317 477.957207 
L 528.748156 479.993294 
L 530.103142 479.993294 
L 531.458127 465.622468 
L 532.813113 458.990029 
L 534.168098 455.765301 
L 535.523084 450.156851 
L 536.87807 454.625388 
L 538.233055 452.040359 
L 539.588041 453.162456 
L 540.943026 457.452575 
L 542.298012 450.624594 
L 543.652997 456.0372 
L 545.007983 460.224661 
L 546.362969 456.695699 
L 547.717954 474.383882 
L 549.07294 478.842476 
L 550.427925 476.576503 
L 551.782911 468.691021 
L 553.137896 466.974688 
L 554.492882 462.64679 
L 555.847868 462.64679 
L 557.202853 467.510445 
L 558.557839 462.64988 
L 559.912824 462.64988 
L 561.26781 463.041568 
L 562.622796 467.209394 
L 563.977781 482.423368 
L 565.332767 481.463971 
L 568.042738 481.463971 
L 569.397723 489.013052 
L 570.752709 491.539292 
L 572.107695 508.573731 
L 573.46268 529.498098 
L 574.817666 535.205015 
L 576.172651 539.879555 
L 577.527637 531.65255 
L 578.882623 531.65255 
L 580.237608 516.425352 
L 581.592594 497.550943 
L 582.947579 502.749667 
L 584.302565 504.477501 
L 585.65755 503.066706 
L 587.012536 503.066706 
L 588.367522 495.11858 
L 589.722507 496.259336 
L 591.077493 483.908928 
L 592.432478 493.198526 
L 593.787464 511.549954 
L 595.14245 519.726961 
L 596.497435 519.726961 
L 597.852421 515.152997 
L 599.207406 516.171 
L 601.917377 516.171 
L 603.272363 509.304773 
L 604.627349 500.241482 
L 605.982334 500.241482 
L 607.33732 503.503721 
L 608.692305 498.449432 
L 611.402277 485.339688 
L 612.757262 480.801859 
L 614.112248 468.122708 
L 615.467233 469.307719 
L 616.822219 473.643512 
L 618.177204 484.675237 
L 619.53219 484.675237 
L 620.887176 497.087927 
L 622.242161 514.82484 
L 623.597147 493.400352 
L 624.952132 485.756902 
L 629.017089 485.756902 
L 630.372075 491.124288 
L 631.72706 508.659373 
L 633.082046 510.78103 
L 634.437031 492.494002 
L 637.147003 492.494002 
L 638.501988 494.096258 
L 639.856974 491.145274 
L 641.211959 491.74309 
L 642.566945 491.74309 
L 643.92193 498.486765 
L 646.631902 498.392744 
L 647.986887 492.886467 
L 649.341873 478.315121 
L 650.696858 473.34992 
L 652.051844 480.779631 
L 653.40683 480.779631 
L 654.761815 488.219131 
L 656.116801 488.082044 
L 657.471786 460.06685 
L 658.826772 427.157828 
L 660.181757 445.966618 
L 661.536743 449.190947 
L 662.891729 449.190947 
L 664.246714 501.488946 
L 669.666657 501.488946 
L 671.021642 490.499984 
L 672.376628 490.499984 
L 673.731613 487.249935 
L 675.086599 489.423755 
L 680.506541 489.423755 
L 681.861527 487.741931 
L 683.216512 487.741931 
L 684.571498 468.073342 
L 688.636455 468.073342 
L 689.99144 501.333121 
L 692.701411 501.333121 
L 694.056397 499.149731 
L 695.411383 491.146174 
L 696.766368 491.146174 
L 698.121354 523.078699 
L 699.476339 523.078699 
L 700.831325 455.38815 
L 702.186311 417.875501 
L 703.541296 426.004284 
L 704.896282 372.023055 
L 707.606253 372.023055 
L 708.961238 383.65499 
L 715.736166 383.65499 
L 717.091152 396.869859 
L 718.446138 396.869859 
L 719.801123 382.662035 
L 723.86608 382.662035 
L 725.221065 386.737064 
L 726.576051 386.737064 
L 727.931037 401.960674 
L 729.286022 401.960674 
L 730.641008 392.205023 
L 731.995993 427.778278 
L 733.350979 427.778278 
L 734.705964 423.255235 
L 736.06095 428.864715 
L 737.415936 428.864715 
L 738.770921 430.922259 
L 740.125907 421.850342 
L 741.480892 442.900951 
L 742.835878 461.877644 
L 744.190864 464.731417 
L 746.900835 464.731417 
L 748.25582 447.719763 
L 749.610806 447.147079 
L 750.965791 455.576968 
L 752.320777 460.461886 
L 753.675763 462.25137 
L 755.030748 462.25137 
L 756.385734 468.713937 
L 757.740719 467.124706 
L 759.095705 469.971122 
L 760.450691 481.128408 
L 764.515647 481.128408 
L 765.870633 478.049485 
L 767.225618 478.049485 
L 768.580604 474.785194 
L 771.290575 474.785194 
L 772.645561 456.509877 
L 774.000546 456.509877 
L 775.355532 465.107934 
L 776.710518 463.921092 
L 778.065503 466.121859 
L 779.420489 467.340539 
L 780.775474 478.222892 
L 782.13046 478.222892 
L 783.485445 478.771118 
L 784.840431 476.725818 
L 787.550402 476.725818 
L 788.905388 501.811933 
L 790.260373 501.811933 
L 791.615359 498.351576 
L 792.970345 499.242209 
L 794.32533 530.37194 
L 795.680316 509.514804 
L 797.035301 505.586395 
L 798.390287 502.221096 
L 799.745272 501.788966 
L 801.100258 508.756633 
L 802.455244 508.756633 
L 803.810229 513.723896 
L 805.165215 513.723896 
L 806.5202 520.838658 
L 809.230171 520.838658 
L 810.585157 519.377704 
L 811.940143 521.217458 
L 814.650114 521.217458 
L 816.005099 518.623928 
L 817.360085 518.623928 
L 818.715071 520.798333 
L 820.070056 518.896388 
L 821.425042 524.417129 
L 822.780027 521.456743 
L 824.135013 514.881076 
L 825.489998 503.523508 
L 828.19997 503.523508 
L 829.554955 497.745579 
L 830.909941 495.610359 
L 832.264926 495.610359 
L 833.619912 493.427083 
L 834.974898 458.026371 
L 836.329883 472.85471 
L 837.684869 472.85471 
L 839.039854 475.636702 
L 840.39484 475.636702 
L 841.749825 473.254059 
L 843.104811 473.827314 
L 844.459797 465.233089 
L 845.814782 465.233089 
L 847.169768 464.572578 
L 848.524753 478.975215 
L 849.879739 478.975215 
L 851.234725 476.896029 
L 852.58971 469.036518 
L 855.299681 469.036518 
L 856.654667 472.345249 
L 858.009652 472.345249 
L 859.364638 473.325349 
L 860.719624 471.429708 
L 862.074609 471.049331 
L 863.429595 469.809099 
L 864.78458 472.395448 
L 866.139566 482.988205 
L 867.494552 482.988205 
L 868.849537 486.808206 
L 870.204523 486.808206 
L 871.559508 480.421855 
L 872.914494 481.682904 
L 874.269479 481.682904 
L 875.624465 491.3279 
L 876.979451 491.3279 
L 878.334436 490.475771 
L 879.689422 489.799858 
L 881.044407 489.799858 
L 882.399393 487.288809 
L 883.754379 487.885116 
L 885.109364 489.879091 
L 886.46435 489.879091 
L 887.819335 487.947675 
L 889.174321 474.360716 
L 891.884292 476.787181 
L 893.239278 485.56839 
L 895.949249 485.56839 
L 897.304234 483.637315 
L 898.65922 485.36378 
L 900.014205 497.452192 
L 901.369191 497.452192 
L 902.724177 500.032807 
L 904.079162 500.032807 
L 905.434148 506.317395 
L 908.144119 506.317395 
L 909.499105 504.066312 
L 910.85409 499.595924 
L 912.209076 509.66567 
L 913.564061 510.950688 
L 916.274032 510.950688 
L 917.629018 509.996957 
L 918.984004 510.628803 
L 921.693975 510.628803 
L 923.04896 515.976062 
L 924.403946 515.976062 
L 925.758932 516.217091 
L 927.113917 515.478699 
L 928.468903 507.658222 
L 929.823888 507.658222 
L 932.533859 511.552775 
L 933.888845 503.892452 
L 937.953802 503.892452 
L 939.308787 503.57975 
L 940.663773 485.424918 
L 942.018759 484.714022 
L 943.373744 486.831023 
L 944.72873 485.070368 
L 948.793686 485.070368 
L 950.148672 485.587615 
L 951.503658 488.657172 
L 952.858643 487.176468 
L 956.9236 487.176468 
L 958.278586 485.755193 
L 959.633571 485.574525 
L 966.408499 485.574525 
L 967.763485 482.251862 
L 969.11847 491.051596 
L 975.893398 491.051596 
L 977.248384 497.548597 
L 979.958355 497.548597 
L 981.31334 495.123326 
L 982.668326 497.687588 
L 984.023312 496.4717 
L 985.378297 510.528965 
L 988.088268 510.528965 
L 989.443254 511.561702 
L 990.798239 515.722027 
L 992.153225 515.722027 
L 993.508211 513.982957 
L 994.863196 513.982957 
L 996.218182 521.2546 
L 996.218182 521.2546 
" clip-path="url(#p2d93df354e)" style="fill: none; stroke: #2ca02c; stroke-width: 4; stroke-linecap: square"/>
   </g>
   <g id="line2d_34"/>
   <g id="line2d_35"/>
   <g id="line2d_36"/>
   <g id="patch_3">
    <path d="M 144 768.96 
L 144 103.68 
" style="fill: none; stroke: #000000; stroke-width: 0.8; stroke-linejoin: miter; stroke-linecap: square"/>
   </g>
   <g id="patch_4">
    <path d="M 1036.8 768.96 
L 1036.8 103.68 
" style="fill: none; stroke: #000000; stroke-width: 0.8; stroke-linejoin: miter; stroke-linecap: square"/>
   </g>
   <g id="patch_5">
    <path d="M 144 768.96 
L 1036.8 768.96 
" style="fill: none; stroke: #000000; stroke-width: 0.8; stroke-linejoin: miter; stroke-linecap: square"/>
   </g>
   <g id="patch_6">
    <path d="M 144 103.68 
L 1036.8 103.68 
" style="fill: none; stroke: #000000; stroke-width: 0.8; stroke-linejoin: miter; stroke-linecap: square"/>
   </g>
   <g id="text_18">
    <!-- client2 -->
    <g transform="translate(488.915625 91.201875) scale(0.6 -0.6)">
     <defs>
      <path id="DejaVuSans-63" d="M 3122 3366 
L 3122 2828 
Q 2878 2963 2633 3030 
Q 2388 3097 2138 3097 
Q 1578 3097 1268 2742 
Q 959 2388 959 1747 
Q 959 1106 1268 751 
Q 1578 397 2138 397 
Q 2388 397 2633 464 
Q 2878 531 3122 666 
L 3122 134 
Q 2881 22 2623 -34 
Q 2366 -91 2075 -91 
Q 1284 -91 818 406 
Q 353 903 353 1747 
Q 353 2603 823 3093 
Q 1294 3584 2113 3584 
Q 2378 3584 2631 3529 
Q 2884 3475 3122 3366 
z
" transform="scale(0.015625)"/>
      <path id="DejaVuSans-6c" d="M 603 4863 
L 1178 4863 
L 1178 0 
L 603 0 
L 603 4863 
z
" transform="scale(0.015625)"/>
     </defs>
     <use xlink:href="#DejaVuSans-63"/>
     <use xlink:href="#DejaVuSans-6c" x="54.980469"/>
     <use xlink:href="#DejaVuSans-69" x="82.763672"/>
     <use xlink:href="#DejaVuSans-65" x="110.546875"/>
     <use xlink:href="#DejaVuSans-6e" x="172.070312"/>
     <use xlink:href="#DejaVuSans-74" x="235.449219"/>
     <use xlink:href="#DejaVuSans-32" x="274.658203"/>
    </g>
   </g>
   <g id="legend_1">
    <g id="patch_7">
     <path d="M 352.5625 748.96 
L 1008.8 748.96 
Q 1016.8 748.96 1016.8 740.96 
L 1016.8 567.71 
Q 1016.8 559.71 1008.8 559.71 
L 352.5625 559.71 
Q 344.5625 559.71 344.5625 567.71 
L 344.5625 740.96 
Q 344.5625 748.96 352.5625 748.96 
z
" style="fill: #ffffff; opacity: 0.8; stroke: #cccccc; stroke-linejoin: miter"/>
    </g>
    <g id="line2d_37">
     <path d="M 360.5625 592.10375 
L 400.5625 592.10375 
L 440.5625 592.10375 
" style="fill: none; stroke: #1f77b4; stroke-width: 4; stroke-linecap: square"/>
    </g>
    <g id="text_19">
     <!-- fedavg_private_regressors -->
     <g transform="translate(472.5625 606.10375) scale(0.4 -0.4)">
      <defs>
       <path id="DejaVuSans-66" d="M 2375 4863 
L 2375 4384 
L 1825 4384 
Q 1516 4384 1395 4259 
Q 1275 4134 1275 3809 
L 1275 3500 
L 2222 3500 
L 2222 3053 
L 1275 3053 
L 1275 0 
L 697 0 
L 697 3053 
L 147 3053 
L 147 3500 
L 697 3500 
L 697 3744 
Q 697 4328 969 4595 
Q 1241 4863 1831 4863 
L 2375 4863 
z
" transform="scale(0.015625)"/>
       <path id="DejaVuSans-64" d="M 2906 2969 
L 2906 4863 
L 3481 4863 
L 3481 0 
L 2906 0 
L 2906 525 
Q 2725 213 2448 61 
Q 2172 -91 1784 -91 
Q 1150 -91 751 415 
Q 353 922 353 1747 
Q 353 2572 751 3078 
Q 1150 3584 1784 3584 
Q 2172 3584 2448 3432 
Q 2725 3281 2906 2969 
z
M 947 1747 
Q 947 1113 1208 752 
Q 1469 391 1925 391 
Q 2381 391 2643 752 
Q 2906 1113 2906 1747 
Q 2906 2381 2643 2742 
Q 2381 3103 1925 3103 
Q 1469 3103 1208 2742 
Q 947 2381 947 1747 
z
" transform="scale(0.015625)"/>
       <path id="DejaVuSans-76" d="M 191 3500 
L 800 3500 
L 1894 563 
L 2988 3500 
L 3597 3500 
L 2284 0 
L 1503 0 
L 191 3500 
z
" transform="scale(0.015625)"/>
       <path id="DejaVuSans-67" d="M 2906 1791 
Q 2906 2416 2648 2759 
Q 2391 3103 1925 3103 
Q 1463 3103 1205 2759 
Q 947 2416 947 1791 
Q 947 1169 1205 825 
Q 1463 481 1925 481 
Q 2391 481 2648 825 
Q 2906 1169 2906 1791 
z
M 3481 434 
Q 3481 -459 3084 -895 
Q 2688 -1331 1869 -1331 
Q 1566 -1331 1297 -1286 
Q 1028 -1241 775 -1147 
L 775 -588 
Q 1028 -725 1275 -790 
Q 1522 -856 1778 -856 
Q 2344 -856 2625 -561 
Q 2906 -266 2906 331 
L 2906 616 
Q 2728 306 2450 153 
Q 2172 0 1784 0 
Q 1141 0 747 490 
Q 353 981 353 1791 
Q 353 2603 747 3093 
Q 1141 3584 1784 3584 
Q 2172 3584 2450 3431 
Q 2728 3278 2906 2969 
L 2906 3500 
L 3481 3500 
L 3481 434 
z
" transform="scale(0.015625)"/>
       <path id="DejaVuSans-5f" d="M 3263 -1063 
L 3263 -1509 
L -63 -1509 
L -63 -1063 
L 3263 -1063 
z
" transform="scale(0.015625)"/>
      </defs>
      <use xlink:href="#DejaVuSans-66"/>
      <use xlink:href="#DejaVuSans-65" x="35.205078"/>
      <use xlink:href="#DejaVuSans-64" x="96.728516"/>
      <use xlink:href="#DejaVuSans-61" x="160.205078"/>
      <use xlink:href="#DejaVuSans-76" x="221.484375"/>
      <use xlink:href="#DejaVuSans-67" x="280.664062"/>
      <use xlink:href="#DejaVuSans-5f" x="344.140625"/>
      <use xlink:href="#DejaVuSans-70" x="394.140625"/>
      <use xlink:href="#DejaVuSans-72" x="457.617188"/>
      <use xlink:href="#DejaVuSans-69" x="498.730469"/>
      <use xlink:href="#DejaVuSans-76" x="526.513672"/>
      <use xlink:href="#DejaVuSans-61" x="585.693359"/>
      <use xlink:href="#DejaVuSans-74" x="646.972656"/>
      <use xlink:href="#DejaVuSans-65" x="686.181641"/>
      <use xlink:href="#DejaVuSans-5f" x="747.705078"/>
      <use xlink:href="#DejaVuSans-72" x="797.705078"/>
      <use xlink:href="#DejaVuSans-65" x="836.568359"/>
      <use xlink:href="#DejaVuSans-67" x="898.091797"/>
      <use xlink:href="#DejaVuSans-72" x="961.568359"/>
      <use xlink:href="#DejaVuSans-65" x="1000.431641"/>
      <use xlink:href="#DejaVuSans-73" x="1061.955078"/>
      <use xlink:href="#DejaVuSans-73" x="1114.054688"/>
      <use xlink:href="#DejaVuSans-6f" x="1166.154297"/>
      <use xlink:href="#DejaVuSans-72" x="1227.335938"/>
      <use xlink:href="#DejaVuSans-73" x="1268.449219"/>
     </g>
    </g>
    <g id="line2d_38">
     <path d="M 360.5625 651.92875 
L 400.5625 651.92875 
L 440.5625 651.92875 
" style="fill: none; stroke: #ff7f0e; stroke-width: 4; stroke-linecap: square"/>
    </g>
    <g id="text_20">
     <!-- fedavg -->
     <g transform="translate(472.5625 665.92875) scale(0.4 -0.4)">
      <use xlink:href="#DejaVuSans-66"/>
      <use xlink:href="#DejaVuSans-65" x="35.205078"/>
      <use xlink:href="#DejaVuSans-64" x="96.728516"/>
      <use xlink:href="#DejaVuSans-61" x="160.205078"/>
      <use xlink:href="#DejaVuSans-76" x="221.484375"/>
      <use xlink:href="#DejaVuSans-67" x="280.664062"/>
     </g>
    </g>
    <g id="line2d_39">
     <path d="M 360.5625 710.64125 
L 400.5625 710.64125 
L 440.5625 710.64125 
" style="fill: none; stroke: #2ca02c; stroke-width: 4; stroke-linecap: square"/>
    </g>
    <g id="text_21">
     <!-- local -->
     <g transform="translate(472.5625 724.64125) scale(0.4 -0.4)">
      <use xlink:href="#DejaVuSans-6c"/>
      <use xlink:href="#DejaVuSans-6f" x="27.783203"/>
      <use xlink:href="#DejaVuSans-63" x="88.964844"/>
      <use xlink:href="#DejaVuSans-61" x="143.945312"/>
      <use xlink:href="#DejaVuSans-6c" x="205.224609"/>
     </g>
    </g>
   </g>
  </g>
 </g>
 <defs>
  <clipPath id="p2d93df354e">
   <rect x="144" y="103.68" width="892.8" height="665.28"/>
  </clipPath>
 </defs>
</svg>
