<?xml version="1.0" encoding="utf-8" standalone="no"?>
<!DOCTYPE svg PUBLIC "-//W3C//DTD SVG 1.1//EN"
  "http://www.w3.org/Graphics/SVG/1.1/DTD/svg11.dtd">
<svg xmlns:xlink="http://www.w3.org/1999/xlink" width="864pt" height="576pt" viewBox="0 0 864 576" xmlns="http://www.w3.org/2000/svg" version="1.1">
 <metadata>
  <rdf:RDF xmlns:dc="http://purl.org/dc/elements/1.1/" xmlns:cc="http://creativecommons.org/ns#" xmlns:rdf="http://www.w3.org/1999/02/22-rdf-syntax-ns#">
   <cc:Work>
    <dc:type rdf:resource="http://purl.org/dc/dcmitype/StillImage"/>
    <dc:date>2025-04-25T14:18:11.560797</dc:date>
    <dc:format>image/svg+xml</dc:format>
    <dc:creator>
     <cc:Agent>
      <dc:title>Matplotlib v3.8.2, https://matplotlib.org/</dc:title>
     </cc:Agent>
    </dc:creator>
   </cc:Work>
  </rdf:RDF>
 </metadata>
 <defs>
  <style type="text/css">*{stroke-linejoin: round; stroke-linecap: butt}</style>
 </defs>
 <g id="figure_1">
  <g id="patch_1">
   <path d="M 0 576 
L 864 576 
L 864 0 
L 0 0 
z
" style="fill: #ffffff"/>
  </g>
  <g id="axes_1">
   <g id="patch_2">
    <path d="M 108 512.64 
L 777.6 512.64 
L 777.6 69.12 
L 108 69.12 
z
" style="fill: #ffffff"/>
   </g>
   <g id="PolyCollection_1"/>
   <g id="PolyCollection_2"/>
   <g id="PolyCollection_3"/>
   <g id="matplotlib.axis_1">
    <g id="xtick_1">
     <g id="line2d_1">
      <path d="M 137.420124 512.64 
L 137.420124 69.12 
" clip-path="url(#p3b72bef14d)" style="fill: none; stroke: #b0b0b0; stroke-width: 0.8; stroke-linecap: square"/>
     </g>
     <g id="line2d_2">
      <defs>
       <path id="m20da4b404e" d="M 0 0 
L 0 3.5 
" style="stroke: #000000; stroke-width: 0.8"/>
      </defs>
      <g>
       <use xlink:href="#m20da4b404e" x="137.420124" y="512.64" style="stroke: #000000; stroke-width: 0.8"/>
      </g>
     </g>
     <g id="text_1">
      <!-- 0 -->
      <g transform="translate(127.876374 542.435313) scale(0.3 -0.3)">
       <defs>
        <path id="DejaVuSans-30" d="M 2034 4250 
Q 1547 4250 1301 3770 
Q 1056 3291 1056 2328 
Q 1056 1369 1301 889 
Q 1547 409 2034 409 
Q 2525 409 2770 889 
Q 3016 1369 3016 2328 
Q 3016 3291 2770 3770 
Q 2525 4250 2034 4250 
z
M 2034 4750 
Q 2819 4750 3233 4129 
Q 3647 3509 3647 2328 
Q 3647 1150 3233 529 
Q 2819 -91 2034 -91 
Q 1250 -91 836 529 
Q 422 1150 422 2328 
Q 422 3509 836 4129 
Q 1250 4750 2034 4750 
z
" transform="scale(0.015625)"/>
       </defs>
       <use xlink:href="#DejaVuSans-30"/>
      </g>
     </g>
    </g>
    <g id="xtick_2">
     <g id="line2d_3">
      <path d="M 250.33559 512.64 
L 250.33559 69.12 
" clip-path="url(#p3b72bef14d)" style="fill: none; stroke: #b0b0b0; stroke-width: 0.8; stroke-linecap: square"/>
     </g>
     <g id="line2d_4">
      <g>
       <use xlink:href="#m20da4b404e" x="250.33559" y="512.64" style="stroke: #000000; stroke-width: 0.8"/>
      </g>
     </g>
     <g id="text_2">
      <!-- 1000 -->
      <g transform="translate(212.16059 542.435313) scale(0.3 -0.3)">
       <defs>
        <path id="DejaVuSans-31" d="M 794 531 
L 1825 531 
L 1825 4091 
L 703 3866 
L 703 4441 
L 1819 4666 
L 2450 4666 
L 2450 531 
L 3481 531 
L 3481 0 
L 794 0 
L 794 531 
z
" transform="scale(0.015625)"/>
       </defs>
       <use xlink:href="#DejaVuSans-31"/>
       <use xlink:href="#DejaVuSans-30" x="63.623047"/>
       <use xlink:href="#DejaVuSans-30" x="127.246094"/>
       <use xlink:href="#DejaVuSans-30" x="190.869141"/>
      </g>
     </g>
    </g>
    <g id="xtick_3">
     <g id="line2d_5">
      <path d="M 363.251055 512.64 
L 363.251055 69.12 
" clip-path="url(#p3b72bef14d)" style="fill: none; stroke: #b0b0b0; stroke-width: 0.8; stroke-linecap: square"/>
     </g>
     <g id="line2d_6">
      <g>
       <use xlink:href="#m20da4b404e" x="363.251055" y="512.64" style="stroke: #000000; stroke-width: 0.8"/>
      </g>
     </g>
     <g id="text_3">
      <!-- 2000 -->
      <g transform="translate(325.076055 542.435313) scale(0.3 -0.3)">
       <defs>
        <path id="DejaVuSans-32" d="M 1228 531 
L 3431 531 
L 3431 0 
L 469 0 
L 469 531 
Q 828 903 1448 1529 
Q 2069 2156 2228 2338 
Q 2531 2678 2651 2914 
Q 2772 3150 2772 3378 
Q 2772 3750 2511 3984 
Q 2250 4219 1831 4219 
Q 1534 4219 1204 4116 
Q 875 4013 500 3803 
L 500 4441 
Q 881 4594 1212 4672 
Q 1544 4750 1819 4750 
Q 2544 4750 2975 4387 
Q 3406 4025 3406 3419 
Q 3406 3131 3298 2873 
Q 3191 2616 2906 2266 
Q 2828 2175 2409 1742 
Q 1991 1309 1228 531 
z
" transform="scale(0.015625)"/>
       </defs>
       <use xlink:href="#DejaVuSans-32"/>
       <use xlink:href="#DejaVuSans-30" x="63.623047"/>
       <use xlink:href="#DejaVuSans-30" x="127.246094"/>
       <use xlink:href="#DejaVuSans-30" x="190.869141"/>
      </g>
     </g>
    </g>
    <g id="xtick_4">
     <g id="line2d_7">
      <path d="M 476.16652 512.64 
L 476.16652 69.12 
" clip-path="url(#p3b72bef14d)" style="fill: none; stroke: #b0b0b0; stroke-width: 0.8; stroke-linecap: square"/>
     </g>
     <g id="line2d_8">
      <g>
       <use xlink:href="#m20da4b404e" x="476.16652" y="512.64" style="stroke: #000000; stroke-width: 0.8"/>
      </g>
     </g>
     <g id="text_4">
      <!-- 3000 -->
      <g transform="translate(437.99152 542.435313) scale(0.3 -0.3)">
       <defs>
        <path id="DejaVuSans-33" d="M 2597 2516 
Q 3050 2419 3304 2112 
Q 3559 1806 3559 1356 
Q 3559 666 3084 287 
Q 2609 -91 1734 -91 
Q 1441 -91 1130 -33 
Q 819 25 488 141 
L 488 750 
Q 750 597 1062 519 
Q 1375 441 1716 441 
Q 2309 441 2620 675 
Q 2931 909 2931 1356 
Q 2931 1769 2642 2001 
Q 2353 2234 1838 2234 
L 1294 2234 
L 1294 2753 
L 1863 2753 
Q 2328 2753 2575 2939 
Q 2822 3125 2822 3475 
Q 2822 3834 2567 4026 
Q 2313 4219 1838 4219 
Q 1578 4219 1281 4162 
Q 984 4106 628 3988 
L 628 4550 
Q 988 4650 1302 4700 
Q 1616 4750 1894 4750 
Q 2613 4750 3031 4423 
Q 3450 4097 3450 3541 
Q 3450 3153 3228 2886 
Q 3006 2619 2597 2516 
z
" transform="scale(0.015625)"/>
       </defs>
       <use xlink:href="#DejaVuSans-33"/>
       <use xlink:href="#DejaVuSans-30" x="63.623047"/>
       <use xlink:href="#DejaVuSans-30" x="127.246094"/>
       <use xlink:href="#DejaVuSans-30" x="190.869141"/>
      </g>
     </g>
    </g>
    <g id="xtick_5">
     <g id="line2d_9">
      <path d="M 589.081985 512.64 
L 589.081985 69.12 
" clip-path="url(#p3b72bef14d)" style="fill: none; stroke: #b0b0b0; stroke-width: 0.8; stroke-linecap: square"/>
     </g>
     <g id="line2d_10">
      <g>
       <use xlink:href="#m20da4b404e" x="589.081985" y="512.64" style="stroke: #000000; stroke-width: 0.8"/>
      </g>
     </g>
     <g id="text_5">
      <!-- 4000 -->
      <g transform="translate(550.906985 542.435313) scale(0.3 -0.3)">
       <defs>
        <path id="DejaVuSans-34" d="M 2419 4116 
L 825 1625 
L 2419 1625 
L 2419 4116 
z
M 2253 4666 
L 3047 4666 
L 3047 1625 
L 3713 1625 
L 3713 1100 
L 3047 1100 
L 3047 0 
L 2419 0 
L 2419 1100 
L 313 1100 
L 313 1709 
L 2253 4666 
z
" transform="scale(0.015625)"/>
       </defs>
       <use xlink:href="#DejaVuSans-34"/>
       <use xlink:href="#DejaVuSans-30" x="63.623047"/>
       <use xlink:href="#DejaVuSans-30" x="127.246094"/>
       <use xlink:href="#DejaVuSans-30" x="190.869141"/>
      </g>
     </g>
    </g>
    <g id="xtick_6">
     <g id="line2d_11">
      <path d="M 701.99745 512.64 
L 701.99745 69.12 
" clip-path="url(#p3b72bef14d)" style="fill: none; stroke: #b0b0b0; stroke-width: 0.8; stroke-linecap: square"/>
     </g>
     <g id="line2d_12">
      <g>
       <use xlink:href="#m20da4b404e" x="701.99745" y="512.64" style="stroke: #000000; stroke-width: 0.8"/>
      </g>
     </g>
     <g id="text_6">
      <!-- 5000 -->
      <g transform="translate(663.82245 542.435313) scale(0.3 -0.3)">
       <defs>
        <path id="DejaVuSans-35" d="M 691 4666 
L 3169 4666 
L 3169 4134 
L 1269 4134 
L 1269 2991 
Q 1406 3038 1543 3061 
Q 1681 3084 1819 3084 
Q 2600 3084 3056 2656 
Q 3513 2228 3513 1497 
Q 3513 744 3044 326 
Q 2575 -91 1722 -91 
Q 1428 -91 1123 -41 
Q 819 9 494 109 
L 494 744 
Q 775 591 1075 516 
Q 1375 441 1709 441 
Q 2250 441 2565 725 
Q 2881 1009 2881 1497 
Q 2881 1984 2565 2268 
Q 2250 2553 1709 2553 
Q 1456 2553 1204 2497 
Q 953 2441 691 2322 
L 691 4666 
z
" transform="scale(0.015625)"/>
       </defs>
       <use xlink:href="#DejaVuSans-35"/>
       <use xlink:href="#DejaVuSans-30" x="63.623047"/>
       <use xlink:href="#DejaVuSans-30" x="127.246094"/>
       <use xlink:href="#DejaVuSans-30" x="190.869141"/>
      </g>
     </g>
    </g>
    <g id="text_7">
     <!-- Steps -->
     <g transform="translate(386.840625 583.068125) scale(0.4 -0.4)">
      <defs>
       <path id="DejaVuSans-53" d="M 3425 4513 
L 3425 3897 
Q 3066 4069 2747 4153 
Q 2428 4238 2131 4238 
Q 1616 4238 1336 4038 
Q 1056 3838 1056 3469 
Q 1056 3159 1242 3001 
Q 1428 2844 1947 2747 
L 2328 2669 
Q 3034 2534 3370 2195 
Q 3706 1856 3706 1288 
Q 3706 609 3251 259 
Q 2797 -91 1919 -91 
Q 1588 -91 1214 -16 
Q 841 59 441 206 
L 441 856 
Q 825 641 1194 531 
Q 1563 422 1919 422 
Q 2459 422 2753 634 
Q 3047 847 3047 1241 
Q 3047 1584 2836 1778 
Q 2625 1972 2144 2069 
L 1759 2144 
Q 1053 2284 737 2584 
Q 422 2884 422 3419 
Q 422 4038 858 4394 
Q 1294 4750 2059 4750 
Q 2388 4750 2728 4690 
Q 3069 4631 3425 4513 
z
" transform="scale(0.015625)"/>
       <path id="DejaVuSans-74" d="M 1172 4494 
L 1172 3500 
L 2356 3500 
L 2356 3053 
L 1172 3053 
L 1172 1153 
Q 1172 725 1289 603 
Q 1406 481 1766 481 
L 2356 481 
L 2356 0 
L 1766 0 
Q 1100 0 847 248 
Q 594 497 594 1153 
L 594 3053 
L 172 3053 
L 172 3500 
L 594 3500 
L 594 4494 
L 1172 4494 
z
" transform="scale(0.015625)"/>
       <path id="DejaVuSans-65" d="M 3597 1894 
L 3597 1613 
L 953 1613 
Q 991 1019 1311 708 
Q 1631 397 2203 397 
Q 2534 397 2845 478 
Q 3156 559 3463 722 
L 3463 178 
Q 3153 47 2828 -22 
Q 2503 -91 2169 -91 
Q 1331 -91 842 396 
Q 353 884 353 1716 
Q 353 2575 817 3079 
Q 1281 3584 2069 3584 
Q 2775 3584 3186 3129 
Q 3597 2675 3597 1894 
z
M 3022 2063 
Q 3016 2534 2758 2815 
Q 2500 3097 2075 3097 
Q 1594 3097 1305 2825 
Q 1016 2553 972 2059 
L 3022 2063 
z
" transform="scale(0.015625)"/>
       <path id="DejaVuSans-70" d="M 1159 525 
L 1159 -1331 
L 581 -1331 
L 581 3500 
L 1159 3500 
L 1159 2969 
Q 1341 3281 1617 3432 
Q 1894 3584 2278 3584 
Q 2916 3584 3314 3078 
Q 3713 2572 3713 1747 
Q 3713 922 3314 415 
Q 2916 -91 2278 -91 
Q 1894 -91 1617 61 
Q 1341 213 1159 525 
z
M 3116 1747 
Q 3116 2381 2855 2742 
Q 2594 3103 2138 3103 
Q 1681 3103 1420 2742 
Q 1159 2381 1159 1747 
Q 1159 1113 1420 752 
Q 1681 391 2138 391 
Q 2594 391 2855 752 
Q 3116 1113 3116 1747 
z
" transform="scale(0.015625)"/>
       <path id="DejaVuSans-73" d="M 2834 3397 
L 2834 2853 
Q 2591 2978 2328 3040 
Q 2066 3103 1784 3103 
Q 1356 3103 1142 2972 
Q 928 2841 928 2578 
Q 928 2378 1081 2264 
Q 1234 2150 1697 2047 
L 1894 2003 
Q 2506 1872 2764 1633 
Q 3022 1394 3022 966 
Q 3022 478 2636 193 
Q 2250 -91 1575 -91 
Q 1294 -91 989 -36 
Q 684 19 347 128 
L 347 722 
Q 666 556 975 473 
Q 1284 391 1588 391 
Q 1994 391 2212 530 
Q 2431 669 2431 922 
Q 2431 1156 2273 1281 
Q 2116 1406 1581 1522 
L 1381 1569 
Q 847 1681 609 1914 
Q 372 2147 372 2553 
Q 372 3047 722 3315 
Q 1072 3584 1716 3584 
Q 2034 3584 2315 3537 
Q 2597 3491 2834 3397 
z
" transform="scale(0.015625)"/>
      </defs>
      <use xlink:href="#DejaVuSans-53"/>
      <use xlink:href="#DejaVuSans-74" x="63.476562"/>
      <use xlink:href="#DejaVuSans-65" x="102.685547"/>
      <use xlink:href="#DejaVuSans-70" x="164.208984"/>
      <use xlink:href="#DejaVuSans-73" x="227.685547"/>
     </g>
    </g>
   </g>
   <g id="matplotlib.axis_2">
    <g id="ytick_1">
     <g id="line2d_13">
      <path d="M 108 444.376568 
L 777.6 444.376568 
" clip-path="url(#p3b72bef14d)" style="fill: none; stroke: #b0b0b0; stroke-width: 0.8; stroke-linecap: square"/>
     </g>
     <g id="line2d_14">
      <defs>
       <path id="m03f5c59711" d="M 0 0 
L -3.5 0 
" style="stroke: #000000; stroke-width: 0.8"/>
      </defs>
      <g>
       <use xlink:href="#m03f5c59711" x="108" y="444.376568" style="stroke: #000000; stroke-width: 0.8"/>
      </g>
     </g>
     <g id="text_8">
      <!-- −0.4 -->
      <g transform="translate(28.151562 455.774224) scale(0.3 -0.3)">
       <defs>
        <path id="DejaVuSans-2212" d="M 678 2272 
L 4684 2272 
L 4684 1741 
L 678 1741 
L 678 2272 
z
" transform="scale(0.015625)"/>
        <path id="DejaVuSans-2e" d="M 684 794 
L 1344 794 
L 1344 0 
L 684 0 
L 684 794 
z
" transform="scale(0.015625)"/>
       </defs>
       <use xlink:href="#DejaVuSans-2212"/>
       <use xlink:href="#DejaVuSans-30" x="83.789062"/>
       <use xlink:href="#DejaVuSans-2e" x="147.412109"/>
       <use xlink:href="#DejaVuSans-34" x="179.199219"/>
      </g>
     </g>
    </g>
    <g id="ytick_2">
     <g id="line2d_15">
      <path d="M 108 372.272972 
L 777.6 372.272972 
" clip-path="url(#p3b72bef14d)" style="fill: none; stroke: #b0b0b0; stroke-width: 0.8; stroke-linecap: square"/>
     </g>
     <g id="line2d_16">
      <g>
       <use xlink:href="#m03f5c59711" x="108" y="372.272972" style="stroke: #000000; stroke-width: 0.8"/>
      </g>
     </g>
     <g id="text_9">
      <!-- −0.2 -->
      <g transform="translate(28.151562 383.670628) scale(0.3 -0.3)">
       <use xlink:href="#DejaVuSans-2212"/>
       <use xlink:href="#DejaVuSans-30" x="83.789062"/>
       <use xlink:href="#DejaVuSans-2e" x="147.412109"/>
       <use xlink:href="#DejaVuSans-32" x="179.199219"/>
      </g>
     </g>
    </g>
    <g id="ytick_3">
     <g id="line2d_17">
      <path d="M 108 300.169376 
L 777.6 300.169376 
" clip-path="url(#p3b72bef14d)" style="fill: none; stroke: #b0b0b0; stroke-width: 0.8; stroke-linecap: square"/>
     </g>
     <g id="line2d_18">
      <g>
       <use xlink:href="#m03f5c59711" x="108" y="300.169376" style="stroke: #000000; stroke-width: 0.8"/>
      </g>
     </g>
     <g id="text_10">
      <!-- 0.0 -->
      <g transform="translate(53.290625 311.567032) scale(0.3 -0.3)">
       <use xlink:href="#DejaVuSans-30"/>
       <use xlink:href="#DejaVuSans-2e" x="63.623047"/>
       <use xlink:href="#DejaVuSans-30" x="95.410156"/>
      </g>
     </g>
    </g>
    <g id="ytick_4">
     <g id="line2d_19">
      <path d="M 108 228.06578 
L 777.6 228.06578 
" clip-path="url(#p3b72bef14d)" style="fill: none; stroke: #b0b0b0; stroke-width: 0.8; stroke-linecap: square"/>
     </g>
     <g id="line2d_20">
      <g>
       <use xlink:href="#m03f5c59711" x="108" y="228.06578" style="stroke: #000000; stroke-width: 0.8"/>
      </g>
     </g>
     <g id="text_11">
      <!-- 0.2 -->
      <g transform="translate(53.290625 239.463436) scale(0.3 -0.3)">
       <use xlink:href="#DejaVuSans-30"/>
       <use xlink:href="#DejaVuSans-2e" x="63.623047"/>
       <use xlink:href="#DejaVuSans-32" x="95.410156"/>
      </g>
     </g>
    </g>
    <g id="ytick_5">
     <g id="line2d_21">
      <path d="M 108 155.962183 
L 777.6 155.962183 
" clip-path="url(#p3b72bef14d)" style="fill: none; stroke: #b0b0b0; stroke-width: 0.8; stroke-linecap: square"/>
     </g>
     <g id="line2d_22">
      <g>
       <use xlink:href="#m03f5c59711" x="108" y="155.962183" style="stroke: #000000; stroke-width: 0.8"/>
      </g>
     </g>
     <g id="text_12">
      <!-- 0.4 -->
      <g transform="translate(53.290625 167.35984) scale(0.3 -0.3)">
       <use xlink:href="#DejaVuSans-30"/>
       <use xlink:href="#DejaVuSans-2e" x="63.623047"/>
       <use xlink:href="#DejaVuSans-34" x="95.410156"/>
      </g>
     </g>
    </g>
    <g id="ytick_6">
     <g id="line2d_23">
      <path d="M 108 83.858587 
L 777.6 83.858587 
" clip-path="url(#p3b72bef14d)" style="fill: none; stroke: #b0b0b0; stroke-width: 0.8; stroke-linecap: square"/>
     </g>
     <g id="line2d_24">
      <g>
       <use xlink:href="#m03f5c59711" x="108" y="83.858587" style="stroke: #000000; stroke-width: 0.8"/>
      </g>
     </g>
     <g id="text_13">
      <!-- 0.6 -->
      <g transform="translate(53.290625 95.256244) scale(0.3 -0.3)">
       <defs>
        <path id="DejaVuSans-36" d="M 2113 2584 
Q 1688 2584 1439 2293 
Q 1191 2003 1191 1497 
Q 1191 994 1439 701 
Q 1688 409 2113 409 
Q 2538 409 2786 701 
Q 3034 994 3034 1497 
Q 3034 2003 2786 2293 
Q 2538 2584 2113 2584 
z
M 3366 4563 
L 3366 3988 
Q 3128 4100 2886 4159 
Q 2644 4219 2406 4219 
Q 1781 4219 1451 3797 
Q 1122 3375 1075 2522 
Q 1259 2794 1537 2939 
Q 1816 3084 2150 3084 
Q 2853 3084 3261 2657 
Q 3669 2231 3669 1497 
Q 3669 778 3244 343 
Q 2819 -91 2113 -91 
Q 1303 -91 875 529 
Q 447 1150 447 2328 
Q 447 3434 972 4092 
Q 1497 4750 2381 4750 
Q 2619 4750 2861 4703 
Q 3103 4656 3366 4563 
z
" transform="scale(0.015625)"/>
       </defs>
       <use xlink:href="#DejaVuSans-30"/>
       <use xlink:href="#DejaVuSans-2e" x="63.623047"/>
       <use xlink:href="#DejaVuSans-36" x="95.410156"/>
      </g>
     </g>
    </g>
    <g id="text_14">
     <!-- Pearson expression -->
     <g transform="translate(15.832812 484.56125) rotate(-90) scale(0.4 -0.4)">
      <defs>
       <path id="DejaVuSans-50" d="M 1259 4147 
L 1259 2394 
L 2053 2394 
Q 2494 2394 2734 2622 
Q 2975 2850 2975 3272 
Q 2975 3691 2734 3919 
Q 2494 4147 2053 4147 
L 1259 4147 
z
M 628 4666 
L 2053 4666 
Q 2838 4666 3239 4311 
Q 3641 3956 3641 3272 
Q 3641 2581 3239 2228 
Q 2838 1875 2053 1875 
L 1259 1875 
L 1259 0 
L 628 0 
L 628 4666 
z
" transform="scale(0.015625)"/>
       <path id="DejaVuSans-61" d="M 2194 1759 
Q 1497 1759 1228 1600 
Q 959 1441 959 1056 
Q 959 750 1161 570 
Q 1363 391 1709 391 
Q 2188 391 2477 730 
Q 2766 1069 2766 1631 
L 2766 1759 
L 2194 1759 
z
M 3341 1997 
L 3341 0 
L 2766 0 
L 2766 531 
Q 2569 213 2275 61 
Q 1981 -91 1556 -91 
Q 1019 -91 701 211 
Q 384 513 384 1019 
Q 384 1609 779 1909 
Q 1175 2209 1959 2209 
L 2766 2209 
L 2766 2266 
Q 2766 2663 2505 2880 
Q 2244 3097 1772 3097 
Q 1472 3097 1187 3025 
Q 903 2953 641 2809 
L 641 3341 
Q 956 3463 1253 3523 
Q 1550 3584 1831 3584 
Q 2591 3584 2966 3190 
Q 3341 2797 3341 1997 
z
" transform="scale(0.015625)"/>
       <path id="DejaVuSans-72" d="M 2631 2963 
Q 2534 3019 2420 3045 
Q 2306 3072 2169 3072 
Q 1681 3072 1420 2755 
Q 1159 2438 1159 1844 
L 1159 0 
L 581 0 
L 581 3500 
L 1159 3500 
L 1159 2956 
Q 1341 3275 1631 3429 
Q 1922 3584 2338 3584 
Q 2397 3584 2469 3576 
Q 2541 3569 2628 3553 
L 2631 2963 
z
" transform="scale(0.015625)"/>
       <path id="DejaVuSans-6f" d="M 1959 3097 
Q 1497 3097 1228 2736 
Q 959 2375 959 1747 
Q 959 1119 1226 758 
Q 1494 397 1959 397 
Q 2419 397 2687 759 
Q 2956 1122 2956 1747 
Q 2956 2369 2687 2733 
Q 2419 3097 1959 3097 
z
M 1959 3584 
Q 2709 3584 3137 3096 
Q 3566 2609 3566 1747 
Q 3566 888 3137 398 
Q 2709 -91 1959 -91 
Q 1206 -91 779 398 
Q 353 888 353 1747 
Q 353 2609 779 3096 
Q 1206 3584 1959 3584 
z
" transform="scale(0.015625)"/>
       <path id="DejaVuSans-6e" d="M 3513 2113 
L 3513 0 
L 2938 0 
L 2938 2094 
Q 2938 2591 2744 2837 
Q 2550 3084 2163 3084 
Q 1697 3084 1428 2787 
Q 1159 2491 1159 1978 
L 1159 0 
L 581 0 
L 581 3500 
L 1159 3500 
L 1159 2956 
Q 1366 3272 1645 3428 
Q 1925 3584 2291 3584 
Q 2894 3584 3203 3211 
Q 3513 2838 3513 2113 
z
" transform="scale(0.015625)"/>
       <path id="DejaVuSans-20" transform="scale(0.015625)"/>
       <path id="DejaVuSans-78" d="M 3513 3500 
L 2247 1797 
L 3578 0 
L 2900 0 
L 1881 1375 
L 863 0 
L 184 0 
L 1544 1831 
L 300 3500 
L 978 3500 
L 1906 2253 
L 2834 3500 
L 3513 3500 
z
" transform="scale(0.015625)"/>
       <path id="DejaVuSans-69" d="M 603 3500 
L 1178 3500 
L 1178 0 
L 603 0 
L 603 3500 
z
M 603 4863 
L 1178 4863 
L 1178 4134 
L 603 4134 
L 603 4863 
z
" transform="scale(0.015625)"/>
      </defs>
      <use xlink:href="#DejaVuSans-50"/>
      <use xlink:href="#DejaVuSans-65" x="56.677734"/>
      <use xlink:href="#DejaVuSans-61" x="118.201172"/>
      <use xlink:href="#DejaVuSans-72" x="179.480469"/>
      <use xlink:href="#DejaVuSans-73" x="220.59375"/>
      <use xlink:href="#DejaVuSans-6f" x="272.693359"/>
      <use xlink:href="#DejaVuSans-6e" x="333.875"/>
      <use xlink:href="#DejaVuSans-20" x="397.253906"/>
      <use xlink:href="#DejaVuSans-65" x="429.041016"/>
      <use xlink:href="#DejaVuSans-78" x="488.814453"/>
      <use xlink:href="#DejaVuSans-70" x="547.994141"/>
      <use xlink:href="#DejaVuSans-72" x="611.470703"/>
      <use xlink:href="#DejaVuSans-65" x="650.333984"/>
      <use xlink:href="#DejaVuSans-73" x="711.857422"/>
      <use xlink:href="#DejaVuSans-73" x="763.957031"/>
      <use xlink:href="#DejaVuSans-69" x="816.056641"/>
      <use xlink:href="#DejaVuSans-6f" x="843.839844"/>
      <use xlink:href="#DejaVuSans-6e" x="905.021484"/>
     </g>
    </g>
   </g>
   <g id="line2d_25">
    <path d="M 138.436364 214.024426 
L 139.452603 243.045811 
L 140.468842 268.391395 
L 141.485081 308.034447 
L 142.50132 277.775397 
L 143.51756 281.52899 
L 145.550038 253.995089 
L 146.566277 276.321338 
L 147.582516 290.613208 
L 148.598756 281.676892 
L 149.614995 270.759761 
L 150.631234 268.582802 
L 151.647473 269.983679 
L 152.663712 276.569159 
L 153.679951 287.25854 
L 154.696191 295.17214 
L 155.71243 302.102311 
L 156.728669 305.05474 
L 157.744908 307.458002 
L 158.761147 314.45401 
L 159.777387 320.458643 
L 161.809865 334.466641 
L 163.842343 346.945873 
L 165.874822 356.93239 
L 167.9073 365.534096 
L 168.923539 374.853263 
L 169.939778 382.271576 
L 170.956018 388.140646 
L 171.972257 390.227576 
L 172.988496 401.414299 
L 174.004735 407.828344 
L 176.037214 429.400196 
L 177.053453 430.736826 
L 178.069692 433.382514 
L 179.085931 443.58509 
L 180.10217 455.267675 
L 181.118409 463.690398 
L 182.134649 470.621556 
L 183.150888 474.793206 
L 184.167127 476.282321 
L 186.199605 480.991856 
L 188.232084 489.868771 
L 189.248323 491.063267 
L 190.264562 492.48 
L 191.280801 492.468326 
L 193.31328 491.792954 
L 194.329519 491.215219 
L 195.345758 490.857531 
L 196.361997 490.197088 
L 198.394476 488.211115 
L 202.459432 483.919768 
L 205.50815 480.067793 
L 208.556868 475.732804 
L 212.621824 469.829004 
L 215.670542 465.811136 
L 218.719259 462.186283 
L 220.751738 459.766568 
L 223.800455 456.659768 
L 225.832934 455.04336 
L 226.849173 454.583139 
L 227.865412 454.377539 
L 228.881651 454.39443 
L 231.930369 453.543967 
L 232.946608 453.366071 
L 237.011565 453.233583 
L 250.222674 453.337756 
L 747.163636 453.337756 
L 747.163636 453.337756 
" clip-path="url(#p3b72bef14d)" style="fill: none; stroke: #1f77b4; stroke-width: 4; stroke-linecap: square"/>
   </g>
   <g id="line2d_26">
    <path d="M 138.436364 323.906008 
L 139.452603 402.854971 
L 140.468842 397.272057 
L 141.485081 377.661393 
L 142.50132 339.103278 
L 144.533799 283.182768 
L 145.550038 263.212328 
L 146.566277 257.384517 
L 147.582516 252.532297 
L 148.598756 243.273623 
L 149.614995 237.690729 
L 150.631234 237.380205 
L 151.647473 238.547342 
L 152.663712 238.826536 
L 153.679951 240.463181 
L 155.71243 231.22024 
L 157.744908 222.599818 
L 159.777387 215.882561 
L 163.842343 206.240957 
L 167.9073 197.733082 
L 168.923539 191.397736 
L 169.939778 179.739326 
L 170.956018 171.33268 
L 171.972257 165.120152 
L 172.988496 163.406347 
L 174.004735 162.346141 
L 176.037214 162.908536 
L 178.069692 157.690973 
L 179.085931 157.013005 
L 180.10217 155.421971 
L 181.118409 151.957068 
L 184.167127 139.442584 
L 186.199605 137.571476 
L 189.248323 135.900914 
L 190.264562 135.245233 
L 192.297041 133.39302 
L 195.345758 131.411986 
L 196.361997 130.792945 
L 198.394476 130.31382 
L 201.443193 129.953421 
L 205.50815 129.58361 
L 213.638063 129.611897 
L 216.686781 129.753473 
L 221.767977 129.875205 
L 226.849173 130.054408 
L 294.937198 130.192386 
L 747.163636 130.192386 
L 747.163636 130.192386 
" clip-path="url(#p3b72bef14d)" style="fill: none; stroke: #ff7f0e; stroke-width: 4; stroke-linecap: square"/>
   </g>
   <g id="line2d_27">
    <path d="M 138.436364 248.122602 
L 139.452603 349.712616 
L 140.468842 279.470222 
L 142.50132 300.350885 
L 143.51756 315.306308 
L 144.533799 321.634412 
L 145.550038 323.84571 
L 146.566277 324.05174 
L 147.582516 322.321938 
L 149.614995 314.575483 
L 151.647473 308.194366 
L 153.679951 303.011717 
L 155.71243 298.852537 
L 157.744908 295.414703 
L 159.777387 292.601271 
L 161.809865 290.281645 
L 163.842343 288.306923 
L 167.9073 284.813724 
L 168.923539 285.098334 
L 169.939778 278.475649 
L 170.956018 282.118378 
L 171.972257 279.504785 
L 172.988496 276.190105 
L 174.004735 271.102775 
L 175.020974 266.913371 
L 177.053453 260.073153 
L 178.069692 257.385369 
L 184.167127 246.291025 
L 186.199605 241.975779 
L 188.232084 237.136811 
L 190.264562 231.501221 
L 192.297041 224.812463 
L 195.345758 213.957964 
L 196.361997 211.682482 
L 199.410715 229.607425 
L 200.426954 234.739241 
L 201.443193 238.869175 
L 202.459432 241.781461 
L 203.475672 243.074236 
L 204.491911 243.102954 
L 205.50815 242.65741 
L 207.540628 241.419642 
L 208.556868 240.843138 
L 209.573107 239.939054 
L 210.589346 238.549071 
L 211.605585 236.707891 
L 213.638063 232.075031 
L 217.70302 222.687617 
L 219.735499 218.54327 
L 220.751738 216.911582 
L 221.767977 215.715007 
L 222.784216 214.32464 
L 223.800455 214.505891 
L 224.816694 215.349057 
L 225.832934 218.019175 
L 226.849173 222.821228 
L 228.881651 202.54676 
L 229.89789 200.945398 
L 230.91413 196.802905 
L 231.930369 188.545599 
L 233.962847 177.310989 
L 234.979086 173.8845 
L 235.995326 176.206187 
L 237.011565 180.640878 
L 238.027804 187.237848 
L 239.044043 185.269141 
L 241.076521 202.620658 
L 243.109 224.305459 
L 244.125239 227.647778 
L 245.141478 229.812106 
L 246.157717 228.575264 
L 247.173957 227.735612 
L 248.190196 227.300948 
L 250.222674 225.363517 
L 251.238913 237.328501 
L 252.255153 246.212171 
L 253.271392 247.68187 
L 254.287631 248.598975 
L 255.30387 248.776203 
L 256.320109 254.16906 
L 257.336348 253.452258 
L 258.352588 261.577333 
L 259.368827 261.115672 
L 260.385066 252.800602 
L 261.401305 247.70769 
L 262.417544 252.448881 
L 263.433784 251.787731 
L 264.450023 253.194698 
L 265.466262 254.366243 
L 266.482501 250.166114 
L 267.49874 243.088444 
L 268.51498 237.224396 
L 269.531219 236.053331 
L 270.547458 232.852555 
L 271.563697 225.87706 
L 273.596175 201.713623 
L 274.612415 197.126983 
L 275.628654 193.759103 
L 276.644893 193.876606 
L 277.661132 193.628425 
L 278.677371 192.980308 
L 279.693611 192.86839 
L 280.70985 192.888295 
L 281.726089 179.824519 
L 282.742328 169.683033 
L 283.758567 167.314106 
L 285.791046 160.949121 
L 286.807285 150.840806 
L 287.823524 143.36862 
L 288.839763 134.233014 
L 289.856002 132.469902 
L 291.888481 129.748712 
L 292.90472 123.704589 
L 293.920959 121.879623 
L 294.937198 119.252276 
L 296.969677 113.140825 
L 297.985916 111.099359 
L 299.002155 105.740275 
L 300.018394 104.341833 
L 301.034633 94.259568 
L 302.050873 89.28 
L 303.067112 93.942767 
L 304.083351 96.978905 
L 305.09959 102.609416 
L 306.115829 115.291001 
L 307.132069 126.168195 
L 308.148308 135.786895 
L 310.180786 146.021799 
L 314.245743 169.087804 
L 316.278221 181.277508 
L 317.29446 187.134425 
L 319.326939 205.755111 
L 330.50557 310.327859 
L 332.538048 328.067496 
L 333.554287 330.622007 
L 334.570527 335.576098 
L 335.586766 338.2059 
L 336.603005 334.122305 
L 337.619244 332.060496 
L 338.635483 331.421122 
L 339.651723 335.527387 
L 340.667962 339.144604 
L 342.70044 345.821386 
L 343.716679 349.133709 
L 345.749158 354.37235 
L 347.781636 360.809089 
L 348.797875 360.824937 
L 350.830354 359.860958 
L 353.879071 358.778307 
L 355.91155 357.889618 
L 356.927789 357.26076 
L 358.960267 355.527942 
L 359.976506 355.477318 
L 360.992745 355.825485 
L 363.025224 356.85927 
L 364.041463 357.325216 
L 367.090181 359.250925 
L 370.138898 360.507835 
L 371.155137 361.170584 
L 374.203855 363.843669 
L 375.220094 364.557797 
L 378.268812 366.146186 
L 381.317529 368.416248 
L 383.350008 370.306611 
L 384.366247 371.506186 
L 387.414964 375.803367 
L 389.447443 379.187849 
L 391.479921 382.741332 
L 393.512399 385.978371 
L 394.528639 387.299788 
L 395.544878 388.311443 
L 396.561117 389.12039 
L 398.593595 390.365912 
L 399.609835 390.854693 
L 401.642313 391.308146 
L 408.755987 390.965687 
L 410.788466 390.357231 
L 412.820944 389.337343 
L 413.837183 388.706537 
L 417.90214 385.355843 
L 418.918379 384.580321 
L 420.950857 382.617766 
L 421.967097 381.565925 
L 422.983336 380.33077 
L 426.032053 376.253865 
L 428.064532 373.872554 
L 429.080771 372.831552 
L 433.145728 369.177615 
L 434.161967 368.029593 
L 435.178206 366.528448 
L 436.194445 364.482035 
L 437.210684 363.153249 
L 438.226924 362.286109 
L 439.243163 361.743405 
L 440.259402 361.381042 
L 441.275641 361.317452 
L 442.29188 361.464475 
L 445.340598 362.262174 
L 446.356837 362.314468 
L 447.373076 362.164584 
L 448.389316 362.283118 
L 449.405555 358.489927 
L 450.421794 360.768498 
L 451.438033 360.23104 
L 452.454272 356.128342 
L 453.470511 357.5181 
L 455.50299 362.872076 
L 457.535468 367.306978 
L 460.584186 371.943619 
L 462.616664 373.638066 
L 463.632903 372.011953 
L 464.649143 371.871639 
L 465.665382 373.040218 
L 468.714099 379.780667 
L 469.730338 380.577408 
L 470.746578 382.310624 
L 471.762817 383.036011 
L 474.811534 382.518962 
L 475.827774 382.924512 
L 476.844013 381.454785 
L 477.860252 375.089789 
L 478.876491 367.485003 
L 479.89273 366.094553 
L 480.908969 359.124261 
L 481.925209 356.460704 
L 482.941448 358.692834 
L 483.957687 358.85918 
L 484.973926 349.386781 
L 485.990165 343.781705 
L 487.006405 339.522073 
L 488.022644 335.831924 
L 489.038883 334.39556 
L 490.055122 329.191315 
L 491.071361 327.183438 
L 492.087601 317.638964 
L 494.120079 311.35397 
L 495.136318 306.821499 
L 497.168796 291.076143 
L 502.249992 245.901948 
L 505.29871 221.746511 
L 506.314949 213.146496 
L 507.331188 206.19878 
L 508.347428 204.277807 
L 509.363667 203.189785 
L 511.396145 195.667589 
L 512.412384 190.126592 
L 513.428623 183.771719 
L 514.444863 173.800283 
L 515.461102 172.484368 
L 516.477341 167.157032 
L 518.509819 154.604738 
L 519.526059 146.853402 
L 520.542298 142.47161 
L 521.558537 134.395019 
L 522.574776 135.200736 
L 523.591015 129.563088 
L 524.607255 126.406349 
L 525.623494 123.797999 
L 526.639733 126.033974 
L 527.655972 128.968248 
L 528.672211 134.079861 
L 529.68845 138.28586 
L 530.70469 140.403231 
L 531.720929 143.964617 
L 532.737168 146.913838 
L 533.753407 147.145296 
L 534.769646 149.33526 
L 535.785886 150.812793 
L 537.818364 152.544738 
L 539.850842 153.309399 
L 542.89956 155.629084 
L 543.915799 155.977007 
L 544.932038 156.575434 
L 546.964517 158.22483 
L 547.980756 158.527816 
L 548.996995 159.292323 
L 550.013234 159.657093 
L 551.029473 160.186315 
L 552.045713 161.434823 
L 553.061952 161.717547 
L 556.110669 164.624966 
L 558.143148 159.327843 
L 559.159387 154.531243 
L 560.175626 150.931596 
L 561.191865 149.351813 
L 562.208104 146.428506 
L 563.224344 144.186996 
L 564.240583 144.901053 
L 565.256822 143.757734 
L 566.273061 143.2362 
L 567.2893 143.685394 
L 568.30554 144.322977 
L 569.321779 145.875537 
L 574.402975 155.262215 
L 575.419214 157.010185 
L 576.435453 158.240721 
L 580.50041 163.908626 
L 582.532888 168.295963 
L 583.549127 172.604806 
L 584.565367 180.604556 
L 585.581606 191.638481 
L 586.597845 200.829641 
L 587.614084 211.620133 
L 588.630323 220.437174 
L 590.662802 241.477819 
L 591.679041 249.363559 
L 593.711519 268.98833 
L 596.760237 293.68484 
L 601.841433 342.674243 
L 603.873911 361.717636 
L 607.938868 400.446521 
L 610.987585 430.448557 
L 613.020064 447.567964 
L 614.036303 454.814067 
L 615.052542 457.067805 
L 616.068781 457.176508 
L 617.08502 457.819103 
L 618.10126 457.750206 
L 619.117499 459.265236 
L 620.133738 458.772252 
L 621.149977 457.75837 
L 622.166216 459.21 
L 623.182456 459.971878 
L 624.198695 459.892894 
L 625.214934 460.165206 
L 626.231173 459.750402 
L 627.247412 459.634999 
L 628.263652 455.88568 
L 629.279891 451.502261 
L 630.29613 444.807415 
L 632.328608 429.161868 
L 633.344847 420.751044 
L 636.393565 391.470676 
L 638.426043 371.184534 
L 639.442283 361.912732 
L 640.458522 350.471787 
L 652.653392 229.69857 
L 654.68587 208.210716 
L 655.70211 198.69442 
L 656.718349 191.15202 
L 657.734588 181.859493 
L 659.767066 165.772347 
L 660.783306 161.346639 
L 662.815784 154.908545 
L 663.832023 152.705449 
L 664.848262 151.157131 
L 665.864501 150.582455 
L 666.880741 149.078477 
L 667.89698 148.859003 
L 668.913219 147.957586 
L 669.929458 146.817556 
L 670.945697 146.994173 
L 671.961937 146.893273 
L 672.978176 146.28323 
L 673.994415 149.689646 
L 675.010654 150.349039 
L 676.026893 149.766979 
L 677.043132 152.093555 
L 679.075611 159.573537 
L 680.09185 163.550249 
L 682.124328 175.10039 
L 684.156807 184.572316 
L 686.189285 189.327289 
L 687.205524 192.84751 
L 688.221764 195.783658 
L 689.238003 197.716381 
L 690.254242 201.633069 
L 691.270481 204.860642 
L 692.28672 207.541513 
L 694.319199 214.023452 
L 696.351677 217.71548 
L 698.384155 222.493111 
L 699.400395 225.202637 
L 700.416634 226.366124 
L 701.432873 229.80503 
L 702.449112 230.799108 
L 703.465351 231.568679 
L 704.481591 227.848179 
L 705.49783 227.320695 
L 706.514069 227.241438 
L 707.530308 226.153903 
L 708.546547 222.672307 
L 709.562786 220.253899 
L 710.579026 218.709622 
L 711.595265 214.536198 
L 713.627743 211.73346 
L 714.643982 208.94279 
L 715.660222 208.6352 
L 716.676461 208.691506 
L 718.708939 202.05164 
L 719.725178 201.180938 
L 721.757657 196.013294 
L 723.790135 192.259021 
L 724.806374 188.811446 
L 725.822613 187.91219 
L 728.871331 182.843922 
L 729.88757 179.101611 
L 730.903809 177.80996 
L 731.920049 174.428965 
L 732.936288 172.233341 
L 733.952527 169.406149 
L 734.968766 168.247103 
L 735.985005 165.788979 
L 737.001244 164.247789 
L 738.017484 160.901766 
L 739.033723 159.14583 
L 740.049962 155.842716 
L 741.066201 151.892511 
L 742.08244 148.402214 
L 743.09868 143.717629 
L 744.114919 139.626132 
L 745.131158 136.888208 
L 747.163636 130.39578 
L 747.163636 130.39578 
" clip-path="url(#p3b72bef14d)" style="fill: none; stroke: #2ca02c; stroke-width: 4; stroke-linecap: square"/>
   </g>
   <g id="line2d_28"/>
   <g id="line2d_29"/>
   <g id="line2d_30"/>
   <g id="patch_3">
    <path d="M 108 512.64 
L 108 69.12 
" style="fill: none; stroke: #000000; stroke-width: 0.8; stroke-linejoin: miter; stroke-linecap: square"/>
   </g>
   <g id="patch_4">
    <path d="M 777.6 512.64 
L 777.6 69.12 
" style="fill: none; stroke: #000000; stroke-width: 0.8; stroke-linejoin: miter; stroke-linecap: square"/>
   </g>
   <g id="patch_5">
    <path d="M 108 512.64 
L 777.6 512.64 
" style="fill: none; stroke: #000000; stroke-width: 0.8; stroke-linejoin: miter; stroke-linecap: square"/>
   </g>
   <g id="patch_6">
    <path d="M 108 69.12 
L 777.6 69.12 
" style="fill: none; stroke: #000000; stroke-width: 0.8; stroke-linejoin: miter; stroke-linecap: square"/>
   </g>
   <g id="text_15">
    <!-- client6 -->
    <g transform="translate(341.315625 56.641875) scale(0.6 -0.6)">
     <defs>
      <path id="DejaVuSans-63" d="M 3122 3366 
L 3122 2828 
Q 2878 2963 2633 3030 
Q 2388 3097 2138 3097 
Q 1578 3097 1268 2742 
Q 959 2388 959 1747 
Q 959 1106 1268 751 
Q 1578 397 2138 397 
Q 2388 397 2633 464 
Q 2878 531 3122 666 
L 3122 134 
Q 2881 22 2623 -34 
Q 2366 -91 2075 -91 
Q 1284 -91 818 406 
Q 353 903 353 1747 
Q 353 2603 823 3093 
Q 1294 3584 2113 3584 
Q 2378 3584 2631 3529 
Q 2884 3475 3122 3366 
z
" transform="scale(0.015625)"/>
      <path id="DejaVuSans-6c" d="M 603 4863 
L 1178 4863 
L 1178 0 
L 603 0 
L 603 4863 
z
" transform="scale(0.015625)"/>
     </defs>
     <use xlink:href="#DejaVuSans-63"/>
     <use xlink:href="#DejaVuSans-6c" x="54.980469"/>
     <use xlink:href="#DejaVuSans-69" x="82.763672"/>
     <use xlink:href="#DejaVuSans-65" x="110.546875"/>
     <use xlink:href="#DejaVuSans-6e" x="172.070312"/>
     <use xlink:href="#DejaVuSans-74" x="235.449219"/>
     <use xlink:href="#DejaVuSans-36" x="274.658203"/>
    </g>
   </g>
   <g id="legend_1">
    <g id="patch_7">
     <path d="M 93.3625 385.505 
L 749.6 385.505 
Q 757.6 385.505 757.6 377.505 
L 757.6 204.255 
Q 757.6 196.255 749.6 196.255 
L 93.3625 196.255 
Q 85.3625 196.255 85.3625 204.255 
L 85.3625 377.505 
Q 85.3625 385.505 93.3625 385.505 
z
" style="fill: #ffffff; opacity: 0.8; stroke: #cccccc; stroke-linejoin: miter"/>
    </g>
    <g id="line2d_31">
     <path d="M 101.3625 228.64875 
L 141.3625 228.64875 
L 181.3625 228.64875 
" style="fill: none; stroke: #1f77b4; stroke-width: 4; stroke-linecap: square"/>
    </g>
    <g id="text_16">
     <!-- fedavg_private_regressors -->
     <g transform="translate(213.3625 242.64875) scale(0.4 -0.4)">
      <defs>
       <path id="DejaVuSans-66" d="M 2375 4863 
L 2375 4384 
L 1825 4384 
Q 1516 4384 1395 4259 
Q 1275 4134 1275 3809 
L 1275 3500 
L 2222 3500 
L 2222 3053 
L 1275 3053 
L 1275 0 
L 697 0 
L 697 3053 
L 147 3053 
L 147 3500 
L 697 3500 
L 697 3744 
Q 697 4328 969 4595 
Q 1241 4863 1831 4863 
L 2375 4863 
z
" transform="scale(0.015625)"/>
       <path id="DejaVuSans-64" d="M 2906 2969 
L 2906 4863 
L 3481 4863 
L 3481 0 
L 2906 0 
L 2906 525 
Q 2725 213 2448 61 
Q 2172 -91 1784 -91 
Q 1150 -91 751 415 
Q 353 922 353 1747 
Q 353 2572 751 3078 
Q 1150 3584 1784 3584 
Q 2172 3584 2448 3432 
Q 2725 3281 2906 2969 
z
M 947 1747 
Q 947 1113 1208 752 
Q 1469 391 1925 391 
Q 2381 391 2643 752 
Q 2906 1113 2906 1747 
Q 2906 2381 2643 2742 
Q 2381 3103 1925 3103 
Q 1469 3103 1208 2742 
Q 947 2381 947 1747 
z
" transform="scale(0.015625)"/>
       <path id="DejaVuSans-76" d="M 191 3500 
L 800 3500 
L 1894 563 
L 2988 3500 
L 3597 3500 
L 2284 0 
L 1503 0 
L 191 3500 
z
" transform="scale(0.015625)"/>
       <path id="DejaVuSans-67" d="M 2906 1791 
Q 2906 2416 2648 2759 
Q 2391 3103 1925 3103 
Q 1463 3103 1205 2759 
Q 947 2416 947 1791 
Q 947 1169 1205 825 
Q 1463 481 1925 481 
Q 2391 481 2648 825 
Q 2906 1169 2906 1791 
z
M 3481 434 
Q 3481 -459 3084 -895 
Q 2688 -1331 1869 -1331 
Q 1566 -1331 1297 -1286 
Q 1028 -1241 775 -1147 
L 775 -588 
Q 1028 -725 1275 -790 
Q 1522 -856 1778 -856 
Q 2344 -856 2625 -561 
Q 2906 -266 2906 331 
L 2906 616 
Q 2728 306 2450 153 
Q 2172 0 1784 0 
Q 1141 0 747 490 
Q 353 981 353 1791 
Q 353 2603 747 3093 
Q 1141 3584 1784 3584 
Q 2172 3584 2450 3431 
Q 2728 3278 2906 2969 
L 2906 3500 
L 3481 3500 
L 3481 434 
z
" transform="scale(0.015625)"/>
       <path id="DejaVuSans-5f" d="M 3263 -1063 
L 3263 -1509 
L -63 -1509 
L -63 -1063 
L 3263 -1063 
z
" transform="scale(0.015625)"/>
      </defs>
      <use xlink:href="#DejaVuSans-66"/>
      <use xlink:href="#DejaVuSans-65" x="35.205078"/>
      <use xlink:href="#DejaVuSans-64" x="96.728516"/>
      <use xlink:href="#DejaVuSans-61" x="160.205078"/>
      <use xlink:href="#DejaVuSans-76" x="221.484375"/>
      <use xlink:href="#DejaVuSans-67" x="280.664062"/>
      <use xlink:href="#DejaVuSans-5f" x="344.140625"/>
      <use xlink:href="#DejaVuSans-70" x="394.140625"/>
      <use xlink:href="#DejaVuSans-72" x="457.617188"/>
      <use xlink:href="#DejaVuSans-69" x="498.730469"/>
      <use xlink:href="#DejaVuSans-76" x="526.513672"/>
      <use xlink:href="#DejaVuSans-61" x="585.693359"/>
      <use xlink:href="#DejaVuSans-74" x="646.972656"/>
      <use xlink:href="#DejaVuSans-65" x="686.181641"/>
      <use xlink:href="#DejaVuSans-5f" x="747.705078"/>
      <use xlink:href="#DejaVuSans-72" x="797.705078"/>
      <use xlink:href="#DejaVuSans-65" x="836.568359"/>
      <use xlink:href="#DejaVuSans-67" x="898.091797"/>
      <use xlink:href="#DejaVuSans-72" x="961.568359"/>
      <use xlink:href="#DejaVuSans-65" x="1000.431641"/>
      <use xlink:href="#DejaVuSans-73" x="1061.955078"/>
      <use xlink:href="#DejaVuSans-73" x="1114.054688"/>
      <use xlink:href="#DejaVuSans-6f" x="1166.154297"/>
      <use xlink:href="#DejaVuSans-72" x="1227.335938"/>
      <use xlink:href="#DejaVuSans-73" x="1268.449219"/>
     </g>
    </g>
    <g id="line2d_32">
     <path d="M 101.3625 288.47375 
L 141.3625 288.47375 
L 181.3625 288.47375 
" style="fill: none; stroke: #ff7f0e; stroke-width: 4; stroke-linecap: square"/>
    </g>
    <g id="text_17">
     <!-- fedavg -->
     <g transform="translate(213.3625 302.47375) scale(0.4 -0.4)">
      <use xlink:href="#DejaVuSans-66"/>
      <use xlink:href="#DejaVuSans-65" x="35.205078"/>
      <use xlink:href="#DejaVuSans-64" x="96.728516"/>
      <use xlink:href="#DejaVuSans-61" x="160.205078"/>
      <use xlink:href="#DejaVuSans-76" x="221.484375"/>
      <use xlink:href="#DejaVuSans-67" x="280.664062"/>
     </g>
    </g>
    <g id="line2d_33">
     <path d="M 101.3625 347.18625 
L 141.3625 347.18625 
L 181.3625 347.18625 
" style="fill: none; stroke: #2ca02c; stroke-width: 4; stroke-linecap: square"/>
    </g>
    <g id="text_18">
     <!-- local -->
     <g transform="translate(213.3625 361.18625) scale(0.4 -0.4)">
      <use xlink:href="#DejaVuSans-6c"/>
      <use xlink:href="#DejaVuSans-6f" x="27.783203"/>
      <use xlink:href="#DejaVuSans-63" x="88.964844"/>
      <use xlink:href="#DejaVuSans-61" x="143.945312"/>
      <use xlink:href="#DejaVuSans-6c" x="205.224609"/>
     </g>
    </g>
   </g>
  </g>
 </g>
 <defs>
  <clipPath id="p3b72bef14d">
   <rect x="108" y="69.12" width="669.6" height="443.52"/>
  </clipPath>
 </defs>
</svg>
