<?xml version="1.0" encoding="utf-8" standalone="no"?>
<!DOCTYPE svg PUBLIC "-//W3C//DTD SVG 1.1//EN"
  "http://www.w3.org/Graphics/SVG/1.1/DTD/svg11.dtd">
<svg xmlns:xlink="http://www.w3.org/1999/xlink" width="864pt" height="576pt" viewBox="0 0 864 576" xmlns="http://www.w3.org/2000/svg" version="1.1">
 <metadata>
  <rdf:RDF xmlns:dc="http://purl.org/dc/elements/1.1/" xmlns:cc="http://creativecommons.org/ns#" xmlns:rdf="http://www.w3.org/1999/02/22-rdf-syntax-ns#">
   <cc:Work>
    <dc:type rdf:resource="http://purl.org/dc/dcmitype/StillImage"/>
    <dc:date>2025-04-25T14:18:11.139925</dc:date>
    <dc:format>image/svg+xml</dc:format>
    <dc:creator>
     <cc:Agent>
      <dc:title>Matplotlib v3.8.2, https://matplotlib.org/</dc:title>
     </cc:Agent>
    </dc:creator>
   </cc:Work>
  </rdf:RDF>
 </metadata>
 <defs>
  <style type="text/css">*{stroke-linejoin: round; stroke-linecap: butt}</style>
 </defs>
 <g id="figure_1">
  <g id="patch_1">
   <path d="M 0 576 
L 864 576 
L 864 0 
L 0 0 
z
" style="fill: #ffffff"/>
  </g>
  <g id="axes_1">
   <g id="patch_2">
    <path d="M 108 512.64 
L 777.6 512.64 
L 777.6 69.12 
L 108 69.12 
z
" style="fill: #ffffff"/>
   </g>
   <g id="PolyCollection_1"/>
   <g id="PolyCollection_2"/>
   <g id="PolyCollection_3"/>
   <g id="matplotlib.axis_1">
    <g id="xtick_1">
     <g id="line2d_1">
      <path d="M 137.420124 512.64 
L 137.420124 69.12 
" clip-path="url(#p25d5ccdaf5)" style="fill: none; stroke: #b0b0b0; stroke-width: 0.8; stroke-linecap: square"/>
     </g>
     <g id="line2d_2">
      <defs>
       <path id="m4fe58c5290" d="M 0 0 
L 0 3.5 
" style="stroke: #000000; stroke-width: 0.8"/>
      </defs>
      <g>
       <use xlink:href="#m4fe58c5290" x="137.420124" y="512.64" style="stroke: #000000; stroke-width: 0.8"/>
      </g>
     </g>
     <g id="text_1">
      <!-- 0 -->
      <g transform="translate(127.876374 542.435313) scale(0.3 -0.3)">
       <defs>
        <path id="DejaVuSans-30" d="M 2034 4250 
Q 1547 4250 1301 3770 
Q 1056 3291 1056 2328 
Q 1056 1369 1301 889 
Q 1547 409 2034 409 
Q 2525 409 2770 889 
Q 3016 1369 3016 2328 
Q 3016 3291 2770 3770 
Q 2525 4250 2034 4250 
z
M 2034 4750 
Q 2819 4750 3233 4129 
Q 3647 3509 3647 2328 
Q 3647 1150 3233 529 
Q 2819 -91 2034 -91 
Q 1250 -91 836 529 
Q 422 1150 422 2328 
Q 422 3509 836 4129 
Q 1250 4750 2034 4750 
z
" transform="scale(0.015625)"/>
       </defs>
       <use xlink:href="#DejaVuSans-30"/>
      </g>
     </g>
    </g>
    <g id="xtick_2">
     <g id="line2d_3">
      <path d="M 250.33559 512.64 
L 250.33559 69.12 
" clip-path="url(#p25d5ccdaf5)" style="fill: none; stroke: #b0b0b0; stroke-width: 0.8; stroke-linecap: square"/>
     </g>
     <g id="line2d_4">
      <g>
       <use xlink:href="#m4fe58c5290" x="250.33559" y="512.64" style="stroke: #000000; stroke-width: 0.8"/>
      </g>
     </g>
     <g id="text_2">
      <!-- 1000 -->
      <g transform="translate(212.16059 542.435313) scale(0.3 -0.3)">
       <defs>
        <path id="DejaVuSans-31" d="M 794 531 
L 1825 531 
L 1825 4091 
L 703 3866 
L 703 4441 
L 1819 4666 
L 2450 4666 
L 2450 531 
L 3481 531 
L 3481 0 
L 794 0 
L 794 531 
z
" transform="scale(0.015625)"/>
       </defs>
       <use xlink:href="#DejaVuSans-31"/>
       <use xlink:href="#DejaVuSans-30" x="63.623047"/>
       <use xlink:href="#DejaVuSans-30" x="127.246094"/>
       <use xlink:href="#DejaVuSans-30" x="190.869141"/>
      </g>
     </g>
    </g>
    <g id="xtick_3">
     <g id="line2d_5">
      <path d="M 363.251055 512.64 
L 363.251055 69.12 
" clip-path="url(#p25d5ccdaf5)" style="fill: none; stroke: #b0b0b0; stroke-width: 0.8; stroke-linecap: square"/>
     </g>
     <g id="line2d_6">
      <g>
       <use xlink:href="#m4fe58c5290" x="363.251055" y="512.64" style="stroke: #000000; stroke-width: 0.8"/>
      </g>
     </g>
     <g id="text_3">
      <!-- 2000 -->
      <g transform="translate(325.076055 542.435313) scale(0.3 -0.3)">
       <defs>
        <path id="DejaVuSans-32" d="M 1228 531 
L 3431 531 
L 3431 0 
L 469 0 
L 469 531 
Q 828 903 1448 1529 
Q 2069 2156 2228 2338 
Q 2531 2678 2651 2914 
Q 2772 3150 2772 3378 
Q 2772 3750 2511 3984 
Q 2250 4219 1831 4219 
Q 1534 4219 1204 4116 
Q 875 4013 500 3803 
L 500 4441 
Q 881 4594 1212 4672 
Q 1544 4750 1819 4750 
Q 2544 4750 2975 4387 
Q 3406 4025 3406 3419 
Q 3406 3131 3298 2873 
Q 3191 2616 2906 2266 
Q 2828 2175 2409 1742 
Q 1991 1309 1228 531 
z
" transform="scale(0.015625)"/>
       </defs>
       <use xlink:href="#DejaVuSans-32"/>
       <use xlink:href="#DejaVuSans-30" x="63.623047"/>
       <use xlink:href="#DejaVuSans-30" x="127.246094"/>
       <use xlink:href="#DejaVuSans-30" x="190.869141"/>
      </g>
     </g>
    </g>
    <g id="xtick_4">
     <g id="line2d_7">
      <path d="M 476.16652 512.64 
L 476.16652 69.12 
" clip-path="url(#p25d5ccdaf5)" style="fill: none; stroke: #b0b0b0; stroke-width: 0.8; stroke-linecap: square"/>
     </g>
     <g id="line2d_8">
      <g>
       <use xlink:href="#m4fe58c5290" x="476.16652" y="512.64" style="stroke: #000000; stroke-width: 0.8"/>
      </g>
     </g>
     <g id="text_4">
      <!-- 3000 -->
      <g transform="translate(437.99152 542.435313) scale(0.3 -0.3)">
       <defs>
        <path id="DejaVuSans-33" d="M 2597 2516 
Q 3050 2419 3304 2112 
Q 3559 1806 3559 1356 
Q 3559 666 3084 287 
Q 2609 -91 1734 -91 
Q 1441 -91 1130 -33 
Q 819 25 488 141 
L 488 750 
Q 750 597 1062 519 
Q 1375 441 1716 441 
Q 2309 441 2620 675 
Q 2931 909 2931 1356 
Q 2931 1769 2642 2001 
Q 2353 2234 1838 2234 
L 1294 2234 
L 1294 2753 
L 1863 2753 
Q 2328 2753 2575 2939 
Q 2822 3125 2822 3475 
Q 2822 3834 2567 4026 
Q 2313 4219 1838 4219 
Q 1578 4219 1281 4162 
Q 984 4106 628 3988 
L 628 4550 
Q 988 4650 1302 4700 
Q 1616 4750 1894 4750 
Q 2613 4750 3031 4423 
Q 3450 4097 3450 3541 
Q 3450 3153 3228 2886 
Q 3006 2619 2597 2516 
z
" transform="scale(0.015625)"/>
       </defs>
       <use xlink:href="#DejaVuSans-33"/>
       <use xlink:href="#DejaVuSans-30" x="63.623047"/>
       <use xlink:href="#DejaVuSans-30" x="127.246094"/>
       <use xlink:href="#DejaVuSans-30" x="190.869141"/>
      </g>
     </g>
    </g>
    <g id="xtick_5">
     <g id="line2d_9">
      <path d="M 589.081985 512.64 
L 589.081985 69.12 
" clip-path="url(#p25d5ccdaf5)" style="fill: none; stroke: #b0b0b0; stroke-width: 0.8; stroke-linecap: square"/>
     </g>
     <g id="line2d_10">
      <g>
       <use xlink:href="#m4fe58c5290" x="589.081985" y="512.64" style="stroke: #000000; stroke-width: 0.8"/>
      </g>
     </g>
     <g id="text_5">
      <!-- 4000 -->
      <g transform="translate(550.906985 542.435313) scale(0.3 -0.3)">
       <defs>
        <path id="DejaVuSans-34" d="M 2419 4116 
L 825 1625 
L 2419 1625 
L 2419 4116 
z
M 2253 4666 
L 3047 4666 
L 3047 1625 
L 3713 1625 
L 3713 1100 
L 3047 1100 
L 3047 0 
L 2419 0 
L 2419 1100 
L 313 1100 
L 313 1709 
L 2253 4666 
z
" transform="scale(0.015625)"/>
       </defs>
       <use xlink:href="#DejaVuSans-34"/>
       <use xlink:href="#DejaVuSans-30" x="63.623047"/>
       <use xlink:href="#DejaVuSans-30" x="127.246094"/>
       <use xlink:href="#DejaVuSans-30" x="190.869141"/>
      </g>
     </g>
    </g>
    <g id="xtick_6">
     <g id="line2d_11">
      <path d="M 701.99745 512.64 
L 701.99745 69.12 
" clip-path="url(#p25d5ccdaf5)" style="fill: none; stroke: #b0b0b0; stroke-width: 0.8; stroke-linecap: square"/>
     </g>
     <g id="line2d_12">
      <g>
       <use xlink:href="#m4fe58c5290" x="701.99745" y="512.64" style="stroke: #000000; stroke-width: 0.8"/>
      </g>
     </g>
     <g id="text_6">
      <!-- 5000 -->
      <g transform="translate(663.82245 542.435313) scale(0.3 -0.3)">
       <defs>
        <path id="DejaVuSans-35" d="M 691 4666 
L 3169 4666 
L 3169 4134 
L 1269 4134 
L 1269 2991 
Q 1406 3038 1543 3061 
Q 1681 3084 1819 3084 
Q 2600 3084 3056 2656 
Q 3513 2228 3513 1497 
Q 3513 744 3044 326 
Q 2575 -91 1722 -91 
Q 1428 -91 1123 -41 
Q 819 9 494 109 
L 494 744 
Q 775 591 1075 516 
Q 1375 441 1709 441 
Q 2250 441 2565 725 
Q 2881 1009 2881 1497 
Q 2881 1984 2565 2268 
Q 2250 2553 1709 2553 
Q 1456 2553 1204 2497 
Q 953 2441 691 2322 
L 691 4666 
z
" transform="scale(0.015625)"/>
       </defs>
       <use xlink:href="#DejaVuSans-35"/>
       <use xlink:href="#DejaVuSans-30" x="63.623047"/>
       <use xlink:href="#DejaVuSans-30" x="127.246094"/>
       <use xlink:href="#DejaVuSans-30" x="190.869141"/>
      </g>
     </g>
    </g>
    <g id="text_7">
     <!-- Steps -->
     <g transform="translate(386.840625 583.068125) scale(0.4 -0.4)">
      <defs>
       <path id="DejaVuSans-53" d="M 3425 4513 
L 3425 3897 
Q 3066 4069 2747 4153 
Q 2428 4238 2131 4238 
Q 1616 4238 1336 4038 
Q 1056 3838 1056 3469 
Q 1056 3159 1242 3001 
Q 1428 2844 1947 2747 
L 2328 2669 
Q 3034 2534 3370 2195 
Q 3706 1856 3706 1288 
Q 3706 609 3251 259 
Q 2797 -91 1919 -91 
Q 1588 -91 1214 -16 
Q 841 59 441 206 
L 441 856 
Q 825 641 1194 531 
Q 1563 422 1919 422 
Q 2459 422 2753 634 
Q 3047 847 3047 1241 
Q 3047 1584 2836 1778 
Q 2625 1972 2144 2069 
L 1759 2144 
Q 1053 2284 737 2584 
Q 422 2884 422 3419 
Q 422 4038 858 4394 
Q 1294 4750 2059 4750 
Q 2388 4750 2728 4690 
Q 3069 4631 3425 4513 
z
" transform="scale(0.015625)"/>
       <path id="DejaVuSans-74" d="M 1172 4494 
L 1172 3500 
L 2356 3500 
L 2356 3053 
L 1172 3053 
L 1172 1153 
Q 1172 725 1289 603 
Q 1406 481 1766 481 
L 2356 481 
L 2356 0 
L 1766 0 
Q 1100 0 847 248 
Q 594 497 594 1153 
L 594 3053 
L 172 3053 
L 172 3500 
L 594 3500 
L 594 4494 
L 1172 4494 
z
" transform="scale(0.015625)"/>
       <path id="DejaVuSans-65" d="M 3597 1894 
L 3597 1613 
L 953 1613 
Q 991 1019 1311 708 
Q 1631 397 2203 397 
Q 2534 397 2845 478 
Q 3156 559 3463 722 
L 3463 178 
Q 3153 47 2828 -22 
Q 2503 -91 2169 -91 
Q 1331 -91 842 396 
Q 353 884 353 1716 
Q 353 2575 817 3079 
Q 1281 3584 2069 3584 
Q 2775 3584 3186 3129 
Q 3597 2675 3597 1894 
z
M 3022 2063 
Q 3016 2534 2758 2815 
Q 2500 3097 2075 3097 
Q 1594 3097 1305 2825 
Q 1016 2553 972 2059 
L 3022 2063 
z
" transform="scale(0.015625)"/>
       <path id="DejaVuSans-70" d="M 1159 525 
L 1159 -1331 
L 581 -1331 
L 581 3500 
L 1159 3500 
L 1159 2969 
Q 1341 3281 1617 3432 
Q 1894 3584 2278 3584 
Q 2916 3584 3314 3078 
Q 3713 2572 3713 1747 
Q 3713 922 3314 415 
Q 2916 -91 2278 -91 
Q 1894 -91 1617 61 
Q 1341 213 1159 525 
z
M 3116 1747 
Q 3116 2381 2855 2742 
Q 2594 3103 2138 3103 
Q 1681 3103 1420 2742 
Q 1159 2381 1159 1747 
Q 1159 1113 1420 752 
Q 1681 391 2138 391 
Q 2594 391 2855 752 
Q 3116 1113 3116 1747 
z
" transform="scale(0.015625)"/>
       <path id="DejaVuSans-73" d="M 2834 3397 
L 2834 2853 
Q 2591 2978 2328 3040 
Q 2066 3103 1784 3103 
Q 1356 3103 1142 2972 
Q 928 2841 928 2578 
Q 928 2378 1081 2264 
Q 1234 2150 1697 2047 
L 1894 2003 
Q 2506 1872 2764 1633 
Q 3022 1394 3022 966 
Q 3022 478 2636 193 
Q 2250 -91 1575 -91 
Q 1294 -91 989 -36 
Q 684 19 347 128 
L 347 722 
Q 666 556 975 473 
Q 1284 391 1588 391 
Q 1994 391 2212 530 
Q 2431 669 2431 922 
Q 2431 1156 2273 1281 
Q 2116 1406 1581 1522 
L 1381 1569 
Q 847 1681 609 1914 
Q 372 2147 372 2553 
Q 372 3047 722 3315 
Q 1072 3584 1716 3584 
Q 2034 3584 2315 3537 
Q 2597 3491 2834 3397 
z
" transform="scale(0.015625)"/>
      </defs>
      <use xlink:href="#DejaVuSans-53"/>
      <use xlink:href="#DejaVuSans-74" x="63.476562"/>
      <use xlink:href="#DejaVuSans-65" x="102.685547"/>
      <use xlink:href="#DejaVuSans-70" x="164.208984"/>
      <use xlink:href="#DejaVuSans-73" x="227.685547"/>
     </g>
    </g>
   </g>
   <g id="matplotlib.axis_2">
    <g id="ytick_1">
     <g id="line2d_13">
      <path d="M 108 512.271684 
L 777.6 512.271684 
" clip-path="url(#p25d5ccdaf5)" style="fill: none; stroke: #b0b0b0; stroke-width: 0.8; stroke-linecap: square"/>
     </g>
     <g id="line2d_14">
      <defs>
       <path id="m8c7d2fec89" d="M 0 0 
L -3.5 0 
" style="stroke: #000000; stroke-width: 0.8"/>
      </defs>
      <g>
       <use xlink:href="#m8c7d2fec89" x="108" y="512.271684" style="stroke: #000000; stroke-width: 0.8"/>
      </g>
     </g>
     <g id="text_8">
      <!-- −0.6 -->
      <g transform="translate(28.151562 523.66934) scale(0.3 -0.3)">
       <defs>
        <path id="DejaVuSans-2212" d="M 678 2272 
L 4684 2272 
L 4684 1741 
L 678 1741 
L 678 2272 
z
" transform="scale(0.015625)"/>
        <path id="DejaVuSans-2e" d="M 684 794 
L 1344 794 
L 1344 0 
L 684 0 
L 684 794 
z
" transform="scale(0.015625)"/>
        <path id="DejaVuSans-36" d="M 2113 2584 
Q 1688 2584 1439 2293 
Q 1191 2003 1191 1497 
Q 1191 994 1439 701 
Q 1688 409 2113 409 
Q 2538 409 2786 701 
Q 3034 994 3034 1497 
Q 3034 2003 2786 2293 
Q 2538 2584 2113 2584 
z
M 3366 4563 
L 3366 3988 
Q 3128 4100 2886 4159 
Q 2644 4219 2406 4219 
Q 1781 4219 1451 3797 
Q 1122 3375 1075 2522 
Q 1259 2794 1537 2939 
Q 1816 3084 2150 3084 
Q 2853 3084 3261 2657 
Q 3669 2231 3669 1497 
Q 3669 778 3244 343 
Q 2819 -91 2113 -91 
Q 1303 -91 875 529 
Q 447 1150 447 2328 
Q 447 3434 972 4092 
Q 1497 4750 2381 4750 
Q 2619 4750 2861 4703 
Q 3103 4656 3366 4563 
z
" transform="scale(0.015625)"/>
       </defs>
       <use xlink:href="#DejaVuSans-2212"/>
       <use xlink:href="#DejaVuSans-30" x="83.789062"/>
       <use xlink:href="#DejaVuSans-2e" x="147.412109"/>
       <use xlink:href="#DejaVuSans-36" x="179.199219"/>
      </g>
     </g>
    </g>
    <g id="ytick_2">
     <g id="line2d_15">
      <path d="M 108 439.327585 
L 777.6 439.327585 
" clip-path="url(#p25d5ccdaf5)" style="fill: none; stroke: #b0b0b0; stroke-width: 0.8; stroke-linecap: square"/>
     </g>
     <g id="line2d_16">
      <g>
       <use xlink:href="#m8c7d2fec89" x="108" y="439.327585" style="stroke: #000000; stroke-width: 0.8"/>
      </g>
     </g>
     <g id="text_9">
      <!-- −0.4 -->
      <g transform="translate(28.151562 450.725242) scale(0.3 -0.3)">
       <use xlink:href="#DejaVuSans-2212"/>
       <use xlink:href="#DejaVuSans-30" x="83.789062"/>
       <use xlink:href="#DejaVuSans-2e" x="147.412109"/>
       <use xlink:href="#DejaVuSans-34" x="179.199219"/>
      </g>
     </g>
    </g>
    <g id="ytick_3">
     <g id="line2d_17">
      <path d="M 108 366.383487 
L 777.6 366.383487 
" clip-path="url(#p25d5ccdaf5)" style="fill: none; stroke: #b0b0b0; stroke-width: 0.8; stroke-linecap: square"/>
     </g>
     <g id="line2d_18">
      <g>
       <use xlink:href="#m8c7d2fec89" x="108" y="366.383487" style="stroke: #000000; stroke-width: 0.8"/>
      </g>
     </g>
     <g id="text_10">
      <!-- −0.2 -->
      <g transform="translate(28.151562 377.781143) scale(0.3 -0.3)">
       <use xlink:href="#DejaVuSans-2212"/>
       <use xlink:href="#DejaVuSans-30" x="83.789062"/>
       <use xlink:href="#DejaVuSans-2e" x="147.412109"/>
       <use xlink:href="#DejaVuSans-32" x="179.199219"/>
      </g>
     </g>
    </g>
    <g id="ytick_4">
     <g id="line2d_19">
      <path d="M 108 293.439389 
L 777.6 293.439389 
" clip-path="url(#p25d5ccdaf5)" style="fill: none; stroke: #b0b0b0; stroke-width: 0.8; stroke-linecap: square"/>
     </g>
     <g id="line2d_20">
      <g>
       <use xlink:href="#m8c7d2fec89" x="108" y="293.439389" style="stroke: #000000; stroke-width: 0.8"/>
      </g>
     </g>
     <g id="text_11">
      <!-- 0.0 -->
      <g transform="translate(53.290625 304.837045) scale(0.3 -0.3)">
       <use xlink:href="#DejaVuSans-30"/>
       <use xlink:href="#DejaVuSans-2e" x="63.623047"/>
       <use xlink:href="#DejaVuSans-30" x="95.410156"/>
      </g>
     </g>
    </g>
    <g id="ytick_5">
     <g id="line2d_21">
      <path d="M 108 220.495291 
L 777.6 220.495291 
" clip-path="url(#p25d5ccdaf5)" style="fill: none; stroke: #b0b0b0; stroke-width: 0.8; stroke-linecap: square"/>
     </g>
     <g id="line2d_22">
      <g>
       <use xlink:href="#m8c7d2fec89" x="108" y="220.495291" style="stroke: #000000; stroke-width: 0.8"/>
      </g>
     </g>
     <g id="text_12">
      <!-- 0.2 -->
      <g transform="translate(53.290625 231.892947) scale(0.3 -0.3)">
       <use xlink:href="#DejaVuSans-30"/>
       <use xlink:href="#DejaVuSans-2e" x="63.623047"/>
       <use xlink:href="#DejaVuSans-32" x="95.410156"/>
      </g>
     </g>
    </g>
    <g id="ytick_6">
     <g id="line2d_23">
      <path d="M 108 147.551192 
L 777.6 147.551192 
" clip-path="url(#p25d5ccdaf5)" style="fill: none; stroke: #b0b0b0; stroke-width: 0.8; stroke-linecap: square"/>
     </g>
     <g id="line2d_24">
      <g>
       <use xlink:href="#m8c7d2fec89" x="108" y="147.551192" style="stroke: #000000; stroke-width: 0.8"/>
      </g>
     </g>
     <g id="text_13">
      <!-- 0.4 -->
      <g transform="translate(53.290625 158.948848) scale(0.3 -0.3)">
       <use xlink:href="#DejaVuSans-30"/>
       <use xlink:href="#DejaVuSans-2e" x="63.623047"/>
       <use xlink:href="#DejaVuSans-34" x="95.410156"/>
      </g>
     </g>
    </g>
    <g id="ytick_7">
     <g id="line2d_25">
      <path d="M 108 74.607094 
L 777.6 74.607094 
" clip-path="url(#p25d5ccdaf5)" style="fill: none; stroke: #b0b0b0; stroke-width: 0.8; stroke-linecap: square"/>
     </g>
     <g id="line2d_26">
      <g>
       <use xlink:href="#m8c7d2fec89" x="108" y="74.607094" style="stroke: #000000; stroke-width: 0.8"/>
      </g>
     </g>
     <g id="text_14">
      <!-- 0.6 -->
      <g transform="translate(53.290625 86.00475) scale(0.3 -0.3)">
       <use xlink:href="#DejaVuSans-30"/>
       <use xlink:href="#DejaVuSans-2e" x="63.623047"/>
       <use xlink:href="#DejaVuSans-36" x="95.410156"/>
      </g>
     </g>
    </g>
    <g id="text_15">
     <!-- Pearson expression -->
     <g transform="translate(15.832812 484.56125) rotate(-90) scale(0.4 -0.4)">
      <defs>
       <path id="DejaVuSans-50" d="M 1259 4147 
L 1259 2394 
L 2053 2394 
Q 2494 2394 2734 2622 
Q 2975 2850 2975 3272 
Q 2975 3691 2734 3919 
Q 2494 4147 2053 4147 
L 1259 4147 
z
M 628 4666 
L 2053 4666 
Q 2838 4666 3239 4311 
Q 3641 3956 3641 3272 
Q 3641 2581 3239 2228 
Q 2838 1875 2053 1875 
L 1259 1875 
L 1259 0 
L 628 0 
L 628 4666 
z
" transform="scale(0.015625)"/>
       <path id="DejaVuSans-61" d="M 2194 1759 
Q 1497 1759 1228 1600 
Q 959 1441 959 1056 
Q 959 750 1161 570 
Q 1363 391 1709 391 
Q 2188 391 2477 730 
Q 2766 1069 2766 1631 
L 2766 1759 
L 2194 1759 
z
M 3341 1997 
L 3341 0 
L 2766 0 
L 2766 531 
Q 2569 213 2275 61 
Q 1981 -91 1556 -91 
Q 1019 -91 701 211 
Q 384 513 384 1019 
Q 384 1609 779 1909 
Q 1175 2209 1959 2209 
L 2766 2209 
L 2766 2266 
Q 2766 2663 2505 2880 
Q 2244 3097 1772 3097 
Q 1472 3097 1187 3025 
Q 903 2953 641 2809 
L 641 3341 
Q 956 3463 1253 3523 
Q 1550 3584 1831 3584 
Q 2591 3584 2966 3190 
Q 3341 2797 3341 1997 
z
" transform="scale(0.015625)"/>
       <path id="DejaVuSans-72" d="M 2631 2963 
Q 2534 3019 2420 3045 
Q 2306 3072 2169 3072 
Q 1681 3072 1420 2755 
Q 1159 2438 1159 1844 
L 1159 0 
L 581 0 
L 581 3500 
L 1159 3500 
L 1159 2956 
Q 1341 3275 1631 3429 
Q 1922 3584 2338 3584 
Q 2397 3584 2469 3576 
Q 2541 3569 2628 3553 
L 2631 2963 
z
" transform="scale(0.015625)"/>
       <path id="DejaVuSans-6f" d="M 1959 3097 
Q 1497 3097 1228 2736 
Q 959 2375 959 1747 
Q 959 1119 1226 758 
Q 1494 397 1959 397 
Q 2419 397 2687 759 
Q 2956 1122 2956 1747 
Q 2956 2369 2687 2733 
Q 2419 3097 1959 3097 
z
M 1959 3584 
Q 2709 3584 3137 3096 
Q 3566 2609 3566 1747 
Q 3566 888 3137 398 
Q 2709 -91 1959 -91 
Q 1206 -91 779 398 
Q 353 888 353 1747 
Q 353 2609 779 3096 
Q 1206 3584 1959 3584 
z
" transform="scale(0.015625)"/>
       <path id="DejaVuSans-6e" d="M 3513 2113 
L 3513 0 
L 2938 0 
L 2938 2094 
Q 2938 2591 2744 2837 
Q 2550 3084 2163 3084 
Q 1697 3084 1428 2787 
Q 1159 2491 1159 1978 
L 1159 0 
L 581 0 
L 581 3500 
L 1159 3500 
L 1159 2956 
Q 1366 3272 1645 3428 
Q 1925 3584 2291 3584 
Q 2894 3584 3203 3211 
Q 3513 2838 3513 2113 
z
" transform="scale(0.015625)"/>
       <path id="DejaVuSans-20" transform="scale(0.015625)"/>
       <path id="DejaVuSans-78" d="M 3513 3500 
L 2247 1797 
L 3578 0 
L 2900 0 
L 1881 1375 
L 863 0 
L 184 0 
L 1544 1831 
L 300 3500 
L 978 3500 
L 1906 2253 
L 2834 3500 
L 3513 3500 
z
" transform="scale(0.015625)"/>
       <path id="DejaVuSans-69" d="M 603 3500 
L 1178 3500 
L 1178 0 
L 603 0 
L 603 3500 
z
M 603 4863 
L 1178 4863 
L 1178 4134 
L 603 4134 
L 603 4863 
z
" transform="scale(0.015625)"/>
      </defs>
      <use xlink:href="#DejaVuSans-50"/>
      <use xlink:href="#DejaVuSans-65" x="56.677734"/>
      <use xlink:href="#DejaVuSans-61" x="118.201172"/>
      <use xlink:href="#DejaVuSans-72" x="179.480469"/>
      <use xlink:href="#DejaVuSans-73" x="220.59375"/>
      <use xlink:href="#DejaVuSans-6f" x="272.693359"/>
      <use xlink:href="#DejaVuSans-6e" x="333.875"/>
      <use xlink:href="#DejaVuSans-20" x="397.253906"/>
      <use xlink:href="#DejaVuSans-65" x="429.041016"/>
      <use xlink:href="#DejaVuSans-78" x="488.814453"/>
      <use xlink:href="#DejaVuSans-70" x="547.994141"/>
      <use xlink:href="#DejaVuSans-72" x="611.470703"/>
      <use xlink:href="#DejaVuSans-65" x="650.333984"/>
      <use xlink:href="#DejaVuSans-73" x="711.857422"/>
      <use xlink:href="#DejaVuSans-73" x="763.957031"/>
      <use xlink:href="#DejaVuSans-69" x="816.056641"/>
      <use xlink:href="#DejaVuSans-6f" x="843.839844"/>
      <use xlink:href="#DejaVuSans-6e" x="905.021484"/>
     </g>
    </g>
   </g>
   <g id="line2d_27">
    <path d="M 138.436364 392.641455 
L 139.452603 395.216965 
L 140.468842 389.737359 
L 141.485081 409.845445 
L 142.50132 354.597265 
L 143.51756 332.117672 
L 144.533799 346.161324 
L 145.550038 348.963871 
L 146.566277 364.64413 
L 147.582516 376.31463 
L 148.598756 382.926487 
L 149.614995 380.560442 
L 150.631234 388.259783 
L 151.647473 394.112292 
L 152.663712 385.055939 
L 153.679951 370.117344 
L 154.696191 356.969681 
L 155.71243 346.367815 
L 156.728669 337.33833 
L 157.744908 330.063877 
L 158.761147 329.521159 
L 160.793626 340.211809 
L 163.842343 354.822659 
L 166.891061 368.231515 
L 167.9073 372.067441 
L 169.939778 378.338843 
L 170.956018 373.678206 
L 171.972257 363.26845 
L 174.004735 381.71969 
L 175.020974 383.508266 
L 176.037214 387.355305 
L 178.069692 364.188952 
L 179.085931 358.223305 
L 180.10217 362.963591 
L 181.118409 363.473077 
L 182.134649 364.271309 
L 183.150888 372.17544 
L 186.199605 406.163399 
L 188.232084 426.891744 
L 189.248323 432.767651 
L 191.280801 435.545798 
L 192.297041 436.636663 
L 193.31328 437.111307 
L 194.329519 438.139464 
L 195.345758 438.5458 
L 197.378236 438.817746 
L 199.410715 439.116728 
L 200.426954 439.084052 
L 201.443193 447.481214 
L 202.459432 458.561625 
L 203.475672 461.081088 
L 204.491911 461.078027 
L 206.524389 461.55888 
L 208.556868 485.103367 
L 209.573107 492.48 
L 211.605585 492.149316 
L 223.800455 491.092273 
L 240.060282 491.303736 
L 285.791046 491.297284 
L 747.163636 491.297284 
L 747.163636 491.297284 
" clip-path="url(#p25d5ccdaf5)" style="fill: none; stroke: #1f77b4; stroke-width: 4; stroke-linecap: square"/>
   </g>
   <g id="line2d_28">
    <path d="M 138.436364 273.704508 
L 140.468842 358.283428 
L 141.485081 317.166831 
L 142.50132 292.660231 
L 143.51756 313.655165 
L 144.533799 285.327679 
L 145.550038 264.151552 
L 146.566277 279.162205 
L 147.582516 290.019219 
L 148.598756 278.369039 
L 149.614995 270.860846 
L 151.647473 257.99133 
L 152.663712 253.917336 
L 153.679951 249.145845 
L 155.71243 237.808401 
L 157.744908 228.041636 
L 159.777387 220.315742 
L 160.793626 217.577636 
L 161.809865 215.22649 
L 163.842343 210.114663 
L 166.891061 202.701244 
L 167.9073 200.346437 
L 168.923539 195.442774 
L 169.939778 187.671153 
L 170.956018 177.169795 
L 172.988496 172.623032 
L 174.004735 162.861598 
L 176.037214 163.400207 
L 178.069692 145.435833 
L 179.085931 144.131093 
L 181.118409 139.736868 
L 182.134649 138.027618 
L 183.150888 135.53811 
L 184.167127 133.681456 
L 186.199605 132.03308 
L 189.248323 130.169521 
L 190.264562 129.469519 
L 192.297041 127.004716 
L 194.329519 125.214217 
L 196.361997 123.876695 
L 198.394476 123.20021 
L 204.491911 122.262385 
L 210.589346 121.891827 
L 232.946608 121.491754 
L 269.531219 121.481 
L 747.163636 121.481 
L 747.163636 121.481 
" clip-path="url(#p25d5ccdaf5)" style="fill: none; stroke: #ff7f0e; stroke-width: 4; stroke-linecap: square"/>
   </g>
   <g id="line2d_29">
    <path d="M 138.436364 421.436883 
L 139.452603 355.869219 
L 140.468842 355.270187 
L 141.485081 335.31681 
L 142.50132 334.028991 
L 143.51756 334.739803 
L 144.533799 334.75049 
L 145.550038 330.819912 
L 146.566277 327.99183 
L 147.582516 326.456588 
L 148.598756 325.31542 
L 149.614995 321.501802 
L 150.631234 314.474287 
L 152.663712 302.89023 
L 153.679951 297.203116 
L 154.696191 292.971073 
L 156.728669 296.907692 
L 157.744908 298.399423 
L 158.761147 299.20037 
L 159.777387 299.237237 
L 160.793626 298.344697 
L 161.809865 296.702751 
L 162.826104 294.236692 
L 163.842343 290.937096 
L 164.858582 287.128324 
L 166.891061 277.328144 
L 167.9073 271.793989 
L 168.923539 261.031141 
L 169.939778 254.564059 
L 170.956018 245.87121 
L 171.972257 239.705778 
L 179.085931 183.473419 
L 180.10217 176.457878 
L 185.183366 149.546994 
L 190.264562 105.420098 
L 191.280801 97.884953 
L 192.297041 95.260709 
L 193.31328 92.958034 
L 194.329519 91.079466 
L 195.345758 89.718846 
L 196.361997 89.28 
L 197.378236 89.43852 
L 198.394476 90.120742 
L 200.426954 91.828569 
L 202.459432 93.219265 
L 204.491911 94.429596 
L 205.50815 95.279211 
L 209.573107 99.472581 
L 210.589346 100.252551 
L 211.605585 100.787785 
L 212.621824 101.49264 
L 213.638063 101.625885 
L 214.654303 103.644912 
L 215.670542 104.411645 
L 216.686781 107.033191 
L 217.70302 107.536067 
L 218.719259 108.174575 
L 219.735499 114.262958 
L 220.751738 117.177611 
L 221.767977 118.103684 
L 222.784216 125.716245 
L 223.800455 123.739187 
L 225.832934 120.828254 
L 227.865412 118.256671 
L 229.89789 116.316776 
L 230.91413 115.61454 
L 231.930369 115.065823 
L 232.946608 114.669358 
L 238.027804 113.290967 
L 239.044043 112.96167 
L 240.060282 112.824403 
L 241.076521 113.041641 
L 243.109 114.109244 
L 244.125239 115.324172 
L 245.141478 114.756056 
L 246.157717 115.507544 
L 247.173957 114.497366 
L 248.190196 115.666737 
L 249.206435 116.223887 
L 250.222674 111.885367 
L 251.238913 111.165873 
L 252.255153 112.841657 
L 253.271392 103.413198 
L 255.30387 104.312832 
L 256.320109 104.514711 
L 257.336348 104.878401 
L 260.385066 106.314579 
L 261.401305 106.63198 
L 262.417544 107.173569 
L 263.433784 107.551453 
L 265.466262 108.94627 
L 266.482501 109.221102 
L 267.49874 109.772448 
L 268.51498 111.434376 
L 269.531219 112.246537 
L 271.563697 117.243368 
L 273.596175 122.477571 
L 274.612415 123.345089 
L 275.628654 124.3781 
L 276.644893 124.26835 
L 277.661132 123.829654 
L 278.677371 123.618286 
L 279.693611 123.943888 
L 280.70985 123.740736 
L 281.726089 124.016092 
L 282.742328 123.82323 
L 283.758567 123.275011 
L 285.791046 122.73698 
L 286.807285 122.21874 
L 287.823524 122.08213 
L 290.872242 120.233126 
L 293.920959 119.177388 
L 296.969677 117.154858 
L 297.985916 116.573347 
L 299.002155 115.01267 
L 300.018394 114.36371 
L 302.050873 109.207378 
L 304.083351 103.661151 
L 305.09959 102.657044 
L 306.115829 101.299704 
L 307.132069 100.987805 
L 308.148308 101.399595 
L 309.164547 101.358716 
L 310.180786 101.06197 
L 311.197025 101.272812 
L 312.213265 100.388802 
L 313.229504 99.723606 
L 314.245743 99.428846 
L 315.261982 98.825885 
L 316.278221 98.605686 
L 317.29446 98.862784 
L 318.3107 98.365358 
L 319.326939 98.614706 
L 321.359417 98.635128 
L 322.375656 98.743071 
L 323.391896 98.666279 
L 324.408135 98.460003 
L 325.424374 98.865826 
L 326.440613 98.922488 
L 327.456852 99.323393 
L 328.473092 99.977621 
L 329.489331 100.321151 
L 330.50557 101.010604 
L 331.521809 101.534629 
L 332.538048 102.671564 
L 333.554287 104.322206 
L 334.570527 105.63807 
L 335.586766 105.740997 
L 336.603005 107.371689 
L 337.619244 108.116062 
L 338.635483 108.304769 
L 341.684201 111.551596 
L 342.70044 112.177739 
L 343.716679 111.755227 
L 344.732919 112.228697 
L 345.749158 113.713914 
L 346.765397 113.467356 
L 347.781636 114.222458 
L 348.797875 114.022652 
L 349.814114 114.164425 
L 350.830354 113.955946 
L 351.846593 115.84135 
L 352.862832 116.131959 
L 353.879071 117.031135 
L 354.89531 117.340341 
L 355.91155 117.409911 
L 357.944028 121.558238 
L 358.960267 121.3599 
L 359.976506 122.496766 
L 360.992745 122.271284 
L 362.008985 122.529266 
L 363.025224 122.547949 
L 364.041463 121.15618 
L 365.057702 120.488225 
L 366.073941 120.767328 
L 367.090181 119.247766 
L 368.10642 118.925095 
L 369.122659 118.301577 
L 370.138898 117.168825 
L 371.155137 116.395128 
L 372.171377 115.203304 
L 373.187616 114.636279 
L 374.203855 115.107884 
L 375.220094 114.831732 
L 376.236333 113.949179 
L 377.252572 115.014361 
L 378.268812 114.59739 
L 379.285051 115.57732 
L 380.30129 115.561627 
L 381.317529 117.172945 
L 382.333768 115.395848 
L 383.350008 115.61877 
L 384.366247 115.039009 
L 385.382486 114.90981 
L 386.398725 115.714614 
L 388.431204 113.103811 
L 389.447443 114.426243 
L 390.463682 114.371957 
L 391.479921 117.636116 
L 392.49616 119.728828 
L 393.512399 119.453395 
L 394.528639 122.337806 
L 395.544878 124.058419 
L 396.561117 132.920724 
L 400.626074 178.327664 
L 403.674791 214.93272 
L 404.691031 224.964658 
L 405.70727 231.322507 
L 407.739748 242.422365 
L 408.755987 245.845152 
L 409.772226 249.883272 
L 410.788466 250.557694 
L 411.804705 252.005954 
L 413.837183 258.887085 
L 414.853422 259.203053 
L 415.869662 260.234155 
L 416.885901 263.05066 
L 417.90214 266.261901 
L 418.918379 267.321267 
L 419.934618 269.271729 
L 420.950857 270.581967 
L 421.967097 268.893903 
L 422.983336 271.551971 
L 423.999575 279.108836 
L 425.015814 282.279521 
L 426.032053 286.117722 
L 427.048293 283.964852 
L 428.064532 277.85438 
L 429.080771 270.379374 
L 431.113249 253.504538 
L 432.129489 245.889489 
L 433.145728 236.322105 
L 434.161967 229.314977 
L 435.178206 221.50091 
L 436.194445 216.165025 
L 437.210684 212.574831 
L 438.226924 207.079398 
L 439.243163 204.162813 
L 440.259402 200.706406 
L 441.275641 199.523225 
L 442.29188 197.457393 
L 443.30812 195.059657 
L 444.324359 191.881695 
L 445.340598 194.358327 
L 446.356837 196.327058 
L 448.389316 190.121914 
L 449.405555 188.361435 
L 450.421794 184.149627 
L 451.438033 181.472996 
L 452.454272 179.563308 
L 453.470511 174.008716 
L 454.486751 166.161068 
L 457.535468 148.432554 
L 458.551707 143.454844 
L 459.567947 140.872105 
L 460.584186 137.294751 
L 461.600425 135.023285 
L 462.616664 130.452962 
L 463.632903 127.734596 
L 464.649143 123.186199 
L 465.665382 120.655363 
L 466.681621 119.537303 
L 467.69786 117.695005 
L 468.714099 116.838486 
L 469.730338 116.896157 
L 470.746578 116.061018 
L 471.762817 116.794696 
L 472.779056 116.867778 
L 473.795295 115.582689 
L 474.811534 115.027507 
L 475.827774 113.77382 
L 476.844013 111.735932 
L 477.860252 112.069007 
L 478.876491 111.631328 
L 479.89273 112.781435 
L 480.908969 115.25989 
L 481.925209 115.156707 
L 482.941448 116.392603 
L 483.957687 116.163096 
L 484.973926 116.32041 
L 487.006405 117.42431 
L 488.022644 116.674824 
L 489.038883 117.386086 
L 490.055122 117.043111 
L 491.071361 116.946467 
L 493.10384 116.223086 
L 494.120079 115.581847 
L 497.168796 115.430698 
L 499.201275 115.854115 
L 500.217514 115.151792 
L 501.233753 114.98177 
L 502.249992 114.630612 
L 503.266232 113.743301 
L 504.282471 114.795843 
L 505.29871 114.827709 
L 506.314949 113.639177 
L 508.347428 112.079497 
L 509.363667 112.371217 
L 510.379906 112.35093 
L 511.396145 110.814773 
L 512.412384 111.627299 
L 513.428623 110.763412 
L 514.444863 111.543311 
L 515.461102 111.465974 
L 516.477341 110.508798 
L 517.49358 109.928884 
L 518.509819 109.822553 
L 519.526059 109.452061 
L 520.542298 109.557635 
L 523.591015 109.279082 
L 524.607255 109.197959 
L 525.623494 109.471642 
L 526.639733 110.034626 
L 527.655972 110.337679 
L 528.672211 109.734557 
L 529.68845 108.943323 
L 530.70469 108.905138 
L 531.720929 108.708397 
L 532.737168 108.832407 
L 533.753407 108.763497 
L 535.785886 107.889619 
L 536.802125 107.028838 
L 537.818364 106.784946 
L 539.850842 105.581156 
L 540.867081 104.278906 
L 541.883321 105.3867 
L 542.89956 104.34489 
L 543.915799 103.622938 
L 544.932038 105.327952 
L 545.948277 106.46371 
L 546.964517 108.635627 
L 547.980756 110.168652 
L 548.996995 110.401738 
L 550.013234 111.664656 
L 551.029473 113.456378 
L 553.061952 121.77181 
L 554.078191 126.194919 
L 555.09443 129.088803 
L 556.110669 131.190067 
L 557.126908 132.864476 
L 558.143148 133.960973 
L 560.175626 137.827927 
L 561.191865 138.233866 
L 563.224344 140.381836 
L 564.240583 144.14881 
L 565.256822 145.904537 
L 566.273061 146.691304 
L 567.2893 147.069372 
L 568.30554 147.156725 
L 569.321779 147.029998 
L 570.338018 147.094313 
L 571.354257 147.574951 
L 572.370496 146.426093 
L 573.386735 147.139512 
L 574.402975 147.331446 
L 575.419214 145.29051 
L 576.435453 144.404318 
L 577.451692 143.010319 
L 578.467931 142.234749 
L 579.484171 142.370532 
L 580.50041 140.8884 
L 581.516649 141.53538 
L 582.532888 137.485226 
L 583.549127 135.984554 
L 585.581606 129.6033 
L 586.597845 127.059746 
L 587.614084 126.259255 
L 588.630323 125.01248 
L 589.646562 122.882497 
L 590.662802 121.39975 
L 591.679041 120.567251 
L 592.69528 120.044935 
L 593.711519 118.509952 
L 594.727758 114.688559 
L 595.743998 112.436807 
L 596.760237 112.192376 
L 597.776476 112.237954 
L 598.792715 112.02764 
L 599.808954 112.520521 
L 600.825194 112.135838 
L 601.841433 111.304979 
L 602.857672 110.6637 
L 603.873911 110.209674 
L 605.906389 110.118563 
L 606.922629 109.2252 
L 608.955107 107.144035 
L 609.971346 106.28095 
L 610.987585 106.007912 
L 612.003825 103.377622 
L 613.020064 103.988141 
L 614.036303 101.672869 
L 615.052542 101.774927 
L 616.068781 103.222752 
L 617.08502 103.569767 
L 618.10126 102.33079 
L 619.117499 102.051758 
L 620.133738 102.426704 
L 621.149977 102.405305 
L 622.166216 102.997112 
L 625.214934 105.4267 
L 626.231173 105.987341 
L 627.247412 105.724045 
L 629.279891 105.720083 
L 630.29613 105.089148 
L 631.312369 105.490042 
L 632.328608 105.757082 
L 633.344847 105.904756 
L 634.361087 105.926083 
L 635.377326 105.811134 
L 636.393565 106.018744 
L 637.409804 105.961694 
L 640.458522 106.326071 
L 642.491 105.924516 
L 644.523479 104.251195 
L 645.539718 103.06222 
L 646.555957 102.062488 
L 647.572196 101.503147 
L 648.588435 101.211935 
L 650.620914 100.901137 
L 651.637153 100.572063 
L 652.653392 100.010356 
L 653.669631 98.481304 
L 654.68587 97.778839 
L 655.70211 96.915638 
L 656.718349 96.35436 
L 657.734588 96.127692 
L 658.750827 95.704528 
L 659.767066 95.92708 
L 660.783306 96.28522 
L 662.815784 96.652069 
L 663.832023 96.766384 
L 664.848262 96.369279 
L 665.864501 96.920067 
L 666.880741 96.587705 
L 667.89698 97.050191 
L 668.913219 97.254581 
L 669.929458 97.81756 
L 671.961937 100.862321 
L 672.978176 100.838731 
L 673.994415 101.351531 
L 676.026893 111.073667 
L 678.059372 119.70532 
L 679.075611 120.890113 
L 680.09185 120.558842 
L 681.108089 122.902098 
L 682.124328 123.983358 
L 683.140568 124.00996 
L 684.156807 123.804633 
L 685.173046 125.284675 
L 686.189285 125.271241 
L 689.238003 125.810295 
L 690.254242 126.500109 
L 691.270481 126.403079 
L 692.28672 126.888061 
L 693.302959 126.85422 
L 695.335438 128.04145 
L 696.351677 127.723532 
L 697.367916 127.643482 
L 699.400395 127.033977 
L 700.416634 126.43662 
L 702.449112 123.54538 
L 703.465351 123.683257 
L 704.481591 123.276765 
L 706.514069 113.460905 
L 708.546547 104.904332 
L 709.562786 103.989282 
L 710.579026 104.374276 
L 711.595265 102.232361 
L 712.611504 101.113326 
L 713.627743 100.925608 
L 714.643982 101.132904 
L 715.660222 99.827774 
L 717.6927 99.753996 
L 719.725178 99.153761 
L 720.741418 98.240388 
L 721.757657 98.366361 
L 722.773896 97.293387 
L 723.790135 97.325694 
L 724.806374 96.52462 
L 725.822613 96.488144 
L 727.855092 96.840447 
L 729.88757 96.648165 
L 730.903809 96.599706 
L 731.920049 96.424693 
L 732.936288 96.68737 
L 733.952527 96.725445 
L 734.968766 96.455135 
L 735.985005 96.321741 
L 737.001244 96.674066 
L 740.049962 96.71823 
L 741.066201 96.599178 
L 743.09868 97.020088 
L 745.131158 98.833586 
L 746.147397 100.347008 
L 747.163636 104.232995 
L 747.163636 104.232995 
" clip-path="url(#p25d5ccdaf5)" style="fill: none; stroke: #2ca02c; stroke-width: 4; stroke-linecap: square"/>
   </g>
   <g id="line2d_30"/>
   <g id="line2d_31"/>
   <g id="line2d_32"/>
   <g id="patch_3">
    <path d="M 108 512.64 
L 108 69.12 
" style="fill: none; stroke: #000000; stroke-width: 0.8; stroke-linejoin: miter; stroke-linecap: square"/>
   </g>
   <g id="patch_4">
    <path d="M 777.6 512.64 
L 777.6 69.12 
" style="fill: none; stroke: #000000; stroke-width: 0.8; stroke-linejoin: miter; stroke-linecap: square"/>
   </g>
   <g id="patch_5">
    <path d="M 108 512.64 
L 777.6 512.64 
" style="fill: none; stroke: #000000; stroke-width: 0.8; stroke-linejoin: miter; stroke-linecap: square"/>
   </g>
   <g id="patch_6">
    <path d="M 108 69.12 
L 777.6 69.12 
" style="fill: none; stroke: #000000; stroke-width: 0.8; stroke-linejoin: miter; stroke-linecap: square"/>
   </g>
   <g id="text_16">
    <!-- client5 -->
    <g transform="translate(341.315625 56.641875) scale(0.6 -0.6)">
     <defs>
      <path id="DejaVuSans-63" d="M 3122 3366 
L 3122 2828 
Q 2878 2963 2633 3030 
Q 2388 3097 2138 3097 
Q 1578 3097 1268 2742 
Q 959 2388 959 1747 
Q 959 1106 1268 751 
Q 1578 397 2138 397 
Q 2388 397 2633 464 
Q 2878 531 3122 666 
L 3122 134 
Q 2881 22 2623 -34 
Q 2366 -91 2075 -91 
Q 1284 -91 818 406 
Q 353 903 353 1747 
Q 353 2603 823 3093 
Q 1294 3584 2113 3584 
Q 2378 3584 2631 3529 
Q 2884 3475 3122 3366 
z
" transform="scale(0.015625)"/>
      <path id="DejaVuSans-6c" d="M 603 4863 
L 1178 4863 
L 1178 0 
L 603 0 
L 603 4863 
z
" transform="scale(0.015625)"/>
     </defs>
     <use xlink:href="#DejaVuSans-63"/>
     <use xlink:href="#DejaVuSans-6c" x="54.980469"/>
     <use xlink:href="#DejaVuSans-69" x="82.763672"/>
     <use xlink:href="#DejaVuSans-65" x="110.546875"/>
     <use xlink:href="#DejaVuSans-6e" x="172.070312"/>
     <use xlink:href="#DejaVuSans-74" x="235.449219"/>
     <use xlink:href="#DejaVuSans-35" x="274.658203"/>
    </g>
   </g>
   <g id="legend_1">
    <g id="patch_7">
     <path d="M 93.3625 385.505 
L 749.6 385.505 
Q 757.6 385.505 757.6 377.505 
L 757.6 204.255 
Q 757.6 196.255 749.6 196.255 
L 93.3625 196.255 
Q 85.3625 196.255 85.3625 204.255 
L 85.3625 377.505 
Q 85.3625 385.505 93.3625 385.505 
z
" style="fill: #ffffff; opacity: 0.8; stroke: #cccccc; stroke-linejoin: miter"/>
    </g>
    <g id="line2d_33">
     <path d="M 101.3625 228.64875 
L 141.3625 228.64875 
L 181.3625 228.64875 
" style="fill: none; stroke: #1f77b4; stroke-width: 4; stroke-linecap: square"/>
    </g>
    <g id="text_17">
     <!-- fedavg_private_regressors -->
     <g transform="translate(213.3625 242.64875) scale(0.4 -0.4)">
      <defs>
       <path id="DejaVuSans-66" d="M 2375 4863 
L 2375 4384 
L 1825 4384 
Q 1516 4384 1395 4259 
Q 1275 4134 1275 3809 
L 1275 3500 
L 2222 3500 
L 2222 3053 
L 1275 3053 
L 1275 0 
L 697 0 
L 697 3053 
L 147 3053 
L 147 3500 
L 697 3500 
L 697 3744 
Q 697 4328 969 4595 
Q 1241 4863 1831 4863 
L 2375 4863 
z
" transform="scale(0.015625)"/>
       <path id="DejaVuSans-64" d="M 2906 2969 
L 2906 4863 
L 3481 4863 
L 3481 0 
L 2906 0 
L 2906 525 
Q 2725 213 2448 61 
Q 2172 -91 1784 -91 
Q 1150 -91 751 415 
Q 353 922 353 1747 
Q 353 2572 751 3078 
Q 1150 3584 1784 3584 
Q 2172 3584 2448 3432 
Q 2725 3281 2906 2969 
z
M 947 1747 
Q 947 1113 1208 752 
Q 1469 391 1925 391 
Q 2381 391 2643 752 
Q 2906 1113 2906 1747 
Q 2906 2381 2643 2742 
Q 2381 3103 1925 3103 
Q 1469 3103 1208 2742 
Q 947 2381 947 1747 
z
" transform="scale(0.015625)"/>
       <path id="DejaVuSans-76" d="M 191 3500 
L 800 3500 
L 1894 563 
L 2988 3500 
L 3597 3500 
L 2284 0 
L 1503 0 
L 191 3500 
z
" transform="scale(0.015625)"/>
       <path id="DejaVuSans-67" d="M 2906 1791 
Q 2906 2416 2648 2759 
Q 2391 3103 1925 3103 
Q 1463 3103 1205 2759 
Q 947 2416 947 1791 
Q 947 1169 1205 825 
Q 1463 481 1925 481 
Q 2391 481 2648 825 
Q 2906 1169 2906 1791 
z
M 3481 434 
Q 3481 -459 3084 -895 
Q 2688 -1331 1869 -1331 
Q 1566 -1331 1297 -1286 
Q 1028 -1241 775 -1147 
L 775 -588 
Q 1028 -725 1275 -790 
Q 1522 -856 1778 -856 
Q 2344 -856 2625 -561 
Q 2906 -266 2906 331 
L 2906 616 
Q 2728 306 2450 153 
Q 2172 0 1784 0 
Q 1141 0 747 490 
Q 353 981 353 1791 
Q 353 2603 747 3093 
Q 1141 3584 1784 3584 
Q 2172 3584 2450 3431 
Q 2728 3278 2906 2969 
L 2906 3500 
L 3481 3500 
L 3481 434 
z
" transform="scale(0.015625)"/>
       <path id="DejaVuSans-5f" d="M 3263 -1063 
L 3263 -1509 
L -63 -1509 
L -63 -1063 
L 3263 -1063 
z
" transform="scale(0.015625)"/>
      </defs>
      <use xlink:href="#DejaVuSans-66"/>
      <use xlink:href="#DejaVuSans-65" x="35.205078"/>
      <use xlink:href="#DejaVuSans-64" x="96.728516"/>
      <use xlink:href="#DejaVuSans-61" x="160.205078"/>
      <use xlink:href="#DejaVuSans-76" x="221.484375"/>
      <use xlink:href="#DejaVuSans-67" x="280.664062"/>
      <use xlink:href="#DejaVuSans-5f" x="344.140625"/>
      <use xlink:href="#DejaVuSans-70" x="394.140625"/>
      <use xlink:href="#DejaVuSans-72" x="457.617188"/>
      <use xlink:href="#DejaVuSans-69" x="498.730469"/>
      <use xlink:href="#DejaVuSans-76" x="526.513672"/>
      <use xlink:href="#DejaVuSans-61" x="585.693359"/>
      <use xlink:href="#DejaVuSans-74" x="646.972656"/>
      <use xlink:href="#DejaVuSans-65" x="686.181641"/>
      <use xlink:href="#DejaVuSans-5f" x="747.705078"/>
      <use xlink:href="#DejaVuSans-72" x="797.705078"/>
      <use xlink:href="#DejaVuSans-65" x="836.568359"/>
      <use xlink:href="#DejaVuSans-67" x="898.091797"/>
      <use xlink:href="#DejaVuSans-72" x="961.568359"/>
      <use xlink:href="#DejaVuSans-65" x="1000.431641"/>
      <use xlink:href="#DejaVuSans-73" x="1061.955078"/>
      <use xlink:href="#DejaVuSans-73" x="1114.054688"/>
      <use xlink:href="#DejaVuSans-6f" x="1166.154297"/>
      <use xlink:href="#DejaVuSans-72" x="1227.335938"/>
      <use xlink:href="#DejaVuSans-73" x="1268.449219"/>
     </g>
    </g>
    <g id="line2d_34">
     <path d="M 101.3625 288.47375 
L 141.3625 288.47375 
L 181.3625 288.47375 
" style="fill: none; stroke: #ff7f0e; stroke-width: 4; stroke-linecap: square"/>
    </g>
    <g id="text_18">
     <!-- fedavg -->
     <g transform="translate(213.3625 302.47375) scale(0.4 -0.4)">
      <use xlink:href="#DejaVuSans-66"/>
      <use xlink:href="#DejaVuSans-65" x="35.205078"/>
      <use xlink:href="#DejaVuSans-64" x="96.728516"/>
      <use xlink:href="#DejaVuSans-61" x="160.205078"/>
      <use xlink:href="#DejaVuSans-76" x="221.484375"/>
      <use xlink:href="#DejaVuSans-67" x="280.664062"/>
     </g>
    </g>
    <g id="line2d_35">
     <path d="M 101.3625 347.18625 
L 141.3625 347.18625 
L 181.3625 347.18625 
" style="fill: none; stroke: #2ca02c; stroke-width: 4; stroke-linecap: square"/>
    </g>
    <g id="text_19">
     <!-- local -->
     <g transform="translate(213.3625 361.18625) scale(0.4 -0.4)">
      <use xlink:href="#DejaVuSans-6c"/>
      <use xlink:href="#DejaVuSans-6f" x="27.783203"/>
      <use xlink:href="#DejaVuSans-63" x="88.964844"/>
      <use xlink:href="#DejaVuSans-61" x="143.945312"/>
      <use xlink:href="#DejaVuSans-6c" x="205.224609"/>
     </g>
    </g>
   </g>
  </g>
 </g>
 <defs>
  <clipPath id="p25d5ccdaf5">
   <rect x="108" y="69.12" width="669.6" height="443.52"/>
  </clipPath>
 </defs>
</svg>
