<svg version="1.1" viewBox="0.0 0.0 432.0 307.1653543307087" fill="none" stroke="none" stroke-linecap="square" stroke-miterlimit="10" xmlns:xlink="http://www.w3.org/1999/xlink" xmlns="http://www.w3.org/2000/svg"><clipPath id="p8.0"><path d="m0 0l432.0 0l0 307.16534l-432.0 0l0 -307.16534z" clip-rule="nonzero"/></clipPath><g clip-path="url(#p8.0)"><path fill="#ffffff" d="m0 0l432.0 0l0 307.16534l-432.0 0z" fill-rule="evenodd"/><path fill="#76b900" d="m9.381207 132.99168l166.37086 0l0 67.25209l-166.37086 0z" fill-rule="evenodd"/><path fill="#000000" d="m32.695545 160.65248l0.859375 -2.15625q0.65625 0.46875 1.625 0.796875q0.984375 0.328125 1.765625 0.328125q1.359375 0 2.1875 -0.75q0.84375 -0.75 0.84375 -1.921875q0 -0.859375 -0.46875 -1.59375q-0.453125 -0.75 -2.328125 -1.640625l-1.375 -0.640625q-1.765625 -0.8125 -2.46875 -1.9375q-0.6875 -1.125 -0.6875 -2.71875q0 -1.921875 1.359375 -3.1875q1.359375 -1.265625 3.5 -1.265625q2.84375 0 3.953125 0.9375l-0.6875 2.03125q-0.46875 -0.34375 -1.4375 -0.65625q-0.953125 -0.3125 -1.78125 -0.3125q-1.1875 0 -1.875 0.6875q-0.6875 0.671875 -0.6875 1.734375q0 0.65625 0.25 1.203125q0.25 0.53125 0.6875 0.90625q0.4375 0.359375 1.796875 1.015625l1.40625 0.65625q1.75 0.84375 2.453125 2.0q0.71875 1.140625 0.71875 2.921875q0 1.9375 -1.5625 3.296875q-1.546875 1.34375 -4.140625 1.34375q-2.28125 0 -3.90625 -1.078125zm19.871094 0.78125l0 -7.890625q0 -1.40625 -0.6875 -2.203125q-0.6875 -0.8125 -1.9375 -0.8125q-0.8125 0 -1.625 0.46875q-0.8125 0.46875 -1.25 1.109375l0 9.328125l-2.234375 0l0 -17.703125l2.234375 0l0 6.53125q0.4375 -0.6875 1.421875 -1.140625q1.0 -0.46875 2.0625 -0.46875q1.984375 0 3.109375 1.3125q1.140625 1.3125 1.140625 3.578125l0 7.890625l-2.234375 0zm12.47266 -1.4375q-1.3281288 1.671875 -4.093754 1.671875q-1.46875 0 -2.5625 -1.0625q-1.078125 -1.078125 -1.078125 -2.671875q0 -1.921875 1.671875 -3.234375q1.671875 -1.3125 4.265625 -1.3125q0.703125 0 1.5937538 0.296875q0 -3.046875 -2.7187538 -3.046875q-2.09375 0 -3.21875 1.125l-0.9375 -1.859375q0.640625 -0.515625 1.75 -0.875q1.125 -0.375 2.140625 -0.375q2.7343788 0 3.9687538 1.25q1.234375 1.234375 1.234375 3.9375l0 4.5q0 1.65625 0.984375 2.203125l0 1.109375q-1.359375 0 -2.03125 -0.375q-0.671875 -0.390625 -0.96875 -1.28125zm-0.203125 -4.734375q-1.0625038 -0.234375 -1.4843788 -0.234375q-1.6875 0 -2.75 0.875q-1.0625 0.859375 -1.0625 2.046875q0 1.953125 2.296875 1.953125q1.6875 0 3.0000038 -1.59375l0 -3.046875zm12.546875 -4.234375q-0.734375 -0.5 -1.46875 -0.5q-1.1875 0 -2.078125 1.09375q-0.875 1.078125 -0.875 2.609375l0 7.203125l-2.21875 0l0 -12.546875l2.21875 0l0 2.0q1.21875 -2.234375 3.625 -2.234375q0.59375 0 1.71875 0.203125l-0.921875 2.171875zm13.078125 4.34375l-9.046875 0q0 2.203125 1.203125 3.390625q1.0625 1.03125 2.75 1.03125q1.90625 0 3.1875 -1.109375l0.9375 1.59375q-0.515625 0.515625 -1.59375 0.890625q-1.328125 0.5 -2.96875 0.5q-2.375 0 -4.015625 -1.609375q-1.84375 -1.765625 -1.84375 -4.75q0 -3.109375 1.890625 -4.984375q1.6875 -1.671875 3.984375 -1.671875q2.6875 0 4.21875 1.5q1.46875 1.453125 1.46875 3.859375q0 0.734375 -0.171875 1.359375zm-5.40625 -4.84375q-1.484375 0 -2.5 0.953125q-0.953125 0.921875 -1.078125 2.28125l6.9375 0q0 -1.359375 -0.84375 -2.25q-0.921875 -0.984375 -2.515625 -0.984375zm15.886719 10.890625l0 -0.921875q-1.171875 1.15625 -3.375 1.15625q-2.359375 0 -3.828125 -1.6875q-1.46875 -1.6875 -1.46875 -4.5q0 -2.828125 1.6875 -4.8125q1.6875 -2.0 4.03125 -2.0q1.9375 0 2.953125 0.90625l0 -5.828125l2.21875 0l0 17.6875l-2.21875 0zm0 -9.625q-0.84375 -1.265625 -2.3125 -1.265625q-1.796875 0 -2.90625 1.34375q-1.109375 1.328125 -1.109375 3.390625q0 4.53125 4.125 4.53125q0.53125 0 1.265625 -0.328125q0.75 -0.34375 0.9375 -0.71875l0 -6.953125zm15.1640625 -5.421875l0 4.765625l5.671875 0l0 2.0l-5.671875 0l0 6.1875l7.78125 0l0 2.109375l-10.125 0l0 -17.171875l10.25 0l0 2.109375l-7.90625 0zm9.730469 14.28125l0.859375 -2.15625q0.65625 0.46875 1.6249924 0.796875q0.984375 0.328125 1.765625 0.328125q1.359375 0 2.1875 -0.75q0.84375 -0.75 0.84375 -1.921875q0 -0.859375 -0.46875 -1.59375q-0.453125 -0.75 -2.328125 -1.640625l-1.375 -0.640625q-1.7656174 -0.8125 -2.4687424 -1.9375q-0.6875 -1.125 -0.6875 -2.71875q0 -1.921875 1.359375 -3.1875q1.3593674 -1.265625 3.4999924 -1.265625q2.84375 0 3.953125 0.9375l-0.6875 2.03125q-0.46875 -0.34375 -1.4375 -0.65625q-0.953125 -0.3125 -1.78125 -0.3125q-1.1875 0 -1.875 0.6875q-0.6875 0.671875 -0.6875 1.734375q0 0.65625 0.25 1.203125q0.25 0.53125 0.6875 0.90625q0.4375 0.359375 1.796875 1.015625l1.40625 0.65625q1.75 0.84375 2.453125 2.0q0.71875 1.140625 0.71875 2.921875q0 1.9375 -1.5625 3.296875q-1.546875 1.34375 -4.140625 1.34375q-2.2812424 0 -3.9062424 -1.078125zm25.246086 0.78125l-2.046875 -11.03125l-3.75 11.265625l-0.578125 0l-3.859375 -11.265625l-1.984375 11.03125l-2.234375 0l3.21875 -17.171875l1.0625 0l4.09375 12.53125l3.765625 -12.53125l1.0625 0l3.46875 17.171875l-2.21875 0z" fill-rule="nonzero"/><path fill="#000000" d="m66.35375 176.55685l-1.453125 0l0 -1.75l1.453125 0l0 -2.625l2.234375 -0.859375l0 3.484375l3.4375 0l0 1.75l-3.4375 0l0 6.234375q0 1.578125 0.53125 2.25q0.53125 0.671875 1.71875 0.671875q0.859375 0 1.765625 -0.4375l0.328125 1.953125q-1.375 0.359375 -3.03125 0.359375q-1.484375 0 -2.515625 -1.109375q-1.03125 -1.109375 -1.03125 -2.796875l0 -7.125zm15.546875 0.390625q-0.734375 -0.5 -1.46875 -0.5q-1.1875 0 -2.078125 1.09375q-0.875 1.078125 -0.875 2.609375l0 7.203125l-2.21875 0l0 -12.546875l2.21875 0l0 2.0q1.21875 -2.234375 3.625 -2.234375q0.59375 0 1.71875 0.203125l-0.921875 2.171875zm4.609375 -2.140625l0 8.0q0 2.90625 2.53125 2.90625q1.09375 0 2.0 -0.625q0.921875 -0.640625 1.21875 -1.46875l0 -8.8125l2.21875 0l0 12.546875l-2.21875 0l0 -1.734375q-0.375 0.734375 -1.515625 1.359375q-1.125 0.609375 -2.203125 0.609375q-2.0625 0 -3.15625 -1.1875q-1.09375 -1.1875 -1.09375 -3.359375l0 -8.234375l2.21875 0zm18.738281 12.546875l0 -7.296875q0 -2.015625 -0.609375 -2.8125q-0.609375 -0.796875 -2.015625 -0.796875q-0.765625 0 -1.609375 0.453125q-0.828125 0.453125 -1.265625 1.125l0 9.328125l-2.234375 0l0 -12.546875l1.53125 0l0.703125 1.609375q1.09375 -1.84375 3.59375 -1.84375q4.125 0 4.125 5.015625l0 7.765625l-2.21875 0zm13.488281 0l-3.9375 -6.28125l-1.9375 2.0l0 4.28125l-2.234375 0l0 -17.703125l2.234375 0l0 10.984375l4.796875 -5.828125l2.609375 0l-4.015625 4.765625l4.90625 7.78125l-2.421875 0z" fill-rule="nonzero"/><path fill="#76b900" d="m256.4359 61.249565l73.44647 0l0 23.249306l-73.44647 0z" fill-rule="evenodd"/><path fill="#000000" d="m285.83072 70.70968l0 4.484375l-0.703125 0l0 -4.484375l-1.625 0l0 -0.640625l4.03125 0l0 0.640625l-1.703125 0zm3.450653 4.046875q-0.390625 0.5 -1.21875 0.5q-0.4375 0 -0.765625 -0.3125q-0.3125 -0.3125 -0.3125 -0.796875q0 -0.5625 0.5 -0.953125q0.5 -0.40625 1.265625 -0.40625q0.203125 0 0.46875 0.09375q0 -0.90625 -0.796875 -0.90625q-0.625 0 -0.96875 0.34375l-0.28125 -0.5625q0.1875 -0.15625 0.515625 -0.265625q0.34375 -0.109375 0.65625 -0.109375q0.8125 0 1.171875 0.375q0.375 0.359375 0.375 1.171875l0 1.34375q0 0.484375 0.296875 0.65625l0 0.328125q-0.40625 0 -0.609375 -0.109375q-0.203125 -0.125 -0.296875 -0.390625zm-0.0625 -1.40625q-0.3125 -0.0625 -0.4375 -0.0625q-0.5 0 -0.828125 0.265625q-0.3125 0.25 -0.3125 0.609375q0 0.578125 0.6875 0.578125q0.515625 0 0.890625 -0.484375l0 -0.90625zm1.4785767 1.625l0.234375 -0.640625q0.546875 0.375 0.890625 0.375q0.609375 0 0.609375 -0.515625q0 -0.375 -0.59375 -0.640625q-0.453125 -0.21875 -0.625 -0.3125q-0.15625 -0.109375 -0.28125 -0.25q-0.109375 -0.140625 -0.171875 -0.296875q-0.046875 -0.15625 -0.046875 -0.328125q0 -0.46875 0.328125 -0.71875q0.34375 -0.265625 0.890625 -0.265625q0.40625 0 1.03125 0.265625l-0.1875 0.609375q-0.40625 -0.3125 -0.796875 -0.3125q-0.234375 0 -0.40625 0.109375q-0.15625 0.109375 -0.15625 0.28125q0 0.359375 0.40625 0.546875l0.46875 0.21875q0.4375 0.203125 0.640625 0.453125q0.203125 0.25 0.203125 0.640625q0 0.5 -0.359375 0.78125q-0.34375 0.28125 -0.96875 0.28125q-0.59375 0 -1.109375 -0.28125zm5.553009 0.21875l-1.171875 -1.875l-0.578125 0.59375l0 1.28125l-0.671875 0l0 -5.28125l0.671875 0l0 3.28125l1.421875 -1.75l0.78125 0l-1.203125 1.4375l1.46875 2.3125l-0.71875 0zm4.6092834 0l0 -3.921875l-1.03125 0.640625l0 -0.640625q0.390625 -0.203125 0.828125 -0.546875q0.453125 -0.359375 0.703125 -0.671875l0.203125 0l0 5.140625l-0.703125 0z" fill-rule="nonzero"/><path fill="#76b900" d="m256.43582 89.88774l73.44647 0l0 23.249306l-73.44647 0z" fill-rule="evenodd"/><path fill="#000000" d="m285.83063 99.34786l0 4.484375l-0.703125 0l0 -4.484375l-1.625 0l0 -0.640625l4.03125 0l0 0.640625l-1.703125 0zm3.450653 4.046875q-0.390625 0.5 -1.21875 0.5q-0.4375 0 -0.765625 -0.3125q-0.3125 -0.3125 -0.3125 -0.796875q0 -0.5625 0.5 -0.953125q0.5 -0.40625 1.265625 -0.40625q0.203125 0 0.46875 0.09375q0 -0.90625 -0.796875 -0.90625q-0.625 0 -0.96875 0.34375l-0.28125 -0.5625q0.1875 -0.15625 0.515625 -0.265625q0.34375 -0.109375 0.65625 -0.109375q0.8125 0 1.171875 0.375q0.375 0.359375 0.375 1.171875l0 1.34375q0 0.484375 0.296875 0.65625l0 0.328125q-0.40625 0 -0.609375 -0.109375q-0.203125 -0.125 -0.296875 -0.390625zm-0.0625 -1.40625q-0.3125 -0.0625 -0.4375 -0.0625q-0.5 0 -0.828125 0.265625q-0.3125 0.25 -0.3125 0.609375q0 0.578125 0.6875 0.578125q0.515625 0 0.890625 -0.484375l0 -0.90625zm1.4785767 1.625l0.234375 -0.640625q0.546875 0.375 0.890625 0.375q0.609375 0 0.609375 -0.515625q0 -0.375 -0.59375 -0.640625q-0.453125 -0.21875 -0.625 -0.3125q-0.15625 -0.109375 -0.28125 -0.25q-0.109375 -0.140625 -0.171875 -0.296875q-0.046875 -0.15625 -0.046875 -0.328125q0 -0.46875 0.328125 -0.71875q0.34375 -0.265625 0.890625 -0.265625q0.40625 0 1.03125 0.265625l-0.1875 0.609375q-0.40625 -0.3125 -0.796875 -0.3125q-0.234375 0 -0.40625 0.109375q-0.15625 0.109375 -0.15625 0.28125q0 0.359375 0.40625 0.546875l0.46875 0.21875q0.4375 0.203125 0.640625 0.453125q0.203125 0.25 0.203125 0.640625q0 0.5 -0.359375 0.78125q-0.34375 0.28125 -0.96875 0.28125q-0.59375 0 -1.109375 -0.28125zm5.553009 0.21875l-1.171875 -1.875l-0.578125 0.59375l0 1.28125l-0.671875 0l0 -5.28125l0.671875 0l0 3.28125l1.421875 -1.75l0.78125 0l-1.203125 1.4375l1.46875 2.3125l-0.71875 0zm3.1092834 0l0 -0.140625l1.609375 -2.453125q0.5 -0.78125 0.5 -1.3125q0 -0.703125 -0.796875 -0.703125q-0.28125 0 -0.53125 0.15625q-0.25 0.140625 -0.359375 0.359375l-0.453125 -0.375q0.125 -0.328125 0.46875 -0.53125q0.34375 -0.203125 0.84375 -0.203125q0.734375 0 1.140625 0.34375q0.421875 0.328125 0.421875 0.953125q0 0.578125 -0.546875 1.453125l-1.15625 1.828125l2.015625 0l0 0.625l-3.15625 0z" fill-rule="nonzero"/><path fill="#76b900" d="m256.4359 118.52601l73.44647 0l0 23.249306l-73.44647 0z" fill-rule="evenodd"/><path fill="#000000" d="m285.83072 127.98612l0 4.4843826l-0.703125 0l0 -4.4843826l-1.625 0l0 -0.640625l4.03125 0l0 0.640625l-1.703125 0zm3.450653 4.0468826q-0.390625 0.5 -1.21875 0.5q-0.4375 0 -0.765625 -0.3125q-0.3125 -0.3125 -0.3125 -0.796875q0 -0.5625 0.5 -0.953125q0.5 -0.40625 1.265625 -0.40625q0.203125 0 0.46875 0.09375q0 -0.90625 -0.796875 -0.90625q-0.625 0 -0.96875 0.34375l-0.28125 -0.5625q0.1875 -0.15625 0.515625 -0.265625q0.34375 -0.109375 0.65625 -0.109375q0.8125 0 1.171875 0.375q0.375 0.359375 0.375 1.171875l0 1.34375q0 0.484375 0.296875 0.65625l0 0.328125q-0.40625 0 -0.609375 -0.109375q-0.203125 -0.125 -0.296875 -0.390625zm-0.0625 -1.40625q-0.3125 -0.0625 -0.4375 -0.0625q-0.5 0 -0.828125 0.265625q-0.3125 0.25 -0.3125 0.609375q0 0.578125 0.6875 0.578125q0.515625 0 0.890625 -0.484375l0 -0.90625zm1.4785767 1.625l0.234375 -0.640625q0.546875 0.375 0.890625 0.375q0.609375 0 0.609375 -0.515625q0 -0.375 -0.59375 -0.640625q-0.453125 -0.21875 -0.625 -0.3125q-0.15625 -0.109375 -0.28125 -0.25q-0.109375 -0.140625 -0.171875 -0.296875q-0.046875 -0.15625 -0.046875 -0.328125q0 -0.46875 0.328125 -0.71875q0.34375 -0.265625 0.890625 -0.265625q0.40625 0 1.03125 0.265625l-0.1875 0.609375q-0.40625 -0.3125 -0.796875 -0.3125q-0.234375 0 -0.40625 0.109375q-0.15625 0.109375 -0.15625 0.28125q0 0.359375 0.40625 0.546875l0.46875 0.21875q0.4375 0.203125 0.640625 0.453125q0.203125 0.25 0.203125 0.640625q0 0.5 -0.359375 0.78125q-0.34375 0.28125 -0.96875 0.28125q-0.59375 0 -1.109375 -0.28125zm5.553009 0.21875l-1.171875 -1.875l-0.578125 0.59375l0 1.28125l-0.671875 0l0 -5.2812576l0.671875 0l0 3.2812576l1.421875 -1.75l0.78125 0l-1.203125 1.4375l1.46875 2.3125l-0.71875 0zm3.2499084 -0.359375l0.34375 -0.546875q0.34375 0.375 0.859375 0.375q0.96875 0 0.96875 -0.9375q0 -0.4375 -0.28125 -0.703125q-0.28125 -0.28125 -0.75 -0.28125l-0.046875 0l0 -0.5625l0.03125 0q0.890625 0 0.890625 -0.78125q0 -0.8125076 -0.84375 -0.8125076q-0.453125 0 -0.71875 0.29688263l-0.3125 -0.46875763q0.328125 -0.421875 1.078125 -0.421875q0.671875 0 1.09375 0.359375q0.421875 0.34375 0.421875 0.9062576q0 0.421875 -0.234375 0.765625q-0.234375 0.328125 -0.546875 0.4375q0.4375 0.140625 0.6875 0.484375q0.265625 0.34375 0.265625 0.828125q0 0.71875 -0.453125 1.109375q-0.4375 0.375 -1.25 0.375q-0.34375 0 -0.671875 -0.125q-0.328125 -0.125 -0.53125 -0.296875z" fill-rule="nonzero"/><path fill="#76b900" d="m256.43582 195.60628l73.44647 0l0 23.249298l-73.44647 0z" fill-rule="evenodd"/><path fill="#000000" d="m285.83063 205.06639l0 4.484375l-0.703125 0l0 -4.484375l-1.625 0l0 -0.640625l4.03125 0l0 0.640625l-1.703125 0zm3.450653 4.046875q-0.390625 0.5 -1.21875 0.5q-0.4375 0 -0.765625 -0.3125q-0.3125 -0.3125 -0.3125 -0.796875q0 -0.5625 0.5 -0.953125q0.5 -0.40625 1.265625 -0.40625q0.203125 0 0.46875 0.09375q0 -0.90625 -0.796875 -0.90625q-0.625 0 -0.96875 0.34375l-0.28125 -0.5625q0.1875 -0.15625 0.515625 -0.265625q0.34375 -0.109375 0.65625 -0.109375q0.8125 0 1.171875 0.375q0.375 0.359375 0.375 1.171875l0 1.34375q0 0.484375 0.296875 0.65625l0 0.328125q-0.40625 0 -0.609375 -0.109375q-0.203125 -0.125 -0.296875 -0.390625zm-0.0625 -1.40625q-0.3125 -0.0625 -0.4375 -0.0625q-0.5 0 -0.828125 0.265625q-0.3125 0.25 -0.3125 0.609375q0 0.578125 0.6875 0.578125q0.515625 0 0.890625 -0.484375l0 -0.90625zm1.4785767 1.625l0.234375 -0.640625q0.546875 0.375 0.890625 0.375q0.609375 0 0.609375 -0.515625q0 -0.375 -0.59375 -0.640625q-0.453125 -0.21875 -0.625 -0.3125q-0.15625 -0.109375 -0.28125 -0.25q-0.109375 -0.140625 -0.171875 -0.296875q-0.046875 -0.15625 -0.046875 -0.328125q0 -0.46875 0.328125 -0.71875q0.34375 -0.265625 0.890625 -0.265625q0.40625 0 1.03125 0.265625l-0.1875 0.609375q-0.40625 -0.3125 -0.796875 -0.3125q-0.234375 0 -0.40625 0.109375q-0.15625 0.109375 -0.15625 0.28125q0 0.359375 0.40625 0.546875l0.46875 0.21875q0.4375 0.203125 0.640625 0.453125q0.203125 0.25 0.203125 0.640625q0 0.5 -0.359375 0.78125q-0.34375 0.28125 -0.96875 0.28125q-0.59375 0 -1.109375 -0.28125zm5.553009 0.21875l-1.171875 -1.875l-0.578125 0.59375l0 1.28125l-0.671875 0l0 -5.28125l0.671875 0l0 3.28125l1.421875 -1.75l0.78125 0l-1.203125 1.4375l1.46875 2.3125l-0.71875 0zm5.9530334 -1.390625l0 1.390625l-0.65625 0l0 -1.390625l-2.328125 0l0 -0.40625l2.75 -3.34375l0.234375 0l0 3.203125l0.515625 0l0 0.546875l-0.515625 0zm-0.65625 -2.359375l-1.5 1.8125l1.5 0l0 -1.8125z" fill-rule="nonzero"/><path fill="#76b900" d="m256.43573 224.24446l73.44647 0l0 23.249298l-73.44647 0z" fill-rule="evenodd"/><path fill="#000000" d="m285.83054 233.70457l0 4.484375l-0.703125 0l0 -4.484375l-1.625 0l0 -0.640625l4.03125 0l0 0.640625l-1.703125 0zm3.4506836 4.046875q-0.390625 0.5 -1.21875 0.5q-0.4375 0 -0.765625 -0.3125q-0.3125 -0.3125 -0.3125 -0.796875q0 -0.5625 0.5 -0.953125q0.5 -0.40625 1.265625 -0.40625q0.203125 0 0.46875 0.09375q0 -0.90625 -0.796875 -0.90625q-0.625 0 -0.96875 0.34375l-0.28125 -0.5625q0.1875 -0.15625 0.515625 -0.265625q0.34375 -0.109375 0.65625 -0.109375q0.8125 0 1.171875 0.375q0.375 0.359375 0.375 1.171875l0 1.34375q0 0.484375 0.296875 0.65625l0 0.328125q-0.40625 0 -0.609375 -0.109375q-0.203125 -0.125 -0.296875 -0.390625zm-0.0625 -1.40625q-0.3125 -0.0625 -0.4375 -0.0625q-0.5 0 -0.828125 0.265625q-0.3125 0.25 -0.3125 0.609375q0 0.578125 0.6875 0.578125q0.515625 0 0.890625 -0.484375l0 -0.90625zm1.4785767 1.625l0.234375 -0.640625q0.546875 0.375 0.890625 0.375q0.609375 0 0.609375 -0.515625q0 -0.375 -0.59375 -0.640625q-0.453125 -0.21875 -0.625 -0.3125q-0.15625 -0.109375 -0.28125 -0.25q-0.109375 -0.140625 -0.171875 -0.296875q-0.046875 -0.15625 -0.046875 -0.328125q0 -0.46875 0.328125 -0.71875q0.34375 -0.265625 0.890625 -0.265625q0.40625 0 1.03125 0.265625l-0.1875 0.609375q-0.40625 -0.3125 -0.796875 -0.3125q-0.234375 0 -0.40625 0.109375q-0.15625 0.109375 -0.15625 0.28125q0 0.359375 0.40625 0.546875l0.46875 0.21875q0.4375 0.203125 0.640625 0.453125q0.203125 0.25 0.203125 0.640625q0 0.5 -0.359375 0.78125q-0.34375 0.28125 -0.96875 0.28125q-0.59375 0 -1.109375 -0.28125zm5.5529785 0.21875l-1.171875 -1.875l-0.578125 0.59375l0 1.28125l-0.671875 0l0 -5.28125l0.671875 0l0 3.28125l1.421875 -1.75l0.78125 0l-1.203125 1.4375l1.46875 2.3125l-0.71875 0zm3.1092834 0l0 -0.140625l1.609375 -2.453125q0.5 -0.78125 0.5 -1.3125q0 -0.703125 -0.796875 -0.703125q-0.28125 0 -0.53125 0.15625q-0.25 0.140625 -0.359375 0.359375l-0.453125 -0.375q0.125 -0.328125 0.46875 -0.53125q0.34375 -0.203125 0.84375 -0.203125q0.734375 0 1.140625 0.34375q0.421875 0.328125 0.421875 0.953125q0 0.578125 -0.546875 1.453125l-1.15625 1.828125l2.015625 0l0 0.625l-3.15625 0z" fill-rule="nonzero"/><path fill="#76b900" d="m256.43573 265.49347l73.44647 0l0 23.249298l-73.44647 0z" fill-rule="evenodd"/><path fill="#000000" d="m285.83054 274.95358l0 4.484375l-0.703125 0l0 -4.484375l-1.625 0l0 -0.640625l4.03125 0l0 0.640625l-1.703125 0zm3.4506836 4.046875q-0.390625 0.5 -1.21875 0.5q-0.4375 0 -0.765625 -0.3125q-0.3125 -0.3125 -0.3125 -0.796875q0 -0.5625 0.5 -0.953125q0.5 -0.40625 1.265625 -0.40625q0.203125 0 0.46875 0.09375q0 -0.90625 -0.796875 -0.90625q-0.625 0 -0.96875 0.34375l-0.28125 -0.5625q0.1875 -0.15625 0.515625 -0.265625q0.34375 -0.109375 0.65625 -0.109375q0.8125 0 1.171875 0.375q0.375 0.359375 0.375 1.171875l0 1.34375q0 0.484375 0.296875 0.65625l0 0.328125q-0.40625 0 -0.609375 -0.109375q-0.203125 -0.125 -0.296875 -0.390625zm-0.0625 -1.40625q-0.3125 -0.0625 -0.4375 -0.0625q-0.5 0 -0.828125 0.265625q-0.3125 0.25 -0.3125 0.609375q0 0.578125 0.6875 0.578125q0.515625 0 0.890625 -0.484375l0 -0.90625zm1.4785767 1.625l0.234375 -0.640625q0.546875 0.375 0.890625 0.375q0.609375 0 0.609375 -0.515625q0 -0.375 -0.59375 -0.640625q-0.453125 -0.21875 -0.625 -0.3125q-0.15625 -0.109375 -0.28125 -0.25q-0.109375 -0.140625 -0.171875 -0.296875q-0.046875 -0.15625 -0.046875 -0.328125q0 -0.46875 0.328125 -0.71875q0.34375 -0.265625 0.890625 -0.265625q0.40625 0 1.03125 0.265625l-0.1875 0.609375q-0.40625 -0.3125 -0.796875 -0.3125q-0.234375 0 -0.40625 0.109375q-0.15625 0.109375 -0.15625 0.28125q0 0.359375 0.40625 0.546875l0.46875 0.21875q0.4375 0.203125 0.640625 0.453125q0.203125 0.25 0.203125 0.640625q0 0.5 -0.359375 0.78125q-0.34375 0.28125 -0.96875 0.28125q-0.59375 0 -1.109375 -0.28125zm5.5529785 0.21875l-1.171875 -1.875l-0.578125 0.59375l0 1.28125l-0.671875 0l0 -5.28125l0.671875 0l0 3.28125l1.421875 -1.75l0.78125 0l-1.203125 1.4375l1.46875 2.3125l-0.71875 0zm3.6874084 -2.5l-0.234375 -0.15625l0 -2.484375l2.546875 0l0 0.59375l-1.890625 0l0 1.25q0.265625 -0.203125 0.65625 -0.203125q0.71875 0 1.09375 0.4375q0.375 0.421875 0.375 1.203125q0 1.921875 -1.71875 1.921875q-0.71875 0 -1.1875 -0.390625l0.265625 -0.578125q0.484375 0.375 0.921875 0.375q0.984375 0 0.984375 -1.21875q0 -1.15625 -0.96875 -1.15625q-0.46875 0 -0.84375 0.40625z" fill-rule="nonzero"/><path fill="#000000" fill-opacity="0.0" d="m274.37738 224.70094l37.563263 0l0 42.006332l-37.563263 0z" fill-rule="evenodd"/><path fill="#000000" d="m285.88818 254.30093l0 -2.6875l2.5 0l0 2.6875l-2.5 0zm6.03125 0l0 -2.6875l2.5 0l0 2.6875l-2.5 0zm6.015625 0l0 -2.6875l2.5 0l0 2.6875l-2.5 0z" fill-rule="nonzero"/><path fill="#000000" fill-opacity="0.0" d="m246.70184 50.746563l96.453674 0l0 104.44461l-96.453674 0z" fill-rule="evenodd"/><path stroke="#000000" stroke-width="2.6666666666666665" stroke-linejoin="round" stroke-linecap="butt" d="m246.70184 50.746563l96.453674 0l0 104.44461l-96.453674 0z" fill-rule="evenodd"/><path fill="#000000" fill-opacity="0.0" d="m246.70184 190.5825l96.453674 0l0 104.444595l-96.453674 0z" fill-rule="evenodd"/><path stroke="#000000" stroke-width="2.6666666666666665" stroke-linejoin="round" stroke-linecap="butt" d="m246.70184 190.5825l96.453674 0l0 104.444595l-96.453674 0z" fill-rule="evenodd"/><path fill="#000000" fill-opacity="0.0" d="m269.41373 131.70416l48.670685 0l0 61.393723l-48.670685 0z" fill-rule="evenodd"/><path fill="#000000" d="m282.10114 176.66415l0 -4.3125l4.015625 0l0 4.3125l-4.015625 0zm9.640625 0l0 -4.3125l4.015625 0l0 4.3125l-4.015625 0zm9.640625 0l0 -4.3125l4.015625 0l0 4.3125l-4.015625 0z" fill-rule="nonzero"/><path fill="#000000" fill-opacity="0.0" d="m342.17374 124.83103l96.64801 0l0 35.543694l-96.64801 0z" fill-rule="evenodd"/><path fill="#000000" d="m360.11862 149.56104q-3.078125 0 -4.734375 -1.90625q-1.65625 -1.90625 -1.65625 -5.34375l0 -0.953125q0 -2.21875 0.765625 -3.84375q0.765625 -1.640625 2.203125 -2.515625q1.453125 -0.890625 3.421875 -0.890625l0.28125 0q2.03125 0 3.40625 0.9375q1.390625 0.9375 1.96875 2.65625l-1.625 0.5625q-0.390625 -1.265625 -1.375 -1.921875q-0.984375 -0.65625 -2.375 -0.65625l-0.25 0q-2.203125 0 -3.4375 1.46875q-1.21875 1.46875 -1.21875 4.15625l0 1.046875q0 2.765625 1.1875 4.21875q1.203125 1.4375 3.46875 1.4375l0.25 0q1.4375 0 2.4375 -0.625q1.015625 -0.640625 1.421875 -1.859375l1.578125 0.625q-0.59375 1.625 -2.015625 2.515625q-1.40625 0.890625 -3.421875 0.890625l-0.28125 0zm8.386627 -0.25l0 -15.5625l1.703125 0l0 15.5625l-1.703125 0zm5.1187744 0l0 -10.859375l1.703125 0l0 10.859375l-1.703125 0zm-0.046875 -13.140625l0 -1.9375l1.796875 0l0 1.9375l-1.796875 0zm9.415649 13.390625q-2.234375 0 -3.546875 -1.375q-1.296875 -1.390625 -1.296875 -3.90625l0 -0.796875q0 -1.640625 0.59375 -2.8125q0.59375 -1.1875 1.6875 -1.828125q1.109375 -0.640625 2.5625 -0.640625l0.171875 0q1.421875 0 2.453125 0.59375q1.046875 0.59375 1.609375 1.703125q0.578125 1.09375 0.578125 2.5625l0 1.296875l-7.96875 0q0.015625 1.90625 0.859375 2.84375q0.84375 0.9375 2.296875 0.9375l0.3125 0q1.078125 0 1.75 -0.375q0.671875 -0.390625 1.0625 -1.125l1.3125 0.796875q-0.5625 0.984375 -1.625 1.5625q-1.046875 0.5625 -2.5 0.5625l-0.3125 0zm-3.140625 -6.5l6.265625 0l0 -0.234375q0 -1.578125 -0.796875 -2.390625q-0.796875 -0.8125 -2.15625 -0.8125l-0.171875 0q-1.328125 0 -2.1875 0.875q-0.859375 0.875 -0.953125 2.5625zm10.663818 6.25l0 -10.859375l1.5625 0l0 1.9375q0.453125 -0.96875 1.359375 -1.578125q0.921875 -0.609375 2.28125 -0.609375l0.203125 0q1.84375 0 2.96875 1.140625q1.125 1.125 1.125 3.296875l0 6.671875l-1.71875 0l0 -6.40625q0 -1.59375 -0.703125 -2.40625q-0.703125 -0.828125 -2.015625 -0.828125l-0.15625 0q-0.84375 0 -1.578125 0.421875q-0.71875 0.40625 -1.171875 1.234375q-0.453125 0.8125 -0.453125 2.0625l0 5.921875l-1.703125 0zm16.934265 0.078125q-1.875 0 -2.671875 -0.859375q-0.78125 -0.875 -0.78125 -2.390625l0 -6.28125l-2.328125 0l0 -1.40625l2.328125 0l0 -3.28125l1.703125 0l0 3.28125l3.765625 0l-0.234375 1.40625l-3.53125 0l0 6.171875q0 1.015625 0.46875 1.484375q0.46875 0.453125 1.453125 0.453125l1.84375 0l0 1.421875l-2.015625 0zm14.520294 -0.078125l0 -13.1875l-2.359375 0l0.21875 -1.484375l3.890625 0l0 14.671875l-1.75 0z" fill-rule="nonzero"/><path fill="#000000" fill-opacity="0.0" d="m341.13684 265.49338l96.64798 0l0 35.54367l-96.64798 0z" fill-rule="evenodd"/><path fill="#000000" d="m359.10306 290.22336q-3.078125 0 -4.734375 -1.90625q-1.65625 -1.90625 -1.65625 -5.34375l0 -0.953125q0 -2.21875 0.765625 -3.84375q0.765625 -1.640625 2.203125 -2.515625q1.453125 -0.890625 3.421875 -0.890625l0.28125 0q2.03125 0 3.40625 0.9375q1.390625 0.9375 1.96875 2.65625l-1.625 0.5625q-0.390625 -1.265625 -1.375 -1.921875q-0.984375 -0.65625 -2.375 -0.65625l-0.25 0q-2.203125 0 -3.4375 1.46875q-1.21875 1.46875 -1.21875 4.15625l0 1.046875q0 2.765625 1.1875 4.21875q1.203125 1.4375 3.46875 1.4375l0.25 0q1.4375 0 2.4375 -0.625q1.015625 -0.640625 1.421875 -1.859375l1.578125 0.625q-0.59375 1.625 -2.015625 2.515625q-1.40625 0.890625 -3.421875 0.890625l-0.28125 0zm8.386627 -0.25l0 -15.5625l1.703125 0l0 15.5625l-1.703125 0zm5.1187744 0l0 -10.859375l1.703125 0l0 10.859375l-1.703125 0zm-0.046875 -13.140625l0 -1.9375l1.796875 0l0 1.9375l-1.796875 0zm9.415649 13.390625q-2.234375 0 -3.546875 -1.375q-1.296875 -1.390625 -1.296875 -3.90625l0 -0.796875q0 -1.640625 0.59375 -2.8125q0.59375 -1.1875 1.6875 -1.828125q1.109375 -0.640625 2.5625 -0.640625l0.171875 0q1.421875 0 2.453125 0.59375q1.046875 0.59375 1.609375 1.703125q0.578125 1.09375 0.578125 2.5625l0 1.296875l-7.96875 0q0.015625 1.90625 0.859375 2.84375q0.84375 0.9375 2.296875 0.9375l0.3125 0q1.078125 0 1.75 -0.375q0.671875 -0.390625 1.0625 -1.125l1.3125 0.796875q-0.5625 0.984375 -1.625 1.5625q-1.046875 0.5625 -2.5 0.5625l-0.3125 0zm-3.140625 -6.5l6.265625 0l0 -0.234375q0 -1.578125 -0.796875 -2.390625q-0.796875 -0.8125 -2.15625 -0.8125l-0.171875 0q-1.328125 0 -2.1875 0.875q-0.859375 0.875 -0.953125 2.5625zm10.663818 6.25l0 -10.859375l1.5625 0l0 1.9375q0.453125 -0.96875 1.359375 -1.578125q0.921875 -0.609375 2.28125 -0.609375l0.203125 0q1.84375 0 2.96875 1.140625q1.125 1.125 1.125 3.296875l0 6.671875l-1.71875 0l0 -6.40625q0 -1.59375 -0.703125 -2.40625q-0.703125 -0.828125 -2.015625 -0.828125l-0.15625 0q-0.84375 0 -1.578125 0.421875q-0.71875 0.40625 -1.171875 1.234375q-0.453125 0.8125 -0.453125 2.0625l0 5.921875l-1.703125 0zm16.934265 0.078125q-1.875 0 -2.671875 -0.859375q-0.78125 -0.875 -0.78125 -2.390625l0 -6.28125l-2.328125 0l0 -1.40625l2.328125 0l0 -3.28125l1.703125 0l0 3.28125l3.765625 0l-0.234375 1.40625l-3.53125 0l0 6.171875q0 1.015625 0.46875 1.484375q0.46875 0.453125 1.453125 0.453125l1.84375 0l0 1.421875l-2.015625 0zm10.067169 -0.078125l0 -10.859375l1.5625 0l0 1.9375q0.453125 -0.96875 1.359375 -1.578125q0.921875 -0.609375 2.28125 -0.609375l0.203125 0q1.84375 0 2.96875 1.140625q1.125 1.125 1.125 3.296875l0 6.671875l-1.71875 0l0 -6.40625q0 -1.59375 -0.703125 -2.40625q-0.703125 -0.828125 -2.015625 -0.828125l-0.15625 0q-0.84375 0 -1.578125 0.421875q-0.71875 0.40625 -1.171875 1.234375q-0.453125 0.8125 -0.453125 2.0625l0 5.921875l-1.703125 0z" fill-rule="nonzero"/><path fill="#000000" fill-opacity="0.0" d="m175.75208 166.61774l35.476257 0l0 -63.640213l35.476273 0" fill-rule="evenodd"/><path stroke="#000000" stroke-width="3.0" stroke-linejoin="round" stroke-linecap="butt" d="m175.75208 166.61774l35.476257 0l0 -63.640213l35.476273 0" fill-rule="evenodd"/><path fill="#000000" fill-opacity="0.0" d="m211.50981 165.36685l0 77.43796l35.19203 0" fill-rule="evenodd"/><path stroke="#000000" stroke-width="3.0" stroke-linejoin="round" stroke-linecap="butt" d="m211.50981 165.36685l0 77.43796l35.19203 0" fill-rule="evenodd"/><path fill="#000000" fill-opacity="0.0" d="m108.49617 0l372.86475 0l0 48.468765l-372.86475 0z" fill-rule="evenodd"/><path fill="#000000" d="m184.3968 19.5475q-2.328125 0 -3.5625 -1.421875q-1.234375 -1.4375 -1.234375 -4.015625l0 -0.71875q0 -1.65625 0.5625 -2.875q0.578125 -1.234375 1.65625 -1.890625q1.078125 -0.671875 2.578125 -0.671875l0.203125 0q1.515625 0 2.546875 0.703125q1.046875 0.703125 1.484375 2.0l-1.21875 0.421875q-0.296875 -0.953125 -1.03125 -1.4375q-0.734375 -0.5 -1.78125 -0.5l-0.1875 0q-1.65625 0 -2.578125 1.109375q-0.90625 1.09375 -0.90625 3.109375l0 0.78125q0 2.078125 0.890625 3.171875q0.890625 1.078125 2.59375 1.078125l0.1875 0q1.078125 0 1.828125 -0.46875q0.765625 -0.484375 1.0625 -1.390625l1.1875 0.453125q-0.453125 1.21875 -1.515625 1.890625q-1.0625 0.671875 -2.5625 0.671875l-0.203125 0zm6.284775 -0.1875l0 -11.6875l1.28125 0l0 11.6875l-1.28125 0zm5.9493866 0.1875q-1.3125 0 -2.015625 -0.625q-0.703125 -0.625 -0.703125 -1.78125q0 -0.96875 0.59375 -1.578125q0.609375 -0.625 1.78125 -0.78125l3.1875 -0.4375l0 -0.0625q0 -2.1875 -1.953125 -2.1875l-0.171875 0q-1.53125 0 -2.09375 1.1875l-1.03125 -0.5q0.375 -0.828125 1.171875 -1.296875q0.8125 -0.46875 1.953125 -0.46875l0.25 0q1.546875 0 2.34375 0.828125q0.8125 0.8125 0.8125 2.359375l0 5.15625l-1.15625 0l0 -1.453125q-0.375 0.765625 -1.125 1.203125q-0.75 0.4375 -1.703125 0.4375l-0.140625 0zm2.84375 -4.21875l-2.65625 0.390625q-0.921875 0.125 -1.296875 0.4375q-0.359375 0.296875 -0.359375 0.921875q0 0.6875 0.4375 1.0625q0.4375 0.359375 1.265625 0.359375l0.171875 0q1.09375 0 1.765625 -0.703125q0.671875 -0.703125 0.671875 -1.875l0 -0.59375zm6.594269 4.21875q-2.671875 0 -3.484375 -1.875l1.03125 -0.5q0.3125 0.671875 0.90625 1.0q0.609375 0.3125 1.5625 0.3125l0.1875 0q1.90625 0 1.90625 -1.234375l0 -0.078125q0 -1.078125 -1.265625 -1.234375l-1.8125 -0.265625q-1.078125 -0.140625 -1.671875 -0.671875q-0.578125 -0.546875 -0.578125 -1.484375l0 -0.171875q0 -1.046875 0.828125 -1.6875q0.84375 -0.640625 2.203125 -0.640625l0.203125 0q1.125 0 1.953125 0.46875q0.828125 0.453125 1.15625 1.265625l-1.03125 0.46875q-0.5 -1.125 -2.078125 -1.125l-0.1875 0q-0.828125 0 -1.328125 0.34375q-0.484375 0.328125 -0.484375 0.890625l0 0.09375q0 0.5 0.296875 0.765625q0.296875 0.265625 0.96875 0.359375l1.84375 0.25q1.046875 0.140625 1.625 0.734375q0.59375 0.59375 0.59375 1.546875l0 0.171875q0 1.140625 -0.796875 1.71875q-0.796875 0.578125 -2.328125 0.578125l-0.21875 0zm7.984009 0q-2.671875 0 -3.484375 -1.875l1.03125 -0.5q0.3125 0.671875 0.90625 1.0q0.609375 0.3125 1.5625 0.3125l0.1875 0q1.90625 0 1.90625 -1.234375l0 -0.078125q0 -1.078125 -1.265625 -1.234375l-1.8125 -0.265625q-1.078125 -0.140625 -1.671875 -0.671875q-0.578125 -0.546875 -0.578125 -1.484375l0 -0.171875q0 -1.046875 0.828125 -1.6875q0.84375 -0.640625 2.203125 -0.640625l0.203125 0q1.125 0 1.953125 0.46875q0.828125 0.453125 1.15625 1.265625l-1.03125 0.46875q-0.5 -1.125 -2.078125 -1.125l-0.1875 0q-0.828125 0 -1.328125 0.34375q-0.484375 0.328125 -0.484375 0.890625l0 0.09375q0 0.5 0.296875 0.765625q0.296875 0.265625 0.96875 0.359375l1.84375 0.25q1.046875 0.140625 1.625 0.734375q0.59375 0.59375 0.59375 1.546875l0 0.171875q0 1.140625 -0.796875 1.71875q-0.796875 0.578125 -2.328125 0.578125l-0.21875 0zm5.2846375 -0.1875l0 -8.140625l1.28125 0l0 8.140625l-1.28125 0zm-0.03125 -9.859375l0 -1.453125l1.34375 0l0 1.453125l-1.34375 0zm4.8400116 9.859375l0 -7.09375l-1.6875 0l0 -1.046875l1.6875 0l0 -0.8125q0 -1.296875 0.65625 -2.046875q0.671875 -0.765625 2.125 -0.765625l1.3125 0l0 1.09375l-1.25 0q-0.828125 0 -1.203125 0.421875q-0.359375 0.421875 -0.359375 1.234375l0 0.875l2.8125 0l-0.140625 1.046875l-2.671875 0l0 7.09375l-1.28125 0zm5.59375 0l0 -8.140625l1.28125 0l0 8.140625l-1.28125 0zm-0.03125 -9.859375l0 -1.453125l1.34375 0l0 1.453125l-1.34375 0zm7.1656647 10.046875q-1.7187653 0 -2.7343903 -1.03125q-1.015625 -1.046875 -1.015625 -2.9375l0 -0.59375q0 -1.234375 0.46875 -2.125q0.484375 -0.890625 1.328125 -1.359375q0.84375 -0.484375 1.9531403 -0.484375l0.171875 0q1.078125 0 1.84375 0.515625q0.765625 0.5 1.125 1.328125l-1.03125 0.484375q-0.265625 -0.5625 -0.75 -0.890625q-0.484375 -0.328125 -1.1875 -0.328125l-0.15625 0q-1.0937653 0 -1.7968903 0.71875q-0.6875 0.71875 -0.6875 2.140625l0 0.59375q0 1.4375 0.671875 2.15625q0.6875 0.71875 1.8125153 0.71875l0.15625 0q0.734375 0 1.21875 -0.3125q0.5 -0.3125 0.75 -0.84375l1.03125 0.5q-0.359375 0.78125 -1.140625 1.265625q-0.765625 0.484375 -1.859375 0.484375l-0.171875 0zm7.27652 0q-1.3125 0 -2.015625 -0.625q-0.703125 -0.625 -0.703125 -1.78125q0 -0.96875 0.59375 -1.578125q0.609375 -0.625 1.78125 -0.78125l3.1875 -0.4375l0 -0.0625q0 -2.1875 -1.953125 -2.1875l-0.171875 0q-1.53125 0 -2.09375 1.1875l-1.03125 -0.5q0.375 -0.828125 1.171875 -1.296875q0.8125 -0.46875 1.953125 -0.46875l0.25 0q1.546875 0 2.34375 0.828125q0.8125 0.8125 0.8125 2.359375l0 5.15625l-1.15625 0l0 -1.453125q-0.375 0.765625 -1.125 1.203125q-0.75 0.4375 -1.703125 0.4375l-0.140625 0zm2.84375 -4.21875l-2.65625 0.390625q-0.921875 0.125 -1.296875 0.4375q-0.359375 0.296875 -0.359375 0.921875q0 0.6875 0.4375 1.0625q0.4375 0.359375 1.265625 0.359375l0.171875 0q1.09375 0 1.765625 -0.703125q0.671875 -0.703125 0.671875 -1.875l0 -0.59375zm6.869873 4.09375q-1.40625 0 -2.0 -0.65625q-0.59375 -0.65625 -0.59375 -1.796875l0 -4.703125l-1.75 0l0 -1.046875l1.75 0l0 -2.46875l1.28125 0l0 2.46875l2.8125 0l-0.171875 1.046875l-2.640625 0l0 4.625q0 0.765625 0.34375 1.109375q0.359375 0.34375 1.09375 0.34375l1.375 0l0 1.078125l-1.5 0zm3.425003 -0.0625l0 -8.140625l1.28125 0l0 8.140625l-1.28125 0zm-0.03125 -9.859375l0 -1.453125l1.34375 0l0 1.453125l-1.34375 0zm7.136902 10.046875q-1.0625 0 -1.90625 -0.46875q-0.828125 -0.46875 -1.328125 -1.359375q-0.484375 -0.90625 -0.484375 -2.15625l0 -0.5625q0 -1.234375 0.484375 -2.125q0.5 -0.90625 1.328125 -1.375q0.84375 -0.484375 1.90625 -0.484375l0.15625 0q1.078125 0 1.90625 0.484375q0.84375 0.46875 1.328125 1.359375q0.5 0.890625 0.5 2.125l0 0.59375q0 1.25 -0.5 2.140625q-0.484375 0.890625 -1.328125 1.359375q-0.828125 0.46875 -1.90625 0.46875l-0.15625 0zm0.015625 -1.09375l0.125 0q1.046875 0 1.75 -0.71875q0.71875 -0.734375 0.71875 -2.15625l0 -0.59375q0 -1.421875 -0.71875 -2.140625q-0.703125 -0.71875 -1.75 -0.71875l-0.125 0q-1.03125 0 -1.75 0.71875q-0.703125 0.71875 -0.703125 2.140625l0 0.59375q0 1.421875 0.703125 2.15625q0.71875 0.71875 1.75 0.71875zm5.9667664 0.90625l0 -8.140625l1.171875 0l0 1.453125q0.328125 -0.734375 1.015625 -1.1875q0.6875 -0.46875 1.71875 -0.46875l0.140625 0q1.390625 0 2.234375 0.859375q0.84375 0.84375 0.84375 2.46875l0 5.015625l-1.28125 0l0 -4.796875q0 -1.203125 -0.53125 -1.8125q-0.53125 -0.625 -1.515625 -0.625l-0.125 0q-0.640625 0 -1.1875 0.3125q-0.53125 0.3125 -0.875 0.9375q-0.328125 0.609375 -0.328125 1.53125l0 4.453125l-1.28125 0zm10.157379 2.078125l-1.28125 0l4.03125 -14.390625l1.28125 0l-4.03125 14.390625zm5.1066284 -2.078125l0 -8.140625l1.171875 0l0 1.703125q0.28125 -0.796875 0.859375 -1.28125q0.59375 -0.484375 1.71875 -0.484375l0.75 0l0 1.15625l-0.828125 0q-1.03125 0 -1.71875 0.71875q-0.671875 0.71875 -0.671875 2.1875l0 4.140625l-1.28125 0zm9.091522 0.1875q-1.6875 0 -2.671875 -1.03125q-0.96875 -1.046875 -0.96875 -2.9375l0 -0.59375q0 -1.21875 0.453125 -2.109375q0.453125 -0.890625 1.265625 -1.375q0.828125 -0.484375 1.921875 -0.484375l0.125 0q1.0625 0 1.84375 0.453125q0.78125 0.453125 1.203125 1.28125q0.4375 0.8125 0.4375 1.921875l0 0.96875l-5.984375 0q0.015625 1.4375 0.640625 2.140625q0.640625 0.703125 1.734375 0.703125l0.234375 0q0.796875 0 1.296875 -0.28125q0.515625 -0.296875 0.8125 -0.84375l0.984375 0.59375q-0.421875 0.734375 -1.21875 1.171875q-0.78125 0.421875 -1.875 0.421875l-0.234375 0zm-2.359375 -4.875l4.703125 0l0 -0.171875q0 -1.1875 -0.609375 -1.796875q-0.59375 -0.609375 -1.609375 -0.609375l-0.125 0q-1.0 0 -1.65625 0.65625q-0.640625 0.65625 -0.703125 1.921875zm11.238281 8.109375q-2.375 0 -3.203125 -1.515625l0.921875 -0.671875q0.359375 0.578125 0.875 0.84375q0.53125 0.265625 1.421875 0.265625l0.234375 0q2.296875 0 2.296875 -2.53125l0 -1.234375q-0.796875 1.390625 -2.625 1.390625l-0.09375 0q-1.0625 0 -1.84375 -0.484375q-0.78125 -0.5 -1.234375 -1.375q-0.4375 -0.875 -0.4375 -2.046875l0 -0.515625q0 -1.15625 0.4375 -2.03125q0.453125 -0.875 1.234375 -1.359375q0.78125 -0.5 1.84375 -0.5l0.09375 0q2.015625 0 2.765625 1.609375l0 -1.390625l1.171875 0l0 7.921875q0 1.734375 -0.9375 2.671875q-0.921875 0.953125 -2.640625 0.953125l-0.28125 0zm0.03125 -4.5625l0.140625 0q1.125 0 1.765625 -0.765625q0.640625 -0.765625 0.640625 -2.09375l0 -0.390625q0 -1.328125 -0.640625 -2.078125q-0.640625 -0.765625 -1.765625 -0.765625l-0.140625 0q-1.125 0 -1.78125 0.765625q-0.65625 0.75 -0.65625 2.03125l0 0.5q0 1.28125 0.65625 2.046875q0.65625 0.75 1.78125 0.75zm6.3823853 1.140625l0 -8.140625l1.171875 0l0 1.703125q0.28125 -0.796875 0.859375 -1.28125q0.59375 -0.484375 1.71875 -0.484375l0.75 0l0 1.15625l-0.828125 0q-1.03125 0 -1.71875 0.71875q-0.671875 0.71875 -0.671875 2.1875l0 4.140625l-1.28125 0zm9.091522 0.1875q-1.6875 0 -2.671875 -1.03125q-0.96875 -1.046875 -0.96875 -2.9375l0 -0.59375q0 -1.21875 0.453125 -2.109375q0.453125 -0.890625 1.265625 -1.375q0.828125 -0.484375 1.921875 -0.484375l0.125 0q1.0625 0 1.84375 0.453125q0.78125 0.453125 1.203125 1.28125q0.4375 0.8125 0.4375 1.921875l0 0.96875l-5.984375 0q0.015625 1.4375 0.640625 2.140625q0.640625 0.703125 1.734375 0.703125l0.234375 0q0.796875 0 1.296875 -0.28125q0.515625 -0.296875 0.8125 -0.84375l0.984375 0.59375q-0.421875 0.734375 -1.21875 1.171875q-0.78125 0.421875 -1.875 0.421875l-0.234375 0zm-2.359375 -4.875l4.703125 0l0 -0.171875q0 -1.1875 -0.609375 -1.796875q-0.59375 -0.609375 -1.609375 -0.609375l-0.125 0q-1.0 0 -1.65625 0.65625q-0.640625 0.65625 -0.703125 1.921875zm10.863281 4.875q-2.671875 0 -3.484375 -1.875l1.03125 -0.5q0.3125 0.671875 0.90625 1.0q0.609375 0.3125 1.5625 0.3125l0.1875 0q1.90625 0 1.90625 -1.234375l0 -0.078125q0 -1.078125 -1.265625 -1.234375l-1.8125 -0.265625q-1.078125 -0.140625 -1.671875 -0.671875q-0.578125 -0.546875 -0.578125 -1.484375l0 -0.171875q0 -1.046875 0.828125 -1.6875q0.84375 -0.640625 2.203125 -0.640625l0.203125 0q1.125 0 1.953125 0.46875q0.828125 0.453125 1.15625 1.265625l-1.03125 0.46875q-0.5 -1.125 -2.078125 -1.125l-0.1875 0q-0.828125 0 -1.328125 0.34375q-0.484375 0.328125 -0.484375 0.890625l0 0.09375q0 0.5 0.296875 0.765625q0.296875 0.265625 0.96875 0.359375l1.84375 0.25q1.046875 0.140625 1.625 0.734375q0.59375 0.59375 0.59375 1.546875l0 0.171875q0 1.140625 -0.796875 1.71875q-0.796875 0.578125 -2.328125 0.578125l-0.21875 0zm7.984009 0q-2.671875 0 -3.484375 -1.875l1.03125 -0.5q0.3125 0.671875 0.90625 1.0q0.609375 0.3125 1.5625 0.3125l0.1875 0q1.90625 0 1.90625 -1.234375l0 -0.078125q0 -1.078125 -1.265625 -1.234375l-1.8125 -0.265625q-1.078125 -0.140625 -1.671875 -0.671875q-0.578125 -0.546875 -0.578125 -1.484375l0 -0.171875q0 -1.046875 0.828125 -1.6875q0.84375 -0.640625 2.203125 -0.640625l0.203125 0q1.125 0 1.953125 0.46875q0.828125 0.453125 1.15625 1.265625l-1.03125 0.46875q-0.5 -1.125 -2.078125 -1.125l-0.1875 0q-0.828125 0 -1.328125 0.34375q-0.484375 0.328125 -0.484375 0.890625l0 0.09375q0 0.5 0.296875 0.765625q0.296875 0.265625 0.96875 0.359375l1.84375 0.25q1.046875 0.140625 1.625 0.734375q0.59375 0.59375 0.59375 1.546875l0 0.171875q0 1.140625 -0.796875 1.71875q-0.796875 0.578125 -2.328125 0.578125l-0.21875 0zm5.2846375 -0.1875l0 -8.140625l1.28125 0l0 8.140625l-1.28125 0zm-0.03125 -9.859375l0 -1.453125l1.34375 0l0 1.453125l-1.34375 0zm7.1368713 10.046875q-1.0625 0 -1.90625 -0.46875q-0.828125 -0.46875 -1.328125 -1.359375q-0.484375 -0.90625 -0.484375 -2.15625l0 -0.5625q0 -1.234375 0.484375 -2.125q0.5 -0.90625 1.328125 -1.375q0.84375 -0.484375 1.90625 -0.484375l0.15625 0q1.078125 0 1.90625 0.484375q0.84375 0.46875 1.328125 1.359375q0.5 0.890625 0.5 2.125l0 0.59375q0 1.25 -0.5 2.140625q-0.484375 0.890625 -1.328125 1.359375q-0.828125 0.46875 -1.90625 0.46875l-0.15625 0zm0.015625 -1.09375l0.125 0q1.046875 0 1.75 -0.71875q0.71875 -0.734375 0.71875 -2.15625l0 -0.59375q0 -1.421875 -0.71875 -2.140625q-0.703125 -0.71875 -1.75 -0.71875l-0.125 0q-1.03125 0 -1.75 0.71875q-0.703125 0.71875 -0.703125 2.140625l0 0.59375q0 1.421875 0.703125 2.15625q0.71875 0.71875 1.75 0.71875zm5.9667664 0.90625l0 -8.140625l1.171875 0l0 1.453125q0.328125 -0.734375 1.015625 -1.1875q0.6875 -0.46875 1.71875 -0.46875l0.140625 0q1.390625 0 2.234375 0.859375q0.84375 0.84375 0.84375 2.46875l0 5.015625l-1.28125 0l0 -4.796875q0 -1.203125 -0.53125 -1.8125q-0.53125 -0.625 -1.515625 -0.625l-0.125 0q-0.640625 0 -1.1875 0.3125q-0.53125 0.3125 -0.875 0.9375q-0.328125 0.609375 -0.328125 1.53125l0 4.453125l-1.28125 0zm13.696045 0l0 -11.6875l1.28125 0l0 4.8125q0.34375 -0.65625 1.0 -1.0625q0.671875 -0.40625 1.625 -0.40625l0.140625 0q1.390625 0 2.234375 0.859375q0.84375 0.84375 0.84375 2.46875l0 5.015625l-1.28125 0l0 -4.796875q0 -1.203125 -0.53125 -1.8125q-0.53125 -0.625 -1.515625 -0.625l-0.125 0q-0.640625 0 -1.1875 0.3125q-0.53125 0.3125 -0.875 0.9375q-0.328125 0.609375 -0.328125 1.53125l0 4.453125l-1.28125 0zm12.755524 0.1875q-1.6875 0 -2.671875 -1.03125q-0.96875 -1.046875 -0.96875 -2.9375l0 -0.59375q0 -1.21875 0.453125 -2.109375q0.453125 -0.890625 1.265625 -1.375q0.828125 -0.484375 1.921875 -0.484375l0.125 0q1.0625 0 1.84375 0.453125q0.78125 0.453125 1.203125 1.28125q0.4375 0.8125 0.4375 1.921875l0 0.96875l-5.984375 0q0.015625 1.4375 0.640625 2.140625q0.640625 0.703125 1.734375 0.703125l0.234375 0q0.796875 0 1.296875 -0.28125q0.515625 -0.296875 0.8125 -0.84375l0.984375 0.59375q-0.421875 0.734375 -1.21875 1.171875q-0.78125 0.421875 -1.875 0.421875l-0.234375 0zm-2.359375 -4.875l4.703125 0l0 -0.171875q0 -1.1875 -0.609375 -1.796875q-0.59375 -0.609375 -1.609375 -0.609375l-0.125 0q-1.0 0 -1.65625 0.65625q-0.640625 0.65625 -0.703125 1.921875zm10.113251 4.875q-1.3125 0 -2.015625 -0.625q-0.703125 -0.625 -0.703125 -1.78125q0 -0.96875 0.59375 -1.578125q0.609375 -0.625 1.78125 -0.78125l3.1875 -0.4375l0 -0.0625q0 -2.1875 -1.953125 -2.1875l-0.171875 0q-1.53125 0 -2.09375 1.1875l-1.03125 -0.5q0.375 -0.828125 1.171875 -1.296875q0.8125 -0.46875 1.953125 -0.46875l0.25 0q1.546875 0 2.34375 0.828125q0.8125 0.8125 0.8125 2.359375l0 5.15625l-1.15625 0l0 -1.453125q-0.375 0.765625 -1.125 1.203125q-0.75 0.4375 -1.703125 0.4375l-0.140625 0zm2.84375 -4.21875l-2.65625 0.390625q-0.921875 0.125 -1.296875 0.4375q-0.359375 0.296875 -0.359375 0.921875q0 0.6875 0.4375 1.0625q0.4375 0.359375 1.265625 0.359375l0.171875 0q1.09375 0 1.765625 -0.703125q0.671875 -0.703125 0.671875 -1.875l0 -0.59375zm6.797394 4.21875q-1.015625 0 -1.8125 -0.453125q-0.78125 -0.453125 -1.25 -1.34375q-0.453125 -0.90625 -0.453125 -2.1875l0 -0.578125q0 -1.265625 0.453125 -2.15625q0.46875 -0.890625 1.25 -1.34375q0.796875 -0.46875 1.8125 -0.46875l0.09375 0q0.921875 0 1.59375 0.40625q0.671875 0.390625 1.0625 1.046875l0 -4.796875l1.28125 0l0 11.6875l-1.171875 0l0 -1.40625q-0.375 0.71875 -1.078125 1.15625q-0.6875 0.4375 -1.6875 0.4375l-0.09375 0zm0.203125 -1.09375l0.140625 0q0.671875 0 1.21875 -0.296875q0.546875 -0.3125 0.859375 -0.953125q0.328125 -0.640625 0.328125 -1.671875l0 -0.484375q0 -1.03125 -0.328125 -1.671875q-0.328125 -0.640625 -0.875 -0.9375q-0.546875 -0.3125 -1.203125 -0.3125l-0.140625 0q-1.046875 0 -1.75 0.703125q-0.6875 0.6875 -0.6875 2.15625l0 0.578125q0 1.484375 0.6875 2.1875q0.703125 0.703125 1.75 0.703125zm9.241791 1.09375q-2.671875 0 -3.484375 -1.875l1.03125 -0.5q0.3125 0.671875 0.90625 1.0q0.609375 0.3125 1.5625 0.3125l0.1875 0q1.90625 0 1.90625 -1.234375l0 -0.078125q0 -1.078125 -1.265625 -1.234375l-1.8125 -0.265625q-1.078125 -0.140625 -1.671875 -0.671875q-0.578125 -0.546875 -0.578125 -1.484375l0 -0.171875q0 -1.046875 0.828125 -1.6875q0.84375 -0.640625 2.203125 -0.640625l0.203125 0q1.125 0 1.953125 0.46875q0.828125 0.453125 1.15625 1.265625l-1.03125 0.46875q-0.5 -1.125 -2.078125 -1.125l-0.1875 0q-0.828125 0 -1.328125 0.34375q-0.484375 0.328125 -0.484375 0.890625l0 0.09375q0 0.5 0.296875 0.765625q0.296875 0.265625 0.96875 0.359375l1.84375 0.25q1.046875 0.140625 1.625 0.734375q0.59375 0.59375 0.59375 1.546875l0 0.171875q0 1.140625 -0.796875 1.71875q-0.796875 0.578125 -2.328125 0.578125l-0.21875 0z" fill-rule="nonzero"/><path fill="#000000" d="m201.71173 40.638126q-0.65625 -0.890625 -1.140625 -2.03125q-0.484375 -1.125 -0.75 -2.359375q-0.25 -1.234375 -0.25 -2.484375l0 -0.65625q0 -1.25 0.25 -2.484375q0.265625 -1.25 0.75 -2.375q0.484375 -1.125 1.140625 -2.0l1.203125 0q-0.609375 0.84375 -1.0625 1.984375q-0.4375 1.125 -0.6875 2.390625q-0.25 1.25 -0.25 2.484375l0 0.65625q0 1.21875 0.25 2.484375q0.25 1.265625 0.703125 2.40625q0.453125 1.140625 1.046875 1.984375l-1.203125 0zm2.7698822 1.125l0 -11.34375l1.171875 0l0 1.390625q0.359375 -0.71875 1.046875 -1.15625q0.703125 -0.4375 1.703125 -0.4375l0.109375 0q1.03125 0 1.8125 0.46875q0.78125 0.453125 1.234375 1.34375q0.453125 0.890625 0.453125 2.15625l0 0.59375q0 1.28125 -0.453125 2.171875q-0.453125 0.890625 -1.234375 1.34375q-0.78125 0.453125 -1.8125 0.453125l-0.109375 0q-0.921875 0 -1.609375 -0.375q-0.671875 -0.390625 -1.03125 -1.046875l0 4.4375l-1.28125 0zm3.671875 -4.109375l0.15625 0q1.03125 0 1.71875 -0.703125q0.703125 -0.703125 0.703125 -2.1875l0 -0.578125q0 -1.46875 -0.703125 -2.15625q-0.6875 -0.703125 -1.71875 -0.703125l-0.15625 0q-0.65625 0 -1.203125 0.3125q-0.546875 0.296875 -0.875 0.9375q-0.3125 0.640625 -0.3125 1.671875l0 0.484375q0 1.53125 0.703125 2.234375q0.703125 0.6875 1.6875 0.6875zm5.9761505 0.90625l0 -8.140625l1.171875 0l0 1.703125q0.28125 -0.796875 0.859375 -1.28125q0.59375 -0.484375 1.71875 -0.484375l0.75 0l0 1.15625l-0.828125 0q-1.03125 0 -1.71875 0.71875q-0.671875 0.71875 -0.671875 2.1875l0 4.140625l-1.28125 0zm6.3520203 0l0 -8.140625l1.28125 0l0 8.140625l-1.28125 0zm-0.03125 -9.859375l0 -1.453125l1.34375 0l0 1.453125l-1.34375 0zm6.0900116 9.859375l-3.21875 -8.140625l1.328125 0l2.46875 6.546875l2.453125 -6.546875l1.28125 0l-3.21875 8.140625l-1.09375 0zm7.746643 0.1875q-1.3125 0 -2.015625 -0.625q-0.703125 -0.625 -0.703125 -1.78125q0 -0.96875 0.59375 -1.578125q0.609375 -0.625 1.78125 -0.78125l3.1875 -0.4375l0 -0.0625q0 -2.1875 -1.953125 -2.1875l-0.171875 0q-1.53125 0 -2.09375 1.1875l-1.03125 -0.5q0.375 -0.828125 1.171875 -1.296875q0.8125 -0.46875 1.953125 -0.46875l0.25 0q1.546875 0 2.34375 0.828125q0.8125 0.8125 0.8125 2.359375l0 5.15625l-1.15625 0l0 -1.453125q-0.375 0.765625 -1.125 1.203125q-0.75 0.4375 -1.703125 0.4375l-0.140625 0zm2.84375 -4.21875l-2.65625 0.390625q-0.921875 0.125 -1.296875 0.4375q-0.359375 0.296875 -0.359375 0.921875q0 0.6875 0.4375 1.0625q0.4375 0.359375 1.265625 0.359375l0.171875 0q1.09375 0 1.765625 -0.703125q0.671875 -0.703125 0.671875 -1.875l0 -0.59375zm6.8698883 4.09375q-1.40625 0 -2.0 -0.65625q-0.59375 -0.65625 -0.59375 -1.796875l0 -4.703125l-1.75 0l0 -1.046875l1.75 0l0 -2.46875l1.28125 0l0 2.46875l2.8125 0l-0.171875 1.046875l-2.640625 0l0 4.625q0 0.765625 0.34375 1.109375q0.359375 0.34375 1.09375 0.34375l1.375 0l0 1.078125l-1.5 0zm6.6125183 0.125q-1.6875 0 -2.671875 -1.03125q-0.96875 -1.046875 -0.96875 -2.9375l0 -0.59375q0 -1.21875 0.453125 -2.109375q0.453125 -0.890625 1.265625 -1.375q0.828125 -0.484375 1.921875 -0.484375l0.125 0q1.0625 0 1.84375 0.453125q0.78125 0.453125 1.203125 1.28125q0.4375 0.8125 0.4375 1.921875l0 0.96875l-5.984375 0q0.015625 1.4375 0.640625 2.140625q0.640625 0.703125 1.734375 0.703125l0.234375 0q0.796875 0 1.296875 -0.28125q0.515625 -0.296875 0.8125 -0.84375l0.984375 0.59375q-0.421875 0.734375 -1.21875 1.171875q-0.78125 0.421875 -1.875 0.421875l-0.234375 0zm-2.359375 -4.875l4.703125 0l0 -0.171875q0 -1.1875 -0.609375 -1.796875q-0.59375 -0.609375 -1.609375 -0.609375l-0.125 0q-1.0 0 -1.65625 0.65625q-0.640625 0.65625 -0.703125 1.921875zm15.506897 4.75q-1.40625 0 -2.0 -0.65625q-0.59375 -0.65625 -0.59375 -1.796875l0 -4.703125l-1.75 0l0 -1.046875l1.75 0l0 -2.46875l1.28125 0l0 2.46875l2.8125 0l-0.171875 1.046875l-2.640625 0l0 4.625q0 0.765625 0.34375 1.109375q0.359375 0.34375 1.09375 0.34375l1.375 0l0 1.078125l-1.5 0zm6.6906433 0.125q-1.0625 0 -1.90625 -0.46875q-0.828125 -0.46875 -1.328125 -1.359375q-0.484375 -0.90625 -0.484375 -2.15625l0 -0.5625q0 -1.234375 0.484375 -2.125q0.5 -0.90625 1.328125 -1.375q0.84375 -0.484375 1.90625 -0.484375l0.15625 0q1.078125 0 1.90625 0.484375q0.84375 0.46875 1.328125 1.359375q0.5 0.890625 0.5 2.125l0 0.59375q0 1.25 -0.5 2.140625q-0.484375 0.890625 -1.328125 1.359375q-0.828125 0.46875 -1.90625 0.46875l-0.15625 0zm0.015625 -1.09375l0.125 0q1.046875 0 1.75 -0.71875q0.71875 -0.734375 0.71875 -2.15625l0 -0.59375q0 -1.421875 -0.71875 -2.140625q-0.703125 -0.71875 -1.75 -0.71875l-0.125 0q-1.03125 0 -1.75 0.71875q-0.703125 0.71875 -0.703125 2.140625l0 0.59375q0 1.421875 0.703125 2.15625q0.71875 0.71875 1.75 0.71875zm13.282257 1.09375q-1.6875 0 -2.671875 -1.03125q-0.96875 -1.046875 -0.96875 -2.9375l0 -0.59375q0 -1.21875 0.453125 -2.109375q0.453125 -0.890625 1.265625 -1.375q0.828125 -0.484375 1.921875 -0.484375l0.125 0q1.0625 0 1.84375 0.453125q0.78125 0.453125 1.203125 1.28125q0.4375 0.8125 0.4375 1.921875l0 0.96875l-5.984375 0q0.015625 1.4375 0.640625 2.140625q0.640625 0.703125 1.734375 0.703125l0.234375 0q0.796875 0 1.296875 -0.28125q0.515625 -0.296875 0.8125 -0.84375l0.984375 0.59375q-0.421875 0.734375 -1.21875 1.171875q-0.78125 0.421875 -1.875 0.421875l-0.234375 0zm-2.359375 -4.875l4.703125 0l0 -0.171875q0 -1.1875 -0.609375 -1.796875q-0.59375 -0.609375 -1.609375 -0.609375l-0.125 0q-1.0 0 -1.65625 0.65625q-0.640625 0.65625 -0.703125 1.921875zm10.113281 4.875q-1.3125 0 -2.015625 -0.625q-0.703125 -0.625 -0.703125 -1.78125q0 -0.96875 0.59375 -1.578125q0.609375 -0.625 1.78125 -0.78125l3.1875 -0.4375l0 -0.0625q0 -2.1875 -1.953125 -2.1875l-0.171875 0q-1.53125 0 -2.09375 1.1875l-1.03125 -0.5q0.375 -0.828125 1.171875 -1.296875q0.8125 -0.46875 1.953125 -0.46875l0.25 0q1.546875 0 2.34375 0.828125q0.8125 0.8125 0.8125 2.359375l0 5.15625l-1.15625 0l0 -1.453125q-0.375 0.765625 -1.125 1.203125q-0.75 0.4375 -1.703125 0.4375l-0.140625 0zm2.84375 -4.21875l-2.65625 0.390625q-0.921875 0.125 -1.296875 0.4375q-0.359375 0.296875 -0.359375 0.921875q0 0.6875 0.4375 1.0625q0.4375 0.359375 1.265625 0.359375l0.171875 0q1.09375 0 1.765625 -0.703125q0.671875 -0.703125 0.671875 -1.875l0 -0.59375zm7.031769 4.21875q-1.71875 0 -2.734375 -1.03125q-1.015625 -1.046875 -1.015625 -2.9375l0 -0.59375q0 -1.234375 0.46875 -2.125q0.484375 -0.890625 1.328125 -1.359375q0.84375 -0.484375 1.953125 -0.484375l0.171875 0q1.078125 0 1.84375 0.515625q0.765625 0.5 1.125 1.328125l-1.03125 0.484375q-0.265625 -0.5625 -0.75 -0.890625q-0.484375 -0.328125 -1.1875 -0.328125l-0.15625 0q-1.09375 0 -1.796875 0.71875q-0.6875 0.71875 -0.6875 2.140625l0 0.59375q0 1.4375 0.671875 2.15625q0.6875 0.71875 1.8125 0.71875l0.15625 0q0.734375 0 1.21875 -0.3125q0.5 -0.3125 0.75 -0.84375l1.03125 0.5q-0.359375 0.78125 -1.140625 1.265625q-0.765625 0.484375 -1.859375 0.484375l-0.171875 0zm5.167145 -0.1875l0 -11.6875l1.28125 0l0 4.8125q0.34375 -0.65625 1.0 -1.0625q0.671875 -0.40625 1.625 -0.40625l0.140625 0q1.390625 0 2.234375 0.859375q0.84375 0.84375 0.84375 2.46875l0 5.015625l-1.28125 0l0 -4.796875q0 -1.203125 -0.53125 -1.8125q-0.53125 -0.625 -1.515625 -0.625l-0.125 0q-0.640625 0 -1.1875 0.3125q-0.53125 0.3125 -0.875 0.9375q-0.328125 0.609375 -0.328125 1.53125l0 4.453125l-1.28125 0zm16.99289 0.1875q-1.71875 0 -2.734375 -1.03125q-1.015625 -1.046875 -1.015625 -2.9375l0 -0.59375q0 -1.234375 0.46875 -2.125q0.484375 -0.890625 1.328125 -1.359375q0.84375 -0.484375 1.953125 -0.484375l0.171875 0q1.078125 0 1.84375 0.515625q0.765625 0.5 1.125 1.328125l-1.03125 0.484375q-0.265625 -0.5625 -0.75 -0.890625q-0.484375 -0.328125 -1.1875 -0.328125l-0.15625 0q-1.09375 0 -1.796875 0.71875q-0.6875 0.71875 -0.6875 2.140625l0 0.59375q0 1.4375 0.671875 2.15625q0.6875 0.71875 1.8125 0.71875l0.15625 0q0.734375 0 1.21875 -0.3125q0.5 -0.3125 0.75 -0.84375l1.03125 0.5q-0.359375 0.78125 -1.140625 1.265625q-0.765625 0.484375 -1.859375 0.484375l-0.171875 0zm8.43277 0q-1.0625 0 -1.90625 -0.46875q-0.828125 -0.46875 -1.328125 -1.359375q-0.484375 -0.90625 -0.484375 -2.15625l0 -0.5625q0 -1.234375 0.484375 -2.125q0.5 -0.90625 1.328125 -1.375q0.84375 -0.484375 1.90625 -0.484375l0.15625 0q1.078125 0 1.90625 0.484375q0.84375 0.46875 1.328125 1.359375q0.5 0.890625 0.5 2.125l0 0.59375q0 1.25 -0.5 2.140625q-0.484375 0.890625 -1.328125 1.359375q-0.828125 0.46875 -1.90625 0.46875l-0.15625 0zm0.015625 -1.09375l0.125 0q1.046875 0 1.75 -0.71875q0.71875 -0.734375 0.71875 -2.15625l0 -0.59375q0 -1.421875 -0.71875 -2.140625q-0.703125 -0.71875 -1.75 -0.71875l-0.125 0q-1.03125 0 -1.75 0.71875q-0.703125 0.71875 -0.703125 2.140625l0 0.59375q0 1.421875 0.703125 2.15625q0.71875 0.71875 1.75 0.71875zm5.9667664 0.90625l0 -8.140625l1.171875 0l0 1.453125q0.328125 -0.75 0.953125 -1.203125q0.640625 -0.453125 1.515625 -0.453125l0.15625 0q2.0 0 2.625 1.734375q0.34375 -0.78125 1.015625 -1.25q0.6875 -0.484375 1.59375 -0.484375l0.15625 0q1.34375 0 2.109375 0.859375q0.765625 0.84375 0.765625 2.46875l0 5.015625l-1.28125 0l0 -4.796875q0 -1.203125 -0.453125 -1.8125q-0.4375 -0.625 -1.40625 -0.625l-0.109375 0q-0.546875 0 -1.046875 0.3125q-0.484375 0.3125 -0.796875 0.9375q-0.296875 0.609375 -0.296875 1.53125l0 4.453125l-1.28125 0l0 -4.796875q0 -1.203125 -0.453125 -1.8125q-0.4375 -0.625 -1.40625 -0.625l-0.109375 0q-0.546875 0 -1.03125 0.3125q-0.484375 0.3125 -0.796875 0.9375q-0.3125 0.609375 -0.3125 1.53125l0 4.453125l-1.28125 0zm14.512024 3.203125l0 -11.34375l1.171875 0l0 1.390625q0.359375 -0.71875 1.046875 -1.15625q0.703125 -0.4375 1.703125 -0.4375l0.109375 0q1.03125 0 1.8125 0.46875q0.78125 0.453125 1.234375 1.34375q0.453125 0.890625 0.453125 2.15625l0 0.59375q0 1.28125 -0.453125 2.171875q-0.453125 0.890625 -1.234375 1.34375q-0.78125 0.453125 -1.8125 0.453125l-0.109375 0q-0.921875 0 -1.609375 -0.375q-0.671875 -0.390625 -1.03125 -1.046875l0 4.4375l-1.28125 0zm3.671875 -4.109375l0.15625 0q1.03125 0 1.71875 -0.703125q0.703125 -0.703125 0.703125 -2.1875l0 -0.578125q0 -1.46875 -0.703125 -2.15625q-0.6875 -0.703125 -1.71875 -0.703125l-0.15625 0q-0.65625 0 -1.203125 0.3125q-0.546875 0.296875 -0.875 0.9375q-0.3125 0.640625 -0.3125 1.671875l0 0.484375q0 1.53125 0.703125 2.234375q0.703125 0.6875 1.6875 0.6875zm8.085541 1.09375q-1.3125 0 -2.015625 -0.625q-0.703125 -0.625 -0.703125 -1.78125q0 -0.96875 0.59375 -1.578125q0.609375 -0.625 1.78125 -0.78125l3.1875 -0.4375l0 -0.0625q0 -2.1875 -1.953125 -2.1875l-0.171875 0q-1.53125 0 -2.09375 1.1875l-1.03125 -0.5q0.375 -0.828125 1.171875 -1.296875q0.8125 -0.46875 1.953125 -0.46875l0.25 0q1.546875 0 2.34375 0.828125q0.8125 0.8125 0.8125 2.359375l0 5.15625l-1.15625 0l0 -1.453125q-0.375 0.765625 -1.125 1.203125q-0.75 0.4375 -1.703125 0.4375l-0.140625 0zm2.84375 -4.21875l-2.65625 0.390625q-0.921875 0.125 -1.296875 0.4375q-0.359375 0.296875 -0.359375 0.921875q0 0.6875 0.4375 1.0625q0.4375 0.359375 1.265625 0.359375l0.171875 0q1.09375 0 1.765625 -0.703125q0.671875 -0.703125 0.671875 -1.875l0 -0.59375zm3.7348633 4.03125l0 -8.140625l1.171875 0l0 1.453125q0.328125 -0.734375 1.015625 -1.1875q0.6875 -0.46875 1.71875 -0.46875l0.140625 0q1.390625 0 2.234375 0.859375q0.84375 0.84375 0.84375 2.46875l0 5.015625l-1.28125 0l0 -4.796875q0 -1.203125 -0.53125 -1.8125q-0.53125 -0.625 -1.515625 -0.625l-0.125 0q-0.640625 0 -1.1875 0.3125q-0.53125 0.3125 -0.875 0.9375q-0.328125 0.609375 -0.328125 1.53125l0 4.453125l-1.28125 0zm8.983154 3.203125l0 -1.078125l0.453125 0q0.75 0 1.140625 -0.34375q0.390625 -0.328125 0.75 -1.28125l0.171875 -0.484375l-3.21875 -8.15625l1.359375 0l2.53125 6.796875l2.421875 -6.796875l1.296875 0l-3.296875 8.6875q-0.390625 1.03125 -0.796875 1.609375q-0.390625 0.59375 -0.921875 0.8125q-0.515625 0.234375 -1.3125 0.234375l-0.578125 0zm7.152893 -1.125q0.609375 -0.84375 1.0625 -1.984375q0.453125 -1.140625 0.6875 -2.40625q0.25 -1.265625 0.25 -2.484375l0 -0.65625q0 -1.234375 -0.25 -2.484375q-0.234375 -1.265625 -0.6875 -2.390625q-0.453125 -1.140625 -1.0625 -1.984375l1.203125 0q0.671875 0.875 1.15625 2.0q0.484375 1.125 0.734375 2.375q0.25 1.234375 0.25 2.484375l0 0.65625q0 1.25 -0.25 2.484375q-0.25 1.234375 -0.734375 2.359375q-0.484375 1.140625 -1.15625 2.03125l-1.203125 0z" fill-rule="nonzero"/><path fill="#000000" fill-opacity="0.0" d="m0 200.46646l183.84021 0l0 48.468765l-183.84021 0z" fill-rule="evenodd"/><path fill="#000000" d="m19.360283 220.01396q-3.25 0 -4.265625 -2.40625l1.140625 -0.59375q0.375 0.921875 1.140625 1.390625q0.765625 0.46875 1.96875 0.46875l0.1875 0q1.328125 0 2.03125 -0.5q0.71875 -0.515625 0.71875 -1.421875l0 -0.1875q0 -0.78125 -0.453125 -1.25q-0.4375 -0.484375 -1.453125 -0.65625l-2.046875 -0.34375q-2.890625 -0.484375 -2.890625 -2.90625l0 -0.21875q0 -0.875 0.484375 -1.546875q0.484375 -0.671875 1.34375 -1.046875q0.875 -0.375 2.0 -0.375l0.234375 0q1.4375 0 2.453125 0.59375q1.015625 0.59375 1.46875 1.6875l-1.171875 0.5q-0.609375 -1.609375 -2.765625 -1.609375l-0.203125 0q-1.171875 0 -1.859375 0.484375q-0.671875 0.484375 -0.671875 1.3125l0 0.203125q0 0.734375 0.4375 1.140625q0.453125 0.40625 1.421875 0.578125l2.046875 0.34375q1.484375 0.234375 2.21875 1.03125q0.734375 0.78125 0.734375 2.0625l0 0.203125q0 1.421875 -1.078125 2.25q-1.078125 0.8125 -2.953125 0.8125l-0.21875 0zm6.2489014 -0.1875l0 -11.6875l1.28125 0l0 4.8125q0.34375 -0.65625 1.0 -1.0625q0.671875 -0.40625 1.625 -0.40625l0.140625 0q1.390625 0 2.234375 0.859375q0.84375 0.84375 0.84375 2.46875l0 5.015625l-1.28125 0l0 -4.796875q0 -1.203125 -0.53125 -1.8125q-0.53125 -0.625 -1.515625 -0.625l-0.125 0q-0.640625 0 -1.1875 0.3125q-0.53125 0.3125 -0.875 0.9375q-0.328125 0.609375 -0.328125 1.53125l0 4.453125l-1.28125 0zm11.677399 0.1875q-1.3125 0 -2.015625 -0.625q-0.703125 -0.625 -0.703125 -1.78125q0 -0.96875 0.59375 -1.578125q0.609375 -0.625 1.78125 -0.78125l3.1875 -0.4375l0 -0.0625q0 -2.1875 -1.953125 -2.1875l-0.171875 0q-1.53125 0 -2.09375 1.1875l-1.03125 -0.5q0.375 -0.828125 1.171875 -1.296875q0.8125 -0.46875 1.953125 -0.46875l0.25 0q1.546875 0 2.34375 0.828125q0.8125 0.8125 0.8125 2.359375l0 5.15625l-1.15625 0l0 -1.453125q-0.375 0.765625 -1.125 1.203125q-0.75 0.4375 -1.703125 0.4375l-0.140625 0zm2.84375 -4.21875l-2.65625 0.390625q-0.921875 0.125 -1.296875 0.4375q-0.359375 0.296875 -0.359375 0.921875q0 0.6875 0.4375 1.0625q0.4375 0.359375 1.265625 0.359375l0.171875 0q1.09375 0 1.765625 -0.703125q0.671875 -0.703125 0.671875 -1.875l0 -0.59375zm3.7348938 4.03125l0 -8.140625l1.171875 0l0 1.703125q0.28125 -0.796875 0.859375 -1.28125q0.59375 -0.484375 1.71875 -0.484375l0.75 0l0 1.15625l-0.828125 0q-1.03125 0 -1.71875 0.71875q-0.671875 0.71875 -0.671875 2.1875l0 4.140625l-1.28125 0zm9.091522 0.1875q-1.6875 0 -2.671875 -1.03125q-0.96875 -1.046875 -0.96875 -2.9375l0 -0.59375q0 -1.21875 0.453125 -2.109375q0.453125 -0.890625 1.265625 -1.375q0.828125 -0.484375 1.921875 -0.484375l0.125 0q1.0625 0 1.84375 0.453125q0.78125 0.453125 1.203125 1.28125q0.4375 0.8125 0.4375 1.921875l0 0.96875l-5.984375 0q0.015625 1.4375 0.640625 2.140625q0.640625 0.703125 1.734375 0.703125l0.234375 0q0.796875 0 1.296875 -0.28125q0.515625 -0.296875 0.8125 -0.84375l0.984375 0.59375q-0.421875 0.734375 -1.21875 1.171875q-0.78125 0.421875 -1.875 0.421875l-0.234375 0zm-2.359375 -4.875l4.703125 0l0 -0.171875q0 -1.1875 -0.609375 -1.796875q-0.59375 -0.609375 -1.609375 -0.609375l-0.125 0q-1.0 0 -1.65625 0.65625q-0.640625 0.65625 -0.703125 1.921875zm11.066391 4.875q-1.015625 0 -1.8125 -0.453125q-0.78125 -0.453125 -1.25 -1.34375q-0.453125 -0.90625 -0.453125 -2.1875l0 -0.578125q0 -1.265625 0.453125 -2.15625q0.46875 -0.890625 1.25 -1.34375q0.796875 -0.46875 1.8125 -0.46875l0.09375 0q0.921875 0 1.59375 0.40625q0.671875 0.390625 1.0625 1.046875l0 -4.796875l1.28125 0l0 11.6875l-1.171875 0l0 -1.40625q-0.375 0.71875 -1.078125 1.15625q-0.6875 0.4375 -1.6875 0.4375l-0.09375 0zm0.203125 -1.09375l0.140625 0q0.671875 0 1.21875 -0.296875q0.546875 -0.3125 0.859375 -0.953125q0.328125 -0.640625 0.328125 -1.671875l0 -0.484375q0 -1.03125 -0.328125 -1.671875q-0.328125 -0.640625 -0.875 -0.9375q-0.546875 -0.3125 -1.203125 -0.3125l-0.140625 0q-1.046875 0 -1.75 0.703125q-0.6875 0.6875 -0.6875 2.15625l0 0.578125q0 1.484375 0.6875 2.1875q0.703125 0.703125 1.75 0.703125zm13.8854065 0.96875q-1.40625 0 -2.0 -0.65625q-0.59375 -0.65625 -0.59375 -1.796875l0 -4.703125l-1.75 0l0 -1.046875l1.75 0l0 -2.46875l1.28125 0l0 2.46875l2.8125 0l-0.171875 1.046875l-2.640625 0l0 4.625q0 0.765625 0.34375 1.109375q0.359375 0.34375 1.09375 0.34375l1.375 0l0 1.078125l-1.5 0zm3.4730225 -0.0625l0 -8.140625l1.171875 0l0 1.703125q0.28125 -0.796875 0.859375 -1.28125q0.59375 -0.484375 1.71875 -0.484375l0.75 0l0 1.15625l-0.828125 0q-1.03125 0 -1.71875 0.71875q-0.671875 0.71875 -0.671875 2.1875l0 4.140625l-1.28125 0zm9.211395 0.1875q-1.34375 0 -2.15625 -0.84375q-0.8125 -0.84375 -0.8125 -2.484375l0 -5.0l1.28125 0l0 4.8125q0 1.1875 0.5 1.8125q0.5 0.609375 1.453125 0.609375l0.125 0q0.625 0 1.140625 -0.3125q0.515625 -0.3125 0.828125 -0.921875q0.3125 -0.625 0.3125 -1.5625l0 -4.4375l1.28125 0l0 8.140625l-1.171875 0l0 -1.4375q-0.328125 0.734375 -0.984375 1.1875q-0.65625 0.4375 -1.65625 0.4375l-0.140625 0zm6.5166473 -0.1875l0 -8.140625l1.171875 0l0 1.453125q0.328125 -0.734375 1.015625 -1.1875q0.6875 -0.46875 1.71875 -0.46875l0.140625 0q1.390625 0 2.234375 0.859375q0.84375 0.84375 0.84375 2.46875l0 5.015625l-1.28125 0l0 -4.796875q0 -1.203125 -0.53125 -1.8125q-0.53125 -0.625 -1.515625 -0.625l-0.125 0q-0.640625 0 -1.1875 0.3125q-0.53125 0.3125 -0.875 0.9375q-0.328125 0.609375 -0.328125 1.53125l0 4.453125l-1.28125 0zm9.568024 0l0 -11.6875l1.28125 0l0 7.21875l4.03125 -3.671875l1.671875 0l-3.40625 3.078125l3.671875 5.0625l-1.5625 0l-3.046875 -4.265625l-1.359375 1.21875l0 3.046875l-1.28125 0zm16.271027 0.0625q-1.40625 0 -2.0 -0.65625q-0.59375 -0.65625 -0.59375 -1.796875l0 -4.703125l-1.75 0l0 -1.046875l1.75 0l0 -2.46875l1.28125 0l0 2.46875l2.8125 0l-0.171875 1.046875l-2.640625 0l0 4.625q0 0.765625 0.34375 1.109375q0.359375 0.34375 1.09375 0.34375l1.375 0l0 1.078125l-1.5 0zm3.4730225 -0.0625l0 -8.140625l1.171875 0l0 1.703125q0.28125 -0.796875 0.859375 -1.28125q0.59375 -0.484375 1.7187576 -0.484375l0.75 0l0 1.15625l-0.8281326 0q-1.03125 0 -1.71875 0.71875q-0.671875 0.71875 -0.671875 2.1875l0 4.140625l-1.28125 0zm8.013405 0.1875q-1.3125 0 -2.015625 -0.625q-0.703125 -0.625 -0.703125 -1.78125q0 -0.96875 0.59375 -1.578125q0.609375 -0.625 1.78125 -0.78125l3.1875 -0.4375l0 -0.0625q0 -2.1875 -1.953125 -2.1875l-0.171875 0q-1.53125 0 -2.09375 1.1875l-1.03125 -0.5q0.375 -0.828125 1.171875 -1.296875q0.8125 -0.46875 1.953125 -0.46875l0.25 0q1.546875 0 2.34375 0.828125q0.8125 0.8125 0.8125 2.359375l0 5.15625l-1.15625 0l0 -1.453125q-0.375 0.765625 -1.125 1.203125q-0.75 0.4375 -1.703125 0.4375l-0.140625 0zm2.84375 -4.21875l-2.65625 0.390625q-0.921875 0.125 -1.296875 0.4375q-0.359375 0.296875 -0.359375 0.921875q0 0.6875 0.4375 1.0625q0.4375 0.359375 1.265625 0.359375l0.171875 0q1.09375 0 1.765625 -0.703125q0.671875 -0.703125 0.671875 -1.875l0 -0.59375zm3.7348938 4.03125l0 -8.140625l1.28125 0l0 8.140625l-1.28125 0zm-0.03125 -9.859375l0 -1.453125l1.34375 0l0 1.453125l-1.34375 0zm3.8712463 9.859375l0 -8.140625l1.171875 0l0 1.453125q0.328125 -0.734375 1.015625 -1.1875q0.6875 -0.46875 1.71875 -0.46875l0.140625 0q1.390625 0 2.234375 0.859375q0.84375 0.84375 0.84375 2.46875l0 5.015625l-1.28125 0l0 -4.796875q0 -1.203125 -0.53125 -1.8125q-0.53125 -0.625 -1.515625 -0.625l-0.125 0q-0.640625 0 -1.1875 0.3125q-0.53125 0.3125 -0.875 0.9375q-0.328125 0.609375 -0.328125 1.53125l0 4.453125l-1.28125 0zm12.755524 0.1875q-1.6875 0 -2.671875 -1.03125q-0.96875 -1.046875 -0.96875 -2.9375l0 -0.59375q0 -1.21875 0.453125 -2.109375q0.453125 -0.890625 1.265625 -1.375q0.828125 -0.484375 1.921875 -0.484375l0.125 0q1.0625 0 1.84375 0.453125q0.78125 0.453125 1.203125 1.28125q0.4375 0.8125 0.4375 1.921875l0 0.96875l-5.984375 0q0.015625 1.4375 0.640625 2.140625q0.640625 0.703125 1.734375 0.703125l0.234375 0q0.796875 0 1.296875 -0.28125q0.515625 -0.296875 0.8125 -0.84375l0.984375 0.59375q-0.421875 0.734375 -1.21875 1.171875q-0.78125 0.421875 -1.875 0.421875l-0.234375 0zm-2.359375 -4.875l4.703125 0l0 -0.171875q0 -1.1875 -0.609375 -1.796875q-0.59375 -0.609375 -1.609375 -0.609375l-0.125 0q-1.0 0 -1.65625 0.65625q-0.640625 0.65625 -0.703125 1.921875zm11.066406 4.875q-1.015625 0 -1.8125 -0.453125q-0.78125 -0.453125 -1.25 -1.34375q-0.453125 -0.90625 -0.453125 -2.1875l0 -0.578125q0 -1.265625 0.453125 -2.15625q0.46875 -0.890625 1.25 -1.34375q0.796875 -0.46875 1.8125 -0.46875l0.09375 0q0.921875 0 1.59375 0.40625q0.671875 0.390625 1.0625 1.046875l0 -4.796875l1.28125 0l0 11.6875l-1.171875 0l0 -1.40625q-0.375 0.71875 -1.078125 1.15625q-0.6875 0.4375 -1.6875 0.4375l-0.09375 0zm0.203125 -1.09375l0.140625 0q0.671875 0 1.21875 -0.296875q0.546875 -0.3125 0.859375 -0.953125q0.328125 -0.640625 0.328125 -1.671875l0 -0.484375q0 -1.03125 -0.328125 -1.671875q-0.328125 -0.640625 -0.875 -0.9375q-0.546875 -0.3125 -1.203125 -0.3125l-0.140625 0q-1.046875 0 -1.75 0.703125q-0.6875 0.6875 -0.6875 2.15625l0 0.578125q0 1.484375 0.6875 2.1875q0.703125 0.703125 1.75 0.703125z" fill-rule="nonzero"/><path fill="#000000" d="m51.42713 239.21396q-1.0 0 -1.703125 -0.421875q-0.6875 -0.4375 -1.046875 -1.171875l0 1.40625l-1.171875 0l0 -11.6875l1.28125 0l0 4.796875q0.359375 -0.65625 1.03125 -1.046875q0.6875 -0.40625 1.609375 -0.40625l0.109375 0q1.03125 0 1.8125 0.46875q0.78125 0.453125 1.234375 1.34375q0.453125 0.890625 0.453125 2.15625l0 0.59375q0 1.28125 -0.453125 2.171875q-0.453125 0.890625 -1.234375 1.34375q-0.78125 0.453125 -1.8125 0.453125l-0.109375 0zm-0.25 -1.09375l0.15625 0q1.03125 0 1.71875 -0.703125q0.703125 -0.703125 0.703125 -2.1875l0 -0.578125q0 -1.46875 -0.703125 -2.15625q-0.6875 -0.703125 -1.71875 -0.703125l-0.15625 0q-0.65625 0 -1.203125 0.3125q-0.546875 0.296875 -0.875 0.9375q-0.3125 0.640625 -0.3125 1.671875l0 0.484375q0 1.53125 0.703125 2.234375q0.703125 0.6875 1.6875 0.6875zm5.3752747 4.109375l0 -1.078125l0.453125 0q0.75 0 1.140625 -0.34375q0.390625 -0.328125 0.75 -1.28125l0.171875 -0.484375l-3.21875 -8.15625l1.359375 0l2.53125 6.796875l2.421875 -6.796875l1.296875 0l-3.296875 8.6875q-0.390625 1.03125 -0.796875 1.609375q-0.390625 0.59375 -0.921875 0.8125q-0.515625 0.234375 -1.3125 0.234375l-0.578125 0zm14.710266 -3.015625q-1.3125 0 -2.015625 -0.625q-0.703125 -0.625 -0.703125 -1.78125q0 -0.96875 0.59375 -1.578125q0.609375 -0.625 1.78125 -0.78125l3.1875 -0.4375l0 -0.0625q0 -2.1875 -1.953125 -2.1875l-0.171875 0q-1.53125 0 -2.09375 1.1875l-1.03125 -0.5q0.375 -0.828125 1.171875 -1.296875q0.8125 -0.46875 1.953125 -0.46875l0.25 0q1.546875 0 2.34375 0.828125q0.8125 0.8125 0.8125 2.359375l0 5.15625l-1.15625 0l0 -1.453125q-0.375 0.765625 -1.125 1.203125q-0.75 0.4375 -1.703125 0.4375l-0.140625 0zm2.84375 -4.21875l-2.65625 0.390625q-0.921875 0.125 -1.296875 0.4375q-0.359375 0.296875 -0.359375 0.921875q0 0.6875 0.4375 1.0625q0.4375 0.359375 1.265625 0.359375l0.171875 0q1.09375 0 1.765625 -0.703125q0.671875 -0.703125 0.671875 -1.875l0 -0.59375zm3.7348938 4.03125l0 -11.6875l1.28125 0l0 11.6875l-1.28125 0zm3.8400116 0l0 -11.6875l1.28125 0l0 11.6875l-1.28125 0zm11.264893 0.1875q-1.71875 0 -2.734375 -1.03125q-1.015625 -1.046875 -1.015625 -2.9375l0 -0.59375q0 -1.234375 0.46875 -2.125q0.484375 -0.890625 1.328125 -1.359375q0.84375 -0.484375 1.953125 -0.484375l0.171875 0q1.078125 0 1.84375 0.515625q0.765625 0.5 1.125 1.328125l-1.03125 0.484375q-0.265625 -0.5625 -0.75 -0.890625q-0.484375 -0.328125 -1.1875 -0.328125l-0.15625 0q-1.09375 0 -1.796875 0.71875q-0.6875 0.71875 -0.6875 2.140625l0 0.59375q0 1.4375 0.671875 2.15625q0.6875 0.71875 1.8125 0.71875l0.15625 0q0.734375 0 1.21875 -0.3125q0.5 -0.3125 0.75 -0.84375l1.03125 0.5q-0.359375 0.78125 -1.140625 1.265625q-0.765625 0.484375 -1.859375 0.484375l-0.171875 0zm5.167145 -0.1875l0 -11.6875l1.28125 0l0 11.6875l-1.28125 0zm3.8400116 0l0 -8.140625l1.28125 0l0 8.140625l-1.28125 0zm-0.03125 -9.859375l0 -1.453125l1.34375 0l0 1.453125l-1.34375 0zm7.0587616 10.046875q-1.6875 0 -2.671875 -1.03125q-0.96875 -1.046875 -0.96875 -2.9375l0 -0.59375q0 -1.21875 0.453125 -2.109375q0.453125 -0.890625 1.265625 -1.375q0.828125 -0.484375 1.921875 -0.484375l0.125 0q1.0625 0 1.84375 0.453125q0.78125 0.453125 1.203125 1.28125q0.4375 0.8125 0.4375 1.921875l0 0.96875l-5.984375 0q0.015625 1.4375 0.640625 2.140625q0.640625 0.703125 1.734375 0.703125l0.234375 0q0.796875 0 1.296875 -0.28125q0.515625 -0.296875 0.8125 -0.84375l0.984375 0.59375q-0.421875 0.734375 -1.21875 1.171875q-0.78125 0.421875 -1.875 0.421875l-0.234375 0zm-2.359375 -4.875l4.703125 0l0 -0.171875q0 -1.1875 -0.609375 -1.796875q-0.59375 -0.609375 -1.609375 -0.609375l-0.125 0q-1.0 0 -1.65625 0.65625q-0.640625 0.65625 -0.703125 1.921875zm8.003891 4.6875l0 -8.140625l1.171875 0l0 1.453125q0.328125 -0.734375 1.015625 -1.1875q0.6875 -0.46875 1.71875 -0.46875l0.140625 0q1.390625 0 2.234375 0.859375q0.84375 0.84375 0.84375 2.46875l0 5.015625l-1.28125 0l0 -4.796875q0 -1.203125 -0.53125 -1.8125q-0.53125 -0.625 -1.515625 -0.625l-0.125 0q-0.640625 0 -1.1875 0.3125q-0.53125 0.3125 -0.875 0.9375q-0.328125 0.609375 -0.328125 1.53125l0 4.453125l-1.28125 0zm12.703018 0.0625q-1.40625 0 -2.0 -0.65625q-0.59375 -0.65625 -0.59375 -1.796875l0 -4.703125l-1.75 0l0 -1.046875l1.75 0l0 -2.46875l1.28125 0l0 2.46875l2.8125076 0l-0.171875 1.046875l-2.6406326 0l0 4.625q0 0.765625 0.34375 1.109375q0.359375 0.34375 1.09375 0.34375l1.3750076 0l0 1.078125l-1.5000076 0zm6.284401 0.125q-2.671875 0 -3.484375 -1.875l1.03125 -0.5q0.3125 0.671875 0.90625 1.0q0.609375 0.3125 1.5625 0.3125l0.1875 0q1.90625 0 1.90625 -1.234375l0 -0.078125q0 -1.078125 -1.265625 -1.234375l-1.8125 -0.265625q-1.078125 -0.140625 -1.671875 -0.671875q-0.578125 -0.546875 -0.578125 -1.484375l0 -0.171875q0 -1.046875 0.828125 -1.6875q0.84375 -0.640625 2.203125 -0.640625l0.203125 0q1.125 0 1.953125 0.46875q0.828125 0.453125 1.15625 1.265625l-1.03125 0.46875q-0.5 -1.125 -2.078125 -1.125l-0.1875 0q-0.828125 0 -1.328125 0.34375q-0.484375 0.328125 -0.484375 0.890625l0 0.09375q0 0.5 0.296875 0.765625q0.296875 0.265625 0.96875 0.359375l1.84375 0.25q1.046875 0.140625 1.625 0.734375q0.59375 0.59375 0.59375 1.546875l0 0.171875q0 1.140625 -0.796875 1.71875q-0.796875 0.578125 -2.328125 0.578125l-0.21875 0z" fill-rule="nonzero"/></g></svg>