<svg version="1.1" viewBox="0.0 0.0 292.0 181.0" fill="none" stroke="none" stroke-linecap="square" stroke-miterlimit="10" width="292" height="181" xmlns:xlink="http://www.w3.org/1999/xlink" xmlns="http://www.w3.org/2000/svg"><path fill="#ffffff" d="M0 0L292.0 0L292.0 181.0L0 181.0L0 0Z" fill-rule="nonzero"/><path stroke="#333333" stroke-width="1.0" stroke-linecap="butt" d="M36.5 151.5L282.5 151.5" fill-rule="nonzero"/><path stroke="#cccccc" stroke-width="1.0" stroke-linecap="butt" d="M36.5 122.5L282.5 122.5" fill-rule="nonzero"/><path stroke="#cccccc" stroke-width="1.0" stroke-linecap="butt" d="M36.5 94.5L282.5 94.5" fill-rule="nonzero"/><path stroke="#cccccc" stroke-width="1.0" stroke-linecap="butt" d="M36.5 65.5L282.5 65.5" fill-rule="nonzero"/><path stroke="#cccccc" stroke-width="1.0" stroke-linecap="butt" d="M36.5 36.5L282.5 36.5" fill-rule="nonzero"/><clipPath id="id_0"><path d="M36.05 36.083332L282.95 36.083332L282.95 151.95L36.05 151.95L36.05 36.083332Z" clip-rule="nonzero"/></clipPath><path stroke="#000000" stroke-width="2.0" stroke-linecap="butt" stroke-opacity="0.0" clip-path="url(#id_0)" d="M129.0 152.0L101.0 152.0L101.0 98.0C101.0 96.89543 101.89543 96.0 103.0 96.0L127.0 96.0C128.10457 96.0 129.0 96.89543 129.0 98.0Z" fill-rule="nonzero"/><path fill="#4285f4" clip-path="url(#id_0)" d="M129.0 152.0L101.0 152.0L101.0 98.0C101.0 96.89543 101.89543 96.0 103.0 96.0L127.0 96.0C128.10457 96.0 129.0 96.89543 129.0 98.0Z" fill-rule="nonzero"/><path stroke="#000000" stroke-width="2.0" stroke-linecap="butt" stroke-opacity="0.0" clip-path="url(#id_0)" d="M159.0 152.0L131.0 152.0L131.0 98.0C131.0 96.89543 131.89543 96.0 133.0 96.0L157.0 96.0C158.10457 96.0 159.0 96.89543 159.0 98.0Z" fill-rule="nonzero"/><path fill="#ea4335" clip-path="url(#id_0)" d="M159.0 152.0L131.0 152.0L131.0 98.0C131.0 96.89543 131.89543 96.0 133.0 96.0L157.0 96.0C158.10457 96.0 159.0 96.89543 159.0 98.0Z" fill-rule="nonzero"/><path stroke="#000000" stroke-width="2.0" stroke-linecap="butt" stroke-opacity="0.0" clip-path="url(#id_0)" d="M189.0 152.0L161.0 152.0L161.0 98.0C161.0 96.89543 161.89543 96.0 163.0 96.0L187.0 96.0C188.10457 96.0 189.0 96.89543 189.0 98.0Z" fill-rule="nonzero"/><path fill="#fbbc04" clip-path="url(#id_0)" d="M189.0 152.0L161.0 152.0L161.0 98.0C161.0 96.89543 161.89543 96.0 163.0 96.0L187.0 96.0C188.10457 96.0 189.0 96.89543 189.0 98.0Z" fill-rule="nonzero"/><path stroke="#000000" stroke-width="2.0" stroke-linecap="butt" stroke-opacity="0.0" clip-path="url(#id_0)" d="M219.0 152.0L191.0 152.0L191.0 98.0C191.0 96.89543 191.89543 96.0 193.0 96.0L217.0 96.0C218.10457 96.0 219.0 96.89543 219.0 98.0Z" fill-rule="nonzero"/><path fill="#34a853" clip-path="url(#id_0)" d="M219.0 152.0L191.0 152.0L191.0 98.0C191.0 96.89543 191.89543 96.0 193.0 96.0L217.0 96.0C218.10457 96.0 219.0 96.89543 219.0 98.0Z" fill-rule="nonzero"/><path fill="#000000" d="M23.55 151.71562Q23.55 150.18437 23.8625 149.2625Q24.175 148.325 24.784374 147.825Q25.409374 147.325 26.346874 147.325Q27.034374 147.325 27.55 147.60625Q28.08125 147.8875 28.425 148.41875Q28.76875 148.93437 28.95625 149.68437Q29.14375 150.43437 29.14375 151.71562Q29.14375 153.23125 28.83125 154.15312Q28.534374 155.075 27.909374 155.59062Q27.3 156.09062 26.346874 156.09062Q25.1125 156.09062 24.39375 155.2Q23.55 154.1375 23.55 151.71562ZM24.628124 151.71562Q24.628124 153.825 25.128124 154.52812Q25.628124 155.23125 26.346874 155.23125Q27.08125 155.23125 27.565624 154.52812Q28.065624 153.825 28.065624 151.71562Q28.065624 149.59062 27.565624 148.90312Q27.08125 148.2 26.33125 148.2Q25.6125 148.2 25.175 148.80937Q24.628124 149.59062 24.628124 151.71562Z" fill-rule="nonzero"/><path fill="#000000" d="M22.096874 125.967705L22.096874 126.98333L16.409374 126.98333Q16.409374 126.60833 16.534374 126.248955Q16.753124 125.67083 17.221874 125.10833Q17.70625 124.54583 18.6125 123.811455Q20.01875 122.655205 20.503124 121.98333Q21.003124 121.311455 21.003124 120.717705Q21.003124 120.092705 20.55 119.67083Q20.096874 119.23333 19.378124 119.23333Q18.6125 119.23333 18.159374 119.686455Q17.70625 120.13958 17.690624 120.95208L16.6125 120.842705Q16.721874 119.623955 17.440624 118.998955Q18.175 118.35833 19.409374 118.35833Q20.64375 118.35833 21.3625 119.04583Q22.08125 119.73333 22.08125 120.748955Q22.08125 121.26458 21.8625 121.76458Q21.659374 122.248955 21.159374 122.811455Q20.675 123.35833 19.55 124.311455Q18.596874 125.10833 18.315624 125.405205Q18.05 125.686455 17.878124 125.967705L22.096874 125.967705ZM23.55 124.73333L24.659374 124.63958Q24.784374 125.45208 25.221874 125.85833Q25.675 126.26458 26.315624 126.26458Q27.065624 126.26458 27.596874 125.686455Q28.128124 125.10833 28.128124 124.17083Q28.128124 123.26458 27.6125 122.748955Q27.1125 122.217705 26.284374 122.217705Q25.784374 122.217705 25.3625 122.45208Q24.95625 122.686455 24.721874 123.04583L23.7375 122.92083L24.565624 118.51458L28.846874 118.51458L28.846874 119.51458L25.409374 119.51458L24.95625 121.82708Q25.721874 121.280205 26.565624 121.280205Q27.690624 121.280205 28.45625 122.061455Q29.2375 122.842705 29.2375 124.07708Q29.2375 125.23333 28.565624 126.092705Q27.7375 127.123955 26.315624 127.123955Q25.14375 127.123955 24.39375 126.467705Q23.659374 125.811455 23.55 124.73333Z" fill-rule="nonzero"/><path fill="#000000" d="M16.55 95.76667L17.659374 95.67292Q17.784374 96.48542 18.221874 96.89167Q18.675 97.29792 19.315624 97.29792Q20.065624 97.29792 20.596874 96.719795Q21.128124 96.14167 21.128124 95.20417Q21.128124 94.29792 20.6125 93.782295Q20.1125 93.251045 19.284374 93.251045Q18.784374 93.251045 18.3625 93.48542Q17.95625 93.719795 17.721874 94.07917L16.7375 93.95417L17.565624 89.54792L21.846874 89.54792L21.846874 90.54792L18.409374 90.54792L17.95625 92.86042Q18.721874 92.313545 19.565624 92.313545Q20.690624 92.313545 21.45625 93.094795Q22.2375 93.876045 22.2375 95.11042Q22.2375 96.26667 21.565624 97.126045Q20.7375 98.157295 19.315624 98.157295Q18.14375 98.157295 17.39375 97.501045Q16.659374 96.844795 16.55 95.76667ZM23.55 93.782295Q23.55 92.251045 23.8625 91.32917Q24.175 90.39167 24.784374 89.89167Q25.409374 89.39167 26.346874 89.39167Q27.034374 89.39167 27.55 89.67292Q28.08125 89.95417 28.425 90.48542Q28.76875 91.001045 28.95625 91.751045Q29.14375 92.501045 29.14375 93.782295Q29.14375 95.29792 28.83125 96.219795Q28.534374 97.14167 27.909374 97.657295Q27.3 98.157295 26.346874 98.157295Q25.1125 98.157295 24.39375 97.26667Q23.55 96.20417 23.55 93.782295ZM24.628124 93.782295Q24.628124 95.89167 25.128124 96.594795Q25.628124 97.29792 26.346874 97.29792Q27.08125 97.29792 27.565624 96.594795Q28.065624 95.89167 28.065624 93.782295Q28.065624 91.657295 27.565624 90.969795Q27.08125 90.26667 26.33125 90.26667Q25.6125 90.26667 25.175 90.876045Q24.628124 91.657295 24.628124 93.782295Z" fill-rule="nonzero"/><path fill="#000000" d="M16.6125 61.581253L16.6125 60.565628L22.175 60.565628L22.175 61.393753Q21.3625 62.268753 20.55 63.721878Q19.753124 65.15938 19.315624 66.69063Q18.9875 67.76875 18.909374 69.05L17.815624 69.05Q17.83125 68.03438 18.20625 66.59688Q18.596874 65.15938 19.3 63.831253Q20.01875 62.503128 20.83125 61.581253L16.6125 61.581253ZM23.55 66.8L24.659374 66.70625Q24.784374 67.51875 25.221874 67.925Q25.675 68.33125 26.315624 68.33125Q27.065624 68.33125 27.596874 67.75313Q28.128124 67.175 28.128124 66.2375Q28.128124 65.33125 27.6125 64.81563Q27.1125 64.28438 26.284374 64.28438Q25.784374 64.28438 25.3625 64.51875Q24.95625 64.75313 24.721874 65.1125L23.7375 64.9875L24.565624 60.581253L28.846874 60.581253L28.846874 61.581253L25.409374 61.581253L24.95625 63.893753Q25.721874 63.346878 26.565624 63.346878Q27.690624 63.346878 28.45625 64.12813Q29.2375 64.90938 29.2375 66.14375Q29.2375 67.3 28.565624 68.15938Q27.7375 69.19063 26.315624 69.19063Q25.14375 69.19063 24.39375 68.53438Q23.659374 67.87813 23.55 66.8Z" fill-rule="nonzero"/><path fill="#000000" d="M13.51875 40.083332L12.471875 40.083332L12.471875 33.364582Q12.08125 33.723957 11.45625 34.098957Q10.846875 34.458332 10.3625 34.630207L10.3625 33.614582Q11.2375 33.192707 11.89375 32.614582Q12.565625 32.020832 12.846875 31.458332L13.51875 31.458332L13.51875 40.083332ZM16.55 35.848957Q16.55 34.317707 16.8625 33.395832Q17.175 32.458332 17.784374 31.958332Q18.409374 31.458332 19.346874 31.458332Q20.034374 31.458332 20.55 31.739582Q21.08125 32.020832 21.425 32.552082Q21.76875 33.067707 21.95625 33.817707Q22.14375 34.567707 22.14375 35.848957Q22.14375 37.364582 21.83125 38.286457Q21.534374 39.208332 20.909374 39.723957Q20.3 40.223957 19.346874 40.223957Q18.1125 40.223957 17.39375 39.333332Q16.55 38.270832 16.55 35.848957ZM17.628124 35.848957Q17.628124 37.958332 18.128124 38.661457Q18.628124 39.364582 19.346874 39.364582Q20.08125 39.364582 20.565624 38.661457Q21.065624 37.958332 21.065624 35.848957Q21.065624 33.723957 20.565624 33.036457Q20.08125 32.333332 19.33125 32.333332Q18.6125 32.333332 18.175 32.942707Q17.628124 33.723957 17.628124 35.848957ZM23.55 35.848957Q23.55 34.317707 23.8625 33.395832Q24.175 32.458332 24.784374 31.958332Q25.409374 31.458332 26.346874 31.458332Q27.034374 31.458332 27.55 31.739582Q28.08125 32.020832 28.425 32.552082Q28.76875 33.067707 28.95625 33.817707Q29.14375 34.567707 29.14375 35.848957Q29.14375 37.364582 28.83125 38.286457Q28.534374 39.208332 27.909374 39.723957Q27.3 40.223957 26.346874 40.223957Q25.1125 40.223957 24.39375 39.333332Q23.55 38.270832 23.55 35.848957ZM24.628124 35.848957Q24.628124 37.958332 25.128124 38.661457Q25.628124 39.364582 26.346874 39.364582Q27.08125 39.364582 27.565624 38.661457Q28.065624 37.958332 28.065624 35.848957Q28.065624 33.723957 27.565624 33.036457Q27.08125 32.333332 26.33125 32.333332Q25.6125 32.333332 25.175 32.942707Q24.628124 33.723957 24.628124 35.848957Z" fill-rule="nonzero"/><path fill="#000000" d="M130.10938 169.09062L130.60938 166.60625L129.625 166.60625L129.625 165.73125L130.79688 165.73125L131.21875 163.60625L129.625 163.60625L129.625 162.73125L131.40625 162.73125L131.90625 160.21562L132.78125 160.21562L132.28125 162.73125L134.125 162.73125L134.64062 160.21562L135.51562 160.21562L135.01562 162.73125L136.01562 162.73125L136.01562 163.60625L134.82812 163.60625L134.39062 165.73125L136.01562 165.73125L136.01562 166.60625L134.21875 166.60625L133.70312 169.09062L132.82812 169.09062L133.32812 166.60625L131.5 166.60625L130.98438 169.09062L130.10938 169.09062ZM131.67188 165.73125L133.51562 165.73125L133.95312 163.60625L132.10938 163.60625L131.67188 165.73125ZM140.04688 166.18437L141.10938 166.09062Q141.1875 166.74687 141.46875 167.15312Q141.75 167.55937 142.32812 167.825Q142.92188 168.075 143.65625 168.075Q144.29688 168.075 144.79688 167.8875Q145.29688 167.68437 145.53125 167.35625Q145.78125 167.0125 145.78125 166.62187Q145.78125 166.21562 145.54688 165.91875Q145.3125 165.60625 144.78125 165.40312Q144.42188 165.2625 143.23438 164.98125Q142.0625 164.7 141.59375 164.45Q140.96875 164.12187 140.67188 163.65312Q140.375 163.16875 140.375 162.575Q140.375 161.93437 140.73438 161.37187Q141.10938 160.79375 141.8125 160.5125Q142.53125 160.21562 143.39062 160.21562Q144.34375 160.21562 145.07812 160.52812Q145.8125 160.825 146.20312 161.43437Q146.59375 162.02812 146.625 162.77812L145.53125 162.85625Q145.4375 162.04375 144.92188 161.6375Q144.42188 161.21562 143.4375 161.21562Q142.40625 161.21562 141.9375 161.59062Q141.46875 161.96562 141.46875 162.49687Q141.46875 162.96562 141.79688 163.2625Q142.125 163.55937 143.5 163.87187Q144.89062 164.18437 145.40625 164.41875Q146.15625 164.77812 146.51562 165.30937Q146.875 165.825 146.875 166.52812Q146.875 167.21562 146.48438 167.825Q146.09375 168.41875 145.35938 168.7625Q144.625 169.09062 143.70312 169.09062Q142.53125 169.09062 141.73438 168.7625Q140.95312 168.41875 140.5 167.73125Q140.0625 167.04375 140.04688 166.18437ZM152.35938 168.18437Q151.76562 168.68437 151.21875 168.8875Q150.6875 169.09062 150.0625 169.09062Q149.03125 169.09062 148.48438 168.59062Q147.9375 168.09062 147.9375 167.30937Q147.9375 166.85625 148.14062 166.48125Q148.34375 166.09062 148.6875 165.87187Q149.03125 165.6375 149.45312 165.52812Q149.75 165.43437 150.39062 165.35625Q151.65625 165.21562 152.26562 164.99687Q152.26562 164.77812 152.26562 164.73125Q152.26562 164.075 151.96875 163.80937Q151.5625 163.46562 150.76562 163.46562Q150.03125 163.46562 149.67188 163.73125Q149.3125 163.98125 149.14062 164.6375L148.10938 164.49687Q148.25 163.84062 148.57812 163.43437Q148.90625 163.02812 149.51562 162.80937Q150.125 162.59062 150.92188 162.59062Q151.71875 162.59062 152.21875 162.77812Q152.71875 162.96562 152.95312 163.24687Q153.1875 163.52812 153.28125 163.96562Q153.32812 164.23125 153.32812 164.93437L153.32812 166.34062Q153.32812 167.80937 153.39062 168.2Q153.46875 168.59062 153.67188 168.95L152.5625 168.95Q152.40625 168.62187 152.35938 168.18437ZM152.26562 165.825Q151.6875 166.05937 150.54688 166.23125Q149.89062 166.325 149.625 166.45Q149.35938 166.55937 149.20312 166.77812Q149.0625 166.99687 149.0625 167.27812Q149.0625 167.7 149.375 167.98125Q149.70312 168.2625 150.3125 168.2625Q150.92188 168.2625 151.39062 167.99687Q151.875 167.73125 152.09375 167.2625Q152.26562 166.90312 152.26562 166.21562L152.26562 165.825ZM155.29688 168.95L155.29688 162.73125L156.23438 162.73125L156.23438 163.60625Q156.53125 163.1375 157.01562 162.87187Q157.5 162.59062 158.125 162.59062Q158.8125 162.59062 159.25 162.87187Q159.70312 163.15312 159.875 163.66875Q160.625 162.59062 161.79688 162.59062Q162.73438 162.59062 163.21875 163.10625Q163.71875 163.60625 163.71875 164.68437L163.71875 168.95L162.67188 168.95L162.67188 165.02812Q162.67188 164.40312 162.5625 164.12187Q162.46875 163.84062 162.20312 163.66875Q161.9375 163.49687 161.5625 163.49687Q160.90625 163.49687 160.46875 163.93437Q160.04688 164.37187 160.04688 165.34062L160.04688 168.95L158.98438 168.95L158.98438 164.90312Q158.98438 164.2 158.71875 163.85625Q158.46875 163.49687 157.89062 163.49687Q157.4375 163.49687 157.0625 163.73125Q156.6875 163.96562 156.51562 164.41875Q156.34375 164.87187 156.34375 165.71562L156.34375 168.95L155.29688 168.95ZM166.29688 171.34062L166.29688 162.73125L167.25 162.73125L167.25 163.52812Q167.59375 163.05937 168.01562 162.825Q168.45312 162.59062 169.0625 162.59062Q169.85938 162.59062 170.46875 162.99687Q171.07812 163.40312 171.375 164.15312Q171.6875 164.90312 171.6875 165.79375Q171.6875 166.74687 171.34375 167.5125Q171.01562 168.27812 170.35938 168.68437Q169.70312 169.09062 168.98438 169.09062Q168.45312 169.09062 168.03125 168.87187Q167.60938 168.6375 167.34375 168.30937L167.34375 171.34062L166.29688 171.34062ZM167.25 165.87187Q167.25 167.075 167.73438 167.65312Q168.21875 168.21562 168.90625 168.21562Q169.60938 168.21562 170.10938 167.62187Q170.60938 167.02812 170.60938 165.77812Q170.60938 164.59062 170.125 164.0125Q169.64062 163.41875 168.95312 163.41875Q168.28125 163.41875 167.76562 164.04375Q167.25 164.66875 167.25 165.87187ZM173.26562 168.95L173.26562 160.35625L174.32812 160.35625L174.32812 168.95L173.26562 168.95ZM180.54688 166.95L181.64062 167.075Q181.39062 168.02812 180.6875 168.55937Q179.98438 169.09062 178.90625 169.09062Q177.54688 169.09062 176.73438 168.24687Q175.9375 167.40312 175.9375 165.8875Q175.9375 164.325 176.75 163.46562Q177.5625 162.59062 178.84375 162.59062Q180.09375 162.59062 180.875 163.43437Q181.67188 164.27812 181.67188 165.825Q181.67188 165.91875 181.67188 166.10625L177.03125 166.10625Q177.09375 167.1375 177.60938 167.68437Q178.125 168.21562 178.90625 168.21562Q179.48438 168.21562 179.89062 167.91875Q180.3125 167.60625 180.54688 166.95ZM177.09375 165.24687L180.5625 165.24687Q180.5 164.45 180.17188 164.05937Q179.65625 163.45 178.85938 163.45Q178.125 163.45 177.625 163.93437Q177.14062 164.41875 177.09375 165.24687ZM182.875 167.09062L183.90625 166.93437Q184.0 167.55937 184.39062 167.8875Q184.79688 168.21562 185.53125 168.21562Q186.25 168.21562 186.59375 167.93437Q186.95312 167.6375 186.95312 167.23125Q186.95312 166.87187 186.64062 166.66875Q186.42188 166.52812 185.5625 166.30937Q184.40625 166.0125 183.95312 165.80937Q183.51562 165.59062 183.28125 165.21562Q183.04688 164.84062 183.04688 164.37187Q183.04688 163.96562 183.23438 163.60625Q183.42188 163.24687 183.75 163.0125Q184.0 162.84062 184.42188 162.71562Q184.84375 162.59062 185.34375 162.59062Q186.0625 162.59062 186.60938 162.80937Q187.17188 163.0125 187.4375 163.37187Q187.70312 163.73125 187.79688 164.325L186.76562 164.46562Q186.70312 163.99687 186.35938 163.73125Q186.03125 163.45 185.40625 163.45Q184.6875 163.45 184.375 163.7Q184.0625 163.93437 184.0625 164.2625Q184.0625 164.46562 184.1875 164.62187Q184.32812 164.79375 184.59375 164.90312Q184.75 164.96562 185.53125 165.16875Q186.65625 165.48125 187.09375 165.66875Q187.53125 165.85625 187.78125 166.21562Q188.03125 166.575 188.03125 167.12187Q188.03125 167.65312 187.71875 168.12187Q187.42188 168.575 186.84375 168.84062Q186.26562 169.09062 185.53125 169.09062Q184.3125 169.09062 183.67188 168.59062Q183.04688 168.075 182.875 167.09062Z" fill-rule="nonzero"/><path fill="#4285f4" d="M21.5 11.05C21.5 10.497715 21.947716 10.05 22.5 10.05L32.5 10.05C33.052284 10.05 33.5 10.497715 33.5 11.05L33.5 21.05C33.5 21.602285 33.052284 22.05 32.5 22.05L22.5 22.05C21.947716 22.05 21.5 21.602285 21.5 21.05Z" fill-rule="nonzero"/><path fill="#1a1a1a" d="M42.421875 20.05L42.421875 11.456249L45.671875 11.456249Q46.515625 11.456249 46.96875 11.534374Q47.609375 11.643749 48.03125 11.940624Q48.46875 12.237499 48.71875 12.768749Q48.984375 13.299999 48.984375 13.940624Q48.984375 15.034374 48.28125 15.799999Q47.59375 16.55 45.765625 16.55L43.5625 16.55L43.5625 20.05L42.421875 20.05ZM43.5625 15.549999L45.78125 15.549999Q46.890625 15.549999 47.34375 15.143749Q47.8125 14.721874 47.8125 13.971874Q47.8125 13.440624 47.53125 13.065624Q47.265625 12.674999 46.828125 12.549999Q46.53125 12.471874 45.765625 12.471874L43.5625 12.471874L43.5625 15.549999ZM50.046875 17.284374L51.109375 17.190624Q51.1875 17.846874 51.46875 18.253124Q51.75 18.659374 52.328125 18.925Q52.921875 19.175 53.65625 19.175Q54.296875 19.175 54.796875 18.9875Q55.296875 18.784374 55.53125 18.45625Q55.78125 18.1125 55.78125 17.721874Q55.78125 17.315624 55.546875 17.01875Q55.3125 16.70625 54.78125 16.503124Q54.421875 16.3625 53.234375 16.08125Q52.0625 15.799999 51.59375 15.549999Q50.96875 15.221874 50.671875 14.753124Q50.375 14.268749 50.375 13.674999Q50.375 13.034374 50.734375 12.471874Q51.109375 11.893749 51.8125 11.612499Q52.53125 11.315624 53.390625 11.315624Q54.34375 11.315624 55.078125 11.628124Q55.8125 11.924999 56.203125 12.534374Q56.59375 13.128124 56.625 13.878124L55.53125 13.956249Q55.4375 13.143749 54.921875 12.737499Q54.421875 12.315624 53.4375 12.315624Q52.40625 12.315624 51.9375 12.690624Q51.46875 13.065624 51.46875 13.596874Q51.46875 14.065624 51.796875 14.362499Q52.125 14.659374 53.5 14.971874Q54.890625 15.284374 55.40625 15.518749Q56.15625 15.878124 56.515625 16.409374Q56.875 16.925 56.875 17.628124Q56.875 18.315624 56.484375 18.925Q56.09375 19.51875 55.359375 19.8625Q54.625 20.190624 53.703125 20.190624Q52.53125 20.190624 51.734375 19.8625Q50.953125 19.51875 50.5 18.83125Q50.0625 18.14375 50.046875 17.284374ZM58.46875 20.05L58.46875 11.456249L59.59375 11.456249L59.59375 14.987499L64.0625 14.987499L64.0625 11.456249L65.203125 11.456249L65.203125 20.05L64.0625 20.05L64.0625 16.003124L59.59375 16.003124L59.59375 20.05L58.46875 20.05Z" fill-rule="nonzero"/><path fill="#ea4335" d="M82.5 11.05C82.5 10.497715 82.947716 10.05 83.5 10.05L93.5 10.05C94.052284 10.05 94.5 10.497715 94.5 11.05L94.5 21.05C94.5 21.602285 94.052284 22.05 93.5 22.05L83.5 22.05C82.947716 22.05 82.5 21.602285 82.5 21.05Z" fill-rule="nonzero"/><path fill="#1a1a1a" d="M103.421875 20.05L103.421875 11.456249L106.671875 11.456249Q107.515625 11.456249 107.96875 11.534374Q108.609375 11.643749 109.03125 11.940624Q109.46875 12.237499 109.71875 12.768749Q109.984375 13.299999 109.984375 13.940624Q109.984375 15.034374 109.28125 15.799999Q108.59375 16.55 106.765625 16.55L104.5625 16.55L104.5625 20.05L103.421875 20.05ZM104.5625 15.549999L106.78125 15.549999Q107.890625 15.549999 108.34375 15.143749Q108.8125 14.721874 108.8125 13.971874Q108.8125 13.440624 108.53125 13.065624Q108.265625 12.674999 107.828125 12.549999Q107.53125 12.471874 106.765625 12.471874L104.5625 12.471874L104.5625 15.549999ZM111.421875 20.05L111.421875 11.456249L114.671875 11.456249Q115.515625 11.456249 115.96875 11.534374Q116.609375 11.643749 117.03125 11.940624Q117.46875 12.237499 117.71875 12.768749Q117.984375 13.299999 117.984375 13.940624Q117.984375 15.034374 117.28125 15.799999Q116.59375 16.55 114.765625 16.55L112.5625 16.55L112.5625 20.05L111.421875 20.05ZM112.5625 15.549999L114.78125 15.549999Q115.890625 15.549999 116.34375 15.143749Q116.8125 14.721874 116.8125 13.971874Q116.8125 13.440624 116.53125 13.065624Q116.265625 12.674999 115.828125 12.549999Q115.53125 12.471874 114.765625 12.471874L112.5625 12.471874L112.5625 15.549999ZM125.5625 17.034374L126.6875 17.33125Q126.328125 18.721874 125.40625 19.45625Q124.484375 20.190624 123.140625 20.190624Q121.75 20.190624 120.875 19.628124Q120.0 19.065624 119.546875 18.003124Q119.09375 16.925 119.09375 15.690624Q119.09375 14.346874 119.609375 13.346874Q120.125 12.346874 121.0625 11.831249Q122.015625 11.315624 123.15625 11.315624Q124.4375 11.315624 125.3125 11.971874Q126.203125 12.628124 126.546875 13.815624L125.421875 14.081249Q125.125 13.143749 124.546875 12.721874Q123.984375 12.284374 123.125 12.284374Q122.140625 12.284374 121.46875 12.768749Q120.8125 13.237499 120.53125 14.034374Q120.265625 14.831249 120.265625 15.690624Q120.265625 16.784374 120.578125 17.596874Q120.90625 18.409374 121.578125 18.815624Q122.25 19.221874 123.046875 19.221874Q124.0 19.221874 124.65625 18.675Q125.328125 18.128124 125.5625 17.034374Z" fill-rule="nonzero"/><path fill="#fbbc04" d="M143.5 11.05C143.5 10.497715 143.94771 10.05 144.5 10.05L154.5 10.05C155.05229 10.05 155.5 10.497715 155.5 11.05L155.5 21.05C155.5 21.602285 155.05229 22.05 154.5 22.05L144.5 22.05C143.94771 22.05 143.5 21.602285 143.5 21.05Z" fill-rule="nonzero"/><path fill="#1a1a1a" d="M164.42188 20.05L164.42188 11.456249L167.67188 11.456249Q168.51562 11.456249 168.96875 11.534374Q169.60938 11.643749 170.03125 11.940624Q170.46875 12.237499 170.71875 12.768749Q170.98438 13.299999 170.98438 13.940624Q170.98438 15.034374 170.28125 15.799999Q169.59375 16.55 167.76562 16.55L165.5625 16.55L165.5625 20.05L164.42188 20.05ZM165.5625 15.549999L167.78125 15.549999Q168.89062 15.549999 169.34375 15.143749Q169.8125 14.721874 169.8125 13.971874Q169.8125 13.440624 169.53125 13.065624Q169.26562 12.674999 168.82812 12.549999Q168.53125 12.471874 167.76562 12.471874L165.5625 12.471874L165.5625 15.549999ZM172.42188 20.05L172.42188 11.456249L173.57812 11.456249L178.09375 18.20625L178.09375 11.456249L179.1875 11.456249L179.1875 20.05L178.01562 20.05L173.5 13.299999L173.5 20.05L172.42188 20.05ZM187.5625 17.034374L188.6875 17.33125Q188.32812 18.721874 187.40625 19.45625Q186.48438 20.190624 185.14062 20.190624Q183.75 20.190624 182.875 19.628124Q182.0 19.065624 181.54688 18.003124Q181.09375 16.925 181.09375 15.690624Q181.09375 14.346874 181.60938 13.346874Q182.125 12.346874 183.0625 11.831249Q184.01562 11.315624 185.15625 11.315624Q186.4375 11.315624 187.3125 11.971874Q188.20312 12.628124 188.54688 13.815624L187.42188 14.081249Q187.125 13.143749 186.54688 12.721874Q185.98438 12.284374 185.125 12.284374Q184.14062 12.284374 183.46875 12.768749Q182.8125 13.237499 182.53125 14.034374Q182.26562 14.831249 182.26562 15.690624Q182.26562 16.784374 182.57812 17.596874Q182.90625 18.409374 183.57812 18.815624Q184.25 19.221874 185.04688 19.221874Q186.0 19.221874 186.65625 18.675Q187.32812 18.128124 187.5625 17.034374Z" fill-rule="nonzero"/><path fill="#34a853" d="M205.5 11.05C205.5 10.497715 205.94771 10.05 206.5 10.05L216.5 10.05C217.05229 10.05 217.5 10.497715 217.5 11.05L217.5 21.05C217.5 21.602285 217.05229 22.05 216.5 22.05L206.5 22.05C205.94771 22.05 205.5 21.602285 205.5 21.05Z" fill-rule="nonzero"/><path fill="#1a1a1a" d="M226.04688 17.284374L227.10938 17.190624Q227.1875 17.846874 227.46875 18.253124Q227.75 18.659374 228.32812 18.925Q228.92188 19.175 229.65625 19.175Q230.29688 19.175 230.79688 18.9875Q231.29688 18.784374 231.53125 18.45625Q231.78125 18.1125 231.78125 17.721874Q231.78125 17.315624 231.54688 17.01875Q231.3125 16.70625 230.78125 16.503124Q230.42188 16.3625 229.23438 16.08125Q228.0625 15.799999 227.59375 15.549999Q226.96875 15.221874 226.67188 14.753124Q226.375 14.268749 226.375 13.674999Q226.375 13.034374 226.73438 12.471874Q227.10938 11.893749 227.8125 11.612499Q228.53125 11.315624 229.39062 11.315624Q230.34375 11.315624 231.07812 11.628124Q231.8125 11.924999 232.20312 12.534374Q232.59375 13.128124 232.625 13.878124L231.53125 13.956249Q231.4375 13.143749 230.92188 12.737499Q230.42188 12.315624 229.4375 12.315624Q228.40625 12.315624 227.9375 12.690624Q227.46875 13.065624 227.46875 13.596874Q227.46875 14.065624 227.79688 14.362499Q228.125 14.659374 229.5 14.971874Q230.89062 15.284374 231.40625 15.518749Q232.15625 15.878124 232.51562 16.409374Q232.875 16.925 232.875 17.628124Q232.875 18.315624 232.48438 18.925Q232.09375 19.51875 231.35938 19.8625Q230.625 20.190624 229.70312 20.190624Q228.53125 20.190624 227.73438 19.8625Q226.95312 19.51875 226.5 18.83125Q226.0625 18.14375 226.04688 17.284374ZM234.48438 20.05L234.48438 11.456249L240.28125 11.456249L240.28125 12.471874L235.625 12.471874L235.625 15.128124L239.65625 15.128124L239.65625 16.14375L235.625 16.14375L235.625 20.05L234.48438 20.05ZM243.01562 20.05L240.65625 13.831249L241.76562 13.831249L243.10938 17.55Q243.3125 18.159374 243.5 18.8Q243.64062 18.315624 243.89062 17.628124L245.28125 13.831249L246.35938 13.831249L244.0 20.05L243.01562 20.05ZM252.5625 17.034374L253.6875 17.33125Q253.32812 18.721874 252.40625 19.45625Q251.48438 20.190624 250.14062 20.190624Q248.75 20.190624 247.875 19.628124Q247.0 19.065624 246.54688 18.003124Q246.09375 16.925 246.09375 15.690624Q246.09375 14.346874 246.60938 13.346874Q247.125 12.346874 248.0625 11.831249Q249.01562 11.315624 250.15625 11.315624Q251.4375 11.315624 252.3125 11.971874Q253.20312 12.628124 253.54688 13.815624L252.42188 14.081249Q252.125 13.143749 251.54688 12.721874Q250.98438 12.284374 250.125 12.284374Q249.14062 12.284374 248.46875 12.768749Q247.8125 13.237499 247.53125 14.034374Q247.26562 14.831249 247.26562 15.690624Q247.26562 16.784374 247.57812 17.596874Q247.90625 18.409374 248.57812 18.815624Q249.25 19.221874 250.04688 19.221874Q251.0 19.221874 251.65625 18.675Q252.32812 18.128124 252.5625 17.034374ZM255.04688 17.284374L256.10938 17.190624Q256.1875 17.846874 256.46875 18.253124Q256.75 18.659374 257.32812 18.925Q257.92188 19.175 258.65625 19.175Q259.29688 19.175 259.79688 18.9875Q260.29688 18.784374 260.53125 18.45625Q260.78125 18.1125 260.78125 17.721874Q260.78125 17.315624 260.54688 17.01875Q260.3125 16.70625 259.78125 16.503124Q259.42188 16.3625 258.23438 16.08125Q257.0625 15.799999 256.59375 15.549999Q255.96875 15.221874 255.67188 14.753124Q255.375 14.268749 255.375 13.674999Q255.375 13.034374 255.73438 12.471874Q256.10938 11.893749 256.8125 11.612499Q257.53125 11.315624 258.39062 11.315624Q259.34375 11.315624 260.07812 11.628124Q260.8125 11.924999 261.20312 12.534374Q261.59375 13.128124 261.625 13.878124L260.53125 13.956249Q260.4375 13.143749 259.92188 12.737499Q259.42188 12.315624 258.4375 12.315624Q257.40625 12.315624 256.9375 12.690624Q256.46875 13.065624 256.46875 13.596874Q256.46875 14.065624 256.79688 14.362499Q257.125 14.659374 258.5 14.971874Q259.89062 15.284374 260.40625 15.518749Q261.15625 15.878124 261.51562 16.409374Q261.875 16.925 261.875 17.628124Q261.875 18.315624 261.48438 18.925Q261.09375 19.51875 260.35938 19.8625Q259.625 20.190624 258.70312 20.190624Q257.53125 20.190624 256.73438 19.8625Q255.95312 19.51875 255.5 18.83125Q255.0625 18.14375 255.04688 17.284374ZM263.42188 20.05L263.42188 11.456249L266.67188 11.456249Q267.51562 11.456249 267.96875 11.534374Q268.60938 11.643749 269.03125 11.940624Q269.46875 12.237499 269.71875 12.768749Q269.98438 13.299999 269.98438 13.940624Q269.98438 15.034374 269.28125 15.799999Q268.59375 16.55 266.76562 16.55L264.5625 16.55L264.5625 20.05L263.42188 20.05ZM264.5625 15.549999L266.78125 15.549999Q267.89062 15.549999 268.34375 15.143749Q268.8125 14.721874 268.8125 13.971874Q268.8125 13.440624 268.53125 13.065624Q268.26562 12.674999 267.82812 12.549999Q267.53125 12.471874 266.76562 12.471874L264.5625 12.471874L264.5625 15.549999Z" fill-rule="nonzero"/></svg>