<svg class="main-svg" xmlns="http://www.w3.org/2000/svg" xmlns:xlink="http://www.w3.org/1999/xlink" width="800" height="600" style="" viewBox="0 0 800 600"><rect x="0" y="0" width="800" height="600" style="fill: rgb(255, 255, 255); fill-opacity: 1;"/><defs id="defs-03997a"><g class="clips"><clipPath id="clip03997axyplot" class="plotclip"><rect width="102.6375" height="178.50000000000003"/></clipPath><clipPath id="clip03997ax2y2plot" class="plotclip"><rect width="102.63749999999999" height="178.50000000000003"/></clipPath><clipPath id="clip03997ax3y3plot" class="plotclip"><rect width="102.63750000000002" height="178.50000000000003"/></clipPath><clipPath id="clip03997ax4y4plot" class="plotclip"><rect width="102.63750000000002" height="178.50000000000003"/></clipPath><clipPath id="clip03997ax5y5plot" class="plotclip"><rect width="102.6375" height="178.5"/></clipPath><clipPath class="axesclip" id="clip03997ax"><rect x="80" y="0" width="102.6375" height="600"/></clipPath><clipPath class="axesclip" id="clip03997ay"><rect x="0" y="100" width="800" height="178.50000000000003"/></clipPath><clipPath class="axesclip" id="clip03997axy"><rect x="80" y="100" width="102.6375" height="178.50000000000003"/></clipPath><clipPath class="axesclip" id="clip03997ay2"><rect x="0" y="100" width="800" height="178.50000000000003"/></clipPath><clipPath class="axesclip" id="clip03997axy2"><rect x="80" y="100" width="102.6375" height="178.50000000000003"/></clipPath><clipPath class="axesclip" id="clip03997ay3"><rect x="0" y="100" width="800" height="178.50000000000003"/></clipPath><clipPath class="axesclip" id="clip03997axy3"><rect x="80" y="100" width="102.6375" height="178.50000000000003"/></clipPath><clipPath class="axesclip" id="clip03997ay4"><rect x="0" y="100" width="800" height="178.50000000000003"/></clipPath><clipPath class="axesclip" id="clip03997axy4"><rect x="80" y="100" width="102.6375" height="178.50000000000003"/></clipPath><clipPath class="axesclip" id="clip03997ay5"><rect x="0" y="341.5" width="800" height="178.5"/></clipPath><clipPath class="axesclip" id="clip03997axy5"><rect x="80" y="341.5" width="102.6375" height="178.5"/></clipPath><clipPath class="axesclip" id="clip03997ax2"><rect x="206.78750000000002" y="0" width="102.63749999999999" height="600"/></clipPath><clipPath class="axesclip" id="clip03997ax2y"><rect x="206.78750000000002" y="100" width="102.63749999999999" height="178.50000000000003"/></clipPath><clipPath class="axesclip" id="clip03997ax2y2"><rect x="206.78750000000002" y="100" width="102.63749999999999" height="178.50000000000003"/></clipPath><clipPath class="axesclip" id="clip03997ax2y3"><rect x="206.78750000000002" y="100" width="102.63749999999999" height="178.50000000000003"/></clipPath><clipPath class="axesclip" id="clip03997ax2y4"><rect x="206.78750000000002" y="100" width="102.63749999999999" height="178.50000000000003"/></clipPath><clipPath class="axesclip" id="clip03997ax2y5"><rect x="206.78750000000002" y="341.5" width="102.63749999999999" height="178.5"/></clipPath><clipPath class="axesclip" id="clip03997ax3"><rect x="333.57500000000005" y="0" width="102.63750000000002" height="600"/></clipPath><clipPath class="axesclip" id="clip03997ax3y"><rect x="333.57500000000005" y="100" width="102.63750000000002" height="178.50000000000003"/></clipPath><clipPath class="axesclip" id="clip03997ax3y2"><rect x="333.57500000000005" y="100" width="102.63750000000002" height="178.50000000000003"/></clipPath><clipPath class="axesclip" id="clip03997ax3y3"><rect x="333.57500000000005" y="100" width="102.63750000000002" height="178.50000000000003"/></clipPath><clipPath class="axesclip" id="clip03997ax3y4"><rect x="333.57500000000005" y="100" width="102.63750000000002" height="178.50000000000003"/></clipPath><clipPath class="axesclip" id="clip03997ax3y5"><rect x="333.57500000000005" y="341.5" width="102.63750000000002" height="178.5"/></clipPath><clipPath class="axesclip" id="clip03997ax4"><rect x="460.3625" y="0" width="102.63750000000002" height="600"/></clipPath><clipPath class="axesclip" id="clip03997ax4y"><rect x="460.3625" y="100" width="102.63750000000002" height="178.50000000000003"/></clipPath><clipPath class="axesclip" id="clip03997ax4y2"><rect x="460.3625" y="100" width="102.63750000000002" height="178.50000000000003"/></clipPath><clipPath class="axesclip" id="clip03997ax4y3"><rect x="460.3625" y="100" width="102.63750000000002" height="178.50000000000003"/></clipPath><clipPath class="axesclip" id="clip03997ax4y4"><rect x="460.3625" y="100" width="102.63750000000002" height="178.50000000000003"/></clipPath><clipPath class="axesclip" id="clip03997ax4y5"><rect x="460.3625" y="341.5" width="102.63750000000002" height="178.5"/></clipPath><clipPath class="axesclip" id="clip03997ax5"><rect x="80" y="0" width="102.6375" height="600"/></clipPath><clipPath class="axesclip" id="clip03997ax5y"><rect x="80" y="100" width="102.6375" height="178.50000000000003"/></clipPath><clipPath class="axesclip" id="clip03997ax5y2"><rect x="80" y="100" width="102.6375" height="178.50000000000003"/></clipPath><clipPath class="axesclip" id="clip03997ax5y3"><rect x="80" y="100" width="102.6375" height="178.50000000000003"/></clipPath><clipPath class="axesclip" id="clip03997ax5y4"><rect x="80" y="100" width="102.6375" height="178.50000000000003"/></clipPath><clipPath class="axesclip" id="clip03997ax5y5"><rect x="80" y="341.5" width="102.6375" height="178.5"/></clipPath></g><g class="gradients"/><g class="patterns"/></defs><g class="bglayer"><rect class="bg" x="80" y="100" width="102.6375" height="178.50000000000003" style="fill: rgb(229, 236, 246); fill-opacity: 1; stroke-width: 0;"/><rect class="bg" x="206.78750000000002" y="100" width="102.63749999999999" height="178.50000000000003" style="fill: rgb(229, 236, 246); fill-opacity: 1; stroke-width: 0;"/><rect class="bg" x="333.57500000000005" y="100" width="102.63750000000002" height="178.50000000000003" style="fill: rgb(229, 236, 246); fill-opacity: 1; stroke-width: 0;"/><rect class="bg" x="460.3625" y="100" width="102.63750000000002" height="178.50000000000003" style="fill: rgb(229, 236, 246); fill-opacity: 1; stroke-width: 0;"/><rect class="bg" x="80" y="341.5" width="102.6375" height="178.5" style="fill: rgb(229, 236, 246); fill-opacity: 1; stroke-width: 0;"/></g><g class="layer-below"><g class="imagelayer"/><g class="shapelayer"/></g><g class="cartesianlayer"><g class="subplot xy"><g class="layer-subplot"><g class="shapelayer"/><g class="imagelayer"/></g><g class="gridlayer"><g class="x"><path class="xgrid crisp" transform="translate(120.41,0)" d="M0,100v178.50000000000003" style="stroke: rgb(255, 255, 255); stroke-opacity: 1; stroke-width: 1px;"/><path class="xgrid crisp" transform="translate(160.82,0)" d="M0,100v178.50000000000003" style="stroke: rgb(255, 255, 255); stroke-opacity: 1; stroke-width: 1px;"/></g><g class="y"><path class="ygrid crisp" transform="translate(0,229.55)" d="M80,0h102.6375" style="stroke: rgb(255, 255, 255); stroke-opacity: 1; stroke-width: 1px;"/><path class="ygrid crisp" transform="translate(0,180.61)" d="M80,0h102.6375" style="stroke: rgb(255, 255, 255); stroke-opacity: 1; stroke-width: 1px;"/><path class="ygrid crisp" transform="translate(0,131.66)" d="M80,0h102.6375" style="stroke: rgb(255, 255, 255); stroke-opacity: 1; stroke-width: 1px;"/></g></g><g class="zerolinelayer"><path class="xzl zl crisp" transform="translate(80,0)" d="M0,100v178.50000000000003" style="stroke: rgb(255, 255, 255); stroke-opacity: 1; stroke-width: 2px;"/><path class="yzl zl crisp" transform="translate(0,278.5)" d="M80,0h102.6375" style="stroke: rgb(255, 255, 255); stroke-opacity: 1; stroke-width: 2px;"/></g><path class="xlines-below"/><path class="ylines-below"/><g class="overlines-below"/><g class="xaxislayer-below"/><g class="yaxislayer-below"/><g class="overaxes-below"/><g class="plot" transform="translate(80,100)" clip-path="url(#clip03997axyplot)"><g class="scatterlayer mlayer"><g class="trace scatter trace602b84" style="stroke-miterlimit: 2;"><g class="fills"><g><path class="js-fill" d="M102.64,178.5L0,178.5L0,8.93L0.81,168.1L1.21,169.18L2.42,170.91L2.82,170.83L4.43,171.26L4.83,171.67L6.84,172.05L7.25,171.97L10.06,172.14L10.47,172.21L14.89,172.91L15.3,172.86L19.32,171.26L19.72,171.06L25.36,168.8L25.76,168.76L34.62,166.06L35.02,165.91L58.77,155.74L59.17,155.43L72.05,149.64L72.45,149.71L75.27,151.42L75.67,151.79L78.49,156.52L78.89,157.51L84.12,168.41L84.53,168.9L91.37,175.7L91.77,176.02L95.8,177.94L96.2,178.04L100.63,178.45L101.03,178.45L102.64,178.26" style="fill: rgb(99, 110, 250); fill-opacity: 0.5; stroke-width: 0;"/></g></g><g class="errorbars"/><g class="lines"><path class="js-line" d="M0,8.93L0.81,168.1L1.21,169.18L2.42,170.91L2.82,170.83L4.43,171.26L4.83,171.67L6.84,172.05L7.25,171.97L10.06,172.14L10.47,172.21L14.89,172.91L15.3,172.86L19.32,171.26L19.72,171.06L25.36,168.8L25.76,168.76L34.62,166.06L35.02,165.91L58.77,155.74L59.17,155.43L72.05,149.64L72.45,149.71L75.27,151.42L75.67,151.79L78.49,156.52L78.89,157.51L84.12,168.41L84.53,168.9L91.37,175.7L91.77,176.02L95.8,177.94L96.2,178.04L100.63,178.45L101.03,178.45L102.64,178.26" style="vector-effect: non-scaling-stroke; fill: none; stroke: rgb(99, 110, 250); stroke-opacity: 1; stroke-width: 2px; opacity: 1;"/></g><g class="points"/><g class="text"/></g></g></g><g class="overplot"/><path class="xlines-above crisp" d="M0,0" style="fill: none;"/><path class="ylines-above crisp" d="M0,0" style="fill: none;"/><g class="overlines-above"/><g class="xaxislayer-above"><g class="xtick"><text text-anchor="middle" x="0" y="291.5" transform="translate(80,0)" style="font-family: 'Open Sans', verdana, arial, sans-serif; font-size: 12px; fill: rgb(42, 63, 95); fill-opacity: 1; white-space: pre; opacity: 1;">0</text></g><g class="xtick"><text text-anchor="middle" x="0" y="291.5" style="font-family: 'Open Sans', verdana, arial, sans-serif; font-size: 12px; fill: rgb(42, 63, 95); fill-opacity: 1; white-space: pre; opacity: 1;" transform="translate(120.41,0)">100</text></g><g class="xtick"><text text-anchor="middle" x="0" y="291.5" style="font-family: 'Open Sans', verdana, arial, sans-serif; font-size: 12px; fill: rgb(42, 63, 95); fill-opacity: 1; white-space: pre; opacity: 1;" transform="translate(160.82,0)">200</text></g></g><g class="yaxislayer-above"><g class="ytick"><text text-anchor="end" x="79" y="4.199999999999999" transform="translate(0,278.5)" style="font-family: 'Open Sans', verdana, arial, sans-serif; font-size: 12px; fill: rgb(42, 63, 95); fill-opacity: 1; white-space: pre; opacity: 1;">0</text></g><g class="ytick"><text text-anchor="end" x="79" y="4.199999999999999" style="font-family: 'Open Sans', verdana, arial, sans-serif; font-size: 12px; fill: rgb(42, 63, 95); fill-opacity: 1; white-space: pre; opacity: 1;" transform="translate(0,229.55)">2M</text></g><g class="ytick"><text text-anchor="end" x="79" y="4.199999999999999" style="font-family: 'Open Sans', verdana, arial, sans-serif; font-size: 12px; fill: rgb(42, 63, 95); fill-opacity: 1; white-space: pre; opacity: 1;" transform="translate(0,180.61)">4M</text></g><g class="ytick"><text text-anchor="end" x="79" y="4.199999999999999" style="font-family: 'Open Sans', verdana, arial, sans-serif; font-size: 12px; fill: rgb(42, 63, 95); fill-opacity: 1; white-space: pre; opacity: 1;" transform="translate(0,131.66)">6M</text></g></g><g class="overaxes-above"/></g><g class="subplot x2y2"><g class="layer-subplot"><g class="shapelayer"/><g class="imagelayer"/></g><g class="gridlayer"><g class="x2"><path class="x2grid crisp" transform="translate(247.19750000000002,0)" d="M0,100v178.50000000000003" style="stroke: rgb(255, 255, 255); stroke-opacity: 1; stroke-width: 1px;"/><path class="x2grid crisp" transform="translate(287.6075,0)" d="M0,100v178.50000000000003" style="stroke: rgb(255, 255, 255); stroke-opacity: 1; stroke-width: 1px;"/></g><g class="y2"><path class="y2grid crisp" transform="translate(0,242.85)" d="M206.78750000000002,0h102.63749999999999" style="stroke: rgb(255, 255, 255); stroke-opacity: 1; stroke-width: 1px;"/><path class="y2grid crisp" transform="translate(0,207.19)" d="M206.78750000000002,0h102.63749999999999" style="stroke: rgb(255, 255, 255); stroke-opacity: 1; stroke-width: 1px;"/><path class="y2grid crisp" transform="translate(0,171.54000000000002)" d="M206.78750000000002,0h102.63749999999999" style="stroke: rgb(255, 255, 255); stroke-opacity: 1; stroke-width: 1px;"/><path class="y2grid crisp" transform="translate(0,135.89)" d="M206.78750000000002,0h102.63749999999999" style="stroke: rgb(255, 255, 255); stroke-opacity: 1; stroke-width: 1px;"/></g></g><g class="zerolinelayer"><path class="x2zl zl crisp" transform="translate(206.78750000000002,0)" d="M0,100v178.50000000000003" style="stroke: rgb(255, 255, 255); stroke-opacity: 1; stroke-width: 2px;"/><path class="y2zl zl crisp" transform="translate(0,278.5)" d="M206.78750000000002,0h102.63749999999999" style="stroke: rgb(255, 255, 255); stroke-opacity: 1; stroke-width: 2px;"/></g><path class="xlines-below"/><path class="ylines-below"/><g class="overlines-below"/><g class="xaxislayer-below"/><g class="yaxislayer-below"/><g class="overaxes-below"/><g class="plot" transform="translate(206.78750000000002,100)" clip-path="url(#clip03997ax2y2plot)"><g class="scatterlayer mlayer"><g class="trace scatter trace646942" style="stroke-miterlimit: 2;"><g class="fills"><g><path class="js-fill" d="M102.64,178.5L0,178.5L0,8.93L0.8,162.11L1.21,164.79L3.62,170.94L4.02,171.23L6.04,172.89L6.44,173.05L8.85,172.95L9.26,172.92L11.27,172.6L11.67,172.58L13.68,171.41L14.09,171.85L18.11,169.87L18.51,169.48L20.93,167.82L21.33,167.47L26.16,164.05L26.56,163.73L35.02,157.67L35.42,157.37L40.65,153.53L41.05,152.48L41.86,152.62L42.26,152.24L46.69,148.58L47.09,148.39L52.73,145.5L53.13,145.26L59.17,142.94L59.57,142.87L70.44,141.21L70.84,141.37L75.67,143.98L76.07,144.33L77.68,145.27L78.08,145.42L80.1,146.31L80.5,146.82L81.3,147.52L81.71,147.9L84.12,151.14L84.53,151.83L89.76,162.13L90.16,162.47L95.79,167.48L96.2,167.58L97.81,167.52L98.21,167.51L100.22,167.61L100.62,167.03L101.43,165.72L101.83,166.39L102.23,167.78L102.64,159.73" style="fill: rgb(239, 85, 59); fill-opacity: 0.5; stroke-width: 0;"/></g></g><g class="errorbars"/><g class="lines"><path class="js-line" d="M0,8.93L0.8,162.11L1.21,164.79L3.62,170.94L4.02,171.23L6.04,172.89L6.44,173.05L8.85,172.95L9.26,172.92L11.27,172.6L11.67,172.58L13.68,171.41L14.09,171.85L18.11,169.87L18.51,169.48L20.93,167.82L21.33,167.47L26.16,164.05L26.56,163.73L35.02,157.67L35.42,157.37L40.65,153.53L41.05,152.48L41.86,152.62L42.26,152.24L46.69,148.58L47.09,148.39L52.73,145.5L53.13,145.26L59.17,142.94L59.57,142.87L70.44,141.21L70.84,141.37L75.67,143.98L76.07,144.33L77.68,145.27L78.08,145.42L80.1,146.31L80.5,146.82L81.3,147.52L81.71,147.9L84.12,151.14L84.53,151.83L89.76,162.13L90.16,162.47L95.79,167.48L96.2,167.58L97.81,167.52L98.21,167.51L100.22,167.61L100.62,167.03L101.43,165.72L101.83,166.39L102.23,167.78L102.64,159.73" style="vector-effect: non-scaling-stroke; fill: none; stroke: rgb(239, 85, 59); stroke-opacity: 1; stroke-width: 2px; opacity: 1;"/></g><g class="points"/><g class="text"/></g></g></g><g class="overplot"/><path class="xlines-above crisp" d="M0,0" style="fill: none;"/><path class="ylines-above crisp" d="M0,0" style="fill: none;"/><g class="overlines-above"/><g class="xaxislayer-above"><g class="x2tick"><text text-anchor="middle" x="0" y="291.5" transform="translate(206.78750000000002,0)" style="font-family: 'Open Sans', verdana, arial, sans-serif; font-size: 12px; fill: rgb(42, 63, 95); fill-opacity: 1; white-space: pre; opacity: 1;">0</text></g><g class="x2tick"><text text-anchor="middle" x="0" y="291.5" style="font-family: 'Open Sans', verdana, arial, sans-serif; font-size: 12px; fill: rgb(42, 63, 95); fill-opacity: 1; white-space: pre; opacity: 1;" transform="translate(247.19750000000002,0)">100</text></g><g class="x2tick"><text text-anchor="middle" x="0" y="291.5" style="font-family: 'Open Sans', verdana, arial, sans-serif; font-size: 12px; fill: rgb(42, 63, 95); fill-opacity: 1; white-space: pre; opacity: 1;" transform="translate(287.6075,0)">200</text></g></g><g class="yaxislayer-above"><g class="y2tick"><text text-anchor="end" x="205.78750000000002" y="4.199999999999999" transform="translate(0,278.5)" style="font-family: 'Open Sans', verdana, arial, sans-serif; font-size: 12px; fill: rgb(42, 63, 95); fill-opacity: 1; white-space: pre; opacity: 1;">0</text></g><g class="y2tick"><text text-anchor="end" x="205.78750000000002" y="4.199999999999999" style="font-family: 'Open Sans', verdana, arial, sans-serif; font-size: 12px; fill: rgb(42, 63, 95); fill-opacity: 1; white-space: pre; opacity: 1;" transform="translate(0,242.85)">2M</text></g><g class="y2tick"><text text-anchor="end" x="205.78750000000002" y="4.199999999999999" style="font-family: 'Open Sans', verdana, arial, sans-serif; font-size: 12px; fill: rgb(42, 63, 95); fill-opacity: 1; white-space: pre; opacity: 1;" transform="translate(0,207.19)">4M</text></g><g class="y2tick"><text text-anchor="end" x="205.78750000000002" y="4.199999999999999" style="font-family: 'Open Sans', verdana, arial, sans-serif; font-size: 12px; fill: rgb(42, 63, 95); fill-opacity: 1; white-space: pre; opacity: 1;" transform="translate(0,171.54000000000002)">6M</text></g><g class="y2tick"><text text-anchor="end" x="205.78750000000002" y="4.199999999999999" style="font-family: 'Open Sans', verdana, arial, sans-serif; font-size: 12px; fill: rgb(42, 63, 95); fill-opacity: 1; white-space: pre; opacity: 1;" transform="translate(0,135.89)">8M</text></g><g class="y2tick"><text text-anchor="end" x="205.78750000000002" y="4.199999999999999" style="font-family: 'Open Sans', verdana, arial, sans-serif; font-size: 12px; fill: rgb(42, 63, 95); fill-opacity: 1; white-space: pre; opacity: 1;" transform="translate(0,100.23)">10M</text></g></g><g class="overaxes-above"/></g><g class="subplot x3y3"><g class="layer-subplot"><g class="shapelayer"/><g class="imagelayer"/></g><g class="gridlayer"><g class="x3"><path class="x3grid crisp" transform="translate(373.985,0)" d="M0,100v178.50000000000003" style="stroke: rgb(255, 255, 255); stroke-opacity: 1; stroke-width: 1px;"/><path class="x3grid crisp" transform="translate(414.39500000000004,0)" d="M0,100v178.50000000000003" style="stroke: rgb(255, 255, 255); stroke-opacity: 1; stroke-width: 1px;"/></g><g class="y3"><path class="y3grid crisp" transform="translate(0,210.29000000000002)" d="M333.57500000000005,0h102.63750000000002" style="stroke: rgb(255, 255, 255); stroke-opacity: 1; stroke-width: 1px;"/><path class="y3grid crisp" transform="translate(0,142.07999999999998)" d="M333.57500000000005,0h102.63750000000002" style="stroke: rgb(255, 255, 255); stroke-opacity: 1; stroke-width: 1px;"/></g></g><g class="zerolinelayer"><path class="x3zl zl crisp" transform="translate(333.57500000000005,0)" d="M0,100v178.50000000000003" style="stroke: rgb(255, 255, 255); stroke-opacity: 1; stroke-width: 2px;"/><path class="y3zl zl crisp" transform="translate(0,278.5)" d="M333.57500000000005,0h102.63750000000002" style="stroke: rgb(255, 255, 255); stroke-opacity: 1; stroke-width: 2px;"/></g><path class="xlines-below"/><path class="ylines-below"/><g class="overlines-below"/><g class="xaxislayer-below"/><g class="yaxislayer-below"/><g class="overaxes-below"/><g class="plot" transform="translate(333.57500000000005,100)" clip-path="url(#clip03997ax3y3plot)"><g class="scatterlayer mlayer"><g class="trace scatter trace63f7aa" style="stroke-miterlimit: 2;"><g class="fills"><g><path class="js-fill" d="M102.64,178.5L0,178.5L0,8.93L0.81,131.99L1.21,133.58L3.62,153.91L4.03,156.28L5.64,161.18L6.04,162.22L8.86,166.68L9.26,167.09L11.67,167.38L12.08,167.35L17.71,165.04L18.11,164.78L26.97,157.44L27.37,156.99L41.46,139.82L41.86,139.43L47.9,135.84L48.3,135.73L51.12,135.32L51.52,135.21L55.14,134.66L55.55,134.69L70.84,137.16L71.24,137.48L80.1,145.65L80.5,146.07L86.54,153.74L86.94,154.37L91.37,160.87L91.77,161.65L96.2,170.53L96.6,171.78L99.02,176.42L99.42,176.77L101.83,177.98L102.24,178.25L102.64,178.16" style="fill: rgb(0, 204, 150); fill-opacity: 0.5; stroke-width: 0;"/></g></g><g class="errorbars"/><g class="lines"><path class="js-line" d="M0,8.93L0.81,131.99L1.21,133.58L3.62,153.91L4.03,156.28L5.64,161.18L6.04,162.22L8.86,166.68L9.26,167.09L11.67,167.38L12.08,167.35L17.71,165.04L18.11,164.78L26.97,157.44L27.37,156.99L41.46,139.82L41.86,139.43L47.9,135.84L48.3,135.73L51.12,135.32L51.52,135.21L55.14,134.66L55.55,134.69L70.84,137.16L71.24,137.48L80.1,145.65L80.5,146.07L86.54,153.74L86.94,154.37L91.37,160.87L91.77,161.65L96.2,170.53L96.6,171.78L99.02,176.42L99.42,176.77L101.83,177.98L102.24,178.25L102.64,178.16" style="vector-effect: non-scaling-stroke; fill: none; stroke: rgb(0, 204, 150); stroke-opacity: 1; stroke-width: 2px; opacity: 1;"/></g><g class="points"/><g class="text"/></g></g></g><g class="overplot"/><path class="xlines-above crisp" d="M0,0" style="fill: none;"/><path class="ylines-above crisp" d="M0,0" style="fill: none;"/><g class="overlines-above"/><g class="xaxislayer-above"><g class="x3tick"><text text-anchor="middle" x="0" y="291.5" transform="translate(333.57500000000005,0)" style="font-family: 'Open Sans', verdana, arial, sans-serif; font-size: 12px; fill: rgb(42, 63, 95); fill-opacity: 1; white-space: pre; opacity: 1;">0</text></g><g class="x3tick"><text text-anchor="middle" x="0" y="291.5" style="font-family: 'Open Sans', verdana, arial, sans-serif; font-size: 12px; fill: rgb(42, 63, 95); fill-opacity: 1; white-space: pre; opacity: 1;" transform="translate(373.985,0)">100</text></g><g class="x3tick"><text text-anchor="middle" x="0" y="291.5" style="font-family: 'Open Sans', verdana, arial, sans-serif; font-size: 12px; fill: rgb(42, 63, 95); fill-opacity: 1; white-space: pre; opacity: 1;" transform="translate(414.39500000000004,0)">200</text></g></g><g class="yaxislayer-above"><g class="y3tick"><text text-anchor="end" x="332.57500000000005" y="4.199999999999999" transform="translate(0,278.5)" style="font-family: 'Open Sans', verdana, arial, sans-serif; font-size: 12px; fill: rgb(42, 63, 95); fill-opacity: 1; white-space: pre; opacity: 1;">0</text></g><g class="y3tick"><text text-anchor="end" x="332.57500000000005" y="4.199999999999999" style="font-family: 'Open Sans', verdana, arial, sans-serif; font-size: 12px; fill: rgb(42, 63, 95); fill-opacity: 1; white-space: pre; opacity: 1;" transform="translate(0,210.29000000000002)">5M</text></g><g class="y3tick"><text text-anchor="end" x="332.57500000000005" y="4.199999999999999" style="font-family: 'Open Sans', verdana, arial, sans-serif; font-size: 12px; fill: rgb(42, 63, 95); fill-opacity: 1; white-space: pre; opacity: 1;" transform="translate(0,142.07999999999998)">10M</text></g></g><g class="overaxes-above"/></g><g class="subplot x4y4"><g class="layer-subplot"><g class="shapelayer"/><g class="imagelayer"/></g><g class="gridlayer"><g class="x4"><path class="x4grid crisp" transform="translate(500.77250000000004,0)" d="M0,100v178.50000000000003" style="stroke: rgb(255, 255, 255); stroke-opacity: 1; stroke-width: 1px;"/><path class="x4grid crisp" transform="translate(541.1825,0)" d="M0,100v178.50000000000003" style="stroke: rgb(255, 255, 255); stroke-opacity: 1; stroke-width: 1px;"/></g><g class="y4"><path class="y4grid crisp" transform="translate(0,223.56)" d="M460.3625,0h102.63750000000002" style="stroke: rgb(255, 255, 255); stroke-opacity: 1; stroke-width: 1px;"/><path class="y4grid crisp" transform="translate(0,168.63)" d="M460.3625,0h102.63750000000002" style="stroke: rgb(255, 255, 255); stroke-opacity: 1; stroke-width: 1px;"/><path class="y4grid crisp" transform="translate(0,113.69)" d="M460.3625,0h102.63750000000002" style="stroke: rgb(255, 255, 255); stroke-opacity: 1; stroke-width: 1px;"/></g></g><g class="zerolinelayer"><path class="x4zl zl crisp" transform="translate(460.3625,0)" d="M0,100v178.50000000000003" style="stroke: rgb(255, 255, 255); stroke-opacity: 1; stroke-width: 2px;"/><path class="y4zl zl crisp" transform="translate(0,278.5)" d="M460.3625,0h102.63750000000002" style="stroke: rgb(255, 255, 255); stroke-opacity: 1; stroke-width: 2px;"/></g><path class="xlines-below"/><path class="ylines-below"/><g class="overlines-below"/><g class="xaxislayer-below"/><g class="yaxislayer-below"/><g class="overaxes-below"/><g class="plot" transform="translate(460.3625,100)" clip-path="url(#clip03997ax4y4plot)"><g class="scatterlayer mlayer"><g class="trace scatter traceeea029" style="stroke-miterlimit: 2;"><g class="fills"><g><path class="js-fill" d="M102.64,178.5L0,178.5L0,8.92L0.81,159.63L1.21,160.14L3.62,165.95L4.03,166.65L6.04,168.18L6.44,168.09L8.45,170.04L8.86,170.11L10.06,170.72L10.47,170.64L13.28,169.28L13.69,169.07L24.15,162.57L24.55,162.41L39.85,157.36L40.25,157.26L45.48,155.63L45.89,155.48L59.57,151.1L59.97,151.21L64,151.81L64.4,151.86L75.67,152.55L76.07,152.59L83.32,155.07L83.72,155.31L90.56,159.39L90.97,159.78L94.19,164.03L94.59,164.75L100.63,177.64L101.03,177.92L102.64,177.95" style="fill: rgb(171, 99, 250); fill-opacity: 0.5; stroke-width: 0;"/></g></g><g class="errorbars"/><g class="lines"><path class="js-line" d="M0,8.92L0.81,159.63L1.21,160.14L3.62,165.95L4.03,166.65L6.04,168.18L6.44,168.09L8.45,170.04L8.86,170.11L10.06,170.72L10.47,170.64L13.28,169.28L13.69,169.07L24.15,162.57L24.55,162.41L39.85,157.36L40.25,157.26L45.48,155.63L45.89,155.48L59.57,151.1L59.97,151.21L64,151.81L64.4,151.86L75.67,152.55L76.07,152.59L83.32,155.07L83.72,155.31L90.56,159.39L90.97,159.78L94.19,164.03L94.59,164.75L100.63,177.64L101.03,177.92L102.64,177.95" style="vector-effect: non-scaling-stroke; fill: none; stroke: rgb(171, 99, 250); stroke-opacity: 1; stroke-width: 2px; opacity: 1;"/></g><g class="points"/><g class="text"/></g></g></g><g class="overplot"/><path class="xlines-above crisp" d="M0,0" style="fill: none;"/><path class="ylines-above crisp" d="M0,0" style="fill: none;"/><g class="overlines-above"/><g class="xaxislayer-above"><g class="x4tick"><text text-anchor="middle" x="0" y="291.5" transform="translate(460.3625,0)" style="font-family: 'Open Sans', verdana, arial, sans-serif; font-size: 12px; fill: rgb(42, 63, 95); fill-opacity: 1; white-space: pre; opacity: 1;">0</text></g><g class="x4tick"><text text-anchor="middle" x="0" y="291.5" style="font-family: 'Open Sans', verdana, arial, sans-serif; font-size: 12px; fill: rgb(42, 63, 95); fill-opacity: 1; white-space: pre; opacity: 1;" transform="translate(500.77250000000004,0)">100</text></g><g class="x4tick"><text text-anchor="middle" x="0" y="291.5" style="font-family: 'Open Sans', verdana, arial, sans-serif; font-size: 12px; fill: rgb(42, 63, 95); fill-opacity: 1; white-space: pre; opacity: 1;" transform="translate(541.1825,0)">200</text></g></g><g class="yaxislayer-above"><g class="y4tick"><text text-anchor="end" x="459.3625" y="4.199999999999999" transform="translate(0,278.5)" style="font-family: 'Open Sans', verdana, arial, sans-serif; font-size: 12px; fill: rgb(42, 63, 95); fill-opacity: 1; white-space: pre; opacity: 1;">0</text></g><g class="y4tick"><text text-anchor="end" x="459.3625" y="4.199999999999999" style="font-family: 'Open Sans', verdana, arial, sans-serif; font-size: 12px; fill: rgb(42, 63, 95); fill-opacity: 1; white-space: pre; opacity: 1;" transform="translate(0,223.56)">10M</text></g><g class="y4tick"><text text-anchor="end" x="459.3625" y="4.199999999999999" style="font-family: 'Open Sans', verdana, arial, sans-serif; font-size: 12px; fill: rgb(42, 63, 95); fill-opacity: 1; white-space: pre; opacity: 1;" transform="translate(0,168.63)">20M</text></g><g class="y4tick"><text text-anchor="end" x="459.3625" y="4.199999999999999" style="font-family: 'Open Sans', verdana, arial, sans-serif; font-size: 12px; fill: rgb(42, 63, 95); fill-opacity: 1; white-space: pre; opacity: 1;" transform="translate(0,113.69)">30M</text></g></g><g class="overaxes-above"/></g><g class="subplot x5y5"><g class="layer-subplot"><g class="shapelayer"/><g class="imagelayer"/></g><g class="gridlayer"><g class="x5"><path class="x5grid crisp" transform="translate(120.41,0)" d="M0,341.5v178.5" style="stroke: rgb(255, 255, 255); stroke-opacity: 1; stroke-width: 1px;"/><path class="x5grid crisp" transform="translate(160.82,0)" d="M0,341.5v178.5" style="stroke: rgb(255, 255, 255); stroke-opacity: 1; stroke-width: 1px;"/></g><g class="y5"><path class="y5grid crisp" transform="translate(0,463.23)" d="M80,0h102.6375" style="stroke: rgb(255, 255, 255); stroke-opacity: 1; stroke-width: 1px;"/><path class="y5grid crisp" transform="translate(0,406.46)" d="M80,0h102.6375" style="stroke: rgb(255, 255, 255); stroke-opacity: 1; stroke-width: 1px;"/><path class="y5grid crisp" transform="translate(0,349.68)" d="M80,0h102.6375" style="stroke: rgb(255, 255, 255); stroke-opacity: 1; stroke-width: 1px;"/></g></g><g class="zerolinelayer"><path class="x5zl zl crisp" transform="translate(80,0)" d="M0,341.5v178.5" style="stroke: rgb(255, 255, 255); stroke-opacity: 1; stroke-width: 2px;"/><path class="y5zl zl crisp" transform="translate(0,520)" d="M80,0h102.6375" style="stroke: rgb(255, 255, 255); stroke-opacity: 1; stroke-width: 2px;"/></g><path class="xlines-below"/><path class="ylines-below"/><g class="overlines-below"/><g class="xaxislayer-below"/><g class="yaxislayer-below"/><g class="overaxes-below"/><g class="plot" transform="translate(80,341.5)" clip-path="url(#clip03997ax5y5plot)"><g class="scatterlayer mlayer"><g class="trace scatter tracec547aa" style="stroke-miterlimit: 2;"><g class="fills"><g><path class="js-fill" d="M102.64,178.5L0,178.5L0,8.93L0.81,155.26L1.21,156.4L3.62,164.82L4.02,165.73L7.65,169.35L8.05,169.59L10.06,170.51L10.47,170.44L16.1,168.3L16.5,168.06L41.86,153.26L42.26,153.07L50.31,149.45L50.72,149.37L59.17,146.93L59.57,146.94L65.21,146.92L65.61,146.92L72.05,147.27L72.45,147.37L78.49,150.33L78.89,150.6L86.54,157.81L86.94,158.24L94.59,167L94.99,167.69L100.22,175.89L100.63,176.07L102.24,176.64L102.64,175.13" style="fill: rgb(255, 161, 90); fill-opacity: 0.5; stroke-width: 0;"/></g></g><g class="errorbars"/><g class="lines"><path class="js-line" d="M0,8.93L0.81,155.26L1.21,156.4L3.62,164.82L4.02,165.73L7.65,169.35L8.05,169.59L10.06,170.51L10.47,170.44L16.1,168.3L16.5,168.06L41.86,153.26L42.26,153.07L50.31,149.45L50.72,149.37L59.17,146.93L59.57,146.94L65.21,146.92L65.61,146.92L72.05,147.27L72.45,147.37L78.49,150.33L78.89,150.6L86.54,157.81L86.94,158.24L94.59,167L94.99,167.69L100.22,175.89L100.63,176.07L102.24,176.64L102.64,175.13" style="vector-effect: non-scaling-stroke; fill: none; stroke: rgb(255, 161, 90); stroke-opacity: 1; stroke-width: 2px; opacity: 1;"/></g><g class="points"/><g class="text"/></g></g></g><g class="overplot"/><path class="xlines-above crisp" d="M0,0" style="fill: none;"/><path class="ylines-above crisp" d="M0,0" style="fill: none;"/><g class="overlines-above"/><g class="xaxislayer-above"><g class="x5tick"><text text-anchor="middle" x="0" y="533" transform="translate(80,0)" style="font-family: 'Open Sans', verdana, arial, sans-serif; font-size: 12px; fill: rgb(42, 63, 95); fill-opacity: 1; white-space: pre; opacity: 1;">0</text></g><g class="x5tick"><text text-anchor="middle" x="0" y="533" style="font-family: 'Open Sans', verdana, arial, sans-serif; font-size: 12px; fill: rgb(42, 63, 95); fill-opacity: 1; white-space: pre; opacity: 1;" transform="translate(120.41,0)">100</text></g><g class="x5tick"><text text-anchor="middle" x="0" y="533" style="font-family: 'Open Sans', verdana, arial, sans-serif; font-size: 12px; fill: rgb(42, 63, 95); fill-opacity: 1; white-space: pre; opacity: 1;" transform="translate(160.82,0)">200</text></g></g><g class="yaxislayer-above"><g class="y5tick"><text text-anchor="end" x="79" y="4.199999999999999" transform="translate(0,520)" style="font-family: 'Open Sans', verdana, arial, sans-serif; font-size: 12px; fill: rgb(42, 63, 95); fill-opacity: 1; white-space: pre; opacity: 1;">0</text></g><g class="y5tick"><text text-anchor="end" x="79" y="4.199999999999999" style="font-family: 'Open Sans', verdana, arial, sans-serif; font-size: 12px; fill: rgb(42, 63, 95); fill-opacity: 1; white-space: pre; opacity: 1;" transform="translate(0,463.23)">20M</text></g><g class="y5tick"><text text-anchor="end" x="79" y="4.199999999999999" style="font-family: 'Open Sans', verdana, arial, sans-serif; font-size: 12px; fill: rgb(42, 63, 95); fill-opacity: 1; white-space: pre; opacity: 1;" transform="translate(0,406.46)">40M</text></g><g class="y5tick"><text text-anchor="end" x="79" y="4.199999999999999" style="font-family: 'Open Sans', verdana, arial, sans-serif; font-size: 12px; fill: rgb(42, 63, 95); fill-opacity: 1; white-space: pre; opacity: 1;" transform="translate(0,349.68)">60M</text></g></g><g class="overaxes-above"/></g></g><g class="polarlayer"/><g class="smithlayer"/><g class="ternarylayer"/><g class="geolayer"/><g class="funnelarealayer"/><g class="pielayer"/><g class="iciclelayer"/><g class="treemaplayer"/><g class="sunburstlayer"/><g class="glimages"/><defs id="topdefs-03997a"><g class="clips"/><clipPath id="legend03997a"><rect width="215" height="105" x="0" y="0"/></clipPath></defs><g class="layer-above"><g class="imagelayer"/><g class="shapelayer"/></g><g class="infolayer"><g class="legend" pointer-events="all" transform="translate(572.6600000000001,100)"><rect class="bg" shape-rendering="crispEdges" style="stroke: rgb(68, 68, 68); stroke-opacity: 1; fill: rgb(255, 255, 255); fill-opacity: 1; stroke-width: 0px;" width="215" height="105" x="0" y="0"/><g class="scrollbox" transform="" clip-path="url(#legend03997a)"><g class="groups"><g class="traces" transform="translate(0,14.5)" style="opacity: 1;"><text class="legendtext" text-anchor="start" x="40" y="4.680000000000001" style="font-family: 'Open Sans', verdana, arial, sans-serif; font-size: 12px; fill: rgb(42, 63, 95); fill-opacity: 1; white-space: pre;">site-4 (1345 of 1345 images)</text><g class="layers"><g class="legendfill"><path class="js-fill" d="M5,-2h30v6h-30z" style="stroke-width: 0; fill: rgb(99, 110, 250); fill-opacity: 0.5;"/></g><g class="legendlines"><path class="js-line" d="M5,-2h30" style="fill: none; stroke: rgb(99, 110, 250); stroke-opacity: 1; stroke-width: 2px;"/></g><g class="legendsymbols"><g class="legendpoints"/></g></g><rect class="legendtoggle" x="0" y="-9.5" width="209.671875" height="19" style="fill: rgb(0, 0, 0); fill-opacity: 0;"/></g><g class="traces" transform="translate(0,33.5)" style="opacity: 1;"><text class="legendtext" text-anchor="start" x="40" y="4.680000000000001" style="font-family: 'Open Sans', verdana, arial, sans-serif; font-size: 12px; fill: rgb(42, 63, 95); fill-opacity: 1; white-space: pre;">site-1 (3616 of 3616 images)</text><g class="layers"><g class="legendfill"><path class="js-fill" d="M5,-2h30v6h-30z" style="stroke-width: 0; fill: rgb(239, 85, 59); fill-opacity: 0.5;"/></g><g class="legendlines"><path class="js-line" d="M5,-2h30" style="fill: none; stroke: rgb(239, 85, 59); stroke-opacity: 1; stroke-width: 2px;"/></g><g class="legendsymbols"><g class="legendpoints"/></g></g><rect class="legendtoggle" x="0" y="-9.5" width="209.671875" height="19" style="fill: rgb(0, 0, 0); fill-opacity: 0;"/></g><g class="traces" transform="translate(0,52.5)" style="opacity: 1;"><text class="legendtext" text-anchor="start" x="40" y="4.680000000000001" style="font-family: 'Open Sans', verdana, arial, sans-serif; font-size: 12px; fill: rgb(42, 63, 95); fill-opacity: 1; white-space: pre;">site-2 (6012 of 6012 images)</text><g class="layers"><g class="legendfill"><path class="js-fill" d="M5,-2h30v6h-30z" style="stroke-width: 0; fill: rgb(0, 204, 150); fill-opacity: 0.5;"/></g><g class="legendlines"><path class="js-line" d="M5,-2h30" style="fill: none; stroke: rgb(0, 204, 150); stroke-opacity: 1; stroke-width: 2px;"/></g><g class="legendsymbols"><g class="legendpoints"/></g></g><rect class="legendtoggle" x="0" y="-9.5" width="209.671875" height="19" style="fill: rgb(0, 0, 0); fill-opacity: 0;"/></g><g class="traces" transform="translate(0,71.5)" style="opacity: 1;"><text class="legendtext" text-anchor="start" x="40" y="4.680000000000001" style="font-family: 'Open Sans', verdana, arial, sans-serif; font-size: 12px; fill: rgb(42, 63, 95); fill-opacity: 1; white-space: pre;">site-3 (10192 of 10192 images)</text><g class="layers"><g class="legendfill"><path class="js-fill" d="M5,-2h30v6h-30z" style="stroke-width: 0; fill: rgb(171, 99, 250); fill-opacity: 0.5;"/></g><g class="legendlines"><path class="js-line" d="M5,-2h30" style="fill: none; stroke: rgb(171, 99, 250); stroke-opacity: 1; stroke-width: 2px;"/></g><g class="legendsymbols"><g class="legendpoints"/></g></g><rect class="legendtoggle" x="0" y="-9.5" width="209.671875" height="19" style="fill: rgb(0, 0, 0); fill-opacity: 0;"/></g><g class="traces" transform="translate(0,90.5)" style="opacity: 1;"><text class="legendtext" text-anchor="start" x="40" y="4.680000000000001" style="font-family: 'Open Sans', verdana, arial, sans-serif; font-size: 12px; fill: rgb(42, 63, 95); fill-opacity: 1; white-space: pre;">Global (21165 of 21165 images)</text><g class="layers"><g class="legendfill"><path class="js-fill" d="M5,-2h30v6h-30z" style="stroke-width: 0; fill: rgb(255, 161, 90); fill-opacity: 0.5;"/></g><g class="legendlines"><path class="js-line" d="M5,-2h30" style="fill: none; stroke: rgb(255, 161, 90); stroke-opacity: 1; stroke-width: 2px;"/></g><g class="legendsymbols"><g class="legendpoints"/></g></g><rect class="legendtoggle" x="0" y="-9.5" width="209.671875" height="19" style="fill: rgb(0, 0, 0); fill-opacity: 0;"/></g></g></g><rect class="scrollbar" rx="20" ry="3" width="0" height="0" style="fill: rgb(128, 139, 164); fill-opacity: 1;" x="0" y="0"/></g><g class="g-gtitle"><text class="gtitle" x="40" y="50" text-anchor="start" dy="0em" style="font-family: 'Open Sans', verdana, arial, sans-serif; font-size: 17px; fill: rgb(42, 63, 95); opacity: 1; font-weight: normal; white-space: pre;">Histograms for 4 of 4 clients</text></g><g class="g-xtitle"><text class="xtitle" x="131.31875" y="319.3" text-anchor="middle" style="font-family: 'Open Sans', verdana, arial, sans-serif; font-size: 14px; fill: rgb(42, 63, 95); opacity: 1; font-weight: normal; white-space: pre;">Image Intensity</text></g><g class="g-x2title"/><g class="g-x3title"/><g class="g-x4title"/><g class="g-x5title"/><g class="g-ytitle"><text class="ytitle" transform="rotate(-90,37.528125,189.25)" x="37.528125" y="189.25" text-anchor="middle" style="font-family: 'Open Sans', verdana, arial, sans-serif; font-size: 14px; fill: rgb(42, 63, 95); opacity: 1; font-weight: normal; white-space: pre;">Count</text></g><g class="g-y2title"/><g class="g-y3title"/><g class="g-y4title"/><g class="g-y5title"/></g></svg>