<?xml version="1.0" encoding="utf-8" standalone="no"?>
<!DOCTYPE svg PUBLIC "-//W3C//DTD SVG 1.1//EN"
  "http://www.w3.org/Graphics/SVG/1.1/DTD/svg11.dtd">
<svg xmlns:xlink="http://www.w3.org/1999/xlink" width="864pt" height="576pt" viewBox="0 0 864 576" xmlns="http://www.w3.org/2000/svg" version="1.1">
 <metadata>
  <rdf:RDF xmlns:dc="http://purl.org/dc/elements/1.1/" xmlns:cc="http://creativecommons.org/ns#" xmlns:rdf="http://www.w3.org/1999/02/22-rdf-syntax-ns#">
   <cc:Work>
    <dc:type rdf:resource="http://purl.org/dc/dcmitype/StillImage"/>
    <dc:date>2025-04-25T14:16:37.681541</dc:date>
    <dc:format>image/svg+xml</dc:format>
    <dc:creator>
     <cc:Agent>
      <dc:title>Matplotlib v3.8.2, https://matplotlib.org/</dc:title>
     </cc:Agent>
    </dc:creator>
   </cc:Work>
  </rdf:RDF>
 </metadata>
 <defs>
  <style type="text/css">*{stroke-linejoin: round; stroke-linecap: butt}</style>
 </defs>
 <g id="figure_1">
  <g id="patch_1">
   <path d="M 0 576 
L 864 576 
L 864 0 
L 0 0 
z
" style="fill: #ffffff"/>
  </g>
  <g id="axes_1">
   <g id="patch_2">
    <path d="M 108 512.64 
L 777.6 512.64 
L 777.6 69.12 
L 108 69.12 
z
" style="fill: #ffffff"/>
   </g>
   <g id="PolyCollection_1"/>
   <g id="PolyCollection_2"/>
   <g id="matplotlib.axis_1">
    <g id="xtick_1">
     <g id="line2d_1">
      <path d="M 137.420124 512.64 
L 137.420124 69.12 
" clip-path="url(#pa8966059aa)" style="fill: none; stroke: #b0b0b0; stroke-width: 0.8; stroke-linecap: square"/>
     </g>
     <g id="line2d_2">
      <defs>
       <path id="m07cc53b6a2" d="M 0 0 
L 0 3.5 
" style="stroke: #000000; stroke-width: 0.8"/>
      </defs>
      <g>
       <use xlink:href="#m07cc53b6a2" x="137.420124" y="512.64" style="stroke: #000000; stroke-width: 0.8"/>
      </g>
     </g>
     <g id="text_1">
      <!-- 0 -->
      <g transform="translate(127.876374 542.435313) scale(0.3 -0.3)">
       <defs>
        <path id="DejaVuSans-30" d="M 2034 4250 
Q 1547 4250 1301 3770 
Q 1056 3291 1056 2328 
Q 1056 1369 1301 889 
Q 1547 409 2034 409 
Q 2525 409 2770 889 
Q 3016 1369 3016 2328 
Q 3016 3291 2770 3770 
Q 2525 4250 2034 4250 
z
M 2034 4750 
Q 2819 4750 3233 4129 
Q 3647 3509 3647 2328 
Q 3647 1150 3233 529 
Q 2819 -91 2034 -91 
Q 1250 -91 836 529 
Q 422 1150 422 2328 
Q 422 3509 836 4129 
Q 1250 4750 2034 4750 
z
" transform="scale(0.015625)"/>
       </defs>
       <use xlink:href="#DejaVuSans-30"/>
      </g>
     </g>
    </g>
    <g id="xtick_2">
     <g id="line2d_3">
      <path d="M 226.563913 512.64 
L 226.563913 69.12 
" clip-path="url(#pa8966059aa)" style="fill: none; stroke: #b0b0b0; stroke-width: 0.8; stroke-linecap: square"/>
     </g>
     <g id="line2d_4">
      <g>
       <use xlink:href="#m07cc53b6a2" x="226.563913" y="512.64" style="stroke: #000000; stroke-width: 0.8"/>
      </g>
     </g>
     <g id="text_2">
      <!-- 5000 -->
      <g transform="translate(188.388913 542.435313) scale(0.3 -0.3)">
       <defs>
        <path id="DejaVuSans-35" d="M 691 4666 
L 3169 4666 
L 3169 4134 
L 1269 4134 
L 1269 2991 
Q 1406 3038 1543 3061 
Q 1681 3084 1819 3084 
Q 2600 3084 3056 2656 
Q 3513 2228 3513 1497 
Q 3513 744 3044 326 
Q 2575 -91 1722 -91 
Q 1428 -91 1123 -41 
Q 819 9 494 109 
L 494 744 
Q 775 591 1075 516 
Q 1375 441 1709 441 
Q 2250 441 2565 725 
Q 2881 1009 2881 1497 
Q 2881 1984 2565 2268 
Q 2250 2553 1709 2553 
Q 1456 2553 1204 2497 
Q 953 2441 691 2322 
L 691 4666 
z
" transform="scale(0.015625)"/>
       </defs>
       <use xlink:href="#DejaVuSans-35"/>
       <use xlink:href="#DejaVuSans-30" x="63.623047"/>
       <use xlink:href="#DejaVuSans-30" x="127.246094"/>
       <use xlink:href="#DejaVuSans-30" x="190.869141"/>
      </g>
     </g>
    </g>
    <g id="xtick_3">
     <g id="line2d_5">
      <path d="M 315.707701 512.64 
L 315.707701 69.12 
" clip-path="url(#pa8966059aa)" style="fill: none; stroke: #b0b0b0; stroke-width: 0.8; stroke-linecap: square"/>
     </g>
     <g id="line2d_6">
      <g>
       <use xlink:href="#m07cc53b6a2" x="315.707701" y="512.64" style="stroke: #000000; stroke-width: 0.8"/>
      </g>
     </g>
     <g id="text_3">
      <!-- 10000 -->
      <g transform="translate(267.988951 542.435313) scale(0.3 -0.3)">
       <defs>
        <path id="DejaVuSans-31" d="M 794 531 
L 1825 531 
L 1825 4091 
L 703 3866 
L 703 4441 
L 1819 4666 
L 2450 4666 
L 2450 531 
L 3481 531 
L 3481 0 
L 794 0 
L 794 531 
z
" transform="scale(0.015625)"/>
       </defs>
       <use xlink:href="#DejaVuSans-31"/>
       <use xlink:href="#DejaVuSans-30" x="63.623047"/>
       <use xlink:href="#DejaVuSans-30" x="127.246094"/>
       <use xlink:href="#DejaVuSans-30" x="190.869141"/>
       <use xlink:href="#DejaVuSans-30" x="254.492188"/>
      </g>
     </g>
    </g>
    <g id="xtick_4">
     <g id="line2d_7">
      <path d="M 404.851489 512.64 
L 404.851489 69.12 
" clip-path="url(#pa8966059aa)" style="fill: none; stroke: #b0b0b0; stroke-width: 0.8; stroke-linecap: square"/>
     </g>
     <g id="line2d_8">
      <g>
       <use xlink:href="#m07cc53b6a2" x="404.851489" y="512.64" style="stroke: #000000; stroke-width: 0.8"/>
      </g>
     </g>
     <g id="text_4">
      <!-- 15000 -->
      <g transform="translate(357.132739 542.435313) scale(0.3 -0.3)">
       <use xlink:href="#DejaVuSans-31"/>
       <use xlink:href="#DejaVuSans-35" x="63.623047"/>
       <use xlink:href="#DejaVuSans-30" x="127.246094"/>
       <use xlink:href="#DejaVuSans-30" x="190.869141"/>
       <use xlink:href="#DejaVuSans-30" x="254.492188"/>
      </g>
     </g>
    </g>
    <g id="xtick_5">
     <g id="line2d_9">
      <path d="M 493.995278 512.64 
L 493.995278 69.12 
" clip-path="url(#pa8966059aa)" style="fill: none; stroke: #b0b0b0; stroke-width: 0.8; stroke-linecap: square"/>
     </g>
     <g id="line2d_10">
      <g>
       <use xlink:href="#m07cc53b6a2" x="493.995278" y="512.64" style="stroke: #000000; stroke-width: 0.8"/>
      </g>
     </g>
     <g id="text_5">
      <!-- 20000 -->
      <g transform="translate(446.276528 542.435313) scale(0.3 -0.3)">
       <defs>
        <path id="DejaVuSans-32" d="M 1228 531 
L 3431 531 
L 3431 0 
L 469 0 
L 469 531 
Q 828 903 1448 1529 
Q 2069 2156 2228 2338 
Q 2531 2678 2651 2914 
Q 2772 3150 2772 3378 
Q 2772 3750 2511 3984 
Q 2250 4219 1831 4219 
Q 1534 4219 1204 4116 
Q 875 4013 500 3803 
L 500 4441 
Q 881 4594 1212 4672 
Q 1544 4750 1819 4750 
Q 2544 4750 2975 4387 
Q 3406 4025 3406 3419 
Q 3406 3131 3298 2873 
Q 3191 2616 2906 2266 
Q 2828 2175 2409 1742 
Q 1991 1309 1228 531 
z
" transform="scale(0.015625)"/>
       </defs>
       <use xlink:href="#DejaVuSans-32"/>
       <use xlink:href="#DejaVuSans-30" x="63.623047"/>
       <use xlink:href="#DejaVuSans-30" x="127.246094"/>
       <use xlink:href="#DejaVuSans-30" x="190.869141"/>
       <use xlink:href="#DejaVuSans-30" x="254.492188"/>
      </g>
     </g>
    </g>
    <g id="xtick_6">
     <g id="line2d_11">
      <path d="M 583.139066 512.64 
L 583.139066 69.12 
" clip-path="url(#pa8966059aa)" style="fill: none; stroke: #b0b0b0; stroke-width: 0.8; stroke-linecap: square"/>
     </g>
     <g id="line2d_12">
      <g>
       <use xlink:href="#m07cc53b6a2" x="583.139066" y="512.64" style="stroke: #000000; stroke-width: 0.8"/>
      </g>
     </g>
     <g id="text_6">
      <!-- 25000 -->
      <g transform="translate(535.420316 542.435313) scale(0.3 -0.3)">
       <use xlink:href="#DejaVuSans-32"/>
       <use xlink:href="#DejaVuSans-35" x="63.623047"/>
       <use xlink:href="#DejaVuSans-30" x="127.246094"/>
       <use xlink:href="#DejaVuSans-30" x="190.869141"/>
       <use xlink:href="#DejaVuSans-30" x="254.492188"/>
      </g>
     </g>
    </g>
    <g id="xtick_7">
     <g id="line2d_13">
      <path d="M 672.282854 512.64 
L 672.282854 69.12 
" clip-path="url(#pa8966059aa)" style="fill: none; stroke: #b0b0b0; stroke-width: 0.8; stroke-linecap: square"/>
     </g>
     <g id="line2d_14">
      <g>
       <use xlink:href="#m07cc53b6a2" x="672.282854" y="512.64" style="stroke: #000000; stroke-width: 0.8"/>
      </g>
     </g>
     <g id="text_7">
      <!-- 30000 -->
      <g transform="translate(624.564104 542.435313) scale(0.3 -0.3)">
       <defs>
        <path id="DejaVuSans-33" d="M 2597 2516 
Q 3050 2419 3304 2112 
Q 3559 1806 3559 1356 
Q 3559 666 3084 287 
Q 2609 -91 1734 -91 
Q 1441 -91 1130 -33 
Q 819 25 488 141 
L 488 750 
Q 750 597 1062 519 
Q 1375 441 1716 441 
Q 2309 441 2620 675 
Q 2931 909 2931 1356 
Q 2931 1769 2642 2001 
Q 2353 2234 1838 2234 
L 1294 2234 
L 1294 2753 
L 1863 2753 
Q 2328 2753 2575 2939 
Q 2822 3125 2822 3475 
Q 2822 3834 2567 4026 
Q 2313 4219 1838 4219 
Q 1578 4219 1281 4162 
Q 984 4106 628 3988 
L 628 4550 
Q 988 4650 1302 4700 
Q 1616 4750 1894 4750 
Q 2613 4750 3031 4423 
Q 3450 4097 3450 3541 
Q 3450 3153 3228 2886 
Q 3006 2619 2597 2516 
z
" transform="scale(0.015625)"/>
       </defs>
       <use xlink:href="#DejaVuSans-33"/>
       <use xlink:href="#DejaVuSans-30" x="63.623047"/>
       <use xlink:href="#DejaVuSans-30" x="127.246094"/>
       <use xlink:href="#DejaVuSans-30" x="190.869141"/>
       <use xlink:href="#DejaVuSans-30" x="254.492188"/>
      </g>
     </g>
    </g>
    <g id="xtick_8">
     <g id="line2d_15">
      <path d="M 761.426642 512.64 
L 761.426642 69.12 
" clip-path="url(#pa8966059aa)" style="fill: none; stroke: #b0b0b0; stroke-width: 0.8; stroke-linecap: square"/>
     </g>
     <g id="line2d_16">
      <g>
       <use xlink:href="#m07cc53b6a2" x="761.426642" y="512.64" style="stroke: #000000; stroke-width: 0.8"/>
      </g>
     </g>
     <g id="text_8">
      <!-- 35000 -->
      <g transform="translate(713.707892 542.435313) scale(0.3 -0.3)">
       <use xlink:href="#DejaVuSans-33"/>
       <use xlink:href="#DejaVuSans-35" x="63.623047"/>
       <use xlink:href="#DejaVuSans-30" x="127.246094"/>
       <use xlink:href="#DejaVuSans-30" x="190.869141"/>
       <use xlink:href="#DejaVuSans-30" x="254.492188"/>
      </g>
     </g>
    </g>
    <g id="text_9">
     <!-- Steps -->
     <g transform="translate(386.840625 583.068125) scale(0.4 -0.4)">
      <defs>
       <path id="DejaVuSans-53" d="M 3425 4513 
L 3425 3897 
Q 3066 4069 2747 4153 
Q 2428 4238 2131 4238 
Q 1616 4238 1336 4038 
Q 1056 3838 1056 3469 
Q 1056 3159 1242 3001 
Q 1428 2844 1947 2747 
L 2328 2669 
Q 3034 2534 3370 2195 
Q 3706 1856 3706 1288 
Q 3706 609 3251 259 
Q 2797 -91 1919 -91 
Q 1588 -91 1214 -16 
Q 841 59 441 206 
L 441 856 
Q 825 641 1194 531 
Q 1563 422 1919 422 
Q 2459 422 2753 634 
Q 3047 847 3047 1241 
Q 3047 1584 2836 1778 
Q 2625 1972 2144 2069 
L 1759 2144 
Q 1053 2284 737 2584 
Q 422 2884 422 3419 
Q 422 4038 858 4394 
Q 1294 4750 2059 4750 
Q 2388 4750 2728 4690 
Q 3069 4631 3425 4513 
z
" transform="scale(0.015625)"/>
       <path id="DejaVuSans-74" d="M 1172 4494 
L 1172 3500 
L 2356 3500 
L 2356 3053 
L 1172 3053 
L 1172 1153 
Q 1172 725 1289 603 
Q 1406 481 1766 481 
L 2356 481 
L 2356 0 
L 1766 0 
Q 1100 0 847 248 
Q 594 497 594 1153 
L 594 3053 
L 172 3053 
L 172 3500 
L 594 3500 
L 594 4494 
L 1172 4494 
z
" transform="scale(0.015625)"/>
       <path id="DejaVuSans-65" d="M 3597 1894 
L 3597 1613 
L 953 1613 
Q 991 1019 1311 708 
Q 1631 397 2203 397 
Q 2534 397 2845 478 
Q 3156 559 3463 722 
L 3463 178 
Q 3153 47 2828 -22 
Q 2503 -91 2169 -91 
Q 1331 -91 842 396 
Q 353 884 353 1716 
Q 353 2575 817 3079 
Q 1281 3584 2069 3584 
Q 2775 3584 3186 3129 
Q 3597 2675 3597 1894 
z
M 3022 2063 
Q 3016 2534 2758 2815 
Q 2500 3097 2075 3097 
Q 1594 3097 1305 2825 
Q 1016 2553 972 2059 
L 3022 2063 
z
" transform="scale(0.015625)"/>
       <path id="DejaVuSans-70" d="M 1159 525 
L 1159 -1331 
L 581 -1331 
L 581 3500 
L 1159 3500 
L 1159 2969 
Q 1341 3281 1617 3432 
Q 1894 3584 2278 3584 
Q 2916 3584 3314 3078 
Q 3713 2572 3713 1747 
Q 3713 922 3314 415 
Q 2916 -91 2278 -91 
Q 1894 -91 1617 61 
Q 1341 213 1159 525 
z
M 3116 1747 
Q 3116 2381 2855 2742 
Q 2594 3103 2138 3103 
Q 1681 3103 1420 2742 
Q 1159 2381 1159 1747 
Q 1159 1113 1420 752 
Q 1681 391 2138 391 
Q 2594 391 2855 752 
Q 3116 1113 3116 1747 
z
" transform="scale(0.015625)"/>
       <path id="DejaVuSans-73" d="M 2834 3397 
L 2834 2853 
Q 2591 2978 2328 3040 
Q 2066 3103 1784 3103 
Q 1356 3103 1142 2972 
Q 928 2841 928 2578 
Q 928 2378 1081 2264 
Q 1234 2150 1697 2047 
L 1894 2003 
Q 2506 1872 2764 1633 
Q 3022 1394 3022 966 
Q 3022 478 2636 193 
Q 2250 -91 1575 -91 
Q 1294 -91 989 -36 
Q 684 19 347 128 
L 347 722 
Q 666 556 975 473 
Q 1284 391 1588 391 
Q 1994 391 2212 530 
Q 2431 669 2431 922 
Q 2431 1156 2273 1281 
Q 2116 1406 1581 1522 
L 1381 1569 
Q 847 1681 609 1914 
Q 372 2147 372 2553 
Q 372 3047 722 3315 
Q 1072 3584 1716 3584 
Q 2034 3584 2315 3537 
Q 2597 3491 2834 3397 
z
" transform="scale(0.015625)"/>
      </defs>
      <use xlink:href="#DejaVuSans-53"/>
      <use xlink:href="#DejaVuSans-74" x="63.476562"/>
      <use xlink:href="#DejaVuSans-65" x="102.685547"/>
      <use xlink:href="#DejaVuSans-70" x="164.208984"/>
      <use xlink:href="#DejaVuSans-73" x="227.685547"/>
     </g>
    </g>
   </g>
   <g id="matplotlib.axis_2">
    <g id="ytick_1">
     <g id="line2d_17">
      <path d="M 108 468.897867 
L 777.6 468.897867 
" clip-path="url(#pa8966059aa)" style="fill: none; stroke: #b0b0b0; stroke-width: 0.8; stroke-linecap: square"/>
     </g>
     <g id="line2d_18">
      <defs>
       <path id="m0ec81ec0e1" d="M 0 0 
L -3.5 0 
" style="stroke: #000000; stroke-width: 0.8"/>
      </defs>
      <g>
       <use xlink:href="#m0ec81ec0e1" x="108" y="468.897867" style="stroke: #000000; stroke-width: 0.8"/>
      </g>
     </g>
     <g id="text_10">
      <!-- −0.4 -->
      <g transform="translate(28.151562 480.295523) scale(0.3 -0.3)">
       <defs>
        <path id="DejaVuSans-2212" d="M 678 2272 
L 4684 2272 
L 4684 1741 
L 678 1741 
L 678 2272 
z
" transform="scale(0.015625)"/>
        <path id="DejaVuSans-2e" d="M 684 794 
L 1344 794 
L 1344 0 
L 684 0 
L 684 794 
z
" transform="scale(0.015625)"/>
        <path id="DejaVuSans-34" d="M 2419 4116 
L 825 1625 
L 2419 1625 
L 2419 4116 
z
M 2253 4666 
L 3047 4666 
L 3047 1625 
L 3713 1625 
L 3713 1100 
L 3047 1100 
L 3047 0 
L 2419 0 
L 2419 1100 
L 313 1100 
L 313 1709 
L 2253 4666 
z
" transform="scale(0.015625)"/>
       </defs>
       <use xlink:href="#DejaVuSans-2212"/>
       <use xlink:href="#DejaVuSans-30" x="83.789062"/>
       <use xlink:href="#DejaVuSans-2e" x="147.412109"/>
       <use xlink:href="#DejaVuSans-34" x="179.199219"/>
      </g>
     </g>
    </g>
    <g id="ytick_2">
     <g id="line2d_19">
      <path d="M 108 396.106106 
L 777.6 396.106106 
" clip-path="url(#pa8966059aa)" style="fill: none; stroke: #b0b0b0; stroke-width: 0.8; stroke-linecap: square"/>
     </g>
     <g id="line2d_20">
      <g>
       <use xlink:href="#m0ec81ec0e1" x="108" y="396.106106" style="stroke: #000000; stroke-width: 0.8"/>
      </g>
     </g>
     <g id="text_11">
      <!-- −0.2 -->
      <g transform="translate(28.151562 407.503763) scale(0.3 -0.3)">
       <use xlink:href="#DejaVuSans-2212"/>
       <use xlink:href="#DejaVuSans-30" x="83.789062"/>
       <use xlink:href="#DejaVuSans-2e" x="147.412109"/>
       <use xlink:href="#DejaVuSans-32" x="179.199219"/>
      </g>
     </g>
    </g>
    <g id="ytick_3">
     <g id="line2d_21">
      <path d="M 108 323.314346 
L 777.6 323.314346 
" clip-path="url(#pa8966059aa)" style="fill: none; stroke: #b0b0b0; stroke-width: 0.8; stroke-linecap: square"/>
     </g>
     <g id="line2d_22">
      <g>
       <use xlink:href="#m0ec81ec0e1" x="108" y="323.314346" style="stroke: #000000; stroke-width: 0.8"/>
      </g>
     </g>
     <g id="text_12">
      <!-- 0.0 -->
      <g transform="translate(53.290625 334.712002) scale(0.3 -0.3)">
       <use xlink:href="#DejaVuSans-30"/>
       <use xlink:href="#DejaVuSans-2e" x="63.623047"/>
       <use xlink:href="#DejaVuSans-30" x="95.410156"/>
      </g>
     </g>
    </g>
    <g id="ytick_4">
     <g id="line2d_23">
      <path d="M 108 250.522585 
L 777.6 250.522585 
" clip-path="url(#pa8966059aa)" style="fill: none; stroke: #b0b0b0; stroke-width: 0.8; stroke-linecap: square"/>
     </g>
     <g id="line2d_24">
      <g>
       <use xlink:href="#m0ec81ec0e1" x="108" y="250.522585" style="stroke: #000000; stroke-width: 0.8"/>
      </g>
     </g>
     <g id="text_13">
      <!-- 0.2 -->
      <g transform="translate(53.290625 261.920242) scale(0.3 -0.3)">
       <use xlink:href="#DejaVuSans-30"/>
       <use xlink:href="#DejaVuSans-2e" x="63.623047"/>
       <use xlink:href="#DejaVuSans-32" x="95.410156"/>
      </g>
     </g>
    </g>
    <g id="ytick_5">
     <g id="line2d_25">
      <path d="M 108 177.730825 
L 777.6 177.730825 
" clip-path="url(#pa8966059aa)" style="fill: none; stroke: #b0b0b0; stroke-width: 0.8; stroke-linecap: square"/>
     </g>
     <g id="line2d_26">
      <g>
       <use xlink:href="#m0ec81ec0e1" x="108" y="177.730825" style="stroke: #000000; stroke-width: 0.8"/>
      </g>
     </g>
     <g id="text_14">
      <!-- 0.4 -->
      <g transform="translate(53.290625 189.128481) scale(0.3 -0.3)">
       <use xlink:href="#DejaVuSans-30"/>
       <use xlink:href="#DejaVuSans-2e" x="63.623047"/>
       <use xlink:href="#DejaVuSans-34" x="95.410156"/>
      </g>
     </g>
    </g>
    <g id="ytick_6">
     <g id="line2d_27">
      <path d="M 108 104.939065 
L 777.6 104.939065 
" clip-path="url(#pa8966059aa)" style="fill: none; stroke: #b0b0b0; stroke-width: 0.8; stroke-linecap: square"/>
     </g>
     <g id="line2d_28">
      <g>
       <use xlink:href="#m0ec81ec0e1" x="108" y="104.939065" style="stroke: #000000; stroke-width: 0.8"/>
      </g>
     </g>
     <g id="text_15">
      <!-- 0.6 -->
      <g transform="translate(53.290625 116.336721) scale(0.3 -0.3)">
       <defs>
        <path id="DejaVuSans-36" d="M 2113 2584 
Q 1688 2584 1439 2293 
Q 1191 2003 1191 1497 
Q 1191 994 1439 701 
Q 1688 409 2113 409 
Q 2538 409 2786 701 
Q 3034 994 3034 1497 
Q 3034 2003 2786 2293 
Q 2538 2584 2113 2584 
z
M 3366 4563 
L 3366 3988 
Q 3128 4100 2886 4159 
Q 2644 4219 2406 4219 
Q 1781 4219 1451 3797 
Q 1122 3375 1075 2522 
Q 1259 2794 1537 2939 
Q 1816 3084 2150 3084 
Q 2853 3084 3261 2657 
Q 3669 2231 3669 1497 
Q 3669 778 3244 343 
Q 2819 -91 2113 -91 
Q 1303 -91 875 529 
Q 447 1150 447 2328 
Q 447 3434 972 4092 
Q 1497 4750 2381 4750 
Q 2619 4750 2861 4703 
Q 3103 4656 3366 4563 
z
" transform="scale(0.015625)"/>
       </defs>
       <use xlink:href="#DejaVuSans-30"/>
       <use xlink:href="#DejaVuSans-2e" x="63.623047"/>
       <use xlink:href="#DejaVuSans-36" x="95.410156"/>
      </g>
     </g>
    </g>
    <g id="text_16">
     <!-- Pearson -->
     <g transform="translate(15.832812 370.33) rotate(-90) scale(0.4 -0.4)">
      <defs>
       <path id="DejaVuSans-50" d="M 1259 4147 
L 1259 2394 
L 2053 2394 
Q 2494 2394 2734 2622 
Q 2975 2850 2975 3272 
Q 2975 3691 2734 3919 
Q 2494 4147 2053 4147 
L 1259 4147 
z
M 628 4666 
L 2053 4666 
Q 2838 4666 3239 4311 
Q 3641 3956 3641 3272 
Q 3641 2581 3239 2228 
Q 2838 1875 2053 1875 
L 1259 1875 
L 1259 0 
L 628 0 
L 628 4666 
z
" transform="scale(0.015625)"/>
       <path id="DejaVuSans-61" d="M 2194 1759 
Q 1497 1759 1228 1600 
Q 959 1441 959 1056 
Q 959 750 1161 570 
Q 1363 391 1709 391 
Q 2188 391 2477 730 
Q 2766 1069 2766 1631 
L 2766 1759 
L 2194 1759 
z
M 3341 1997 
L 3341 0 
L 2766 0 
L 2766 531 
Q 2569 213 2275 61 
Q 1981 -91 1556 -91 
Q 1019 -91 701 211 
Q 384 513 384 1019 
Q 384 1609 779 1909 
Q 1175 2209 1959 2209 
L 2766 2209 
L 2766 2266 
Q 2766 2663 2505 2880 
Q 2244 3097 1772 3097 
Q 1472 3097 1187 3025 
Q 903 2953 641 2809 
L 641 3341 
Q 956 3463 1253 3523 
Q 1550 3584 1831 3584 
Q 2591 3584 2966 3190 
Q 3341 2797 3341 1997 
z
" transform="scale(0.015625)"/>
       <path id="DejaVuSans-72" d="M 2631 2963 
Q 2534 3019 2420 3045 
Q 2306 3072 2169 3072 
Q 1681 3072 1420 2755 
Q 1159 2438 1159 1844 
L 1159 0 
L 581 0 
L 581 3500 
L 1159 3500 
L 1159 2956 
Q 1341 3275 1631 3429 
Q 1922 3584 2338 3584 
Q 2397 3584 2469 3576 
Q 2541 3569 2628 3553 
L 2631 2963 
z
" transform="scale(0.015625)"/>
       <path id="DejaVuSans-6f" d="M 1959 3097 
Q 1497 3097 1228 2736 
Q 959 2375 959 1747 
Q 959 1119 1226 758 
Q 1494 397 1959 397 
Q 2419 397 2687 759 
Q 2956 1122 2956 1747 
Q 2956 2369 2687 2733 
Q 2419 3097 1959 3097 
z
M 1959 3584 
Q 2709 3584 3137 3096 
Q 3566 2609 3566 1747 
Q 3566 888 3137 398 
Q 2709 -91 1959 -91 
Q 1206 -91 779 398 
Q 353 888 353 1747 
Q 353 2609 779 3096 
Q 1206 3584 1959 3584 
z
" transform="scale(0.015625)"/>
       <path id="DejaVuSans-6e" d="M 3513 2113 
L 3513 0 
L 2938 0 
L 2938 2094 
Q 2938 2591 2744 2837 
Q 2550 3084 2163 3084 
Q 1697 3084 1428 2787 
Q 1159 2491 1159 1978 
L 1159 0 
L 581 0 
L 581 3500 
L 1159 3500 
L 1159 2956 
Q 1366 3272 1645 3428 
Q 1925 3584 2291 3584 
Q 2894 3584 3203 3211 
Q 3513 2838 3513 2113 
z
" transform="scale(0.015625)"/>
      </defs>
      <use xlink:href="#DejaVuSans-50"/>
      <use xlink:href="#DejaVuSans-65" x="56.677734"/>
      <use xlink:href="#DejaVuSans-61" x="118.201172"/>
      <use xlink:href="#DejaVuSans-72" x="179.480469"/>
      <use xlink:href="#DejaVuSans-73" x="220.59375"/>
      <use xlink:href="#DejaVuSans-6f" x="272.693359"/>
      <use xlink:href="#DejaVuSans-6e" x="333.875"/>
     </g>
    </g>
   </g>
   <g id="line2d_29">
    <path d="M 138.436364 492.48 
L 139.452603 376.12391 
L 140.468842 301.092641 
L 141.485081 340.007598 
L 144.533799 278.079967 
L 145.550038 261.161761 
L 146.566277 248.050389 
L 147.582516 239.337667 
L 149.614995 273.065047 
L 151.647473 252.15849 
L 152.663712 243.368943 
L 153.679951 237.419638 
L 154.696191 230.240731 
L 155.71243 242.833904 
L 156.728669 245.422219 
L 157.744908 245.041043 
L 158.761147 251.202565 
L 159.777387 251.964135 
L 160.793626 252.925505 
L 161.809865 254.617423 
L 162.826104 260.161298 
L 164.858582 261.783028 
L 165.874822 264.644737 
L 166.891061 266.038316 
L 167.9073 271.29907 
L 168.923539 265.680412 
L 169.939778 268.707897 
L 170.956018 273.267036 
L 171.972257 270.902821 
L 174.004735 276.518382 
L 175.020974 283.09035 
L 176.037214 290.899392 
L 177.053453 296.425845 
L 178.069692 298.194476 
L 179.085931 295.712996 
L 180.10217 289.816839 
L 181.118409 299.48205 
L 182.134649 305.987131 
L 183.150888 313.779159 
L 184.167127 318.870626 
L 185.183366 326.220444 
L 186.199605 321.986435 
L 188.232084 326.547169 
L 189.248323 324.275798 
L 190.264562 326.433193 
L 191.280801 327.663926 
L 192.297041 328.576359 
L 193.31328 325.979808 
L 194.329519 330.089586 
L 195.345758 331.68137 
L 196.361997 331.768233 
L 197.378236 328.988645 
L 198.394476 320.589054 
L 199.410715 316.171337 
L 200.426954 308.901124 
L 201.443193 315.118841 
L 202.459432 308.960737 
L 203.475672 304.520785 
L 204.491911 310.712687 
L 205.50815 314.722721 
L 206.524389 316.077703 
L 207.540628 321.256406 
L 208.556868 327.976529 
L 209.573107 328.977224 
L 210.589346 330.386697 
L 211.605585 323.459168 
L 212.621824 322.575658 
L 213.638063 323.013894 
L 214.654303 323.809391 
L 215.670542 319.43751 
L 216.686781 315.722757 
L 217.70302 307.644808 
L 218.719259 302.592415 
L 219.735499 306.930831 
L 220.751738 312.188591 
L 221.767977 314.277328 
L 222.784216 317.03991 
L 223.800455 318.166571 
L 224.816694 316.387553 
L 225.832934 315.288953 
L 226.849173 314.391453 
L 227.865412 320.728727 
L 229.89789 331.183566 
L 230.91413 338.035206 
L 231.930369 332.215862 
L 233.962847 340.085651 
L 235.995326 330.387694 
L 237.011565 326.766469 
L 238.027804 322.670661 
L 239.044043 319.229359 
L 240.060282 316.849375 
L 241.076521 318.276929 
L 242.092761 322.696488 
L 243.109 323.915516 
L 244.125239 319.953607 
L 245.141478 319.598392 
L 246.157717 324.311018 
L 247.173957 324.23494 
L 248.190196 332.408934 
L 249.206435 339.056035 
L 250.222674 329.60776 
L 251.238913 325.319599 
L 252.255153 323.154146 
L 253.271392 321.793246 
L 254.287631 317.137644 
L 255.30387 315.773022 
L 256.320109 321.049147 
L 257.336348 323.720105 
L 258.352588 318.80507 
L 259.368827 317.072201 
L 260.385066 319.103947 
L 261.401305 319.339296 
L 262.417544 320.84851 
L 263.433784 321.017663 
L 265.466262 322.586975 
L 266.482501 317.133372 
L 267.49874 317.328105 
L 268.51498 318.866891 
L 269.531219 318.866891 
L 270.547458 319.206567 
L 271.563697 317.229676 
L 272.579936 316.591652 
L 273.596175 316.801266 
L 274.612415 318.662372 
L 275.628654 318.056744 
L 276.644893 321.234172 
L 278.677371 329.685658 
L 279.693611 327.845379 
L 280.70985 332.094366 
L 281.726089 329.964644 
L 282.742328 330.418609 
L 283.758567 330.633488 
L 284.774806 331.752588 
L 285.791046 332.359083 
L 286.807285 327.794966 
L 287.823524 319.424617 
L 288.839763 320.950186 
L 289.856002 322.742696 
L 290.872242 318.590259 
L 291.888481 318.200097 
L 292.90472 323.811881 
L 293.920959 325.591701 
L 294.937198 324.339631 
L 295.953438 322.333829 
L 296.969677 330.693116 
L 297.985916 331.266531 
L 299.002155 327.272386 
L 300.018394 327.272386 
L 301.034633 328.543079 
L 302.050873 328.543079 
L 303.067112 326.904559 
L 304.083351 325.782922 
L 305.09959 326.723028 
L 306.115829 328.786476 
L 307.132069 328.247017 
L 308.148308 329.528507 
L 309.164547 323.388781 
L 310.180786 327.792359 
L 311.197025 319.153397 
L 312.213265 323.483723 
L 313.229504 323.483723 
L 314.245743 315.93292 
L 315.261982 319.283335 
L 316.278221 318.591625 
L 317.29446 318.591625 
L 318.3107 336.164504 
L 319.326939 336.164504 
L 320.343178 334.190868 
L 321.359417 331.065218 
L 322.375656 330.787018 
L 323.391896 328.137083 
L 324.408135 327.091148 
L 325.424374 328.710903 
L 326.440613 329.771548 
L 327.456852 333.07108 
L 328.473092 330.644634 
L 329.489331 330.644634 
L 330.50557 329.990916 
L 331.521809 318.780215 
L 332.538048 322.620459 
L 333.554287 323.71707 
L 334.570527 321.654143 
L 335.586766 319.859151 
L 336.603005 319.180715 
L 337.619244 315.029756 
L 338.635483 309.379013 
L 339.651723 309.379013 
L 340.667962 307.485344 
L 341.684201 315.676319 
L 342.70044 313.021026 
L 343.716679 313.698914 
L 344.732919 317.661319 
L 345.749158 317.801159 
L 346.765397 317.686715 
L 347.781636 320.199447 
L 348.797875 307.405648 
L 349.814114 307.405648 
L 350.830354 307.98833 
L 351.846593 314.295452 
L 352.862832 313.514911 
L 353.879071 308.04944 
L 356.927789 308.04944 
L 357.944028 302.325471 
L 358.960267 309.5673 
L 359.976506 309.5673 
L 360.992745 308.900385 
L 362.008985 326.093871 
L 363.025224 319.427373 
L 364.041463 319.427373 
L 365.057702 320.253916 
L 366.073941 323.883375 
L 367.090181 323.883375 
L 368.10642 322.879308 
L 369.122659 330.187414 
L 370.138898 326.565098 
L 371.155137 320.130708 
L 372.171377 320.130708 
L 373.187616 317.839188 
L 374.203855 317.16793 
L 376.236333 317.16793 
L 377.252572 316.595423 
L 378.268812 312.21465 
L 379.285051 312.21465 
L 380.30129 313.011439 
L 381.317529 306.755372 
L 382.333768 302.038825 
L 383.350008 302.038825 
L 384.366247 304.796831 
L 385.382486 308.845908 
L 386.398725 295.886205 
L 387.414964 311.456295 
L 388.431204 316.746776 
L 389.447443 299.782901 
L 390.463682 295.34036 
L 391.479921 291.420324 
L 392.49616 293.486318 
L 393.512399 286.035137 
L 394.528639 283.465359 
L 395.544878 279.649922 
L 396.561117 281.761777 
L 397.577356 282.412601 
L 398.593595 284.932814 
L 399.609835 276.510704 
L 400.626074 277.352994 
L 401.642313 272.94217 
L 402.658552 270.309545 
L 404.691031 259.35789 
L 405.70727 268.804993 
L 406.723509 275.957609 
L 407.739748 272.33534 
L 408.755987 267.857098 
L 409.772226 268.396721 
L 410.788466 261.952025 
L 411.804705 270.432741 
L 412.820944 264.338093 
L 413.837183 259.083703 
L 415.869662 241.745042 
L 416.885901 241.642674 
L 417.90214 227.212577 
L 418.918379 217.806287 
L 419.934618 217.909616 
L 421.967097 210.49651 
L 422.983336 202.05403 
L 423.999575 200.777253 
L 425.015814 196.758842 
L 426.032053 194.087135 
L 427.048293 187.083716 
L 428.064532 181.027823 
L 429.080771 172.564478 
L 430.09701 171.785662 
L 431.113249 165.418712 
L 432.129489 164.357515 
L 433.145728 161.079901 
L 434.161967 160.329972 
L 435.178206 159.803975 
L 437.210684 135.173966 
L 438.226924 132.274717 
L 439.243163 131.175568 
L 440.259402 125.516175 
L 441.275641 124.828137 
L 442.29188 112.483874 
L 443.30812 111.832138 
L 444.324359 112.0447 
L 446.356837 113.562244 
L 448.389316 113.496373 
L 449.405555 113.35552 
L 450.421794 113.016925 
L 451.438033 112.385726 
L 452.454272 113.170341 
L 453.470511 113.195288 
L 454.486751 112.897492 
L 456.519229 112.057353 
L 459.567947 109.801467 
L 461.600425 108.354215 
L 468.714099 101.795624 
L 470.746578 99.961136 
L 474.811534 95.883428 
L 475.827774 95.461631 
L 480.908969 92.010146 
L 481.925209 91.756412 
L 482.941448 90.057737 
L 483.957687 89.28 
L 484.973926 93.523244 
L 485.990165 93.022123 
L 487.006405 92.654882 
L 488.022644 92.954929 
L 489.038883 92.947026 
L 490.055122 93.576389 
L 491.071361 93.678706 
L 492.087601 94.867072 
L 493.10384 94.920833 
L 494.120079 95.243426 
L 495.136318 98.17904 
L 496.152557 99.257095 
L 497.168796 99.662863 
L 498.185036 101.990565 
L 499.201275 102.338017 
L 500.217514 102.306561 
L 501.233753 102.735296 
L 502.249992 103.952945 
L 503.266232 104.134637 
L 506.314949 109.142369 
L 507.331188 109.681012 
L 508.347428 112.459003 
L 509.363667 114.012866 
L 510.379906 121.634553 
L 511.396145 127.011181 
L 512.412384 131.113839 
L 513.428623 132.670839 
L 514.444863 133.435864 
L 515.461102 129.80254 
L 516.477341 131.738222 
L 517.49358 132.444043 
L 518.509819 132.355224 
L 519.526059 138.221869 
L 520.542298 138.139281 
L 521.558537 145.373425 
L 522.574776 144.499687 
L 523.591015 148.175734 
L 524.607255 148.016508 
L 525.623494 148.530672 
L 526.639733 147.886982 
L 527.655972 147.492584 
L 528.672211 160.789552 
L 529.68845 161.217571 
L 530.70469 168.062802 
L 531.720929 168.115538 
L 532.737168 169.247083 
L 533.753407 171.083791 
L 534.769646 172.445723 
L 535.785886 172.574466 
L 536.802125 170.613907 
L 537.818364 177.820552 
L 538.834603 182.020053 
L 539.850842 182.43177 
L 540.867081 177.970064 
L 541.883321 180.573364 
L 542.89956 187.995091 
L 543.915799 185.050869 
L 544.932038 186.63587 
L 545.948277 185.406905 
L 546.964517 184.767885 
L 547.980756 186.004937 
L 548.996995 186.1671 
L 550.013234 182.325503 
L 551.029473 187.257732 
L 552.045713 183.046037 
L 553.061952 186.89056 
L 554.078191 183.758116 
L 555.09443 187.678639 
L 556.110669 185.314607 
L 557.126908 188.873226 
L 558.143148 197.400066 
L 559.159387 186.23102 
L 560.175626 195.299258 
L 561.191865 194.206961 
L 562.208104 201.662209 
L 563.224344 215.436177 
L 564.240583 218.212077 
L 565.256822 219.429894 
L 566.273061 227.220928 
L 567.2893 232.020559 
L 568.30554 229.072034 
L 569.321779 231.196129 
L 570.338018 232.44724 
L 571.354257 236.575064 
L 573.386735 230.21057 
L 574.402975 235.527151 
L 575.419214 251.578318 
L 576.435453 265.4788 
L 577.451692 276.009109 
L 578.467931 283.662661 
L 579.484171 293.420615 
L 580.50041 299.649184 
L 581.516649 304.862735 
L 582.532888 313.744701 
L 583.549127 309.943683 
L 584.565367 321.194099 
L 585.581606 326.618175 
L 586.597845 335.872851 
L 587.614084 342.183328 
L 588.630323 342.20363 
L 589.646562 346.082641 
L 590.662802 345.178608 
L 591.679041 349.937779 
L 592.69528 352.266129 
L 593.711519 341.33794 
L 594.727758 339.373766 
L 595.743998 331.412136 
L 596.760237 333.324887 
L 597.776476 330.110515 
L 598.792715 328.427397 
L 599.808954 325.478899 
L 600.825194 323.704633 
L 601.841433 328.997061 
L 602.857672 337.125959 
L 603.873911 338.948137 
L 604.89015 342.280905 
L 605.906389 324.082268 
L 606.922629 319.296698 
L 607.938868 321.93933 
L 608.955107 323.229974 
L 609.971346 322.493381 
L 610.987585 322.493381 
L 612.003825 319.986654 
L 613.020064 302.512535 
L 614.036303 309.424859 
L 615.052542 305.726214 
L 617.08502 324.577186 
L 618.10126 330.51298 
L 619.117499 326.309459 
L 620.133738 325.228612 
L 622.166216 325.228612 
L 623.182456 321.070527 
L 624.198695 321.070527 
L 625.214934 321.78899 
L 626.231173 334.506711 
L 627.247412 330.486683 
L 628.263652 333.524017 
L 629.279891 335.37781 
L 630.29613 341.315271 
L 631.312369 349.770433 
L 632.328608 345.400014 
L 633.344847 337.278756 
L 634.361087 333.221888 
L 635.377326 318.628634 
L 636.393565 328.327456 
L 637.409804 328.327456 
L 638.426043 312.253023 
L 639.442283 309.511073 
L 640.458522 309.511073 
L 641.474761 300.218689 
L 642.491 300.218689 
L 643.507239 295.114741 
L 644.523479 297.711262 
L 645.539718 297.290501 
L 646.555957 289.202625 
L 648.588435 261.195146 
L 650.620914 264.549569 
L 651.637153 264.549569 
L 652.653392 259.791306 
L 653.669631 262.369991 
L 654.68587 265.476096 
L 655.70211 271.291585 
L 656.718349 269.238197 
L 657.734588 274.660266 
L 658.750827 274.4439 
L 659.767066 287.846824 
L 660.783306 291.591764 
L 662.815784 288.896087 
L 663.832023 291.466106 
L 664.848262 291.00433 
L 665.864501 299.671392 
L 666.880741 301.595772 
L 667.89698 294.367949 
L 668.913219 304.960736 
L 669.929458 311.415615 
L 670.945697 306.738728 
L 671.961937 314.571612 
L 672.978176 308.746883 
L 673.994415 318.965754 
L 675.010654 318.965754 
L 676.026893 320.407163 
L 677.043132 319.287933 
L 679.075611 348.423027 
L 680.09185 354.787675 
L 681.108089 343.769325 
L 682.124328 342.049803 
L 683.140568 338.475443 
L 684.156807 335.518119 
L 685.173046 333.115128 
L 687.205524 320.463711 
L 688.221764 306.249614 
L 691.270481 281.130945 
L 693.302959 281.130945 
L 695.335438 275.589358 
L 696.351677 277.292559 
L 697.367916 267.115174 
L 698.384155 270.066037 
L 699.400395 266.270059 
L 700.416634 266.727901 
L 701.432873 265.984255 
L 702.449112 259.620885 
L 703.465351 255.781832 
L 704.481591 250.705379 
L 705.49783 252.851608 
L 706.514069 258.48906 
L 707.530308 259.710043 
L 709.562786 238.252023 
L 710.579026 232.024882 
L 711.595265 244.928995 
L 712.611504 247.215547 
L 713.627743 253.604706 
L 714.643982 255.354649 
L 715.660222 254.727718 
L 716.676461 255.051752 
L 717.6927 254.890055 
L 718.708939 268.246081 
L 719.725178 276.839347 
L 721.757657 258.806759 
L 722.773896 263.766492 
L 723.790135 262.839049 
L 724.806374 262.839049 
L 725.822613 264.956073 
L 726.838853 266.033127 
L 727.855092 271.974809 
L 728.871331 274.328091 
L 729.88757 274.328091 
L 730.903809 265.051373 
L 731.920049 278.102144 
L 732.936288 294.945528 
L 734.968766 315.993454 
L 735.985005 316.720475 
L 737.001244 311.206817 
L 738.017484 312.391253 
L 739.033723 312.391253 
L 740.049962 312.954654 
L 741.066201 311.643014 
L 742.08244 308.419557 
L 743.09868 309.877527 
L 744.114919 309.877527 
L 745.131158 321.473496 
L 746.147397 321.473496 
L 747.163636 315.103845 
L 747.163636 315.103845 
" clip-path="url(#pa8966059aa)" style="fill: none; stroke: #1f77b4; stroke-width: 4; stroke-linecap: square"/>
   </g>
   <g id="line2d_30">
    <path d="M 138.436364 264.589507 
L 139.452603 187.526619 
L 140.468842 173.038151 
L 141.485081 168.078087 
L 142.50132 173.113141 
L 143.51756 219.329101 
L 144.533799 258.277021 
L 146.566277 289.889706 
L 147.582516 277.038738 
L 148.598756 268.735749 
L 149.614995 274.994625 
L 150.631234 276.316799 
L 151.647473 278.39307 
L 152.663712 280.77326 
L 153.679951 282.666618 
L 154.696191 282.882039 
L 155.71243 284.843377 
L 156.728669 286.102412 
L 157.744908 287.002925 
L 158.761147 287.738591 
L 160.793626 288.756995 
L 163.842343 289.873854 
L 164.858582 291.296166 
L 165.874822 293.178168 
L 166.891061 293.404172 
L 167.9073 293.127505 
L 168.923539 294.217622 
L 170.956018 305.993014 
L 172.988496 316.260681 
L 174.004735 311.354281 
L 175.020974 304.928327 
L 176.037214 302.085146 
L 177.053453 298.099502 
L 178.069692 304.428167 
L 179.085931 308.074639 
L 180.10217 307.775184 
L 181.118409 309.604378 
L 182.134649 309.141577 
L 183.150888 310.237393 
L 184.167127 311.104758 
L 185.183366 313.257646 
L 186.199605 314.114269 
L 187.215845 313.777746 
L 188.232084 314.314442 
L 189.248323 313.912007 
L 190.264562 313.755477 
L 191.280801 315.571196 
L 192.297041 315.444825 
L 193.31328 314.742604 
L 194.329519 314.462685 
L 195.345758 313.121988 
L 196.361997 313.416875 
L 197.378236 313.337169 
L 198.394476 313.81564 
L 199.410715 313.472056 
L 200.426954 313.309113 
L 201.443193 314.465224 
L 202.459432 316.261637 
L 203.475672 314.676762 
L 204.491911 316.340918 
L 207.540628 315.331798 
L 208.556868 313.427874 
L 209.573107 314.839426 
L 210.589346 313.193921 
L 211.605585 311.171067 
L 212.621824 311.016666 
L 213.638063 311.435469 
L 216.686781 306.022462 
L 217.70302 308.263754 
L 218.719259 310.063258 
L 219.735499 310.789382 
L 220.751738 309.965703 
L 221.767977 307.930519 
L 222.784216 307.726254 
L 223.800455 308.457664 
L 224.816694 310.342304 
L 225.832934 310.409127 
L 226.849173 308.088676 
L 228.881651 306.833469 
L 229.89789 306.41795 
L 230.91413 305.84638 
L 231.930369 303.525908 
L 232.946608 300.603376 
L 233.962847 299.096682 
L 234.979086 295.863455 
L 235.995326 294.174278 
L 237.011565 290.374207 
L 238.027804 288.996138 
L 239.044043 295.136116 
L 240.060282 288.682056 
L 241.076521 285.789429 
L 243.109 281.856495 
L 244.125239 278.374879 
L 245.141478 276.791992 
L 246.157717 274.915377 
L 247.173957 276.987171 
L 248.190196 276.73849 
L 250.222674 275.208253 
L 252.255153 274.858746 
L 253.271392 275.017177 
L 255.30387 271.948773 
L 256.320109 272.599028 
L 257.336348 273.416579 
L 258.352588 274.622868 
L 259.368827 277.519709 
L 260.385066 278.981953 
L 261.401305 280.82087 
L 262.417544 282.344893 
L 263.433784 282.868371 
L 264.450023 285.883227 
L 265.466262 287.342431 
L 266.482501 289.927073 
L 267.49874 294.816281 
L 268.51498 298.842667 
L 269.531219 293.642241 
L 270.547458 299.524446 
L 271.563697 302.889724 
L 273.596175 307.054968 
L 274.612415 309.196032 
L 275.628654 311.778046 
L 276.644893 313.774782 
L 277.661132 315.025562 
L 278.677371 313.061175 
L 279.693611 310.499999 
L 280.70985 313.234186 
L 281.726089 313.060642 
L 282.742328 312.406284 
L 283.758567 314.117114 
L 285.791046 315.221318 
L 286.807285 316.500733 
L 287.823524 315.679554 
L 288.839763 316.529464 
L 289.856002 314.078747 
L 290.872242 314.0841 
L 292.90472 313.057874 
L 293.920959 314.031931 
L 294.937198 313.147366 
L 295.953438 314.038097 
L 296.969677 314.502581 
L 297.985916 313.468053 
L 299.002155 312.659015 
L 300.018394 313.20805 
L 302.050873 316.053642 
L 303.067112 317.938312 
L 304.083351 320.53015 
L 305.09959 319.478241 
L 307.132069 318.992653 
L 308.148308 315.851656 
L 309.164547 316.270157 
L 310.180786 318.359996 
L 311.197025 316.480747 
L 313.229504 319.471677 
L 314.245743 318.724564 
L 315.261982 321.510968 
L 316.278221 323.07379 
L 317.29446 323.238567 
L 318.3107 324.038472 
L 319.326939 325.750048 
L 320.343178 326.836454 
L 321.359417 326.767773 
L 322.375656 327.709865 
L 323.391896 329.889251 
L 324.408135 331.108762 
L 325.424374 330.12008 
L 326.440613 329.823173 
L 327.456852 323.244813 
L 328.473092 322.09491 
L 329.489331 320.355247 
L 330.50557 315.628855 
L 331.521809 318.266105 
L 332.538048 311.790135 
L 333.554287 316.816252 
L 334.570527 310.703543 
L 335.586766 307.914675 
L 337.619244 298.490434 
L 338.635483 294.283553 
L 339.651723 289.065891 
L 340.667962 294.206679 
L 341.684201 295.021288 
L 342.70044 290.271185 
L 343.716679 291.364268 
L 344.732919 295.487504 
L 346.765397 287.093534 
L 347.781636 280.54857 
L 348.797875 279.179787 
L 349.814114 271.062929 
L 350.830354 265.637144 
L 351.846593 258.744351 
L 352.862832 263.509716 
L 353.879071 256.015641 
L 354.89531 249.674797 
L 355.91155 244.590557 
L 356.927789 238.46209 
L 357.944028 242.089716 
L 358.960267 238.701605 
L 359.976506 234.474759 
L 360.992745 233.006252 
L 362.008985 221.434454 
L 363.025224 221.171985 
L 364.041463 211.319577 
L 365.057702 221.865561 
L 366.073941 220.122599 
L 367.090181 219.970006 
L 368.10642 217.424725 
L 369.122659 216.915206 
L 370.138898 222.237162 
L 371.155137 210.35678 
L 372.171377 202.757496 
L 373.187616 207.120972 
L 374.203855 200.978158 
L 375.220094 203.190999 
L 377.252572 198.373223 
L 378.268812 210.180723 
L 379.285051 218.165735 
L 382.333768 254.759556 
L 383.350008 243.973554 
L 384.366247 244.202347 
L 385.382486 243.371465 
L 386.398725 243.638492 
L 387.414964 256.002207 
L 388.431204 264.919792 
L 391.479921 300.204243 
L 392.49616 303.640513 
L 393.512399 303.870883 
L 394.528639 302.390614 
L 395.544878 292.566585 
L 396.561117 292.844634 
L 397.577356 292.601695 
L 398.593595 295.258602 
L 399.609835 295.239512 
L 400.626074 289.662968 
L 401.642313 290.414156 
L 402.658552 292.281276 
L 403.674791 287.428181 
L 404.691031 292.844797 
L 405.70727 278.713799 
L 406.723509 278.292004 
L 407.739748 290.165769 
L 408.755987 290.25464 
L 412.820944 291.373228 
L 416.885901 339.336445 
L 417.90214 339.59488 
L 419.934618 339.302969 
L 420.950857 339.476741 
L 421.967097 339.321733 
L 422.983336 349.944922 
L 425.015814 373.514913 
L 426.032053 383.543303 
L 428.064532 405.476088 
L 429.080771 408.137124 
L 430.09701 406.841771 
L 432.129489 404.84713 
L 433.145728 404.10651 
L 434.161967 403.517181 
L 435.178206 397.040021 
L 436.194445 398.352645 
L 437.210684 397.866825 
L 450.421794 232.444738 
L 457.535468 144.763535 
L 458.551707 133.40621 
L 459.567947 129.547876 
L 460.584186 130.067828 
L 461.600425 130.72395 
L 462.616664 137.3037 
L 463.632903 136.287649 
L 464.649143 135.038161 
L 465.665382 141.540351 
L 476.844013 276.200219 
L 477.860252 277.397667 
L 478.876491 276.770891 
L 479.89273 282.918435 
L 480.908969 282.604869 
L 481.925209 283.75431 
L 482.941448 282.300098 
L 483.957687 288.221174 
L 484.973926 287.991092 
L 487.006405 285.164419 
L 488.022644 285.636553 
L 490.055122 282.728392 
L 491.071361 281.987955 
L 492.087601 280.665639 
L 493.10384 273.190328 
L 494.120079 273.012603 
L 495.136318 273.02094 
L 496.152557 265.23477 
L 499.201275 225.634832 
L 500.217514 213.356646 
L 501.233753 203.792273 
L 503.266232 180.368132 
L 505.29871 153.254586 
L 507.331188 127.23734 
L 508.347428 125.376534 
L 509.363667 125.029427 
L 510.379906 117.905376 
L 511.396145 117.608686 
L 512.412384 115.3986 
L 513.428623 115.702354 
L 514.444863 108.628868 
L 515.461102 107.706306 
L 516.477341 109.946111 
L 517.49358 117.46324 
L 519.526059 122.063398 
L 520.542298 125.078852 
L 521.558537 126.284404 
L 522.574776 126.141898 
L 524.607255 127.890702 
L 526.639733 134.977747 
L 527.655972 135.284316 
L 528.672211 134.757074 
L 529.68845 134.667444 
L 530.70469 133.917204 
L 531.720929 130.330081 
L 532.737168 128.970897 
L 533.753407 126.842378 
L 534.769646 126.844021 
L 535.785886 126.382798 
L 537.818364 124.920459 
L 538.834603 124.113781 
L 540.867081 123.149816 
L 541.883321 122.315791 
L 542.89956 123.927309 
L 545.948277 122.798828 
L 546.964517 120.393176 
L 547.980756 112.766374 
L 548.996995 108.576291 
L 551.029473 103.333692 
L 552.045713 101.659715 
L 553.061952 102.402072 
L 554.078191 103.791312 
L 555.09443 105.408381 
L 556.110669 105.249409 
L 557.126908 102.137088 
L 558.143148 104.299897 
L 561.191865 108.092574 
L 562.208104 109.244716 
L 563.224344 110.058655 
L 565.256822 112.521379 
L 566.273061 114.736657 
L 567.2893 117.744311 
L 568.30554 119.214155 
L 569.321779 119.908641 
L 570.338018 121.011225 
L 571.354257 121.664407 
L 572.370496 122.725719 
L 573.386735 121.787036 
L 577.451692 126.334431 
L 580.50041 129.800177 
L 582.532888 131.315026 
L 583.549127 131.38177 
L 585.581606 128.478183 
L 586.597845 125.701068 
L 587.614084 125.997489 
L 588.630323 123.530256 
L 591.679041 120.7724 
L 592.69528 119.962217 
L 594.727758 118.936799 
L 595.743998 118.377189 
L 596.760237 116.812776 
L 597.776476 114.456341 
L 598.792715 113.979497 
L 599.808954 114.387259 
L 600.825194 113.399681 
L 601.841433 112.703831 
L 602.857672 111.600037 
L 606.922629 111.586873 
L 607.938868 110.476773 
L 615.052542 110.425028 
L 616.068781 110.437321 
L 618.10126 111.212635 
L 619.117499 112.270784 
L 628.263652 115.936684 
L 630.29613 115.993294 
L 632.328608 118.077264 
L 633.344847 119.174789 
L 637.409804 119.130777 
L 638.426043 120.240392 
L 644.523479 120.283176 
L 655.70211 120.275173 
L 665.864501 120.416813 
L 671.961937 120.711818 
L 672.978176 121.144446 
L 673.994415 121.398018 
L 675.010654 121.511046 
L 676.026893 121.319134 
L 677.043132 120.330757 
L 678.059372 120.534104 
L 679.075611 120.958525 
L 680.09185 121.127883 
L 681.108089 121.528868 
L 682.124328 122.159693 
L 683.140568 121.229701 
L 684.156807 120.62332 
L 686.189285 118.866836 
L 688.221764 117.697028 
L 690.254242 116.849051 
L 691.270481 116.244311 
L 692.28672 116.063617 
L 693.302959 115.678506 
L 694.319199 115.096142 
L 695.335438 114.783263 
L 698.384155 113.396818 
L 699.400395 113.268827 
L 701.432873 112.651762 
L 702.449112 112.500863 
L 703.465351 112.141653 
L 704.481591 111.948953 
L 705.49783 111.995274 
L 706.514069 112.267558 
L 707.530308 113.322187 
L 708.546547 113.306894 
L 710.579026 112.986898 
L 711.595265 113.042559 
L 712.611504 112.615151 
L 713.627743 114.083063 
L 714.643982 114.943421 
L 715.660222 116.320534 
L 716.676461 117.217984 
L 718.708939 119.392914 
L 719.725178 119.985418 
L 720.741418 120.945007 
L 721.757657 122.31153 
L 722.773896 123.395133 
L 725.822613 127.227064 
L 728.871331 131.7334 
L 734.968766 139.729006 
L 737.001244 142.16236 
L 739.033723 144.69733 
L 740.049962 145.845433 
L 741.066201 147.165915 
L 742.08244 148.056703 
L 743.09868 149.210045 
L 744.114919 150.030196 
L 747.163636 153.393086 
L 747.163636 153.393086 
" clip-path="url(#pa8966059aa)" style="fill: none; stroke: #ff7f0e; stroke-width: 4; stroke-linecap: square"/>
   </g>
   <g id="line2d_31"/>
   <g id="line2d_32"/>
   <g id="patch_3">
    <path d="M 108 512.64 
L 108 69.12 
" style="fill: none; stroke: #000000; stroke-width: 0.8; stroke-linejoin: miter; stroke-linecap: square"/>
   </g>
   <g id="patch_4">
    <path d="M 777.6 512.64 
L 777.6 69.12 
" style="fill: none; stroke: #000000; stroke-width: 0.8; stroke-linejoin: miter; stroke-linecap: square"/>
   </g>
   <g id="patch_5">
    <path d="M 108 512.64 
L 777.6 512.64 
" style="fill: none; stroke: #000000; stroke-width: 0.8; stroke-linejoin: miter; stroke-linecap: square"/>
   </g>
   <g id="patch_6">
    <path d="M 108 69.12 
L 777.6 69.12 
" style="fill: none; stroke: #000000; stroke-width: 0.8; stroke-linejoin: miter; stroke-linecap: square"/>
   </g>
   <g id="text_17">
    <!-- expression -->
    <g transform="translate(280.9875 56.641875) scale(0.6 -0.6)">
     <defs>
      <path id="DejaVuSans-78" d="M 3513 3500 
L 2247 1797 
L 3578 0 
L 2900 0 
L 1881 1375 
L 863 0 
L 184 0 
L 1544 1831 
L 300 3500 
L 978 3500 
L 1906 2253 
L 2834 3500 
L 3513 3500 
z
" transform="scale(0.015625)"/>
      <path id="DejaVuSans-69" d="M 603 3500 
L 1178 3500 
L 1178 0 
L 603 0 
L 603 3500 
z
M 603 4863 
L 1178 4863 
L 1178 4134 
L 603 4134 
L 603 4863 
z
" transform="scale(0.015625)"/>
     </defs>
     <use xlink:href="#DejaVuSans-65"/>
     <use xlink:href="#DejaVuSans-78" x="59.773438"/>
     <use xlink:href="#DejaVuSans-70" x="118.953125"/>
     <use xlink:href="#DejaVuSans-72" x="182.429688"/>
     <use xlink:href="#DejaVuSans-65" x="221.292969"/>
     <use xlink:href="#DejaVuSans-73" x="282.816406"/>
     <use xlink:href="#DejaVuSans-73" x="334.916016"/>
     <use xlink:href="#DejaVuSans-69" x="387.015625"/>
     <use xlink:href="#DejaVuSans-6f" x="414.798828"/>
     <use xlink:href="#DejaVuSans-6e" x="475.980469"/>
    </g>
   </g>
   <g id="legend_1">
    <g id="patch_7">
     <path d="M 483.93125 492.64 
L 749.6 492.64 
Q 757.6 492.64 757.6 484.64 
L 757.6 371.215 
Q 757.6 363.215 749.6 363.215 
L 483.93125 363.215 
Q 475.93125 363.215 475.93125 371.215 
L 475.93125 484.64 
Q 475.93125 492.64 483.93125 492.64 
z
" style="fill: #ffffff; opacity: 0.8; stroke: #cccccc; stroke-linejoin: miter"/>
    </g>
    <g id="line2d_33">
     <path d="M 491.93125 395.60875 
L 531.93125 395.60875 
L 571.93125 395.60875 
" style="fill: none; stroke: #1f77b4; stroke-width: 4; stroke-linecap: square"/>
    </g>
    <g id="text_18">
     <!-- local -->
     <g transform="translate(603.93125 409.60875) scale(0.4 -0.4)">
      <defs>
       <path id="DejaVuSans-6c" d="M 603 4863 
L 1178 4863 
L 1178 0 
L 603 0 
L 603 4863 
z
" transform="scale(0.015625)"/>
       <path id="DejaVuSans-63" d="M 3122 3366 
L 3122 2828 
Q 2878 2963 2633 3030 
Q 2388 3097 2138 3097 
Q 1578 3097 1268 2742 
Q 959 2388 959 1747 
Q 959 1106 1268 751 
Q 1578 397 2138 397 
Q 2388 397 2633 464 
Q 2878 531 3122 666 
L 3122 134 
Q 2881 22 2623 -34 
Q 2366 -91 2075 -91 
Q 1284 -91 818 406 
Q 353 903 353 1747 
Q 353 2603 823 3093 
Q 1294 3584 2113 3584 
Q 2378 3584 2631 3529 
Q 2884 3475 3122 3366 
z
" transform="scale(0.015625)"/>
      </defs>
      <use xlink:href="#DejaVuSans-6c"/>
      <use xlink:href="#DejaVuSans-6f" x="27.783203"/>
      <use xlink:href="#DejaVuSans-63" x="88.964844"/>
      <use xlink:href="#DejaVuSans-61" x="143.945312"/>
      <use xlink:href="#DejaVuSans-6c" x="205.224609"/>
     </g>
    </g>
    <g id="line2d_34">
     <path d="M 491.93125 454.32125 
L 531.93125 454.32125 
L 571.93125 454.32125 
" style="fill: none; stroke: #ff7f0e; stroke-width: 4; stroke-linecap: square"/>
    </g>
    <g id="text_19">
     <!-- fedavg -->
     <g transform="translate(603.93125 468.32125) scale(0.4 -0.4)">
      <defs>
       <path id="DejaVuSans-66" d="M 2375 4863 
L 2375 4384 
L 1825 4384 
Q 1516 4384 1395 4259 
Q 1275 4134 1275 3809 
L 1275 3500 
L 2222 3500 
L 2222 3053 
L 1275 3053 
L 1275 0 
L 697 0 
L 697 3053 
L 147 3053 
L 147 3500 
L 697 3500 
L 697 3744 
Q 697 4328 969 4595 
Q 1241 4863 1831 4863 
L 2375 4863 
z
" transform="scale(0.015625)"/>
       <path id="DejaVuSans-64" d="M 2906 2969 
L 2906 4863 
L 3481 4863 
L 3481 0 
L 2906 0 
L 2906 525 
Q 2725 213 2448 61 
Q 2172 -91 1784 -91 
Q 1150 -91 751 415 
Q 353 922 353 1747 
Q 353 2572 751 3078 
Q 1150 3584 1784 3584 
Q 2172 3584 2448 3432 
Q 2725 3281 2906 2969 
z
M 947 1747 
Q 947 1113 1208 752 
Q 1469 391 1925 391 
Q 2381 391 2643 752 
Q 2906 1113 2906 1747 
Q 2906 2381 2643 2742 
Q 2381 3103 1925 3103 
Q 1469 3103 1208 2742 
Q 947 2381 947 1747 
z
" transform="scale(0.015625)"/>
       <path id="DejaVuSans-76" d="M 191 3500 
L 800 3500 
L 1894 563 
L 2988 3500 
L 3597 3500 
L 2284 0 
L 1503 0 
L 191 3500 
z
" transform="scale(0.015625)"/>
       <path id="DejaVuSans-67" d="M 2906 1791 
Q 2906 2416 2648 2759 
Q 2391 3103 1925 3103 
Q 1463 3103 1205 2759 
Q 947 2416 947 1791 
Q 947 1169 1205 825 
Q 1463 481 1925 481 
Q 2391 481 2648 825 
Q 2906 1169 2906 1791 
z
M 3481 434 
Q 3481 -459 3084 -895 
Q 2688 -1331 1869 -1331 
Q 1566 -1331 1297 -1286 
Q 1028 -1241 775 -1147 
L 775 -588 
Q 1028 -725 1275 -790 
Q 1522 -856 1778 -856 
Q 2344 -856 2625 -561 
Q 2906 -266 2906 331 
L 2906 616 
Q 2728 306 2450 153 
Q 2172 0 1784 0 
Q 1141 0 747 490 
Q 353 981 353 1791 
Q 353 2603 747 3093 
Q 1141 3584 1784 3584 
Q 2172 3584 2450 3431 
Q 2728 3278 2906 2969 
L 2906 3500 
L 3481 3500 
L 3481 434 
z
" transform="scale(0.015625)"/>
      </defs>
      <use xlink:href="#DejaVuSans-66"/>
      <use xlink:href="#DejaVuSans-65" x="35.205078"/>
      <use xlink:href="#DejaVuSans-64" x="96.728516"/>
      <use xlink:href="#DejaVuSans-61" x="160.205078"/>
      <use xlink:href="#DejaVuSans-76" x="221.484375"/>
      <use xlink:href="#DejaVuSans-67" x="280.664062"/>
     </g>
    </g>
   </g>
  </g>
 </g>
 <defs>
  <clipPath id="pa8966059aa">
   <rect x="108" y="69.12" width="669.6" height="443.52"/>
  </clipPath>
 </defs>
</svg>
