<svg version="1.1" viewBox="0.0 0.0 443.0 274.0" fill="none" stroke="none" stroke-linecap="square" stroke-miterlimit="10" width="443" height="274" xmlns:xlink="http://www.w3.org/1999/xlink" xmlns="http://www.w3.org/2000/svg"><path fill="#ffffff" d="M0 0L443.0 0L443.0 274.0L0 274.0L0 0Z" fill-rule="nonzero"/><path stroke="#333333" stroke-width="1.0" stroke-linecap="butt" d="M72.5 208.5L429.5 208.5" fill-rule="nonzero"/><path stroke="#cccccc" stroke-width="1.0" stroke-linecap="butt" d="M72.5 156.5L429.5 156.5" fill-rule="nonzero"/><path stroke="#cccccc" stroke-width="1.0" stroke-linecap="butt" d="M72.5 105.5L429.5 105.5" fill-rule="nonzero"/><path stroke="#cccccc" stroke-width="1.0" stroke-linecap="butt" d="M72.5 53.5L429.5 53.5" fill-rule="nonzero"/><clipPath id="id_0"><path d="M72.7 53.833332L429.3 53.833332L429.3 208.3L72.7 208.3L72.7 53.833332Z" clip-rule="nonzero"/></clipPath><path stroke="#000000" stroke-width="2.0" stroke-linecap="butt" stroke-opacity="0.0" clip-path="url(#id_0)" d="M130.0 208.0L93.0 208.0L93.0 190.0C93.0 188.89543 93.89543 188.0 95.0 188.0L128.0 188.0C129.10457 188.0 130.0 188.89543 130.0 190.0Z" fill-rule="nonzero"/><path fill="#4285f4" clip-path="url(#id_0)" d="M130.0 208.0L93.0 208.0L93.0 190.0C93.0 188.89543 93.89543 188.0 95.0 188.0L128.0 188.0C129.10457 188.0 130.0 188.89543 130.0 190.0Z" fill-rule="nonzero"/><path stroke="#000000" stroke-width="2.0" stroke-linecap="butt" stroke-opacity="0.0" clip-path="url(#id_0)" d="M186.0 208.0L149.0 208.0L149.0 116.0C149.0 114.89543 149.89543 114.0 151.0 114.0L184.0 114.0C185.10457 114.0 186.0 114.89543 186.0 116.0Z" fill-rule="nonzero"/><path fill="#4285f4" clip-path="url(#id_0)" d="M186.0 208.0L149.0 208.0L149.0 116.0C149.0 114.89543 149.89543 114.0 151.0 114.0L184.0 114.0C185.10457 114.0 186.0 114.89543 186.0 116.0Z" fill-rule="nonzero"/><path stroke="#000000" stroke-width="2.0" stroke-linecap="butt" stroke-opacity="0.0" clip-path="url(#id_0)" d="M242.0 208.0L205.0 208.0L205.0 155.0C205.0 153.89543 205.89543 153.0 207.0 153.0L240.0 153.0C241.10457 153.0 242.0 153.89543 242.0 155.0Z" fill-rule="nonzero"/><path fill="#4285f4" clip-path="url(#id_0)" d="M242.0 208.0L205.0 208.0L205.0 155.0C205.0 153.89543 205.89543 153.0 207.0 153.0L240.0 153.0C241.10457 153.0 242.0 153.89543 242.0 155.0Z" fill-rule="nonzero"/><path stroke="#000000" stroke-width="2.0" stroke-linecap="butt" stroke-opacity="0.0" clip-path="url(#id_0)" d="M298.0 208.0L261.0 208.0L261.0 61.0C261.0 59.89543 261.89542 59.0 263.0 59.0L296.0 59.0C297.10458 59.0 298.0 59.89543 298.0 61.0Z" fill-rule="nonzero"/><path fill="#4285f4" clip-path="url(#id_0)" d="M298.0 208.0L261.0 208.0L261.0 61.0C261.0 59.89543 261.89542 59.0 263.0 59.0L296.0 59.0C297.10458 59.0 298.0 59.89543 298.0 61.0Z" fill-rule="nonzero"/><path stroke="#000000" stroke-width="2.0" stroke-linecap="butt" stroke-opacity="0.0" clip-path="url(#id_0)" d="M354.0 208.0L317.0 208.0L317.0 64.0C317.0 62.89543 317.89542 62.0 319.0 62.0L352.0 62.0C353.10458 62.0 354.0 62.89543 354.0 64.0Z" fill-rule="nonzero"/><path fill="#4285f4" clip-path="url(#id_0)" d="M354.0 208.0L317.0 208.0L317.0 64.0C317.0 62.89543 317.89542 62.0 319.0 62.0L352.0 62.0C353.10458 62.0 354.0 62.89543 354.0 64.0Z" fill-rule="nonzero"/><path stroke="#000000" stroke-width="2.0" stroke-linecap="butt" stroke-opacity="0.0" clip-path="url(#id_0)" d="M410.0 208.0L373.0 208.0L373.0 180.0C373.0 178.89543 373.89542 178.0 375.0 178.0L408.0 178.0C409.10458 178.0 410.0 178.89543 410.0 180.0Z" fill-rule="nonzero"/><path fill="#4285f4" clip-path="url(#id_0)" d="M410.0 208.0L373.0 208.0L373.0 180.0C373.0 178.89543 373.89542 178.0 375.0 178.0L408.0 178.0C409.10458 178.0 410.0 178.89543 410.0 180.0Z" fill-rule="nonzero"/><path fill="#000000" d="M242.0625 254.28436L243.1875 254.58124Q242.82812 255.97186 241.90625 256.70624Q240.98438 257.4406 239.64062 257.4406Q238.25 257.4406 237.375 256.8781Q236.5 256.3156 236.04688 255.25311Q235.59375 254.17499 235.59375 252.94061Q235.59375 251.59686 236.10938 250.59686Q236.625 249.59686 237.5625 249.08124Q238.51562 248.56561 239.65625 248.56561Q240.9375 248.56561 241.8125 249.22186Q242.70312 249.87811 243.04688 251.06561L241.92188 251.33124Q241.625 250.39374 241.04688 249.97186Q240.48438 249.53436 239.625 249.53436Q238.64062 249.53436 237.96875 250.01874Q237.3125 250.48749 237.03125 251.28436Q236.76562 252.08124 236.76562 252.94061Q236.76562 254.03436 237.07812 254.84686Q237.40625 255.65936 238.07812 256.0656Q238.75 256.47186 239.54688 256.47186Q240.5 256.47186 241.15625 255.92499Q241.82812 255.37811 242.0625 254.28436ZM244.76562 257.3L244.76562 248.70624L245.82812 248.70624L245.82812 257.3L244.76562 257.3ZM247.79688 249.92499L247.79688 248.70624L248.85938 248.70624L248.85938 249.92499L247.79688 249.92499ZM247.79688 257.3L247.79688 251.08124L248.85938 251.08124L248.85938 257.3L247.79688 257.3ZM255.04688 255.29999L256.14062 255.42499Q255.89062 256.3781 255.1875 256.90936Q254.48438 257.4406 253.40625 257.4406Q252.04688 257.4406 251.23438 256.59686Q250.4375 255.75311 250.4375 254.23749Q250.4375 252.67499 251.25 251.81561Q252.0625 250.94061 253.34375 250.94061Q254.59375 250.94061 255.375 251.78436Q256.17188 252.62811 256.17188 254.17499Q256.17188 254.26874 256.17188 254.45624L251.53125 254.45624Q251.59375 255.48749 252.10938 256.03436Q252.625 256.5656 253.40625 256.5656Q253.98438 256.5656 254.39062 256.26874Q254.8125 255.95624 255.04688 255.29999ZM251.59375 253.59686L255.0625 253.59686Q255.0 252.79999 254.67188 252.40936Q254.15625 251.79999 253.35938 251.79999Q252.625 251.79999 252.125 252.28436Q251.64062 252.76874 251.59375 253.59686ZM257.79688 257.3L257.79688 251.08124L258.73438 251.08124L258.73438 251.95624Q259.42188 250.94061 260.71875 250.94061Q261.28125 250.94061 261.75 251.14374Q262.23438 251.34686 262.46875 251.67499Q262.70312 252.00311 262.79688 252.44061Q262.84375 252.73749 262.84375 253.47186L262.84375 257.3L261.79688 257.3L261.79688 253.51874Q261.79688 252.86249 261.67188 252.54999Q261.54688 252.23749 261.23438 252.04999Q260.92188 251.84686 260.5 251.84686Q259.82812 251.84686 259.32812 252.28436Q258.84375 252.70624 258.84375 253.89374L258.84375 257.3L257.79688 257.3ZM267.09375 256.3625L267.25 257.28436Q266.79688 257.3781 266.45312 257.3781Q265.875 257.3781 265.5625 257.20624Q265.25 257.01874 265.10938 256.72186Q264.98438 256.425 264.98438 255.47186L264.98438 251.89374L264.21875 251.89374L264.21875 251.08124L264.98438 251.08124L264.98438 249.53436L266.03125 248.90936L266.03125 251.08124L267.09375 251.08124L267.09375 251.89374L266.03125 251.89374L266.03125 255.53436Q266.03125 255.98749 266.07812 256.1125Q266.14062 256.2375 266.26562 256.3156Q266.39062 256.39374 266.625 256.39374Q266.8125 256.39374 267.09375 256.3625Z" fill-rule="nonzero"/><path fill="#000000" d="M24.840628 166.95729L22.356253 166.45729L22.356253 167.44167L21.481253 167.44167L21.481253 166.26979L19.356253 165.84792L19.356253 167.44167L18.481253 167.44167L18.481253 165.66042L15.965628 165.16042L15.965628 164.28542L18.481253 164.78542L18.481253 162.94167L15.965628 162.42604L15.965628 161.55104L18.481253 162.05104L18.481253 161.05104L19.356253 161.05104L19.356253 162.23854L21.481253 162.67604L21.481253 161.05104L22.356253 161.05104L22.356253 162.84792L24.840628 163.36354L24.840628 164.23854L22.356253 163.73854L22.356253 165.56667L24.840628 166.08229L24.840628 166.95729ZM21.481253 165.39479L21.481253 163.55104L19.356253 163.11354L19.356253 164.95729L21.481253 165.39479ZM21.934378 157.01979L21.840628 155.95729Q22.496878 155.87917 22.903128 155.59792Q23.309378 155.31667 23.575003 154.73854Q23.825003 154.14479 23.825003 153.41042Q23.825003 152.76979 23.637503 152.26979Q23.434378 151.76979 23.106253 151.53542Q22.762503 151.28542 22.371878 151.28542Q21.965628 151.28542 21.668753 151.51979Q21.356253 151.75417 21.153128 152.28542Q21.012503 152.64479 20.731253 153.83229Q20.450003 155.00417 20.200003 155.47292Q19.871878 156.09792 19.403128 156.39479Q18.918753 156.69167 18.325003 156.69167Q17.684378 156.69167 17.121878 156.33229Q16.543753 155.95729 16.262503 155.25417Q15.965628 154.53542 15.965628 153.67604Q15.965628 152.72292 16.278128 151.98854Q16.575003 151.25417 17.184378 150.86354Q17.778128 150.47292 18.528128 150.44167L18.606253 151.53542Q17.793753 151.62917 17.387503 152.14479Q16.965628 152.64479 16.965628 153.62917Q16.965628 154.66042 17.340628 155.12917Q17.715628 155.59792 18.246878 155.59792Q18.715628 155.59792 19.012503 155.26979Q19.309378 154.94167 19.621878 153.56667Q19.934378 152.17604 20.168753 151.66042Q20.528128 150.91042 21.059378 150.55104Q21.575003 150.19167 22.278128 150.19167Q22.965628 150.19167 23.575003 150.58229Q24.168753 150.97292 24.512503 151.70729Q24.840628 152.44167 24.840628 153.36354Q24.840628 154.53542 24.512503 155.33229Q24.168753 156.11354 23.481253 156.56667Q22.793753 157.00417 21.934378 157.01979ZM23.934378 144.70729Q24.434378 145.30104 24.637503 145.84792Q24.840628 146.37917 24.840628 147.00417Q24.840628 148.03542 24.340628 148.58229Q23.840628 149.12917 23.059378 149.12917Q22.606253 149.12917 22.231253 148.92604Q21.840628 148.72292 21.621878 148.37917Q21.387503 148.03542 21.278128 147.61354Q21.184378 147.31667 21.106253 146.67604Q20.965628 145.41042 20.746878 144.80104Q20.528128 144.80104 20.481253 144.80104Q19.825003 144.80104 19.559378 145.09792Q19.215628 145.50417 19.215628 146.30104Q19.215628 147.03542 19.481253 147.39479Q19.731253 147.75417 20.387503 147.92604L20.246878 148.95729Q19.590628 148.81667 19.184378 148.48854Q18.778128 148.16042 18.559378 147.55104Q18.340628 146.94167 18.340628 146.14479Q18.340628 145.34792 18.528128 144.84792Q18.715628 144.34792 18.996878 144.11354Q19.278128 143.87917 19.715628 143.78542Q19.981253 143.73854 20.684378 143.73854L22.090628 143.73854Q23.559378 143.73854 23.950003 143.67604Q24.340628 143.59792 24.700003 143.39479L24.700003 144.50417Q24.371878 144.66042 23.934378 144.70729ZM21.575003 144.80104Q21.809378 145.37917 21.981253 146.51979Q22.075003 147.17604 22.200003 147.44167Q22.309378 147.70729 22.528128 147.86354Q22.746878 148.00417 23.028128 148.00417Q23.450003 148.00417 23.731253 147.69167Q24.012503 147.36354 24.012503 146.75417Q24.012503 146.14479 23.746878 145.67604Q23.481253 145.19167 23.012503 144.97292Q22.653128 144.80104 21.965628 144.80104L21.575003 144.80104ZM24.700003 141.76979L18.481253 141.76979L18.481253 140.83229L19.356253 140.83229Q18.887503 140.53542 18.621878 140.05104Q18.340628 139.56667 18.340628 138.94167Q18.340628 138.25417 18.621878 137.81667Q18.903128 137.36354 19.418753 137.19167Q18.340628 136.44167 18.340628 135.26979Q18.340628 134.33229 18.856253 133.84792Q19.356253 133.34792 20.434378 133.34792L24.700003 133.34792L24.700003 134.39479L20.778128 134.39479Q20.153128 134.39479 19.871878 134.50417Q19.590628 134.59792 19.418753 134.86354Q19.246878 135.12917 19.246878 135.50417Q19.246878 136.16042 19.684378 136.59792Q20.121878 137.01979 21.090628 137.01979L24.700003 137.01979L24.700003 138.08229L20.653128 138.08229Q19.950003 138.08229 19.606253 138.34792Q19.246878 138.59792 19.246878 139.17604Q19.246878 139.62917 19.481253 140.00417Q19.715628 140.37917 20.168753 140.55104Q20.621878 140.72292 21.465628 140.72292L24.700003 140.72292L24.700003 141.76979ZM27.090628 130.76979L18.481253 130.76979L18.481253 129.81667L19.278128 129.81667Q18.809378 129.47292 18.575003 129.05104Q18.340628 128.61354 18.340628 128.00417Q18.340628 127.20729 18.746878 126.597916Q19.153128 125.98854 19.903128 125.691666Q20.653128 125.379166 21.543753 125.379166Q22.496878 125.379166 23.262503 125.722916Q24.028128 126.05104 24.434378 126.70729Q24.840628 127.36354 24.840628 128.08229Q24.840628 128.61354 24.621878 129.03542Q24.387503 129.45729 24.059378 129.72292L27.090628 129.72292L27.090628 130.76979ZM21.621878 129.81667Q22.825003 129.81667 23.403128 129.33229Q23.965628 128.84792 23.965628 128.16042Q23.965628 127.45729 23.371878 126.95729Q22.778128 126.45729 21.528128 126.45729Q20.340628 126.45729 19.762503 126.941666Q19.168753 127.42604 19.168753 128.11354Q19.168753 128.78542 19.793753 129.30104Q20.418753 129.81667 21.621878 129.81667ZM24.700003 123.80104L16.106253 123.80104L16.106253 122.73854L24.700003 122.73854L24.700003 123.80104ZM22.700003 116.51979L22.825003 115.42604Q23.778128 115.67604 24.309378 116.379166Q24.840628 117.08229 24.840628 118.160416Q24.840628 119.51979 23.996878 120.33229Q23.153128 121.129166 21.637503 121.129166Q20.075003 121.129166 19.215628 120.316666Q18.340628 119.504166 18.340628 118.222916Q18.340628 116.972916 19.184378 116.191666Q20.028128 115.39479 21.575003 115.39479Q21.668753 115.39479 21.856253 115.39479L21.856253 120.035416Q22.887503 119.972916 23.434378 119.45729Q23.965628 118.941666 23.965628 118.160416Q23.965628 117.58229 23.668753 117.17604Q23.356253 116.754166 22.700003 116.51979ZM20.996878 119.972916L20.996878 116.504166Q20.200003 116.566666 19.809378 116.89479Q19.200003 117.410416 19.200003 118.20729Q19.200003 118.941666 19.684378 119.441666Q20.168753 119.92604 20.996878 119.972916ZM22.840628 114.191666L22.684378 113.160416Q23.309378 113.066666 23.637503 112.67604Q23.965628 112.26979 23.965628 111.535416Q23.965628 110.816666 23.684378 110.472916Q23.387503 110.11354 22.981253 110.11354Q22.621878 110.11354 22.418753 110.42604Q22.278128 110.64479 22.059378 111.504166Q21.762503 112.660416 21.559378 113.11354Q21.340628 113.55104 20.965628 113.785416Q20.590628 114.01979 20.121878 114.01979Q19.715628 114.01979 19.356253 113.83229Q18.996878 113.64479 18.762503 113.316666Q18.590628 113.066666 18.465628 112.64479Q18.340628 112.222916 18.340628 111.722916Q18.340628 111.004166 18.559378 110.45729Q18.762503 109.89479 19.121878 109.629166Q19.481253 109.36354 20.075003 109.26979L20.215628 110.30104Q19.746878 110.36354 19.481253 110.70729Q19.200003 111.035416 19.200003 111.660416Q19.200003 112.379166 19.450003 112.691666Q19.684378 113.004166 20.012503 113.004166Q20.215628 113.004166 20.371878 112.879166Q20.543753 112.73854 20.653128 112.472916Q20.715628 112.316666 20.918753 111.535416Q21.231253 110.410416 21.418753 109.972916Q21.606253 109.535416 21.965628 109.285416Q22.325003 109.035416 22.871878 109.035416Q23.403128 109.035416 23.871878 109.347916Q24.325003 109.64479 24.590628 110.222916Q24.840628 110.80104 24.840628 111.535416Q24.840628 112.754166 24.340628 113.39479Q23.825003 114.01979 22.840628 114.191666Z" fill-rule="nonzero"/><path fill="#000000" d="M60.2 208.06563Q60.2 206.53438 60.5125 205.6125Q60.825 204.675 61.434376 204.175Q62.059376 203.675 62.996876 203.675Q63.684376 203.675 64.2 203.95625Q64.73125 204.2375 65.075 204.76875Q65.41875 205.28438 65.60625 206.03438Q65.79375 206.78438 65.79375 208.06563Q65.79375 209.58125 65.48125 210.50313Q65.18437 211.425 64.55937 211.94063Q63.95 212.44063 62.996876 212.44063Q61.7625 212.44063 61.04375 211.55Q60.2 210.4875 60.2 208.06563ZM61.278126 208.06563Q61.278126 210.175 61.778126 210.87813Q62.278126 211.58125 62.996876 211.58125Q63.73125 211.58125 64.21562 210.87813Q64.71562 210.175 64.71562 208.06563Q64.71562 205.94063 64.21562 205.25313Q63.73125 204.55 62.98125 204.55Q62.2625 204.55 61.825 205.15938Q61.278126 205.94063 61.278126 208.06563Z" fill-rule="nonzero"/><path fill="#000000" d="M51.746876 159.79549L51.746876 160.81111L46.059376 160.81111Q46.059376 160.43611 46.184376 160.07674Q46.403126 159.49861 46.871876 158.93611Q47.35625 158.37361 48.2625 157.63924Q49.66875 156.48299 50.153126 155.81111Q50.653126 155.13924 50.653126 154.54549Q50.653126 153.92049 50.2 153.49861Q49.746876 153.06111 49.028126 153.06111Q48.2625 153.06111 47.809376 153.51424Q47.35625 153.96736 47.340626 154.77986L46.2625 154.67049Q46.371876 153.45174 47.090626 152.82674Q47.825 152.18611 49.059376 152.18611Q50.29375 152.18611 51.0125 152.87361Q51.73125 153.56111 51.73125 154.57674Q51.73125 155.09236 51.5125 155.59236Q51.309376 156.07674 50.809376 156.63924Q50.325 157.18611 49.2 158.13924Q48.246876 158.93611 47.965626 159.23299Q47.7 159.51424 47.528126 159.79549L51.746876 159.79549ZM53.2 156.57674Q53.2 155.04549 53.5125 154.12361Q53.825 153.18611 54.434376 152.68611Q55.059376 152.18611 55.996876 152.18611Q56.684376 152.18611 57.2 152.46736Q57.73125 152.74861 58.075 153.27986Q58.41875 153.79549 58.60625 154.54549Q58.79375 155.29549 58.79375 156.57674Q58.79375 158.09236 58.48125 159.01424Q58.184376 159.93611 57.559376 160.45174Q56.95 160.95174 55.996876 160.95174Q54.7625 160.95174 54.04375 160.06111Q53.2 158.99861 53.2 156.57674ZM54.278126 156.57674Q54.278126 158.68611 54.778126 159.38924Q55.278126 160.09236 55.996876 160.09236Q56.73125 160.09236 57.215626 159.38924Q57.715626 158.68611 57.715626 156.57674Q57.715626 154.45174 57.215626 153.76424Q56.73125 153.06111 55.98125 153.06111Q55.2625 153.06111 54.825 153.67049Q54.278126 154.45174 54.278126 156.57674ZM60.2 156.57674Q60.2 155.04549 60.5125 154.12361Q60.825 153.18611 61.434376 152.68611Q62.059376 152.18611 62.996876 152.18611Q63.684376 152.18611 64.2 152.46736Q64.73125 152.74861 65.075 153.27986Q65.41875 153.79549 65.60625 154.54549Q65.79375 155.29549 65.79375 156.57674Q65.79375 158.09236 65.48125 159.01424Q65.18437 159.93611 64.55937 160.45174Q63.95 160.95174 62.996876 160.95174Q61.7625 160.95174 61.04375 160.06111Q60.2 158.99861 60.2 156.57674ZM61.278126 156.57674Q61.278126 158.68611 61.778126 159.38924Q62.278126 160.09236 62.996876 160.09236Q63.73125 160.09236 64.21562 159.38924Q64.71562 158.68611 64.71562 156.57674Q64.71562 154.45174 64.21562 153.76424Q63.73125 153.06111 62.98125 153.06111Q62.2625 153.06111 61.825 153.67049Q61.278126 154.45174 61.278126 156.57674Z" fill-rule="nonzero"/><path fill="#000000" d="M49.575 109.32222L49.575 107.25972L45.85625 107.25972L45.85625 106.29097L49.778126 100.72847L50.6375 100.72847L50.6375 106.29097L51.79375 106.29097L51.79375 107.25972L50.6375 107.25972L50.6375 109.32222L49.575 109.32222ZM49.575 106.29097L49.575 102.431595L46.8875 106.29097L49.575 106.29097ZM53.2 105.087845Q53.2 103.556595 53.5125 102.63472Q53.825 101.69722 54.434376 101.19722Q55.059376 100.69722 55.996876 100.69722Q56.684376 100.69722 57.2 100.97847Q57.73125 101.25972 58.075 101.79097Q58.41875 102.306595 58.60625 103.056595Q58.79375 103.806595 58.79375 105.087845Q58.79375 106.60347 58.48125 107.525345Q58.184376 108.44722 57.559376 108.962845Q56.95 109.462845 55.996876 109.462845Q54.7625 109.462845 54.04375 108.57222Q53.2 107.50972 53.2 105.087845ZM54.278126 105.087845Q54.278126 107.19722 54.778126 107.900345Q55.278126 108.60347 55.996876 108.60347Q56.73125 108.60347 57.215626 107.900345Q57.715626 107.19722 57.715626 105.087845Q57.715626 102.962845 57.215626 102.275345Q56.73125 101.57222 55.98125 101.57222Q55.2625 101.57222 54.825 102.181595Q54.278126 102.962845 54.278126 105.087845ZM60.2 105.087845Q60.2 103.556595 60.5125 102.63472Q60.825 101.69722 61.434376 101.19722Q62.059376 100.69722 62.996876 100.69722Q63.684376 100.69722 64.2 100.97847Q64.73125 101.25972 65.075 101.79097Q65.41875 102.306595 65.60625 103.056595Q65.79375 103.806595 65.79375 105.087845Q65.79375 106.60347 65.48125 107.525345Q65.18437 108.44722 64.55937 108.962845Q63.95 109.462845 62.996876 109.462845Q61.7625 109.462845 61.04375 108.57222Q60.2 107.50972 60.2 105.087845ZM61.278126 105.087845Q61.278126 107.19722 61.778126 107.900345Q62.278126 108.60347 62.996876 108.60347Q63.73125 108.60347 64.21562 107.900345Q64.71562 107.19722 64.71562 105.087845Q64.71562 102.962845 64.21562 102.275345Q63.73125 101.57222 62.98125 101.57222Q62.2625 101.57222 61.825 102.181595Q61.278126 102.962845 61.278126 105.087845Z" fill-rule="nonzero"/><path fill="#000000" d="M51.66875 51.348957L50.621876 51.427082Q50.48125 50.802082 50.23125 50.520832Q49.79375 50.067707 49.16875 50.067707Q48.66875 50.067707 48.278126 50.348957Q47.79375 50.723957 47.496876 51.427082Q47.215626 52.114582 47.2 53.395832Q47.575 52.817707 48.121876 52.536457Q48.684376 52.255207 49.29375 52.255207Q50.340626 52.255207 51.075 53.036457Q51.825 53.817707 51.825 55.036457Q51.825 55.848957 51.465626 56.552082Q51.121876 57.239582 50.5125 57.614582Q49.903126 57.973957 49.1375 57.973957Q47.809376 57.973957 46.98125 57.005207Q46.153126 56.036457 46.153126 53.817707Q46.153126 51.317707 47.075 50.192707Q47.871876 49.208332 49.23125 49.208332Q50.246876 49.208332 50.8875 49.786457Q51.54375 50.348957 51.66875 51.348957ZM47.371876 55.052082Q47.371876 55.598957 47.590626 56.098957Q47.825 56.583332 48.23125 56.848957Q48.653126 57.114582 49.121876 57.114582Q49.778126 57.114582 50.2625 56.583332Q50.746876 56.036457 50.746876 55.114582Q50.746876 54.223957 50.2625 53.708332Q49.79375 53.192707 49.075 53.192707Q48.35625 53.192707 47.85625 53.708332Q47.371876 54.223957 47.371876 55.052082ZM53.2 53.598957Q53.2 52.067707 53.5125 51.145832Q53.825 50.208332 54.434376 49.708332Q55.059376 49.208332 55.996876 49.208332Q56.684376 49.208332 57.2 49.489582Q57.73125 49.770832 58.075 50.302082Q58.41875 50.817707 58.60625 51.567707Q58.79375 52.317707 58.79375 53.598957Q58.79375 55.114582 58.48125 56.036457Q58.184376 56.958332 57.559376 57.473957Q56.95 57.973957 55.996876 57.973957Q54.7625 57.973957 54.04375 57.083332Q53.2 56.020832 53.2 53.598957ZM54.278126 53.598957Q54.278126 55.708332 54.778126 56.411457Q55.278126 57.114582 55.996876 57.114582Q56.73125 57.114582 57.215626 56.411457Q57.715626 55.708332 57.715626 53.598957Q57.715626 51.473957 57.215626 50.786457Q56.73125 50.083332 55.98125 50.083332Q55.2625 50.083332 54.825 50.692707Q54.278126 51.473957 54.278126 53.598957ZM60.2 53.598957Q60.2 52.067707 60.5125 51.145832Q60.825 50.208332 61.434376 49.708332Q62.059376 49.208332 62.996876 49.208332Q63.684376 49.208332 64.2 49.489582Q64.73125 49.770832 65.075 50.302082Q65.41875 50.817707 65.60625 51.567707Q65.79375 52.317707 65.79375 53.598957Q65.79375 55.114582 65.48125 56.036457Q65.18437 56.958332 64.55937 57.473957Q63.95 57.973957 62.996876 57.973957Q61.7625 57.973957 61.04375 57.083332Q60.2 56.020832 60.2 53.598957ZM61.278126 53.598957Q61.278126 55.708332 61.778126 56.411457Q62.278126 57.114582 62.996876 57.114582Q63.73125 57.114582 64.21562 56.411457Q64.71562 55.708332 64.71562 53.598957Q64.71562 51.473957 64.21562 50.786457Q63.73125 50.083332 62.98125 50.083332Q62.2625 50.083332 61.825 50.692707Q61.278126 51.473957 61.278126 53.598957Z" fill-rule="nonzero"/><path fill="#000000" d="M95.153175 222.53438L96.215675 222.44063Q96.2938 223.09688 96.57505 223.50313Q96.8563 223.90938 97.434425 224.175Q98.028175 224.425 98.76255 224.425Q99.403175 224.425 99.903175 224.2375Q100.403175 224.03438 100.63755 223.70625Q100.88755 223.3625 100.88755 222.97188Q100.88755 222.56563 100.653175 222.26875Q100.4188 221.95625 99.88755 221.75313Q99.528175 221.6125 98.340675 221.33125Q97.1688 221.05 96.70005 220.8Q96.07505 220.47188 95.778175 220.00313Q95.4813 219.51875 95.4813 218.925Q95.4813 218.28438 95.840675 217.72188Q96.215675 217.14375 96.9188 216.8625Q97.63755 216.56563 98.496925 216.56563Q99.45005 216.56563 100.184425 216.87813Q100.9188 217.175 101.309425 217.78438Q101.70005 218.37813 101.7313 219.12813L100.63755 219.20625Q100.5438 218.39375 100.028175 217.9875Q99.528175 217.56563 98.5438 217.56563Q97.51255 217.56563 97.0438 217.94063Q96.57505 218.31563 96.57505 218.84688Q96.57505 219.31563 96.903175 219.6125Q97.2313 219.90938 98.6063 220.22188Q99.996925 220.53438 100.51255 220.76875Q101.26255 221.12813 101.621925 221.65938Q101.9813 222.175 101.9813 222.87813Q101.9813 223.56563 101.590675 224.175Q101.20005 224.76875 100.465675 225.1125Q99.7313 225.44063 98.809425 225.44063Q97.63755 225.44063 96.840675 225.1125Q96.059425 224.76875 95.6063 224.08125Q95.1688 223.39375 95.153175 222.53438ZM103.403175 217.925L103.403175 216.70625L104.465675 216.70625L104.465675 217.925L103.403175 217.925ZM103.403175 225.3L103.403175 219.08125L104.465675 219.08125L104.465675 225.3L103.403175 225.3ZM108.70005 224.3625L108.8563 225.28438Q108.403175 225.37813 108.059425 225.37813Q107.4813 225.37813 107.1688 225.20625Q106.8563 225.01875 106.715675 224.72188Q106.590675 224.425 106.590675 223.47188L106.590675 219.89375L105.82505 219.89375L105.82505 219.08125L106.590675 219.08125L106.590675 217.53438L107.63755 216.90938L107.63755 219.08125L108.70005 219.08125L108.70005 219.89375L107.63755 219.89375L107.63755 223.53438Q107.63755 223.9875 107.684425 224.1125Q107.746925 224.2375 107.871925 224.31563Q107.996925 224.39375 108.2313 224.39375Q108.4188 224.39375 108.70005 224.3625ZM113.653175 223.3L114.746925 223.425Q114.496925 224.37813 113.7938 224.90938Q113.090675 225.44063 112.01255 225.44063Q110.653175 225.44063 109.840675 224.59688Q109.0438 223.75313 109.0438 222.2375Q109.0438 220.675 109.8563 219.81563Q110.6688 218.94063 111.95005 218.94063Q113.20005 218.94063 113.9813 219.78438Q114.778175 220.62813 114.778175 222.175Q114.778175 222.26875 114.778175 222.45625L110.13755 222.45625Q110.20005 223.4875 110.715675 224.03438Q111.2313 224.56563 112.01255 224.56563Q112.590675 224.56563 112.996925 224.26875Q113.4188 223.95625 113.653175 223.3ZM110.20005 221.59688L113.6688 221.59688Q113.6063 220.8 113.278175 220.40938Q112.76255 219.8 111.965675 219.8Q111.2313 219.8 110.7313 220.28438Q110.246925 220.76875 110.20005 221.59688ZM115.9813 222.72188L115.9813 221.65938L119.2313 221.65938L119.2313 222.72188L115.9813 222.72188ZM124.07505 225.3L123.028175 225.3L123.028175 218.58125Q122.63755 218.94063 122.01255 219.31563Q121.403175 219.675 120.9188 219.84688L120.9188 218.83125Q121.7938 218.40938 122.45005 217.83125Q123.121925 217.2375 123.403175 216.675L124.07505 216.675L124.07505 225.3Z" fill-rule="nonzero"/><path fill="#000000" d="M151.31065 222.53438L152.37315 222.44063Q152.45128 223.09688 152.73253 223.50313Q153.01378 223.90938 153.5919 224.175Q154.18565 224.425 154.92003 224.425Q155.56065 224.425 156.06065 224.2375Q156.56065 224.03438 156.79503 223.70625Q157.04503 223.3625 157.04503 222.97188Q157.04503 222.56563 156.81065 222.26875Q156.57628 221.95625 156.04503 221.75313Q155.68565 221.6125 154.49815 221.33125Q153.32628 221.05 152.85753 220.8Q152.23253 220.47188 151.93565 220.00313Q151.63878 219.51875 151.63878 218.925Q151.63878 218.28438 151.99815 217.72188Q152.37315 217.14375 153.07628 216.8625Q153.79503 216.56563 154.6544 216.56563Q155.60753 216.56563 156.3419 216.87813Q157.07628 217.175 157.4669 217.78438Q157.85753 218.37813 157.88878 219.12813L156.79503 219.20625Q156.70128 218.39375 156.18565 217.9875Q155.68565 217.56563 154.70128 217.56563Q153.67003 217.56563 153.20128 217.94063Q152.73253 218.31563 152.73253 218.84688Q152.73253 219.31563 153.06065 219.6125Q153.38878 219.90938 154.76378 220.22188Q156.1544 220.53438 156.67003 220.76875Q157.42003 221.12813 157.7794 221.65938Q158.13878 222.175 158.13878 222.87813Q158.13878 223.56563 157.74815 224.175Q157.35753 224.76875 156.62315 225.1125Q155.88878 225.44063 154.9669 225.44063Q153.79503 225.44063 152.99815 225.1125Q152.2169 224.76875 151.76378 224.08125Q151.32628 223.39375 151.31065 222.53438ZM159.56065 217.925L159.56065 216.70625L160.62315 216.70625L160.62315 217.925L159.56065 217.925ZM159.56065 225.3L159.56065 219.08125L160.62315 219.08125L160.62315 225.3L159.56065 225.3ZM164.85753 224.3625L165.01378 225.28438Q164.56065 225.37813 164.2169 225.37813Q163.63878 225.37813 163.32628 225.20625Q163.01378 225.01875 162.87315 224.72188Q162.74815 224.425 162.74815 223.47188L162.74815 219.89375L161.98253 219.89375L161.98253 219.08125L162.74815 219.08125L162.74815 217.53438L163.79503 216.90938L163.79503 219.08125L164.85753 219.08125L164.85753 219.89375L163.79503 219.89375L163.79503 223.53438Q163.79503 223.9875 163.8419 224.1125Q163.9044 224.2375 164.0294 224.31563Q164.1544 224.39375 164.38878 224.39375Q164.57628 224.39375 164.85753 224.3625ZM169.81065 223.3L170.9044 223.425Q170.6544 224.37813 169.95128 224.90938Q169.24815 225.44063 168.17003 225.44063Q166.81065 225.44063 165.99815 224.59688Q165.20128 223.75313 165.20128 222.2375Q165.20128 220.675 166.01378 219.81563Q166.82628 218.94063 168.10753 218.94063Q169.35753 218.94063 170.13878 219.78438Q170.93565 220.62813 170.93565 222.175Q170.93565 222.26875 170.93565 222.45625L166.29503 222.45625Q166.35753 223.4875 166.87315 224.03438Q167.38878 224.56563 168.17003 224.56563Q168.74815 224.56563 169.1544 224.26875Q169.57628 223.95625 169.81065 223.3ZM166.35753 221.59688L169.82628 221.59688Q169.76378 220.8 169.43565 220.40938Q168.92003 219.8 168.12315 219.8Q167.38878 219.8 166.88878 220.28438Q166.4044 220.76875 166.35753 221.59688ZM172.13878 222.72188L172.13878 221.65938L175.38878 221.65938L175.38878 222.72188L172.13878 222.72188ZM181.81065 224.28438L181.81065 225.3L176.12315 225.3Q176.12315 224.925 176.24815 224.56563Q176.4669 223.9875 176.93565 223.425Q177.42003 222.8625 178.32628 222.12813Q179.73253 220.97188 180.2169 220.3Q180.7169 219.62813 180.7169 219.03438Q180.7169 218.40938 180.26378 217.9875Q179.81065 217.55 179.0919 217.55Q178.32628 217.55 177.87315 218.00313Q177.42003 218.45625 177.4044 219.26875L176.32628 219.15938Q176.43565 217.94063 177.1544 217.31563Q177.88878 216.675 179.12315 216.675Q180.35753 216.675 181.07628 217.3625Q181.79503 218.05 181.79503 219.06563Q181.79503 219.58125 181.57628 220.08125Q181.37315 220.56563 180.87315 221.12813Q180.38878 221.675 179.26378 222.62813Q178.31065 223.425 178.0294 223.72188Q177.76378 224.00313 177.5919 224.28438L181.81065 224.28438Z" fill-rule="nonzero"/><path fill="#000000" d="M207.46814 222.53438L208.53064 222.44063Q208.60876 223.09688 208.89001 223.50313Q209.17126 223.90938 209.74939 224.175Q210.34314 224.425 211.07751 224.425Q211.71814 224.425 212.21814 224.2375Q212.71814 224.03438 212.95251 223.70625Q213.20251 223.3625 213.20251 222.97188Q213.20251 222.56563 212.96814 222.26875Q212.73376 221.95625 212.20251 221.75313Q211.84314 221.6125 210.65564 221.33125Q209.48376 221.05 209.01501 220.8Q208.39001 220.47188 208.09314 220.00313Q207.79626 219.51875 207.79626 218.925Q207.79626 218.28438 208.15564 217.72188Q208.53064 217.14375 209.23376 216.8625Q209.95251 216.56563 210.81189 216.56563Q211.76501 216.56563 212.49939 216.87813Q213.23376 217.175 213.62439 217.78438Q214.01501 218.37813 214.04626 219.12813L212.95251 219.20625Q212.85876 218.39375 212.34314 217.9875Q211.84314 217.56563 210.85876 217.56563Q209.82751 217.56563 209.35876 217.94063Q208.89001 218.31563 208.89001 218.84688Q208.89001 219.31563 209.21814 219.6125Q209.54626 219.90938 210.92126 220.22188Q212.31189 220.53438 212.82751 220.76875Q213.57751 221.12813 213.93689 221.65938Q214.29626 222.175 214.29626 222.87813Q214.29626 223.56563 213.90564 224.175Q213.51501 224.76875 212.78064 225.1125Q212.04626 225.44063 211.12439 225.44063Q209.95251 225.44063 209.15564 225.1125Q208.37439 224.76875 207.92126 224.08125Q207.48376 223.39375 207.46814 222.53438ZM215.71814 217.925L215.71814 216.70625L216.78064 216.70625L216.78064 217.925L215.71814 217.925ZM215.71814 225.3L215.71814 219.08125L216.78064 219.08125L216.78064 225.3L215.71814 225.3ZM221.01501 224.3625L221.17126 225.28438Q220.71814 225.37813 220.37439 225.37813Q219.79626 225.37813 219.48376 225.20625Q219.17126 225.01875 219.03064 224.72188Q218.90564 224.425 218.90564 223.47188L218.90564 219.89375L218.14001 219.89375L218.14001 219.08125L218.90564 219.08125L218.90564 217.53438L219.95251 216.90938L219.95251 219.08125L221.01501 219.08125L221.01501 219.89375L219.95251 219.89375L219.95251 223.53438Q219.95251 223.9875 219.99939 224.1125Q220.06189 224.2375 220.18689 224.31563Q220.31189 224.39375 220.54626 224.39375Q220.73376 224.39375 221.01501 224.3625ZM225.96814 223.3L227.06189 223.425Q226.81189 224.37813 226.10876 224.90938Q225.40564 225.44063 224.32751 225.44063Q222.96814 225.44063 222.15564 224.59688Q221.35876 223.75313 221.35876 222.2375Q221.35876 220.675 222.17126 219.81563Q222.98376 218.94063 224.26501 218.94063Q225.51501 218.94063 226.29626 219.78438Q227.09314 220.62813 227.09314 222.175Q227.09314 222.26875 227.09314 222.45625L222.45251 222.45625Q222.51501 223.4875 223.03064 224.03438Q223.54626 224.56563 224.32751 224.56563Q224.90564 224.56563 225.31189 224.26875Q225.73376 223.95625 225.96814 223.3ZM222.51501 221.59688L225.98376 221.59688Q225.92126 220.8 225.59314 220.40938Q225.07751 219.8 224.28064 219.8Q223.54626 219.8 223.04626 220.28438Q222.56189 220.76875 222.51501 221.59688ZM228.29626 222.72188L228.29626 221.65938L231.54626 221.65938L231.54626 222.72188L228.29626 222.72188ZM232.42126 223.03438L233.48376 222.89375Q233.65564 223.78438 234.09314 224.19063Q234.53064 224.58125 235.15564 224.58125Q235.90564 224.58125 236.42126 224.06563Q236.93689 223.55 236.93689 222.78438Q236.93689 222.06563 236.45251 221.59688Q235.98376 221.1125 235.24939 221.1125Q234.95251 221.1125 234.49939 221.2375L234.62439 220.3Q234.73376 220.31563 234.79626 220.31563Q235.46814 220.31563 235.99939 219.97188Q236.54626 219.6125 236.54626 218.87813Q236.54626 218.3 236.15564 217.925Q235.76501 217.53438 235.14001 217.53438Q234.53064 217.53438 234.10876 217.925Q233.70251 218.31563 233.59314 219.08125L232.53064 218.89375Q232.71814 217.84688 233.40564 217.26875Q234.09314 216.675 235.10876 216.675Q235.81189 216.675 236.40564 216.9875Q236.99939 217.28438 237.31189 217.8Q237.62439 218.31563 237.62439 218.90938Q237.62439 219.45625 237.32751 219.925Q237.03064 220.37813 236.45251 220.64375Q237.20251 220.81563 237.62439 221.37813Q238.04626 221.925 238.04626 222.76875Q238.04626 223.89375 237.21814 224.675Q236.40564 225.45625 235.15564 225.45625Q234.03064 225.45625 233.28064 224.78438Q232.53064 224.09688 232.42126 223.03438Z" fill-rule="nonzero"/><path fill="#000000" d="M263.6256 222.53438L264.6881 222.44063Q264.76624 223.09688 265.0475 223.50313Q265.32874 223.90938 265.90686 224.175Q266.5006 224.425 267.235 224.425Q267.8756 224.425 268.3756 224.2375Q268.8756 224.03438 269.11 223.70625Q269.36 223.3625 269.36 222.97188Q269.36 222.56563 269.1256 222.26875Q268.89124 221.95625 268.36 221.75313Q268.0006 221.6125 266.8131 221.33125Q265.64124 221.05 265.1725 220.8Q264.5475 220.47188 264.2506 220.00313Q263.95374 219.51875 263.95374 218.925Q263.95374 218.28438 264.3131 217.72188Q264.6881 217.14375 265.39124 216.8625Q266.11 216.56563 266.96936 216.56563Q267.9225 216.56563 268.65686 216.87813Q269.39124 217.175 269.78186 217.78438Q270.1725 218.37813 270.20374 219.12813L269.11 219.20625Q269.01624 218.39375 268.5006 217.9875Q268.0006 217.56563 267.01624 217.56563Q265.985 217.56563 265.51624 217.94063Q265.0475 218.31563 265.0475 218.84688Q265.0475 219.31563 265.3756 219.6125Q265.70374 219.90938 267.07874 220.22188Q268.46936 220.53438 268.985 220.76875Q269.735 221.12813 270.09436 221.65938Q270.45374 222.175 270.45374 222.87813Q270.45374 223.56563 270.0631 224.175Q269.6725 224.76875 268.9381 225.1125Q268.20374 225.44063 267.28186 225.44063Q266.11 225.44063 265.3131 225.1125Q264.53186 224.76875 264.07874 224.08125Q263.64124 223.39375 263.6256 222.53438ZM271.8756 217.925L271.8756 216.70625L272.9381 216.70625L272.9381 217.925L271.8756 217.925ZM271.8756 225.3L271.8756 219.08125L272.9381 219.08125L272.9381 225.3L271.8756 225.3ZM277.1725 224.3625L277.32874 225.28438Q276.8756 225.37813 276.53186 225.37813Q275.95374 225.37813 275.64124 225.20625Q275.32874 225.01875 275.1881 224.72188Q275.0631 224.425 275.0631 223.47188L275.0631 219.89375L274.2975 219.89375L274.2975 219.08125L275.0631 219.08125L275.0631 217.53438L276.11 216.90938L276.11 219.08125L277.1725 219.08125L277.1725 219.89375L276.11 219.89375L276.11 223.53438Q276.11 223.9875 276.15686 224.1125Q276.21936 224.2375 276.34436 224.31563Q276.46936 224.39375 276.70374 224.39375Q276.89124 224.39375 277.1725 224.3625ZM282.1256 223.3L283.21936 223.425Q282.96936 224.37813 282.26624 224.90938Q281.5631 225.44063 280.485 225.44063Q279.1256 225.44063 278.3131 224.59688Q277.51624 223.75313 277.51624 222.2375Q277.51624 220.675 278.32874 219.81563Q279.14124 218.94063 280.4225 218.94063Q281.6725 218.94063 282.45374 219.78438Q283.2506 220.62813 283.2506 222.175Q283.2506 222.26875 283.2506 222.45625L278.61 222.45625Q278.6725 223.4875 279.1881 224.03438Q279.70374 224.56563 280.485 224.56563Q281.0631 224.56563 281.46936 224.26875Q281.89124 223.95625 282.1256 223.3ZM278.6725 221.59688L282.14124 221.59688Q282.07874 220.8 281.7506 220.40938Q281.235 219.8 280.4381 219.8Q279.70374 219.8 279.20374 220.28438Q278.71936 220.76875 278.6725 221.59688ZM284.45374 222.72188L284.45374 221.65938L287.70374 221.65938L287.70374 222.72188L284.45374 222.72188ZM291.95374 225.3L291.95374 223.2375L288.235 223.2375L288.235 222.26875L292.15686 216.70625L293.01624 216.70625L293.01624 222.26875L294.1725 222.26875L294.1725 223.2375L293.01624 223.2375L293.01624 225.3L291.95374 225.3ZM291.95374 222.26875L291.95374 218.40938L289.26624 222.26875L291.95374 222.26875Z" fill-rule="nonzero"/><path fill="#000000" d="M319.78308 222.53438L320.84558 222.44063Q320.9237 223.09688 321.20496 223.50313Q321.4862 223.90938 322.06433 224.175Q322.65808 224.425 323.39246 224.425Q324.03308 224.425 324.53308 224.2375Q325.03308 224.03438 325.26746 223.70625Q325.51746 223.3625 325.51746 222.97188Q325.51746 222.56563 325.28308 222.26875Q325.0487 221.95625 324.51746 221.75313Q324.15808 221.6125 322.97058 221.33125Q321.7987 221.05 321.32996 220.8Q320.70496 220.47188 320.40808 220.00313Q320.1112 219.51875 320.1112 218.925Q320.1112 218.28438 320.47058 217.72188Q320.84558 217.14375 321.5487 216.8625Q322.26746 216.56563 323.12683 216.56563Q324.07996 216.56563 324.81433 216.87813Q325.5487 217.175 325.93933 217.78438Q326.32996 218.37813 326.3612 219.12813L325.26746 219.20625Q325.1737 218.39375 324.65808 217.9875Q324.15808 217.56563 323.1737 217.56563Q322.14246 217.56563 321.6737 217.94063Q321.20496 218.31563 321.20496 218.84688Q321.20496 219.31563 321.53308 219.6125Q321.8612 219.90938 323.2362 220.22188Q324.62683 220.53438 325.14246 220.76875Q325.89246 221.12813 326.25183 221.65938Q326.6112 222.175 326.6112 222.87813Q326.6112 223.56563 326.22058 224.175Q325.82996 224.76875 325.09558 225.1125Q324.3612 225.44063 323.43933 225.44063Q322.26746 225.44063 321.47058 225.1125Q320.68933 224.76875 320.2362 224.08125Q319.7987 223.39375 319.78308 222.53438ZM328.03308 217.925L328.03308 216.70625L329.09558 216.70625L329.09558 217.925L328.03308 217.925ZM328.03308 225.3L328.03308 219.08125L329.09558 219.08125L329.09558 225.3L328.03308 225.3ZM333.32996 224.3625L333.4862 225.28438Q333.03308 225.37813 332.68933 225.37813Q332.1112 225.37813 331.7987 225.20625Q331.4862 225.01875 331.34558 224.72188Q331.22058 224.425 331.22058 223.47188L331.22058 219.89375L330.45496 219.89375L330.45496 219.08125L331.22058 219.08125L331.22058 217.53438L332.26746 216.90938L332.26746 219.08125L333.32996 219.08125L333.32996 219.89375L332.26746 219.89375L332.26746 223.53438Q332.26746 223.9875 332.31433 224.1125Q332.37683 224.2375 332.50183 224.31563Q332.62683 224.39375 332.8612 224.39375Q333.0487 224.39375 333.32996 224.3625ZM338.28308 223.3L339.37683 223.425Q339.12683 224.37813 338.4237 224.90938Q337.72058 225.44063 336.64246 225.44063Q335.28308 225.44063 334.47058 224.59688Q333.6737 223.75313 333.6737 222.2375Q333.6737 220.675 334.4862 219.81563Q335.2987 218.94063 336.57996 218.94063Q337.82996 218.94063 338.6112 219.78438Q339.40808 220.62813 339.40808 222.175Q339.40808 222.26875 339.40808 222.45625L334.76746 222.45625Q334.82996 223.4875 335.34558 224.03438Q335.8612 224.56563 336.64246 224.56563Q337.22058 224.56563 337.62683 224.26875Q338.0487 223.95625 338.28308 223.3ZM334.82996 221.59688L338.2987 221.59688Q338.2362 220.8 337.90808 220.40938Q337.39246 219.8 336.59558 219.8Q335.8612 219.8 335.3612 220.28438Q334.87683 220.76875 334.82996 221.59688ZM340.6112 222.72188L340.6112 221.65938L343.8612 221.65938L343.8612 222.72188L340.6112 222.72188ZM344.7362 223.05L345.84558 222.95625Q345.97058 223.76875 346.40808 224.175Q346.8612 224.58125 347.50183 224.58125Q348.25183 224.58125 348.78308 224.00313Q349.31433 223.425 349.31433 222.4875Q349.31433 221.58125 348.7987 221.06563Q348.2987 220.53438 347.47058 220.53438Q346.97058 220.53438 346.5487 220.76875Q346.14246 221.00313 345.90808 221.3625L344.9237 221.2375L345.75183 216.83125L350.03308 216.83125L350.03308 217.83125L346.59558 217.83125L346.14246 220.14375Q346.90808 219.59688 347.75183 219.59688Q348.87683 219.59688 349.64246 220.37813Q350.4237 221.15938 350.4237 222.39375Q350.4237 223.55 349.75183 224.40938Q348.9237 225.44063 347.50183 225.44063Q346.32996 225.44063 345.57996 224.78438Q344.84558 224.12813 344.7362 223.05Z" fill-rule="nonzero"/><path fill="#000000" d="M375.94058 222.53438L377.00308 222.44063Q377.0812 223.09688 377.36246 223.50313Q377.6437 223.90938 378.22183 224.175Q378.81558 224.425 379.54996 224.425Q380.19058 224.425 380.69058 224.2375Q381.19058 224.03438 381.42496 223.70625Q381.67496 223.3625 381.67496 222.97188Q381.67496 222.56563 381.44058 222.26875Q381.2062 221.95625 380.67496 221.75313Q380.31558 221.6125 379.12808 221.33125Q377.9562 221.05 377.48746 220.8Q376.86246 220.47188 376.56558 220.00313Q376.2687 219.51875 376.2687 218.925Q376.2687 218.28438 376.62808 217.72188Q377.00308 217.14375 377.7062 216.8625Q378.42496 216.56563 379.28433 216.56563Q380.23746 216.56563 380.97183 216.87813Q381.7062 217.175 382.09683 217.78438Q382.48746 218.37813 382.5187 219.12813L381.42496 219.20625Q381.3312 218.39375 380.81558 217.9875Q380.31558 217.56563 379.3312 217.56563Q378.29996 217.56563 377.8312 217.94063Q377.36246 218.31563 377.36246 218.84688Q377.36246 219.31563 377.69058 219.6125Q378.0187 219.90938 379.3937 220.22188Q380.78433 220.53438 381.29996 220.76875Q382.04996 221.12813 382.40933 221.65938Q382.7687 222.175 382.7687 222.87813Q382.7687 223.56563 382.37808 224.175Q381.98746 224.76875 381.25308 225.1125Q380.5187 225.44063 379.59683 225.44063Q378.42496 225.44063 377.62808 225.1125Q376.84683 224.76875 376.3937 224.08125Q375.9562 223.39375 375.94058 222.53438ZM384.19058 217.925L384.19058 216.70625L385.25308 216.70625L385.25308 217.925L384.19058 217.925ZM384.19058 225.3L384.19058 219.08125L385.25308 219.08125L385.25308 225.3L384.19058 225.3ZM389.48746 224.3625L389.6437 225.28438Q389.19058 225.37813 388.84683 225.37813Q388.2687 225.37813 387.9562 225.20625Q387.6437 225.01875 387.50308 224.72188Q387.37808 224.425 387.37808 223.47188L387.37808 219.89375L386.61246 219.89375L386.61246 219.08125L387.37808 219.08125L387.37808 217.53438L388.42496 216.90938L388.42496 219.08125L389.48746 219.08125L389.48746 219.89375L388.42496 219.89375L388.42496 223.53438Q388.42496 223.9875 388.47183 224.1125Q388.53433 224.2375 388.65933 224.31563Q388.78433 224.39375 389.0187 224.39375Q389.2062 224.39375 389.48746 224.3625ZM394.44058 223.3L395.53433 223.425Q395.28433 224.37813 394.5812 224.90938Q393.87808 225.44063 392.79996 225.44063Q391.44058 225.44063 390.62808 224.59688Q389.8312 223.75313 389.8312 222.2375Q389.8312 220.675 390.6437 219.81563Q391.4562 218.94063 392.73746 218.94063Q393.98746 218.94063 394.7687 219.78438Q395.56558 220.62813 395.56558 222.175Q395.56558 222.26875 395.56558 222.45625L390.92496 222.45625Q390.98746 223.4875 391.50308 224.03438Q392.0187 224.56563 392.79996 224.56563Q393.37808 224.56563 393.78433 224.26875Q394.2062 223.95625 394.44058 223.3ZM390.98746 221.59688L394.4562 221.59688Q394.3937 220.8 394.06558 220.40938Q393.54996 219.8 392.75308 219.8Q392.0187 219.8 391.5187 220.28438Q391.03433 220.76875 390.98746 221.59688ZM396.7687 222.72188L396.7687 221.65938L400.0187 221.65938L400.0187 222.72188L396.7687 222.72188ZM406.36246 218.81563L405.31558 218.89375Q405.17496 218.26875 404.92496 217.9875Q404.48746 217.53438 403.86246 217.53438Q403.36246 217.53438 402.97183 217.81563Q402.48746 218.19063 402.19058 218.89375Q401.90933 219.58125 401.8937 220.8625Q402.2687 220.28438 402.81558 220.00313Q403.37808 219.72188 403.98746 219.72188Q405.03433 219.72188 405.7687 220.50313Q406.5187 221.28438 406.5187 222.50313Q406.5187 223.31563 406.15933 224.01875Q405.81558 224.70625 405.2062 225.08125Q404.59683 225.44063 403.8312 225.44063Q402.50308 225.44063 401.67496 224.47188Q400.84683 223.50313 400.84683 221.28438Q400.84683 218.78438 401.7687 217.65938Q402.56558 216.675 403.92496 216.675Q404.94058 216.675 405.5812 217.25313Q406.23746 217.81563 406.36246 218.81563ZM402.06558 222.51875Q402.06558 223.06563 402.28433 223.56563Q402.5187 224.05 402.92496 224.31563Q403.34683 224.58125 403.81558 224.58125Q404.47183 224.58125 404.9562 224.05Q405.44058 223.50313 405.44058 222.58125Q405.44058 221.69063 404.9562 221.175Q404.48746 220.65938 403.7687 220.65938Q403.04996 220.65938 402.54996 221.175Q402.06558 221.69063 402.06558 222.51875Z" fill-rule="nonzero"/><path fill="#757575" d="M13.66875 32.7L19.16875 18.3875L21.215626 18.3875L27.075 32.7L24.91875 32.7L23.246876 28.35625L17.2625 28.35625L15.684375 32.7L13.66875 32.7ZM17.809376 26.825L22.653126 26.825L21.16875 22.85625Q20.48125 21.04375 20.153126 19.8875Q19.871876 21.2625 19.371876 22.621876L17.809376 26.825ZM27.98125 32.7L27.98125 18.3875L29.73125 18.3875L29.73125 32.7L27.98125 32.7ZM32.0125 36.66875L32.0125 22.325L33.621876 22.325L33.621876 23.66875Q34.184376 22.8875 34.8875 22.496876Q35.60625 22.090626 36.621876 22.090626Q37.95 22.090626 38.965626 22.778126Q39.98125 23.465626 40.496876 24.715626Q41.028126 25.95 41.028126 27.434376Q41.028126 29.028126 40.45 30.309376Q39.8875 31.575 38.79375 32.2625Q37.7 32.934376 36.496876 32.934376Q35.621876 32.934376 34.91875 32.559376Q34.23125 32.184376 33.778126 31.621876L33.778126 36.66875L32.0125 36.66875ZM33.60625 27.575Q33.60625 29.575 34.41875 30.528126Q35.23125 31.48125 36.3875 31.48125Q37.559376 31.48125 38.3875 30.496876Q39.23125 29.5125 39.23125 27.41875Q39.23125 25.45 38.403126 24.465626Q37.590626 23.465626 36.465626 23.465626Q35.340626 23.465626 34.465626 24.528126Q33.60625 25.575 33.60625 27.575ZM43.0125 32.7L43.0125 18.3875L44.778126 18.3875L44.778126 23.5125Q46.0125 22.090626 47.8875 22.090626Q49.028126 22.090626 49.871876 22.54375Q50.73125 22.996876 51.090626 23.809376Q51.465626 24.60625 51.465626 26.121876L51.465626 32.7L49.715626 32.7L49.715626 26.121876Q49.715626 24.809376 49.1375 24.215626Q48.559376 23.60625 47.528126 23.60625Q46.746876 23.60625 46.04375 24.0125Q45.35625 24.41875 45.059376 25.121876Q44.778126 25.809376 44.778126 27.028126L44.778126 32.7L43.0125 32.7ZM59.79375 31.41875Q58.809376 32.246876 57.903126 32.590626Q56.996876 32.934376 55.965626 32.934376Q54.2625 32.934376 53.340626 32.10625Q52.41875 31.2625 52.41875 29.965626Q52.41875 29.2 52.7625 28.575Q53.121876 27.95 53.684376 27.575Q54.246876 27.184376 54.95 26.98125Q55.465626 26.85625 56.5125 26.715626Q58.6375 26.465626 59.6375 26.121876Q59.653126 25.7625 59.653126 25.653126Q59.653126 24.590626 59.153126 24.1375Q58.48125 23.54375 57.153126 23.54375Q55.903126 23.54375 55.309376 23.98125Q54.73125 24.41875 54.45 25.528126L52.73125 25.29375Q52.965626 24.184376 53.496876 23.5125Q54.028126 22.825 55.04375 22.465626Q56.059376 22.090626 57.403126 22.090626Q58.73125 22.090626 59.559376 22.403126Q60.3875 22.715626 60.778126 23.2Q61.16875 23.66875 61.325 24.3875Q61.41875 24.840626 61.41875 26.0125L61.41875 28.35625Q61.41875 30.809376 61.528126 31.465626Q61.6375 32.10625 61.98125 32.7L60.1375 32.7Q59.871876 32.153126 59.79375 31.41875ZM59.6375 27.496876Q58.684376 27.8875 56.7625 28.153126Q55.684376 28.309376 55.23125 28.5125Q54.79375 28.7 54.54375 29.075Q54.29375 29.45 54.29375 29.91875Q54.29375 30.621876 54.825 31.090626Q55.35625 31.559376 56.3875 31.559376Q57.403126 31.559376 58.184376 31.121876Q58.98125 30.66875 59.35625 29.903126Q59.6375 29.29375 59.6375 28.1375L59.6375 27.496876ZM76.15312 32.7L74.3875 32.7L74.3875 21.496876Q73.7625 22.10625 72.73125 22.715626Q71.7 23.309376 70.87187 23.621876L70.87187 21.91875Q72.35625 21.23125 73.45 20.246876Q74.55937 19.246876 75.0125 18.325L76.15312 18.325L76.15312 32.7ZM81.5125 32.7L81.5125 30.7L83.5125 30.7L83.5125 32.7L81.5125 32.7ZM86.52812 25.6375Q86.52812 23.10625 87.04375 21.559376Q87.575 19.996876 88.60625 19.16875Q89.6375 18.325 91.2 18.325Q92.35625 18.325 93.21562 18.79375Q94.09062 19.246876 94.65312 20.121876Q95.21562 20.996876 95.54375 22.2625Q95.87187 23.5125 95.87187 25.6375Q95.87187 28.153126 95.34062 29.7Q94.825 31.246876 93.79375 32.10625Q92.77812 32.95 91.2 32.95Q89.12187 32.95 87.95 31.465626Q86.52812 29.66875 86.52812 25.6375ZM88.34062 25.6375Q88.34062 29.16875 89.15312 30.340626Q89.98125 31.496876 91.2 31.496876Q92.40312 31.496876 93.23125 30.325Q94.05937 29.153126 94.05937 25.6375Q94.05937 22.10625 93.23125 20.95Q92.40312 19.778126 91.18437 19.778126Q89.96562 19.778126 89.24687 20.809376Q88.34062 22.10625 88.34062 25.6375ZM107.37187 36.903126Q105.91875 35.075 104.91875 32.621876Q103.91875 30.153126 103.91875 27.5125Q103.91875 25.184376 104.66875 23.059376Q105.54375 20.590626 107.37187 18.1375L108.6375 18.1375Q107.45 20.16875 107.075 21.04375Q106.48125 22.3875 106.1375 23.85625Q105.71562 25.684376 105.71562 27.528126Q105.71562 32.215626 108.6375 36.903126L107.37187 36.903126ZM109.66875 32.7L115.16875 18.3875L117.21562 18.3875L123.075 32.7L120.91875 32.7L119.24687 28.35625L113.2625 28.35625L111.68437 32.7L109.66875 32.7ZM113.80937 26.825L118.65312 26.825L117.16875 22.85625Q116.48125 21.04375 116.15312 19.8875Q115.87187 21.2625 115.37187 22.621876L113.80937 26.825ZM126.90312 32.7L122.95 22.325L124.80937 22.325L127.04375 28.54375Q127.40312 29.54375 127.7 30.621876Q127.93437 29.809376 128.35625 28.653126L130.65312 22.325L132.46562 22.325L128.54375 32.7L126.90312 32.7ZM132.7 33.559376L134.40312 33.809376Q134.5125 34.60625 134.99687 34.965626Q135.65312 35.45 136.79375 35.45Q138.0125 35.45 138.66875 34.965626Q139.34062 34.48125 139.575 33.60625Q139.71562 33.059376 139.7 31.340626Q138.54375 32.7 136.825 32.7Q134.68437 32.7 133.5125 31.153126Q132.34062 29.60625 132.34062 27.45Q132.34062 25.965626 132.87187 24.715626Q133.41875 23.465626 134.43437 22.778126Q135.46562 22.090626 136.84062 22.090626Q138.66875 22.090626 139.87187 23.575L139.87187 22.325L141.48125 22.325L141.48125 31.29375Q141.48125 33.715626 140.98125 34.715626Q140.49687 35.73125 139.41875 36.309376Q138.35625 36.903126 136.79375 36.903126Q134.95 36.903126 133.79375 36.075Q132.65312 35.246876 132.7 33.559376ZM134.15312 27.325Q134.15312 29.371876 134.96562 30.309376Q135.77812 31.246876 136.99687 31.246876Q138.2 31.246876 139.0125 30.309376Q139.84062 29.371876 139.84062 27.3875Q139.84062 25.48125 138.99687 24.5125Q138.15312 23.54375 136.96562 23.54375Q135.79375 23.54375 134.96562 24.496876Q134.15312 25.45 134.15312 27.325ZM144.5125 32.7L144.5125 30.7L146.5125 30.7L146.5125 32.7L144.5125 32.7ZM155.37187 27.5125Q155.37187 24.6375 156.96562 23.246876Q158.30937 22.090626 160.23125 22.090626Q162.37187 22.090626 163.71562 23.496876Q165.075 24.903126 165.075 27.371876Q165.075 29.371876 164.48125 30.528126Q163.8875 31.66875 162.73125 32.309376Q161.59062 32.934376 160.23125 32.934376Q158.04375 32.934376 156.7 31.54375Q155.37187 30.1375 155.37187 27.5125ZM157.16875 27.5125Q157.16875 29.5125 158.02812 30.496876Q158.90312 31.48125 160.23125 31.48125Q161.54375 31.48125 162.40312 30.496876Q163.27812 29.496876 163.27812 27.45Q163.27812 25.528126 162.40312 24.54375Q161.52812 23.54375 160.23125 23.54375Q158.90312 23.54375 158.02812 24.54375Q157.16875 25.528126 157.16875 27.5125ZM169.90312 32.7L165.95 22.325L167.80937 22.325L170.04375 28.54375Q170.40312 29.54375 170.7 30.621876Q170.93437 29.809376 171.35625 28.653126L173.65312 22.325L175.46562 22.325L171.54375 32.7L169.90312 32.7ZM183.12187 29.35625L184.93437 29.590626Q184.5125 31.16875 183.34062 32.059376Q182.18437 32.934376 180.37187 32.934376Q178.10625 32.934376 176.7625 31.54375Q175.43437 30.1375 175.43437 27.60625Q175.43437 24.98125 176.77812 23.54375Q178.12187 22.090626 180.27812 22.090626Q182.35625 22.090626 183.66875 23.5125Q184.99687 24.91875 184.99687 27.496876Q184.99687 27.653126 184.98125 27.965626L177.24687 27.965626Q177.34062 29.66875 178.21562 30.575Q179.09062 31.48125 180.3875 31.48125Q181.35625 31.48125 182.02812 30.98125Q182.71562 30.465626 183.12187 29.35625ZM177.34062 26.5125L183.1375 26.5125Q183.02812 25.215626 182.48125 24.559376Q181.6375 23.54375 180.29375 23.54375Q179.09062 23.54375 178.2625 24.35625Q177.43437 25.153126 177.34062 26.5125ZM186.99687 32.7L186.99687 22.325L188.575 22.325L188.575 23.903126Q189.18437 22.79375 189.7 22.45Q190.21562 22.090626 190.825 22.090626Q191.71562 22.090626 192.6375 22.653126L192.02812 24.29375Q191.3875 23.903126 190.74687 23.903126Q190.16875 23.903126 189.7 24.2625Q189.24687 24.60625 189.04375 25.215626Q188.7625 26.153126 188.7625 27.2625L188.7625 32.7L186.99687 32.7ZM193.98125 32.7L193.98125 18.3875L195.73125 18.3875L195.73125 32.7L193.98125 32.7ZM204.79375 31.41875Q203.80937 32.246876 202.90312 32.590626Q201.99687 32.934376 200.96562 32.934376Q199.2625 32.934376 198.34062 32.10625Q197.41875 31.2625 197.41875 29.965626Q197.41875 29.2 197.7625 28.575Q198.12187 27.95 198.68437 27.575Q199.24687 27.184376 199.95 26.98125Q200.46562 26.85625 201.5125 26.715626Q203.6375 26.465626 204.6375 26.121876Q204.65312 25.7625 204.65312 25.653126Q204.65312 24.590626 204.15312 24.1375Q203.48125 23.54375 202.15312 23.54375Q200.90312 23.54375 200.30937 23.98125Q199.73125 24.41875 199.45 25.528126L197.73125 25.29375Q197.96562 24.184376 198.49687 23.5125Q199.02812 22.825 200.04375 22.465626Q201.05937 22.090626 202.40312 22.090626Q203.73125 22.090626 204.55937 22.403126Q205.3875 22.715626 205.77812 23.2Q206.16875 23.66875 206.325 24.3875Q206.41875 24.840626 206.41875 26.0125L206.41875 28.35625Q206.41875 30.809376 206.52812 31.465626Q206.6375 32.10625 206.98125 32.7L205.1375 32.7Q204.87187 32.153126 204.79375 31.41875ZM204.6375 27.496876Q203.68437 27.8875 201.7625 28.153126Q200.68437 28.309376 200.23125 28.5125Q199.79375 28.7 199.54375 29.075Q199.29375 29.45 199.29375 29.91875Q199.29375 30.621876 199.825 31.090626Q200.35625 31.559376 201.3875 31.559376Q202.40312 31.559376 203.18437 31.121876Q203.98125 30.66875 204.35625 29.903126Q204.6375 29.29375 204.6375 28.1375L204.6375 27.496876ZM209.0125 36.66875L209.0125 22.325L210.62187 22.325L210.62187 23.66875Q211.18437 22.8875 211.8875 22.496876Q212.60625 22.090626 213.62187 22.090626Q214.95 22.090626 215.96562 22.778126Q216.98125 23.465626 217.49687 24.715626Q218.02812 25.95 218.02812 27.434376Q218.02812 29.028126 217.45 30.309376Q216.8875 31.575 215.79375 32.2625Q214.7 32.934376 213.49687 32.934376Q212.62187 32.934376 211.91875 32.559376Q211.23125 32.184376 210.77812 31.621876L210.77812 36.66875L209.0125 36.66875ZM210.60625 27.575Q210.60625 29.575 211.41875 30.528126Q212.23125 31.48125 213.3875 31.48125Q214.55937 31.48125 215.3875 30.496876Q216.23125 29.5125 216.23125 27.41875Q216.23125 25.45 215.40312 24.465626Q214.59062 23.465626 213.46562 23.465626Q212.34062 23.465626 211.46562 24.528126Q210.60625 25.575 210.60625 27.575ZM220.5125 24.325L220.5125 22.325L222.5125 22.325L222.5125 24.325L220.5125 24.325ZM220.5125 32.7L220.5125 30.7L222.5125 30.7L222.5125 32.7L220.5125 32.7ZM238.15312 32.7L236.3875 32.7L236.3875 21.496876Q235.7625 22.10625 234.73125 22.715626Q233.7 23.309376 232.87187 23.621876L232.87187 21.91875Q234.35625 21.23125 235.45 20.246876Q236.55937 19.246876 237.0125 18.325L238.15312 18.325L238.15312 32.7ZM248.16875 32.7L248.16875 29.278126L241.95 29.278126L241.95 27.653126L248.48125 18.3875L249.91875 18.3875L249.91875 27.653126L251.85625 27.653126L251.85625 29.278126L249.91875 29.278126L249.91875 32.7L248.16875 32.7ZM248.16875 27.653126L248.16875 21.2L243.68437 27.653126L248.16875 27.653126ZM254.5125 32.7L254.5125 30.7L256.5125 30.7L256.5125 32.7L254.5125 32.7ZM268.7625 31.0125L268.7625 32.7L259.3094 32.7Q259.29376 32.059376 259.5125 31.48125Q259.8719 30.5125 260.66876 29.575Q261.46564 28.6375 262.96564 27.403126Q265.3094 25.496876 266.1219 24.3875Q266.95 23.2625 266.95 22.2625Q266.95 21.215626 266.2 20.496876Q265.45 19.778126 264.2469 19.778126Q262.98126 19.778126 262.21564 20.54375Q261.45 21.309376 261.45 22.653126L259.6375 22.465626Q259.825 20.45 261.02814 19.3875Q262.2469 18.325 264.29376 18.325Q266.34064 18.325 267.54376 19.465626Q268.7469 20.60625 268.7469 22.29375Q268.7469 23.153126 268.3875 23.996876Q268.04376 24.825 267.23126 25.746876Q266.41876 26.653126 264.52814 28.2625Q262.9344 29.590626 262.48126 30.059376Q262.04376 30.528126 261.7469 31.0125L268.7625 31.0125ZM270.52814 25.6375Q270.52814 23.10625 271.04376 21.559376Q271.575 19.996876 272.60626 19.16875Q273.6375 18.325 275.2 18.325Q276.35626 18.325 277.21564 18.79375Q278.09064 19.246876 278.65314 20.121876Q279.21564 20.996876 279.54376 22.2625Q279.8719 23.5125 279.8719 25.6375Q279.8719 28.153126 279.34064 29.7Q278.825 31.246876 277.79376 32.10625Q276.77814 32.95 275.2 32.95Q273.1219 32.95 271.95 31.465626Q270.52814 29.66875 270.52814 25.6375ZM272.34064 25.6375Q272.34064 29.16875 273.15314 30.340626Q273.98126 31.496876 275.2 31.496876Q276.40314 31.496876 277.23126 30.325Q278.0594 29.153126 278.0594 25.6375Q278.0594 22.10625 277.23126 20.95Q276.40314 19.778126 275.1844 19.778126Q273.96564 19.778126 273.2469 20.809376Q272.34064 22.10625 272.34064 25.6375ZM281.85626 21.825Q281.85626 20.29375 282.6219 19.215626Q283.40314 18.1375 284.8719 18.1375Q286.21564 18.1375 287.09064 19.10625Q287.98126 20.059376 287.98126 21.934376Q287.98126 23.746876 287.09064 24.73125Q286.2 25.7 284.8875 25.7Q283.59064 25.7 282.71564 24.746876Q281.85626 23.778126 281.85626 21.825ZM284.91876 19.35625Q284.2625 19.35625 283.825 19.91875Q283.40314 20.48125 283.40314 21.996876Q283.40314 23.371876 283.84064 23.934376Q284.27814 24.496876 284.91876 24.496876Q285.59064 24.496876 286.0125 23.934376Q286.45 23.35625 286.45 21.85625Q286.45 20.465626 286.0125 19.91875Q285.575 19.35625 284.91876 19.35625ZM284.9344 33.23125L292.7625 18.1375L294.1844 18.1375L286.3875 33.23125L284.9344 33.23125ZM291.1219 29.340626Q291.1219 27.79375 291.8875 26.73125Q292.66876 25.653126 294.1375 25.653126Q295.48126 25.653126 296.35626 26.621876Q297.2469 27.575 297.2469 29.45Q297.2469 31.2625 296.35626 32.246876Q295.46564 33.23125 294.15314 33.23125Q292.85626 33.23125 291.98126 32.2625Q291.1219 31.278126 291.1219 29.340626ZM294.1844 26.871876Q293.52814 26.871876 293.09064 27.434376Q292.65314 27.996876 292.65314 29.5125Q292.65314 30.8875 293.09064 31.45Q293.52814 32.0125 294.1844 32.0125Q294.85626 32.0125 295.27814 31.45Q295.71564 30.8875 295.71564 29.371876Q295.71564 27.996876 295.27814 27.434376Q294.84064 26.871876 294.1844 26.871876ZM301.16876 36.903126L299.91876 36.903126Q302.825 32.215626 302.825 27.528126Q302.825 25.684376 302.41876 23.8875Q302.075 22.41875 301.48126 21.075Q301.10626 20.184376 299.91876 18.1375L301.16876 18.1375Q303.0125 20.590626 303.8875 23.059376Q304.6375 25.184376 304.6375 27.5125Q304.6375 30.153126 303.6219 32.621876Q302.6219 35.075 301.16876 36.903126Z" fill-rule="nonzero"/></svg>