<svg width="180" height="180" xmlns="http://www.w3.org/2000/svg" xmlns:xlink="http://www.w3.org/1999/xlink" xml:space="preserve" overflow="hidden"><g transform="translate(-568 -148)"><g><g><g><g><path d="M53.3271 150.285 41.0208 122.503 41.0208 103.671C41.0637 101.39 42.2563 99.2859 44.1906 98.0771 45.2022 97.6171 45.6491 96.4243 45.1893 95.4128 45.1688 95.3678 45.1466 95.3237 45.1229 95.2802 44.7828 94.4756 43.9326 94.0119 43.0719 94.1615L21.8156 94.1615C20.6531 94.09 19.6529 94.9744 19.5815 96.137 19.5798 96.1622 19.5787 96.1873 19.5781 96.2125 19.5127 97.0573 19.9512 97.8612 20.6969 98.2635 22.6907 99.4144 23.9041 101.555 23.8667 103.857L23.8667 122.69 11.7469 150.285C10.305 153.4 11.6612 157.094 14.7759 158.536 14.8836 158.586 14.9927 158.632 15.1031 158.676 15.9197 159.058 16.8123 159.249 17.7135 159.235L47.5469 159.235C51.0191 159.264 53.8576 156.473 53.8865 153.001 53.8868 152.966 53.8868 152.931 53.8865 152.896 53.8999 151.995 53.7088 151.102 53.3271 150.285ZM36.7323 103.671 36.7323 107.959 28.3417 107.959 28.3417 103.671C28.3995 101.759 27.8796 99.8749 26.85 98.2635L38.224 98.2635C37.2777 99.9109 36.7644 101.771 36.7323 103.671Z" fill="#000000" fill-rule="nonzero" fill-opacity="1" transform="matrix(1 0 0 1.00559 568 148)"/><path d="M140.403 107.174C134.56 102.213 126.549 97.9428 115.36 93.7923 119.29 93.3651 123.144 92.406 126.816 90.9413 126.816 90.9413 122.6 88.4185 119.986 78.0925 118.328 71.6056 124.672 55.3874 124.726 43.9706 124.726 34.8341 122.13 30.7451 117.23 27.9706 114.4 26.3652 107.877 27.8438 107.877 27.8438 107.877 27.8438 104.504 21.4576 93.2292 17.9429 83.9585 15.4184 74.0644 16.6828 65.7266 21.4576 58.753 25.9625 55.3819 30.9185 55.2196 47.9645 55.0761 63.5879 57.2203 77.4622 56.2302 84.0032 55.7732 87.6242 54.3957 91.0677 52.2288 94.0048 55.6524 94.2922 59.0905 94.3669 62.5232 94.2286 56.3322 96.4711 50.3788 99.3217 44.75 102.739L44.75 111.813C50.4957 107.6 56.8157 104.232 63.517 101.812L59.937 117.808C59.5994 119.315 60.5473 120.811 62.0546 121.149 62.2556 121.194 62.4609 121.217 62.6668 121.217L69.4539 121.217 65.8757 128.116C65.2295 129.362 65.6076 130.895 66.7595 131.697L86.7218 145.624 86.7218 156.604C76.9349 156.53 67.1627 155.84 57.4627 154.537 57.0359 157.353 55.415 159.847 53.0157 161.382 65.2647 163.341 77.6551 164.279 90.0594 164.188 113.926 164.188 137.606 161.1 145.81 154.947L147.302 153.828 147.302 121.125C147.099 115.703 144.588 110.627 140.403 107.174ZM102.552 119.706 107.115 128.516 94.4654 137.336 105.972 98.5526 109.514 100.357 112.928 115.628 105.041 115.628C103.497 115.627 102.243 116.878 102.241 118.422 102.241 118.869 102.348 119.309 102.552 119.706ZM67.1418 61.5312 67.1418 52.1002C68.0511 52.0452 68.9564 51.937 69.8529 51.7757 76.1084 50.951 82.213 49.233 87.9804 46.6743 94.4635 43.415 98.1815 41.8151 103.561 36.943 104.271 36.2454 105.413 36.2561 106.111 36.9667 106.375 37.2357 106.548 37.5809 106.606 37.9536 107.035 40.9164 108.15 47.4406 109.634 50.0436 110.303 51.3232 111.058 52.5561 111.894 53.7336L111.894 61.5312C111.88 73.883 101.87 83.8928 89.5186 83.9062 77.1662 83.8939 67.1552 73.8837 67.1418 61.5312ZM71.9729 128.52 76.543 119.706C77.2536 118.335 76.7177 116.647 75.3461 115.936 74.9486 115.73 74.5073 115.623 74.0594 115.623L66.1666 115.623 69.5825 100.352 73.1252 98.547 84.6316 137.33ZM89.5466 134.259 77.5294 93.7363C77.5036 93.6666 77.4744 93.598 77.4417 93.5312 78.0168 92.2969 78.314 90.9512 78.3125 89.5895L78.3125 89.17C85.487 92.1 93.5241 92.1 100.699 89.17L100.699 89.5839C100.698 90.9814 101.01 92.3616 101.612 93.6226 101.599 93.6599 101.579 93.6935 101.568 93.7307ZM139.844 149.931C131.966 154.264 112.434 156.483 92.3081 156.614L92.3081 145.665 112.324 131.707C113.476 130.904 113.854 129.371 113.208 128.125L109.632 121.226 116.415 121.226C117.96 121.228 119.214 119.977 119.216 118.433 119.216 118.224 119.193 118.016 119.147 117.812L115.582 101.872C122.795 104.426 129.544 108.137 135.566 112.858 138.125 114.894 139.683 117.932 139.844 121.198Z" fill="#000000" fill-rule="nonzero" fill-opacity="1" transform="matrix(1 0 0 1.00559 568 148)"/><path d="M37.8585 68.4302C37.8585 70.1808 36.4393 71.6 34.6887 71.6 32.9381 71.6 31.5189 70.1808 31.5189 68.4302 31.5189 66.6796 32.9381 65.2604 34.6887 65.2604 36.4393 65.2604 37.8585 66.6796 37.8585 68.4302Z" fill="#000000" fill-rule="nonzero" fill-opacity="1" transform="matrix(1 0 0 1.00559 568 148)"/><path d="M36.9188 78.126C36.9188 79.8767 38.3379 81.2958 40.0885 81.2958 41.8392 81.2958 43.2583 79.8767 43.2583 78.126 43.2583 76.3754 41.8392 74.9563 40.0885 74.9563 38.3379 74.9563 36.9188 76.3754 36.9188 78.126Z" fill="#000000" fill-rule="nonzero" fill-opacity="1" transform="matrix(1 0 0 1.00559 568 148)"/><path d="M28.3417 79.0583C30.0923 79.0583 31.5115 77.6392 31.5115 75.8885 31.5115 74.1379 30.0923 72.7188 28.3417 72.7188 26.591 72.7188 25.1719 74.1379 25.1719 75.8885 25.1719 77.6392 26.591 79.0583 28.3417 79.0583Z" fill="#000000" fill-rule="nonzero" fill-opacity="1" transform="matrix(1 0 0 1.00559 568 148)"/><path d="M26.1042 87.6354C26.1042 90.004 28.0241 91.924 30.3927 91.924 32.7613 91.924 34.6813 90.004 34.6813 87.6354 34.6813 85.2668 32.7613 83.3469 30.3927 83.3469 28.0241 83.3469 26.1042 85.2668 26.1042 87.6354Z" fill="#000000" fill-rule="nonzero" fill-opacity="1" transform="matrix(1 0 0 1.00559 568 148)"/></g></g></g></g></g></svg>